<?xml version="1.0" standalone="no"?>
<!DOCTYPE svg PUBLIC "-//W3C//DTD SVG 1.1//EN" "http://www.w3.org/Graphics/SVG/1.1/DTD/svg11.dtd" >
<svg xmlns="http://www.w3.org/2000/svg" xmlns:xlink="http://www.w3.org/1999/xlink" version="1.1">
<metadata>
Created by FontForge 20201107 at Tue Jan  2 14:27:38 2024
 By 
Copyright (c) 2019 by 29Letters. All rights reserved.
</metadata>
<defs>
<font id="29LTBaseet-Thin" horiz-adv-x="1073" >
  <font-face 
    font-family="29LT Baseet Thin"
    font-weight="265"
    font-stretch="normal"
    units-per-em="2048"
    panose-1="0 0 3 0 0 0 0 0 0 0"
    ascent="1516"
    descent="-532"
    x-height="989"
    cap-height="1372"
    bbox="-991 -895.9 3197 2127.38"
    underline-thickness="102"
    underline-position="-307"
    unicode-range="U+000D-FEFC"
  />
<missing-glyph horiz-adv-x="0" 
 />
    <glyph glyph-name="fi" unicode="fi" 
d="M283 989h600q10 0 10 -10v-969q0 -10 -10 -10h-9q-10 0 -10 10v953h-581v-953q0 -10 -11 -10h-8q-10 0 -10 10v953h-131q-10 0 -10 10v6q0 10 10 10h131v201q0 169 77.5 257.5t221.5 88.5q169 0 295 -147q6 -9 0 -15l-8 -6q-4 -4 -13 2q-66 74 -129 105.5t-145 31.5
q-131 0 -200.5 -81t-69.5 -238v-199z" />
    <glyph glyph-name="fl" unicode="fl" 
d="M254 989v201q0 346 317 346q318 0 318 -346v-1180q0 -10 -10 -10h-9q-10 0 -10 10v1178q0 319 -289 319q-288 0 -288 -319v-199h327q11 0 11 -10v-6q0 -10 -11 -10h-327v-953q0 -10 -11 -10h-8q-10 0 -10 10v953h-131q-10 0 -10 10v6q0 10 10 10h131z" />
    <glyph glyph-name="uniFC64" unicode="&#xfe8c;&#xfeae;" horiz-adv-x="1255" arabic-form="final" 
d="M1151 1202h-350q-10 0 -10 10v7q0 10 10 10h104q-35 27 -35 86v78q0 62 35.5 102.5t91.5 40.5h25q56 0 111 -43q5 -5 2 -10l-7 -8q-6 -6 -14 0q-46 34 -94 34h-23q-44 0 -73 -34t-29 -82v-78q0 -41 21.5 -63.5t60.5 -22.5h174q10 0 10 -10v-7q0 -10 -10 -10zM1253 27h2
q11 0 11 -11v-6q0 -10 -11 -10h-2q-152 0 -224.5 65.5t-72.5 202.5v596h-534v-995q0 -311 -289 -311h-8q-133 0 -213 80q-5 5 -2 12l8 8q3 7 12 -2q72 -72 195 -72h8q262 0 262 285v1012q0 10 8 10h553v88q0 10 9 10h10q8 0 8 -10v-711q0 -125 65.5 -183t204.5 -58z" />
    <glyph glyph-name="uniFC65" unicode="&#xfe8c;&#xfeb0;" horiz-adv-x="1255" arabic-form="final" 
d="M1151 1202h-350q-10 0 -10 10v7q0 10 10 10h104q-35 27 -35 86v78q0 62 35.5 102.5t91.5 40.5h25q56 0 111 -43q5 -5 2 -10l-7 -8q-6 -6 -14 0q-46 34 -94 34h-23q-44 0 -73 -34t-29 -82v-78q0 -41 21.5 -63.5t60.5 -22.5h174q10 0 10 -10v-7q0 -10 -10 -10zM418 1096
h-17q-10 0 -10 10v100q0 11 10 11h17q10 0 10 -11v-100q0 -10 -10 -10zM1253 27h2q11 0 11 -11v-6q0 -10 -11 -10h-2q-152 0 -224.5 65.5t-72.5 202.5v596h-534v-995q0 -311 -289 -311h-8q-133 0 -213 80q-5 5 -2 12l8 8q3 7 12 -2q72 -72 195 -72h8q262 0 262 285v1012
q0 10 8 10h553v88q0 10 9 10h10q8 0 8 -10v-711q0 -125 65.5 -183t204.5 -58z" />
    <glyph glyph-name="uniFC67" unicode="&#xfe8c;&#xfee6;" horiz-adv-x="1929" arabic-form="final" 
d="M1825 1069h-350q-11 0 -11 10v6q0 11 11 11h104q-35 27 -35 86v78q0 62 35.5 102.5t91.5 40.5h25q55 0 110 -43q5 -5 2 -10l-6 -9q-6 -6 -14 0q-47 35 -94 35h-23q-44 0 -73 -34t-29 -82v-78q0 -41 21.5 -63.5t60.5 -22.5h174q10 0 10 -11v-6q0 -10 -10 -10zM1927 27h2
q10 0 10 -11v-6q0 -10 -10 -10h-2q-152 0 -224.5 65.5t-72.5 202.5v463h-551q-10 0 -10 10v7q0 10 10 10h551v88q0 10 8 10h11q8 0 8 -10v-578q0 -125 65.5 -183t204.5 -58zM659 680h-16q-10 0 -10 10v101q0 10 10 10h16q11 0 11 -10v-101q0 -10 -11 -10zM1079 727h6
q11 0 11 -10v-864q0 -136 -89 -212.5t-247 -76.5h-207q-179 0 -279 102.5t-100 288.5q0 205 131 379q5 7 14 4l7 -4q8 -4 0 -15q-125 -186 -125 -364q0 -172 93 -268.5t259 -96.5h207q146 0 227.5 70t81.5 193v864q0 10 10 10z" />
    <glyph glyph-name="uniFC68" unicode="&#xfe8c;&#xfef0;" horiz-adv-x="2058" arabic-form="final" 
d="M1954 1202h-350q-11 0 -11 10v7q0 10 11 10h104q-35 27 -35 86v78q0 62 35.5 102.5t91.5 40.5h25q55 0 110 -43q5 -5 2 -10l-6 -8q-6 -6 -14 0q-46 34 -94 34h-23q-44 0 -73 -34t-29 -82v-78q0 -41 21.5 -63.5t60.5 -22.5h174q10 0 10 -10v-7q0 -10 -10 -10zM2056 27h2
q10 0 10 -11v-6q0 -10 -10 -10h-2q-152 0 -224.5 65.5t-72.5 202.5v596h-373q-137 0 -213.5 -80.5t-76.5 -226.5v-704q0 -136 -89 -212.5t-247 -76.5h-207q-179 0 -279 102.5t-100 288.5q0 205 131 379q5 7 14 4l7 -4q8 -4 0 -15q-125 -186 -125 -364q0 -172 93 -268.5
t259 -96.5h207q146 0 227.5 70t81.5 193v704q0 158 84 246t233 88h373v88q0 10 8 10h11q8 0 8 -10v-711q0 -125 65.5 -183t204.5 -58z" />
    <glyph glyph-name="uniFC69" unicode="&#xfe8c;&#xfef2;" horiz-adv-x="2058" arabic-form="final" 
d="M1954 1202h-350q-11 0 -11 10v7q0 10 11 10h104q-35 27 -35 86v78q0 62 35.5 102.5t91.5 40.5h25q55 0 110 -43q5 -5 2 -10l-6 -8q-6 -6 -14 0q-46 34 -94 34h-23q-44 0 -73 -34t-29 -82v-78q0 -41 21.5 -63.5t60.5 -22.5h174q10 0 10 -10v-7q0 -10 -10 -10zM2056 27h2
q10 0 10 -11v-6q0 -10 -10 -10h-2q-152 0 -224.5 65.5t-72.5 202.5v596h-373q-137 0 -213.5 -80.5t-76.5 -226.5v-704q0 -136 -89 -212.5t-247 -76.5h-207q-179 0 -279 102.5t-100 288.5q0 205 131 379q5 7 14 4l7 -4q8 -4 0 -15q-125 -186 -125 -364q0 -172 93 -268.5
t259 -96.5h207q146 0 227.5 70t81.5 193v704q0 158 84 246t233 88h373v88q0 10 8 10h11q8 0 8 -10v-711q0 -125 65.5 -183t204.5 -58zM508 -647h16q11 0 11 -10v-101q0 -10 -11 -10h-16q-10 0 -10 10v101q0 10 10 10zM745 -647h17q10 0 10 -10v-101q0 -10 -10 -10h-17
q-10 0 -10 10v101q0 10 10 10z" />
    <glyph glyph-name="uniFC6A" unicode="&#xfe92;&#xfeae;" horiz-adv-x="1255" arabic-form="final" 
d="M1253 27h2q11 0 11 -11v-6q0 -10 -11 -10h-2q-152 0 -224.5 65.5t-72.5 202.5v596h-534v-995q0 -311 -289 -311h-8q-133 0 -213 80q-5 5 -2 12l8 8q3 7 12 -2q72 -72 195 -72h8q262 0 262 285v1012q0 10 8 10h553v88q0 10 9 10h10q8 0 8 -10v-711q0 -125 65.5 -183
t204.5 -58zM754 -205h16q10 0 10 -10v-100q0 -11 -10 -11h-16q-11 0 -11 11v100q0 10 11 10z" />
    <glyph glyph-name="uniFC6B" unicode="&#xfe92;&#xfeb0;" horiz-adv-x="1255" arabic-form="final" 
d="M418 1096h-17q-10 0 -10 10v100q0 11 10 11h17q10 0 10 -11v-100q0 -10 -10 -10zM1253 27h2q11 0 11 -11v-6q0 -10 -11 -10h-2q-152 0 -224.5 65.5t-72.5 202.5v596h-534v-995q0 -311 -289 -311h-8q-133 0 -213 80q-5 5 -2 12l8 8q3 7 12 -2q72 -72 195 -72h8
q262 0 262 285v1012q0 10 8 10h553v88q0 10 9 10h10q8 0 8 -10v-711q0 -125 65.5 -183t204.5 -58zM754 -205h16q10 0 10 -10v-100q0 -11 -10 -11h-16q-11 0 -11 11v100q0 10 11 10z" />
    <glyph glyph-name="uniFC6D" unicode="&#xfe92;&#xfee6;" horiz-adv-x="1929" arabic-form="final" 
d="M1927 27h2q10 0 10 -11v-6q0 -10 -10 -10h-2q-152 0 -224.5 65.5t-72.5 202.5v463h-551q-10 0 -10 10v7q0 10 10 10h551v88q0 10 8 10h11q8 0 8 -10v-578q0 -125 65.5 -183t204.5 -58zM659 680h-16q-10 0 -10 10v101q0 10 10 10h16q11 0 11 -10v-101q0 -10 -11 -10z
M1079 727h6q11 0 11 -10v-864q0 -136 -89 -212.5t-247 -76.5h-207q-179 0 -279 102.5t-100 288.5q0 205 131 379q5 7 14 4l7 -4q8 -4 0 -15q-125 -186 -125 -364q0 -172 93 -268.5t259 -96.5h207q146 0 227.5 70t81.5 193v864q0 10 10 10zM1438 -205h16q10 0 10 -10v-100
q0 -11 -10 -11h-16q-11 0 -11 11v100q0 10 11 10z" />
    <glyph glyph-name="uniFC6E" unicode="&#xfe92;&#xfef0;" horiz-adv-x="2058" arabic-form="final" 
d="M2056 27h2q10 0 10 -11v-6q0 -10 -10 -10h-2q-152 0 -224.5 65.5t-72.5 202.5v596h-373q-137 0 -213.5 -80.5t-76.5 -226.5v-704q0 -136 -89 -212.5t-247 -76.5h-207q-179 0 -279 102.5t-100 288.5q0 205 131 379q5 7 14 4l7 -4q8 -4 0 -15q-125 -186 -125 -364
q0 -172 93 -268.5t259 -96.5h207q146 0 227.5 70t81.5 193v704q0 158 84 246t233 88h373v88q0 10 8 10h11q8 0 8 -10v-711q0 -125 65.5 -183t204.5 -58zM1501 -205h17q10 0 10 -10v-100q0 -11 -10 -11h-17q-10 0 -10 11v100q0 10 10 10z" />
    <glyph glyph-name="uniFC6F" unicode="&#xfe92;&#xfef2;" horiz-adv-x="2058" arabic-form="final" 
d="M2056 27h2q10 0 10 -11v-6q0 -10 -10 -10h-2q-152 0 -224.5 65.5t-72.5 202.5v596h-373q-137 0 -213.5 -80.5t-76.5 -226.5v-704q0 -136 -89 -212.5t-247 -76.5h-207q-179 0 -279 102.5t-100 288.5q0 205 131 379q5 7 14 4l7 -4q8 -4 0 -15q-125 -186 -125 -364
q0 -172 93 -268.5t259 -96.5h207q146 0 227.5 70t81.5 193v704q0 158 84 246t233 88h373v88q0 10 8 10h11q8 0 8 -10v-711q0 -125 65.5 -183t204.5 -58zM1501 -205h17q10 0 10 -10v-100q0 -11 -10 -11h-17q-10 0 -10 11v100q0 10 10 10zM508 -647h16q11 0 11 -10v-101
q0 -10 -11 -10h-16q-10 0 -10 10v101q0 10 10 10zM745 -647h17q10 0 10 -10v-101q0 -10 -10 -10h-17q-10 0 -10 10v101q0 10 10 10z" />
    <glyph glyph-name="uniFC70" unicode="&#xfe98;&#xfeae;" horiz-adv-x="1255" arabic-form="final" 
d="M860 1194h-16q-10 0 -10 10v101q0 10 10 10h16q10 0 10 -10v-101q0 -10 -10 -10zM1098 1194h-17q-10 0 -10 10v101q0 10 10 10h17q10 0 10 -10v-101q0 -10 -10 -10zM1253 27h2q11 0 11 -11v-6q0 -10 -11 -10h-2q-152 0 -224.5 65.5t-72.5 202.5v596h-534v-995
q0 -311 -289 -311h-8q-133 0 -213 80q-5 5 -2 12l8 8q3 7 12 -2q72 -72 195 -72h8q262 0 262 285v1012q0 10 8 10h553v88q0 10 9 10h10q8 0 8 -10v-711q0 -125 65.5 -183t204.5 -58z" />
    <glyph glyph-name="uniFC71" unicode="&#xfe98;&#xfeb0;" horiz-adv-x="1255" arabic-form="final" 
d="M860 1194h-16q-10 0 -10 10v101q0 10 10 10h16q10 0 10 -10v-101q0 -10 -10 -10zM1098 1194h-17q-10 0 -10 10v101q0 10 10 10h17q10 0 10 -10v-101q0 -10 -10 -10zM418 1096h-17q-10 0 -10 10v100q0 11 10 11h17q10 0 10 -11v-100q0 -10 -10 -10zM1253 27h2q11 0 11 -11
v-6q0 -10 -11 -10h-2q-152 0 -224.5 65.5t-72.5 202.5v596h-534v-995q0 -311 -289 -311h-8q-133 0 -213 80q-5 5 -2 12l8 8q3 7 12 -2q72 -72 195 -72h8q262 0 262 285v1012q0 10 8 10h553v88q0 10 9 10h10q8 0 8 -10v-711q0 -125 65.5 -183t204.5 -58z" />
    <glyph glyph-name="uniFC73" unicode="&#xfe98;&#xfee6;" horiz-adv-x="1929" arabic-form="final" 
d="M1534 1061h-16q-11 0 -11 10v100q0 11 11 11h16q10 0 10 -11v-100q0 -10 -10 -10zM1772 1061h-17q-10 0 -10 10v100q0 11 10 11h17q10 0 10 -11v-100q0 -10 -10 -10zM1927 27h2q10 0 10 -11v-6q0 -10 -10 -10h-2q-152 0 -224.5 65.5t-72.5 202.5v463h-551q-10 0 -10 10v7
q0 10 10 10h551v88q0 10 8 10h11q8 0 8 -10v-578q0 -125 65.5 -183t204.5 -58zM659 680h-16q-10 0 -10 10v101q0 10 10 10h16q11 0 11 -10v-101q0 -10 -11 -10zM1079 727h6q11 0 11 -10v-864q0 -136 -89 -212.5t-247 -76.5h-207q-179 0 -279 102.5t-100 288.5q0 205 131 379
q5 7 14 4l7 -4q8 -4 0 -15q-125 -186 -125 -364q0 -172 93 -268.5t259 -96.5h207q146 0 227.5 70t81.5 193v864q0 10 10 10z" />
    <glyph glyph-name="uniFC74" unicode="&#xfe98;&#xfef0;" horiz-adv-x="2058" arabic-form="final" 
d="M1663 1194h-16q-11 0 -11 10v101q0 10 11 10h16q10 0 10 -10v-101q0 -10 -10 -10zM1901 1194h-17q-10 0 -10 10v101q0 10 10 10h17q10 0 10 -10v-101q0 -10 -10 -10zM2056 27h2q10 0 10 -11v-6q0 -10 -10 -10h-2q-152 0 -224.5 65.5t-72.5 202.5v596h-373
q-137 0 -213.5 -80.5t-76.5 -226.5v-704q0 -136 -89 -212.5t-247 -76.5h-207q-179 0 -279 102.5t-100 288.5q0 205 131 379q5 7 14 4l7 -4q8 -4 0 -15q-125 -186 -125 -364q0 -172 93 -268.5t259 -96.5h207q146 0 227.5 70t81.5 193v704q0 158 84 246t233 88h373v88
q0 10 8 10h11q8 0 8 -10v-711q0 -125 65.5 -183t204.5 -58z" />
    <glyph glyph-name="uniFC75" unicode="&#xfe98;&#xfef2;" horiz-adv-x="2058" arabic-form="final" 
d="M1663 1194h-16q-11 0 -11 10v101q0 10 11 10h16q10 0 10 -10v-101q0 -10 -10 -10zM1901 1194h-17q-10 0 -10 10v101q0 10 10 10h17q10 0 10 -10v-101q0 -10 -10 -10zM2056 27h2q10 0 10 -11v-6q0 -10 -10 -10h-2q-152 0 -224.5 65.5t-72.5 202.5v596h-373
q-137 0 -213.5 -80.5t-76.5 -226.5v-704q0 -136 -89 -212.5t-247 -76.5h-207q-179 0 -279 102.5t-100 288.5q0 205 131 379q5 7 14 4l7 -4q8 -4 0 -15q-125 -186 -125 -364q0 -172 93 -268.5t259 -96.5h207q146 0 227.5 70t81.5 193v704q0 158 84 246t233 88h373v88
q0 10 8 10h11q8 0 8 -10v-711q0 -125 65.5 -183t204.5 -58zM508 -647h16q11 0 11 -10v-101q0 -10 -11 -10h-16q-10 0 -10 10v101q0 10 10 10zM745 -647h17q10 0 10 -10v-101q0 -10 -10 -10h-17q-10 0 -10 10v101q0 10 10 10z" />
    <glyph glyph-name="uniFC76" unicode="&#xfe9c;&#xfeae;" horiz-adv-x="1255" arabic-form="final" 
d="M979 1399h-16q-11 0 -11 10v100q0 11 11 11h16q10 0 10 -11v-100q0 -10 -10 -10zM860 1194h-16q-10 0 -10 10v101q0 10 10 10h16q10 0 10 -10v-101q0 -10 -10 -10zM1098 1194h-17q-10 0 -10 10v101q0 10 10 10h17q10 0 10 -10v-101q0 -10 -10 -10zM1253 27h2q11 0 11 -11
v-6q0 -10 -11 -10h-2q-152 0 -224.5 65.5t-72.5 202.5v596h-534v-995q0 -311 -289 -311h-8q-133 0 -213 80q-5 5 -2 12l8 8q3 7 12 -2q72 -72 195 -72h8q262 0 262 285v1012q0 10 8 10h553v88q0 10 9 10h10q8 0 8 -10v-711q0 -125 65.5 -183t204.5 -58z" />
    <glyph glyph-name="uniFC77" unicode="&#xfe9c;&#xfeb0;" horiz-adv-x="1255" arabic-form="final" 
d="M979 1399h-16q-11 0 -11 10v100q0 11 11 11h16q10 0 10 -11v-100q0 -10 -10 -10zM860 1194h-16q-10 0 -10 10v101q0 10 10 10h16q10 0 10 -10v-101q0 -10 -10 -10zM1098 1194h-17q-10 0 -10 10v101q0 10 10 10h17q10 0 10 -10v-101q0 -10 -10 -10zM418 1096h-17
q-10 0 -10 10v100q0 11 10 11h17q10 0 10 -11v-100q0 -10 -10 -10zM1253 27h2q11 0 11 -11v-6q0 -10 -11 -10h-2q-152 0 -224.5 65.5t-72.5 202.5v596h-534v-995q0 -311 -289 -311h-8q-133 0 -213 80q-5 5 -2 12l8 8q3 7 12 -2q72 -72 195 -72h8q262 0 262 285v1012
q0 10 8 10h553v88q0 10 9 10h10q8 0 8 -10v-711q0 -125 65.5 -183t204.5 -58z" />
    <glyph glyph-name="uniFC79" unicode="&#xfe9c;&#xfee6;" horiz-adv-x="1929" arabic-form="final" 
d="M1653 1266h-17q-10 0 -10 10v100q0 10 10 10h17q10 0 10 -10v-100q0 -10 -10 -10zM1534 1061h-16q-11 0 -11 10v100q0 11 11 11h16q10 0 10 -11v-100q0 -10 -10 -10zM1772 1061h-17q-10 0 -10 10v100q0 11 10 11h17q10 0 10 -11v-100q0 -10 -10 -10zM1927 27h2
q10 0 10 -11v-6q0 -10 -10 -10h-2q-152 0 -224.5 65.5t-72.5 202.5v463h-551q-10 0 -10 10v7q0 10 10 10h551v88q0 10 8 10h11q8 0 8 -10v-578q0 -125 65.5 -183t204.5 -58zM659 680h-16q-10 0 -10 10v101q0 10 10 10h16q11 0 11 -10v-101q0 -10 -11 -10zM1079 727h6
q11 0 11 -10v-864q0 -136 -89 -212.5t-247 -76.5h-207q-179 0 -279 102.5t-100 288.5q0 205 131 379q5 7 14 4l7 -4q8 -4 0 -15q-125 -186 -125 -364q0 -172 93 -268.5t259 -96.5h207q146 0 227.5 70t81.5 193v864q0 10 10 10z" />
    <glyph glyph-name="uniFC7A" unicode="&#xfe9c;&#xfef0;" horiz-adv-x="2058" arabic-form="final" 
d="M1782 1399h-17q-10 0 -10 10v100q0 11 10 11h17q10 0 10 -11v-100q0 -10 -10 -10zM1663 1194h-16q-11 0 -11 10v101q0 10 11 10h16q10 0 10 -10v-101q0 -10 -10 -10zM1901 1194h-17q-10 0 -10 10v101q0 10 10 10h17q10 0 10 -10v-101q0 -10 -10 -10zM2056 27h2
q10 0 10 -11v-6q0 -10 -10 -10h-2q-152 0 -224.5 65.5t-72.5 202.5v596h-373q-137 0 -213.5 -80.5t-76.5 -226.5v-704q0 -136 -89 -212.5t-247 -76.5h-207q-179 0 -279 102.5t-100 288.5q0 205 131 379q5 7 14 4l7 -4q8 -4 0 -15q-125 -186 -125 -364q0 -172 93 -268.5
t259 -96.5h207q146 0 227.5 70t81.5 193v704q0 158 84 246t233 88h373v88q0 10 8 10h11q8 0 8 -10v-711q0 -125 65.5 -183t204.5 -58z" />
    <glyph glyph-name="uniFC7B" unicode="&#xfe9c;&#xfef2;" horiz-adv-x="2058" arabic-form="final" 
d="M1782 1399h-17q-10 0 -10 10v100q0 11 10 11h17q10 0 10 -11v-100q0 -10 -10 -10zM1663 1194h-16q-11 0 -11 10v101q0 10 11 10h16q10 0 10 -10v-101q0 -10 -10 -10zM1901 1194h-17q-10 0 -10 10v101q0 10 10 10h17q10 0 10 -10v-101q0 -10 -10 -10zM2056 27h2
q10 0 10 -11v-6q0 -10 -10 -10h-2q-152 0 -224.5 65.5t-72.5 202.5v596h-373q-137 0 -213.5 -80.5t-76.5 -226.5v-704q0 -136 -89 -212.5t-247 -76.5h-207q-179 0 -279 102.5t-100 288.5q0 205 131 379q5 7 14 4l7 -4q8 -4 0 -15q-125 -186 -125 -364q0 -172 93 -268.5
t259 -96.5h207q146 0 227.5 70t81.5 193v704q0 158 84 246t233 88h373v88q0 10 8 10h11q8 0 8 -10v-711q0 -125 65.5 -183t204.5 -58zM508 -647h16q11 0 11 -10v-101q0 -10 -11 -10h-16q-10 0 -10 10v101q0 10 10 10zM745 -647h17q10 0 10 -10v-101q0 -10 -10 -10h-17
q-10 0 -10 10v101q0 10 10 10z" />
    <glyph glyph-name="uniFC8A" unicode="&#xfee8;&#xfeae;" horiz-adv-x="1255" arabic-form="final" 
d="M979 1194h-16q-11 0 -11 10v101q0 10 11 10h16q10 0 10 -10v-101q0 -10 -10 -10zM1253 27h2q11 0 11 -11v-6q0 -10 -11 -10h-2q-152 0 -224.5 65.5t-72.5 202.5v596h-534v-995q0 -311 -289 -311h-8q-133 0 -213 80q-5 5 -2 12l8 8q3 7 12 -2q72 -72 195 -72h8
q262 0 262 285v1012q0 10 8 10h553v88q0 10 9 10h10q8 0 8 -10v-711q0 -125 65.5 -183t204.5 -58z" />
    <glyph glyph-name="uniFC8B" unicode="&#xfee8;&#xfeb0;" horiz-adv-x="1255" arabic-form="final" 
d="M979 1194h-16q-11 0 -11 10v101q0 10 11 10h16q10 0 10 -10v-101q0 -10 -10 -10zM418 1096h-17q-10 0 -10 10v100q0 11 10 11h17q10 0 10 -11v-100q0 -10 -10 -10zM1253 27h2q11 0 11 -11v-6q0 -10 -11 -10h-2q-152 0 -224.5 65.5t-72.5 202.5v596h-534v-995
q0 -311 -289 -311h-8q-133 0 -213 80q-5 5 -2 12l8 8q3 7 12 -2q72 -72 195 -72h8q262 0 262 285v1012q0 10 8 10h553v88q0 10 9 10h10q8 0 8 -10v-711q0 -125 65.5 -183t204.5 -58z" />
    <glyph glyph-name="uniFC8D" unicode="&#xfee8;&#xfee6;" horiz-adv-x="1929" arabic-form="final" 
d="M1653 1061h-17q-10 0 -10 10v100q0 11 10 11h17q10 0 10 -11v-100q0 -10 -10 -10zM1927 27h2q10 0 10 -11v-6q0 -10 -10 -10h-2q-152 0 -224.5 65.5t-72.5 202.5v463h-551q-10 0 -10 10v7q0 10 10 10h551v88q0 10 8 10h11q8 0 8 -10v-578q0 -125 65.5 -183t204.5 -58z
M659 680h-16q-10 0 -10 10v101q0 10 10 10h16q11 0 11 -10v-101q0 -10 -11 -10zM1079 727h6q11 0 11 -10v-864q0 -136 -89 -212.5t-247 -76.5h-207q-179 0 -279 102.5t-100 288.5q0 205 131 379q5 7 14 4l7 -4q8 -4 0 -15q-125 -186 -125 -364q0 -172 93 -268.5t259 -96.5
h207q146 0 227.5 70t81.5 193v864q0 10 10 10z" />
    <glyph glyph-name="uniFC8E" unicode="&#xfee8;&#xfef0;" horiz-adv-x="2058" arabic-form="final" 
d="M1782 1194h-17q-10 0 -10 10v101q0 10 10 10h17q10 0 10 -10v-101q0 -10 -10 -10zM2056 27h2q10 0 10 -11v-6q0 -10 -10 -10h-2q-152 0 -224.5 65.5t-72.5 202.5v596h-373q-137 0 -213.5 -80.5t-76.5 -226.5v-704q0 -136 -89 -212.5t-247 -76.5h-207q-179 0 -279 102.5
t-100 288.5q0 205 131 379q5 7 14 4l7 -4q8 -4 0 -15q-125 -186 -125 -364q0 -172 93 -268.5t259 -96.5h207q146 0 227.5 70t81.5 193v704q0 158 84 246t233 88h373v88q0 10 8 10h11q8 0 8 -10v-711q0 -125 65.5 -183t204.5 -58z" />
    <glyph glyph-name="uniFC8F" unicode="&#xfee8;&#xfef2;" horiz-adv-x="2058" arabic-form="final" 
d="M1782 1194h-17q-10 0 -10 10v101q0 10 10 10h17q10 0 10 -10v-101q0 -10 -10 -10zM2056 27h2q10 0 10 -11v-6q0 -10 -10 -10h-2q-152 0 -224.5 65.5t-72.5 202.5v596h-373q-137 0 -213.5 -80.5t-76.5 -226.5v-704q0 -136 -89 -212.5t-247 -76.5h-207q-179 0 -279 102.5
t-100 288.5q0 205 131 379q5 7 14 4l7 -4q8 -4 0 -15q-125 -186 -125 -364q0 -172 93 -268.5t259 -96.5h207q146 0 227.5 70t81.5 193v704q0 158 84 246t233 88h373v88q0 10 8 10h11q8 0 8 -10v-711q0 -125 65.5 -183t204.5 -58zM508 -647h16q11 0 11 -10v-101
q0 -10 -11 -10h-16q-10 0 -10 10v101q0 10 10 10zM745 -647h17q10 0 10 -10v-101q0 -10 -10 -10h-17q-10 0 -10 10v101q0 10 10 10z" />
    <glyph glyph-name="uniFC91" unicode="&#xfef4;&#xfeae;" horiz-adv-x="1255" arabic-form="final" 
d="M1253 27h2q11 0 11 -11v-6q0 -10 -11 -10h-2q-152 0 -224.5 65.5t-72.5 202.5v596h-534v-995q0 -311 -289 -311h-8q-133 0 -213 80q-5 5 -2 12l8 8q3 7 12 -2q72 -72 195 -72h8q262 0 262 285v1012q0 10 8 10h553v88q0 10 9 10h10q8 0 8 -10v-711q0 -125 65.5 -183
t204.5 -58zM635 -205h16q11 0 11 -10v-100q0 -11 -11 -11h-16q-10 0 -10 11v100q0 10 10 10zM872 -205h17q10 0 10 -10v-100q0 -11 -10 -11h-17q-10 0 -10 11v100q0 10 10 10z" />
    <glyph glyph-name="uniFC92" unicode="&#xfef4;&#xfeb0;" horiz-adv-x="1255" arabic-form="final" 
d="M418 1096h-17q-10 0 -10 10v100q0 11 10 11h17q10 0 10 -11v-100q0 -10 -10 -10zM1253 27h2q11 0 11 -11v-6q0 -10 -11 -10h-2q-152 0 -224.5 65.5t-72.5 202.5v596h-534v-995q0 -311 -289 -311h-8q-133 0 -213 80q-5 5 -2 12l8 8q3 7 12 -2q72 -72 195 -72h8
q262 0 262 285v1012q0 10 8 10h553v88q0 10 9 10h10q8 0 8 -10v-711q0 -125 65.5 -183t204.5 -58zM635 -205h16q11 0 11 -10v-100q0 -11 -11 -11h-16q-10 0 -10 11v100q0 10 10 10zM872 -205h17q10 0 10 -10v-100q0 -11 -10 -11h-17q-10 0 -10 11v100q0 10 10 10z" />
    <glyph glyph-name="uniFC94" unicode="&#xfef4;&#xfee6;" horiz-adv-x="1929" arabic-form="final" 
d="M1927 27h2q10 0 10 -11v-6q0 -10 -10 -10h-2q-152 0 -224.5 65.5t-72.5 202.5v463h-551q-10 0 -10 10v7q0 10 10 10h551v88q0 10 8 10h11q8 0 8 -10v-578q0 -125 65.5 -183t204.5 -58zM659 680h-16q-10 0 -10 10v101q0 10 10 10h16q11 0 11 -10v-101q0 -10 -11 -10z
M1079 727h6q11 0 11 -10v-864q0 -136 -89 -212.5t-247 -76.5h-207q-179 0 -279 102.5t-100 288.5q0 205 131 379q5 7 14 4l7 -4q8 -4 0 -15q-125 -186 -125 -364q0 -172 93 -268.5t259 -96.5h207q146 0 227.5 70t81.5 193v864q0 10 10 10zM1319 -205h16q11 0 11 -10v-100
q0 -11 -11 -11h-16q-10 0 -10 11v100q0 10 10 10zM1556 -205h17q10 0 10 -10v-100q0 -11 -10 -11h-17q-10 0 -10 11v100q0 10 10 10z" />
    <glyph glyph-name="uniFCFB" unicode="&#xfeb3;&#xfef0;" horiz-adv-x="3121" arabic-form="isolated" 
d="M2910 913h6q11 0 11 -10v-575q0 -164 -86 -256t-238 -92q-244 0 -293 235q-52 -235 -311 -235q-307 0 -307 346v538h-306q-137 0 -213.5 -80.5t-76.5 -226.5v-704q0 -136 -89 -212.5t-247 -76.5h-207q-179 0 -279 102.5t-100 288.5q0 205 131 379q5 7 14 4l7 -4
q8 -4 0 -15q-125 -186 -125 -364q0 -172 93 -268.5t259 -96.5h207q146 0 227.5 70t81.5 193v485q0 6 2 8v211q0 158 83 246t232 88h324q8 0 8 -10v-555q0 -320 281 -320q140 0 218.5 85t78.5 237v420q0 10 10 10h6q10 0 10 -10v-420v-2q0 -149 75 -234.5t206 -85.5
q140 0 218.5 85t78.5 237v575q0 10 10 10z" />
    <glyph glyph-name="uniFCFC" unicode="&#xfeb3;&#xfef2;" horiz-adv-x="3121" arabic-form="isolated" 
d="M2910 913h6q11 0 11 -10v-575q0 -164 -86 -256t-238 -92q-244 0 -293 235q-52 -235 -311 -235q-307 0 -307 346v538h-306q-137 0 -213.5 -80.5t-76.5 -226.5v-704q0 -136 -89 -212.5t-247 -76.5h-207q-179 0 -279 102.5t-100 288.5q0 205 131 379q5 7 14 4l7 -4
q8 -4 0 -15q-125 -186 -125 -364q0 -172 93 -268.5t259 -96.5h207q146 0 227.5 70t81.5 193v485q0 6 2 8v211q0 158 83 246t232 88h324q8 0 8 -10v-555q0 -320 281 -320q140 0 218.5 85t78.5 237v420q0 10 10 10h6q10 0 10 -10v-420v-2q0 -149 75 -234.5t206 -85.5
q140 0 218.5 85t78.5 237v575q0 10 10 10zM508 -647h16q11 0 11 -10v-101q0 -10 -11 -10h-16q-10 0 -10 10v101q0 10 10 10zM745 -647h17q10 0 10 -10v-101q0 -10 -10 -10h-17q-10 0 -10 10v101q0 10 10 10z" />
    <glyph glyph-name="uniFCFD" unicode="&#xfeb7;&#xfef0;" horiz-adv-x="3121" arabic-form="isolated" 
d="M2318 1167h-16q-10 0 -10 11v100q0 10 10 10h16q11 0 11 -10v-100q0 -11 -11 -11zM2200 963h-17q-10 0 -10 10v100q0 10 10 10h17q10 0 10 -10v-100q0 -10 -10 -10zM2437 963h-16q-11 0 -11 10v100q0 10 11 10h16q10 0 10 -10v-100q0 -10 -10 -10zM2910 913h6
q11 0 11 -10v-575q0 -164 -86 -256t-238 -92q-244 0 -293 235q-52 -235 -311 -235q-307 0 -307 346v538h-306q-137 0 -213.5 -80.5t-76.5 -226.5v-704q0 -136 -89 -212.5t-247 -76.5h-207q-179 0 -279 102.5t-100 288.5q0 205 131 379q5 7 14 4l7 -4q8 -4 0 -15
q-125 -186 -125 -364q0 -172 93 -268.5t259 -96.5h207q146 0 227.5 70t81.5 193v485q0 6 2 8v211q0 158 83 246t232 88h324q8 0 8 -10v-555q0 -320 281 -320q140 0 218.5 85t78.5 237v420q0 10 10 10h6q10 0 10 -10v-420v-2q0 -149 75 -234.5t206 -85.5q140 0 218.5 85
t78.5 237v575q0 10 10 10z" />
    <glyph glyph-name="uniFCFE" unicode="&#xfeb7;&#xfef2;" horiz-adv-x="3121" arabic-form="isolated" 
d="M2318 1167h-16q-10 0 -10 11v100q0 10 10 10h16q11 0 11 -10v-100q0 -11 -11 -11zM2200 963h-17q-10 0 -10 10v100q0 10 10 10h17q10 0 10 -10v-100q0 -10 -10 -10zM2437 963h-16q-11 0 -11 10v100q0 10 11 10h16q10 0 10 -10v-100q0 -10 -10 -10zM2910 913h6
q11 0 11 -10v-575q0 -164 -86 -256t-238 -92q-244 0 -293 235q-52 -235 -311 -235q-307 0 -307 346v538h-306q-137 0 -213.5 -80.5t-76.5 -226.5v-704q0 -136 -89 -212.5t-247 -76.5h-207q-179 0 -279 102.5t-100 288.5q0 205 131 379q5 7 14 4l7 -4q8 -4 0 -15
q-125 -186 -125 -364q0 -172 93 -268.5t259 -96.5h207q146 0 227.5 70t81.5 193v485q0 6 2 8v211q0 158 83 246t232 88h324q8 0 8 -10v-555q0 -320 281 -320q140 0 218.5 85t78.5 237v420q0 10 10 10h6q10 0 10 -10v-420v-2q0 -149 75 -234.5t206 -85.5q140 0 218.5 85
t78.5 237v575q0 10 10 10zM508 -647h16q11 0 11 -10v-101q0 -10 -11 -10h-16q-10 0 -10 10v101q0 10 10 10zM745 -647h17q10 0 10 -10v-101q0 -10 -10 -10h-17q-10 0 -10 10v101q0 10 10 10z" />
    <glyph glyph-name="uniFD05" unicode="&#xfebb;&#xfef0;" horiz-adv-x="2951" arabic-form="isolated" 
d="M2193 891h293q148 0 230 -81.5t82 -229.5v-244q0 -158 -82 -247t-230 -89h-501q-146 0 -227 92t-81 254v518h-291q-137 0 -213.5 -80.5t-76.5 -226.5v-704q0 -136 -89 -212.5t-247 -76.5h-207q-179 0 -279 102.5t-100 288.5q0 205 131 379q5 7 14 4l7 -4q8 -4 0 -15
q-125 -186 -125 -364q0 -172 93 -268.5t259 -96.5h207q146 0 227.5 70t81.5 193v704q0 158 84 246t233 88h308q10 0 10 -10v-449l121 199q82 136 169 198t199 62zM2771 336v244q0 133 -75.5 208.5t-209.5 75.5h-293q-105 0 -187 -60t-161 -190l-141 -231v-37
q0 -150 74 -234.5t207 -84.5h501q134 0 209.5 81.5t75.5 227.5z" />
    <glyph glyph-name="uniFD06" unicode="&#xfebb;&#xfef2;" horiz-adv-x="2951" arabic-form="isolated" 
d="M2193 891h293q148 0 230 -81.5t82 -229.5v-244q0 -158 -82 -247t-230 -89h-501q-146 0 -227 92t-81 254v518h-291q-137 0 -213.5 -80.5t-76.5 -226.5v-704q0 -136 -89 -212.5t-247 -76.5h-207q-179 0 -279 102.5t-100 288.5q0 205 131 379q5 7 14 4l7 -4q8 -4 0 -15
q-125 -186 -125 -364q0 -172 93 -268.5t259 -96.5h207q146 0 227.5 70t81.5 193v704q0 158 84 246t233 88h308q10 0 10 -10v-449l121 199q82 136 169 198t199 62zM2771 336v244q0 133 -75.5 208.5t-209.5 75.5h-293q-105 0 -187 -60t-161 -190l-141 -231v-37
q0 -150 74 -234.5t207 -84.5h501q134 0 209.5 81.5t75.5 227.5zM508 -647h16q11 0 11 -10v-101q0 -10 -11 -10h-16q-10 0 -10 10v101q0 10 10 10zM745 -647h17q10 0 10 -10v-101q0 -10 -10 -10h-17q-10 0 -10 10v101q0 10 10 10z" />
    <glyph glyph-name="uniFD07" unicode="&#xfebf;&#xfef0;" horiz-adv-x="2951" arabic-form="isolated" 
d="M2353 1096h-16q-10 0 -10 10v100q0 11 10 11h16q10 0 10 -11v-100q0 -10 -10 -10zM2193 891h293q148 0 230 -81.5t82 -229.5v-244q0 -158 -82 -247t-230 -89h-501q-146 0 -227 92t-81 254v518h-291q-137 0 -213.5 -80.5t-76.5 -226.5v-704q0 -136 -89 -212.5t-247 -76.5
h-207q-179 0 -279 102.5t-100 288.5q0 205 131 379q5 7 14 4l7 -4q8 -4 0 -15q-125 -186 -125 -364q0 -172 93 -268.5t259 -96.5h207q146 0 227.5 70t81.5 193v704q0 158 84 246t233 88h308q10 0 10 -10v-449l121 199q82 136 169 198t199 62zM2771 336v244
q0 133 -75.5 208.5t-209.5 75.5h-293q-105 0 -187 -60t-161 -190l-141 -231v-37q0 -150 74 -234.5t207 -84.5h501q134 0 209.5 81.5t75.5 227.5z" />
    <glyph glyph-name="uniFD08" unicode="&#xfebf;&#xfef2;" horiz-adv-x="2951" arabic-form="isolated" 
d="M2353 1096h-16q-10 0 -10 10v100q0 11 10 11h16q10 0 10 -11v-100q0 -10 -10 -10zM2193 891h293q148 0 230 -81.5t82 -229.5v-244q0 -158 -82 -247t-230 -89h-501q-146 0 -227 92t-81 254v518h-291q-137 0 -213.5 -80.5t-76.5 -226.5v-704q0 -136 -89 -212.5t-247 -76.5
h-207q-179 0 -279 102.5t-100 288.5q0 205 131 379q5 7 14 4l7 -4q8 -4 0 -15q-125 -186 -125 -364q0 -172 93 -268.5t259 -96.5h207q146 0 227.5 70t81.5 193v704q0 158 84 246t233 88h308q10 0 10 -10v-449l121 199q82 136 169 198t199 62zM2771 336v244
q0 133 -75.5 208.5t-209.5 75.5h-293q-105 0 -187 -60t-161 -190l-141 -231v-37q0 -150 74 -234.5t207 -84.5h501q134 0 209.5 81.5t75.5 227.5zM508 -647h16q11 0 11 -10v-101q0 -10 -11 -10h-16q-10 0 -10 10v101q0 10 10 10zM745 -647h17q10 0 10 -10v-101q0 -10 -10 -10
h-17q-10 0 -10 10v101q0 10 10 10z" />
    <glyph glyph-name="uniFD0D" unicode="&#xfeb7;&#xfeae;" horiz-adv-x="2324" arabic-form="isolated" 
d="M1522 1167h-17q-10 0 -10 11v100q0 10 10 10h17q10 0 10 -10v-100q0 -11 -10 -11zM1403 963h-17q-10 0 -10 10v100q0 10 10 10h17q10 0 10 -10v-100q0 -10 -10 -10zM1640 963h-16q-10 0 -10 10v100q0 10 10 10h16q11 0 11 -10v-100q0 -10 -11 -10zM2114 913h6
q10 0 10 -10v-575q0 -164 -86 -256t-238 -92q-244 0 -293 235q-52 -235 -311 -235q-307 0 -307 346v405h-473v-862q0 -311 -289 -311h-8q-133 0 -213 80q-5 5 -2 12l8 8q3 7 12 -2q72 -72 195 -72h8q262 0 262 285v1012q0 10 8 10h11q8 0 8 -10v-123h491q9 0 9 -10v-422
q0 -320 280 -320q140 0 218.5 85t78.5 237v420q0 10 10 10h7q10 0 10 -10v-420v-2q0 -149 74.5 -234.5t205.5 -85.5q140 0 218.5 85t78.5 237v575q0 10 11 10z" />
    <glyph glyph-name="uniFD0E" unicode="&#xfeb3;&#xfeae;" horiz-adv-x="2324" arabic-form="isolated" 
d="M2114 913h6q10 0 10 -10v-575q0 -164 -86 -256t-238 -92q-244 0 -293 235q-52 -235 -311 -235q-307 0 -307 346v405h-473v-862q0 -311 -289 -311h-8q-133 0 -213 80q-5 5 -2 12l8 8q3 7 12 -2q72 -72 195 -72h8q262 0 262 285v1012q0 10 8 10h11q8 0 8 -10v-123h491
q9 0 9 -10v-422q0 -320 280 -320q140 0 218.5 85t78.5 237v420q0 10 10 10h7q10 0 10 -10v-420v-2q0 -149 74.5 -234.5t205.5 -85.5q140 0 218.5 85t78.5 237v575q0 10 11 10z" />
    <glyph glyph-name="uniFD17" unicode="&#xfeb4;&#xfef0;" horiz-adv-x="3186" arabic-form="final" 
d="M3187 27q10 0 10 -11v-6q0 -10 -10 -10q-129 0 -193 46.5t-84 156.5q-26 -106 -106 -164.5t-201 -58.5q-244 0 -293 235q-52 -235 -311 -235q-307 0 -307 346v538h-306q-137 0 -213.5 -80.5t-76.5 -226.5v-704q0 -136 -89 -212.5t-247 -76.5h-207q-179 0 -279 102.5
t-100 288.5q0 205 131 379q5 7 14 4l7 -4q8 -4 0 -15q-125 -186 -125 -364q0 -172 93 -268.5t259 -96.5h207q146 0 227.5 70t81.5 193v485q0 6 2 8v211q0 158 83 246t232 88h324q8 0 8 -10v-555q0 -320 281 -320q140 0 218.5 85t78.5 237v420q0 10 10 10h6q10 0 10 -10v-420
v-2q0 -149 75 -234.5t206 -85.5q140 0 218.5 85t78.5 237v575q0 10 10 10h6q11 0 11 -10v-573q0 -168 57 -235.5t203 -67.5z" />
    <glyph glyph-name="uniFD18" unicode="&#xfeb4;&#xfef2;" horiz-adv-x="3186" arabic-form="final" 
d="M3187 27q10 0 10 -11v-6q0 -10 -10 -10q-129 0 -193 46.5t-84 156.5q-26 -106 -106 -164.5t-201 -58.5q-244 0 -293 235q-52 -235 -311 -235q-307 0 -307 346v538h-306q-137 0 -213.5 -80.5t-76.5 -226.5v-704q0 -136 -89 -212.5t-247 -76.5h-207q-179 0 -279 102.5
t-100 288.5q0 205 131 379q5 7 14 4l7 -4q8 -4 0 -15q-125 -186 -125 -364q0 -172 93 -268.5t259 -96.5h207q146 0 227.5 70t81.5 193v485q0 6 2 8v211q0 158 83 246t232 88h324q8 0 8 -10v-555q0 -320 281 -320q140 0 218.5 85t78.5 237v420q0 10 10 10h6q10 0 10 -10v-420
v-2q0 -149 75 -234.5t206 -85.5q140 0 218.5 85t78.5 237v575q0 10 10 10h6q11 0 11 -10v-573q0 -168 57 -235.5t203 -67.5zM508 -647h16q11 0 11 -10v-101q0 -10 -11 -10h-16q-10 0 -10 10v101q0 10 10 10zM745 -647h17q10 0 10 -10v-101q0 -10 -10 -10h-17q-10 0 -10 10
v101q0 10 10 10z" />
    <glyph glyph-name="uniFD19" unicode="&#xfeb8;&#xfef0;" horiz-adv-x="3186" arabic-form="final" 
d="M2318 1167h-16q-10 0 -10 11v100q0 10 10 10h16q11 0 11 -10v-100q0 -11 -11 -11zM2200 963h-17q-10 0 -10 10v100q0 10 10 10h17q10 0 10 -10v-100q0 -10 -10 -10zM2437 963h-16q-11 0 -11 10v100q0 10 11 10h16q10 0 10 -10v-100q0 -10 -10 -10zM3187 27q10 0 10 -11
v-6q0 -10 -10 -10q-129 0 -193 46.5t-84 156.5q-26 -106 -106 -164.5t-201 -58.5q-244 0 -293 235q-52 -235 -311 -235q-307 0 -307 346v538h-306q-137 0 -213.5 -80.5t-76.5 -226.5v-704q0 -136 -89 -212.5t-247 -76.5h-207q-179 0 -279 102.5t-100 288.5q0 205 131 379
q5 7 14 4l7 -4q8 -4 0 -15q-125 -186 -125 -364q0 -172 93 -268.5t259 -96.5h207q146 0 227.5 70t81.5 193v485q0 6 2 8v211q0 158 83 246t232 88h324q8 0 8 -10v-555q0 -320 281 -320q140 0 218.5 85t78.5 237v420q0 10 10 10h6q10 0 10 -10v-420v-2q0 -149 75 -234.5
t206 -85.5q140 0 218.5 85t78.5 237v575q0 10 10 10h6q11 0 11 -10v-573q0 -168 57 -235.5t203 -67.5z" />
    <glyph glyph-name="uniFD1A" unicode="&#xfeb8;&#xfef2;" horiz-adv-x="3186" arabic-form="final" 
d="M2318 1167h-16q-10 0 -10 11v100q0 10 10 10h16q11 0 11 -10v-100q0 -11 -11 -11zM2200 963h-17q-10 0 -10 10v100q0 10 10 10h17q10 0 10 -10v-100q0 -10 -10 -10zM2437 963h-16q-11 0 -11 10v100q0 10 11 10h16q10 0 10 -10v-100q0 -10 -10 -10zM3187 27q10 0 10 -11
v-6q0 -10 -10 -10q-129 0 -193 46.5t-84 156.5q-26 -106 -106 -164.5t-201 -58.5q-244 0 -293 235q-52 -235 -311 -235q-307 0 -307 346v538h-306q-137 0 -213.5 -80.5t-76.5 -226.5v-704q0 -136 -89 -212.5t-247 -76.5h-207q-179 0 -279 102.5t-100 288.5q0 205 131 379
q5 7 14 4l7 -4q8 -4 0 -15q-125 -186 -125 -364q0 -172 93 -268.5t259 -96.5h207q146 0 227.5 70t81.5 193v485q0 6 2 8v211q0 158 83 246t232 88h324q8 0 8 -10v-555q0 -320 281 -320q140 0 218.5 85t78.5 237v420q0 10 10 10h6q10 0 10 -10v-420v-2q0 -149 75 -234.5
t206 -85.5q140 0 218.5 85t78.5 237v575q0 10 10 10h6q11 0 11 -10v-573q0 -168 57 -235.5t203 -67.5zM508 -647h16q11 0 11 -10v-101q0 -10 -11 -10h-16q-10 0 -10 10v101q0 10 10 10zM745 -647h17q10 0 10 -10v-101q0 -10 -10 -10h-17q-10 0 -10 10v101q0 10 10 10z" />
    <glyph glyph-name="uniFD21" unicode="&#xfebc;&#xfef0;" horiz-adv-x="3057" arabic-form="final" 
d="M3058 27q10 0 10 -11v-6q0 -10 -10 -10q-132 0 -195 47t-82 162q-62 -209 -295 -209h-501q-146 0 -227 92t-81 254v518h-291q-137 0 -213.5 -80.5t-76.5 -226.5v-704q0 -136 -89 -212.5t-247 -76.5h-207q-179 0 -279 102.5t-100 288.5q0 205 131 379q5 7 14 4l7 -4
q8 -4 0 -15q-125 -186 -125 -364q0 -172 93 -268.5t259 -96.5h207q146 0 227.5 70t81.5 193v704q0 158 84 246t233 88h308q10 0 10 -10v-449l121 199q82 136 169 198t199 62h293q148 0 230 -81.5t82 -229.5v-244v-6q0 -168 57 -235.5t203 -67.5zM2771 336v244
q0 133 -75.5 208.5t-209.5 75.5h-293q-105 0 -187 -60t-161 -190l-141 -231v-37q0 -150 74 -234.5t207 -84.5h501q134 0 209.5 81.5t75.5 227.5z" />
    <glyph glyph-name="uniFD22" unicode="&#xfebc;&#xfef2;" horiz-adv-x="3057" arabic-form="final" 
d="M3058 27q10 0 10 -11v-6q0 -10 -10 -10q-132 0 -195 47t-82 162q-62 -209 -295 -209h-501q-146 0 -227 92t-81 254v518h-291q-137 0 -213.5 -80.5t-76.5 -226.5v-704q0 -136 -89 -212.5t-247 -76.5h-207q-179 0 -279 102.5t-100 288.5q0 205 131 379q5 7 14 4l7 -4
q8 -4 0 -15q-125 -186 -125 -364q0 -172 93 -268.5t259 -96.5h207q146 0 227.5 70t81.5 193v704q0 158 84 246t233 88h308q10 0 10 -10v-449l121 199q82 136 169 198t199 62h293q148 0 230 -81.5t82 -229.5v-244v-6q0 -168 57 -235.5t203 -67.5zM2771 336v244
q0 133 -75.5 208.5t-209.5 75.5h-293q-105 0 -187 -60t-161 -190l-141 -231v-37q0 -150 74 -234.5t207 -84.5h501q134 0 209.5 81.5t75.5 227.5zM508 -647h16q11 0 11 -10v-101q0 -10 -11 -10h-16q-10 0 -10 10v101q0 10 10 10zM745 -647h17q10 0 10 -10v-101q0 -10 -10 -10
h-17q-10 0 -10 10v101q0 10 10 10z" />
    <glyph glyph-name="uniFD23" unicode="&#xfec0;&#xfef0;" horiz-adv-x="3057" arabic-form="final" 
d="M2353 1096h-16q-10 0 -10 10v100q0 11 10 11h16q10 0 10 -11v-100q0 -10 -10 -10zM3058 27q10 0 10 -11v-6q0 -10 -10 -10q-132 0 -195 47t-82 162q-62 -209 -295 -209h-501q-146 0 -227 92t-81 254v518h-291q-137 0 -213.5 -80.5t-76.5 -226.5v-704q0 -136 -89 -212.5
t-247 -76.5h-207q-179 0 -279 102.5t-100 288.5q0 205 131 379q5 7 14 4l7 -4q8 -4 0 -15q-125 -186 -125 -364q0 -172 93 -268.5t259 -96.5h207q146 0 227.5 70t81.5 193v704q0 158 84 246t233 88h308q10 0 10 -10v-449l121 199q82 136 169 198t199 62h293q148 0 230 -81.5
t82 -229.5v-244v-6q0 -168 57 -235.5t203 -67.5zM2771 336v244q0 133 -75.5 208.5t-209.5 75.5h-293q-105 0 -187 -60t-161 -190l-141 -231v-37q0 -150 74 -234.5t207 -84.5h501q134 0 209.5 81.5t75.5 227.5z" />
    <glyph glyph-name="uniFD24" unicode="&#xfec0;&#xfef2;" horiz-adv-x="3057" arabic-form="final" 
d="M2353 1096h-16q-10 0 -10 10v100q0 11 10 11h16q10 0 10 -11v-100q0 -10 -10 -10zM3058 27q10 0 10 -11v-6q0 -10 -10 -10q-132 0 -195 47t-82 162q-62 -209 -295 -209h-501q-146 0 -227 92t-81 254v518h-291q-137 0 -213.5 -80.5t-76.5 -226.5v-704q0 -136 -89 -212.5
t-247 -76.5h-207q-179 0 -279 102.5t-100 288.5q0 205 131 379q5 7 14 4l7 -4q8 -4 0 -15q-125 -186 -125 -364q0 -172 93 -268.5t259 -96.5h207q146 0 227.5 70t81.5 193v704q0 158 84 246t233 88h308q10 0 10 -10v-449l121 199q82 136 169 198t199 62h293q148 0 230 -81.5
t82 -229.5v-244v-6q0 -168 57 -235.5t203 -67.5zM2771 336v244q0 133 -75.5 208.5t-209.5 75.5h-293q-105 0 -187 -60t-161 -190l-141 -231v-37q0 -150 74 -234.5t207 -84.5h501q134 0 209.5 81.5t75.5 227.5zM508 -647h16q11 0 11 -10v-101q0 -10 -11 -10h-16q-10 0 -10 10
v101q0 10 10 10zM745 -647h17q10 0 10 -10v-101q0 -10 -10 -10h-17q-10 0 -10 10v101q0 10 10 10z" />
    <glyph glyph-name="uniFD29" unicode="&#xfeb8;&#xfeae;" horiz-adv-x="2390" arabic-form="final" 
d="M1522 1167h-17q-10 0 -10 11v100q0 10 10 10h17q10 0 10 -10v-100q0 -11 -10 -11zM1403 963h-17q-10 0 -10 10v100q0 10 10 10h17q10 0 10 -10v-100q0 -10 -10 -10zM1640 963h-16q-10 0 -10 10v100q0 10 10 10h16q11 0 11 -10v-100q0 -10 -11 -10zM2390 27q10 0 10 -11
v-6q0 -10 -10 -10q-129 0 -192.5 46.5t-83.5 156.5q-26 -106 -106.5 -164.5t-201.5 -58.5q-244 0 -293 235q-52 -235 -311 -235q-307 0 -307 346v405h-473v-862q0 -311 -289 -311h-8q-133 0 -213 80q-5 5 -2 12l8 8q3 7 12 -2q72 -72 195 -72h8q262 0 262 285v1012
q0 10 8 10h11q8 0 8 -10v-123h491q9 0 9 -10v-422q0 -320 280 -320q140 0 218.5 85t78.5 237v420q0 10 10 10h7q10 0 10 -10v-420v-2q0 -149 74.5 -234.5t205.5 -85.5q140 0 218.5 85t78.5 237v575q0 10 11 10h6q10 0 10 -10v-573q0 -168 57 -235.5t203 -67.5z" />
    <glyph glyph-name="uniFD2A" unicode="&#xfeb4;&#xfeae;" horiz-adv-x="2390" arabic-form="final" 
d="M2390 27q10 0 10 -11v-6q0 -10 -10 -10q-129 0 -192.5 46.5t-83.5 156.5q-26 -106 -106.5 -164.5t-201.5 -58.5q-244 0 -293 235q-52 -235 -311 -235q-307 0 -307 346v405h-473v-862q0 -311 -289 -311h-8q-133 0 -213 80q-5 5 -2 12l8 8q3 7 12 -2q72 -72 195 -72h8
q262 0 262 285v1012q0 10 8 10h11q8 0 8 -10v-123h491q9 0 9 -10v-422q0 -320 280 -320q140 0 218.5 85t78.5 237v420q0 10 10 10h7q10 0 10 -10v-420v-2q0 -149 74.5 -234.5t205.5 -85.5q140 0 218.5 85t78.5 237v575q0 10 11 10h6q10 0 10 -10v-573q0 -168 57 -235.5
t203 -67.5z" />
    <glyph glyph-name="uniFEF5" unicode="&#xfedf;&#xfe82;" horiz-adv-x="1314" arabic-form="isolated" 
d="M815 0h-733q-10 0 -10 10v6q0 11 10 11h459v1040h-121q-10 0 -10 10v6q0 11 10 11h137q10 0 10 -11v-1056h248q137 0 202.5 58.5t65.5 182.5v1258q0 10 11 10h6q10 0 10 -10v-1258q0 -139 -71 -203.5t-224 -64.5zM655 1333q-60 -71 -168 21q-52 43 -88 43
q-31 0 -51 -23.5t-20 -60.5q0 -10 -11 -10h-6q-10 0 -10 10q0 49 27.5 79.5t70.5 30.5q44 0 103 -47q9 -5 25 -19t30 -21t31 -7q29 0 47 23.5t18 60.5q0 10 11 10h6q10 0 10 -10q0 -49 -25 -80z" />
    <glyph glyph-name="uniFEF6" unicode="&#xfee0;&#xfe82;" horiz-adv-x="1370" arabic-form="final" 
d="M1370 27q10 0 10 -11v-6q0 -10 -10 -10q-122 0 -184.5 40t-85.5 134q-43 -174 -285 -174h-733q-10 0 -10 10v6q0 11 10 11h459v1040h-121q-10 0 -10 10v6q0 11 10 11h137q10 0 10 -11v-1056h248q137 0 202.5 58.5t65.5 182.5v1258q0 10 11 10h6q10 0 10 -10v-1196
q0 -168 57 -235.5t203 -67.5zM317 1303h-6q-10 0 -10 10q0 49 27.5 79.5t70.5 30.5q44 0 103 -47q9 -5 25 -19t30 -21t31 -7q29 0 47 23.5t18 60.5q0 10 11 10h6q10 0 10 -10q0 -37 -14.5 -64t-39 -39t-61.5 -1.5t-78 45.5q-52 43 -88 43q-31 0 -51 -23.5t-20 -60.5
q0 -10 -11 -10z" />
    <glyph glyph-name="uniFEF7" unicode="&#xfedf;&#xfe84;" horiz-adv-x="1314" arabic-form="isolated" 
d="M672 1307h-350q-11 0 -11 10v6q0 10 11 10h104q-35 27 -35 86v78q0 62 35.5 102.5t91.5 40.5h25q55 0 110 -43q5 -5 2 -10l-6 -8q-6 -6 -14 0q-47 35 -94 35h-23q-44 0 -73 -34.5t-29 -82.5v-78q0 -41 21.5 -63.5t60.5 -22.5h174q10 0 10 -10v-6q0 -10 -10 -10z
M1094 1536h6q10 0 10 -10v-1258q0 -139 -71 -203.5t-224 -64.5h-733q-10 0 -10 10v6q0 11 10 11h459v1040h-121q-10 0 -10 10v6q0 11 10 11h137q10 0 10 -11v-1056h248q137 0 202.5 58.5t65.5 182.5v1258q0 10 11 10z" />
    <glyph glyph-name="uniFEF8" unicode="&#xfee0;&#xfe84;" horiz-adv-x="1370" arabic-form="final" 
d="M672 1307h-350q-11 0 -11 10v6q0 10 11 10h104q-35 27 -35 86v78q0 62 35.5 102.5t91.5 40.5h25q55 0 110 -43q5 -5 2 -10l-6 -8q-6 -6 -14 0q-47 35 -94 35h-23q-44 0 -73 -34.5t-29 -82.5v-78q0 -41 21.5 -63.5t60.5 -22.5h174q10 0 10 -10v-6q0 -10 -10 -10zM1370 27
q10 0 10 -11v-6q0 -10 -10 -10q-122 0 -184.5 40t-85.5 134q-43 -174 -285 -174h-733q-10 0 -10 10v6q0 11 10 11h459v1040h-121q-10 0 -10 10v6q0 11 10 11h137q10 0 10 -11v-1056h248q137 0 202.5 58.5t65.5 182.5v1258q0 10 11 10h6q10 0 10 -10v-1196q0 -168 57 -235.5
t203 -67.5z" />
    <glyph glyph-name="uniFEF9" unicode="&#xfedf;&#xfe88;" horiz-adv-x="1314" arabic-form="isolated" 
d="M1094 1536h6q10 0 10 -10v-1258q0 -139 -71 -203.5t-224 -64.5h-733q-10 0 -10 10v6q0 11 10 11h459v1040h-121q-10 0 -10 10v6q0 11 10 11h137q10 0 10 -11v-1056h248q137 0 202.5 58.5t65.5 182.5v1258q0 10 11 10zM573 -514h175q10 0 10 -10v-6q0 -11 -10 -11h-351
q-10 0 -10 11v6q0 10 10 10h105q-35 27 -35 86v78q0 62 35.5 102.5t91.5 40.5h24q68 0 111 -43q5 -5 2 -10l-6 -8q-6 -6 -14 0q-53 35 -95 35h-22q-44 0 -73 -34.5t-29 -82.5v-78q0 -41 21.5 -63.5t59.5 -22.5z" />
    <glyph glyph-name="uniFEFA" unicode="&#xfee0;&#xfe88;" horiz-adv-x="1370" arabic-form="final" 
d="M1370 27q10 0 10 -11v-6q0 -10 -10 -10q-122 0 -184.5 40t-85.5 134q-43 -174 -285 -174h-733q-10 0 -10 10v6q0 11 10 11h459v1040h-121q-10 0 -10 10v6q0 11 10 11h137q10 0 10 -11v-1056h248q137 0 202.5 58.5t65.5 182.5v1258q0 10 11 10h6q10 0 10 -10v-1196
q0 -168 57 -235.5t203 -67.5zM573 -514h175q10 0 10 -10v-6q0 -11 -10 -11h-351q-10 0 -10 11v6q0 10 10 10h105q-35 27 -35 86v78q0 62 35.5 102.5t91.5 40.5h24q68 0 111 -43q5 -5 2 -10l-6 -8q-6 -6 -14 0q-53 35 -95 35h-22q-44 0 -73 -34.5t-29 -82.5v-78
q0 -41 21.5 -63.5t59.5 -22.5z" />
    <glyph glyph-name="uniFEFB" unicode="&#xfedf;&#xfe8e;" horiz-adv-x="1314" arabic-form="isolated" 
d="M815 0h-733q-10 0 -10 10v6q0 11 10 11h459v1040h-121q-10 0 -10 10v6q0 11 10 11h137q10 0 10 -11v-1056h248q137 0 202.5 58.5t65.5 182.5v1258q0 10 11 10h6q10 0 10 -10v-1258q0 -139 -71 -203.5t-224 -64.5z" />
    <glyph glyph-name="uniFEFC" unicode="&#xfee0;&#xfe8e;" horiz-adv-x="1370" arabic-form="final" 
d="M1370 27q10 0 10 -11v-6q0 -10 -10 -10q-122 0 -184.5 40t-85.5 134q-43 -174 -285 -174h-733q-10 0 -10 10v6q0 11 10 11h459v1040h-121q-10 0 -10 10v6q0 11 10 11h137q10 0 10 -11v-1056h248q137 0 202.5 58.5t65.5 182.5v1258q0 10 11 10h6q10 0 10 -10v-1196
q0 -168 57 -235.5t203 -67.5z" />
    <glyph glyph-name="uniFEDFFB51" unicode="&#xfedf;&#xfb51;" horiz-adv-x="1314" 
d="M1094 1536h6q10 0 10 -10v-1258q0 -139 -71 -203.5t-224 -64.5h-733q-10 0 -10 10v6q0 11 10 11h459v1040h-121q-10 0 -10 10v6q0 11 10 11h137q10 0 10 -11v-1056h248q137 0 202.5 58.5t65.5 182.5v1258q0 10 11 10zM590 1309h-264q-11 0 -11 10v6q0 10 11 10h88v105
q0 35 21.5 57.5t56.5 22.5h98q35 0 56.5 -22.5t21.5 -57.5v-51q0 -35 -21.5 -57.5t-56.5 -22.5zM438 1440v-105h152q53 0 53 54v51q0 53 -53 53h-98q-54 0 -54 -53z" />
    <glyph glyph-name="uniFEE0FB51" unicode="&#xfee0;&#xfb51;" horiz-adv-x="1314" 
d="M1094 1536h6q10 0 10 -10v-1258q0 -139 -71 -203.5t-224 -64.5h-733q-10 0 -10 10v6q0 11 10 11h459v1040h-121q-10 0 -10 10v6q0 11 10 11h137q10 0 10 -11v-1056h248q137 0 202.5 58.5t65.5 182.5v1258q0 10 11 10zM590 1309h-264q-11 0 -11 10v6q0 10 11 10h88v105
q0 35 21.5 57.5t56.5 22.5h98q35 0 56.5 -22.5t21.5 -57.5v-51q0 -35 -21.5 -57.5t-56.5 -22.5zM438 1440v-105h152q53 0 53 54v51q0 53 -53 53h-98q-54 0 -54 -53z" />
    <glyph glyph-name="uniFE92FE8A" unicode="&#xfe92;&#xfe8a;" horiz-adv-x="2058" 
d="M842 770h-350q-11 0 -11 10v6q0 11 11 11h104q-35 27 -35 86v78q0 62 35.5 102.5t91.5 40.5h25q55 0 110 -43q5 -5 2 -10l-6 -9q-6 -6 -14 0q-47 35 -94 35h-23q-44 0 -73 -34t-29 -82v-78q0 -41 21.5 -63.5t60.5 -22.5h174q10 0 10 -11v-6q0 -10 -10 -10zM2056 27h2
q10 0 10 -11v-6q0 -10 -10 -10h-2q-152 0 -224.5 65.5t-72.5 202.5v596h-373q-137 0 -213.5 -80.5t-76.5 -226.5v-704q0 -136 -89 -212.5t-247 -76.5h-207q-179 0 -279 102.5t-100 288.5q0 205 131 379q5 7 14 4l7 -4q8 -4 0 -15q-125 -186 -125 -364q0 -172 93 -268.5
t259 -96.5h207q146 0 227.5 70t81.5 193v704q0 158 84 246t233 88h373v88q0 10 8 10h11q8 0 8 -10v-711q0 -125 65.5 -183t204.5 -58zM1501 -205h17q10 0 10 -10v-100q0 -11 -10 -11h-17q-10 0 -10 11v100q0 10 10 10z" />
    <glyph glyph-name="uniFB59FEAE" unicode="&#xfb59;&#xfeae;" horiz-adv-x="1255" 
d="M1253 27h2q11 0 11 -11v-6q0 -10 -11 -10h-2q-152 0 -224.5 65.5t-72.5 202.5v596h-534v-995q0 -311 -289 -311h-8q-133 0 -213 80q-5 5 -2 12l8 8q3 7 12 -2q72 -72 195 -72h8q262 0 262 285v1012q0 10 8 10h553v88q0 10 9 10h10q8 0 8 -10v-711q0 -125 65.5 -183
t204.5 -58zM635 -205h16q11 0 11 -10v-100q0 -11 -11 -11h-16q-10 0 -10 11v100q0 10 10 10zM872 -205h17q10 0 10 -10v-100q0 -11 -10 -11h-17q-10 0 -10 11v100q0 10 10 10zM754 -410h16q10 0 10 -10v-100q0 -10 -10 -10h-16q-11 0 -11 10v100q0 10 11 10z" />
    <glyph glyph-name="uniFB59FEB0" unicode="&#xfb59;&#xfeb0;" horiz-adv-x="1255" 
d="M418 1096h-17q-10 0 -10 10v100q0 11 10 11h17q10 0 10 -11v-100q0 -10 -10 -10zM1253 27h2q11 0 11 -11v-6q0 -10 -11 -10h-2q-152 0 -224.5 65.5t-72.5 202.5v596h-534v-995q0 -311 -289 -311h-8q-133 0 -213 80q-5 5 -2 12l8 8q3 7 12 -2q72 -72 195 -72h8
q262 0 262 285v1012q0 10 8 10h553v88q0 10 9 10h10q8 0 8 -10v-711q0 -125 65.5 -183t204.5 -58zM635 -205h16q11 0 11 -10v-100q0 -11 -11 -11h-16q-10 0 -10 11v100q0 10 10 10zM872 -205h17q10 0 10 -10v-100q0 -11 -10 -11h-17q-10 0 -10 11v100q0 10 10 10zM754 -410
h16q10 0 10 -10v-100q0 -10 -10 -10h-16q-11 0 -11 10v100q0 10 11 10z" />
    <glyph glyph-name="uniFB59FEE6" unicode="&#xfb59;&#xfee6;" horiz-adv-x="1929" 
d="M1927 27h2q10 0 10 -11v-6q0 -10 -10 -10h-2q-152 0 -224.5 65.5t-72.5 202.5v463h-551q-10 0 -10 10v7q0 10 10 10h551v88q0 10 8 10h11q8 0 8 -10v-578q0 -125 65.5 -183t204.5 -58zM659 680h-16q-10 0 -10 10v101q0 10 10 10h16q11 0 11 -10v-101q0 -10 -11 -10z
M1079 727h6q11 0 11 -10v-864q0 -136 -89 -212.5t-247 -76.5h-207q-179 0 -279 102.5t-100 288.5q0 205 131 379q5 7 14 4l7 -4q8 -4 0 -15q-125 -186 -125 -364q0 -172 93 -268.5t259 -96.5h207q146 0 227.5 70t81.5 193v864q0 10 10 10zM1319 -205h16q11 0 11 -10v-100
q0 -11 -11 -11h-16q-10 0 -10 11v100q0 10 10 10zM1556 -205h17q10 0 10 -10v-100q0 -11 -10 -11h-17q-10 0 -10 11v100q0 10 10 10zM1438 -410h16q10 0 10 -10v-100q0 -10 -10 -10h-16q-11 0 -11 10v100q0 10 11 10z" />
    <glyph glyph-name="uniFB59FEF0" unicode="&#xfb59;&#xfef0;" horiz-adv-x="2058" 
d="M2056 27h2q10 0 10 -11v-6q0 -10 -10 -10h-2q-152 0 -224.5 65.5t-72.5 202.5v596h-373q-137 0 -213.5 -80.5t-76.5 -226.5v-704q0 -136 -89 -212.5t-247 -76.5h-207q-179 0 -279 102.5t-100 288.5q0 205 131 379q5 7 14 4l7 -4q8 -4 0 -15q-125 -186 -125 -364
q0 -172 93 -268.5t259 -96.5h207q146 0 227.5 70t81.5 193v704q0 158 84 246t233 88h373v88q0 10 8 10h11q8 0 8 -10v-711q0 -125 65.5 -183t204.5 -58zM1382 -205h17q10 0 10 -10v-100q0 -11 -10 -11h-17q-10 0 -10 11v100q0 10 10 10zM1620 -205h16q11 0 11 -10v-100
q0 -11 -11 -11h-16q-10 0 -10 11v100q0 10 10 10zM1501 -410h17q10 0 10 -10v-100q0 -10 -10 -10h-17q-10 0 -10 10v100q0 10 10 10z" />
    <glyph glyph-name="uniFB59FEF2" unicode="&#xfb59;&#xfef2;" horiz-adv-x="2058" 
d="M2056 27h2q10 0 10 -11v-6q0 -10 -10 -10h-2q-152 0 -224.5 65.5t-72.5 202.5v596h-373q-137 0 -213.5 -80.5t-76.5 -226.5v-704q0 -136 -89 -212.5t-247 -76.5h-207q-179 0 -279 102.5t-100 288.5q0 205 131 379q5 7 14 4l7 -4q8 -4 0 -15q-125 -186 -125 -364
q0 -172 93 -268.5t259 -96.5h207q146 0 227.5 70t81.5 193v704q0 158 84 246t233 88h373v88q0 10 8 10h11q8 0 8 -10v-711q0 -125 65.5 -183t204.5 -58zM1382 -205h17q10 0 10 -10v-100q0 -11 -10 -11h-17q-10 0 -10 11v100q0 10 10 10zM1620 -205h16q11 0 11 -10v-100
q0 -11 -11 -11h-16q-10 0 -10 11v100q0 10 10 10zM1501 -410h17q10 0 10 -10v-100q0 -10 -10 -10h-17q-10 0 -10 10v100q0 10 10 10zM508 -647h16q11 0 11 -10v-101q0 -10 -11 -10h-16q-10 0 -10 10v101q0 10 10 10zM745 -647h17q10 0 10 -10v-101q0 -10 -10 -10h-17
q-10 0 -10 10v101q0 10 10 10z" />
    <glyph glyph-name="uniFB59FE8A" unicode="&#xfb59;&#xfe8a;" horiz-adv-x="2058" 
d="M842 770h-350q-11 0 -11 10v6q0 11 11 11h104q-35 27 -35 86v78q0 62 35.5 102.5t91.5 40.5h25q55 0 110 -43q5 -5 2 -10l-6 -9q-6 -6 -14 0q-47 35 -94 35h-23q-44 0 -73 -34t-29 -82v-78q0 -41 21.5 -63.5t60.5 -22.5h174q10 0 10 -11v-6q0 -10 -10 -10zM2056 27h2
q10 0 10 -11v-6q0 -10 -10 -10h-2q-152 0 -224.5 65.5t-72.5 202.5v596h-373q-137 0 -213.5 -80.5t-76.5 -226.5v-704q0 -136 -89 -212.5t-247 -76.5h-207q-179 0 -279 102.5t-100 288.5q0 205 131 379q5 7 14 4l7 -4q8 -4 0 -15q-125 -186 -125 -364q0 -172 93 -268.5
t259 -96.5h207q146 0 227.5 70t81.5 193v704q0 158 84 246t233 88h373v88q0 10 8 10h11q8 0 8 -10v-711q0 -125 65.5 -183t204.5 -58zM1382 -205h17q10 0 10 -10v-100q0 -11 -10 -11h-17q-10 0 -10 11v100q0 10 10 10zM1620 -205h16q11 0 11 -10v-100q0 -11 -11 -11h-16
q-10 0 -10 11v100q0 10 10 10zM1501 -410h17q10 0 10 -10v-100q0 -10 -10 -10h-17q-10 0 -10 10v100q0 10 10 10z" />
    <glyph glyph-name="uniFE98FE8A" unicode="&#xfe98;&#xfe8a;" horiz-adv-x="2058" 
d="M1663 1194h-16q-11 0 -11 10v101q0 10 11 10h16q10 0 10 -10v-101q0 -10 -10 -10zM1901 1194h-17q-10 0 -10 10v101q0 10 10 10h17q10 0 10 -10v-101q0 -10 -10 -10zM842 770h-350q-11 0 -11 10v6q0 11 11 11h104q-35 27 -35 86v78q0 62 35.5 102.5t91.5 40.5h25
q55 0 110 -43q5 -5 2 -10l-6 -9q-6 -6 -14 0q-47 35 -94 35h-23q-44 0 -73 -34t-29 -82v-78q0 -41 21.5 -63.5t60.5 -22.5h174q10 0 10 -11v-6q0 -10 -10 -10zM2056 27h2q10 0 10 -11v-6q0 -10 -10 -10h-2q-152 0 -224.5 65.5t-72.5 202.5v596h-373q-137 0 -213.5 -80.5
t-76.5 -226.5v-704q0 -136 -89 -212.5t-247 -76.5h-207q-179 0 -279 102.5t-100 288.5q0 205 131 379q5 7 14 4l7 -4q8 -4 0 -15q-125 -186 -125 -364q0 -172 93 -268.5t259 -96.5h207q146 0 227.5 70t81.5 193v704q0 158 84 246t233 88h373v88q0 10 8 10h11q8 0 8 -10v-711
q0 -125 65.5 -183t204.5 -58z" />
    <glyph glyph-name="uniFE9CFE8A" unicode="&#xfe9c;&#xfe8a;" horiz-adv-x="2058" 
d="M1782 1399h-17q-10 0 -10 10v100q0 11 10 11h17q10 0 10 -11v-100q0 -10 -10 -10zM1663 1194h-16q-11 0 -11 10v101q0 10 11 10h16q10 0 10 -10v-101q0 -10 -10 -10zM1901 1194h-17q-10 0 -10 10v101q0 10 10 10h17q10 0 10 -10v-101q0 -10 -10 -10zM842 770h-350
q-11 0 -11 10v6q0 11 11 11h104q-35 27 -35 86v78q0 62 35.5 102.5t91.5 40.5h25q55 0 110 -43q5 -5 2 -10l-6 -9q-6 -6 -14 0q-47 35 -94 35h-23q-44 0 -73 -34t-29 -82v-78q0 -41 21.5 -63.5t60.5 -22.5h174q10 0 10 -11v-6q0 -10 -10 -10zM2056 27h2q10 0 10 -11v-6
q0 -10 -10 -10h-2q-152 0 -224.5 65.5t-72.5 202.5v596h-373q-137 0 -213.5 -80.5t-76.5 -226.5v-704q0 -136 -89 -212.5t-247 -76.5h-207q-179 0 -279 102.5t-100 288.5q0 205 131 379q5 7 14 4l7 -4q8 -4 0 -15q-125 -186 -125 -364q0 -172 93 -268.5t259 -96.5h207
q146 0 227.5 70t81.5 193v704q0 158 84 246t233 88h373v88q0 10 8 10h11q8 0 8 -10v-711q0 -125 65.5 -183t204.5 -58z" />
    <glyph glyph-name="uniFEB3FEB0" unicode="&#xfeb3;&#xfeb0;" horiz-adv-x="2324" 
d="M416 1096h-17q-10 0 -10 10v100q0 11 10 11h17q10 0 10 -11v-100q0 -10 -10 -10zM2114 913h6q10 0 10 -10v-575q0 -164 -86 -256t-238 -92q-244 0 -293 235q-52 -235 -311 -235q-307 0 -307 346v405h-473v-862q0 -311 -289 -311h-8q-133 0 -213 80q-5 5 -2 12l8 8
q3 7 12 -2q72 -72 195 -72h8q262 0 262 285v1012q0 10 8 10h11q8 0 8 -10v-123h491q9 0 9 -10v-422q0 -320 280 -320q140 0 218.5 85t78.5 237v420q0 10 10 10h7q10 0 10 -10v-420v-2q0 -149 74.5 -234.5t205.5 -85.5q140 0 218.5 85t78.5 237v575q0 10 11 10z" />
    <glyph glyph-name="uniFEB4FEB0" unicode="&#xfeb4;&#xfeb0;" horiz-adv-x="2390" 
d="M416 1096h-17q-10 0 -10 10v100q0 11 10 11h17q10 0 10 -11v-100q0 -10 -10 -10zM2390 27q10 0 10 -11v-6q0 -10 -10 -10q-129 0 -192.5 46.5t-83.5 156.5q-26 -106 -106.5 -164.5t-201.5 -58.5q-244 0 -293 235q-52 -235 -311 -235q-307 0 -307 346v405h-473v-862
q0 -311 -289 -311h-8q-133 0 -213 80q-5 5 -2 12l8 8q3 7 12 -2q72 -72 195 -72h8q262 0 262 285v1012q0 10 8 10h11q8 0 8 -10v-123h491q9 0 9 -10v-422q0 -320 280 -320q140 0 218.5 85t78.5 237v420q0 10 10 10h7q10 0 10 -10v-420v-2q0 -149 74.5 -234.5t205.5 -85.5
q140 0 218.5 85t78.5 237v575q0 10 11 10h6q10 0 10 -10v-573q0 -168 57 -235.5t203 -67.5z" />
    <glyph glyph-name="uniFEB3FE8A" unicode="&#xfeb3;&#xfe8a;" horiz-adv-x="3121" 
d="M1647 1104h-351q-10 0 -10 10v6q0 10 10 10h105q-35 27 -35 87v77q0 62 35.5 103t91.5 41h25q55 0 110 -43q5 -5 2 -11l-6 -8q-6 -6 -14 0q-47 35 -94 35h-23q-44 0 -73 -34.5t-29 -82.5v-77q0 -41 22 -64t60 -23h174q10 0 10 -10v-6q0 -10 -10 -10zM2910 913h6
q11 0 11 -10v-575q0 -164 -86 -256t-238 -92q-244 0 -293 235q-52 -235 -311 -235q-307 0 -307 346v538h-306q-137 0 -213.5 -80.5t-76.5 -226.5v-704q0 -136 -89 -212.5t-247 -76.5h-207q-179 0 -279 102.5t-100 288.5q0 205 131 379q5 7 14 4l7 -4q8 -4 0 -15
q-125 -186 -125 -364q0 -172 93 -268.5t259 -96.5h207q146 0 227.5 70t81.5 193v485q0 6 2 8v211q0 158 83 246t232 88h324q8 0 8 -10v-555q0 -320 281 -320q140 0 218.5 85t78.5 237v420q0 10 10 10h6q10 0 10 -10v-420v-2q0 -149 75 -234.5t206 -85.5q140 0 218.5 85
t78.5 237v575q0 10 10 10z" />
    <glyph glyph-name="uniFEB4FE8A" unicode="&#xfeb4;&#xfe8a;" horiz-adv-x="3186" 
d="M1647 1104h-351q-10 0 -10 10v6q0 10 10 10h105q-35 27 -35 87v77q0 62 35.5 103t91.5 41h25q55 0 110 -43q5 -5 2 -11l-6 -8q-6 -6 -14 0q-47 35 -94 35h-23q-44 0 -73 -34.5t-29 -82.5v-77q0 -41 22 -64t60 -23h174q10 0 10 -10v-6q0 -10 -10 -10zM3187 27q10 0 10 -11
v-6q0 -10 -10 -10q-129 0 -193 46.5t-84 156.5q-26 -106 -106 -164.5t-201 -58.5q-244 0 -293 235q-52 -235 -311 -235q-307 0 -307 346v538h-306q-137 0 -213.5 -80.5t-76.5 -226.5v-704q0 -136 -89 -212.5t-247 -76.5h-207q-179 0 -279 102.5t-100 288.5q0 205 131 379
q5 7 14 4l7 -4q8 -4 0 -15q-125 -186 -125 -364q0 -172 93 -268.5t259 -96.5h207q146 0 227.5 70t81.5 193v485q0 6 2 8v211q0 158 83 246t232 88h324q8 0 8 -10v-555q0 -320 281 -320q140 0 218.5 85t78.5 237v420q0 10 10 10h6q10 0 10 -10v-420v-2q0 -149 75 -234.5
t206 -85.5q140 0 218.5 85t78.5 237v575q0 10 10 10h6q11 0 11 -10v-573q0 -168 57 -235.5t203 -67.5z" />
    <glyph glyph-name="uniFEB7FEB0" unicode="&#xfeb7;&#xfeb0;" horiz-adv-x="2324" 
d="M1522 1167h-17q-10 0 -10 11v100q0 10 10 10h17q10 0 10 -10v-100q0 -11 -10 -11zM416 1096h-17q-10 0 -10 10v100q0 11 10 11h17q10 0 10 -11v-100q0 -10 -10 -10zM1403 963h-17q-10 0 -10 10v100q0 10 10 10h17q10 0 10 -10v-100q0 -10 -10 -10zM1640 963h-16
q-10 0 -10 10v100q0 10 10 10h16q11 0 11 -10v-100q0 -10 -11 -10zM2114 913h6q10 0 10 -10v-575q0 -164 -86 -256t-238 -92q-244 0 -293 235q-52 -235 -311 -235q-307 0 -307 346v405h-473v-862q0 -311 -289 -311h-8q-133 0 -213 80q-5 5 -2 12l8 8q3 7 12 -2
q72 -72 195 -72h8q262 0 262 285v1012q0 10 8 10h11q8 0 8 -10v-123h491q9 0 9 -10v-422q0 -320 280 -320q140 0 218.5 85t78.5 237v420q0 10 10 10h7q10 0 10 -10v-420v-2q0 -149 74.5 -234.5t205.5 -85.5q140 0 218.5 85t78.5 237v575q0 10 11 10z" />
    <glyph glyph-name="uniFEB8FEB0" unicode="&#xfeb8;&#xfeb0;" horiz-adv-x="2390" 
d="M1522 1167h-17q-10 0 -10 11v100q0 10 10 10h17q10 0 10 -10v-100q0 -11 -10 -11zM416 1096h-17q-10 0 -10 10v100q0 11 10 11h17q10 0 10 -11v-100q0 -10 -10 -10zM1403 963h-17q-10 0 -10 10v100q0 10 10 10h17q10 0 10 -10v-100q0 -10 -10 -10zM1640 963h-16
q-10 0 -10 10v100q0 10 10 10h16q11 0 11 -10v-100q0 -10 -11 -10zM2390 27q10 0 10 -11v-6q0 -10 -10 -10q-129 0 -192.5 46.5t-83.5 156.5q-26 -106 -106.5 -164.5t-201.5 -58.5q-244 0 -293 235q-52 -235 -311 -235q-307 0 -307 346v405h-473v-862q0 -311 -289 -311h-8
q-133 0 -213 80q-5 5 -2 12l8 8q3 7 12 -2q72 -72 195 -72h8q262 0 262 285v1012q0 10 8 10h11q8 0 8 -10v-123h491q9 0 9 -10v-422q0 -320 280 -320q140 0 218.5 85t78.5 237v420q0 10 10 10h7q10 0 10 -10v-420v-2q0 -149 74.5 -234.5t205.5 -85.5q140 0 218.5 85
t78.5 237v575q0 10 11 10h6q10 0 10 -10v-573q0 -168 57 -235.5t203 -67.5z" />
    <glyph glyph-name="uniFEB7FE8A" unicode="&#xfeb7;&#xfe8a;" horiz-adv-x="3121" 
d="M1647 1104h-351q-10 0 -10 10v6q0 10 10 10h105q-35 27 -35 87v77q0 62 35.5 103t91.5 41h25q55 0 110 -43q5 -5 2 -11l-6 -8q-6 -6 -14 0q-47 35 -94 35h-23q-44 0 -73 -34.5t-29 -82.5v-77q0 -41 22 -64t60 -23h174q10 0 10 -10v-6q0 -10 -10 -10zM2318 1167h-16
q-10 0 -10 11v100q0 10 10 10h16q11 0 11 -10v-100q0 -11 -11 -11zM2200 963h-17q-10 0 -10 10v100q0 10 10 10h17q10 0 10 -10v-100q0 -10 -10 -10zM2437 963h-16q-11 0 -11 10v100q0 10 11 10h16q10 0 10 -10v-100q0 -10 -10 -10zM2910 913h6q11 0 11 -10v-575
q0 -164 -86 -256t-238 -92q-244 0 -293 235q-52 -235 -311 -235q-307 0 -307 346v538h-306q-137 0 -213.5 -80.5t-76.5 -226.5v-704q0 -136 -89 -212.5t-247 -76.5h-207q-179 0 -279 102.5t-100 288.5q0 205 131 379q5 7 14 4l7 -4q8 -4 0 -15q-125 -186 -125 -364
q0 -172 93 -268.5t259 -96.5h207q146 0 227.5 70t81.5 193v485q0 6 2 8v211q0 158 83 246t232 88h324q8 0 8 -10v-555q0 -320 281 -320q140 0 218.5 85t78.5 237v420q0 10 10 10h6q10 0 10 -10v-420v-2q0 -149 75 -234.5t206 -85.5q140 0 218.5 85t78.5 237v575q0 10 10 10z
" />
    <glyph glyph-name="uniFEB8FE8A" unicode="&#xfeb8;&#xfe8a;" horiz-adv-x="3186" 
d="M1647 1104h-351q-10 0 -10 10v6q0 10 10 10h105q-35 27 -35 87v77q0 62 35.5 103t91.5 41h25q55 0 110 -43q5 -5 2 -11l-6 -8q-6 -6 -14 0q-47 35 -94 35h-23q-44 0 -73 -34.5t-29 -82.5v-77q0 -41 22 -64t60 -23h174q10 0 10 -10v-6q0 -10 -10 -10zM2318 1167h-16
q-10 0 -10 11v100q0 10 10 10h16q11 0 11 -10v-100q0 -11 -11 -11zM2200 963h-17q-10 0 -10 10v100q0 10 10 10h17q10 0 10 -10v-100q0 -10 -10 -10zM2437 963h-16q-11 0 -11 10v100q0 10 11 10h16q10 0 10 -10v-100q0 -10 -10 -10zM3187 27q10 0 10 -11v-6q0 -10 -10 -10
q-129 0 -193 46.5t-84 156.5q-26 -106 -106 -164.5t-201 -58.5q-244 0 -293 235q-52 -235 -311 -235q-307 0 -307 346v538h-306q-137 0 -213.5 -80.5t-76.5 -226.5v-704q0 -136 -89 -212.5t-247 -76.5h-207q-179 0 -279 102.5t-100 288.5q0 205 131 379q5 7 14 4l7 -4
q8 -4 0 -15q-125 -186 -125 -364q0 -172 93 -268.5t259 -96.5h207q146 0 227.5 70t81.5 193v485q0 6 2 8v211q0 158 83 246t232 88h324q8 0 8 -10v-555q0 -320 281 -320q140 0 218.5 85t78.5 237v420q0 10 10 10h6q10 0 10 -10v-420v-2q0 -149 75 -234.5t206 -85.5
q140 0 218.5 85t78.5 237v575q0 10 10 10h6q11 0 11 -10v-573q0 -168 57 -235.5t203 -67.5z" />
    <glyph glyph-name="uniFEBBFE8A" unicode="&#xfebb;&#xfe8a;" horiz-adv-x="2951" 
d="M1647 1104h-351q-10 0 -10 10v6q0 10 10 10h105q-35 27 -35 87v77q0 62 35.5 103t91.5 41h25q55 0 110 -43q5 -5 2 -11l-6 -8q-6 -6 -14 0q-47 35 -94 35h-23q-44 0 -73 -34.5t-29 -82.5v-77q0 -41 22 -64t60 -23h174q10 0 10 -10v-6q0 -10 -10 -10zM2193 891h293
q148 0 230 -81.5t82 -229.5v-244q0 -158 -82 -247t-230 -89h-501q-146 0 -227 92t-81 254v518h-291q-137 0 -213.5 -80.5t-76.5 -226.5v-704q0 -136 -89 -212.5t-247 -76.5h-207q-179 0 -279 102.5t-100 288.5q0 205 131 379q5 7 14 4l7 -4q8 -4 0 -15q-125 -186 -125 -364
q0 -172 93 -268.5t259 -96.5h207q146 0 227.5 70t81.5 193v704q0 158 84 246t233 88h308q10 0 10 -10v-449l121 199q82 136 169 198t199 62zM2771 336v244q0 133 -75.5 208.5t-209.5 75.5h-293q-105 0 -187 -60t-161 -190l-141 -231v-37q0 -150 74 -234.5t207 -84.5h501
q134 0 209.5 81.5t75.5 227.5z" />
    <glyph glyph-name="uniFEBCFE8A" unicode="&#xfebc;&#xfe8a;" horiz-adv-x="3057" 
d="M1647 1104h-351q-10 0 -10 10v6q0 10 10 10h105q-35 27 -35 87v77q0 62 35.5 103t91.5 41h25q55 0 110 -43q5 -5 2 -11l-6 -8q-6 -6 -14 0q-47 35 -94 35h-23q-44 0 -73 -34.5t-29 -82.5v-77q0 -41 22 -64t60 -23h174q10 0 10 -10v-6q0 -10 -10 -10zM3058 27q10 0 10 -11
v-6q0 -10 -10 -10q-132 0 -195 47t-82 162q-62 -209 -295 -209h-501q-146 0 -227 92t-81 254v518h-291q-137 0 -213.5 -80.5t-76.5 -226.5v-704q0 -136 -89 -212.5t-247 -76.5h-207q-179 0 -279 102.5t-100 288.5q0 205 131 379q5 7 14 4l7 -4q8 -4 0 -15
q-125 -186 -125 -364q0 -172 93 -268.5t259 -96.5h207q146 0 227.5 70t81.5 193v704q0 158 84 246t233 88h308q10 0 10 -10v-449l121 199q82 136 169 198t199 62h293q148 0 230 -81.5t82 -229.5v-244v-6q0 -168 57 -235.5t203 -67.5zM2771 336v244q0 133 -75.5 208.5
t-209.5 75.5h-293q-105 0 -187 -60t-161 -190l-141 -231v-37q0 -150 74 -234.5t207 -84.5h501q134 0 209.5 81.5t75.5 227.5z" />
    <glyph glyph-name="uniFEBFFE8A" unicode="&#xfebf;&#xfe8a;" horiz-adv-x="2951" 
d="M1647 1104h-351q-10 0 -10 10v6q0 10 10 10h105q-35 27 -35 87v77q0 62 35.5 103t91.5 41h25q55 0 110 -43q5 -5 2 -11l-6 -8q-6 -6 -14 0q-47 35 -94 35h-23q-44 0 -73 -34.5t-29 -82.5v-77q0 -41 22 -64t60 -23h174q10 0 10 -10v-6q0 -10 -10 -10zM2353 1096h-16
q-10 0 -10 10v100q0 11 10 11h16q10 0 10 -11v-100q0 -10 -10 -10zM2193 891h293q148 0 230 -81.5t82 -229.5v-244q0 -158 -82 -247t-230 -89h-501q-146 0 -227 92t-81 254v518h-291q-137 0 -213.5 -80.5t-76.5 -226.5v-704q0 -136 -89 -212.5t-247 -76.5h-207
q-179 0 -279 102.5t-100 288.5q0 205 131 379q5 7 14 4l7 -4q8 -4 0 -15q-125 -186 -125 -364q0 -172 93 -268.5t259 -96.5h207q146 0 227.5 70t81.5 193v704q0 158 84 246t233 88h308q10 0 10 -10v-449l121 199q82 136 169 198t199 62zM2771 336v244q0 133 -75.5 208.5
t-209.5 75.5h-293q-105 0 -187 -60t-161 -190l-141 -231v-37q0 -150 74 -234.5t207 -84.5h501q134 0 209.5 81.5t75.5 227.5z" />
    <glyph glyph-name="uniFEC0FE8A" unicode="&#xfec0;&#xfe8a;" horiz-adv-x="3057" 
d="M1647 1104h-351q-10 0 -10 10v6q0 10 10 10h105q-35 27 -35 87v77q0 62 35.5 103t91.5 41h25q55 0 110 -43q5 -5 2 -11l-6 -8q-6 -6 -14 0q-47 35 -94 35h-23q-44 0 -73 -34.5t-29 -82.5v-77q0 -41 22 -64t60 -23h174q10 0 10 -10v-6q0 -10 -10 -10zM2353 1096h-16
q-10 0 -10 10v100q0 11 10 11h16q10 0 10 -11v-100q0 -10 -10 -10zM3058 27q10 0 10 -11v-6q0 -10 -10 -10q-132 0 -195 47t-82 162q-62 -209 -295 -209h-501q-146 0 -227 92t-81 254v518h-291q-137 0 -213.5 -80.5t-76.5 -226.5v-704q0 -136 -89 -212.5t-247 -76.5h-207
q-179 0 -279 102.5t-100 288.5q0 205 131 379q5 7 14 4l7 -4q8 -4 0 -15q-125 -186 -125 -364q0 -172 93 -268.5t259 -96.5h207q146 0 227.5 70t81.5 193v704q0 158 84 246t233 88h308q10 0 10 -10v-449l121 199q82 136 169 198t199 62h293q148 0 230 -81.5t82 -229.5v-244
v-6q0 -168 57 -235.5t203 -67.5zM2771 336v244q0 133 -75.5 208.5t-209.5 75.5h-293q-105 0 -187 -60t-161 -190l-141 -231v-37q0 -150 74 -234.5t207 -84.5h501q134 0 209.5 81.5t75.5 227.5z" />
    <glyph glyph-name="uniFEE8FE8A" unicode="&#xfee8;&#xfe8a;" horiz-adv-x="2058" 
d="M1782 1194h-17q-10 0 -10 10v101q0 10 10 10h17q10 0 10 -10v-101q0 -10 -10 -10zM842 770h-350q-11 0 -11 10v6q0 11 11 11h104q-35 27 -35 86v78q0 62 35.5 102.5t91.5 40.5h25q55 0 110 -43q5 -5 2 -10l-6 -9q-6 -6 -14 0q-47 35 -94 35h-23q-44 0 -73 -34t-29 -82
v-78q0 -41 21.5 -63.5t60.5 -22.5h174q10 0 10 -11v-6q0 -10 -10 -10zM2056 27h2q10 0 10 -11v-6q0 -10 -10 -10h-2q-152 0 -224.5 65.5t-72.5 202.5v596h-373q-137 0 -213.5 -80.5t-76.5 -226.5v-704q0 -136 -89 -212.5t-247 -76.5h-207q-179 0 -279 102.5t-100 288.5
q0 205 131 379q5 7 14 4l7 -4q8 -4 0 -15q-125 -186 -125 -364q0 -172 93 -268.5t259 -96.5h207q146 0 227.5 70t81.5 193v704q0 158 84 246t233 88h373v88q0 10 8 10h11q8 0 8 -10v-711q0 -125 65.5 -183t204.5 -58z" />
    <glyph glyph-name="uniFBE9FEAE" unicode="&#x649;&#xfeae;" horiz-adv-x="1255" 
d="M1253 27h2q11 0 11 -11v-6q0 -10 -11 -10h-2q-152 0 -224.5 65.5t-72.5 202.5v596h-534v-995q0 -311 -289 -311h-8q-133 0 -213 80q-5 5 -2 12l8 8q3 7 12 -2q72 -72 195 -72h8q262 0 262 285v1012q0 10 8 10h553v88q0 10 9 10h10q8 0 8 -10v-711q0 -125 65.5 -183
t204.5 -58z" />
    <glyph glyph-name="uniFBE9FEB0" unicode="&#x649;&#xfeb0;" horiz-adv-x="1255" 
d="M418 1096h-17q-10 0 -10 10v100q0 11 10 11h17q10 0 10 -11v-100q0 -10 -10 -10zM1253 27h2q11 0 11 -11v-6q0 -10 -11 -10h-2q-152 0 -224.5 65.5t-72.5 202.5v596h-534v-995q0 -311 -289 -311h-8q-133 0 -213 80q-5 5 -2 12l8 8q3 7 12 -2q72 -72 195 -72h8
q262 0 262 285v1012q0 10 8 10h553v88q0 10 9 10h10q8 0 8 -10v-711q0 -125 65.5 -183t204.5 -58z" />
    <glyph glyph-name="uniFBE9FEE6" unicode="&#x649;&#xfee6;" horiz-adv-x="1929" 
d="M1927 27h2q10 0 10 -11v-6q0 -10 -10 -10h-2q-152 0 -224.5 65.5t-72.5 202.5v463h-551q-10 0 -10 10v7q0 10 10 10h551v88q0 10 8 10h11q8 0 8 -10v-578q0 -125 65.5 -183t204.5 -58zM659 680h-16q-10 0 -10 10v101q0 10 10 10h16q11 0 11 -10v-101q0 -10 -11 -10z
M1079 727h6q11 0 11 -10v-864q0 -136 -89 -212.5t-247 -76.5h-207q-179 0 -279 102.5t-100 288.5q0 205 131 379q5 7 14 4l7 -4q8 -4 0 -15q-125 -186 -125 -364q0 -172 93 -268.5t259 -96.5h207q146 0 227.5 70t81.5 193v864q0 10 10 10z" />
    <glyph glyph-name="uniFBE9FB9F" unicode="&#x649;&#xfb9f;" horiz-adv-x="1929" 
d="M1927 27h2q10 0 10 -11v-6q0 -10 -10 -10h-2q-152 0 -224.5 65.5t-72.5 202.5v463h-551q-10 0 -10 10v7q0 10 10 10h551v88q0 10 8 10h11q8 0 8 -10v-578q0 -125 65.5 -183t204.5 -58zM1079 727h6q11 0 11 -10v-864q0 -136 -89 -212.5t-247 -76.5h-207q-179 0 -279 102.5
t-100 288.5q0 205 131 379q5 7 14 4l7 -4q8 -4 0 -15q-125 -186 -125 -364q0 -172 93 -268.5t259 -96.5h207q146 0 227.5 70t81.5 193v864q0 10 10 10z" />
    <glyph glyph-name="uniFE8CFE8A" unicode="&#xfe8c;&#xfe8a;" horiz-adv-x="2058" 
d="M1954 1202h-350q-11 0 -11 10v7q0 10 11 10h104q-35 27 -35 86v78q0 62 35.5 102.5t91.5 40.5h25q55 0 110 -43q5 -5 2 -10l-6 -8q-6 -6 -14 0q-46 34 -94 34h-23q-44 0 -73 -34t-29 -82v-78q0 -41 21.5 -63.5t60.5 -22.5h174q10 0 10 -10v-7q0 -10 -10 -10zM842 770
h-350q-11 0 -11 10v6q0 11 11 11h104q-35 27 -35 86v78q0 62 35.5 102.5t91.5 40.5h25q55 0 110 -43q5 -5 2 -10l-6 -9q-6 -6 -14 0q-47 35 -94 35h-23q-44 0 -73 -34t-29 -82v-78q0 -41 21.5 -63.5t60.5 -22.5h174q10 0 10 -11v-6q0 -10 -10 -10zM2056 27h2q10 0 10 -11v-6
q0 -10 -10 -10h-2q-152 0 -224.5 65.5t-72.5 202.5v596h-373q-137 0 -213.5 -80.5t-76.5 -226.5v-704q0 -136 -89 -212.5t-247 -76.5h-207q-179 0 -279 102.5t-100 288.5q0 205 131 379q5 7 14 4l7 -4q8 -4 0 -15q-125 -186 -125 -364q0 -172 93 -268.5t259 -96.5h207
q146 0 227.5 70t81.5 193v704q0 158 84 246t233 88h373v88q0 10 8 10h11q8 0 8 -10v-711q0 -125 65.5 -183t204.5 -58z" />
    <glyph glyph-name="uni066E.init" unicode="&#x66e;" horiz-adv-x="552" 
d="M63 0h-63q-10 0 -10 10v6q0 11 10 11h63q137 0 203 58.5t66 182.5v613q0 10 8 10h10q8 0 8 -10v-613q0 -139 -71 -203.5t-224 -64.5z" />
    <glyph glyph-name="uni066E.medi" unicode="&#x66e;" horiz-adv-x="647" 
d="M618 27h29q10 0 10 -11v-6q0 -10 -10 -10h-29q-122 0 -184.5 40t-85.5 134q-43 -174 -285 -174h-63q-10 0 -10 10v6q0 11 10 11h63q137 0 203 58.5t66 182.5v613q0 10 8 10h10q8 0 8 -10v-551q0 -168 57 -235.5t203 -67.5z" />
    <glyph glyph-name="uni066E.fina" unicode="&#x66e;" horiz-adv-x="1513" 
d="M1513 27q11 0 11 -11v-6q0 -10 -11 -10q-122 0 -184.5 40t-85.5 134q-43 -174 -285 -174h-473q-147 0 -229 88.5t-82 247.5v186q0 142 80 213q8 6 12 2l8 -8q4 -4 -2 -12q-71 -71 -71 -195v-186q0 -146 75 -227.5t209 -81.5h473q137 0 203 58.5t66 182.5v613q0 10 8 10
h10q8 0 8 -10v-551q0 -168 57 -235.5t203 -67.5z" />
    <glyph glyph-name="uni066F.fina" unicode="&#x66f;" horiz-adv-x="1427" 
d="M1223 27h204q11 0 11 -11v-6q0 -10 -11 -10h-204v-154q0 -136 -89 -212t-247 -76h-334q-179 0 -279 103.5t-100 287.5q0 193 131 379q5 7 14 4l7 -4q8 -4 0 -15q-125 -174 -125 -364q0 -172 93 -268.5t259 -96.5h334q146 0 227.5 69.5t81.5 192.5v154h-293
q-147 0 -229 88.5t-82 247.5v264q0 148 81.5 229.5t229.5 81.5h8q148 0 230 -81.5t82 -229.5v-573zM618 600v-264q0 -146 75.5 -227.5t209.5 -81.5h293v573q0 134 -76 209.5t-209 75.5h-8q-133 0 -209 -75.5t-76 -209.5z" />
    <glyph glyph-name="uni06A1.init" unicode="&#x6a1;" horiz-adv-x="1052" 
d="M498 911h59q148 0 229.5 -81.5t81.5 -229.5v-264q0 -159 -82 -247.5t-229 -88.5h-557q-10 0 -10 10v6q0 11 10 11h311l-127 573q0 146 83.5 228.5t230.5 82.5zM842 336v264q0 134 -76 209.5t-209 75.5h-59q-134 0 -210.5 -77t-76.5 -208l127 -573h219q134 0 209.5 81.5
t75.5 227.5z" />
    <glyph glyph-name="uni06A1.medi" unicode="&#x6a1;" horiz-adv-x="1128" 
d="M1128 27q11 0 11 -11v-6q0 -10 -11 -10q-131 0 -194 47t-82 162q-62 -209 -295 -209h-557q-10 0 -10 10v6q0 11 10 11h311l-127 573q0 146 83.5 228.5t230.5 82.5h59q148 0 229.5 -81.5t81.5 -229.5v-264v-6q0 -168 57 -235.5t203 -67.5zM842 336v264q0 134 -76 209.5
t-209 75.5h-59q-134 0 -210.5 -77t-76.5 -208l127 -573h219q134 0 209.5 81.5t75.5 227.5z" />
    <glyph glyph-name="uni06A1.fina" unicode="&#x6a1;" horiz-adv-x="1918" 
d="M1919 27q10 0 10 -11v-6q0 -10 -10 -10q-132 0 -195 47t-82 162q-62 -209 -294 -209h-863q-147 0 -229 88.5t-82 247.5v186q0 142 80 213q8 6 12 2l8 -8q4 -4 -2 -12q-71 -71 -71 -195v-186q0 -146 75 -227.5t209 -81.5h617l-127 573q0 146 83.5 228.5t229.5 82.5h60
q148 0 229.5 -81.5t81.5 -229.5v-264v-6q0 -168 57 -235.5t203 -67.5zM1632 336v264q0 134 -75.5 209.5t-208.5 75.5h-60q-134 0 -210.5 -77t-76.5 -208l127 -573h220q134 0 209 81.5t75 227.5z" />
    <glyph glyph-name="uni06C2.fina" unicode="&#x6c2;" horiz-adv-x="1083" 
d="M659 1124h-350q-10 0 -10 11v6q0 10 10 10h105q-35 27 -35 86v78q0 62 35.5 102.5t91.5 40.5h24q56 0 111 -43q5 -5 2 -10l-6 -8q-6 -6 -14 0q-47 35 -95 35h-22q-44 0 -73.5 -34.5t-29.5 -82.5v-78q0 -41 21.5 -63.5t60.5 -22.5h174q11 0 11 -10v-6q0 -11 -11 -11z
M1061 27h22q11 0 11 -11v-6q0 -10 -11 -10h-22q-152 0 -224.5 65.5t-72.5 202.5v332q0 133 -75 209t-206 76h-8q-125 0 -197 -76t-73 -209l-4 -354q0 -10 -8 -10h-11q-8 0 -8 10l4 354q0 147 78.5 229t218.5 82h8q146 0 227 -81.5t81 -229.5v-332q0 -125 65.5 -183
t204.5 -58z" />
    <glyph glyph-name="uni06C3.fina" unicode="&#x6c3;" horiz-adv-x="1083" 
d="M369 1116h-17q-10 0 -10 10v101q0 10 10 10h17q10 0 10 -10v-101q0 -10 -10 -10zM606 1116h-16q-10 0 -10 10v101q0 10 10 10h16q10 0 10 -10v-101q0 -10 -10 -10zM1083 0h-22q-152 0 -224.5 65.5t-72.5 202.5v332q0 133 -75 209t-206 76h-8q-125 0 -197 -76t-73 -209
l-4 -354q0 -10 -8 -10h-11q-8 0 -8 10l4 354q0 147 78.5 229t218.5 82h8q146 0 227 -81.5t81 -229.5v-332q0 -125 65.5 -183t204.5 -58h22q11 0 11 -11v-6q0 -10 -11 -10z" />
    <glyph glyph-name="uniFB51" unicode="&#x671;" horiz-adv-x="614" arabic-form="final" 
d="M383 1575v-51q0 -35 -21.5 -57.5t-56.5 -22.5h-264q-10 0 -10 10v6q0 10 10 10h88v105q0 35 21.5 57.5t56.5 22.5h98q35 0 56.5 -22.5t21.5 -57.5zM154 1575v-105h151q53 0 53 54v51q0 53 -53 53h-98q-53 0 -53 -53zM551 27h63q11 0 11 -11v-6q0 -10 -11 -10h-63
q-158 0 -227.5 74t-69.5 241v887h-121q-10 0 -10 10v7q0 10 10 10h139q9 0 9 -10v-904q0 -155 62 -221.5t208 -66.5z" />
    <glyph glyph-name="uniFB57" unicode="&#x67e;" horiz-adv-x="1513" arabic-form="final" 
d="M1513 27q11 0 11 -11v-6q0 -10 -11 -10q-122 0 -184.5 40t-85.5 134q-43 -174 -285 -174h-473q-147 0 -229 88.5t-82 247.5v186q0 142 80 213q8 6 12 2l8 -8q4 -4 -2 -12q-71 -71 -71 -195v-186q0 -146 75 -227.5t209 -81.5h473q137 0 203 58.5t66 182.5v613q0 10 8 10
h10q8 0 8 -10v-551q0 -168 57 -235.5t203 -67.5zM633 -205h16q10 0 10 -10v-100q0 -11 -10 -11h-16q-10 0 -10 11v100q0 10 10 10zM870 -205h17q10 0 10 -10v-100q0 -11 -10 -11h-17q-10 0 -10 11v100q0 10 10 10zM752 -410h16q10 0 10 -10v-100q0 -10 -10 -10h-16
q-11 0 -11 10v100q0 10 11 10z" />
    <glyph glyph-name="uniFB58" unicode="&#x67e;" horiz-adv-x="595" arabic-form="initial" 
d="M106 0h-106q-10 0 -10 10v6q0 11 10 11h106q137 0 203 58.5t66 182.5v613q0 10 8 10h10q8 0 8 -10v-613q0 -139 -71 -203.5t-224 -64.5zM94 -326h-16q-10 0 -10 11v100q0 10 10 10h16q10 0 10 -10v-100q0 -11 -10 -11zM332 -326h-17q-10 0 -10 11v100q0 10 10 10h17
q10 0 10 -10v-100q0 -11 -10 -11zM213 -530h-16q-11 0 -11 10v100q0 10 11 10h16q10 0 10 -10v-100q0 -10 -10 -10z" />
    <glyph glyph-name="uniFB59" unicode="&#x67e;" horiz-adv-x="690" arabic-form="medial" 
d="M662 27h28q10 0 10 -11v-6q0 -10 -10 -10h-28q-122 0 -185 40t-86 134q-43 -174 -285 -174h-106q-10 0 -10 10v6q0 11 10 11h106q137 0 203 58.5t66 182.5v613q0 10 8 10h10q8 0 8 -10v-551q0 -168 57.5 -235.5t203.5 -67.5zM260 -205h16q11 0 11 -10v-100q0 -11 -11 -11
h-16q-10 0 -10 11v100q0 10 10 10zM498 -205h16q10 0 10 -10v-100q0 -11 -10 -11h-16q-11 0 -11 11v100q0 10 11 10zM379 -410h16q11 0 11 -10v-100q0 -10 -11 -10h-16q-10 0 -10 10v100q0 10 10 10z" />
    <glyph glyph-name="uniFB67" unicode="&#x679;" horiz-adv-x="1513" arabic-form="final" 
d="M823 1108h-264q-10 0 -10 10v6q0 11 10 11h88v282q0 10 10 10h5q10 0 10 -10v-117q22 19 53 19h98q35 0 56.5 -22.5t21.5 -57.5v-51q0 -35 -21.5 -57.5t-56.5 -22.5zM672 1239v-104h151q54 0 54 53v51q0 53 -54 53h-98q-53 0 -53 -53zM1513 27q11 0 11 -11v-6
q0 -10 -11 -10q-122 0 -184.5 40t-85.5 134q-43 -174 -285 -174h-473q-147 0 -229 88.5t-82 247.5v186q0 142 80 213q8 6 12 2l8 -8q4 -4 -2 -12q-71 -71 -71 -195v-186q0 -146 75 -227.5t209 -81.5h473q137 0 203 58.5t66 182.5v613q0 10 8 10h10q8 0 8 -10v-551
q0 -168 57 -235.5t203 -67.5z" />
    <glyph glyph-name="uniFB68" unicode="&#x679;" horiz-adv-x="552" arabic-form="initial" 
d="M346 1319h98q35 0 56.5 -22.5t21.5 -57.5v-51q0 -35 -21.5 -57.5t-56.5 -22.5h-264q-10 0 -10 10v6q0 11 10 11h88v282q0 10 11 10h4q10 0 10 -10v-117q22 19 53 19zM498 1188v51q0 53 -54 53h-98q-53 0 -53 -53v-104h151q54 0 54 53zM340 891h10q8 0 8 -10v-613
q0 -139 -71 -203.5t-224 -64.5h-63q-10 0 -10 10v6q0 11 10 11h63q137 0 203 58.5t66 182.5v613q0 10 8 10z" />
    <glyph glyph-name="uniFB69" unicode="&#x679;" horiz-adv-x="647" arabic-form="medial" 
d="M444 1108h-264q-10 0 -10 10v6q0 11 10 11h88v282q0 10 11 10h4q10 0 10 -10v-117q22 19 53 19h98q35 0 56.5 -22.5t21.5 -57.5v-51q0 -35 -21.5 -57.5t-56.5 -22.5zM293 1239v-104h151q54 0 54 53v51q0 53 -54 53h-98q-53 0 -53 -53zM618 27h29q10 0 10 -11v-6
q0 -10 -10 -10h-29q-122 0 -184.5 40t-85.5 134q-43 -174 -285 -174h-63q-10 0 -10 10v6q0 11 10 11h63q137 0 203 58.5t66 182.5v613q0 10 8 10h10q8 0 8 -10v-551q0 -168 57 -235.5t203 -67.5z" />
    <glyph glyph-name="uniFB6B" unicode="&#x6a4;" horiz-adv-x="1918" arabic-form="final" 
d="M1311 1321h-17q-10 0 -10 10v101q0 10 10 10h17q10 0 10 -10v-101q0 -10 -10 -10zM1192 1116h-16q-11 0 -11 10v101q0 10 11 10h16q10 0 10 -10v-101q0 -10 -10 -10zM1430 1116h-17q-10 0 -10 10v101q0 10 10 10h17q10 0 10 -10v-101q0 -10 -10 -10zM1919 27q10 0 10 -11
v-6q0 -10 -10 -10q-132 0 -195 47t-82 162q-62 -209 -294 -209h-863q-147 0 -229 88.5t-82 247.5v186q0 142 80 213q8 6 12 2l8 -8q4 -4 -2 -12q-71 -71 -71 -195v-186q0 -146 75 -227.5t209 -81.5h617l-127 573q0 146 83.5 228.5t229.5 82.5h60q148 0 229.5 -81.5
t81.5 -229.5v-264v-6q0 -168 57 -235.5t203 -67.5zM1632 336v264q0 134 -75.5 209.5t-208.5 75.5h-60q-134 0 -210.5 -77t-76.5 -208l127 -573h220q134 0 209 81.5t75 227.5z" />
    <glyph glyph-name="uniFB6C" unicode="&#x6a4;" horiz-adv-x="1052" arabic-form="initial" 
d="M528 1321h-16q-10 0 -10 10v101q0 10 10 10h16q11 0 11 -10v-101q0 -10 -11 -10zM410 1116h-17q-10 0 -10 10v101q0 10 10 10h17q10 0 10 -10v-101q0 -10 -10 -10zM647 1116h-16q-10 0 -10 10v101q0 10 10 10h16q10 0 10 -10v-101q0 -10 -10 -10zM498 911h59
q148 0 229.5 -81.5t81.5 -229.5v-264q0 -159 -82 -247.5t-229 -88.5h-557q-10 0 -10 10v6q0 11 10 11h311l-127 573q0 146 83.5 228.5t230.5 82.5zM842 336v264q0 134 -76 209.5t-209 75.5h-59q-134 0 -210.5 -77t-76.5 -208l127 -573h219q134 0 209.5 81.5t75.5 227.5z" />
    <glyph glyph-name="uniFB6D" unicode="&#x6a4;" horiz-adv-x="1128" arabic-form="medial" 
d="M528 1321h-16q-10 0 -10 10v101q0 10 10 10h16q11 0 11 -10v-101q0 -10 -11 -10zM410 1116h-17q-10 0 -10 10v101q0 10 10 10h17q10 0 10 -10v-101q0 -10 -10 -10zM647 1116h-16q-10 0 -10 10v101q0 10 10 10h16q10 0 10 -10v-101q0 -10 -10 -10zM1128 27q11 0 11 -11v-6
q0 -10 -11 -10q-131 0 -194 47t-82 162q-62 -209 -295 -209h-557q-10 0 -10 10v6q0 11 10 11h311l-127 573q0 146 83.5 228.5t230.5 82.5h59q148 0 229.5 -81.5t81.5 -229.5v-264v-6q0 -168 57 -235.5t203 -67.5zM842 336v264q0 134 -76 209.5t-209 75.5h-59
q-134 0 -210.5 -77t-76.5 -208l127 -573h219q134 0 209.5 81.5t75.5 227.5z" />
    <glyph glyph-name="uniFB7B" unicode="&#x686;" horiz-adv-x="1179" arabic-form="final" 
d="M1034 27h146q10 0 10 -11v-6q0 -10 -10 -10h-686q-143 0 -234.5 -80t-91.5 -213v-26q0 -117 82 -199q8 -6 2 -12l-8 -9q-7 -7 -13 2q-88 88 -88 218v26q0 146 97.5 233t253.5 87h419q-131 64 -131 305v270q0 134 -75.5 209.5t-208.5 75.5h-49q-117 0 -199 -82
q-8 -6 -12 -2l-9 8q-4 4 2 12q90 90 218 90h49q148 0 229.5 -81.5t81.5 -229.5v-270q0 -156 52.5 -230.5t172.5 -74.5zM473 -225h16q11 0 11 -11v-100q0 -10 -11 -10h-16q-10 0 -10 10v100q0 11 10 11zM711 -225h16q10 0 10 -11v-100q0 -10 -10 -10h-16q-11 0 -11 10v100
q0 11 11 11zM592 -430h16q10 0 10 -10v-101q0 -10 -10 -10h-16q-10 0 -10 10v101q0 10 10 10z" />
    <glyph glyph-name="uniFB7C" unicode="&#x686;" horiz-adv-x="1146" arabic-form="initial" 
d="M1034 27q10 0 10 -11v-6q0 -10 -10 -10h-1034q-10 0 -10 10v6q0 11 10 11h913q-131 64 -131 305v270q0 134 -75.5 209.5t-208.5 75.5h-49q-117 0 -199 -82q-8 -6 -12 -2l-9 8q-4 4 2 12q90 90 218 90h49q148 0 229.5 -81.5t81.5 -229.5v-270q0 -156 52.5 -230.5
t172.5 -74.5zM383 -205h16q11 0 11 -10v-100q0 -11 -11 -11h-16q-10 0 -10 11v100q0 10 10 10zM621 -205h16q10 0 10 -10v-100q0 -11 -10 -11h-16q-11 0 -11 11v100q0 10 11 10zM502 -410h16q10 0 10 -10v-100q0 -10 -10 -10h-16q-10 0 -10 10v100q0 10 10 10z" />
    <glyph glyph-name="uniFB7D" unicode="&#x686;" horiz-adv-x="1175" arabic-form="medial" 
d="M1034 27h142q10 0 10 -11v-6q0 -10 -10 -10h-1176q-10 0 -10 10v6q0 11 10 11h913q-131 64 -131 305v270q0 134 -75.5 209.5t-208.5 75.5h-49q-117 0 -199 -82q-8 -6 -12 -2l-9 8q-4 4 2 12q90 90 218 90h49q148 0 229.5 -81.5t81.5 -229.5v-270q0 -156 52.5 -230.5
t172.5 -74.5zM383 -205h16q11 0 11 -10v-100q0 -11 -11 -11h-16q-10 0 -10 11v100q0 10 10 10zM621 -205h16q10 0 10 -10v-100q0 -11 -10 -11h-16q-11 0 -11 11v100q0 10 11 10zM502 -410h16q10 0 10 -10v-100q0 -10 -10 -10h-16q-10 0 -10 10v100q0 10 10 10z" />
    <glyph glyph-name="uniFB89" unicode="&#x688;" horiz-adv-x="1122" arabic-form="final" 
d="M592 1163h-264q-11 0 -11 11v6q0 10 11 10h88v283q0 10 10 10h4q10 0 10 -10v-117q21 18 54 18h98q35 0 56.5 -22.5t21.5 -57.5v-51q0 -35 -21.5 -57.5t-56.5 -22.5zM440 1294v-104h152q53 0 53 53v51q0 54 -53 54h-98q-54 0 -54 -54zM1122 27q11 0 11 -11v-6
q0 -10 -11 -10q-110 0 -176 57t-98 181q-20 -111 -109.5 -174.5t-228.5 -63.5h-191q-125 0 -213 88q-8 6 -2 12l9 9q6 6 12 -3q79 -79 194 -79h191q161 0 246.5 93t62.5 242l-45 291q-20 125 -94 196t-186 71h-41q-11 0 -11 10v6q0 10 11 10h41q124 0 205 -77t104 -214
l41 -260l10 -65q29 -165 90 -234t178 -69z" />
    <glyph glyph-name="uniFB8B" unicode="&#x698;" horiz-adv-x="681" arabic-form="final" 
d="M418 1300h-17q-10 0 -10 11v100q0 10 10 10h17q10 0 10 -10v-100q0 -11 -10 -11zM299 1096h-16q-11 0 -11 10v100q0 11 11 11h16q10 0 10 -11v-100q0 -10 -10 -10zM537 1096h-17q-10 0 -10 10v100q0 11 10 11h17q10 0 10 -11v-100q0 -10 -10 -10zM682 27q10 0 10 -11v-6
q0 -10 -10 -10q-110 0 -172 33.5t-88 107.5v-272q0 -311 -289 -311h-8q-133 0 -213 80q-5 5 -2 12l8 8q3 7 12 -2q72 -72 195 -72h8q262 0 262 285v1012q0 10 8 10h11q8 0 8 -10v-551q0 -168 57 -235.5t203 -67.5z" />
    <glyph glyph-name="uniFB8D" unicode="&#x691;" horiz-adv-x="681" arabic-form="final" 
d="M508 1108h-264q-11 0 -11 10v6q0 11 11 11h88v282q0 10 10 10h4q10 0 10 -10v-117q22 19 54 19h98q35 0 56.5 -22.5t21.5 -57.5v-51q0 -35 -21.5 -57.5t-56.5 -22.5zM356 1239v-104h152q53 0 53 53v51q0 53 -53 53h-98q-54 0 -54 -53zM682 27q10 0 10 -11v-6
q0 -10 -10 -10q-110 0 -172 33.5t-88 107.5v-272q0 -311 -289 -311h-8q-133 0 -213 80q-5 5 -2 12l8 8q3 7 12 -2q72 -72 195 -72h8q262 0 262 285v1012q0 10 8 10h11q8 0 8 -10v-551q0 -168 57 -235.5t203 -67.5z" />
    <glyph glyph-name="uniFB8F" unicode="&#x6a9;" horiz-adv-x="1644" arabic-form="final" 
d="M1645 27q10 0 10 -11v-6q0 -10 -10 -10q-122 0 -185 40t-86 134q-43 -174 -284 -174h-605q-147 0 -229 88.5t-82 247.5v186q0 142 80 213q8 6 12 2l8 -8q4 -4 -2 -12q-71 -71 -71 -195v-186q0 -146 75 -227.5t209 -81.5h605q137 0 202.5 58.5t65.5 182.5v473l-678 131
q-8 3 -12 15l-25 96q-3 10 8 21l738 530q14 8 14 -2v-14q0 -8 -6 -11l-725 -522l20 -88l682 -131q10 -3 10 -12v-424q0 -168 57.5 -235.5t203.5 -67.5z" />
    <glyph glyph-name="uniFB90" unicode="&#x6a9;" horiz-adv-x="1112" arabic-form="initial" 
d="M166 1004l737 530q15 9 15 -2v-14q0 -8 -7 -11l-725 -522l21 -88l682 -131q10 -3 10 -12v-486q0 -139 -71 -203.5t-224 -64.5h-604q-10 0 -10 10v6q0 11 10 11h604q137 0 202.5 58.5t65.5 182.5v473l-677 131q-9 3 -13 15l-24 96q-3 10 8 21z" />
    <glyph glyph-name="uniFB91" unicode="&#x6a9;" horiz-adv-x="1159" arabic-form="medial" 
d="M1159 27q10 0 10 -11v-6q0 -10 -10 -10q-122 0 -184.5 40t-85.5 134q-43 -174 -285 -174h-604q-10 0 -10 10v6q0 11 10 11h604q137 0 202.5 58.5t65.5 182.5v473l-677 131q-9 3 -13 15l-24 96q-3 10 8 21l737 530q15 9 15 -2v-14q0 -8 -7 -11l-725 -522l21 -88l682 -131
q10 -3 10 -12v-424q0 -168 57 -235.5t203 -67.5z" />
    <glyph glyph-name="uniFB93" unicode="&#x6af;" horiz-adv-x="1644" arabic-form="final" 
d="M1309 1675l-740 -512q-16 -10 -16 4v7q0 11 8 16l739 512q17 10 17 -4v-6q0 -12 -8 -17zM1645 27q10 0 10 -11v-6q0 -10 -10 -10q-122 0 -185 40t-86 134q-43 -174 -284 -174h-605q-147 0 -229 88.5t-82 247.5v186q0 142 80 213q8 6 12 2l8 -8q4 -4 -2 -12
q-71 -71 -71 -195v-186q0 -146 75 -227.5t209 -81.5h605q137 0 202.5 58.5t65.5 182.5v473l-678 131q-8 3 -12 15l-25 96q-3 10 8 21l738 530q14 8 14 -2v-14q0 -8 -6 -11l-725 -522l20 -88l682 -131q10 -3 10 -12v-424q0 -168 57.5 -235.5t203.5 -67.5z" />
    <glyph glyph-name="uniFB94" unicode="&#x6af;" horiz-adv-x="1112" arabic-form="initial" 
d="M823 1675l-739 -512q-16 -10 -16 4v7q0 11 8 16l739 512q16 10 16 -4v-6q0 -12 -8 -17zM166 1004l737 530q15 9 15 -2v-14q0 -8 -7 -11l-725 -522l21 -88l682 -131q10 -3 10 -12v-486q0 -139 -71 -203.5t-224 -64.5h-604q-10 0 -10 10v6q0 11 10 11h604q137 0 202.5 58.5
t65.5 182.5v473l-677 131q-9 3 -13 15l-24 96q-3 10 8 21z" />
    <glyph glyph-name="uniFB95" unicode="&#x6af;" horiz-adv-x="1159" arabic-form="medial" 
d="M823 1675l-739 -512q-16 -10 -16 4v7q0 11 8 16l739 512q16 10 16 -4v-6q0 -12 -8 -17zM1159 27q10 0 10 -11v-6q0 -10 -10 -10q-122 0 -184.5 40t-85.5 134q-43 -174 -285 -174h-604q-10 0 -10 10v6q0 11 10 11h604q137 0 202.5 58.5t65.5 182.5v473l-677 131
q-9 3 -13 15l-24 96q-3 10 8 21l737 530q15 9 15 -2v-14q0 -8 -7 -11l-725 -522l21 -88l682 -131q10 -3 10 -12v-424q0 -168 57 -235.5t203 -67.5z" />
    <glyph glyph-name="uniFB9F" unicode="&#x6ba;" horiz-adv-x="1355" arabic-form="final" 
d="M1356 27q10 0 10 -11v-6q0 -10 -10 -10q-110 0 -172 33.5t-88 107.5v-288q0 -136 -89 -212.5t-247 -76.5h-207q-179 0 -279 102.5t-100 288.5q0 205 131 379q5 7 14 4l7 -4q8 -4 0 -15q-125 -186 -125 -364q0 -172 93 -268.5t259 -96.5h207q146 0 227.5 70t81.5 193v864
q0 10 10 10h6q11 0 11 -10v-387q0 -168 57 -235.5t203 -67.5z" />
    <glyph glyph-name="uniFBA5" unicode="&#x6c0;" horiz-adv-x="1069" arabic-form="final" 
d="M670 1147h-351q-10 0 -10 10v6q0 11 10 11h105q-35 27 -35 86v77q0 62 35.5 103t91.5 41h25q55 0 110 -43q5 -5 2 -11l-6 -8q-6 -6 -14 0q-47 35 -94 35h-23q-44 0 -73 -34.5t-29 -82.5v-77q0 -41 21.5 -63.5t60.5 -22.5h174q10 0 10 -11v-6q0 -10 -10 -10zM1063 27h6
q10 0 10 -11v-6q0 -10 -10 -10h-6q-256 0 -283 256q-62 -197 -286 -197h-9q-147 0 -229 88.5t-82 247.5v205q0 148 81.5 229.5t229.5 81.5h9q220 0 284 -174v207q0 10 8 10h11q8 0 8 -10v-629q0 -288 258 -288zM485 86h9q135 0 209.5 80.5t74.5 228.5v205q0 135 -74.5 210
t-209.5 75h-9q-133 0 -208.5 -75.5t-75.5 -209.5v-205q0 -146 75 -227.5t209 -81.5z" />
    <glyph glyph-name="uniFBA7" unicode="&#x6c1;" horiz-adv-x="1083" arabic-form="final" 
d="M1083 0h-22q-152 0 -224.5 65.5t-72.5 202.5v332q0 133 -75 209t-206 76h-8q-125 0 -197 -76t-73 -209l-4 -354q0 -10 -8 -10h-11q-8 0 -8 10l4 354q0 147 78.5 229t218.5 82h8q146 0 227 -81.5t81 -229.5v-332q0 -125 65.5 -183t204.5 -58h22q11 0 11 -11v-6
q0 -10 -11 -10z" />
    <glyph glyph-name="uniFBA8" unicode="&#x6c1;" horiz-adv-x="552" arabic-form="initial" 
d="M340 891h10q8 0 8 -10v-613q0 -150 -86 -215l-49 -192h10q11 0 11 -11v-114q0 -10 -11 -10h-24q-10 0 -10 10v114q0 17 2 23l41 160q-62 -33 -179 -33h-63q-10 0 -10 10v6q0 11 10 11h63q137 0 203 58.5t66 182.5v613q0 10 8 10z" />
    <glyph glyph-name="uniFBA9" unicode="&#x6c1;" horiz-adv-x="1304" arabic-form="medial" 
d="M737 27h568q10 0 10 -11v-6q0 -10 -10 -10h-181l-49 -197h10q11 0 11 -10v-115q0 -10 -11 -10h-24q-10 0 -10 10v115q0 17 2 23l47 184h-357l142 -414q3 -10 0 -14l-11 -10q-4 -4 -10 -4h-342q-148 0 -230.5 87.5t-82.5 245.5v109h-209q-10 0 -10 10v6q0 11 10 11h209
v499q0 11 10 11h6q11 0 11 -11v-635q0 -143 70.5 -225t197.5 -82h356l-143 412q-3 10 0 14l10 13q4 4 10 4z" />
    <glyph glyph-name="uniFBAB" unicode="&#x6be;" horiz-adv-x="1230" arabic-form="final" 
d="M901 27h320q10 0 10 -11v-6q0 -10 -10 -10h-310l142 -414q3 -10 0 -14l-11 -10q-4 -4 -10 -4h-327q-152 0 -233 81.5t-81 231.5v129h-72q-114 0 -194 -80q-5 -5 -12 -2l-9 8q-7 4 2 13q88 88 213 88h72v573q0 152 81.5 234t229.5 77l80 -2q137 -5 214 -87t77 -224v-264
q0 -235 -172 -305v-2zM418 600v-573h344q136 0 210.5 80.5t74.5 226.5v264q0 129 -70.5 205t-194.5 80l-80 2q-133 4 -208.5 -72t-75.5 -213zM686 -416h342l-145 416h-465v-129q0 -133 71.5 -210t196.5 -77z" />
    <glyph glyph-name="uniFBAC" unicode="&#x6be;" horiz-adv-x="1302" arabic-form="initial" 
d="M612 1145h211q149 0 232.5 -81.5t83.5 -229.5v-498q0 -336 -332 -336h-807q-10 0 -10 10v6q0 11 10 11h252l-107 450q0 147 83 229t231 82h39q293 0 293 -311v-141q0 -239 -181 -309h197q305 0 305 309v498q0 134 -76.5 209t-212.5 75h-211q-114 0 -194 -80q-8 -6 -12 -2
l-9 8q-4 4 2 13q88 88 213 88zM172 477l107 -450h198q136 0 211.5 81.5t75.5 227.5v141q0 285 -266 285h-39q-135 0 -211 -75.5t-76 -209.5z" />
    <glyph glyph-name="uniFBAD" unicode="&#x6be;" horiz-adv-x="1028" arabic-form="medial" 
d="M709 27h319q10 0 10 -11v-6q0 -10 -10 -10h-309l141 -414q4 -10 0 -14l-10 -10q-4 -4 -10 -4h-328q-313 0 -313 333v109h-199q-10 0 -10 10v6q0 11 10 11h199v573q0 152 81.5 234t229.5 77l59 -2q148 -4 230 -86t82 -225v-264q0 -235 -172 -305v-2zM225 600v-573h344
q136 0 210.5 80.5t74.5 226.5v264q0 129 -76 204.5t-209 80.5l-59 2q-133 4 -209 -72t-76 -213zM494 -416h340l-146 416h-463v-109q0 -146 70 -226.5t199 -80.5z" />
    <glyph glyph-name="uniFBAF" unicode="&#x6d2;" horiz-adv-x="1433" arabic-form="final" 
d="M143 27h1291q10 0 10 -11v-6q0 -10 -10 -10h-1274v-131q0 -285 309 -285h233q123 0 195 72q9 9 12 2l9 -8q3 -6 -3 -12q-80 -80 -213 -80h-233q-336 0 -336 311v147q0 11 10 11z" />
    <glyph glyph-name="uniFBB1" unicode="&#x6d3;" horiz-adv-x="1433" arabic-form="final" 
d="M965 283h-351q-10 0 -10 10v6q0 10 10 10h105q-35 27 -35 86v78q0 62 35.5 102.5t91.5 40.5h25q55 0 110 -43q5 -5 2 -10l-6 -8q-6 -6 -14 0q-47 35 -94 35h-23q-44 0 -73 -34.5t-29 -82.5v-78q0 -41 21.5 -63.5t60.5 -22.5h174q10 0 10 -10v-6q0 -10 -10 -10zM143 27
h1291q10 0 10 -11v-6q0 -10 -10 -10h-1274v-131q0 -285 309 -285h233q123 0 195 72q9 9 12 2l9 -8q3 -6 -3 -12q-80 -80 -213 -80h-233q-336 0 -336 311v147q0 11 10 11z" />
    <glyph glyph-name="uniFBFD" unicode="&#x6cc;" horiz-adv-x="1951" arabic-form="final" 
d="M1704 27h248q10 0 10 -11v-6q0 -10 -10 -10h-264q-11 0 -11 10v854h-291q-137 0 -213.5 -80.5t-76.5 -226.5v-704q0 -136 -89 -212.5t-247 -76.5h-207q-179 0 -279 102.5t-100 288.5q0 205 131 379q5 7 14 4l7 -4q8 -4 0 -15q-125 -186 -125 -364q0 -172 93 -268.5
t259 -96.5h207q146 0 227.5 70t81.5 193v704q0 158 84 246t233 88h308q10 0 10 -10v-854z" />
    <glyph glyph-name="uniFBFE" unicode="&#x6cc;" horiz-adv-x="595" arabic-form="initial" 
d="M106 0h-106q-10 0 -10 10v6q0 11 10 11h106q137 0 203 58.5t66 182.5v613q0 10 8 10h10q8 0 8 -10v-613q0 -139 -71 -203.5t-224 -64.5zM94 -326h-16q-10 0 -10 11v100q0 10 10 10h16q10 0 10 -10v-100q0 -11 -10 -11zM332 -326h-17q-10 0 -10 11v100q0 10 10 10h17
q10 0 10 -10v-100q0 -11 -10 -11z" />
    <glyph glyph-name="uniFBFF" unicode="&#x6cc;" horiz-adv-x="690" arabic-form="medial" 
d="M662 27h28q10 0 10 -11v-6q0 -10 -10 -10h-28q-122 0 -185 40t-86 134q-43 -174 -285 -174h-106q-10 0 -10 10v6q0 11 10 11h106q137 0 203 58.5t66 182.5v613q0 10 8 10h10q8 0 8 -10v-551q0 -168 57.5 -235.5t203.5 -67.5zM260 -205h16q11 0 11 -10v-100q0 -11 -11 -11
h-16q-10 0 -10 11v100q0 10 10 10zM498 -205h16q10 0 10 -10v-100q0 -11 -10 -11h-16q-11 0 -11 11v100q0 10 11 10z" />
    <glyph glyph-name="uniFE82" unicode="&#x622;" horiz-adv-x="614" arabic-form="final" 
d="M371 1468q-60 -71 -168 21q-52 43 -88 43q-31 0 -51.5 -23.5t-20.5 -60.5q0 -10 -10 -10h-6q-11 0 -11 10q0 49 28 80t71 31q42 0 102 -48q9 -5 25 -19t30 -21t31 -7q29 0 47.5 23.5t18.5 60.5q0 11 10 11h6q10 0 10 -11q0 -50 -24 -80zM551 27h63q11 0 11 -11v-6
q0 -10 -11 -10h-63q-158 0 -227.5 74t-69.5 241v887h-121q-10 0 -10 10v7q0 10 10 10h139q9 0 9 -10v-904q0 -155 62 -221.5t208 -66.5z" />
    <glyph glyph-name="uniFE84" unicode="&#x623;" horiz-adv-x="614" arabic-form="final" 
d="M397 1458v-6q0 -10 -10 -10h-350q-10 0 -10 10v6q0 10 10 10h104q-35 27 -35 86v78q0 62 35.5 103t91.5 41h25q56 0 111 -43q5 -5 2 -11l-6 -8q-6 -6 -15 0q-47 35 -94 35h-23q-44 0 -73 -34.5t-29 -82.5v-78q0 -41 21.5 -63.5t60.5 -22.5h174q10 0 10 -10zM551 27h63
q11 0 11 -11v-6q0 -10 -11 -10h-63q-158 0 -227.5 74t-69.5 241v887h-121q-10 0 -10 10v7q0 10 10 10h139q9 0 9 -10v-904q0 -155 62 -221.5t208 -66.5z" />
    <glyph glyph-name="uniFE86" unicode="&#x624;" horiz-adv-x="1009" arabic-form="final" 
d="M653 1135h-350q-10 0 -10 10v6q0 10 10 10h105q-35 27 -35 86v78q0 62 35.5 102.5t91.5 40.5h24q56 0 111 -43q5 -5 2 -10l-6 -8q-6 -6 -15 0q-47 35 -94 35h-22q-44 0 -73.5 -34.5t-29.5 -82.5v-78q0 -41 21.5 -63.5t60.5 -22.5h174q11 0 11 -10v-6q0 -10 -11 -10z
M805 27h205q10 0 10 -11v-6q0 -10 -10 -10h-205v-131q0 -147 -88.5 -229t-247.5 -82h-78q-133 0 -213 80q-5 5 -2 12l8 8q4 7 13 -2q72 -72 194 -72h78q147 0 228 75t81 210v131h-293q-147 0 -229 88.5t-82 247.5v264q0 148 81.5 229.5t229.5 81.5h9q148 0 229.5 -81.5
t81.5 -229.5v-573zM201 600v-264q0 -146 75 -227.5t209 -81.5h293v573q0 134 -75.5 209.5t-208.5 75.5h-9q-133 0 -208.5 -75.5t-75.5 -209.5z" />
    <glyph glyph-name="uniFE88" unicode="&#x625;" horiz-adv-x="614" arabic-form="final" 
d="M551 27h63q11 0 11 -11v-6q0 -10 -11 -10h-63q-159 0 -227 72.5t-68 242.5v1117h-123q-10 0 -10 10v6q0 10 10 10h141q9 0 9 -10v-1133q0 -155 62.5 -221.5t205.5 -66.5zM328 -514h174q10 0 10 -10v-6q0 -11 -10 -11h-350q-11 0 -11 11v6q0 10 11 10h104q-35 27 -35 86
v78q0 62 35.5 102.5t91.5 40.5h25q67 0 110 -43q5 -5 2 -10l-6 -8q-6 -6 -14 0q-53 35 -94 35h-23q-44 0 -73 -34.5t-29 -82.5v-78q0 -41 21.5 -63.5t60.5 -22.5z" />
    <glyph glyph-name="uniFE8A" unicode="&#x626;" horiz-adv-x="1951" arabic-form="final" 
d="M1647 1104h-351q-10 0 -10 10v6q0 10 10 10h105q-35 27 -35 87v77q0 62 35.5 103t91.5 41h25q55 0 110 -43q5 -5 2 -11l-6 -8q-6 -6 -14 0q-47 35 -94 35h-23q-44 0 -73 -34.5t-29 -82.5v-77q0 -41 22 -64t60 -23h174q10 0 10 -10v-6q0 -10 -10 -10zM1704 27h248
q10 0 10 -11v-6q0 -10 -10 -10h-264q-11 0 -11 10v854h-291q-137 0 -213.5 -80.5t-76.5 -226.5v-704q0 -136 -89 -212.5t-247 -76.5h-207q-179 0 -279 102.5t-100 288.5q0 205 131 379q5 7 14 4l7 -4q8 -4 0 -15q-125 -186 -125 -364q0 -172 93 -268.5t259 -96.5h207
q146 0 227.5 70t81.5 193v704q0 158 84 246t233 88h308q10 0 10 -10v-854z" />
    <glyph glyph-name="uniFE8B" unicode="&#x626;" horiz-adv-x="552" arabic-form="initial" 
d="M352 1130h174q11 0 11 -10v-6q0 -10 -11 -10h-350q-10 0 -10 10v6q0 10 10 10h105q-35 27 -35 87v77q0 62 35.5 103t91.5 41h24q56 0 111 -43q5 -5 2 -11l-6 -8q-6 -6 -15 0q-47 35 -94 35h-22q-44 0 -73.5 -34.5t-29.5 -82.5v-77q0 -41 22 -64t60 -23zM340 891h10
q8 0 8 -10v-613q0 -139 -71 -203.5t-224 -64.5h-63q-10 0 -10 10v6q0 11 10 11h63q137 0 203 58.5t66 182.5v613q0 10 8 10z" />
    <glyph glyph-name="uniFE8C" unicode="&#x626;" horiz-adv-x="647" arabic-form="medial" 
d="M526 1104h-350q-10 0 -10 10v6q0 10 10 10h105q-35 27 -35 87v77q0 62 35.5 103t91.5 41h24q56 0 111 -43q5 -5 2 -11l-6 -8q-6 -6 -15 0q-47 35 -94 35h-22q-44 0 -73.5 -34.5t-29.5 -82.5v-77q0 -41 22 -64t60 -23h174q11 0 11 -10v-6q0 -10 -11 -10zM618 27h29
q10 0 10 -11v-6q0 -10 -10 -10h-29q-122 0 -184.5 40t-85.5 134q-43 -174 -285 -174h-63q-10 0 -10 10v6q0 11 10 11h63q137 0 203 58.5t66 182.5v613q0 10 8 10h10q8 0 8 -10v-551q0 -168 57 -235.5t203 -67.5z" />
    <glyph glyph-name="uniFE8E" unicode="&#x627;" horiz-adv-x="614" arabic-form="final" 
d="M551 27h63q11 0 11 -11v-6q0 -10 -11 -10h-63q-159 0 -227 72.5t-68 242.5v1117h-123q-10 0 -10 10v6q0 10 10 10h141q9 0 9 -10v-1133q0 -155 62.5 -221.5t205.5 -66.5z" />
    <glyph glyph-name="uniFE90" unicode="&#x628;" horiz-adv-x="1513" arabic-form="final" 
d="M1513 27q11 0 11 -11v-6q0 -10 -11 -10q-122 0 -184.5 40t-85.5 134q-43 -174 -285 -174h-473q-147 0 -229 88.5t-82 247.5v186q0 142 80 213q8 6 12 2l8 -8q4 -4 -2 -12q-71 -71 -71 -195v-186q0 -146 75 -227.5t209 -81.5h473q137 0 203 58.5t66 182.5v613q0 10 8 10
h10q8 0 8 -10v-551q0 -168 57 -235.5t203 -67.5zM752 -205h16q10 0 10 -10v-100q0 -11 -10 -11h-16q-11 0 -11 11v100q0 10 11 10z" />
    <glyph glyph-name="uniFE91" unicode="&#x628;" horiz-adv-x="552" arabic-form="initial" 
d="M63 0h-63q-10 0 -10 10v6q0 11 10 11h63q137 0 203 58.5t66 182.5v613q0 10 8 10h10q8 0 8 -10v-613q0 -139 -71 -203.5t-224 -64.5zM223 -326h-16q-10 0 -10 11v100q0 10 10 10h16q10 0 10 -10v-100q0 -11 -10 -11z" />
    <glyph glyph-name="uniFE92" unicode="&#x628;" horiz-adv-x="647" arabic-form="medial" 
d="M618 27h29q10 0 10 -11v-6q0 -10 -10 -10h-29q-122 0 -184.5 40t-85.5 134q-43 -174 -285 -174h-63q-10 0 -10 10v6q0 11 10 11h63q137 0 203 58.5t66 182.5v613q0 10 8 10h10q8 0 8 -10v-551q0 -168 57 -235.5t203 -67.5zM338 -205h16q11 0 11 -10v-100q0 -11 -11 -11
h-16q-10 0 -10 11v100q0 10 10 10z" />
    <glyph glyph-name="uniFE94" unicode="&#x629;" horiz-adv-x="1069" arabic-form="final" 
d="M379 1139h-17q-10 0 -10 10v100q0 11 10 11h17q10 0 10 -11v-100q0 -10 -10 -10zM616 1139h-16q-10 0 -10 10v100q0 11 10 11h16q11 0 11 -11v-100q0 -10 -11 -10zM1063 27h6q10 0 10 -11v-6q0 -10 -10 -10h-6q-256 0 -283 256q-62 -197 -286 -197h-9q-147 0 -229 88.5
t-82 247.5v205q0 148 81.5 229.5t229.5 81.5h9q220 0 284 -174v207q0 10 8 10h11q8 0 8 -10v-629q0 -288 258 -288zM485 86h9q135 0 209.5 80.5t74.5 228.5v205q0 135 -74.5 210t-209.5 75h-9q-133 0 -208.5 -75.5t-75.5 -209.5v-205q0 -146 75 -227.5t209 -81.5z" />
    <glyph glyph-name="uniFE96" unicode="&#x62a;" horiz-adv-x="1513" arabic-form="final" 
d="M614 1096h-16q-10 0 -10 10v100q0 11 10 11h16q11 0 11 -11v-100q0 -10 -11 -10zM852 1096h-16q-11 0 -11 10v100q0 11 11 11h16q10 0 10 -11v-100q0 -10 -10 -10zM1513 27q11 0 11 -11v-6q0 -10 -11 -10q-122 0 -184.5 40t-85.5 134q-43 -174 -285 -174h-473
q-147 0 -229 88.5t-82 247.5v186q0 142 80 213q8 6 12 2l8 -8q4 -4 -2 -12q-71 -71 -71 -195v-186q0 -146 75 -227.5t209 -81.5h473q137 0 203 58.5t66 182.5v613q0 10 8 10h10q8 0 8 -10v-551q0 -168 57 -235.5t203 -67.5z" />
    <glyph glyph-name="uniFE97" unicode="&#x62a;" horiz-adv-x="595" arabic-form="initial" 
d="M279 1096h-17q-10 0 -10 10v100q0 11 10 11h17q10 0 10 -11v-100q0 -10 -10 -10zM516 1096h-16q-11 0 -11 10v100q0 11 11 11h16q10 0 10 -11v-100q0 -10 -10 -10zM106 0h-106q-10 0 -10 10v6q0 11 10 11h106q137 0 203 58.5t66 182.5v613q0 10 8 10h10q8 0 8 -10v-613
q0 -139 -71 -203.5t-224 -64.5z" />
    <glyph glyph-name="uniFE98" unicode="&#x62a;" horiz-adv-x="690" arabic-form="medial" 
d="M279 1096h-17q-10 0 -10 10v100q0 11 10 11h17q10 0 10 -11v-100q0 -10 -10 -10zM516 1096h-16q-11 0 -11 10v100q0 11 11 11h16q10 0 10 -11v-100q0 -10 -10 -10zM662 27h28q10 0 10 -11v-6q0 -10 -10 -10h-28q-122 0 -185 40t-86 134q-43 -174 -285 -174h-106
q-10 0 -10 10v6q0 11 10 11h106q137 0 203 58.5t66 182.5v613q0 10 8 10h10q8 0 8 -10v-551q0 -168 57.5 -235.5t203.5 -67.5z" />
    <glyph glyph-name="uniFE9A" unicode="&#x62b;" horiz-adv-x="1513" arabic-form="final" 
d="M733 1300h-16q-10 0 -10 11v100q0 10 10 10h16q10 0 10 -10v-100q0 -11 -10 -11zM614 1096h-16q-10 0 -10 10v100q0 11 10 11h16q11 0 11 -11v-100q0 -10 -11 -10zM852 1096h-16q-11 0 -11 10v100q0 11 11 11h16q10 0 10 -11v-100q0 -10 -10 -10zM1513 27q11 0 11 -11v-6
q0 -10 -11 -10q-122 0 -184.5 40t-85.5 134q-43 -174 -285 -174h-473q-147 0 -229 88.5t-82 247.5v186q0 142 80 213q8 6 12 2l8 -8q4 -4 -2 -12q-71 -71 -71 -195v-186q0 -146 75 -227.5t209 -81.5h473q137 0 203 58.5t66 182.5v613q0 10 8 10h10q8 0 8 -10v-551
q0 -168 57 -235.5t203 -67.5z" />
    <glyph glyph-name="uniFE9B" unicode="&#x62b;" horiz-adv-x="595" arabic-form="initial" 
d="M397 1300h-16q-10 0 -10 11v100q0 10 10 10h16q11 0 11 -10v-100q0 -11 -11 -11zM279 1096h-17q-10 0 -10 10v100q0 11 10 11h17q10 0 10 -11v-100q0 -10 -10 -10zM516 1096h-16q-11 0 -11 10v100q0 11 11 11h16q10 0 10 -11v-100q0 -10 -10 -10zM106 0h-106
q-10 0 -10 10v6q0 11 10 11h106q137 0 203 58.5t66 182.5v613q0 10 8 10h10q8 0 8 -10v-613q0 -139 -71 -203.5t-224 -64.5z" />
    <glyph glyph-name="uniFE9C" unicode="&#x62b;" horiz-adv-x="690" arabic-form="medial" 
d="M397 1300h-16q-10 0 -10 11v100q0 10 10 10h16q11 0 11 -10v-100q0 -11 -11 -11zM279 1096h-17q-10 0 -10 10v100q0 11 10 11h17q10 0 10 -11v-100q0 -10 -10 -10zM516 1096h-16q-11 0 -11 10v100q0 11 11 11h16q10 0 10 -11v-100q0 -10 -10 -10zM662 27h28q10 0 10 -11
v-6q0 -10 -10 -10h-28q-122 0 -185 40t-86 134q-43 -174 -285 -174h-106q-10 0 -10 10v6q0 11 10 11h106q137 0 203 58.5t66 182.5v613q0 10 8 10h10q8 0 8 -10v-551q0 -168 57.5 -235.5t203.5 -67.5z" />
    <glyph glyph-name="uniFE9E" unicode="&#x62c;" horiz-adv-x="1179" arabic-form="final" 
d="M1034 27h146q10 0 10 -11v-6q0 -10 -10 -10h-686q-143 0 -234.5 -80t-91.5 -213v-26q0 -117 82 -199q8 -6 2 -12l-8 -9q-7 -7 -13 2q-88 88 -88 218v26q0 146 97.5 233t253.5 87h419q-131 64 -131 305v270q0 134 -75.5 209.5t-208.5 75.5h-49q-117 0 -199 -82
q-8 -6 -12 -2l-9 8q-4 4 2 12q90 90 218 90h49q148 0 229.5 -81.5t81.5 -229.5v-270q0 -156 52.5 -230.5t172.5 -74.5zM592 -225h16q10 0 10 -11v-100q0 -10 -10 -10h-16q-10 0 -10 10v100q0 11 10 11z" />
    <glyph glyph-name="uniFE9F" unicode="&#x62c;" horiz-adv-x="1146" arabic-form="initial" 
d="M1034 27q10 0 10 -11v-6q0 -10 -10 -10h-1034q-10 0 -10 10v6q0 11 10 11h913q-131 64 -131 305v270q0 134 -75.5 209.5t-208.5 75.5h-49q-117 0 -199 -82q-8 -6 -12 -2l-9 8q-4 4 2 12q90 90 218 90h49q148 0 229.5 -81.5t81.5 -229.5v-270q0 -156 52.5 -230.5
t172.5 -74.5zM502 -205h16q10 0 10 -10v-100q0 -11 -10 -11h-16q-10 0 -10 11v100q0 10 10 10z" />
    <glyph glyph-name="uniFEA0" unicode="&#x62c;" horiz-adv-x="1175" arabic-form="medial" 
d="M1034 27h142q10 0 10 -11v-6q0 -10 -10 -10h-1176q-10 0 -10 10v6q0 11 10 11h913q-131 64 -131 305v270q0 134 -75.5 209.5t-208.5 75.5h-49q-117 0 -199 -82q-8 -6 -12 -2l-9 8q-4 4 2 12q90 90 218 90h49q148 0 229.5 -81.5t81.5 -229.5v-270q0 -156 52.5 -230.5
t172.5 -74.5zM502 -205h16q10 0 10 -10v-100q0 -11 -10 -11h-16q-10 0 -10 11v100q0 10 10 10z" />
    <glyph glyph-name="uniFEA2" unicode="&#x62d;" horiz-adv-x="1179" arabic-form="final" 
d="M1034 27h146q10 0 10 -11v-6q0 -10 -10 -10h-686q-146 0 -235 -81t-89 -212v-26q0 -137 89 -215t247 -78q166 0 328 110q10 7 14 0l4 -6q3 -9 -4 -14q-170 -117 -342 -117q-170 0 -266.5 85.5t-96.5 234.5v26q0 143 96.5 231.5t254.5 88.5h419q-131 64 -131 305v270
q0 134 -75.5 209.5t-208.5 75.5h-49q-117 0 -199 -82q-8 -6 -12 -2l-9 8q-4 4 2 12q90 90 218 90h49q148 0 229.5 -81.5t81.5 -229.5v-270q0 -156 52.5 -230.5t172.5 -74.5z" />
    <glyph glyph-name="uniFEA3" unicode="&#x62d;" horiz-adv-x="1146" arabic-form="initial" 
d="M1034 27q10 0 10 -11v-6q0 -10 -10 -10h-1034q-10 0 -10 10v6q0 11 10 11h913q-131 64 -131 305v270q0 134 -75.5 209.5t-208.5 75.5h-49q-117 0 -199 -82q-8 -6 -12 -2l-9 8q-4 4 2 12q90 90 218 90h49q148 0 229.5 -81.5t81.5 -229.5v-270q0 -156 52.5 -230.5
t172.5 -74.5z" />
    <glyph glyph-name="uniFEA4" unicode="&#x62d;" horiz-adv-x="1175" arabic-form="medial" 
d="M1034 27h142q10 0 10 -11v-6q0 -10 -10 -10h-1176q-10 0 -10 10v6q0 11 10 11h913q-131 64 -131 305v270q0 134 -75.5 209.5t-208.5 75.5h-49q-117 0 -199 -82q-8 -6 -12 -2l-9 8q-4 4 2 12q90 90 218 90h49q148 0 229.5 -81.5t81.5 -229.5v-270q0 -156 52.5 -230.5
t172.5 -74.5z" />
    <glyph glyph-name="uniFEA6" unicode="&#x62e;" horiz-adv-x="1179" arabic-form="final" 
d="M500 1118h-17q-10 0 -10 10v101q0 10 10 10h17q10 0 10 -10v-101q0 -10 -10 -10zM1034 27h146q10 0 10 -11v-6q0 -10 -10 -10h-686q-146 0 -235 -81t-89 -212v-26q0 -137 89 -215t247 -78q166 0 328 110q10 7 14 0l4 -6q3 -9 -4 -14q-170 -117 -342 -117
q-170 0 -266.5 85.5t-96.5 234.5v26q0 143 96.5 231.5t254.5 88.5h419q-131 64 -131 305v270q0 134 -75.5 209.5t-208.5 75.5h-49q-117 0 -199 -82q-8 -6 -12 -2l-9 8q-4 4 2 12q90 90 218 90h49q148 0 229.5 -81.5t81.5 -229.5v-270q0 -156 52.5 -230.5t172.5 -74.5z" />
    <glyph glyph-name="uniFEA7" unicode="&#x62e;" horiz-adv-x="1146" arabic-form="initial" 
d="M489 1118h-16q-10 0 -10 10v101q0 10 10 10h16q11 0 11 -10v-101q0 -10 -11 -10zM1034 27q10 0 10 -11v-6q0 -10 -10 -10h-1034q-10 0 -10 10v6q0 11 10 11h913q-131 64 -131 305v270q0 134 -75.5 209.5t-208.5 75.5h-49q-117 0 -199 -82q-8 -6 -12 -2l-9 8q-4 4 2 12
q90 90 218 90h49q148 0 229.5 -81.5t81.5 -229.5v-270q0 -156 52.5 -230.5t172.5 -74.5z" />
    <glyph glyph-name="uniFEA8" unicode="&#x62e;" horiz-adv-x="1175" arabic-form="medial" 
d="M489 1118h-16q-10 0 -10 10v101q0 10 10 10h16q11 0 11 -10v-101q0 -10 -11 -10zM1034 27h142q10 0 10 -11v-6q0 -10 -10 -10h-1176q-10 0 -10 10v6q0 11 10 11h913q-131 64 -131 305v270q0 134 -75.5 209.5t-208.5 75.5h-49q-117 0 -199 -82q-8 -6 -12 -2l-9 8
q-4 4 2 12q90 90 218 90h49q148 0 229.5 -81.5t81.5 -229.5v-270q0 -156 52.5 -230.5t172.5 -74.5z" />
    <glyph glyph-name="uniFEAA" unicode="&#x62f;" horiz-adv-x="1122" arabic-form="final" 
d="M1122 27q11 0 11 -11v-6q0 -10 -11 -10q-110 0 -176 57t-98 181q-20 -111 -109.5 -174.5t-228.5 -63.5h-191q-125 0 -213 88q-8 6 -2 12l9 9q6 6 12 -3q79 -79 194 -79h191q161 0 246.5 93t62.5 242l-45 291q-20 125 -94 196t-186 71h-41q-11 0 -11 10v6q0 10 11 10h41
q124 0 205 -77t104 -214l41 -260l10 -65q29 -165 90 -234t178 -69z" />
    <glyph glyph-name="uniFEAC" unicode="&#x630;" horiz-adv-x="1122" arabic-form="final" 
d="M502 1151h-17q-10 0 -10 10v101q0 10 10 10h17q10 0 10 -10v-101q0 -10 -10 -10zM1122 27q11 0 11 -11v-6q0 -10 -11 -10q-110 0 -176 57t-98 181q-20 -111 -109.5 -174.5t-228.5 -63.5h-191q-125 0 -213 88q-8 6 -2 12l9 9q6 6 12 -3q79 -79 194 -79h191q161 0 246.5 93
t62.5 242l-45 291q-20 125 -94 196t-186 71h-41q-11 0 -11 10v6q0 10 11 10h41q124 0 205 -77t104 -214l41 -260l10 -65q29 -165 90 -234t178 -69z" />
    <glyph glyph-name="uniFEAE" unicode="&#x631;" horiz-adv-x="681" arabic-form="final" 
d="M682 27q10 0 10 -11v-6q0 -10 -10 -10q-110 0 -172 33.5t-88 107.5v-272q0 -311 -289 -311h-8q-133 0 -213 80q-5 5 -2 12l8 8q3 7 12 -2q72 -72 195 -72h8q262 0 262 285v1012q0 10 8 10h11q8 0 8 -10v-551q0 -168 57 -235.5t203 -67.5z" />
    <glyph glyph-name="uniFEB0" unicode="&#x632;" horiz-adv-x="681" arabic-form="final" 
d="M418 1096h-17q-10 0 -10 10v100q0 11 10 11h17q10 0 10 -11v-100q0 -10 -10 -10zM682 27q10 0 10 -11v-6q0 -10 -10 -10q-110 0 -172 33.5t-88 107.5v-272q0 -311 -289 -311h-8q-133 0 -213 80q-5 5 -2 12l8 8q3 7 12 -2q72 -72 195 -72h8q262 0 262 285v1012q0 10 8 10
h11q8 0 8 -10v-551q0 -168 57 -235.5t203 -67.5z" />
    <glyph glyph-name="uniFEB2" unicode="&#x633;" horiz-adv-x="2564" arabic-form="final" 
d="M2564 27q10 0 10 -11v-6q0 -10 -10 -10q-129 0 -192.5 46.5t-83.5 156.5q-61 -223 -308 -223q-116 0 -192 59.5t-102 171.5q-29 -111 -109 -171t-201 -60q-212 0 -280 188v-315q0 -136 -89 -212.5t-247 -76.5h-207q-179 0 -279 102.5t-100 288.5q0 205 131 379q5 7 14 4
l7 -4q8 -4 0 -15q-125 -186 -125 -364q0 -172 93 -268.5t259 -96.5h207q146 0 227.5 70t81.5 193v864q0 10 10 10h6q11 0 11 -10v-391q0 -149 74.5 -234.5t205.5 -85.5q140 0 218.5 85t78.5 237v420q0 10 10 10h7q10 0 10 -10v-420v-2q0 -149 74.5 -234.5t205.5 -85.5
q140 0 218.5 85t78.5 237v575q0 10 11 10h6q10 0 10 -10v-573q0 -168 57 -235.5t203 -67.5z" />
    <glyph glyph-name="uniFEB3" unicode="&#x633;" horiz-adv-x="1691" arabic-form="initial" 
d="M1481 913h6q10 0 10 -10v-575q0 -164 -85.5 -256t-237.5 -92q-116 0 -192.5 59.5t-102.5 171.5q-29 -111 -109 -171t-201 -60q-110 0 -184.5 55t-103.5 158q-20 -92 -92.5 -142.5t-182.5 -50.5h-6q-10 0 -10 10v6q0 11 10 11h6q122 0 189 63t67 178v480q0 10 8 10h11
q8 0 8 -10v-422q0 -149 74.5 -234.5t205.5 -85.5q140 0 218.5 85t78.5 237v420q0 10 11 10h6q10 0 10 -10v-420v-2q0 -149 75 -234.5t206 -85.5q140 0 218 85t78 237v575q0 10 11 10z" />
    <glyph glyph-name="uniFEB4" unicode="&#x633;" horiz-adv-x="1757" arabic-form="medial" 
d="M1757 27q10 0 10 -11v-6q0 -10 -10 -10q-129 0 -192.5 46.5t-83.5 156.5q-61 -223 -307 -223q-116 0 -192.5 59.5t-102.5 171.5q-29 -111 -109 -171t-201 -60q-110 0 -184.5 55t-103.5 158q-20 -92 -92.5 -142.5t-182.5 -50.5h-6q-10 0 -10 10v6q0 11 10 11h6
q122 0 189 63t67 178v480q0 10 8 10h11q8 0 8 -10v-422q0 -149 74.5 -234.5t205.5 -85.5q140 0 218.5 85t78.5 237v420q0 10 11 10h6q10 0 10 -10v-420v-2q0 -149 75 -234.5t206 -85.5q140 0 218 85t78 237v575q0 10 11 10h6q10 0 10 -10v-573q0 -168 57 -235.5t203 -67.5z
" />
    <glyph glyph-name="uniFEB6" unicode="&#x634;" horiz-adv-x="2564" arabic-form="final" 
d="M1696 1167h-17q-10 0 -10 11v100q0 10 10 10h17q10 0 10 -10v-100q0 -11 -10 -11zM1577 963h-16q-11 0 -11 10v100q0 10 11 10h16q10 0 10 -10v-100q0 -10 -10 -10zM1815 963h-17q-10 0 -10 10v100q0 10 10 10h17q10 0 10 -10v-100q0 -10 -10 -10zM2564 27q10 0 10 -11
v-6q0 -10 -10 -10q-129 0 -192.5 46.5t-83.5 156.5q-61 -223 -308 -223q-116 0 -192 59.5t-102 171.5q-29 -111 -109 -171t-201 -60q-212 0 -280 188v-315q0 -136 -89 -212.5t-247 -76.5h-207q-179 0 -279 102.5t-100 288.5q0 205 131 379q5 7 14 4l7 -4q8 -4 0 -15
q-125 -186 -125 -364q0 -172 93 -268.5t259 -96.5h207q146 0 227.5 70t81.5 193v864q0 10 10 10h6q11 0 11 -10v-391q0 -149 74.5 -234.5t205.5 -85.5q140 0 218.5 85t78.5 237v420q0 10 10 10h7q10 0 10 -10v-420v-2q0 -149 74.5 -234.5t205.5 -85.5q140 0 218.5 85
t78.5 237v575q0 10 11 10h6q10 0 10 -10v-573q0 -168 57 -235.5t203 -67.5z" />
    <glyph glyph-name="uniFEB7" unicode="&#x634;" horiz-adv-x="1691" arabic-form="initial" 
d="M889 1167h-17q-10 0 -10 11v100q0 10 10 10h17q10 0 10 -10v-100q0 -11 -10 -11zM770 963h-16q-11 0 -11 10v100q0 10 11 10h16q10 0 10 -10v-100q0 -10 -10 -10zM1008 963h-17q-10 0 -10 10v100q0 10 10 10h17q10 0 10 -10v-100q0 -10 -10 -10zM1481 913h6q10 0 10 -10
v-575q0 -164 -85.5 -256t-237.5 -92q-116 0 -192.5 59.5t-102.5 171.5q-29 -111 -109 -171t-201 -60q-110 0 -184.5 55t-103.5 158q-20 -92 -92.5 -142.5t-182.5 -50.5h-6q-10 0 -10 10v6q0 11 10 11h6q122 0 189 63t67 178v480q0 10 8 10h11q8 0 8 -10v-422
q0 -149 74.5 -234.5t205.5 -85.5q140 0 218.5 85t78.5 237v420q0 10 11 10h6q10 0 10 -10v-420v-2q0 -149 75 -234.5t206 -85.5q140 0 218 85t78 237v575q0 10 11 10z" />
    <glyph glyph-name="uniFEB8" unicode="&#x634;" horiz-adv-x="1757" arabic-form="medial" 
d="M889 1167h-17q-10 0 -10 11v100q0 10 10 10h17q10 0 10 -10v-100q0 -11 -10 -11zM770 963h-16q-11 0 -11 10v100q0 10 11 10h16q10 0 10 -10v-100q0 -10 -10 -10zM1008 963h-17q-10 0 -10 10v100q0 10 10 10h17q10 0 10 -10v-100q0 -10 -10 -10zM1757 27q10 0 10 -11v-6
q0 -10 -10 -10q-129 0 -192.5 46.5t-83.5 156.5q-61 -223 -307 -223q-116 0 -192.5 59.5t-102.5 171.5q-29 -111 -109 -171t-201 -60q-110 0 -184.5 55t-103.5 158q-20 -92 -92.5 -142.5t-182.5 -50.5h-6q-10 0 -10 10v6q0 11 10 11h6q122 0 189 63t67 178v480q0 10 8 10h11
q8 0 8 -10v-422q0 -149 74.5 -234.5t205.5 -85.5q140 0 218.5 85t78.5 237v420q0 10 11 10h6q10 0 10 -10v-420v-2q0 -149 75 -234.5t206 -85.5q140 0 218 85t78 237v575q0 10 11 10h6q10 0 10 -10v-573q0 -168 57 -235.5t203 -67.5z" />
    <glyph glyph-name="uniFEBA" unicode="&#x635;" horiz-adv-x="2347" arabic-form="final" 
d="M2347 27q10 0 10 -11v-6q0 -10 -10 -10q-131 0 -194 47t-82 162q-62 -209 -295 -209h-680v-147q0 -136 -89 -212.5t-247 -76.5h-207q-179 0 -279 102.5t-100 288.5q0 205 131 379q5 7 14 4l7 -4q8 -4 0 -15q-125 -186 -125 -364q0 -172 93 -268.5t259 -96.5h207
q146 0 227.5 70t81.5 193v1028q0 10 10 10h6q11 0 11 -10v-156q70 166 284 166h396q148 0 229.5 -81.5t81.5 -229.5v-244v-6q0 -168 57 -235.5t203 -67.5zM2060 336v244q0 134 -75 209t-209 75h-396q-134 0 -209 -75t-75 -209v-553h680q134 0 209 81.5t75 227.5z" />
    <glyph glyph-name="uniFEBB" unicode="&#x635;" horiz-adv-x="1433" arabic-form="initial" 
d="M573 891h396q148 0 229.5 -81.5t81.5 -229.5v-244q0 -159 -82 -247.5t-229 -88.5h-969q-10 0 -10 10v6q0 11 10 11h262v854q0 10 10 10h7q10 0 10 -10v-156q70 166 284 166zM1253 336v244q0 134 -75.5 209t-208.5 75h-396q-133 0 -208.5 -75t-75.5 -209v-553h680
q134 0 209 81.5t75 227.5z" />
    <glyph glyph-name="uniFEBC" unicode="&#x635;" horiz-adv-x="1540" arabic-form="medial" 
d="M1540 27q10 0 10 -11v-6q0 -10 -10 -10q-131 0 -194 47t-82 162q-62 -209 -295 -209h-969q-10 0 -10 10v6q0 11 10 11h262v854q0 10 10 10h7q10 0 10 -10v-156q70 166 284 166h396q148 0 229.5 -81.5t81.5 -229.5v-244v-6q0 -168 57 -235.5t203 -67.5zM1253 336v244
q0 134 -75.5 209t-208.5 75h-396q-133 0 -208.5 -75t-75.5 -209v-553h680q134 0 209 81.5t75 227.5z" />
    <glyph glyph-name="uniFEBE" unicode="&#x636;" horiz-adv-x="2347" arabic-form="final" 
d="M1587 1096h-16q-10 0 -10 10v100q0 11 10 11h16q10 0 10 -11v-100q0 -10 -10 -10zM2347 27q10 0 10 -11v-6q0 -10 -10 -10q-131 0 -194 47t-82 162q-62 -209 -295 -209h-680v-147q0 -136 -89 -212.5t-247 -76.5h-207q-179 0 -279 102.5t-100 288.5q0 205 131 379
q5 7 14 4l7 -4q8 -4 0 -15q-125 -186 -125 -364q0 -172 93 -268.5t259 -96.5h207q146 0 227.5 70t81.5 193v1028q0 10 10 10h6q11 0 11 -10v-156q70 166 284 166h396q148 0 229.5 -81.5t81.5 -229.5v-244v-6q0 -168 57 -235.5t203 -67.5zM2060 336v244q0 134 -75 209
t-209 75h-396q-134 0 -209 -75t-75 -209v-553h680q134 0 209 81.5t75 227.5z" />
    <glyph glyph-name="uniFEBF" unicode="&#x636;" horiz-adv-x="1433" arabic-form="initial" 
d="M780 1096h-16q-10 0 -10 10v100q0 11 10 11h16q11 0 11 -11v-100q0 -10 -11 -10zM573 891h396q148 0 229.5 -81.5t81.5 -229.5v-244q0 -159 -82 -247.5t-229 -88.5h-969q-10 0 -10 10v6q0 11 10 11h262v854q0 10 10 10h7q10 0 10 -10v-156q70 166 284 166zM1253 336v244
q0 134 -75.5 209t-208.5 75h-396q-133 0 -208.5 -75t-75.5 -209v-553h680q134 0 209 81.5t75 227.5z" />
    <glyph glyph-name="uniFEC0" unicode="&#x636;" horiz-adv-x="1540" arabic-form="medial" 
d="M780 1096h-16q-10 0 -10 10v100q0 11 10 11h16q11 0 11 -11v-100q0 -10 -11 -10zM1540 27q10 0 10 -11v-6q0 -10 -10 -10q-131 0 -194 47t-82 162q-62 -209 -295 -209h-969q-10 0 -10 10v6q0 11 10 11h262v854q0 10 10 10h7q10 0 10 -10v-156q70 166 284 166h396
q148 0 229.5 -81.5t81.5 -229.5v-244v-6q0 -168 57 -235.5t203 -67.5zM1253 336v244q0 134 -75.5 209t-208.5 75h-396q-133 0 -208.5 -75t-75.5 -209v-553h680q134 0 209 81.5t75 227.5z" />
    <glyph glyph-name="uniFEC2" unicode="&#x637;" horiz-adv-x="1638" arabic-form="final" 
d="M1638 27q11 0 11 -11v-6q0 -10 -11 -10q-130 0 -193.5 46.5t-82.5 158.5q-29 -103 -104.5 -157t-190.5 -54h-965q-10 0 -10 10v6q0 10 10 10h258v1405h-120q-11 0 -11 11v6q0 10 11 10h137q10 0 10 -10v-723q70 166 285 166h395q148 0 229.5 -82t81.5 -230v-243
q0 -168 57 -235.5t203 -67.5zM1352 330v243q0 133 -76 209t-209 76h-395q-134 0 -209.5 -76t-75.5 -209v-553h680q134 0 209.5 82t75.5 228z" />
    <glyph glyph-name="uniFEC3" unicode="&#x637;" horiz-adv-x="1511" arabic-form="initial" 
d="M651 891h396q148 0 229.5 -81.5t81.5 -229.5v-244q0 -159 -82 -247.5t-229 -88.5h-1047q-10 0 -10 10v6q0 11 10 11h340v1405h-121q-10 0 -10 10v6q0 10 10 10h137q11 0 11 -10v-723q70 166 284 166zM1331 336v244q0 134 -75.5 209t-208.5 75h-396q-133 0 -208.5 -75
t-75.5 -209v-553h680q134 0 209 81.5t75 227.5z" />
    <glyph glyph-name="uniFEC4" unicode="&#x637;" horiz-adv-x="1617" arabic-form="medial" 
d="M1618 27q10 0 10 -11v-6q0 -10 -10 -10q-132 0 -195 47t-82 162q-62 -209 -294 -209h-1047q-10 0 -10 10v6q0 11 10 11h340v1405h-121q-10 0 -10 10v6q0 10 10 10h137q11 0 11 -10v-723q70 166 284 166h396q148 0 229.5 -81.5t81.5 -229.5v-244v-6q0 -168 57 -235.5
t203 -67.5zM1331 336v244q0 134 -75.5 209t-208.5 75h-396q-133 0 -208.5 -75t-75.5 -209v-553h680q134 0 209 81.5t75 227.5z" />
    <glyph glyph-name="uniFEC6" unicode="&#x638;" horiz-adv-x="1638" arabic-form="final" 
d="M1638 27q11 0 11 -11v-6q0 -10 -11 -10q-130 0 -193.5 46.5t-82.5 158.5q-29 -103 -104.5 -157t-190.5 -54h-965q-10 0 -10 10v6q0 10 10 10h258v1405h-120q-11 0 -11 11v6q0 10 11 10h137q10 0 10 -10v-723q70 166 285 166h395q148 0 229.5 -82t81.5 -230v-243
q0 -168 57 -235.5t203 -67.5zM879 1090h-17q-10 0 -10 10v100q0 10 10 10h17q10 0 10 -10v-100q0 -10 -10 -10zM1352 330v243q0 133 -76 209t-209 76h-395q-134 0 -209.5 -76t-75.5 -209v-553h680q134 0 209.5 82t75.5 228z" />
    <glyph glyph-name="uniFEC7" unicode="&#x638;" horiz-adv-x="1511" arabic-form="initial" 
d="M651 891h396q148 0 229.5 -81.5t81.5 -229.5v-244q0 -159 -82 -247.5t-229 -88.5h-1047q-10 0 -10 10v6q0 11 10 11h340v1405h-121q-10 0 -10 10v6q0 10 10 10h137q11 0 11 -10v-723q70 166 284 166zM856 1096h-16q-11 0 -11 10v100q0 11 11 11h16q10 0 10 -11v-100
q0 -10 -10 -10zM1331 336v244q0 134 -75.5 209t-208.5 75h-396q-133 0 -208.5 -75t-75.5 -209v-553h680q134 0 209 81.5t75 227.5z" />
    <glyph glyph-name="uniFEC8" unicode="&#x638;" horiz-adv-x="1617" arabic-form="medial" 
d="M1618 27q10 0 10 -11v-6q0 -10 -10 -10q-132 0 -195 47t-82 162q-62 -209 -294 -209h-1047q-10 0 -10 10v6q0 11 10 11h340v1405h-121q-10 0 -10 10v6q0 10 10 10h137q11 0 11 -10v-723q70 166 284 166h396q148 0 229.5 -81.5t81.5 -229.5v-244v-6q0 -168 57 -235.5
t203 -67.5zM856 1096h-16q-11 0 -11 10v100q0 11 11 11h16q10 0 10 -11v-100q0 -10 -10 -10zM1331 336v244q0 134 -75.5 209t-208.5 75h-396q-133 0 -208.5 -75t-75.5 -209v-553h680q134 0 209 81.5t75 227.5z" />
    <glyph glyph-name="uniFECA" unicode="&#x639;" horiz-adv-x="1167" arabic-form="final" 
d="M854 27h313q11 0 11 -11v-6q0 -10 -11 -10h-643q-146 0 -234.5 -81t-88.5 -212v-26q0 -137 89 -215t247 -78q165 0 327 110q11 8 15 0l4 -6q3 -9 -4 -14q-169 -117 -342 -117q-170 0 -266.5 85.5t-96.5 234.5v26q0 135 84 221t225 97l-215 575q0 148 82 229.5t230 81.5
h176q148 0 229.5 -81.5t81.5 -229.5zM299 600l211 -573h14h305l207 573q0 136 -73 210.5t-207 74.5h-176q-135 0 -208 -75t-73 -210z" />
    <glyph glyph-name="uniFECB" unicode="&#x639;" horiz-adv-x="919" arabic-form="initial" 
d="M457 27h391q10 0 10 -11v-6q0 -10 -10 -10h-848q-10 0 -10 10v6q0 11 10 11h317q-137 52 -137 229v348q0 311 303 311h68q140 0 240 -100q9 -9 2 -12l-9 -8q-7 -3 -12 2q-92 92 -221 92h-68q-276 0 -276 -285v-348q0 -229 250 -229z" />
    <glyph glyph-name="uniFECC" unicode="&#x639;" horiz-adv-x="999" arabic-form="medial" 
d="M686 27h313q11 0 11 -11v-6q0 -10 -11 -10h-999q-10 0 -10 10v6q0 11 10 11h315l-215 573q0 148 82 229.5t230 81.5h176q148 0 229.5 -81.5t81.5 -229.5zM131 600l211 -573h320l206 573q0 136 -73 210.5t-207 74.5h-176q-135 0 -208 -75t-73 -210z" />
    <glyph glyph-name="uniFECE" unicode="&#x63a;" horiz-adv-x="1167" arabic-form="final" 
d="M680 1120h-16q-11 0 -11 10v101q0 10 11 10h16q10 0 10 -10v-101q0 -10 -10 -10zM854 27h313q11 0 11 -11v-6q0 -10 -11 -10h-643q-146 0 -234.5 -81t-88.5 -212v-26q0 -137 89 -215t247 -78q165 0 327 110q11 8 15 0l4 -6q3 -9 -4 -14q-169 -117 -342 -117
q-170 0 -266.5 85.5t-96.5 234.5v26q0 135 84 221t225 97l-215 575q0 148 82 229.5t230 81.5h176q148 0 229.5 -81.5t81.5 -229.5zM299 600l211 -573h14h305l207 573q0 136 -73 210.5t-207 74.5h-176q-135 0 -208 -75t-73 -210z" />
    <glyph glyph-name="uniFECF" unicode="&#x63a;" horiz-adv-x="919" arabic-form="initial" 
d="M524 1120h-16q-10 0 -10 10v101q0 10 10 10h16q11 0 11 -10v-101q0 -10 -11 -10zM457 27h391q10 0 10 -11v-6q0 -10 -10 -10h-848q-10 0 -10 10v6q0 11 10 11h317q-137 52 -137 229v348q0 311 303 311h68q140 0 240 -100q9 -9 2 -12l-9 -8q-7 -3 -12 2q-92 92 -221 92
h-68q-276 0 -276 -285v-348q0 -229 250 -229z" />
    <glyph glyph-name="uniFED0" unicode="&#x63a;" horiz-adv-x="999" arabic-form="medial" 
d="M508 1116h-16q-11 0 -11 10v101q0 10 11 10h16q10 0 10 -10v-101q0 -10 -10 -10zM686 27h313q11 0 11 -11v-6q0 -10 -11 -10h-999q-10 0 -10 10v6q0 11 10 11h315l-215 573q0 148 82 229.5t230 81.5h176q148 0 229.5 -81.5t81.5 -229.5zM131 600l211 -573h320l206 573
q0 136 -73 210.5t-207 74.5h-176q-135 0 -208 -75t-73 -210z" />
    <glyph glyph-name="uniFED2" unicode="&#x641;" horiz-adv-x="1918" arabic-form="final" 
d="M1311 1116h-17q-10 0 -10 10v101q0 10 10 10h17q10 0 10 -10v-101q0 -10 -10 -10zM1919 27q10 0 10 -11v-6q0 -10 -10 -10q-132 0 -195 47t-82 162q-62 -209 -294 -209h-863q-147 0 -229 88.5t-82 247.5v186q0 142 80 213q8 6 12 2l8 -8q4 -4 -2 -12q-71 -71 -71 -195
v-186q0 -146 75 -227.5t209 -81.5h617l-127 573q0 146 83.5 228.5t229.5 82.5h60q148 0 229.5 -81.5t81.5 -229.5v-264v-6q0 -168 57 -235.5t203 -67.5zM1632 336v264q0 134 -75.5 209.5t-208.5 75.5h-60q-134 0 -210.5 -77t-76.5 -208l127 -573h220q134 0 209 81.5
t75 227.5z" />
    <glyph glyph-name="uniFED3" unicode="&#x641;" horiz-adv-x="1052" arabic-form="initial" 
d="M528 1116h-16q-10 0 -10 10v101q0 10 10 10h16q11 0 11 -10v-101q0 -10 -11 -10zM498 911h59q148 0 229.5 -81.5t81.5 -229.5v-264q0 -159 -82 -247.5t-229 -88.5h-557q-10 0 -10 10v6q0 11 10 11h311l-127 573q0 146 83.5 228.5t230.5 82.5zM842 336v264
q0 134 -76 209.5t-209 75.5h-59q-134 0 -210.5 -77t-76.5 -208l127 -573h219q134 0 209.5 81.5t75.5 227.5z" />
    <glyph glyph-name="uniFED4" unicode="&#x641;" horiz-adv-x="1128" arabic-form="medial" 
d="M528 1116h-16q-10 0 -10 10v101q0 10 10 10h16q11 0 11 -10v-101q0 -10 -11 -10zM1128 27q11 0 11 -11v-6q0 -10 -11 -10q-131 0 -194 47t-82 162q-62 -209 -295 -209h-557q-10 0 -10 10v6q0 11 10 11h311l-127 573q0 146 83.5 228.5t230.5 82.5h59q148 0 229.5 -81.5
t81.5 -229.5v-264v-6q0 -168 57 -235.5t203 -67.5zM842 336v264q0 134 -76 209.5t-209 75.5h-59q-134 0 -210.5 -77t-76.5 -208l127 -573h219q134 0 209.5 81.5t75.5 227.5z" />
    <glyph glyph-name="uniFED6" unicode="&#x642;" horiz-adv-x="1427" arabic-form="final" 
d="M809 1116h-16q-11 0 -11 10v101q0 10 11 10h16q10 0 10 -10v-101q0 -10 -10 -10zM1047 1116h-17q-10 0 -10 10v101q0 10 10 10h17q10 0 10 -10v-101q0 -10 -10 -10zM1223 27h204q11 0 11 -11v-6q0 -10 -11 -10h-204v-154q0 -136 -89 -212t-247 -76h-334
q-179 0 -279 103.5t-100 287.5q0 193 131 379q5 7 14 4l7 -4q8 -4 0 -15q-125 -174 -125 -364q0 -172 93 -268.5t259 -96.5h334q146 0 227.5 69.5t81.5 192.5v154h-293q-147 0 -229 88.5t-82 247.5v264q0 148 81.5 229.5t229.5 81.5h8q148 0 230 -81.5t82 -229.5v-573z
M618 600v-264q0 -146 75.5 -227.5t209.5 -81.5h293v573q0 134 -76 209.5t-209 75.5h-8q-133 0 -209 -75.5t-76 -209.5z" />
    <glyph glyph-name="uniFED7" unicode="&#x642;" horiz-adv-x="1052" arabic-form="initial" 
d="M410 1116h-17q-10 0 -10 10v101q0 10 10 10h17q10 0 10 -10v-101q0 -10 -10 -10zM647 1116h-16q-10 0 -10 10v101q0 10 10 10h16q10 0 10 -10v-101q0 -10 -10 -10zM498 911h59q148 0 229.5 -81.5t81.5 -229.5v-264q0 -159 -82 -247.5t-229 -88.5h-557q-10 0 -10 10v6
q0 11 10 11h311l-127 573q0 146 83.5 228.5t230.5 82.5zM842 336v264q0 134 -76 209.5t-209 75.5h-59q-134 0 -210.5 -77t-76.5 -208l127 -573h219q134 0 209.5 81.5t75.5 227.5z" />
    <glyph glyph-name="uniFED8" unicode="&#x642;" horiz-adv-x="1128" arabic-form="medial" 
d="M410 1116h-17q-10 0 -10 10v101q0 10 10 10h17q10 0 10 -10v-101q0 -10 -10 -10zM647 1116h-16q-10 0 -10 10v101q0 10 10 10h16q10 0 10 -10v-101q0 -10 -10 -10zM1128 27q11 0 11 -11v-6q0 -10 -11 -10q-131 0 -194 47t-82 162q-62 -209 -295 -209h-557q-10 0 -10 10v6
q0 11 10 11h311l-127 573q0 146 83.5 228.5t230.5 82.5h59q148 0 229.5 -81.5t81.5 -229.5v-264v-6q0 -168 57 -235.5t203 -67.5zM842 336v264q0 134 -76 209.5t-209 75.5h-59q-134 0 -210.5 -77t-76.5 -208l127 -573h219q134 0 209.5 81.5t75.5 227.5z" />
    <glyph glyph-name="uniFEDA" unicode="&#x643;" horiz-adv-x="1529" arabic-form="final" 
d="M1530 27q10 0 10 -11v-6q0 -10 -10 -10q-122 0 -184.5 40t-85.5 134q-43 -174 -285 -174h-490q-147 0 -229 88.5t-82 247.5v186q0 142 80 213q8 6 12 2l8 -8q4 -4 -2 -12q-71 -71 -71 -195v-186q0 -146 75 -227.5t209 -81.5h490q137 0 202.5 58.5t65.5 182.5l-2 1180
q0 10 10 10h6q11 0 11 -10l2 -1118q0 -168 57 -235.5t203 -67.5zM821 645h-227q-10 0 -10 10v7q0 10 10 10h227q92 0 92 110v31l-268 31q-15 3 -18 18l-9 33q-3 20 9 29l211 168q8 5 8 -2v-19q0 -11 -8 -16l-193 -152l6 -33l277 -32q12 0 12 -21v-35q0 -137 -119 -137z" />
    <glyph glyph-name="uniFEDB" unicode="&#x643;" horiz-adv-x="1112" arabic-form="initial" 
d="M166 1004l737 530q15 9 15 -2v-14q0 -8 -7 -11l-725 -522l21 -88l682 -131q10 -3 10 -12v-486q0 -139 -71 -203.5t-224 -64.5h-604q-10 0 -10 10v6q0 11 10 11h604q137 0 202.5 58.5t65.5 182.5v473l-677 131q-9 3 -13 15l-24 96q-3 10 8 21z" />
    <glyph glyph-name="uniFEDC" unicode="&#x643;" horiz-adv-x="1159" arabic-form="medial" 
d="M1159 27q10 0 10 -11v-6q0 -10 -10 -10q-122 0 -184.5 40t-85.5 134q-43 -174 -285 -174h-604q-10 0 -10 10v6q0 11 10 11h604q137 0 202.5 58.5t65.5 182.5v473l-677 131q-9 3 -13 15l-24 96q-3 10 8 21l737 530q15 9 15 -2v-14q0 -8 -7 -11l-725 -522l21 -88l682 -131
q10 -3 10 -12v-424q0 -168 57 -235.5t203 -67.5z" />
    <glyph glyph-name="uniFEDE" unicode="&#x644;" horiz-adv-x="1482" arabic-form="final" 
d="M1483 27q10 0 10 -11v-6q0 -10 -10 -10q-110 0 -172 33.5t-88 107.5v-295q0 -136 -89 -212t-247 -76h-334q-179 0 -279 103.5t-100 287.5q0 193 131 379q5 7 14 4l7 -4q8 -4 0 -15q-125 -174 -125 -364q0 -172 93 -268.5t259 -96.5h334q146 0 227.5 69.5t81.5 192.5v1586
h-121q-10 0 -10 10v6q0 10 10 10h137q11 0 11 -10v-1118q0 -168 57 -235.5t203 -67.5z" />
    <glyph glyph-name="uniFEDF" unicode="&#x644;" horiz-adv-x="563" arabic-form="initial" 
d="M63 0h-63q-10 0 -10 10v6q0 11 10 11h63q137 0 203 58.5t66 182.5v1164h-121q-10 0 -10 10v6q0 10 10 10h137q10 0 10 -10v-1180q0 -139 -71 -203.5t-224 -64.5z" />
    <glyph glyph-name="uniFEE0" unicode="&#x644;" horiz-adv-x="618" arabic-form="medial" 
d="M618 27q11 0 11 -11v-6q0 -10 -11 -10q-122 0 -184.5 40t-85.5 134q-43 -174 -285 -174h-63q-10 0 -10 10v6q0 11 10 11h63q137 0 203 58.5t66 182.5v1164h-121q-10 0 -10 10v6q0 10 10 10h137q10 0 10 -10v-1118q0 -168 57 -235.5t203 -67.5z" />
    <glyph glyph-name="uniFEE2" unicode="&#x645;" horiz-adv-x="1236" arabic-form="final" 
d="M1237 27q10 0 10 -11v-6q0 -10 -10 -10q-131 0 -194 47t-82 162q-62 -209 -295 -209h-279q-117 0 -182.5 -63.5t-65.5 -178.5v-362q0 -10 -8 -10h-10q-8 0 -8 10v362q0 127 72.5 198t201.5 71h33l-127 573q0 146 83.5 228.5t229.5 82.5h60q148 0 229.5 -81.5t81.5 -229.5
v-264v-6q0 -168 57 -235.5t203 -67.5zM950 336v264q0 134 -75.5 209.5t-208.5 75.5h-60q-134 0 -210.5 -77t-76.5 -208l127 -573h220q134 0 209 81.5t75 227.5z" />
    <glyph glyph-name="uniFEE3" unicode="&#x645;" horiz-adv-x="1130" arabic-form="initial" 
d="M606 911h60q148 0 229.5 -81.5t81.5 -229.5v-285q0 -158 -81.5 -246.5t-229.5 -88.5l-367 155q-59 -135 -274 -135h-25q-10 0 -10 10v6q0 11 10 11h25q143 0 206.5 57t63.5 184v332q0 148 81.5 229.5t229.5 81.5zM950 315v285q0 134 -75.5 209.5t-208.5 75.5h-60
q-133 0 -208.5 -75.5t-75.5 -209.5v-332q0 -64 -15 -110l359 -152q134 0 209 81.5t75 227.5z" />
    <glyph glyph-name="uniFEE4" unicode="&#x645;" horiz-adv-x="1236" arabic-form="medial" 
d="M1237 27q10 0 10 -11v-6q0 -10 -10 -10q-128 0 -191 44.5t-83 152.5q-58 -217 -297 -217l-367 155q-59 -135 -274 -135h-25q-10 0 -10 10v6q0 11 10 11h25q143 0 206.5 57t63.5 184v332q0 148 81.5 229.5t229.5 81.5h60q148 0 229.5 -81.5t81.5 -229.5v-270
q0 -168 57 -235.5t203 -67.5zM950 315v285q0 134 -75.5 209.5t-208.5 75.5h-60q-133 0 -208.5 -75.5t-75.5 -209.5v-332q0 -64 -15 -110l359 -152q134 0 209 81.5t75 227.5z" />
    <glyph glyph-name="uniFEE6" unicode="&#x646;" horiz-adv-x="1355" arabic-form="final" 
d="M659 680h-16q-10 0 -10 10v101q0 10 10 10h16q11 0 11 -10v-101q0 -10 -11 -10zM1356 27q10 0 10 -11v-6q0 -10 -10 -10q-110 0 -172 33.5t-88 107.5v-288q0 -136 -89 -212.5t-247 -76.5h-207q-179 0 -279 102.5t-100 288.5q0 205 131 379q5 7 14 4l7 -4q8 -4 0 -15
q-125 -186 -125 -364q0 -172 93 -268.5t259 -96.5h207q146 0 227.5 70t81.5 193v864q0 10 10 10h6q11 0 11 -10v-387q0 -168 57 -235.5t203 -67.5z" />
    <glyph glyph-name="uniFEE7" unicode="&#x646;" horiz-adv-x="552" arabic-form="initial" 
d="M354 1096h-16q-10 0 -10 10v100q0 11 10 11h16q11 0 11 -11v-100q0 -10 -11 -10zM63 0h-63q-10 0 -10 10v6q0 11 10 11h63q137 0 203 58.5t66 182.5v613q0 10 8 10h10q8 0 8 -10v-613q0 -139 -71 -203.5t-224 -64.5z" />
    <glyph glyph-name="uniFEE8" unicode="&#x646;" horiz-adv-x="647" arabic-form="medial" 
d="M354 1096h-16q-10 0 -10 10v100q0 11 10 11h16q11 0 11 -11v-100q0 -10 -11 -10zM618 27h29q10 0 10 -11v-6q0 -10 -10 -10h-29q-122 0 -184.5 40t-85.5 134q-43 -174 -285 -174h-63q-10 0 -10 10v6q0 11 10 11h63q137 0 203 58.5t66 182.5v613q0 10 8 10h10q8 0 8 -10
v-551q0 -168 57 -235.5t203 -67.5z" />
    <glyph glyph-name="uniFEE9" unicode="&#x647;" horiz-adv-x="1544" arabic-form="isolated" 
d="M854 1145h211q154 0 234.5 -80.5t80.5 -230.5v-498q0 -336 -331 -336h-730q-125 0 -213 88q-8 6 -2 12l9 9q6 6 12 -3q79 -79 194 -79h175l-107 450q0 146 83.5 228.5t229.5 82.5h39q145 0 218 -80t73 -231v-141q0 -239 -178 -309h197q152 0 229.5 78.5t77.5 230.5v498
q0 284 -291 284h-211q-115 0 -195 -80q-8 -6 -12 -2l-8 8q-4 4 2 13q88 88 213 88zM414 477l106 -450h199q136 0 211.5 81.5t75.5 227.5v141q0 285 -267 285h-39q-134 0 -210 -77t-76 -208z" />
    <glyph glyph-name="uniFEEA" unicode="&#x647;" horiz-adv-x="1069" arabic-form="final" 
d="M1063 27h6q10 0 10 -11v-6q0 -10 -10 -10h-6q-256 0 -283 256q-62 -197 -286 -197h-9q-147 0 -229 88.5t-82 247.5v205q0 148 81.5 229.5t229.5 81.5h9q220 0 284 -174v207q0 10 8 10h11q8 0 8 -10v-629q0 -288 258 -288zM485 86h9q135 0 209.5 80.5t74.5 228.5v205
q0 135 -74.5 210t-209.5 75h-9q-133 0 -208.5 -75.5t-75.5 -209.5v-205q0 -146 75 -227.5t209 -81.5z" />
    <glyph glyph-name="uniFEEB" unicode="&#x647;" horiz-adv-x="1302" arabic-form="initial" 
d="M612 1145h211q149 0 232.5 -81.5t83.5 -229.5v-498q0 -336 -332 -336h-807q-10 0 -10 10v6q0 11 10 11h252l-107 450q0 147 83 229t231 82h39q293 0 293 -311v-141q0 -239 -181 -309h197q305 0 305 309v498q0 134 -76.5 209t-212.5 75h-211q-114 0 -194 -80q-8 -6 -12 -2
l-9 8q-4 4 2 13q88 88 213 88zM172 477l107 -450h198q136 0 211.5 81.5t75.5 227.5v141q0 285 -266 285h-39q-135 0 -211 -75.5t-76 -209.5z" />
    <glyph glyph-name="uniFEEC" unicode="&#x647;" horiz-adv-x="1028" arabic-form="medial" 
d="M709 27h319q10 0 10 -11v-6q0 -10 -10 -10h-309l141 -414q4 -10 0 -14l-10 -10q-4 -4 -10 -4h-328q-313 0 -313 333v109h-199q-10 0 -10 10v6q0 11 10 11h199v573q0 152 81.5 234t229.5 77l59 -2q148 -4 230 -86t82 -225v-264q0 -235 -172 -305v-2zM225 600v-573h344
q136 0 210.5 80.5t74.5 226.5v264q0 129 -76 204.5t-209 80.5l-59 2q-133 4 -209 -72t-76 -213zM494 -416h340l-146 416h-463v-109q0 -146 70 -226.5t199 -80.5z" />
    <glyph glyph-name="uniFEEE" unicode="&#x648;" horiz-adv-x="1009" arabic-form="final" 
d="M805 27h205q10 0 10 -11v-6q0 -10 -10 -10h-205v-131q0 -147 -88.5 -229t-247.5 -82h-78q-133 0 -213 80q-5 5 -2 12l8 8q4 7 13 -2q72 -72 194 -72h78q147 0 228 75t81 210v131h-293q-147 0 -229 88.5t-82 247.5v264q0 148 81.5 229.5t229.5 81.5h9q148 0 229.5 -81.5
t81.5 -229.5v-573zM201 600v-264q0 -146 75 -227.5t209 -81.5h293v573q0 134 -75.5 209.5t-208.5 75.5h-9q-133 0 -208.5 -75.5t-75.5 -209.5z" />
    <glyph glyph-name="uniFEF0" unicode="&#x649;" horiz-adv-x="1951" arabic-form="final" 
d="M1704 27h248q10 0 10 -11v-6q0 -10 -10 -10h-264q-11 0 -11 10v854h-291q-137 0 -213.5 -80.5t-76.5 -226.5v-704q0 -136 -89 -212.5t-247 -76.5h-207q-179 0 -279 102.5t-100 288.5q0 205 131 379q5 7 14 4l7 -4q8 -4 0 -15q-125 -186 -125 -364q0 -172 93 -268.5
t259 -96.5h207q146 0 227.5 70t81.5 193v704q0 158 84 246t233 88h308q10 0 10 -10v-854z" />
    <glyph glyph-name="uniFEF2" unicode="&#x64a;" horiz-adv-x="1951" arabic-form="final" 
d="M1704 27h248q10 0 10 -11v-6q0 -10 -10 -10h-264q-11 0 -11 10v854h-291q-137 0 -213.5 -80.5t-76.5 -226.5v-704q0 -136 -89 -212.5t-247 -76.5h-207q-179 0 -279 102.5t-100 288.5q0 205 131 379q5 7 14 4l7 -4q8 -4 0 -15q-125 -186 -125 -364q0 -172 93 -268.5
t259 -96.5h207q146 0 227.5 70t81.5 193v704q0 158 84 246t233 88h308q10 0 10 -10v-854zM508 -647h16q11 0 11 -10v-101q0 -10 -11 -10h-16q-10 0 -10 10v101q0 10 10 10zM745 -647h17q10 0 10 -10v-101q0 -10 -10 -10h-17q-10 0 -10 10v101q0 10 10 10z" />
    <glyph glyph-name="uniFEF3" unicode="&#x64a;" horiz-adv-x="595" arabic-form="initial" 
d="M106 0h-106q-10 0 -10 10v6q0 11 10 11h106q137 0 203 58.5t66 182.5v613q0 10 8 10h10q8 0 8 -10v-613q0 -139 -71 -203.5t-224 -64.5zM94 -326h-16q-10 0 -10 11v100q0 10 10 10h16q10 0 10 -10v-100q0 -11 -10 -11zM332 -326h-17q-10 0 -10 11v100q0 10 10 10h17
q10 0 10 -10v-100q0 -11 -10 -11z" />
    <glyph glyph-name="uniFEF4" unicode="&#x64a;" horiz-adv-x="690" arabic-form="medial" 
d="M662 27h28q10 0 10 -11v-6q0 -10 -10 -10h-28q-122 0 -185 40t-86 134q-43 -174 -285 -174h-106q-10 0 -10 10v6q0 11 10 11h106q137 0 203 58.5t66 182.5v613q0 10 8 10h10q8 0 8 -10v-551q0 -168 57.5 -235.5t203.5 -67.5zM260 -205h16q11 0 11 -10v-100q0 -11 -11 -11
h-16q-10 0 -10 11v100q0 10 10 10zM498 -205h16q10 0 10 -10v-100q0 -11 -10 -11h-16q-11 0 -11 11v100q0 10 11 10z" />
    <glyph glyph-name=".notdef" horiz-adv-x="0" 
 />
    <glyph glyph-name=".null" horiz-adv-x="0" 
 />
    <glyph glyph-name="nonmarkingreturn" horiz-adv-x="681" 
 />
    <glyph glyph-name="CR" unicode="&#xd;" horiz-adv-x="0" 
 />
    <glyph glyph-name="space" unicode=" " horiz-adv-x="573" 
 />
    <glyph glyph-name="exclam" unicode="!" 
d="M541 412h-6q-11 0 -11 10v940q0 10 11 10h6q10 0 10 -10v-940q0 -10 -10 -10zM549 0h-25q-10 0 -10 10v115q0 10 10 10h25q10 0 10 -10v-115q0 -10 -10 -10z" />
    <glyph glyph-name="quotedbl" unicode="&#x22;" 
d="M332 1071h-6q-11 0 -11 10v424q0 11 11 11h6q10 0 10 -11v-424q0 -10 -10 -10zM754 1071h-6q-11 0 -11 10v424q0 11 11 11h6q10 0 10 -11v-424q0 -10 -10 -10z" />
    <glyph glyph-name="numbersign" unicode="#" 
d="M838 918h141q10 0 10 -11v-6q0 -10 -10 -10h-148l-94 -412h156q10 0 10 -10v-6q0 -10 -10 -10h-162l-102 -443q-3 -10 -11 -10h-12q-7 0 -4 12l103 441h-443l-102 -443q-3 -10 -10 -10h-13q-7 0 -4 12l103 441h-142q-10 0 -10 10v6q0 10 10 10h148l94 412h-156
q-10 0 -10 10v6q0 11 10 11h162l102 444q3 10 11 10h10q9 0 6 -10l-102 -444h442l102 444q3 10 11 10h10q9 0 6 -10zM268 479h443l94 412h-443z" />
    <glyph glyph-name="dollar" unicode="$" 
d="M913 334q0 -164 -91 -256.5t-255 -97.5v-175q0 -10 -10 -10h-8q-10 0 -10 10v175q-115 1 -200 46.5t-163 139.5q-6 9 2 14l8 6q10 3 15 -4q140 -174 352 -174q156 0 244 86.5t88 239.5q0 244 -258 321l-164 50q-277 80 -277 329q0 164 93 258.5t260 98.5v174q0 10 10 10
h8q10 0 10 -10v-174q118 -3 303 -105q11 -9 4 -16l-4 -6q-6 -6 -16 0q-180 98 -299 98q-160 0 -250 -86.5t-90 -241.5q0 -224 258 -301l162 -49q278 -82 278 -350z" />
    <glyph glyph-name="percent" unicode="%" 
d="M387 780q-47 -47 -125 -47q-79 0 -123 47q-45 45 -45 131v293q0 84 44 130t124 46t124 -46t44 -130v-293q0 -85 -43 -131zM160 801q37 -38 102.5 -38t102.5 38q36 39 36 110v293q0 69 -36.5 108.5t-102.5 39.5t-102.5 -39.5t-36.5 -108.5v-293q0 -70 37 -110zM184 86
l-8 6q-5 3 -2 12l703 1176q6 9 14 4l6 -4q6 -3 2 -14l-702 -1176q-5 -8 -13 -4zM936 39q-47 -47 -125 -47q-79 0 -123 47q-45 45 -45 131v293q0 84 44 130t124 46t124 -46t44 -130v-293q0 -85 -43 -131zM709 59q37 -38 102 -38t102 38q37 40 37 111v293q0 69 -36.5 108
t-102.5 39t-102.5 -39t-36.5 -108v-293q0 -71 37 -111z" />
    <glyph glyph-name="ampersand" unicode="&#x26;" 
d="M819 223l152 -211q9 -12 -6 -12h-13q-7 0 -14 10l-135 189q-72 -99 -174.5 -159t-200.5 -60q-155 0 -249.5 87t-94.5 228q0 221 217 371l109 77q-103 142 -144 220q-41 77 -41 159q0 116 75.5 192.5t188.5 76.5q115 0 180.5 -69.5t65.5 -180.5q0 -196 -213 -353l-73 -53
l354 -489q107 174 137 467q0 10 10 10h8q11 0 11 -10q-35 -305 -150 -490zM254 1128q0 -82 39 -153q50 -95 139 -215l72 51q203 144 203 319q0 106 -56 169t-157 63q-100 0 -170 -67.5t-70 -166.5zM426 8q98 0 196 58t164 155l-358 500l-111 -80q-204 -143 -204 -344
q0 -130 86 -209.5t227 -79.5z" />
    <glyph glyph-name="quotesingle" unicode="'" 
d="M541 1071h-6q-11 0 -11 10v424q0 11 11 11h6q10 0 10 -11v-424q0 -10 -10 -10z" />
    <glyph glyph-name="parenleft" unicode="(" 
d="M807 -156h-70q-152 0 -223.5 65t-71.5 204v1134q0 139 71.5 204t223.5 65h70q10 0 10 -11v-6q0 -10 -10 -10h-70q-142 0 -205 -57t-63 -185v-1134q0 -128 63 -185t205 -57h70q10 0 10 -10v-6q0 -11 -10 -11z" />
    <glyph glyph-name="parenright" unicode=")" 
d="M338 -156h-70q-10 0 -10 11v6q0 10 10 10h70q142 0 205 57t63 185v1134q0 128 -63 185t-205 57h-70q-10 0 -10 10v6q0 11 10 11h70q152 0 223.5 -65t71.5 -204v-1134q0 -139 -71.5 -204t-223.5 -65z" />
    <glyph glyph-name="asterisk" unicode="*" 
d="M379 852l-6 4q-8 5 -2 14l139 211l-219 80q-11 4 -8 13l2 6q3 9 14 6l221 -80v258q0 10 10 10h7q10 0 10 -10v-260l225 84q9 3 12 -4l2 -4q7 -14 -6 -17l-219 -82l137 -211q6 -9 -2 -14l-6 -4q-9 -3 -14 4l-139 215l-144 -215q-5 -7 -14 -4z" />
    <glyph glyph-name="plus" unicode="+" 
d="M551 563h315q11 0 11 -10v-6q0 -10 -11 -10h-315v-326q0 -10 -10 -10h-6q-11 0 -11 10v326h-315q-10 0 -10 10v6q0 10 10 10h315v326q0 10 11 10h6q10 0 10 -10v-326z" />
    <glyph glyph-name="comma" unicode="," 
d="M504 -213h-8q-10 0 -7 12l52 201h-11q-10 0 -10 10v115q0 10 10 10h25q10 0 10 -10v-115q0 -16 -2 -22l-47 -189q-3 -12 -12 -12z" />
    <glyph glyph-name="hyphen" unicode="-" 
d="M776 537h-481q-10 0 -10 10v6q0 10 10 10h481q10 0 10 -10v-6q0 -10 -10 -10z" />
    <glyph glyph-name="period" unicode="." 
d="M547 0h-25q-10 0 -10 10v115q0 10 10 10h25q10 0 10 -10v-115q0 -10 -10 -10z" />
    <glyph glyph-name="slash" unicode="/" 
d="M289 0h-13q-7 0 -4 12l504 1350q3 10 10 10h11q9 0 6 -10l-504 -1352q-3 -10 -10 -10z" />
    <glyph glyph-name="zero" unicode="0" 
d="M786 72q-89 -92 -249 -92q-161 0 -250 92q-90 93 -90 254v718q0 162 90.5 254.5t249.5 92.5t249.5 -92.5t90.5 -254.5v-718q0 -160 -91 -254zM307 92q84 -84 230 -84q145 0 229 84q82 82 82 234v718q0 150 -82 234t-229 84t-229.5 -84t-82.5 -234v-718q0 -152 82 -234z
" />
    <glyph glyph-name="one" unicode="1" 
d="M598 27h338q10 0 10 -11v-6q0 -10 -10 -10h-721q-10 0 -10 10v6q0 11 10 11h354v1300l-256 -250q-6 -6 -6 2v29q0 4 6 10l254 248q6 6 13 6h8q10 0 10 -10v-1335z" />
    <glyph glyph-name="two" unicode="2" 
d="M236 27h632q11 0 11 -11v-6q0 -10 -11 -10h-659q-10 0 -10 10v6q0 9 4 13q371 420 512 633q137 204 137 376q0 146 -86 235t-227 89q-90 0 -157 -29t-144 -106q-9 -6 -13 -2l-8 8q-8 8 0 14q81 81 152.5 112.5t169.5 31.5q154 0 248 -97.5t94 -255.5q0 -166 -133 -376
q-125 -201 -512 -635z" />
    <glyph glyph-name="three" unicode="3" 
d="M616 694q230 -49 230 -358q0 -167 -88.5 -261.5t-243.5 -94.5q-179 0 -315 145q-6 8 0 14l8 6q6 6 12 -2q126 -135 295 -135q143 0 223 87.5t80 242.5q0 344 -291 344h-61q-10 0 -10 8v8q0 11 10 11h61q291 0 291 323q0 158 -79 245t-220 85q-83 0 -148.5 -29
t-142.5 -106q-5 -5 -12 -2l-8 8q-6 8 0 14q79 79 150.5 111.5t160.5 32.5q155 1 241.5 -93t86.5 -264q0 -291 -230 -340z" />
    <glyph glyph-name="four" unicode="4" 
d="M760 455h114q11 0 11 -11v-6q0 -10 -11 -10h-114v-418q0 -10 -10 -10h-9q-10 0 -10 10v418h-579q-11 0 -11 10v6q0 7 9 19l579 903q3 6 12 6h9q10 0 10 -10v-907zM731 1319l-555 -864h555v864z" />
    <glyph glyph-name="five" unicode="5" 
d="M553 846q319 0 319 -346v-176q0 -162 -87 -253t-242 -91q-184 0 -297 143q-6 8 0 14l10 8q6 6 12 -2q108 -135 275 -135q141 0 221 84.5t80 233.5v172q0 319 -289 319q-171 0 -279 -135q-3 -6 -10 -6h-8q-10 0 -10 10v676q0 10 10 10h557q10 0 10 -10v-6q0 -10 -10 -10
h-539v-625q107 125 277 125z" />
    <glyph glyph-name="six" unicode="6" 
d="M557 836q150 0 235 -91.5t85 -255.5v-163q0 -164 -85 -255t-235 -91t-234.5 91t-84.5 255l2 718q0 162 84 254.5t233 92.5q93 0 161 -32.5t128 -115.5q6 -8 0 -14l-8 -6q-7 -7 -13 2q-61 80 -119.5 108.5t-148.5 28.5q-137 0 -213 -84t-76 -236l-2 -393q64 187 291 187z
M848 326v163q0 149 -77 233.5t-214 84.5q-279 0 -291 -291v-190q0 -149 77 -233.5t214 -84.5t214 84.5t77 233.5z" />
    <glyph glyph-name="seven" unicode="7" 
d="M195 1372h696q10 0 10 -10v-6q0 -6 -2 -10l-510 -1336q-3 -10 -12 -10h-12q-10 0 -7 12l510 1334h-673q-11 0 -11 10v6q0 10 11 10z" />
    <glyph glyph-name="eight" unicode="8" 
d="M614 692q119 -29 189.5 -126.5t70.5 -237.5q0 -155 -97 -251.5t-251 -96.5q-146 0 -236.5 96.5t-90.5 251.5q0 140 66 237t177 127q-106 29 -168.5 122t-62.5 226q0 158 87 254.5t228 96.5q150 0 243 -96.5t93 -254.5q0 -132 -67 -225t-181 -123zM240 1040
q0 -148 79.5 -240.5t206.5 -92.5q136 0 222 92.5t86 240.5q0 142 -86.5 232t-221.5 90q-127 0 -206.5 -89.5t-79.5 -232.5zM526 8q141 0 230.5 89.5t89.5 230.5q0 157 -89 253.5t-231 96.5q-132 0 -215.5 -96.5t-83.5 -253.5q0 -141 84 -230.5t215 -89.5z" />
    <glyph glyph-name="nine" unicode="9" 
d="M283 1300q85 91 233 91t236 -91q84 -93 84 -256l-2 -720q0 -162 -84.5 -254.5t-233.5 -92.5q-93 0 -161 32.5t-128 115.5q-7 11 0 14l9 6q7 3 12 -2q61 -80 119.5 -108.5t148.5 -28.5q137 0 213 84t76 236l2 395q-64 -186 -291 -186q-150 0 -234.5 91t-84.5 255v163
q0 164 86 256zM516 563q279 0 291 291v190q0 149 -77 233.5t-214 84.5t-214 -84.5t-77 -233.5v-163q0 -149 77 -233.5t214 -84.5z" />
    <glyph glyph-name="colon" unicode=":" 
d="M547 758h-25q-10 0 -10 10v115q0 10 10 10h25q10 0 10 -10v-115q0 -10 -10 -10zM547 0h-25q-10 0 -10 10v115q0 10 10 10h25q10 0 10 -10v-115q0 -10 -10 -10z" />
    <glyph glyph-name="semicolon" unicode=";" 
d="M547 758h-25q-10 0 -10 10v115q0 10 10 10h25q10 0 10 -10v-115q0 -10 -10 -10zM504 -213h-8q-10 0 -7 12l52 201h-11q-10 0 -10 10v115q0 10 10 10h25q10 0 10 -10v-115q0 -16 -2 -22l-47 -189q-3 -12 -12 -12z" />
    <glyph glyph-name="less" unicode="&#x3c;" 
d="M887 6l-664 483q-8 5 -8 9v4q0 3 8 8l664 483q12 9 12 -4v-10q0 -9 -8 -14l-633 -467l633 -461q8 -5 8 -12v-15q0 -13 -12 -4z" />
    <glyph glyph-name="equal" unicode="=" 
d="M866 715h-657q-10 0 -10 10v6q0 10 10 10h657q11 0 11 -10v-6q0 -10 -11 -10zM866 360h-657q-10 0 -10 11v6q0 10 10 10h657q11 0 11 -10v-6q0 -11 -11 -11z" />
    <glyph glyph-name="greater" unicode="&#x3e;" 
d="M891 489l-664 -483q-12 -9 -12 4v15q0 7 8 12l633 461l-633 467q-8 5 -8 14v10q0 13 12 4l664 -483q8 -5 8 -8v-4q0 -4 -8 -9z" />
    <glyph glyph-name="question" unicode="?" 
d="M535 412h-9q-10 0 -10 10v24q0 83 55 150l164 203q92 112 92 260q0 134 -98 219q-104 84 -233 84q-164 0 -283 -158q-6 -10 -10 -6l-10 8q-10 3 -3 13q126 172 306 172q145 0 254 -95q106 -93 106 -237q0 -156 -98 -275l-164 -202q-49 -58 -49 -136v-24q0 -10 -10 -10z
M543 0h-25q-10 0 -10 10v115q0 10 10 10h25q10 0 10 -10v-115q0 -10 -10 -10z" />
    <glyph glyph-name="at" unicode="@" 
d="M537 -379q-215 0 -335 102t-120 285v955q0 201 120 314.5t335 113.5t334.5 -113.5t119.5 -314.5v-742q0 -239 -198 -239q-65 0 -112 31t-48 85q-60 -118 -211 -118q-106 0 -151 69.5t-19 192.5l113 524q53 252 260 252q155 0 170 -139l22 100q3 10 12 10h7q11 0 8 -10
l-180 -850q-11 -54 29 -86.5t100 -32.5q170 0 170 211v742q0 189 -112.5 295t-313.5 106t-313.5 -106t-112.5 -295v-955q0 -170 112.5 -264t313.5 -94q119 0 196.5 34.5t155.5 122.5q6 6 12 3l8 -7q11 -3 0 -14q-85 -94 -166.5 -131t-205.5 -37zM428 8q97 0 150.5 54
t78.5 174l109 509q18 120 -21 182t-127 62q-177 0 -223 -223l-112 -524q-49 -234 145 -234z" />
    <glyph glyph-name="A" unicode="A" 
d="M547 1364l430 -1352q3 -12 -6 -12h-10q-10 0 -13 10l-147 465h-529l-145 -465q-3 -10 -12 -10h-11q-9 0 -6 12l428 1352q3 8 9 8h4q5 0 8 -8zM793 502l-256 809l-256 -809h512z" />
    <glyph glyph-name="B" unicode="B" 
d="M614 696q146 -25 223.5 -114t77.5 -230q0 -166 -106.5 -259t-296.5 -93h-287q-10 0 -10 10v1352q0 10 10 10h287q177 0 275 -94t98 -262q0 -129 -71 -212t-200 -108zM856 1016q0 155 -91.5 242.5t-252.5 87.5h-268v-637h262q164 0 257 82t93 225zM244 27h268
q177 0 276 85.5t99 239.5q0 155 -100.5 242.5t-280.5 87.5h-262v-655z" />
    <glyph glyph-name="C" unicode="C" 
d="M561 -20q-166 0 -259 102t-93 285v637q0 183 93 285t259 102q120 0 200.5 -47t151.5 -152q6 -9 -2 -12l-12 -9q-3 -3 -10 7q-68 100 -143.5 143t-184.5 43q-152 0 -237.5 -95t-85.5 -265v-637q0 -170 85.5 -265.5t237.5 -95.5q108 0 184 43.5t144 143.5q6 10 10 6l12 -9
q8 -3 2 -12q-71 -105 -151 -151.5t-201 -46.5z" />
    <glyph glyph-name="D" unicode="D" 
d="M205 1372h344q352 0 352 -401v-615q0 -168 -91.5 -262t-260.5 -94h-344q-10 0 -10 10v1352q0 10 10 10zM872 356v615q0 375 -323 375h-326v-1319h326q159 0 241 85t82 244z" />
    <glyph glyph-name="E" unicode="E" 
d="M881 1346h-594v-639h534q10 0 10 -11v-6q0 -10 -10 -10h-534v-653h594q10 0 10 -11v-6q0 -10 -10 -10h-613q-10 0 -10 10v1352q0 10 10 10h613q10 0 10 -10v-6q0 -10 -10 -10z" />
    <glyph glyph-name="F" unicode="F" 
d="M307 1372h611q10 0 10 -10v-6q0 -10 -10 -10h-592v-637h532q10 0 10 -11v-6q0 -10 -10 -10h-532v-672q0 -10 -11 -10h-8q-10 0 -10 10v1352q0 10 10 10z" />
    <glyph glyph-name="G" unicode="G" 
d="M561 1364q-152 0 -237.5 -95t-85.5 -265v-637q0 -170 85.5 -265.5t237.5 -95.5t238 95.5t86 265.5v313h-328q-10 0 -10 10v6q0 11 10 11h346q10 0 10 -11v-329q0 -183 -93 -285t-259 -102t-259 102t-93 285v637q0 183 93 285t259 102q120 0 200.5 -47t151.5 -152
q6 -9 -2 -12l-12 -9q-3 -3 -10 7q-68 100 -143.5 143t-184.5 43z" />
    <glyph glyph-name="H" unicode="H" 
d="M870 1372h9q10 0 10 -10v-1352q0 -10 -10 -10h-9q-10 0 -10 10v672h-647v-672q0 -10 -10 -10h-8q-11 0 -11 10v1352q0 10 11 10h8q10 0 10 -10v-653h647v653q0 10 10 10z" />
    <glyph glyph-name="I" unicode="I" 
d="M872 1346h-319v-1319h319q11 0 11 -11v-6q0 -10 -11 -10h-671q-11 0 -11 10v6q0 11 11 11h323v1319h-323q-11 0 -11 10v6q0 10 11 10h671q11 0 11 -10v-6q0 -10 -11 -10z" />
    <glyph glyph-name="J" unicode="J" 
d="M248 1372h583q11 0 11 -10v-995q0 -183 -93.5 -285t-259.5 -102q-121 0 -201 46.5t-151 151.5q-6 9 2 12l13 9q4 4 10 -6q68 -100 143.5 -143.5t183.5 -43.5q152 0 238 95.5t86 265.5v979h-565q-10 0 -10 10v6q0 10 10 10z" />
    <glyph glyph-name="K" unicode="K" 
d="M502 782l473 -770q9 -12 -4 -12h-13q-9 0 -14 8l-459 752l-256 -342v-408q0 -10 -10 -10h-8q-10 0 -10 10v1352q0 10 10 10h8q10 0 10 -10v-899l672 901q5 8 14 8h11q15 0 6 -12z" />
    <glyph glyph-name="L" unicode="L" 
d="M295 27h612q11 0 11 -11v-6q0 -10 -11 -10h-631q-10 0 -10 10v1352q0 10 10 10h9q10 0 10 -10v-1335z" />
    <glyph glyph-name="M" unicode="M" 
d="M870 1372h9q10 0 10 -10v-1352q0 -10 -10 -10h-9q-10 0 -10 10v1284l-303 -792q-3 -10 -14 -10h-13q-11 0 -14 10l-303 792v-1284q0 -10 -10 -10h-8q-11 0 -11 10v1352q0 10 11 10h8q7 0 10 -6l324 -840l323 840q3 6 10 6z" />
    <glyph glyph-name="N" unicode="N" 
d="M872 1372h9q10 0 10 -10v-1352q0 -10 -10 -10h-9q-6 0 -10 4l-649 1301v-1295q0 -10 -10 -10h-8q-11 0 -11 10v1352q0 10 11 10h8h2q2 0 8 -6l649 -1300v1296q0 10 10 10z" />
    <glyph glyph-name="O" unicode="O" 
d="M797 82q-95 -102 -260 -102q-167 0 -258 102q-95 103 -95 285v637q0 183 93.5 285t259.5 102t259 -102t93 -285v-637q0 -182 -92 -285zM299 102q87 -96 238 -96q150 0 237 96q86 95 86 265v637q0 170 -85.5 265t-237.5 95t-238 -95t-86 -265v-637q0 -170 86 -265z" />
    <glyph glyph-name="P" unicode="P" 
d="M260 1372h295q174 0 273.5 -98.5t99.5 -274.5t-99.5 -274t-273.5 -98h-276v-617q0 -10 -11 -10h-8q-10 0 -10 10v1352q0 10 10 10zM279 653h276q162 0 253 91t91 255t-91 255.5t-253 91.5h-276v-693z" />
    <glyph glyph-name="Q" unicode="Q" 
d="M803 90l121 -133q6 -6 0 -14l-6 -6q-6 -7 -15 2l-121 131q-90 -90 -245 -90q-166 0 -259.5 102t-93.5 285v637q0 183 93.5 285t259.5 102t259 -102t93 -285v-637q0 -174 -86 -277zM537 6q143 0 227 84l-166 180q-6 9 0 15l6 6q6 8 14 0l164 -180q78 96 78 256v637
q0 170 -85.5 265t-237.5 95t-238 -95t-86 -265v-637q0 -170 86 -265.5t238 -95.5z" />
    <glyph glyph-name="R" unicode="R" 
d="M592 664l336 -652q6 -12 -6 -12h-9q-13 0 -16 10l-332 652q-15 -3 -43 -3h-278v-649q0 -10 -11 -10h-8q-10 0 -10 10v1352q0 10 10 10h307q173 0 273 -92t100 -252q0 -153 -82.5 -248.5t-230.5 -115.5zM244 1346v-660h278q165 0 260 91.5t95 250.5q0 149 -92 233.5
t-253 84.5h-288z" />
    <glyph glyph-name="S" unicode="S" 
d="M526 -20q-136 0 -233 51t-172 162q-6 9 2 14l8 6q9 3 14 -4q78 -109 167.5 -155t213.5 -46q170 0 265.5 86t95.5 240q0 242 -260 321l-217 66q-263 77 -263 319q0 158 104.5 254.5t276.5 96.5q80 0 150 -21q60 -18 188 -90q11 -9 4 -16l-4 -7q-6 -6 -16 0
q-178 105 -320 105q-160 0 -257 -88t-97 -234q0 -213 244 -290l215 -66q280 -86 280 -350q0 -167 -103 -260.5t-286 -93.5z" />
    <glyph glyph-name="T" unicode="T" 
d="M113 1372h848q10 0 10 -10v-6q0 -10 -10 -10h-408v-1336q0 -10 -10 -10h-8q-11 0 -11 10v1336h-411q-11 0 -11 10v6q0 10 11 10z" />
    <glyph glyph-name="U" unicode="U" 
d="M797 82q-95 -102 -260 -102q-167 0 -258 102q-95 103 -95 285v995q0 10 11 10h8q10 0 10 -10v-995q0 -170 86 -265.5t238 -95.5t237.5 95.5t85.5 265.5v995q0 10 10 10h9q10 0 10 -10v-995q0 -182 -92 -285z" />
    <glyph glyph-name="V" unicode="V" 
d="M541 0h-9q-5 0 -8 8l-426 1352q-3 12 6 12h11q9 0 12 -10l410 -1305l409 1305q3 10 12 10h11q9 0 6 -12l-426 -1352q-3 -8 -8 -8z" />
    <glyph glyph-name="W" unicode="W" 
d="M295 0h-6q-7 0 -10 8l-181 1350q-3 14 6 14h11q9 0 12 -10l168 -1292l223 972q4 11 14 11h9q10 0 14 -11l225 -972l168 1292q3 10 10 10h11q11 0 8 -12l-180 -1350q-3 -10 -11 -10h-6q-9 0 -12 10l-231 994l-230 -994q-3 -10 -12 -10z" />
    <glyph glyph-name="X" unicode="X" 
d="M553 711l408 -701q7 -10 -7 -10h-10q-9 0 -14 8l-393 678l-394 -678q-5 -8 -14 -8h-10q-13 0 -6 10l409 701l-381 649q-6 12 6 12h11q7 0 12 -8l367 -633l366 633q5 8 12 8h11q12 0 6 -12z" />
    <glyph glyph-name="Y" unicode="Y" 
d="M938 1372h12q12 0 6 -12l-405 -752v-598q0 -10 -10 -10h-9q-10 0 -10 10v598l-403 752q-6 12 6 12h12q6 0 13 -10l387 -725l389 725q3 10 12 10z" />
    <glyph glyph-name="Z" unicode="Z" 
d="M172 27h750q10 0 10 -11v-4q0 -12 -10 -12h-772q-11 0 -11 10v2v4v2q0 5 2 7l748 1321h-731q-11 0 -11 10v6q0 10 11 10h755q11 0 11 -10v-6v-2q0 -4 -2 -6z" />
    <glyph glyph-name="bracketleft" unicode="[" 
d="M807 1489h-338v-1618h338q10 0 10 -10v-6q0 -11 -10 -11h-354q-11 0 -11 11v1650q0 11 11 11h354q10 0 10 -11v-6q0 -10 -10 -10z" />
    <glyph glyph-name="backslash" unicode="\" 
d="M797 0h-13q-7 0 -10 10l-504 1352q-3 10 6 10h11q7 0 10 -10l504 -1350q3 -12 -4 -12z" />
    <glyph glyph-name="bracketright" unicode="]" 
d="M266 1516h355q10 0 10 -11v-1650q0 -11 -10 -11h-355q-10 0 -10 11v6q0 10 10 10h338v1618h-338q-10 0 -10 10v6q0 11 10 11z" />
    <glyph glyph-name="asciicircum" unicode="^" 
d="M180 723h-6q-14 0 -8 12l360 772q3 9 9 9h4q5 0 8 -9l360 -772q3 -12 -6 -12h-12q-7 0 -10 8l-342 733l-342 -733q-3 -8 -15 -8z" />
    <glyph glyph-name="underscore" unicode="_" 
d="M866 -195h-659q-10 0 -10 11v6q0 10 10 10h659q11 0 11 -10v-6q0 -11 -11 -11z" />
    <glyph glyph-name="a" unicode="a" 
d="M918 16h26q10 0 10 -10v-6q0 -10 -10 -10h-29q-57 0 -81.5 33.5t-24.5 111.5q-36 -71 -112.5 -113t-178.5 -42q-159 0 -249.5 92t-90.5 254v346q0 162 90.5 254t249.5 92q102 0 178.5 -42.5t112.5 -113.5v117q0 10 10 10h8q11 0 11 -10v-842q0 -66 18 -93.5t62 -27.5z
M518 8q127 0 209 69.5t82 166.5v510q0 97 -82 166t-209 69q-147 0 -229 -83.5t-82 -233.5v-346q0 -150 82 -234t229 -84z" />
    <glyph glyph-name="b" unicode="b" 
d="M537 1018q159 0 249.5 -92t90.5 -254v-346q0 -162 -90.5 -254t-249.5 -92q-102 0 -178.5 42t-112.5 113v-125q0 -10 -10 -10h-9q-10 0 -10 10v1495q0 11 10 11h9q10 0 10 -11v-643q36 71 112.5 113.5t178.5 42.5zM848 326v346q0 150 -82 233.5t-229 83.5q-127 0 -209 -69
t-82 -166v-510q0 -97 82 -166.5t209 -69.5q147 0 229 84t82 234z" />
    <glyph glyph-name="c" unicode="c" 
d="M573 -23q-149 0 -233 92.5t-84 254.5v348q0 164 84.5 255t234.5 91q90 0 154 -32t123 -114q6 -8 0 -14l-8 -6q-7 -4 -13 2q-60 76 -118 105.5t-140 29.5q-137 0 -212.5 -83.5t-75.5 -235.5v-344q0 -152 75.5 -236t212.5 -84q82 0 140 29.5t118 105.5q9 6 13 2l8 -6
q6 -6 0 -14q-59 -82 -124 -114t-155 -32z" />
    <glyph glyph-name="d" unicode="d" 
d="M838 1516h8q10 0 10 -11v-1495q0 -10 -10 -10h-8q-11 0 -11 10v125q-36 -71 -112 -113t-178 -42q-159 0 -249.5 92t-90.5 254v346q0 162 90.5 254t249.5 92q102 0 178 -42.5t112 -113.5v643q0 11 11 11zM537 8q127 0 208.5 69.5t81.5 166.5v510q0 97 -81.5 166t-208.5 69
q-148 0 -230 -84t-82 -233v-346q0 -150 82.5 -234t229.5 -84z" />
    <glyph glyph-name="e" unicode="e" 
d="M551 1018q152 0 236.5 -91t84.5 -255v-178q0 -11 -10 -11h-600v-157q0 -152 79 -236t220 -84q81 0 142 31.5t124 105.5q6 6 13 2l8 -6q10 -3 0 -14q-118 -148 -287 -148q-155 0 -241.5 91.5t-86.5 255.5v348q0 162 84.5 254t233.5 92zM262 670v-160h582v160
q0 152 -77 236.5t-216 84.5q-137 0 -213 -84.5t-76 -236.5z" />
    <glyph glyph-name="f" unicode="f" 
d="M1030 1389q8 -11 0 -15l-6 -4q-7 -3 -12 2q-108 135 -258 135q-137 0 -213 -83.5t-76 -235.5v-199h328q10 0 10 -10v-6q0 -10 -10 -10h-328v-936h436q10 0 10 -11v-6q0 -10 -10 -10h-684q-10 0 -10 10v6q0 11 10 11h219v936h-219q-10 0 -10 10v6q0 10 10 10h219v201
q0 162 84.5 254t233.5 92q165 0 276 -147z" />
    <glyph glyph-name="g" unicode="g" 
d="M831 989h9q10 0 10 -10v-1063q0 -169 -85.5 -257.5t-244.5 -88.5q-99 0 -169 30.5t-138 116.5q-11 11 0 15l6 4q7 3 12 -2q73 -88 131 -111q58 -24 158 -24q301 0 301 319v217q-36 -71 -112.5 -113t-178.5 -42q-159 0 -249.5 92t-90.5 254v346q0 162 90.5 254t249.5 92
q102 0 178.5 -42.5t112.5 -113.5v117q0 10 10 10zM530 8q127 0 209 69.5t82 166.5v510q0 97 -82 166t-209 69q-147 0 -229 -83.5t-82 -233.5v-346q0 -150 82 -234t229 -84z" />
    <glyph glyph-name="h" unicode="h" 
d="M537 1018q152 0 235.5 -91.5t83.5 -256.5v-660q0 -10 -10 -10h-8q-11 0 -11 10v660q0 149 -77 234t-213 85q-137 0 -214 -84t-77 -233v-662q0 -10 -10 -10h-9q-10 0 -10 10v1495q0 11 10 11h9q10 0 10 -11v-678q68 191 291 191z" />
    <glyph glyph-name="i" unicode="i" 
d="M561 1202h-10q-10 0 -10 10v138q0 10 10 10h10q10 0 10 -10v-138q0 -10 -10 -10zM567 27h391q11 0 11 -11v-6q0 -10 -11 -10h-806q-11 0 -11 10v6q0 11 11 11h387v936h-301q-11 0 -11 10v6q0 10 11 10h319q10 0 10 -10v-952z" />
    <glyph glyph-name="j" unicode="j" 
d="M655 1360h11q10 0 10 -10v-138q0 -10 -10 -10h-11q-10 0 -10 10v138q0 10 10 10zM195 989h469q10 0 10 -10v-1063q0 -346 -318 -346q-88 0 -152.5 32.5t-123.5 114.5q-8 11 0 15l8 6q7 3 12 -2q61 -77 118 -107t138 -30q289 0 289 319v1045h-450q-11 0 -11 10v6
q0 10 11 10z" />
    <glyph glyph-name="k" unicode="k" 
d="M565 621l373 -609q9 -12 -4 -12h-12q-10 0 -15 8l-362 590l-246 -266v-322q0 -10 -10 -10h-8q-11 0 -11 10v1495q0 11 11 11h8q10 0 10 -11v-1132l563 608q8 8 15 8h12q15 0 6 -12z" />
    <glyph glyph-name="l" unicode="l" 
d="M553 27h389q10 0 10 -11v-6q0 -10 -10 -10h-807q-10 0 -10 10v6q0 11 10 11h389v1462h-303q-10 0 -10 10v6q0 11 10 11h322q10 0 10 -11v-1478z" />
    <glyph glyph-name="m" unicode="m" 
d="M745 1018q94 0 147.5 -61.5t53.5 -170.5v-776q0 -10 -10 -10h-8q-10 0 -10 10v776q0 97 -45.5 150t-127.5 53q-86 0 -138 -55.5t-52 -147.5v-776q0 -10 -10 -10h-8q-11 0 -11 10v776q0 96 -47 149.5t-127 53.5q-86 0 -137 -55.5t-51 -147.5v-776q0 -10 -10 -10h-9
q-10 0 -10 10v969q0 10 10 10h9q10 0 10 -10v-76q56 115 188 115q152 0 193 -146q47 146 200 146z" />
    <glyph glyph-name="n" unicode="n" 
d="M537 1018q152 0 235.5 -91.5t83.5 -256.5v-660q0 -10 -10 -10h-8q-11 0 -11 10v660q0 149 -77 234t-213 85q-137 0 -214 -84t-77 -233v-662q0 -10 -10 -10h-9q-10 0 -10 10v969q0 10 10 10h9q10 0 10 -10v-152q68 191 291 191z" />
    <glyph glyph-name="o" unicode="o" 
d="M786 72q-89 -92 -249 -92q-161 0 -250 92q-90 93 -90 254v346q0 162 90.5 254t249.5 92t249.5 -92t90.5 -254v-346q0 -160 -91 -254zM307 92q84 -84 230 -84q145 0 229 84q82 82 82 234v346q0 150 -82 233.5t-229 83.5q-148 0 -230 -84t-82 -233v-346q0 -152 82 -234z
" />
    <glyph glyph-name="p" unicode="p" 
d="M537 1018q159 0 249.5 -92t90.5 -254v-346q0 -162 -90.5 -254t-249.5 -92q-102 0 -178.5 42t-112.5 113v-534q0 -11 -10 -11h-9q-10 0 -10 11v1378q0 10 10 10h9q10 0 10 -10v-117q36 71 112.5 113.5t178.5 42.5zM848 326v346q0 150 -82 233.5t-229 83.5q-127 0 -209 -69
t-82 -166v-510q0 -97 82 -166.5t209 -69.5q147 0 229 84t82 234z" />
    <glyph glyph-name="q" unicode="q" 
d="M838 989h8q10 0 10 -10v-1378q0 -11 -10 -11h-8q-11 0 -11 11v534q-36 -71 -112 -113t-178 -42q-159 0 -249.5 92t-90.5 254v346q0 162 90.5 254t249.5 92q102 0 178 -42.5t112 -113.5v117q0 10 11 10zM537 8q127 0 208.5 69.5t81.5 166.5v510q0 97 -81.5 166t-208.5 69
q-148 0 -230 -84t-82 -233v-346q0 -150 82.5 -234t229.5 -84z" />
    <glyph glyph-name="r" unicode="r" 
d="M739 989h154q10 0 10 -10v-6q0 -10 -10 -10h-154q-140 0 -214 -82t-74 -240v-614h407q10 0 10 -11v-6q0 -10 -10 -10h-684q-10 0 -10 10v6q0 11 10 11h248v936h-248q-10 0 -10 10v6q0 10 10 10h266q11 0 11 -10v-186q55 196 288 196z" />
    <glyph glyph-name="s" unicode="s" 
d="M563 -20q-188 0 -356 133q-8 8 -2 14l6 6q8 8 16 0q157 -127 338 -127q115 0 180.5 63.5t65.5 176.5q0 91 -49.5 146t-159.5 91l-149 47q-205 64 -205 236q0 119 73 185.5t203 66.5q156 0 287 -88q7 -5 4 -12l-8 -11q-3 -5 -12 -2q-128 84 -269 84q-119 0 -184.5 -58.5
t-65.5 -164.5q0 -149 187 -207l145 -45q119 -37 175.5 -101.5t56.5 -166.5q0 -125 -73.5 -195.5t-203.5 -70.5z" />
    <glyph glyph-name="t" unicode="t" 
d="M958 145l9 -6q7 -3 0 -14q-65 -83 -129 -115.5t-154 -32.5q-148 0 -229.5 87t-81.5 245v654h-213q-10 0 -10 10v6q0 10 10 10h213v373q0 10 10 10h8q10 0 10 -10v-373h420q10 0 10 -10v-6q0 -10 -10 -10h-420v-652q0 -143 75 -224t208 -81q86 0 143.5 30t118.5 107
q5 5 12 2z" />
    <glyph glyph-name="u" unicode="u" 
d="M829 989h9q10 0 10 -10v-969q0 -10 -10 -10h-9q-10 0 -10 10v156q-67 -186 -274 -186q-152 0 -236 91.5t-84 256.5v651q0 10 11 10h8q10 0 10 -10v-651q0 -153 76 -236.5t215 -83.5q131 0 202.5 83t71.5 235v653q0 10 10 10z" />
    <glyph glyph-name="v" unicode="v" 
d="M541 0h-9q-5 0 -8 8l-379 969q-3 12 7 12h10q9 0 12 -10l363 -928l362 928q3 10 12 10h11q9 0 6 -12l-379 -969q-3 -8 -8 -8z" />
    <glyph glyph-name="w" unicode="w" 
d="M281 0h-13q-5 0 -8 8l-143 969q-3 12 6 12h10q9 0 12 -10l134 -922l241 764q3 10 15 10h8q11 0 14 -10l238 -764l133 922q3 10 12 10h10q9 0 6 -12l-143 -969q-3 -8 -10 -8h-10q-10 0 -13 10l-241 783l-248 -783q-3 -10 -10 -10z" />
    <glyph glyph-name="x" unicode="x" 
d="M553 502l344 -492q7 -10 -6 -10h-10q-10 0 -15 8l-329 471l-330 -471q-5 -8 -14 -8h-11q-13 0 -6 10l346 490l-338 477q-9 12 6 12h15q5 0 10 -8l322 -461l321 461q5 8 10 8h15q15 0 6 -12z" />
    <glyph glyph-name="y" unicode="y" 
d="M911 989h11q9 0 6 -12l-432 -1102q-64 -168 -117 -227q-52 -58 -137 -58h-60q-10 0 -10 11v6q0 10 10 10h60q75 0 120 51q43 52 105 209l55 139l-377 961q-3 12 7 12h10q9 0 12 -10l361 -930l364 930q3 10 12 10z" />
    <glyph glyph-name="z" unicode="z" 
d="M231 27h633q10 0 10 -11v-6q0 -10 -10 -10h-657q-10 0 -10 10v2v4v2q0 5 2 7l626 938h-606q-10 0 -10 10v6q0 10 10 10h633q10 0 10 -10v-6v-2q0 -4 -2 -6z" />
    <glyph glyph-name="braceleft" unicode="{" 
d="M489 1247v-346q0 -110 -23 -159t-75 -60q52 -11 75 -61t23 -160v-346q0 -128 63.5 -185t205.5 -57h69q11 0 11 -10v-6q0 -11 -11 -11h-69q-152 0 -223.5 65t-71.5 204v346q0 125 -27.5 166t-113.5 41q-11 0 -11 10v6q0 10 11 10q86 0 113.5 41t27.5 166v346
q0 139 71.5 204t223.5 65h69q11 0 11 -11v-6q0 -10 -11 -10h-69q-142 0 -205.5 -57t-63.5 -185z" />
    <glyph glyph-name="bar" unicode="|" 
d="M543 -197h-8q-11 0 -11 11v1548q0 10 11 10h8q10 0 10 -10v-1548q0 -11 -10 -11z" />
    <glyph glyph-name="braceright" unicode="}" 
d="M752 694q10 0 10 -10v-6q0 -10 -10 -10q-86 0 -114 -41t-28 -166v-346q0 -139 -71.5 -204t-223.5 -65h-69q-10 0 -10 11v6q0 10 10 10h69q142 0 205.5 57t63.5 185v346q0 110 23 160t75 61q-52 11 -75 60t-23 159v346q0 128 -63.5 185t-205.5 57h-69q-10 0 -10 10v6
q0 11 10 11h69q152 0 223.5 -65t71.5 -204v-346q0 -125 28 -166t114 -41z" />
    <glyph glyph-name="asciitilde" unicode="~" 
d="M682 494q-61 0 -150 47q-86 45 -137 45q-99 0 -168 -84q-8 -8 -16 0l-4 4q-6 6 4 16q90 90 184 90q60 0 146 -45q89 -47 137 -47q88 0 164 82q8 8 14 2l6 -6q6 -6 -2 -14q-90 -90 -178 -90z" />
    <glyph glyph-name="exclamdown" unicode="&#xa1;" 
d="M524 989h25q10 0 10 -10v-115q0 -10 -10 -10h-25q-10 0 -10 10v115q0 10 10 10zM535 578h6q10 0 10 -11v-940q0 -10 -10 -10h-6q-11 0 -11 10v940q0 11 11 11z" />
    <glyph glyph-name="cent" unicode="&#xa2;" 
d="M844 143l8 -6q6 -6 0 -14q-104 -140 -260 -146v-172q0 -10 -10 -10h-9q-10 0 -10 10v172q-146 4 -226.5 95.5t-80.5 251.5v348q0 160 80.5 251t226.5 95v174q0 10 10 10h9q10 0 10 -10v-174q80 -2 140.5 -35t119.5 -111q6 -8 0 -14l-8 -6q-7 -4 -13 2q-60 76 -118 105.5
t-140 29.5q-137 0 -212.5 -83.5t-75.5 -235.5v-344q0 -152 75.5 -236t212.5 -84q82 0 140 29.5t118 105.5q9 6 13 2z" />
    <glyph glyph-name="sterling" unicode="&#xa3;" 
d="M270 27h656q10 0 10 -11v-6q0 -10 -10 -10h-746q-10 0 -10 10v6q0 11 10 11q80 0 102.5 39t22.5 165v441h-125q-10 0 -10 10v6q0 10 10 10h125v346q0 164 78.5 255.5t218.5 91.5q101 0 169.5 -32.5t129.5 -113.5q7 -11 0 -14l-8 -6q-7 -3 -12 2q-63 74 -126 104.5
t-155 30.5q-125 0 -195.5 -84t-70.5 -236v-344h510q10 0 10 -10v-6q0 -10 -10 -10h-510v-441q0 -177 -64 -204z" />
    <glyph glyph-name="currency" unicode="&#xa4;" 
d="M791 78l108 -174q7 -10 0 -13l-12 -8q-6 -3 -10 4l-105 172q-91 -79 -237 -79q-147 0 -234 75l-102 -168q-4 -8 -11 -4l-12 8q-6 3 0 13l107 170q-88 91 -88 252v346q0 158 84 248l-105 170q-6 9 0 12l12 8q7 4 11 -4l102 -166q90 78 236 78q151 0 239 -82l105 170
q4 7 10 4l12 -8q6 -3 0 -12l-106 -175q79 -88 79 -243v-346q0 -159 -83 -248zM305 92q84 -84 230 -84q145 0 229 84q82 82 82 234v346q0 150 -82 233.5t-229 83.5q-148 0 -230 -84t-82 -233v-346q0 -152 82 -234z" />
    <glyph glyph-name="yen" unicode="&#xa5;" 
d="M938 1372h12q12 0 6 -12l-395 -733h305q11 0 11 -11v-6q0 -10 -11 -10h-315v-254h315q11 0 11 -10v-6q0 -11 -11 -11h-315v-309q0 -10 -10 -10h-9q-10 0 -10 10v309h-313q-10 0 -10 11v6q0 10 10 10h313v254h-313q-10 0 -10 10v6q0 11 10 11h303l-393 733q-6 12 6 12h12
q6 0 13 -10l387 -725l389 725q3 10 12 10z" />
    <glyph glyph-name="brokenbar" unicode="&#xa6;" 
d="M541 709h-9q-10 0 -10 10v643q0 10 10 10h9q10 0 10 -10v-643q0 -10 -10 -10zM541 -197h-9q-10 0 -10 11v643q0 10 10 10h9q10 0 10 -10v-643q0 -11 -10 -11z" />
    <glyph glyph-name="section" unicode="&#xa7;" 
d="M657 203q181 -108 181 -309q0 -123 -82 -199t-215 -76q-185 0 -316 131q-8 8 -2 14l4 5q9 9 17 0q125 -125 299 -125q121 0 194.5 68.5t73.5 181.5q0 106 -63 191t-173 128l-165 63q-230 88 -230 285q0 98 60.5 163.5t171.5 88.5q-176 89 -176 281q0 133 87 215t224 82
q136 0 282 -88q9 -6 5 -13l-7 -8q-3 -5 -12 -2q-99 64 -201.5 79t-179 -13.5t-125 -95t-47.5 -156.5q0 -198 213 -281l162 -61q134 -51 195 -122t61 -177q0 -97 -65 -165t-171 -85zM420 301l162 -61l41 -17q106 11 174.5 74.5t68.5 155.5q0 184 -235 272l-166 63l-16 7
q-115 -17 -178.5 -79t-63.5 -155q0 -180 213 -260z" />
    <glyph glyph-name="copyright" unicode="&#xa9;" 
d="M866 86q-124 -106 -329 -106q-206 0 -330 106q-125 107 -125 281v637q0 173 125 280t330 107q204 0 329 -107t125 -280v-637q0 -174 -125 -281zM227 104q115 -100 310 -100q193 0 311 100q117 102 117 263v637q0 160 -117 262q-118 100 -311 100q-195 0 -310 -100
q-118 -100 -118 -262v-637q0 -163 118 -263zM535 238q-279 0 -279 346v204q0 347 279 347q141 0 253 -127q8 -11 0 -15l-6 -4q-7 -3 -12 2q-114 117 -238 117q-249 0 -249 -322v-200q0 -322 249 -322q72 0 126 25t112 92q5 5 12 2l6 -4q7 -3 0 -14q-103 -127 -253 -127z" />
    <glyph glyph-name="ordfeminine" unicode="&#xaa;" 
d="M836 602h20q6 0 6 -8v-4q0 -8 -6 -8h-22q-44 0 -63 26t-19 86q-59 -121 -224 -121q-123 0 -192.5 71t-69.5 196v266q0 125 69.5 195.5t192.5 70.5q163 0 224 -119v90q0 9 8 9h6q8 0 8 -9v-647q0 -52 13.5 -73t48.5 -21zM528 596q98 0 161 53.5t63 128.5v391q0 75 -63 129
t-161 54q-112 0 -175.5 -65t-63.5 -181v-266q0 -115 63 -179.5t176 -64.5z" />
    <glyph glyph-name="guillemotleft" unicode="&#xab;" 
d="M551 129l-348 348q-8 8 -8 15v4q0 4 8 12l348 342q12 12 12 -2v-17q0 -8 -6 -14l-334 -323l334 -332q6 -6 6 -15v-16q0 -14 -12 -2zM866 129l-348 348q-8 8 -8 15v4q0 4 8 12l348 342q13 13 13 -2v-17q0 -7 -7 -14l-333 -323l333 -332q7 -7 7 -15v-16q0 -15 -13 -2z" />
    <glyph glyph-name="logicalnot" unicode="&#xac;" 
d="M209 563h657q11 0 11 -10v-377q0 -10 -11 -10h-6q-10 0 -10 10v361h-641q-10 0 -10 10v6q0 10 10 10z" />
    <glyph glyph-name="registered" unicode="&#xae;" 
d="M207 1284q125 107 330 107q204 0 329 -107t125 -280v-637q0 -174 -125 -281q-124 -106 -329 -106q-206 0 -330 106q-125 107 -125 281v637q0 173 125 280zM965 367v637q0 160 -117 262q-118 100 -311 100q-195 0 -310 -100q-118 -100 -118 -262v-637q0 -163 118 -263
q115 -100 310 -100q193 0 311 100q117 102 117 263zM588 680l219 -430q6 -12 -6 -12h-8q-12 0 -15 10l-219 432h-188v-432q0 -10 -11 -10h-6q-10 0 -10 10v876q0 11 10 11h226q94 0 150 -64t56 -170q0 -98 -53.5 -157t-144.5 -64zM580 1110h-209v-405h209q82 0 132 54
t50 142q0 94 -50 151.5t-132 57.5z" />
    <glyph glyph-name="degree" unicode="&#xb0;" 
d="M754 866q-90 -90 -217 -90q-128 0 -218 90t-90 217t90 217q91 91 218 91q126 0 217 -91q90 -90 90 -217t-90 -217zM340 887q84 -84 197 -84q114 0 198 84q82 82 82 194q0 115 -84 199t-196 84q-113 0 -197 -84t-84 -199q0 -110 84 -194z" />
    <glyph glyph-name="plusminus" unicode="&#xb1;" 
d="M551 651h315q11 0 11 -10v-6q0 -10 -11 -10h-315v-326q0 -10 -10 -10h-6q-11 0 -11 10v326h-315q-10 0 -10 10v6q0 10 10 10h315v326q0 10 11 10h6q10 0 10 -10v-326zM209 27h657q11 0 11 -11v-6q0 -10 -11 -10h-657q-10 0 -10 10v6q0 11 10 11z" />
    <glyph glyph-name="uni00B2" unicode="&#xb2;" 
d="M373 592h358q6 0 6 -6v-13q0 -6 -6 -6h-389q-6 0 -6 6v2v11q0 6 2 8q216 243 297 358q88 125 88 222q0 85 -55 134.5t-138 49.5q-92 0 -168 -76q-6 -6 -10 -2l-10 8q-6 6 2 12q84 84 186 84q94 0 157 -57.5t63 -148.5q0 -94 -76 -213q-80 -125 -301 -373z" />
    <glyph glyph-name="uni00B3" unicode="&#xb3;" 
d="M600 963q59 -20 94 -72.5t35 -116.5q0 -100 -54 -159.5t-147 -59.5q-116 0 -202 80q-6 8 -2 12l8 8q4 4 10 -2q71 -71 186 -71q85 0 129.5 50t44.5 146q0 77 -49.5 124.5t-128.5 47.5h-37q-6 0 -6 4v17q0 4 6 4h37q82 0 130 52t48 142t-53.5 139.5t-138.5 49.5
q-92 0 -168 -76q-6 -6 -10 -2l-10 8q-6 6 2 12q84 84 186 84q95 0 157 -57.5t62 -152.5q0 -168 -129 -211z" />
    <glyph glyph-name="uni00B5" unicode="&#xb5;" horiz-adv-x="1064" 
d="M829 989h9q10 0 10 -10v-1378q0 -11 -10 -11h-9q-10 0 -10 11v565q-67 -186 -274 -186q-152 0 -236 91.5t-84 256.5v651q0 10 11 10h8q10 0 10 -10v-651q0 -153 76 -236.5t215 -83.5q131 0 202.5 83t71.5 235v653q0 10 10 10z" />
    <glyph glyph-name="paragraph" unicode="&#xb6;" 
d="M547 1372h305q10 0 10 -10v-1548q0 -11 -10 -11h-8q-10 0 -10 11v1532h-248v-1532q0 -11 -11 -11h-8q-10 0 -10 11v774q-171 0 -285 114q-116 113 -116 277t114 278q115 115 277 115z" />
    <glyph glyph-name="middot" unicode="&#xb7;" 
d="M547 446h-25q-10 0 -10 11v114q0 11 10 11h25q10 0 10 -11v-114q0 -11 -10 -11z" />
    <glyph glyph-name="uni00B9" unicode="&#xb9;" 
d="M764 565h-426q-4 0 -4 6v13q0 6 4 6h201v743l-150 -147q-4 -4 -4 0v31q0 2 4 6l150 145q4 4 8 4h10q6 0 6 -6v-776h201q4 0 4 -6v-13q0 -6 -4 -6z" />
    <glyph glyph-name="ordmasculine" unicode="&#xba;" 
d="M731 645q-72 -72 -192 -72q-121 0 -193 72q-70 70 -70 195v266q0 124 70 195t193 71t191.5 -70.5t68.5 -195.5v-266q0 -124 -68 -195zM362 662q66 -66 177 -66q110 0 176 66q61 64 61 178v266q0 116 -62.5 181t-174.5 65q-113 0 -176.5 -65.5t-63.5 -180.5v-266
q0 -115 63 -178z" />
    <glyph glyph-name="guillemotright" unicode="&#xbb;" 
d="M870 477l-348 -348q-12 -12 -12 2v16q0 9 6 15l334 332l-334 323q-6 6 -6 14v17q0 14 12 2l348 -342q9 -9 9 -12v-4q0 -6 -9 -15zM555 471l-348 -348q-12 -12 -12 2v16q0 9 6 15l334 331l-334 324q-6 6 -6 14v17q0 14 12 2l348 -342q8 -8 8 -13v-4q0 -6 -8 -14z" />
    <glyph glyph-name="onequarter" unicode="&#xbc;" 
d="M451 756h-373q-4 0 -4 6v12q0 6 4 6h180v553l-133 -131q-4 -4 -4 0v31q0 2 4 6l133 129q4 4 8 4h10q7 0 7 -6v-586h168q4 0 4 -6v-12q0 -6 -4 -6zM231 84l-10 6q-5 3 -2 12l705 1178q5 8 12 4l10 -6q5 -3 2 -12l-704 -1178q-5 -8 -13 -4zM872 0h-6q-10 0 -10 10v180h-270
q-11 0 -11 11v4q0 9 9 18l270 400q3 6 12 6h6q11 0 11 -11v-403h69q11 0 11 -10v-4q0 -11 -11 -11h-69v-180q0 -10 -11 -10zM856 582l-246 -367h246v367z" />
    <glyph glyph-name="onehalf" unicode="&#xbd;" 
d="M451 756h-373q-4 0 -4 6v12q0 6 4 6h180v553l-133 -131q-4 -4 -4 0v31q0 2 4 6l133 129q4 4 8 4h10q7 0 7 -6v-586h168q4 0 4 -6v-12q0 -6 -4 -6zM184 84l-10 6q-5 3 -2 12l705 1178q5 8 12 4l10 -6q5 -3 2 -12l-704 -1178q-5 -8 -13 -4zM985 0h-334q-6 0 -6 6v10
q0 7 8 15q191 191 246 274q57 86 57 162q0 65 -40 104t-101 39q-80 0 -143 -75q-6 -7 -10 -3l-11 9q-4 4 2 12q75 84 162 84q71 0 119.5 -46.5t48.5 -119.5q0 -83 -59 -172q-56 -85 -242 -274h303q6 0 6 -7v-12q0 -6 -6 -6z" />
    <glyph glyph-name="threequarters" unicode="&#xbe;" 
d="M442 903q0 -75 -47 -122.5t-119 -47.5q-92 0 -170 78q-9 9 -2 12l11 8q4 4 10 -2q66 -69 151 -69q63 0 101.5 39.5t38.5 107.5q0 66 -37 106t-98 40h-33q-8 0 -8 8v8q0 8 8 8h33q62 0 98.5 36t36.5 97q0 67 -40 105.5t-102 38.5q-79 0 -143 -76q-6 -6 -10 -2l-10 8
q-3 7 2 12q75 84 161 84q71 0 119.5 -46.5t48.5 -119.5q0 -119 -104 -149q104 -37 104 -162zM889 1284l10 -6q5 -3 2 -12l-704 -1178q-5 -8 -13 -4l-10 6q-5 3 -2 12l705 1178q5 8 12 4zM883 215h69q11 0 11 -10v-4q0 -11 -11 -11h-69v-180q0 -10 -11 -10h-6q-10 0 -10 10
v180h-270q-11 0 -11 11v4q0 9 9 18l270 400q3 6 12 6h6q11 0 11 -11v-403zM610 215h246v367z" />
    <glyph glyph-name="questiondown" unicode="&#xbf;" 
d="M530 989h25q10 0 10 -10v-115q0 -10 -10 -10h-25q-10 0 -10 10v115q0 10 10 10zM539 578h8q10 0 10 -11v-24q0 -83 -55 -150l-164 -203q-92 -112 -92 -260q0 -135 100 -219q101 -84 232 -84q163 0 282 158q6 10 10 6l11 -8q8 -3 2 -12q-126 -172 -305 -172
q-145 0 -252 94q-109 95 -109 237q0 156 98 275l164 203q49 58 49 135v24q0 11 11 11z" />
    <glyph glyph-name="Agrave" unicode="&#xc0;" 
d="M575 1473l-151 290q-6 13 6 13h10q6 0 13 -11l151 -290q6 -13 -6 -13h-10q-6 0 -13 11zM547 1364l430 -1352q3 -12 -6 -12h-10q-10 0 -13 10l-147 465h-529l-145 -465q-3 -10 -12 -10h-11q-9 0 -6 12l428 1352q3 8 9 8h4q5 0 8 -8zM793 502l-256 809l-256 -809h512z" />
    <glyph glyph-name="Aacute" unicode="&#xc1;" 
d="M526 1442h-12q-12 0 -6 12l156 291q7 10 12 10h12q12 0 6 -12l-155 -291q-7 -10 -13 -10zM547 1364l430 -1352q3 -12 -6 -12h-10q-10 0 -13 10l-147 465h-529l-145 -465q-3 -10 -12 -10h-11q-9 0 -6 12l428 1352q3 8 9 8h4q5 0 8 -8zM793 502l-256 809l-256 -809h512z
" />
    <glyph glyph-name="Acircumflex" unicode="&#xc2;" 
d="M334 1462h-12q-15 0 -5 13l205 292q6 9 8 9h5q2 0 8 -9l213 -292q10 -13 -6 -13h-13q-3 0 -14 11l-191 264l-184 -264q-11 -11 -14 -11zM547 1364l430 -1352q3 -12 -6 -12h-10q-10 0 -13 10l-147 465h-529l-145 -465q-3 -10 -12 -10h-11q-9 0 -6 12l428 1352q3 8 9 8h4
q5 0 8 -8zM793 502l-256 809l-256 -809h512z" />
    <glyph glyph-name="Atilde" unicode="&#xc3;" 
d="M309 1468h-8q-13 0 -6 13q57 112 133 112q45 0 88 -32l47 -33q44 -33 78 -33q65 0 109 84q3 8 12 8h8q12 0 6 -12q-52 -107 -135 -107q-43 0 -90 35l-49 35q-47 29 -74 29q-59 0 -106 -90q-3 -9 -13 -9zM547 1364l430 -1352q3 -12 -6 -12h-10q-10 0 -13 10l-147 465h-529
l-145 -465q-3 -10 -12 -10h-11q-9 0 -6 12l428 1352q3 8 9 8h4q5 0 8 -8zM793 502l-256 809l-256 -809h512z" />
    <glyph glyph-name="Adieresis" unicode="&#xc4;" 
d="M348 1466h-10q-10 0 -10 11v137q0 10 10 10h10q10 0 10 -10v-137q0 -11 -10 -11zM729 1466h-8q-10 0 -10 11v137q0 10 10 10h8q12 0 12 -10v-137q0 -11 -12 -11zM547 1364l430 -1352q3 -12 -6 -12h-10q-10 0 -13 10l-147 465h-529l-145 -465q-3 -10 -12 -10h-11
q-9 0 -6 12l428 1352q3 8 9 8h4q5 0 8 -8zM793 502l-256 809l-256 -809h512z" />
    <glyph glyph-name="Aring" unicode="&#xc5;" 
d="M662 1493q-52 -51 -126.5 -51t-125.5 51t-51 125t51 127t125.5 53t126.5 -53t52 -127t-52 -125zM643 1726q-44 43 -108 43t-107 -43q-43 -44 -43 -108t43 -107t107 -43t108 43q43 43 43 107t-43 108zM547 1364l430 -1352q3 -12 -6 -12h-10q-10 0 -13 10l-147 465h-529
l-145 -465q-3 -10 -12 -10h-11q-9 0 -6 12l428 1352q3 8 9 8h4q5 0 8 -8zM793 502l-256 809l-256 -809h512z" />
    <glyph glyph-name="AE" unicode="&#xc6;" 
d="M1018 1346h-426v-637h366q11 0 11 -11v-6q0 -10 -11 -10h-366v-655h426q10 0 10 -11v-6q0 -10 -10 -10h-445q-10 0 -10 10v465h-289l-165 -465q-3 -10 -13 -10h-12q-9 0 -6 12l485 1352v2l2 2q0 4 6 4h447q10 0 10 -10v-6q0 -10 -10 -10zM563 1286l-278 -784h278v784z
" />
    <glyph glyph-name="Ccedilla" unicode="&#xc7;" 
d="M899 199l12 -9q8 -3 2 -12q-70 -105 -150.5 -151.5t-199.5 -46.5l-147 -283q-7 -10 -13 -10h-10q-12 0 -6 12l150 281q-156 8 -242 109t-86 278v637q0 183 93 285t259 102q120 0 200.5 -47t151.5 -152q6 -9 -2 -12l-12 -9q-3 -3 -10 7q-68 100 -143.5 143t-184.5 43
q-152 0 -237.5 -95t-85.5 -265v-637q0 -170 85.5 -265.5t237.5 -95.5q108 0 184 43.5t144 143.5q6 10 10 6z" />
    <glyph glyph-name="Egrave" unicode="&#xc8;" 
d="M610 1473l-151 290q-7 13 6 13h10q8 0 12 -11l152 -290q7 -13 -6 -13h-10q-9 0 -13 11zM881 1346h-594v-639h534q10 0 10 -11v-6q0 -10 -10 -10h-534v-653h594q10 0 10 -11v-6q0 -10 -10 -10h-613q-10 0 -10 10v1352q0 10 10 10h613q10 0 10 -10v-6q0 -10 -10 -10z" />
    <glyph glyph-name="Eacute" unicode="&#xc9;" 
d="M561 1442h-12q-12 0 -6 12l155 291q7 10 13 10h12q12 0 6 -12l-156 -291q-7 -10 -12 -10zM881 1346h-594v-639h534q10 0 10 -11v-6q0 -10 -10 -10h-534v-653h594q10 0 10 -11v-6q0 -10 -10 -10h-613q-10 0 -10 10v1352q0 10 10 10h613q10 0 10 -10v-6q0 -10 -10 -10z" />
    <glyph glyph-name="Ecircumflex" unicode="&#xca;" 
d="M369 1462h-13q-14 0 -4 13l205 292q6 9 8 9h4q3 0 9 -9l213 -292q10 -13 -7 -13h-12q-3 0 -14 11l-191 264l-184 -264q-11 -11 -14 -11zM881 1346h-594v-639h534q10 0 10 -11v-6q0 -10 -10 -10h-534v-653h594q10 0 10 -11v-6q0 -10 -10 -10h-613q-10 0 -10 10v1352
q0 10 10 10h613q10 0 10 -10v-6q0 -10 -10 -10z" />
    <glyph glyph-name="Edieresis" unicode="&#xcb;" 
d="M383 1466h-10q-11 0 -11 11v137q0 10 11 10h10q10 0 10 -10v-137q0 -11 -10 -11zM764 1466h-8q-11 0 -11 11v137q0 10 11 10h8q12 0 12 -10v-137q0 -11 -12 -11zM881 1346h-594v-639h534q10 0 10 -11v-6q0 -10 -10 -10h-534v-653h594q10 0 10 -11v-6q0 -10 -10 -10h-613
q-10 0 -10 10v1352q0 10 10 10h613q10 0 10 -10v-6q0 -10 -10 -10z" />
    <glyph glyph-name="Igrave" unicode="&#xcc;" 
d="M575 1473l-151 290q-6 13 6 13h10q6 0 13 -11l151 -290q6 -13 -6 -13h-10q-6 0 -13 11zM872 1346h-319v-1319h319q11 0 11 -11v-6q0 -10 -11 -10h-671q-11 0 -11 10v6q0 11 11 11h323v1319h-323q-11 0 -11 10v6q0 10 11 10h671q11 0 11 -10v-6q0 -10 -11 -10z" />
    <glyph glyph-name="Iacute" unicode="&#xcd;" 
d="M526 1442h-12q-12 0 -6 12l156 291q7 10 12 10h12q12 0 6 -12l-155 -291q-7 -10 -13 -10zM872 1346h-319v-1319h319q11 0 11 -11v-6q0 -10 -11 -10h-671q-11 0 -11 10v6q0 11 11 11h323v1319h-323q-11 0 -11 10v6q0 10 11 10h671q11 0 11 -10v-6q0 -10 -11 -10z" />
    <glyph glyph-name="Icircumflex" unicode="&#xce;" 
d="M334 1462h-12q-15 0 -5 13l205 292q6 9 8 9h5q2 0 8 -9l213 -292q10 -13 -6 -13h-13q-3 0 -14 11l-191 264l-184 -264q-11 -11 -14 -11zM872 1346h-319v-1319h319q11 0 11 -11v-6q0 -10 -11 -10h-671q-11 0 -11 10v6q0 11 11 11h323v1319h-323q-11 0 -11 10v6q0 10 11 10
h671q11 0 11 -10v-6q0 -10 -11 -10z" />
    <glyph glyph-name="Idieresis" unicode="&#xcf;" 
d="M348 1466h-10q-10 0 -10 11v137q0 10 10 10h10q10 0 10 -10v-137q0 -11 -10 -11zM729 1466h-8q-10 0 -10 11v137q0 10 10 10h8q12 0 12 -10v-137q0 -11 -12 -11zM872 1346h-319v-1319h319q11 0 11 -11v-6q0 -10 -11 -10h-671q-11 0 -11 10v6q0 11 11 11h323v1319h-323
q-11 0 -11 10v6q0 10 11 10h671q11 0 11 -10v-6q0 -10 -11 -10z" />
    <glyph glyph-name="Eth" unicode="&#xd0;" 
d="M205 1372h344q352 0 352 -401v-615q0 -168 -91.5 -262t-260.5 -94h-344q-10 0 -10 10v664h-115q-10 0 -10 10v4q0 10 10 10h115v664q0 10 10 10zM872 356v615q0 375 -323 375h-326v-648h316q10 0 10 -10v-4q0 -10 -10 -10h-316v-647h326q159 0 241 85t82 244z" />
    <glyph glyph-name="Ntilde" unicode="&#xd1;" 
d="M309 1468h-8q-13 0 -6 13q57 112 133 112q45 0 88 -32l47 -33q44 -33 78 -33q65 0 109 84q3 8 12 8h8q12 0 6 -12q-52 -107 -135 -107q-43 0 -90 35l-49 35q-47 29 -74 29q-59 0 -106 -90q-3 -9 -13 -9zM872 1372h9q10 0 10 -10v-1352q0 -10 -10 -10h-9q-6 0 -10 4
l-649 1301v-1295q0 -10 -10 -10h-8q-11 0 -11 10v1352q0 10 11 10h8h2q2 0 8 -6l649 -1300v1296q0 10 10 10z" />
    <glyph glyph-name="Ograve" unicode="&#xd2;" 
d="M598 1481h-10q-6 0 -13 10l-151 291q-6 12 6 12h10q6 0 13 -10l151 -291q6 -12 -6 -12zM797 82q-95 -102 -260 -102q-167 0 -258 102q-95 103 -95 285v637q0 183 93.5 285t259.5 102t259 -102t93 -285v-637q0 -182 -92 -285zM299 102q87 -96 238 -96q150 0 237 96
q86 95 86 265v637q0 170 -85.5 265t-237.5 95t-238 -95t-86 -265v-637q0 -170 86 -265z" />
    <glyph glyph-name="Oacute" unicode="&#xd3;" 
d="M526 1460h-12q-12 0 -6 13l156 290q7 11 12 11h12q12 0 6 -13l-155 -291q-7 -10 -13 -10zM797 82q-95 -102 -260 -102q-167 0 -258 102q-95 103 -95 285v637q0 183 93.5 285t259.5 102t259 -102t93 -285v-637q0 -182 -92 -285zM299 102q87 -96 238 -96q150 0 237 96
q86 95 86 265v637q0 170 -85.5 265t-237.5 95t-238 -95t-86 -265v-637q0 -170 86 -265z" />
    <glyph glyph-name="Ocircumflex" unicode="&#xd4;" 
d="M334 1481h-12q-14 0 -5 12l205 293q5 8 8 8h5q3 0 8 -8l213 -293q9 -12 -6 -12h-13q-4 0 -14 10l-191 264l-184 -264q-10 -10 -14 -10zM797 82q-95 -102 -260 -102q-167 0 -258 102q-95 103 -95 285v637q0 183 93.5 285t259.5 102t259 -102t93 -285v-637q0 -182 -92 -285
zM299 102q87 -96 238 -96q150 0 237 96q86 95 86 265v637q0 170 -85.5 265t-237.5 95t-238 -95t-86 -265v-637q0 -170 86 -265z" />
    <glyph glyph-name="Otilde" unicode="&#xd5;" 
d="M641 1487q-43 0 -90 35l-49 34q-47 29 -74 29q-59 0 -106 -90q-3 -8 -13 -8h-8q-12 0 -6 12q58 113 133 113q44 0 88 -33l47 -33q44 -33 78 -33q65 0 109 84q3 9 12 9h8q12 0 6 -13q-52 -106 -135 -106zM797 82q-95 -102 -260 -102q-167 0 -258 102q-95 103 -95 285v637
q0 183 93.5 285t259.5 102t259 -102t93 -285v-637q0 -182 -92 -285zM299 102q87 -96 238 -96q150 0 237 96q86 95 86 265v637q0 170 -85.5 265t-237.5 95t-238 -95t-86 -265v-637q0 -170 86 -265z" />
    <glyph glyph-name="Odieresis" unicode="&#xd6;" 
d="M348 1485h-10q-10 0 -10 10v137q0 10 10 10h10q10 0 10 -10v-137q0 -10 -10 -10zM729 1485h-8q-10 0 -10 10v137q0 10 10 10h8q12 0 12 -10v-137q0 -10 -12 -10zM797 82q-95 -102 -260 -102q-167 0 -258 102q-95 103 -95 285v637q0 183 93.5 285t259.5 102t259 -102
t93 -285v-637q0 -182 -92 -285zM299 102q87 -96 238 -96q150 0 237 96q86 95 86 265v637q0 170 -85.5 265t-237.5 95t-238 -95t-86 -265v-637q0 -170 86 -265z" />
    <glyph glyph-name="multiply" unicode="&#xd7;" 
d="M864 903l-309 -350l309 -350q6 -7 0 -13l-4 -4q-8 -6 -14 0l-307 349l-310 -349q-8 -6 -14 0l-4 4q-7 6 0 13l309 350l-309 350q-5 5 -2 12l6 7q6 6 14 -2l310 -349l307 349q8 8 14 2l6 -7q6 -6 -2 -12z" />
    <glyph glyph-name="Oslash" unicode="&#xd8;" 
d="M909 1421l11 -6q6 -3 2 -14l-86 -166q53 -95 53 -231v-637q0 -183 -93 -285t-259 -102q-193 0 -285 133l-72 -138q-4 -11 -14 -4l-6 4q-6 3 -2 15l78 149q-52 94 -52 228v637q0 183 93.5 285t259.5 102q189 0 280 -129l80 151q6 11 12 8zM213 1004v-637q0 -116 39 -195
l551 1059q-86 133 -266 133q-152 0 -238 -95t-86 -265zM860 367v637q0 114 -41 198l-551 -1059q82 -137 269 -137q152 0 237.5 95.5t85.5 265.5z" />
    <glyph glyph-name="Ugrave" unicode="&#xd9;" 
d="M598 1462h-10q-6 0 -13 11l-151 290q-6 13 6 13h10q6 0 13 -11l151 -290q6 -13 -6 -13zM797 82q-95 -102 -260 -102q-167 0 -258 102q-95 103 -95 285v995q0 10 11 10h8q10 0 10 -10v-995q0 -170 86 -265.5t238 -95.5t237.5 95.5t85.5 265.5v995q0 10 10 10h9
q10 0 10 -10v-995q0 -182 -92 -285z" />
    <glyph glyph-name="Uacute" unicode="&#xda;" 
d="M526 1442h-12q-12 0 -6 12l156 291q7 10 12 10h12q12 0 6 -12l-155 -291q-7 -10 -13 -10zM797 82q-95 -102 -260 -102q-167 0 -258 102q-95 103 -95 285v995q0 10 11 10h8q10 0 10 -10v-995q0 -170 86 -265.5t238 -95.5t237.5 95.5t85.5 265.5v995q0 10 10 10h9
q10 0 10 -10v-995q0 -182 -92 -285z" />
    <glyph glyph-name="Ucircumflex" unicode="&#xdb;" 
d="M334 1462h-12q-15 0 -5 13l205 292q6 9 8 9h5q2 0 8 -9l213 -292q10 -13 -6 -13h-13q-3 0 -14 11l-191 264l-184 -264q-11 -11 -14 -11zM797 82q-95 -102 -260 -102q-167 0 -258 102q-95 103 -95 285v995q0 10 11 10h8q10 0 10 -10v-995q0 -170 86 -265.5t238 -95.5
t237.5 95.5t85.5 265.5v995q0 10 10 10h9q10 0 10 -10v-995q0 -182 -92 -285z" />
    <glyph glyph-name="Udieresis" unicode="&#xdc;" 
d="M348 1466h-10q-10 0 -10 11v137q0 10 10 10h10q10 0 10 -10v-137q0 -11 -10 -11zM729 1466h-8q-10 0 -10 11v137q0 10 10 10h8q12 0 12 -10v-137q0 -11 -12 -11zM797 82q-95 -102 -260 -102q-167 0 -258 102q-95 103 -95 285v995q0 10 11 10h8q10 0 10 -10v-995
q0 -170 86 -265.5t238 -95.5t237.5 95.5t85.5 265.5v995q0 10 10 10h9q10 0 10 -10v-995q0 -182 -92 -285z" />
    <glyph glyph-name="Yacute" unicode="&#xdd;" 
d="M526 1442h-12q-12 0 -6 12l156 291q7 10 12 10h12q12 0 6 -12l-155 -291q-7 -10 -13 -10zM938 1372h12q12 0 6 -12l-405 -752v-598q0 -10 -10 -10h-9q-10 0 -10 10v598l-403 752q-6 12 6 12h12q6 0 13 -10l387 -725l389 725q3 10 12 10z" />
    <glyph glyph-name="Thorn" unicode="&#xde;" 
d="M279 1059h276q173 0 273 -100t100 -273t-100 -273t-273 -100h-276v-303q0 -10 -11 -10h-8q-10 0 -10 10v1352q0 10 10 10h8q11 0 11 -10v-303zM279 340h276q162 0 253 91t91 255t-91 255t-253 91h-276v-692z" />
    <glyph glyph-name="germandbls" unicode="&#xdf;" 
d="M588 559l145 -45q230 -70 230 -281q0 -115 -75.5 -184t-199.5 -69q-188 0 -356 133q-8 8 -2 14l6 6q8 8 16 0q157 -127 338 -127q109 0 176.5 62.5t67.5 164.5q0 185 -207 250l-149 47q-205 64 -205 236q0 119 73 185.5t203 66.5h166v170q0 319 -289 319
q-288 0 -288 -319v-1178q0 -10 -11 -10h-8q-10 0 -10 10v1180q0 346 317 346q318 0 318 -346v-189q0 -10 -10 -10h-185q-117 0 -182.5 -59.5t-65.5 -165.5q0 -149 187 -207z" />
    <glyph glyph-name="agrave" unicode="&#xe0;" 
d="M545 1241l-152 291q-6 12 6 12h11q9 0 12 -10l151 -291q6 -12 -6 -12h-10q-9 0 -12 10zM918 16h26q10 0 10 -10v-6q0 -10 -10 -10h-29q-57 0 -81.5 33.5t-24.5 111.5q-36 -71 -112.5 -113t-178.5 -42q-159 0 -249.5 92t-90.5 254v346q0 162 90.5 254t249.5 92
q102 0 178.5 -42.5t112.5 -113.5v117q0 10 10 10h8q11 0 11 -10v-842q0 -66 18 -93.5t62 -27.5zM518 8q127 0 209 69.5t82 166.5v510q0 97 -82 166t-209 69q-147 0 -229 -83.5t-82 -233.5v-346q0 -150 82 -234t229 -84z" />
    <glyph glyph-name="aacute" unicode="&#xe1;" 
d="M518 1231h-12q-12 0 -6 12l155 291q7 10 13 10h12q12 0 6 -12l-156 -291q-7 -10 -12 -10zM918 16h26q10 0 10 -10v-6q0 -10 -10 -10h-29q-57 0 -81.5 33.5t-24.5 111.5q-36 -71 -112.5 -113t-178.5 -42q-159 0 -249.5 92t-90.5 254v346q0 162 90.5 254t249.5 92
q102 0 178.5 -42.5t112.5 -113.5v117q0 10 10 10h8q11 0 11 -10v-842q0 -66 18 -93.5t62 -27.5zM518 8q127 0 209 69.5t82 166.5v510q0 97 -82 166t-209 69q-147 0 -229 -83.5t-82 -233.5v-346q0 -150 82 -234t229 -84z" />
    <glyph glyph-name="acircumflex" unicode="&#xe2;" 
d="M319 1231h-12q-13 0 -4 12l205 293q5 8 8 8h4q3 0 8 -8l213 -293q9 -12 -6 -12h-12q-4 0 -14 10l-191 264l-184 -264q-10 -10 -15 -10zM918 16h26q10 0 10 -10v-6q0 -10 -10 -10h-29q-57 0 -81.5 33.5t-24.5 111.5q-36 -71 -112.5 -113t-178.5 -42q-159 0 -249.5 92
t-90.5 254v346q0 162 90.5 254t249.5 92q102 0 178.5 -42.5t112.5 -113.5v117q0 10 10 10h8q11 0 11 -10v-842q0 -66 18 -93.5t62 -27.5zM518 8q127 0 209 69.5t82 166.5v510q0 97 -82 166t-209 69q-147 0 -229 -83.5t-82 -233.5v-346q0 -150 82 -234t229 -84z" />
    <glyph glyph-name="atilde" unicode="&#xe3;" 
d="M291 1237h-8q-13 0 -7 12q58 113 134 113q44 0 88 -33l47 -33q43 -32 78 -32q64 0 108 84q3 8 12 8h9q12 0 6 -13q-52 -106 -135 -106q-44 0 -91 35l-49 35q-45 28 -73 28q-60 0 -107 -90q-3 -8 -12 -8zM918 16h26q10 0 10 -10v-6q0 -10 -10 -10h-29q-57 0 -81.5 33.5
t-24.5 111.5q-36 -71 -112.5 -113t-178.5 -42q-159 0 -249.5 92t-90.5 254v346q0 162 90.5 254t249.5 92q102 0 178.5 -42.5t112.5 -113.5v117q0 10 10 10h8q11 0 11 -10v-842q0 -66 18 -93.5t62 -27.5zM518 8q127 0 209 69.5t82 166.5v510q0 97 -82 166t-209 69
q-147 0 -229 -83.5t-82 -233.5v-346q0 -150 82 -234t229 -84z" />
    <glyph glyph-name="adieresis" unicode="&#xe4;" 
d="M330 1231h-11q-10 0 -10 10v137q0 11 10 11h11q10 0 10 -11v-137q0 -10 -10 -10zM711 1231h-9q-10 0 -10 10v137q0 11 10 11h9q12 0 12 -11v-137q0 -10 -12 -10zM918 16h26q10 0 10 -10v-6q0 -10 -10 -10h-29q-57 0 -81.5 33.5t-24.5 111.5q-36 -71 -112.5 -113
t-178.5 -42q-159 0 -249.5 92t-90.5 254v346q0 162 90.5 254t249.5 92q102 0 178.5 -42.5t112.5 -113.5v117q0 10 10 10h8q11 0 11 -10v-842q0 -66 18 -93.5t62 -27.5zM518 8q127 0 209 69.5t82 166.5v510q0 97 -82 166t-209 69q-147 0 -229 -83.5t-82 -233.5v-346
q0 -150 82 -234t229 -84z" />
    <glyph glyph-name="aring" unicode="&#xe5;" 
d="M643 1262q-53 -51 -127 -51t-125 51t-51 124.5t51 126.5t125 53t127 -53t53 -126.5t-53 -124.5zM625 1495q-44 43 -108 43t-107 -43q-43 -44 -43 -108t43 -107t107 -43t108 43q43 43 43 107t-43 108zM918 16h26q10 0 10 -10v-6q0 -10 -10 -10h-29q-57 0 -81.5 33.5
t-24.5 111.5q-36 -71 -112.5 -113t-178.5 -42q-159 0 -249.5 92t-90.5 254v346q0 162 90.5 254t249.5 92q102 0 178.5 -42.5t112.5 -113.5v117q0 10 10 10h8q11 0 11 -10v-842q0 -66 18 -93.5t62 -27.5zM518 8q127 0 209 69.5t82 166.5v510q0 97 -82 166t-209 69
q-147 0 -229 -83.5t-82 -233.5v-346q0 -150 82 -234t229 -84z" />
    <glyph glyph-name="ae" unicode="&#xe6;" 
d="M969 104l8 -6q7 -4 0 -14q-79 -107 -211 -107q-167 0 -217 146q-47 -146 -219 -146q-215 0 -215 244v68q0 115 62 178t169 63h189v242q0 103 -55 160t-150 57q-107 0 -191 -96q-5 -5 -12 -2l-8 6q-6 6 0 14q94 107 211 107q172 0 219 -146q50 146 217 146q103 0 159 -64
t56 -180v-260q0 -10 -10 -10h-408v-281q0 -103 53 -160t150 -57q115 0 190 96q6 6 13 2zM766 989q-97 0 -150 -57t-53 -160v-242h389v242q0 103 -49 160t-137 57zM330 6q95 0 150 57t55 160v281h-189q-94 0 -148.5 -57t-54.5 -160v-64q0 -217 187 -217z" />
    <glyph glyph-name="ccedilla" unicode="&#xe7;" 
d="M844 143l8 -6q6 -6 0 -14q-60 -79 -122.5 -111.5t-147.5 -34.5l-146 -280q-7 -10 -12 -10h-10q-12 0 -6 12l147 278q-141 6 -220 97.5t-79 249.5v348q0 164 84.5 255t234.5 91q90 0 154 -32t123 -114q6 -8 0 -14l-8 -6q-7 -4 -13 2q-60 76 -118 105.5t-140 29.5
q-137 0 -212.5 -83.5t-75.5 -235.5v-344q0 -152 75.5 -236t212.5 -84q82 0 140 29.5t118 105.5q9 6 13 2z" />
    <glyph glyph-name="egrave" unicode="&#xe8;" 
d="M578 1241l-152 291q-6 12 6 12h10q10 0 13 -10l151 -291q6 -12 -6 -12h-10q-9 0 -12 10zM551 1018q152 0 236.5 -91t84.5 -255v-178q0 -11 -10 -11h-600v-157q0 -152 79 -236t220 -84q81 0 142 31.5t124 105.5q6 6 13 2l8 -6q10 -3 0 -14q-118 -148 -287 -148
q-155 0 -241.5 91.5t-86.5 255.5v348q0 162 84.5 254t233.5 92zM262 670v-160h582v160q0 152 -77 236.5t-216 84.5q-137 0 -213 -84.5t-76 -236.5z" />
    <glyph glyph-name="eacute" unicode="&#xe9;" 
d="M551 1231h-12q-13 0 -7 12l156 291q7 10 12 10h13q12 0 6 -12l-156 -291q-7 -10 -12 -10zM551 1018q152 0 236.5 -91t84.5 -255v-178q0 -11 -10 -11h-600v-157q0 -152 79 -236t220 -84q81 0 142 31.5t124 105.5q6 6 13 2l8 -6q10 -3 0 -14q-118 -148 -287 -148
q-155 0 -241.5 91.5t-86.5 255.5v348q0 162 84.5 254t233.5 92zM262 670v-160h582v160q0 152 -77 236.5t-216 84.5q-137 0 -213 -84.5t-76 -236.5z" />
    <glyph glyph-name="ecircumflex" unicode="&#xea;" 
d="M352 1231h-12q-13 0 -4 12l205 293q5 8 8 8h4q3 0 8 -8l213 -293q9 -12 -6 -12h-12q-5 0 -15 10l-190 264l-184 -264q-10 -10 -15 -10zM551 1018q152 0 236.5 -91t84.5 -255v-178q0 -11 -10 -11h-600v-157q0 -152 79 -236t220 -84q81 0 142 31.5t124 105.5q6 6 13 2l8 -6
q10 -3 0 -14q-118 -148 -287 -148q-155 0 -241.5 91.5t-86.5 255.5v348q0 162 84.5 254t233.5 92zM262 670v-160h582v160q0 152 -77 236.5t-216 84.5q-137 0 -213 -84.5t-76 -236.5z" />
    <glyph glyph-name="edieresis" unicode="&#xeb;" 
d="M362 1231h-10q-10 0 -10 10v137q0 11 10 11h10q11 0 11 -11v-137q0 -10 -11 -10zM743 1231h-8q-10 0 -10 10v137q0 11 10 11h8q13 0 13 -11v-137q0 -10 -13 -10zM551 1018q152 0 236.5 -91t84.5 -255v-178q0 -11 -10 -11h-600v-157q0 -152 79 -236t220 -84q81 0 142 31.5
t124 105.5q6 6 13 2l8 -6q10 -3 0 -14q-118 -148 -287 -148q-155 0 -241.5 91.5t-86.5 255.5v348q0 162 84.5 254t233.5 92zM262 670v-160h582v160q0 152 -77 236.5t-216 84.5q-137 0 -213 -84.5t-76 -236.5z" />
    <glyph glyph-name="igrave" unicode="&#xec;" 
d="M582 1212l-152 291q-6 13 6 13h10q9 0 13 -11l151 -291q6 -12 -6 -12h-10q-9 0 -12 10zM567 27h391q11 0 11 -11v-6q0 -10 -11 -10h-806q-11 0 -11 10v6q0 11 11 11h387v936h-301q-11 0 -11 10v6q0 10 11 10h319q10 0 10 -10v-952z" />
    <glyph glyph-name="iacute" unicode="&#xed;" 
d="M555 1202h-12q-12 0 -6 12l155 291q7 11 13 11h12q13 0 6 -13l-156 -291q-7 -10 -12 -10zM567 27h391q11 0 11 -11v-6q0 -10 -11 -10h-806q-11 0 -11 10v6q0 11 11 11h387v936h-301q-11 0 -11 10v6q0 10 11 10h319q10 0 10 -10v-952z" />
    <glyph glyph-name="icircumflex" unicode="&#xee;" 
d="M356 1202h-12q-13 0 -4 12l205 293q6 9 8 9h4q2 0 8 -9l213 -293q9 -12 -6 -12h-12q-5 0 -15 10l-190 265l-184 -265q-10 -10 -15 -10zM567 27h391q11 0 11 -11v-6q0 -10 -11 -10h-806q-11 0 -11 10v6q0 11 11 11h387v936h-301q-11 0 -11 10v6q0 10 11 10h319
q10 0 10 -10v-952z" />
    <glyph glyph-name="idieresis" unicode="&#xef;" 
d="M367 1202h-11q-10 0 -10 10v138q0 10 10 10h11q10 0 10 -10v-138q0 -10 -10 -10zM748 1202h-9q-10 0 -10 10v138q0 10 10 10h9q12 0 12 -10v-138q0 -10 -12 -10zM567 27h391q11 0 11 -11v-6q0 -10 -11 -10h-806q-11 0 -11 10v6q0 11 11 11h387v936h-301q-11 0 -11 10v6
q0 10 11 10h319q10 0 10 -10v-952z" />
    <glyph glyph-name="eth" unicode="&#xf0;" 
d="M823 881l2 -4q52 -82 52 -205v-346q0 -162 -90.5 -254t-249.5 -92t-249.5 92t-90.5 254v346q0 162 90.5 254t249.5 92q117 0 196 -49l-164 248h-252q-10 0 -10 10v6q0 10 10 10h234l-172 260q-7 13 6 13h10q6 0 13 -11l174 -262h190q10 0 10 -10v-6q0 -10 -10 -10h-172
l217 -326q2 -6 6 -10zM848 326v346q0 150 -82 233.5t-229 83.5q-148 0 -230 -84t-82 -233v-346q0 -150 82.5 -234t229.5 -84t229 84t82 234z" />
    <glyph glyph-name="ntilde" unicode="&#xf1;" 
d="M311 1237h-8q-12 0 -6 12q58 113 133 113q44 0 88 -33l47 -33q43 -32 78 -32q65 0 109 84q3 8 12 8h8q12 0 6 -13q-52 -106 -135 -106q-43 0 -90 35l-49 35q-45 28 -74 28q-59 0 -106 -90q-3 -8 -13 -8zM537 1018q152 0 235.5 -91.5t83.5 -256.5v-660q0 -10 -10 -10h-8
q-11 0 -11 10v660q0 149 -77 234t-213 85q-137 0 -214 -84t-77 -233v-662q0 -10 -10 -10h-9q-10 0 -10 10v969q0 10 10 10h9q10 0 10 -10v-152q68 191 291 191z" />
    <glyph glyph-name="ograve" unicode="&#xf2;" 
d="M586 1231h-11q-5 0 -12 10l-151 291q-6 12 6 12h10q5 0 12 -10l152 -291q6 -12 -6 -12zM786 72q-89 -92 -249 -92q-161 0 -250 92q-90 93 -90 254v346q0 162 90.5 254t249.5 92t249.5 -92t90.5 -254v-346q0 -160 -91 -254zM307 92q84 -84 230 -84q145 0 229 84
q82 82 82 234v346q0 150 -82 233.5t-229 83.5q-148 0 -230 -84t-82 -233v-346q0 -152 82 -234z" />
    <glyph glyph-name="oacute" unicode="&#xf3;" 
d="M537 1231h-13q-12 0 -6 12l156 291q7 10 12 10h12q13 0 7 -12l-156 -291q-7 -10 -12 -10zM786 72q-89 -92 -249 -92q-161 0 -250 92q-90 93 -90 254v346q0 162 90.5 254t249.5 92t249.5 -92t90.5 -254v-346q0 -160 -91 -254zM307 92q84 -84 230 -84q145 0 229 84
q82 82 82 234v346q0 150 -82 233.5t-229 83.5q-148 0 -230 -84t-82 -233v-346q0 -152 82 -234z" />
    <glyph glyph-name="ocircumflex" unicode="&#xf4;" 
d="M338 1231h-12q-13 0 -4 12l204 293q5 8 9 8h4q3 0 8 -8l213 -293q9 -12 -6 -12h-13q-4 0 -14 10l-190 264l-185 -264q-10 -10 -14 -10zM786 72q-89 -92 -249 -92q-161 0 -250 92q-90 93 -90 254v346q0 162 90.5 254t249.5 92t249.5 -92t90.5 -254v-346q0 -160 -91 -254z
M307 92q84 -84 230 -84q145 0 229 84q82 82 82 234v346q0 150 -82 233.5t-229 83.5q-148 0 -230 -84t-82 -233v-346q0 -152 82 -234z" />
    <glyph glyph-name="otilde" unicode="&#xf5;" 
d="M641 1237q-43 0 -90 35l-49 35q-45 28 -74 28q-59 0 -106 -90q-3 -8 -13 -8h-8q-12 0 -6 12q58 113 133 113q44 0 88 -33l47 -33q43 -32 78 -32q65 0 109 84q3 8 12 8h8q12 0 6 -13q-52 -106 -135 -106zM786 72q-89 -92 -249 -92q-161 0 -250 92q-90 93 -90 254v346
q0 162 90.5 254t249.5 92t249.5 -92t90.5 -254v-346q0 -160 -91 -254zM307 92q84 -84 230 -84q145 0 229 84q82 82 82 234v346q0 150 -82 233.5t-229 83.5q-148 0 -230 -84t-82 -233v-346q0 -152 82 -234z" />
    <glyph glyph-name="odieresis" unicode="&#xf6;" 
d="M348 1231h-10q-10 0 -10 10v137q0 11 10 11h10q10 0 10 -11v-137q0 -10 -10 -10zM729 1231h-8q-10 0 -10 10v137q0 11 10 11h8q12 0 12 -11v-137q0 -10 -12 -10zM786 72q-89 -92 -249 -92q-161 0 -250 92q-90 93 -90 254v346q0 162 90.5 254t249.5 92t249.5 -92
t90.5 -254v-346q0 -160 -91 -254zM307 92q84 -84 230 -84q145 0 229 84q82 82 82 234v346q0 150 -82 233.5t-229 83.5q-148 0 -230 -84t-82 -233v-346q0 -152 82 -234z" />
    <glyph glyph-name="divide" unicode="&#xf7;" 
d="M535 907l-35 33q-6 6 0 12l35 35q3 3 6 0l37 -37q4 -4 -3 -10l-32 -33q-4 -4 -8 0zM866 537h-657q-10 0 -10 10v6q0 10 10 10h657q11 0 11 -10v-6q0 -10 -11 -10zM535 111l-35 32q-6 7 0 13l35 34q3 3 6 0l37 -36q4 -4 -3 -11l-32 -32q-4 -4 -8 0z" />
    <glyph glyph-name="oslash" unicode="&#xf8;" 
d="M821 1004l-39 -74q95 -89 95 -258v-346q0 -162 -90.5 -254t-249.5 -92q-139 0 -226 69l-39 -74q-3 -8 -14 -4l-4 2q-6 3 -2 15l41 78q-96 93 -96 260v346q0 162 90.5 254t249.5 92q139 0 227 -70l35 66q7 10 12 8l8 -4q6 -3 2 -14zM225 672v-346q0 -149 82 -234l443 830
q-82 67 -213 67q-148 0 -230 -84t-82 -233zM848 326v346q0 145 -80 231l-442 -827q80 -68 211 -68q147 0 229 84t82 234z" />
    <glyph glyph-name="ugrave" unicode="&#xf9;" 
d="M551 1212l-152 291q-7 13 7 13h10q5 0 12 -11l152 -291q6 -12 -7 -12h-10q-5 0 -12 10zM829 989h9q10 0 10 -10v-969q0 -10 -10 -10h-9q-10 0 -10 10v156q-67 -186 -274 -186q-152 0 -236 91.5t-84 256.5v651q0 10 11 10h8q10 0 10 -10v-651q0 -153 76 -236.5t215 -83.5
q131 0 202.5 83t71.5 235v653q0 10 10 10z" />
    <glyph glyph-name="uacute" unicode="&#xfa;" 
d="M524 1202h-12q-12 0 -6 12l156 291q7 11 12 11h12q12 0 6 -13l-155 -291q-7 -10 -13 -10zM829 989h9q10 0 10 -10v-969q0 -10 -10 -10h-9q-10 0 -10 10v156q-67 -186 -274 -186q-152 0 -236 91.5t-84 256.5v651q0 10 11 10h8q10 0 10 -10v-651q0 -153 76 -236.5
t215 -83.5q131 0 202.5 83t71.5 235v653q0 10 10 10z" />
    <glyph glyph-name="ucircumflex" unicode="&#xfb;" 
d="M326 1202h-13q-13 0 -4 12l205 293q6 9 8 9h4q3 0 9 -9l213 -293q9 -12 -7 -12h-12q-4 0 -14 10l-191 265l-184 -265q-10 -10 -14 -10zM829 989h9q10 0 10 -10v-969q0 -10 -10 -10h-9q-10 0 -10 10v156q-67 -186 -274 -186q-152 0 -236 91.5t-84 256.5v651q0 10 11 10h8
q10 0 10 -10v-651q0 -153 76 -236.5t215 -83.5q131 0 202.5 83t71.5 235v653q0 10 10 10z" />
    <glyph glyph-name="udieresis" unicode="&#xfc;" 
d="M336 1202h-10q-11 0 -11 10v138q0 10 11 10h10q10 0 10 -10v-138q0 -10 -10 -10zM717 1202h-8q-11 0 -11 10v138q0 10 11 10h8q12 0 12 -10v-138q0 -10 -12 -10zM829 989h9q10 0 10 -10v-969q0 -10 -10 -10h-9q-10 0 -10 10v156q-67 -186 -274 -186q-152 0 -236 91.5
t-84 256.5v651q0 10 11 10h8q10 0 10 -10v-651q0 -153 76 -236.5t215 -83.5q131 0 202.5 83t71.5 235v653q0 10 10 10z" />
    <glyph glyph-name="yacute" unicode="&#xfd;" 
d="M537 1202h-13q-12 0 -6 12l156 291q7 11 12 11h12q14 0 7 -13l-156 -291q-7 -10 -12 -10zM911 989h11q9 0 6 -12l-432 -1102q-64 -168 -117 -227q-52 -58 -137 -58h-60q-10 0 -10 11v6q0 10 10 10h60q75 0 120 51q43 52 105 209l55 139l-377 961q-3 12 7 12h10
q9 0 12 -10l361 -930l364 930q3 10 12 10z" />
    <glyph glyph-name="thorn" unicode="&#xfe;" 
d="M537 1018q159 0 249.5 -92t90.5 -254v-346q0 -162 -90.5 -254t-249.5 -92q-102 0 -178.5 42t-112.5 113v-534q0 -11 -10 -11h-9q-10 0 -10 11v1904q0 11 10 11h9q10 0 10 -11v-643q36 71 112.5 113.5t178.5 42.5zM848 326v346q0 150 -82 233.5t-229 83.5q-127 0 -209 -69
t-82 -166v-510q0 -97 82 -166.5t209 -69.5q147 0 229 84t82 234z" />
    <glyph glyph-name="ydieresis" unicode="&#xff;" 
d="M348 1202h-10q-10 0 -10 10v138q0 10 10 10h10q10 0 10 -10v-138q0 -10 -10 -10zM729 1202h-8q-10 0 -10 10v138q0 10 10 10h8q12 0 12 -10v-138q0 -10 -12 -10zM911 989h11q9 0 6 -12l-432 -1102q-64 -168 -117 -227q-52 -58 -137 -58h-60q-10 0 -10 11v6q0 10 10 10h60
q75 0 120 51q43 52 105 209l55 139l-377 961q-3 12 7 12h10q9 0 12 -10l361 -930l364 930q3 10 12 10z" />
    <glyph glyph-name="Amacron" unicode="&#x100;" 
d="M774 1524h-475q-10 0 -10 10v4q0 10 10 10h475q10 0 10 -10v-4q0 -10 -10 -10zM547 1364l430 -1352q3 -12 -6 -12h-10q-10 0 -13 10l-147 465h-529l-145 -465q-3 -10 -12 -10h-11q-9 0 -6 12l428 1352q3 8 9 8h4q5 0 8 -8zM793 502l-256 809l-256 -809h512z" />
    <glyph glyph-name="amacron" unicode="&#x101;" 
d="M756 1272h-475q-11 0 -11 10v4q0 10 11 10h475q10 0 10 -10v-4q0 -10 -10 -10zM918 16h26q10 0 10 -10v-6q0 -10 -10 -10h-29q-57 0 -81.5 33.5t-24.5 111.5q-36 -71 -112.5 -113t-178.5 -42q-159 0 -249.5 92t-90.5 254v346q0 162 90.5 254t249.5 92q102 0 178.5 -42.5
t112.5 -113.5v117q0 10 10 10h8q11 0 11 -10v-842q0 -66 18 -93.5t62 -27.5zM518 8q127 0 209 69.5t82 166.5v510q0 97 -82 166t-209 69q-147 0 -229 -83.5t-82 -233.5v-346q0 -150 82 -234t229 -84z" />
    <glyph glyph-name="Abreve" unicode="&#x102;" 
d="M557 1491h-41q-88 0 -142.5 58.5t-54.5 154.5q0 10 11 10h4q10 0 10 -10q0 -85 47 -135.5t125 -50.5h41q78 0 125 50.5t47 135.5q0 10 10 10h4q11 0 11 -10q0 -96 -54.5 -154.5t-142.5 -58.5zM547 1364l430 -1352q3 -12 -6 -12h-10q-10 0 -13 10l-147 465h-529l-145 -465
q-3 -10 -12 -10h-11q-9 0 -6 12l428 1352q3 8 9 8h4q5 0 8 -8zM793 502l-256 809l-256 -809h512z" />
    <glyph glyph-name="abreve" unicode="&#x103;" 
d="M537 1260h-41q-88 0 -142.5 58.5t-54.5 154.5q0 10 10 10h4q11 0 11 -10q0 -85 47 -136t125 -51h41q78 0 125 51t47 136q0 10 10 10h4q10 0 10 -10q0 -96 -54 -154.5t-142 -58.5zM918 16h26q10 0 10 -10v-6q0 -10 -10 -10h-29q-57 0 -81.5 33.5t-24.5 111.5
q-36 -71 -112.5 -113t-178.5 -42q-159 0 -249.5 92t-90.5 254v346q0 162 90.5 254t249.5 92q102 0 178.5 -42.5t112.5 -113.5v117q0 10 10 10h8q11 0 11 -10v-842q0 -66 18 -93.5t62 -27.5zM518 8q127 0 209 69.5t82 166.5v510q0 97 -82 166t-209 69q-147 0 -229 -83.5
t-82 -233.5v-346q0 -150 82 -234t229 -84z" />
    <glyph glyph-name="Aogonek" unicode="&#x104;" 
d="M946 -350h41q10 0 10 -10v-5q0 -10 -10 -10h-41q-74 0 -116 41t-42 113q0 60 43 120.5t117 108.5v2l-147 465h-529l-145 -465q-3 -10 -12 -10h-11q-9 0 -6 12l428 1352q3 8 9 8h4q5 0 8 -8l430 -1352q3 -12 -6 -12q-156 -108 -156 -221q0 -129 131 -129zM793 502
l-256 809l-256 -809h512z" />
    <glyph glyph-name="aogonek" unicode="&#x105;" 
d="M920 -360h41q10 0 10 -11v-4q0 -10 -10 -10h-41q-74 0 -116 41t-42 113q0 119 147 221q-54 1 -77 35.5t-23 109.5q-36 -71 -112.5 -113t-178.5 -42q-159 0 -249.5 92t-90.5 254v346q0 162 90.5 254t249.5 92q102 0 178.5 -42.5t112.5 -113.5v117q0 10 10 10h8
q11 0 11 -10v-842q0 -66 18 -93.5t62 -27.5h26q10 0 10 -10v-6q0 -10 -10 -10q-156 -108 -156 -221q0 -129 132 -129zM518 8q127 0 209 69.5t82 166.5v510q0 97 -82 166t-209 69q-147 0 -229 -83.5t-82 -233.5v-346q0 -150 82 -234t229 -84z" />
    <glyph glyph-name="Cacute" unicode="&#x106;" 
d="M551 1460h-12q-13 0 -7 13l156 290q7 11 12 11h13q13 0 6 -13l-156 -291q-7 -10 -12 -10zM561 -20q-166 0 -259 102t-93 285v637q0 183 93 285t259 102q120 0 200.5 -47t151.5 -152q6 -9 -2 -12l-12 -9q-3 -3 -10 7q-68 100 -143.5 143t-184.5 43q-152 0 -237.5 -95
t-85.5 -265v-637q0 -170 85.5 -265.5t237.5 -95.5q108 0 184 43.5t144 143.5q6 10 10 6l12 -9q8 -3 2 -12q-71 -105 -151 -151.5t-201 -46.5z" />
    <glyph glyph-name="cacute" unicode="&#x107;" 
d="M575 1231h-12q-12 0 -6 12l156 291q7 10 12 10h12q12 0 6 -12l-155 -291q-7 -10 -13 -10zM573 -23q-149 0 -233 92.5t-84 254.5v348q0 164 84.5 255t234.5 91q90 0 154 -32t123 -114q6 -8 0 -14l-8 -6q-7 -4 -13 2q-60 76 -118 105.5t-140 29.5q-137 0 -212.5 -83.5
t-75.5 -235.5v-344q0 -152 75.5 -236t212.5 -84q82 0 140 29.5t118 105.5q9 6 13 2l8 -6q6 -6 0 -14q-59 -82 -124 -114t-155 -32z" />
    <glyph glyph-name="Ccircumflex" unicode="&#x108;" 
d="M358 1481h-12q-13 0 -4 12l205 293q5 8 8 8h4q3 0 8 -8l213 -293q9 -12 -6 -12h-12q-4 0 -14 10l-191 264l-184 -264q-10 -10 -15 -10zM561 -20q-166 0 -259 102t-93 285v637q0 183 93 285t259 102q120 0 200.5 -47t151.5 -152q6 -9 -2 -12l-12 -9q-3 -3 -10 7
q-68 100 -143.5 143t-184.5 43q-152 0 -237.5 -95t-85.5 -265v-637q0 -170 85.5 -265.5t237.5 -95.5q108 0 184 43.5t144 143.5q6 10 10 6l12 -9q8 -3 2 -12q-71 -105 -151 -151.5t-201 -46.5z" />
    <glyph glyph-name="ccircumflex" unicode="&#x109;" 
d="M377 1231h-12q-14 0 -5 12l205 293q5 8 8 8h5q3 0 8 -8l213 -293q9 -12 -6 -12h-13q-4 0 -14 10l-191 264l-184 -264q-10 -10 -14 -10zM573 -23q-149 0 -233 92.5t-84 254.5v348q0 164 84.5 255t234.5 91q90 0 154 -32t123 -114q6 -8 0 -14l-8 -6q-7 -4 -13 2
q-60 76 -118 105.5t-140 29.5q-137 0 -212.5 -83.5t-75.5 -235.5v-344q0 -152 75.5 -236t212.5 -84q82 0 140 29.5t118 105.5q9 6 13 2l8 -6q6 -6 0 -14q-59 -82 -124 -114t-155 -32z" />
    <glyph glyph-name="Cdotaccent" unicode="&#x10a;" 
d="M565 1485h-10q-10 0 -10 10v137q0 10 10 10h10q10 0 10 -10v-137q0 -10 -10 -10zM561 -20q-166 0 -259 102t-93 285v637q0 183 93 285t259 102q120 0 200.5 -47t151.5 -152q6 -9 -2 -12l-12 -9q-3 -3 -10 7q-68 100 -143.5 143t-184.5 43q-152 0 -237.5 -95t-85.5 -265
v-637q0 -170 85.5 -265.5t237.5 -95.5q108 0 184 43.5t144 143.5q6 10 10 6l12 -9q8 -3 2 -12q-71 -105 -151 -151.5t-201 -46.5z" />
    <glyph glyph-name="cdotaccent" unicode="&#x10b;" 
d="M582 1231h-11q-10 0 -10 10v137q0 11 10 11h11q10 0 10 -11v-137q0 -10 -10 -10zM573 -23q-149 0 -233 92.5t-84 254.5v348q0 164 84.5 255t234.5 91q90 0 154 -32t123 -114q6 -8 0 -14l-8 -6q-7 -4 -13 2q-60 76 -118 105.5t-140 29.5q-137 0 -212.5 -83.5t-75.5 -235.5
v-344q0 -152 75.5 -236t212.5 -84q82 0 140 29.5t118 105.5q9 6 13 2l8 -6q6 -6 0 -14q-59 -82 -124 -114t-155 -32z" />
    <glyph glyph-name="Ccaron" unicode="&#x10c;" 
d="M559 1481h-4q-3 0 -8 8l-205 293q-9 12 4 12h12q5 0 15 -10l184 -264l191 264q10 10 14 10h12q15 0 6 -12l-213 -293q-5 -8 -8 -8zM561 -20q-166 0 -259 102t-93 285v637q0 183 93 285t259 102q120 0 200.5 -47t151.5 -152q6 -9 -2 -12l-12 -9q-3 -3 -10 7
q-68 100 -143.5 143t-184.5 43q-152 0 -237.5 -95t-85.5 -265v-637q0 -170 85.5 -265.5t237.5 -95.5q108 0 184 43.5t144 143.5q6 10 10 6l12 -9q8 -3 2 -12q-71 -105 -151 -151.5t-201 -46.5z" />
    <glyph glyph-name="ccaron" unicode="&#x10d;" 
d="M578 1231h-5q-3 0 -8 8l-205 293q-9 12 5 12h12q4 0 14 -10l184 -264l191 264q10 10 14 10h13q15 0 6 -12l-213 -293q-5 -8 -8 -8zM573 -23q-149 0 -233 92.5t-84 254.5v348q0 164 84.5 255t234.5 91q90 0 154 -32t123 -114q6 -8 0 -14l-8 -6q-7 -4 -13 2
q-60 76 -118 105.5t-140 29.5q-137 0 -212.5 -83.5t-75.5 -235.5v-344q0 -152 75.5 -236t212.5 -84q82 0 140 29.5t118 105.5q9 6 13 2l8 -6q6 -6 0 -14q-59 -82 -124 -114t-155 -32z" />
    <glyph glyph-name="Dcaron" unicode="&#x10e;" 
d="M522 1470l-205 293q-10 13 5 13h12q3 0 14 -11l184 -264l191 264q11 11 14 11h13q16 0 6 -13l-213 -293q-5 -8 -8 -8h-5q-3 0 -8 8zM205 1372h344q352 0 352 -401v-615q0 -168 -91.5 -262t-260.5 -94h-344q-10 0 -10 10v1352q0 10 10 10zM872 356v615q0 375 -323 375
h-326v-1319h326q159 0 241 85t82 244z" />
    <glyph glyph-name="dcaron" unicode="&#x10f;" 
d="M778 1516h8q11 0 11 -11v-1495q0 -10 -11 -10h-8q-10 0 -10 10v125q-36 -71 -112.5 -113t-178.5 -42q-158 0 -249 87.5t-91 237.5v387q0 150 91 238t249 88q102 0 178.5 -42.5t112.5 -113.5v643q0 11 10 11zM1051 1516h12q9 0 6 -13l-82 -291q-3 -10 -12 -10h-12
q-10 0 -7 12l82 291q4 11 13 11zM477 8q127 0 209 69.5t82 166.5v510q0 97 -82 166t-209 69q-145 0 -228 -80.5t-83 -216.5v-387q0 -136 83 -216.5t228 -80.5z" />
    <glyph glyph-name="Dcroat" unicode="&#x110;" 
d="M205 1372h344q352 0 352 -401v-615q0 -168 -91.5 -262t-260.5 -94h-344q-10 0 -10 10v664h-115q-10 0 -10 10v4q0 10 10 10h115v664q0 10 10 10zM872 356v615q0 375 -323 375h-326v-648h316q10 0 10 -10v-4q0 -10 -10 -10h-316v-647h326q159 0 241 85t82 244z" />
    <glyph glyph-name="dslash" unicode="&#x111;" 
d="M856 1264h225q11 0 11 -11v-4q0 -10 -11 -10h-225v-1229q0 -10 -10 -10h-8q-11 0 -11 10v125q-36 -71 -112 -113t-178 -42q-159 0 -249.5 92t-90.5 254v346q0 162 90.5 254t249.5 92q102 0 178 -42.5t112 -113.5v377h-225q-10 0 -10 10v4q0 11 10 11h225v241q0 11 11 11
h8q10 0 10 -11v-241zM537 8q127 0 208.5 69.5t81.5 166.5v510q0 97 -81.5 166t-208.5 69q-148 0 -230 -84t-82 -233v-346q0 -150 82.5 -234t229.5 -84z" />
    <glyph glyph-name="Emacron" unicode="&#x112;" 
d="M809 1524h-475q-10 0 -10 10v4q0 10 10 10h475q10 0 10 -10v-4q0 -10 -10 -10zM881 1346h-594v-639h534q10 0 10 -11v-6q0 -10 -10 -10h-534v-653h594q10 0 10 -11v-6q0 -10 -10 -10h-613q-10 0 -10 10v1352q0 10 10 10h613q10 0 10 -10v-6q0 -10 -10 -10z" />
    <glyph glyph-name="emacron" unicode="&#x113;" 
d="M788 1272h-475q-10 0 -10 10v4q0 10 10 10h475q11 0 11 -10v-4q0 -10 -11 -10zM551 1018q152 0 236.5 -91t84.5 -255v-178q0 -11 -10 -11h-600v-157q0 -152 79 -236t220 -84q81 0 142 31.5t124 105.5q6 6 13 2l8 -6q10 -3 0 -14q-118 -148 -287 -148q-155 0 -241.5 91.5
t-86.5 255.5v348q0 162 84.5 254t233.5 92zM262 670v-160h582v160q0 152 -77 236.5t-216 84.5q-137 0 -213 -84.5t-76 -236.5z" />
    <glyph glyph-name="Ebreve" unicode="&#x114;" 
d="M592 1491h-41q-88 0 -142.5 58.5t-54.5 154.5q0 10 11 10h4q10 0 10 -10q0 -85 47 -135.5t125 -50.5h41q78 0 125 50.5t47 135.5q0 10 10 10h4q10 0 10 -10q0 -96 -54 -154.5t-142 -58.5zM881 1346h-594v-639h534q10 0 10 -11v-6q0 -10 -10 -10h-534v-653h594
q10 0 10 -11v-6q0 -10 -10 -10h-613q-10 0 -10 10v1352q0 10 10 10h613q10 0 10 -10v-6q0 -10 -10 -10z" />
    <glyph glyph-name="ebreve" unicode="&#x115;" 
d="M569 1260h-41q-88 0 -142 58.5t-54 154.5q0 10 10 10h4q10 0 10 -10q0 -85 47 -136t125 -51h41q78 0 125 51t47 136q0 10 11 10h4q10 0 10 -10q0 -96 -54.5 -154.5t-142.5 -58.5zM551 1018q152 0 236.5 -91t84.5 -255v-178q0 -11 -10 -11h-600v-157q0 -152 79 -236
t220 -84q81 0 142 31.5t124 105.5q6 6 13 2l8 -6q10 -3 0 -14q-118 -148 -287 -148q-155 0 -241.5 91.5t-86.5 255.5v348q0 162 84.5 254t233.5 92zM262 670v-160h582v160q0 152 -77 236.5t-216 84.5q-137 0 -213 -84.5t-76 -236.5z" />
    <glyph glyph-name="Edotaccent" unicode="&#x116;" 
d="M575 1466h-10q-10 0 -10 11v137q0 10 10 10h10q11 0 11 -10v-137q0 -11 -11 -11zM881 1346h-594v-639h534q10 0 10 -11v-6q0 -10 -10 -10h-534v-653h594q10 0 10 -11v-6q0 -10 -10 -10h-613q-10 0 -10 10v1352q0 10 10 10h613q10 0 10 -10v-6q0 -10 -10 -10z" />
    <glyph glyph-name="edotaccent" unicode="&#x117;" 
d="M557 1231h-10q-10 0 -10 10v137q0 11 10 11h10q10 0 10 -11v-137q0 -10 -10 -10zM551 1018q152 0 236.5 -91t84.5 -255v-178q0 -11 -10 -11h-600v-157q0 -152 79 -236t220 -84q81 0 142 31.5t124 105.5q6 6 13 2l8 -6q10 -3 0 -14q-118 -148 -287 -148
q-155 0 -241.5 91.5t-86.5 255.5v348q0 162 84.5 254t233.5 92zM262 670v-160h582v160q0 152 -77 236.5t-216 84.5q-137 0 -213 -84.5t-76 -236.5z" />
    <glyph glyph-name="Eogonek" unicode="&#x118;" 
d="M856 -350h41q10 0 10 -10v-5q0 -10 -10 -10h-41q-74 0 -116 41t-42 113q0 118 148 221h-578q-10 0 -10 10v1352q0 10 10 10h613q10 0 10 -10v-6q0 -10 -10 -10h-594v-639h534q10 0 10 -11v-6q0 -10 -10 -10h-534v-653h594q10 0 10 -11v-6q0 -10 -10 -10
q-156 -108 -156 -221q0 -129 131 -129z" />
    <glyph glyph-name="eogonek" unicode="&#x119;" 
d="M551 1018q152 0 236.5 -91t84.5 -255v-178q0 -11 -10 -11h-600v-157q0 -152 79 -236t220 -84q81 0 142 31.5t124 105.5q6 6 13 2l8 -6q10 -3 0 -14q-59 -72 -125 -111q-148 -106 -148 -215q0 -129 132 -129h41q10 0 10 -10v-4q0 -10 -10 -10h-41q-74 0 -116 40.5
t-42 112.5q0 98 104 189q-57 -11 -92 -11q-155 0 -241.5 91.5t-86.5 255.5v348q0 162 84.5 254t233.5 92zM262 670v-160h582v160q0 152 -77 236.5t-216 84.5q-137 0 -213 -84.5t-76 -236.5z" />
    <glyph glyph-name="Ecaron" unicode="&#x11a;" 
d="M557 1470l-205 293q-10 13 4 13h13q3 0 14 -11l184 -264l191 264q11 11 14 11h12q17 0 7 -13l-213 -293q-5 -8 -9 -8h-4q-3 0 -8 8zM881 1346h-594v-639h534q10 0 10 -11v-6q0 -10 -10 -10h-534v-653h594q10 0 10 -11v-6q0 -10 -10 -10h-613q-10 0 -10 10v1352
q0 10 10 10h613q10 0 10 -10v-6q0 -10 -10 -10z" />
    <glyph glyph-name="ecaron" unicode="&#x11b;" 
d="M541 1239l-205 293q-9 12 4 12h12q5 0 15 -10l184 -264l190 264q10 10 15 10h12q15 0 6 -12l-213 -293q-5 -8 -8 -8h-4q-3 0 -8 8zM551 1018q152 0 236.5 -91t84.5 -255v-178q0 -11 -10 -11h-600v-157q0 -152 79 -236t220 -84q81 0 142 31.5t124 105.5q6 6 13 2l8 -6
q10 -3 0 -14q-118 -148 -287 -148q-155 0 -241.5 91.5t-86.5 255.5v348q0 162 84.5 254t233.5 92zM262 670v-160h582v160q0 152 -77 236.5t-216 84.5q-137 0 -213 -84.5t-76 -236.5z" />
    <glyph glyph-name="Gcircumflex" unicode="&#x11c;" 
d="M358 1481h-12q-13 0 -4 12l205 293q5 8 8 8h4q3 0 8 -8l213 -293q9 -12 -6 -12h-12q-4 0 -14 10l-191 264l-184 -264q-10 -10 -15 -10zM561 1364q-152 0 -237.5 -95t-85.5 -265v-637q0 -170 85.5 -265.5t237.5 -95.5t238 95.5t86 265.5v313h-328q-10 0 -10 10v6
q0 11 10 11h346q10 0 10 -11v-329q0 -183 -93 -285t-259 -102t-259 102t-93 285v637q0 183 93 285t259 102q120 0 200.5 -47t151.5 -152q6 -9 -2 -12l-12 -9q-3 -3 -10 7q-68 100 -143.5 143t-184.5 43z" />
    <glyph glyph-name="gcircumflex" unicode="&#x11d;" 
d="M332 1231h-13q-13 0 -4 12l205 293q5 8 8 8h4q4 0 9 -8l213 -293q9 -12 -6 -12h-13q-4 0 -14 10l-191 264l-184 -264q-10 -10 -14 -10zM831 989h9q10 0 10 -10v-1063q0 -169 -85.5 -257.5t-244.5 -88.5q-99 0 -169 30.5t-138 116.5q-11 11 0 15l6 4q7 3 12 -2
q73 -88 131 -111q58 -24 158 -24q301 0 301 319v217q-36 -71 -112.5 -113t-178.5 -42q-159 0 -249.5 92t-90.5 254v346q0 162 90.5 254t249.5 92q102 0 178.5 -42.5t112.5 -113.5v117q0 10 10 10zM530 8q127 0 209 69.5t82 166.5v510q0 97 -82 166t-209 69
q-147 0 -229 -83.5t-82 -233.5v-346q0 -150 82 -234t229 -84z" />
    <glyph glyph-name="Gbreve" unicode="&#x11e;" 
d="M582 1509h-41q-88 0 -142.5 58.5t-54.5 154.5q0 11 10 11h4q11 0 11 -11q0 -85 47 -135.5t125 -50.5h41q78 0 125 50.5t47 135.5q0 11 10 11h4q10 0 10 -11q0 -96 -54 -154.5t-142 -58.5zM561 1364q-152 0 -237.5 -95t-85.5 -265v-637q0 -170 85.5 -265.5t237.5 -95.5
t238 95.5t86 265.5v313h-328q-10 0 -10 10v6q0 11 10 11h346q10 0 10 -11v-329q0 -183 -93 -285t-259 -102t-259 102t-93 285v637q0 183 93 285t259 102q120 0 200.5 -47t151.5 -152q6 -9 -2 -12l-12 -9q-3 -3 -10 7q-68 100 -143.5 143t-184.5 43z" />
    <glyph glyph-name="gbreve" unicode="&#x11f;" 
d="M549 1260h-41q-88 0 -142.5 58.5t-54.5 154.5q0 10 11 10h4q10 0 10 -10q0 -85 47 -136t125 -51h41q78 0 125 51t47 136q0 10 10 10h4q10 0 10 -10q0 -96 -54 -154.5t-142 -58.5zM831 989h9q10 0 10 -10v-1063q0 -169 -85.5 -257.5t-244.5 -88.5q-99 0 -169 30.5
t-138 116.5q-11 11 0 15l6 4q7 3 12 -2q73 -88 131 -111q58 -24 158 -24q301 0 301 319v217q-36 -71 -112.5 -113t-178.5 -42q-159 0 -249.5 92t-90.5 254v346q0 162 90.5 254t249.5 92q102 0 178.5 -42.5t112.5 -113.5v117q0 10 10 10zM530 8q127 0 209 69.5t82 166.5v510
q0 97 -82 166t-209 69q-147 0 -229 -83.5t-82 -233.5v-346q0 -150 82 -234t229 -84z" />
    <glyph glyph-name="Gdotaccent" unicode="&#x120;" 
d="M565 1485h-10q-10 0 -10 10v137q0 10 10 10h10q10 0 10 -10v-137q0 -10 -10 -10zM561 1364q-152 0 -237.5 -95t-85.5 -265v-637q0 -170 85.5 -265.5t237.5 -95.5t238 95.5t86 265.5v313h-328q-10 0 -10 10v6q0 11 10 11h346q10 0 10 -11v-329q0 -183 -93 -285t-259 -102
t-259 102t-93 285v637q0 183 93 285t259 102q120 0 200.5 -47t151.5 -152q6 -9 -2 -12l-12 -9q-3 -3 -10 7q-68 100 -143.5 143t-184.5 43z" />
    <glyph glyph-name="gdotaccent" unicode="&#x121;" 
d="M537 1231h-11q-10 0 -10 10v137q0 11 10 11h11q10 0 10 -11v-137q0 -10 -10 -10zM831 989h9q10 0 10 -10v-1063q0 -169 -85.5 -257.5t-244.5 -88.5q-99 0 -169 30.5t-138 116.5q-11 11 0 15l6 4q7 3 12 -2q73 -88 131 -111q58 -24 158 -24q301 0 301 319v217
q-36 -71 -112.5 -113t-178.5 -42q-159 0 -249.5 92t-90.5 254v346q0 162 90.5 254t249.5 92q102 0 178.5 -42.5t112.5 -113.5v117q0 10 10 10zM530 8q127 0 209 69.5t82 166.5v510q0 97 -82 166t-209 69q-147 0 -229 -83.5t-82 -233.5v-346q0 -150 82 -234t229 -84z" />
    <glyph glyph-name="uni0122" unicode="&#x122;" 
d="M561 1364q-152 0 -237.5 -95t-85.5 -265v-637q0 -170 85.5 -265.5t237.5 -95.5t238 95.5t86 265.5v313h-328q-10 0 -10 10v6q0 11 10 11h346q10 0 10 -11v-329q0 -183 -93 -285t-259 -102t-259 102t-93 285v637q0 183 93 285t259 102q120 0 200.5 -47t151.5 -152
q6 -9 -2 -12l-12 -9q-3 -3 -10 7q-68 100 -143.5 143t-184.5 43zM539 -113h12q12 0 6 -12l-162 -301q-7 -10 -12 -10h-12q-12 0 -6 12l161 301q7 10 13 10z" />
    </font>
</defs>
</svg>
