<?xml version="1.0" standalone="no"?>
<!DOCTYPE svg PUBLIC "-//W3C//DTD SVG 1.1//EN" "http://www.w3.org/Graphics/SVG/1.1/DTD/svg11.dtd" >
<svg xmlns="http://www.w3.org/2000/svg" xmlns:xlink="http://www.w3.org/1999/xlink" version="1.1">
<metadata>
Created by FontForge 20201107 at Tue Jan  2 14:27:31 2024
 By 
Copyright (c) 2019 by 29Letters. All rights reserved.
</metadata>
<defs>
<font id="29LTBaseet-Bold" horiz-adv-x="1073" >
  <font-face 
    font-family="29LT Baseet Bold"
    font-weight="700"
    font-stretch="normal"
    units-per-em="2048"
    panose-1="0 0 8 0 0 0 0 0 0 0"
    ascent="1516"
    descent="-532"
    x-height="1069"
    cap-height="1372"
    bbox="-1051 -1058.09 3193 2245"
    underline-thickness="102"
    underline-position="-307"
    unicode-range="U+000D-FEFC"
  />
<missing-glyph horiz-adv-x="0" 
 />
    <glyph glyph-name="fi" unicode="fi" 
d="M401 1069h500q26 0 46 -19.5t20 -45.5v-941q0 -26 -19.5 -44.5t-46.5 -18.5h-98q-26 0 -45 18.5t-19 44.5v799h-338v-799q0 -26 -19.5 -44.5t-45.5 -18.5h-98q-26 0 -45 18.5t-19 44.5v799h-70q-26 0 -45.5 20t-19.5 46v76q0 26 19.5 45.5t45.5 19.5h70v21q0 446 399 446
q208 0 328 -141q14 -20 10.5 -45.5t-22.5 -42.5l-53 -39q-26 -16 -39.5 -19t-24.5 1t-43 22q-74 59 -156 59q-169 0 -172 -207v-55z" />
    <glyph glyph-name="fl" unicode="fl" 
d="M567 1536q398 0 398 -446v-1027q0 -26 -19 -44.5t-45 -18.5h-100q-26 0 -45 18.5t-19 44.5v1061q0 98 -44 152.5t-124 54.5q-165 0 -168 -207v-55h150q26 0 44.5 -19.5t18.5 -45.5v-76q0 -27 -18.5 -46.5t-44.5 -19.5h-150v-799q0 -26 -19.5 -44.5t-45.5 -18.5h-98
q-26 0 -45 18.5t-19 44.5v799h-70q-26 0 -45.5 20t-19.5 46v76q0 26 19.5 45.5t45.5 19.5h70v21q0 446 393 446z" />
    <glyph glyph-name="uniFC64" unicode="&#xfe8c;&#xfeae;" horiz-adv-x="1478" arabic-form="final" 
d="M1362 1192h-391q-19 0 -31 12t-12 31v68q0 18 12.5 31.5t30.5 13.5h39q-11 37 -11 57v51q0 91 61 151t152 60h21q87 0 153 -63q36 -31 3 -64l-41 -43q-35 -35 -70 -4q-18 18 -45 18h-21q-25 0 -41 -16t-16 -39v-41q0 -30 15.5 -48.5t41.5 -18.5h150q18 0 31.5 -15
t13.5 -30v-68q0 -19 -13 -31t-32 -12zM1446 229h33q20 0 33.5 -14.5t13.5 -34.5v-131q0 -20 -13.5 -34.5t-33.5 -14.5h-31q-206 0 -301.5 97t-95.5 292v324h-447v-740q0 -204 -96.5 -309.5t-282.5 -105.5h-20q-146 0 -256 98q-21 18 -25 44t13 50l51 64q37 45 86 8
q43 -37 129 -37h24q80 0 115 43.5t35 142.5v908q0 26 18.5 44.5t44.5 18.5h611v62q0 26 19.5 45.5t45.5 19.5h98q26 0 45 -19.5t19 -45.5v-615q0 -160 168 -160z" />
    <glyph glyph-name="uniFC65" unicode="&#xfe8c;&#xfeb0;" horiz-adv-x="1478" arabic-form="final" 
d="M1362 1192h-391q-19 0 -31 12t-12 31v68q0 18 12.5 31.5t30.5 13.5h39q-11 37 -11 57v51q0 91 61 151t152 60h21q87 0 153 -63q36 -31 3 -64l-41 -43q-35 -35 -70 -4q-18 18 -45 18h-21q-25 0 -41 -16t-16 -39v-41q0 -30 15.5 -48.5t41.5 -18.5h150q18 0 31.5 -15
t13.5 -30v-68q0 -19 -13 -31t-32 -12zM563 1087h-137q-20 0 -33.5 14.5t-13.5 35.5v141q0 20 13.5 32.5t33.5 12.5h137q45 0 45 -45v-141q0 -21 -12.5 -35.5t-32.5 -14.5zM1446 229h33q20 0 33.5 -14.5t13.5 -34.5v-131q0 -20 -13.5 -34.5t-33.5 -14.5h-31q-206 0 -301.5 97
t-95.5 292v324h-447v-740q0 -204 -96.5 -309.5t-282.5 -105.5h-20q-146 0 -256 98q-21 18 -25 44t13 50l51 64q37 45 86 8q43 -37 129 -37h24q80 0 115 43.5t35 142.5v908q0 26 18.5 44.5t44.5 18.5h611v62q0 26 19.5 45.5t45.5 19.5h98q26 0 45 -19.5t19 -45.5v-615
q0 -160 168 -160z" />
    <glyph glyph-name="uniFC67" unicode="&#xfe8c;&#xfee6;" horiz-adv-x="2084" arabic-form="final" 
d="M1968 1061h-391q-19 0 -31 12t-12 31v67q0 18 12.5 32t30.5 14h39q-10 33 -10 57v51q0 91 61 151t152 60h20q88 0 154 -63q35 -31 2 -64l-41 -43q-35 -35 -70 -4q-18 18 -45 18h-20q-25 0 -41.5 -16t-16.5 -39v-41q0 -30 16 -48.5t42 -18.5h149q18 0 31.5 -15.5
t13.5 -30.5v-67q0 -19 -13 -31t-32 -12zM2052 229h33q20 0 33.5 -14.5t13.5 -34.5v-131q0 -20 -13.5 -34.5t-33.5 -14.5h-31q-206 0 -300.5 96.5t-94.5 292.5v195h-434v-627q0 -395 -408 -395h-231q-211 0 -326 127t-115 307q0 213 121 387q40 55 90 18l74 -49
q20 -13 25.5 -40.5t-6.5 -47.5q-76 -119 -76 -239q0 -112 56.5 -174t156.5 -62h233q178 0 178 166v793q0 26 19 44.5t45 18.5h598v61q0 26 18.5 45t44.5 19h99q26 0 44.5 -19t18.5 -45v-483q0 -160 168 -160zM743 672h-137q-20 0 -33.5 14.5t-13.5 34.5v141q0 20 13.5 32.5
t33.5 12.5h137q45 0 45 -45v-141q0 -21 -12.5 -35t-32.5 -14z" />
    <glyph glyph-name="uniFC68" unicode="&#xfe8c;&#xfef0;" horiz-adv-x="2148" arabic-form="final" 
d="M2036 1192h-391q-19 0 -31 12t-12 31v68q0 18 12.5 31.5t30.5 13.5h38q-10 33 -10 57v51q0 91 61 151t152 60h21q87 0 153 -63q35 -31 2 -64l-41 -43q-34 -34 -69 -4q-18 18 -45 18h-21q-25 0 -41 -16t-16 -39v-41q0 -30 15.5 -48.5t41.5 -18.5h150q18 0 31.5 -15
t13.5 -30v-68q0 -19 -12.5 -31t-32.5 -12zM2116 229h32q20 0 33.5 -14.5t13.5 -34.5v-131q0 -20 -13.5 -34.5t-33.5 -14.5h-30q-206 0 -302 97t-96 292v324h-323q-172 0 -172 -178v-580q0 -395 -408 -395h-231q-211 0 -326 127t-115 307q0 210 121 387q40 55 90 18l74 -49
q20 -13 25.5 -40t-6.5 -50q-76 -119 -76 -240q0 -112 56 -172.5t157 -60.5h233q178 0 178 166v582q0 407 400 407h323v62q0 26 20 45.5t46 19.5h98q26 0 45 -19.5t19 -45.5v-615q0 -160 168 -160z" />
    <glyph glyph-name="uniFC69" unicode="&#xfe8c;&#xfef2;" horiz-adv-x="2148" arabic-form="final" 
d="M2036 1192h-391q-19 0 -31 12t-12 31v68q0 18 12.5 31.5t30.5 13.5h38q-10 33 -10 57v51q0 91 61 151t152 60h21q87 0 153 -63q35 -31 2 -64l-41 -43q-34 -34 -69 -4q-18 18 -45 18h-21q-25 0 -41 -16t-16 -39v-41q0 -30 15.5 -48.5t41.5 -18.5h150q18 0 31.5 -15
t13.5 -30v-68q0 -19 -12.5 -31t-32.5 -12zM2116 229h32q20 0 33.5 -14.5t13.5 -34.5v-131q0 -20 -13.5 -34.5t-33.5 -14.5h-30q-206 0 -302 97t-96 292v324h-323q-172 0 -172 -178v-580q0 -395 -408 -395h-231q-211 0 -326 127t-115 307q0 210 121 387q40 55 90 18l74 -49
q20 -13 25.5 -40t-6.5 -50q-76 -119 -76 -240q0 -112 56 -172.5t157 -60.5h233q178 0 178 166v582q0 407 400 407h323v62q0 26 20 45.5t46 19.5h98q26 0 45 -19.5t19 -45.5v-615q0 -160 168 -160zM451 -590h133q19 0 31 -12t12 -29v-141q0 -19 -12.5 -33t-30.5 -14h-133
q-19 0 -33.5 14t-14.5 33v141q0 17 14.5 29t33.5 12zM791 -590h131q19 0 31 -12t12 -29v-141q0 -19 -12.5 -33t-30.5 -14h-131q-20 0 -34 14t-14 33v141q0 17 14 29t34 12z" />
    <glyph glyph-name="uniFC6A" unicode="&#xfe92;&#xfeae;" horiz-adv-x="1478" arabic-form="final" 
d="M1446 229h33q20 0 33.5 -14.5t13.5 -34.5v-131q0 -20 -13.5 -34.5t-33.5 -14.5h-31q-206 0 -301.5 97t-95.5 292v324h-447v-740q0 -204 -96.5 -309.5t-282.5 -105.5h-20q-146 0 -256 98q-21 18 -25 44t13 50l51 64q37 45 86 8q43 -37 129 -37h24q80 0 115 43.5t35 142.5
v908q0 26 18.5 44.5t44.5 18.5h611v62q0 26 19.5 45.5t45.5 19.5h98q26 0 45 -19.5t19 -45.5v-615q0 -160 168 -160zM850 -147h137q20 0 32.5 -12t12.5 -31v-144q0 -20 -12.5 -33.5t-32.5 -13.5h-137q-20 0 -33.5 13.5t-13.5 33.5v144q0 19 13.5 31t33.5 12z" />
    <glyph glyph-name="uniFC6B" unicode="&#xfe92;&#xfeb0;" horiz-adv-x="1478" arabic-form="final" 
d="M563 1087h-137q-20 0 -33.5 14.5t-13.5 35.5v141q0 20 13.5 32.5t33.5 12.5h137q45 0 45 -45v-141q0 -21 -12.5 -35.5t-32.5 -14.5zM1446 229h33q20 0 33.5 -14.5t13.5 -34.5v-131q0 -20 -13.5 -34.5t-33.5 -14.5h-31q-206 0 -301.5 97t-95.5 292v324h-447v-740
q0 -204 -96.5 -309.5t-282.5 -105.5h-20q-146 0 -256 98q-21 18 -25 44t13 50l51 64q37 45 86 8q43 -37 129 -37h24q80 0 115 43.5t35 142.5v908q0 26 18.5 44.5t44.5 18.5h611v62q0 26 19.5 45.5t45.5 19.5h98q26 0 45 -19.5t19 -45.5v-615q0 -160 168 -160zM850 -147h137
q20 0 32.5 -12t12.5 -31v-144q0 -20 -12.5 -33.5t-32.5 -13.5h-137q-20 0 -33.5 13.5t-13.5 33.5v144q0 19 13.5 31t33.5 12z" />
    <glyph glyph-name="uniFC6D" unicode="&#xfe92;&#xfee6;" horiz-adv-x="2084" arabic-form="final" 
d="M2052 229h33q20 0 33.5 -14.5t13.5 -34.5v-131q0 -20 -13.5 -34.5t-33.5 -14.5h-31q-206 0 -300.5 96.5t-94.5 292.5v195h-434v-627q0 -395 -408 -395h-231q-211 0 -326 127t-115 307q0 213 121 387q40 55 90 18l74 -49q20 -13 25.5 -40.5t-6.5 -47.5q-76 -119 -76 -239
q0 -112 56.5 -174t156.5 -62h233q178 0 178 166v793q0 26 19 44.5t45 18.5h598v61q0 26 18.5 45t44.5 19h99q26 0 44.5 -19t18.5 -45v-483q0 -160 168 -160zM743 672h-137q-20 0 -33.5 14.5t-13.5 34.5v141q0 20 13.5 32.5t33.5 12.5h137q45 0 45 -45v-141q0 -21 -12.5 -35
t-32.5 -14zM1491 -147h137q20 0 32.5 -12t12.5 -31v-144q0 -20 -12.5 -33.5t-32.5 -13.5h-137q-20 0 -33.5 13.5t-13.5 33.5v144q0 19 13.5 31t33.5 12z" />
    <glyph glyph-name="uniFC6E" unicode="&#xfe92;&#xfef0;" horiz-adv-x="2148" arabic-form="final" 
d="M2116 229h32q20 0 33.5 -14.5t13.5 -34.5v-131q0 -20 -13.5 -34.5t-33.5 -14.5h-30q-206 0 -302 97t-96 292v324h-323q-172 0 -172 -178v-580q0 -395 -408 -395h-231q-211 0 -326 127t-115 307q0 210 121 387q40 55 90 18l74 -49q20 -13 25.5 -40t-6.5 -50
q-76 -119 -76 -240q0 -112 56 -172.5t157 -60.5h233q178 0 178 166v582q0 407 400 407h323v62q0 26 20 45.5t46 19.5h98q26 0 45 -19.5t19 -45.5v-615q0 -160 168 -160zM1513 -147h138q20 0 32.5 -12t12.5 -31v-144q0 -20 -12.5 -33.5t-32.5 -13.5h-138q-20 0 -33.5 13.5
t-13.5 33.5v144q0 19 13.5 31t33.5 12z" />
    <glyph glyph-name="uniFC6F" unicode="&#xfe92;&#xfef2;" horiz-adv-x="2148" arabic-form="final" 
d="M2116 229h32q20 0 33.5 -14.5t13.5 -34.5v-131q0 -20 -13.5 -34.5t-33.5 -14.5h-30q-206 0 -302 97t-96 292v324h-323q-172 0 -172 -178v-580q0 -395 -408 -395h-231q-211 0 -326 127t-115 307q0 210 121 387q40 55 90 18l74 -49q20 -13 25.5 -40t-6.5 -50
q-76 -119 -76 -240q0 -112 56 -172.5t157 -60.5h233q178 0 178 166v582q0 407 400 407h323v62q0 26 20 45.5t46 19.5h98q26 0 45 -19.5t19 -45.5v-615q0 -160 168 -160zM1513 -147h138q20 0 32.5 -12t12.5 -31v-144q0 -20 -12.5 -33.5t-32.5 -13.5h-138q-20 0 -33.5 13.5
t-13.5 33.5v144q0 19 13.5 31t33.5 12zM451 -590h133q19 0 31 -12t12 -29v-141q0 -19 -12.5 -33t-30.5 -14h-133q-19 0 -33.5 14t-14.5 33v141q0 17 14.5 29t33.5 12zM791 -590h131q19 0 31 -12t12 -29v-141q0 -19 -12.5 -33t-30.5 -14h-131q-20 0 -34 14t-14 33v141
q0 17 14 29t34 12z" />
    <glyph glyph-name="uniFC70" unicode="&#xfe98;&#xfeae;" horiz-adv-x="1478" arabic-form="final" 
d="M1065 1214h-131q-20 0 -33.5 14.5t-13.5 33.5v139q0 19 13.5 31t33.5 12h131q19 0 32 -12t13 -31v-139q0 -19 -13.5 -33.5t-31.5 -14.5zM1403 1214h-131q-19 0 -33 14.5t-14 33.5v139q0 18 14 30.5t33 12.5h131q20 0 32.5 -12t12.5 -31v-139q0 -19 -13.5 -33.5
t-31.5 -14.5zM1446 229h33q20 0 33.5 -14.5t13.5 -34.5v-131q0 -20 -13.5 -34.5t-33.5 -14.5h-31q-206 0 -301.5 97t-95.5 292v324h-447v-740q0 -204 -96.5 -309.5t-282.5 -105.5h-20q-146 0 -256 98q-21 18 -25 44t13 50l51 64q37 45 86 8q43 -37 129 -37h24q80 0 115 43.5
t35 142.5v908q0 26 18.5 44.5t44.5 18.5h611v62q0 26 19.5 45.5t45.5 19.5h98q26 0 45 -19.5t19 -45.5v-615q0 -160 168 -160z" />
    <glyph glyph-name="uniFC71" unicode="&#xfe98;&#xfeb0;" horiz-adv-x="1478" arabic-form="final" 
d="M1065 1214h-131q-20 0 -33.5 14.5t-13.5 33.5v139q0 19 13.5 31t33.5 12h131q19 0 32 -12t13 -31v-139q0 -19 -13.5 -33.5t-31.5 -14.5zM1403 1214h-131q-19 0 -33 14.5t-14 33.5v139q0 18 14 30.5t33 12.5h131q20 0 32.5 -12t12.5 -31v-139q0 -19 -13.5 -33.5
t-31.5 -14.5zM563 1087h-137q-20 0 -33.5 14.5t-13.5 35.5v141q0 20 13.5 32.5t33.5 12.5h137q45 0 45 -45v-141q0 -21 -12.5 -35.5t-32.5 -14.5zM1446 229h33q20 0 33.5 -14.5t13.5 -34.5v-131q0 -20 -13.5 -34.5t-33.5 -14.5h-31q-206 0 -301.5 97t-95.5 292v324h-447
v-740q0 -204 -96.5 -309.5t-282.5 -105.5h-20q-146 0 -256 98q-21 18 -25 44t13 50l51 64q37 45 86 8q43 -37 129 -37h24q80 0 115 43.5t35 142.5v908q0 26 18.5 44.5t44.5 18.5h611v62q0 26 19.5 45.5t45.5 19.5h98q26 0 45 -19.5t19 -45.5v-615q0 -160 168 -160z" />
    <glyph glyph-name="uniFC73" unicode="&#xfe98;&#xfee6;" horiz-adv-x="2084" arabic-form="final" 
d="M1671 1083h-131q-20 0 -33.5 14t-13.5 33v140q0 19 13.5 31t33.5 12h131q19 0 32 -12t13 -31v-140q0 -19 -13 -33t-32 -14zM2009 1083h-131q-19 0 -33 14t-14 33v140q0 18 14 30.5t33 12.5h131q20 0 32.5 -12t12.5 -31v-140q0 -19 -13 -33t-32 -14zM2052 229h33
q20 0 33.5 -14.5t13.5 -34.5v-131q0 -20 -13.5 -34.5t-33.5 -14.5h-31q-206 0 -300.5 96.5t-94.5 292.5v195h-434v-627q0 -395 -408 -395h-231q-211 0 -326 127t-115 307q0 213 121 387q40 55 90 18l74 -49q20 -13 25.5 -40.5t-6.5 -47.5q-76 -119 -76 -239
q0 -112 56.5 -174t156.5 -62h233q178 0 178 166v793q0 26 19 44.5t45 18.5h598v61q0 26 18.5 45t44.5 19h99q26 0 44.5 -19t18.5 -45v-483q0 -160 168 -160zM743 672h-137q-20 0 -33.5 14.5t-13.5 34.5v141q0 20 13.5 32.5t33.5 12.5h137q45 0 45 -45v-141q0 -21 -12.5 -35
t-32.5 -14z" />
    <glyph glyph-name="uniFC74" unicode="&#xfe98;&#xfef0;" horiz-adv-x="2148" arabic-form="final" 
d="M1739 1214h-131q-20 0 -33.5 14.5t-13.5 33.5v139q0 19 13.5 31t33.5 12h131q19 0 32 -12t13 -31v-139q0 -19 -13.5 -33.5t-31.5 -14.5zM2077 1214h-131q-19 0 -33.5 14.5t-14.5 33.5v139q0 18 14.5 30.5t33.5 12.5h131q20 0 32.5 -12t12.5 -31v-139q0 -19 -13.5 -33.5
t-31.5 -14.5zM2116 229h32q20 0 33.5 -14.5t13.5 -34.5v-131q0 -20 -13.5 -34.5t-33.5 -14.5h-30q-206 0 -302 97t-96 292v324h-323q-172 0 -172 -178v-580q0 -395 -408 -395h-231q-211 0 -326 127t-115 307q0 210 121 387q40 55 90 18l74 -49q20 -13 25.5 -40t-6.5 -50
q-76 -119 -76 -240q0 -112 56 -172.5t157 -60.5h233q178 0 178 166v582q0 407 400 407h323v62q0 26 20 45.5t46 19.5h98q26 0 45 -19.5t19 -45.5v-615q0 -160 168 -160z" />
    <glyph glyph-name="uniFC75" unicode="&#xfe98;&#xfef2;" horiz-adv-x="2148" arabic-form="final" 
d="M1739 1214h-131q-20 0 -33.5 14.5t-13.5 33.5v139q0 19 13.5 31t33.5 12h131q19 0 32 -12t13 -31v-139q0 -19 -13.5 -33.5t-31.5 -14.5zM2077 1214h-131q-19 0 -33.5 14.5t-14.5 33.5v139q0 18 14.5 30.5t33.5 12.5h131q20 0 32.5 -12t12.5 -31v-139q0 -19 -13.5 -33.5
t-31.5 -14.5zM2116 229h32q20 0 33.5 -14.5t13.5 -34.5v-131q0 -20 -13.5 -34.5t-33.5 -14.5h-30q-206 0 -302 97t-96 292v324h-323q-172 0 -172 -178v-580q0 -395 -408 -395h-231q-211 0 -326 127t-115 307q0 210 121 387q40 55 90 18l74 -49q20 -13 25.5 -40t-6.5 -50
q-76 -119 -76 -240q0 -112 56 -172.5t157 -60.5h233q178 0 178 166v582q0 407 400 407h323v62q0 26 20 45.5t46 19.5h98q26 0 45 -19.5t19 -45.5v-615q0 -160 168 -160zM451 -590h133q19 0 31 -12t12 -29v-141q0 -19 -12.5 -33t-30.5 -14h-133q-19 0 -33.5 14t-14.5 33v141
q0 17 14.5 29t33.5 12zM791 -590h131q19 0 31 -12t12 -29v-141q0 -19 -12.5 -33t-30.5 -14h-131q-20 0 -34 14t-14 33v141q0 17 14 29t34 12z" />
    <glyph glyph-name="uniFC76" unicode="&#xfe9c;&#xfeae;" horiz-adv-x="1478" arabic-form="final" 
d="M1229 1503h-121q-41 0 -41 37v117q0 17 12 28t29 11h121q39 0 39 -39v-117q0 -37 -39 -37zM1067 1214h-131q-20 0 -33.5 12t-13.5 31v140q0 19 13.5 33t33.5 14h131q18 0 30.5 -14t12.5 -33v-140q0 -19 -12 -31t-31 -12zM1227 1257v140q0 19 14 33t33 14h131q19 0 32 -14
t13 -33v-140q0 -19 -12.5 -31t-32.5 -12h-131q-19 0 -33 12.5t-14 30.5zM1446 229h33q20 0 33.5 -14.5t13.5 -34.5v-131q0 -20 -13.5 -34.5t-33.5 -14.5h-31q-206 0 -301.5 97t-95.5 292v324h-447v-740q0 -204 -96.5 -309.5t-282.5 -105.5h-20q-146 0 -256 98q-21 18 -25 44
t13 50l51 64q37 45 86 8q43 -37 129 -37h24q80 0 115 43.5t35 142.5v908q0 26 18.5 44.5t44.5 18.5h611v62q0 26 19.5 45.5t45.5 19.5h98q26 0 45 -19.5t19 -45.5v-615q0 -160 168 -160z" />
    <glyph glyph-name="uniFC77" unicode="&#xfe9c;&#xfeb0;" horiz-adv-x="1478" arabic-form="final" 
d="M1229 1503h-121q-41 0 -41 37v117q0 17 12 28t29 11h121q39 0 39 -39v-117q0 -37 -39 -37zM1067 1214h-131q-20 0 -33.5 12t-13.5 31v140q0 19 13.5 33t33.5 14h131q18 0 30.5 -14t12.5 -33v-140q0 -19 -12 -31t-31 -12zM1227 1257v140q0 19 14 33t33 14h131q19 0 32 -14
t13 -33v-140q0 -19 -12.5 -31t-32.5 -12h-131q-19 0 -33 12.5t-14 30.5zM563 1087h-137q-20 0 -33.5 14.5t-13.5 35.5v141q0 20 13.5 32.5t33.5 12.5h137q45 0 45 -45v-141q0 -21 -12.5 -35.5t-32.5 -14.5zM1446 229h33q20 0 33.5 -14.5t13.5 -34.5v-131q0 -20 -13.5 -34.5
t-33.5 -14.5h-31q-206 0 -301.5 97t-95.5 292v324h-447v-740q0 -204 -96.5 -309.5t-282.5 -105.5h-20q-146 0 -256 98q-21 18 -25 44t13 50l51 64q37 45 86 8q43 -37 129 -37h24q80 0 115 43.5t35 142.5v908q0 26 18.5 44.5t44.5 18.5h611v62q0 26 19.5 45.5t45.5 19.5h98
q26 0 45 -19.5t19 -45.5v-615q0 -160 168 -160z" />
    <glyph glyph-name="uniFC79" unicode="&#xfe9c;&#xfee6;" horiz-adv-x="2084" arabic-form="final" 
d="M1835 1372h-121q-41 0 -41 37v117q0 17 12 28t29 11h121q39 0 39 -39v-117q0 -37 -39 -37zM1673 1083h-131q-20 0 -33.5 12t-13.5 31v140q0 19 13.5 33t33.5 14h131q18 0 30.5 -14t12.5 -33v-140q0 -19 -12 -31t-31 -12zM1833 1126v140q0 19 14 33t33 14h131q19 0 32 -14
t13 -33v-140q0 -19 -12.5 -31t-32.5 -12h-131q-19 0 -33 12.5t-14 30.5zM2052 229h33q20 0 33.5 -14.5t13.5 -34.5v-131q0 -20 -13.5 -34.5t-33.5 -14.5h-31q-206 0 -300.5 96.5t-94.5 292.5v195h-434v-627q0 -395 -408 -395h-231q-211 0 -326 127t-115 307q0 213 121 387
q40 55 90 18l74 -49q20 -13 25.5 -40.5t-6.5 -47.5q-76 -119 -76 -239q0 -112 56.5 -174t156.5 -62h233q178 0 178 166v793q0 26 19 44.5t45 18.5h598v61q0 26 18.5 45t44.5 19h99q26 0 44.5 -19t18.5 -45v-483q0 -160 168 -160zM743 672h-137q-20 0 -33.5 14.5t-13.5 34.5
v141q0 20 13.5 32.5t33.5 12.5h137q45 0 45 -45v-141q0 -21 -12.5 -35t-32.5 -14z" />
    <glyph glyph-name="uniFC7A" unicode="&#xfe9c;&#xfef0;" horiz-adv-x="2148" arabic-form="final" 
d="M1903 1503h-121q-41 0 -41 37v117q0 17 12 28t29 11h121q39 0 39 -39v-117q0 -37 -39 -37zM1741 1214h-131q-20 0 -33.5 12t-13.5 31v140q0 19 13.5 33t33.5 14h131q18 0 30.5 -14t12.5 -33v-140q0 -19 -12 -31t-31 -12zM1901 1257v140q0 19 14 33t33 14h131q19 0 32 -14
t13 -33v-140q0 -19 -12.5 -31t-32.5 -12h-131q-19 0 -33 12.5t-14 30.5zM2116 229h32q20 0 33.5 -14.5t13.5 -34.5v-131q0 -20 -13.5 -34.5t-33.5 -14.5h-30q-206 0 -302 97t-96 292v324h-323q-172 0 -172 -178v-580q0 -395 -408 -395h-231q-211 0 -326 127t-115 307
q0 210 121 387q40 55 90 18l74 -49q20 -13 25.5 -40t-6.5 -50q-76 -119 -76 -240q0 -112 56 -172.5t157 -60.5h233q178 0 178 166v582q0 407 400 407h323v62q0 26 20 45.5t46 19.5h98q26 0 45 -19.5t19 -45.5v-615q0 -160 168 -160z" />
    <glyph glyph-name="uniFC7B" unicode="&#xfe9c;&#xfef2;" horiz-adv-x="2148" arabic-form="final" 
d="M1903 1503h-121q-41 0 -41 37v117q0 17 12 28t29 11h121q39 0 39 -39v-117q0 -37 -39 -37zM1741 1214h-131q-20 0 -33.5 12t-13.5 31v140q0 19 13.5 33t33.5 14h131q18 0 30.5 -14t12.5 -33v-140q0 -19 -12 -31t-31 -12zM1901 1257v140q0 19 14 33t33 14h131q19 0 32 -14
t13 -33v-140q0 -19 -12.5 -31t-32.5 -12h-131q-19 0 -33 12.5t-14 30.5zM2116 229h32q20 0 33.5 -14.5t13.5 -34.5v-131q0 -20 -13.5 -34.5t-33.5 -14.5h-30q-206 0 -302 97t-96 292v324h-323q-172 0 -172 -178v-580q0 -395 -408 -395h-231q-211 0 -326 127t-115 307
q0 210 121 387q40 55 90 18l74 -49q20 -13 25.5 -40t-6.5 -50q-76 -119 -76 -240q0 -112 56 -172.5t157 -60.5h233q178 0 178 166v582q0 407 400 407h323v62q0 26 20 45.5t46 19.5h98q26 0 45 -19.5t19 -45.5v-615q0 -160 168 -160zM451 -590h133q19 0 31 -12t12 -29v-141
q0 -19 -12.5 -33t-30.5 -14h-133q-19 0 -33.5 14t-14.5 33v141q0 17 14.5 29t33.5 12zM791 -590h131q19 0 31 -12t12 -29v-141q0 -19 -12.5 -33t-30.5 -14h-131q-20 0 -34 14t-14 33v141q0 17 14 29t34 12z" />
    <glyph glyph-name="uniFC8A" unicode="&#xfee8;&#xfeae;" horiz-adv-x="1478" arabic-form="final" 
d="M1239 1214h-137q-20 0 -33.5 14.5t-13.5 35.5v141q0 20 13.5 32.5t33.5 12.5h137q45 0 45 -45v-141q0 -21 -12.5 -35.5t-32.5 -14.5zM1446 229h33q20 0 33.5 -14.5t13.5 -34.5v-131q0 -20 -13.5 -34.5t-33.5 -14.5h-31q-206 0 -301.5 97t-95.5 292v324h-447v-740
q0 -204 -96.5 -309.5t-282.5 -105.5h-20q-146 0 -256 98q-21 18 -25 44t13 50l51 64q37 45 86 8q43 -37 129 -37h24q80 0 115 43.5t35 142.5v908q0 26 18.5 44.5t44.5 18.5h611v62q0 26 19.5 45.5t45.5 19.5h98q26 0 45 -19.5t19 -45.5v-615q0 -160 168 -160z" />
    <glyph glyph-name="uniFC8B" unicode="&#xfee8;&#xfeb0;" horiz-adv-x="1478" arabic-form="final" 
d="M1239 1214h-137q-20 0 -33.5 14.5t-13.5 35.5v141q0 20 13.5 32.5t33.5 12.5h137q45 0 45 -45v-141q0 -21 -12.5 -35.5t-32.5 -14.5zM563 1087h-137q-20 0 -33.5 14.5t-13.5 35.5v141q0 20 13.5 32.5t33.5 12.5h137q45 0 45 -45v-141q0 -21 -12.5 -35.5t-32.5 -14.5z
M1446 229h33q20 0 33.5 -14.5t13.5 -34.5v-131q0 -20 -13.5 -34.5t-33.5 -14.5h-31q-206 0 -301.5 97t-95.5 292v324h-447v-740q0 -204 -96.5 -309.5t-282.5 -105.5h-20q-146 0 -256 98q-21 18 -25 44t13 50l51 64q37 45 86 8q43 -37 129 -37h24q80 0 115 43.5t35 142.5v908
q0 26 18.5 44.5t44.5 18.5h611v62q0 26 19.5 45.5t45.5 19.5h98q26 0 45 -19.5t19 -45.5v-615q0 -160 168 -160z" />
    <glyph glyph-name="uniFC8D" unicode="&#xfee8;&#xfee6;" horiz-adv-x="2084" arabic-form="final" 
d="M1845 1083h-137q-20 0 -33.5 14.5t-13.5 35.5v141q0 20 13.5 32.5t33.5 12.5h137q45 0 45 -45v-141q0 -21 -12.5 -35.5t-32.5 -14.5zM2052 229h33q20 0 33.5 -14.5t13.5 -34.5v-131q0 -20 -13.5 -34.5t-33.5 -14.5h-31q-206 0 -300.5 96.5t-94.5 292.5v195h-434v-627
q0 -395 -408 -395h-231q-211 0 -326 127t-115 307q0 213 121 387q40 55 90 18l74 -49q20 -13 25.5 -40.5t-6.5 -47.5q-76 -119 -76 -239q0 -112 56.5 -174t156.5 -62h233q178 0 178 166v793q0 26 19 44.5t45 18.5h598v61q0 26 18.5 45t44.5 19h99q26 0 44.5 -19t18.5 -45
v-483q0 -160 168 -160zM743 672h-137q-20 0 -33.5 14.5t-13.5 34.5v141q0 20 13.5 32.5t33.5 12.5h137q45 0 45 -45v-141q0 -21 -12.5 -35t-32.5 -14z" />
    <glyph glyph-name="uniFC8E" unicode="&#xfee8;&#xfef0;" horiz-adv-x="2148" arabic-form="final" 
d="M1913 1214h-137q-20 0 -33.5 14.5t-13.5 35.5v141q0 20 13.5 32.5t33.5 12.5h137q45 0 45 -45v-141q0 -21 -12.5 -35.5t-32.5 -14.5zM2116 229h32q20 0 33.5 -14.5t13.5 -34.5v-131q0 -20 -13.5 -34.5t-33.5 -14.5h-30q-206 0 -302 97t-96 292v324h-323q-172 0 -172 -178
v-580q0 -395 -408 -395h-231q-211 0 -326 127t-115 307q0 210 121 387q40 55 90 18l74 -49q20 -13 25.5 -40t-6.5 -50q-76 -119 -76 -240q0 -112 56 -172.5t157 -60.5h233q178 0 178 166v582q0 407 400 407h323v62q0 26 20 45.5t46 19.5h98q26 0 45 -19.5t19 -45.5v-615
q0 -160 168 -160z" />
    <glyph glyph-name="uniFC8F" unicode="&#xfee8;&#xfef2;" horiz-adv-x="2148" arabic-form="final" 
d="M1913 1214h-137q-20 0 -33.5 14.5t-13.5 35.5v141q0 20 13.5 32.5t33.5 12.5h137q45 0 45 -45v-141q0 -21 -12.5 -35.5t-32.5 -14.5zM2116 229h32q20 0 33.5 -14.5t13.5 -34.5v-131q0 -20 -13.5 -34.5t-33.5 -14.5h-30q-206 0 -302 97t-96 292v324h-323q-172 0 -172 -178
v-580q0 -395 -408 -395h-231q-211 0 -326 127t-115 307q0 210 121 387q40 55 90 18l74 -49q20 -13 25.5 -40t-6.5 -50q-76 -119 -76 -240q0 -112 56 -172.5t157 -60.5h233q178 0 178 166v582q0 407 400 407h323v62q0 26 20 45.5t46 19.5h98q26 0 45 -19.5t19 -45.5v-615
q0 -160 168 -160zM451 -590h133q19 0 31 -12t12 -29v-141q0 -19 -12.5 -33t-30.5 -14h-133q-19 0 -33.5 14t-14.5 33v141q0 17 14.5 29t33.5 12zM791 -590h131q19 0 31 -12t12 -29v-141q0 -19 -12.5 -33t-30.5 -14h-131q-20 0 -34 14t-14 33v141q0 17 14 29t34 12z" />
    <glyph glyph-name="uniFC91" unicode="&#xfef4;&#xfeae;" horiz-adv-x="1478" arabic-form="final" 
d="M1446 229h33q20 0 33.5 -14.5t13.5 -34.5v-131q0 -20 -13.5 -34.5t-33.5 -14.5h-31q-206 0 -301.5 97t-95.5 292v324h-447v-740q0 -204 -96.5 -309.5t-282.5 -105.5h-20q-146 0 -256 98q-21 18 -25 44t13 50l51 64q37 45 86 8q43 -37 129 -37h24q80 0 115 43.5t35 142.5
v908q0 26 18.5 44.5t44.5 18.5h611v62q0 26 19.5 45.5t45.5 19.5h98q26 0 45 -19.5t19 -45.5v-615q0 -160 168 -160zM788 -147h134q19 0 31 -12t12 -29v-142q0 -19 -12.5 -33t-30.5 -14h-134q-19 0 -33 14t-14 33v142q0 17 14 29t33 12zM1128 -147h132q19 0 31 -12t12 -29
v-142q0 -19 -12.5 -33t-30.5 -14h-132q-20 0 -33.5 14t-13.5 33v142q0 17 13.5 29t33.5 12z" />
    <glyph glyph-name="uniFC92" unicode="&#xfef4;&#xfeb0;" horiz-adv-x="1478" arabic-form="final" 
d="M563 1087h-137q-20 0 -33.5 14.5t-13.5 35.5v141q0 20 13.5 32.5t33.5 12.5h137q45 0 45 -45v-141q0 -21 -12.5 -35.5t-32.5 -14.5zM1446 229h33q20 0 33.5 -14.5t13.5 -34.5v-131q0 -20 -13.5 -34.5t-33.5 -14.5h-31q-206 0 -301.5 97t-95.5 292v324h-447v-740
q0 -204 -96.5 -309.5t-282.5 -105.5h-20q-146 0 -256 98q-21 18 -25 44t13 50l51 64q37 45 86 8q43 -37 129 -37h24q80 0 115 43.5t35 142.5v908q0 26 18.5 44.5t44.5 18.5h611v62q0 26 19.5 45.5t45.5 19.5h98q26 0 45 -19.5t19 -45.5v-615q0 -160 168 -160zM788 -147h134
q19 0 31 -12t12 -29v-142q0 -19 -12.5 -33t-30.5 -14h-134q-19 0 -33 14t-14 33v142q0 17 14 29t33 12zM1128 -147h132q19 0 31 -12t12 -29v-142q0 -19 -12.5 -33t-30.5 -14h-132q-20 0 -33.5 14t-13.5 33v142q0 17 13.5 29t33.5 12z" />
    <glyph glyph-name="uniFC94" unicode="&#xfef4;&#xfee6;" horiz-adv-x="2084" arabic-form="final" 
d="M2052 229h33q20 0 33.5 -14.5t13.5 -34.5v-131q0 -20 -13.5 -34.5t-33.5 -14.5h-31q-206 0 -300.5 96.5t-94.5 292.5v195h-434v-627q0 -395 -408 -395h-231q-211 0 -326 127t-115 307q0 213 121 387q40 55 90 18l74 -49q20 -13 25.5 -40.5t-6.5 -47.5q-76 -119 -76 -239
q0 -112 56.5 -174t156.5 -62h233q178 0 178 166v793q0 26 19 44.5t45 18.5h598v61q0 26 18.5 45t44.5 19h99q26 0 44.5 -19t18.5 -45v-483q0 -160 168 -160zM743 672h-137q-20 0 -33.5 14.5t-13.5 34.5v141q0 20 13.5 32.5t33.5 12.5h137q45 0 45 -45v-141q0 -21 -12.5 -35
t-32.5 -14zM1409 -147h133q19 0 31 -12t12 -29v-142q0 -19 -12.5 -33t-30.5 -14h-133q-19 0 -33 14t-14 33v142q0 17 14 29t33 12zM1749 -147h131q19 0 31 -12t12 -29v-142q0 -19 -12.5 -33t-30.5 -14h-131q-20 0 -33.5 14t-13.5 33v142q0 17 13.5 29t33.5 12z" />
    <glyph glyph-name="uniFCFB" unicode="&#xfeb3;&#xfef0;" horiz-adv-x="3123" arabic-form="isolated" 
d="M2787 948h99q26 0 44.5 -18.5t18.5 -44.5v-508q0 -199 -97 -305.5t-272 -106.5q-193 0 -294 107q-98 -107 -275 -107q-210 0 -318 104.5t-108 307.5v336h-188q-172 0 -172 -178v-580q0 -395 -408 -395h-231q-211 0 -326 127t-115 307q0 210 121 387q40 55 90 18l74 -49
q20 -13 25.5 -40t-6.5 -50q-76 -119 -76 -240q0 -112 56 -172.5t157 -60.5h233q178 0 178 166v582q0 407 400 407h352q26 0 44.5 -18.5t18.5 -44.5v-502q0 -182 166 -182q176 0 176 182v371q0 26 19 44.5t45 18.5h98q27 0 46.5 -18.5t19.5 -44.5v-371q0 -182 166 -182
q176 0 176 182v508q0 26 18.5 44.5t44.5 18.5z" />
    <glyph glyph-name="uniFCFC" unicode="&#xfeb3;&#xfef2;" horiz-adv-x="3123" arabic-form="isolated" 
d="M2787 948h99q26 0 44.5 -18.5t18.5 -44.5v-508q0 -199 -97 -305.5t-272 -106.5q-193 0 -294 107q-98 -107 -275 -107q-210 0 -318 104.5t-108 307.5v336h-188q-172 0 -172 -178v-580q0 -395 -408 -395h-231q-211 0 -326 127t-115 307q0 210 121 387q40 55 90 18l74 -49
q20 -13 25.5 -40t-6.5 -50q-76 -119 -76 -240q0 -112 56 -172.5t157 -60.5h233q178 0 178 166v582q0 407 400 407h352q26 0 44.5 -18.5t18.5 -44.5v-502q0 -182 166 -182q176 0 176 182v371q0 26 19 44.5t45 18.5h98q27 0 46.5 -18.5t19.5 -44.5v-371q0 -182 166 -182
q176 0 176 182v508q0 26 18.5 44.5t44.5 18.5zM451 -590h133q19 0 31 -12t12 -29v-141q0 -19 -12.5 -33t-30.5 -14h-133q-19 0 -33.5 14t-14.5 33v141q0 17 14.5 29t33.5 12zM791 -590h131q19 0 31 -12t12 -29v-141q0 -19 -12.5 -33t-30.5 -14h-131q-20 0 -34 14t-14 33v141
q0 17 14 29t34 12z" />
    <glyph glyph-name="uniFCFD" unicode="&#xfeb7;&#xfef0;" horiz-adv-x="3123" arabic-form="isolated" 
d="M2335 1247h-121q-41 0 -41 37v117q0 17 12 28t29 11h121q39 0 39 -39v-117q0 -37 -39 -37zM2173 958h-131q-20 0 -33.5 12t-13.5 31v140q0 19 13.5 33t33.5 14h131q18 0 30.5 -14t12.5 -33v-140q0 -19 -12 -31t-31 -12zM2333 1001v140q0 19 14 33t33 14h131q19 0 32 -14
t13 -33v-140q0 -19 -12.5 -31t-32.5 -12h-131q-19 0 -33 12.5t-14 30.5zM2787 948h99q26 0 44.5 -18.5t18.5 -44.5v-508q0 -199 -97 -305.5t-272 -106.5q-193 0 -294 107q-98 -107 -275 -107q-210 0 -318 104.5t-108 307.5v336h-188q-172 0 -172 -178v-580q0 -395 -408 -395
h-231q-211 0 -326 127t-115 307q0 210 121 387q40 55 90 18l74 -49q20 -13 25.5 -40t-6.5 -50q-76 -119 -76 -240q0 -112 56 -172.5t157 -60.5h233q178 0 178 166v582q0 407 400 407h352q26 0 44.5 -18.5t18.5 -44.5v-502q0 -182 166 -182q176 0 176 182v371q0 26 19 44.5
t45 18.5h98q27 0 46.5 -18.5t19.5 -44.5v-371q0 -182 166 -182q176 0 176 182v508q0 26 18.5 44.5t44.5 18.5z" />
    <glyph glyph-name="uniFCFE" unicode="&#xfeb7;&#xfef2;" horiz-adv-x="3123" arabic-form="isolated" 
d="M2335 1247h-121q-41 0 -41 37v117q0 17 12 28t29 11h121q39 0 39 -39v-117q0 -37 -39 -37zM2173 958h-131q-20 0 -33.5 12t-13.5 31v140q0 19 13.5 33t33.5 14h131q18 0 30.5 -14t12.5 -33v-140q0 -19 -12 -31t-31 -12zM2333 1001v140q0 19 14 33t33 14h131q19 0 32 -14
t13 -33v-140q0 -19 -12.5 -31t-32.5 -12h-131q-19 0 -33 12.5t-14 30.5zM2787 948h99q26 0 44.5 -18.5t18.5 -44.5v-508q0 -199 -97 -305.5t-272 -106.5q-193 0 -294 107q-98 -107 -275 -107q-210 0 -318 104.5t-108 307.5v336h-188q-172 0 -172 -178v-580q0 -395 -408 -395
h-231q-211 0 -326 127t-115 307q0 210 121 387q40 55 90 18l74 -49q20 -13 25.5 -40t-6.5 -50q-76 -119 -76 -240q0 -112 56 -172.5t157 -60.5h233q178 0 178 166v582q0 407 400 407h352q26 0 44.5 -18.5t18.5 -44.5v-502q0 -182 166 -182q176 0 176 182v371q0 26 19 44.5
t45 18.5h98q27 0 46.5 -18.5t19.5 -44.5v-371q0 -182 166 -182q176 0 176 182v508q0 26 18.5 44.5t44.5 18.5zM451 -590h133q19 0 31 -12t12 -29v-141q0 -19 -12.5 -33t-30.5 -14h-133q-19 0 -33.5 14t-14.5 33v141q0 17 14.5 29t33.5 12zM791 -590h131q19 0 31 -12t12 -29
v-141q0 -19 -12.5 -33t-30.5 -14h-131q-20 0 -34 14t-14 33v141q0 17 14 29t34 12z" />
    <glyph glyph-name="uniFD05" unicode="&#xfebb;&#xfef0;" horiz-adv-x="3041" arabic-form="isolated" 
d="M2222 956h283q182 0 282.5 -102.5t100.5 -282.5v-182q0 -389 -383 -389h-498q-209 0 -317.5 105.5t-108.5 306.5v301h-184q-172 0 -172 -178v-580q0 -395 -408 -395h-231q-211 0 -326 127t-115 307q0 210 121 387q40 55 90 18l74 -49q20 -13 25.5 -40t-6.5 -50
q-76 -119 -76 -240q0 -112 56 -172.5t157 -60.5h233q178 0 178 166v582q0 407 400 407h313q26 0 45 -18.5t19 -44.5v-150q129 129 227 178q94 49 221 49zM2660 389v184q0 71 -42.5 113.5t-110.5 42.5h-312q-96 0 -167 -35.5t-158 -122.5l-62 -67v-92q0 -183 166 -183h533
q153 0 153 160z" />
    <glyph glyph-name="uniFD06" unicode="&#xfebb;&#xfef2;" horiz-adv-x="3041" arabic-form="isolated" 
d="M2222 956h283q182 0 282.5 -102.5t100.5 -282.5v-182q0 -389 -383 -389h-498q-209 0 -317.5 105.5t-108.5 306.5v301h-184q-172 0 -172 -178v-580q0 -395 -408 -395h-231q-211 0 -326 127t-115 307q0 210 121 387q40 55 90 18l74 -49q20 -13 25.5 -40t-6.5 -50
q-76 -119 -76 -240q0 -112 56 -172.5t157 -60.5h233q178 0 178 166v582q0 407 400 407h313q26 0 45 -18.5t19 -44.5v-150q129 129 227 178q94 49 221 49zM2660 389v184q0 71 -42.5 113.5t-110.5 42.5h-312q-96 0 -167 -35.5t-158 -122.5l-62 -67v-92q0 -183 166 -183h533
q153 0 153 160zM451 -590h133q19 0 31 -12t12 -29v-141q0 -19 -12.5 -33t-30.5 -14h-133q-19 0 -33.5 14t-14.5 33v141q0 17 14.5 29t33.5 12zM791 -590h131q19 0 31 -12t12 -29v-141q0 -19 -12.5 -33t-30.5 -14h-131q-20 0 -34 14t-14 33v141q0 17 14 29t34 12z" />
    <glyph glyph-name="uniFD07" unicode="&#xfebf;&#xfef0;" horiz-adv-x="3041" arabic-form="isolated" 
d="M2419 1104h-138q-20 0 -33.5 14.5t-13.5 34.5v141q0 20 13.5 32.5t33.5 12.5h138q45 0 45 -45v-141q0 -21 -12.5 -35t-32.5 -14zM2222 956h283q182 0 282.5 -102.5t100.5 -282.5v-182q0 -389 -383 -389h-498q-209 0 -317.5 105.5t-108.5 306.5v301h-184q-172 0 -172 -178
v-580q0 -395 -408 -395h-231q-211 0 -326 127t-115 307q0 210 121 387q40 55 90 18l74 -49q20 -13 25.5 -40t-6.5 -50q-76 -119 -76 -240q0 -112 56 -172.5t157 -60.5h233q178 0 178 166v582q0 407 400 407h313q26 0 45 -18.5t19 -44.5v-150q129 129 227 178q94 49 221 49z
M2660 389v184q0 71 -42.5 113.5t-110.5 42.5h-312q-96 0 -167 -35.5t-158 -122.5l-62 -67v-92q0 -183 166 -183h533q153 0 153 160z" />
    <glyph glyph-name="uniFD08" unicode="&#xfebf;&#xfef2;" horiz-adv-x="3041" arabic-form="isolated" 
d="M2419 1104h-138q-20 0 -33.5 14.5t-13.5 34.5v141q0 20 13.5 32.5t33.5 12.5h138q45 0 45 -45v-141q0 -21 -12.5 -35t-32.5 -14zM2222 956h283q182 0 282.5 -102.5t100.5 -282.5v-182q0 -389 -383 -389h-498q-209 0 -317.5 105.5t-108.5 306.5v301h-184q-172 0 -172 -178
v-580q0 -395 -408 -395h-231q-211 0 -326 127t-115 307q0 210 121 387q40 55 90 18l74 -49q20 -13 25.5 -40t-6.5 -50q-76 -119 -76 -240q0 -112 56 -172.5t157 -60.5h233q178 0 178 166v582q0 407 400 407h313q26 0 45 -18.5t19 -44.5v-150q129 129 227 178q94 49 221 49z
M2660 389v184q0 71 -42.5 113.5t-110.5 42.5h-312q-96 0 -167 -35.5t-158 -122.5l-62 -67v-92q0 -183 166 -183h533q153 0 153 160zM451 -590h133q19 0 31 -12t12 -29v-141q0 -19 -12.5 -33t-30.5 -14h-133q-19 0 -33.5 14t-14.5 33v141q0 17 14.5 29t33.5 12zM791 -590h131
q19 0 31 -12t12 -29v-141q0 -19 -12.5 -33t-30.5 -14h-131q-20 0 -34 14t-14 33v141q0 17 14 29t34 12z" />
    <glyph glyph-name="uniFD0D" unicode="&#xfeb7;&#xfeae;" horiz-adv-x="2496" arabic-form="isolated" 
d="M1704 1247h-121q-41 0 -41 37v117q0 17 12 28t29 11h121q39 0 39 -39v-117q0 -37 -39 -37zM1542 958h-131q-20 0 -33.5 12t-13.5 31v140q0 19 13.5 33t33.5 14h131q18 0 30.5 -14t12.5 -33v-140q0 -19 -12 -31t-31 -12zM1702 1001v140q0 19 14 33t33 14h131q19 0 32 -14
t13 -33v-140q0 -19 -12.5 -31t-32.5 -12h-131q-19 0 -33 12.5t-14 30.5zM2163 948h98q26 0 44.5 -18.5t18.5 -44.5v-508q0 -199 -97.5 -305.5t-272.5 -106.5q-188 0 -295 107q-94 -107 -275 -107q-210 0 -318 104.5t-108 307.5v207h-354v-611q0 -204 -96.5 -309.5
t-282.5 -105.5h-20q-146 0 -256 98q-21 18 -25 44t13 50l51 64q37 45 86 8q43 -37 129 -37h24q80 0 115 43.5t35 142.5v908q0 26 18.5 44.5t44.5 18.5h99q26 0 45.5 -18.5t19.5 -44.5v-68h518h2q25 0 43.5 -18.5t18.5 -44.5v-371q0 -182 168 -182q174 0 174 182v371
q0 26 19.5 44.5t45.5 18.5h99q26 0 44.5 -18.5t18.5 -44.5v-371q0 -182 166 -182q176 0 176 182v508q0 26 19.5 44.5t46.5 18.5z" />
    <glyph glyph-name="uniFD0E" unicode="&#xfeb3;&#xfeae;" horiz-adv-x="2496" arabic-form="isolated" 
d="M2163 948h98q26 0 44.5 -18.5t18.5 -44.5v-508q0 -199 -97.5 -305.5t-272.5 -106.5q-188 0 -295 107q-94 -107 -275 -107q-210 0 -318 104.5t-108 307.5v207h-354v-611q0 -204 -96.5 -309.5t-282.5 -105.5h-20q-146 0 -256 98q-21 18 -25 44t13 50l51 64q37 45 86 8
q43 -37 129 -37h24q80 0 115 43.5t35 142.5v908q0 26 18.5 44.5t44.5 18.5h99q26 0 45.5 -18.5t19.5 -44.5v-68h518h2q25 0 43.5 -18.5t18.5 -44.5v-371q0 -182 168 -182q174 0 174 182v371q0 26 19.5 44.5t45.5 18.5h99q26 0 44.5 -18.5t18.5 -44.5v-371q0 -182 166 -182
q176 0 176 182v508q0 26 19.5 44.5t46.5 18.5z" />
    <glyph glyph-name="uniFD17" unicode="&#xfeb4;&#xfef0;" horiz-adv-x="3145" arabic-form="final" 
d="M3146 229q19 0 33 -14.5t14 -34.5v-131q0 -20 -14 -34.5t-33 -14.5q-190 0 -269 104q-95 -139 -297 -139q-193 0 -294 107q-98 -107 -275 -107q-210 0 -318 104.5t-108 307.5v336h-188q-172 0 -172 -178v-580q0 -395 -408 -395h-231q-211 0 -326 127t-115 307
q0 210 121 387q40 55 90 18l74 -49q20 -13 25.5 -40t-6.5 -50q-76 -119 -76 -240q0 -112 56 -172.5t157 -60.5h233q178 0 178 166v582q0 407 400 407h352q26 0 44.5 -18.5t18.5 -44.5v-502q0 -182 166 -182q176 0 176 182v371q0 26 19 44.5t45 18.5h98q27 0 46.5 -18.5
t19.5 -44.5v-371q0 -182 166 -182q176 0 176 182v508q0 26 18.5 44.5t44.5 18.5h99q26 0 44.5 -18.5t18.5 -44.5v-463h2q0 -193 195 -193z" />
    <glyph glyph-name="uniFD18" unicode="&#xfeb4;&#xfef2;" horiz-adv-x="3145" arabic-form="final" 
d="M3146 229q19 0 33 -14.5t14 -34.5v-131q0 -20 -14 -34.5t-33 -14.5q-190 0 -269 104q-95 -139 -297 -139q-193 0 -294 107q-98 -107 -275 -107q-210 0 -318 104.5t-108 307.5v336h-188q-172 0 -172 -178v-580q0 -395 -408 -395h-231q-211 0 -326 127t-115 307
q0 210 121 387q40 55 90 18l74 -49q20 -13 25.5 -40t-6.5 -50q-76 -119 -76 -240q0 -112 56 -172.5t157 -60.5h233q178 0 178 166v582q0 407 400 407h352q26 0 44.5 -18.5t18.5 -44.5v-502q0 -182 166 -182q176 0 176 182v371q0 26 19 44.5t45 18.5h98q27 0 46.5 -18.5
t19.5 -44.5v-371q0 -182 166 -182q176 0 176 182v508q0 26 18.5 44.5t44.5 18.5h99q26 0 44.5 -18.5t18.5 -44.5v-463h2q0 -193 195 -193zM451 -590h133q19 0 31 -12t12 -29v-141q0 -19 -12.5 -33t-30.5 -14h-133q-19 0 -33.5 14t-14.5 33v141q0 17 14.5 29t33.5 12z
M791 -590h131q19 0 31 -12t12 -29v-141q0 -19 -12.5 -33t-30.5 -14h-131q-20 0 -34 14t-14 33v141q0 17 14 29t34 12z" />
    <glyph glyph-name="uniFD19" unicode="&#xfeb8;&#xfef0;" horiz-adv-x="3145" arabic-form="final" 
d="M2333 1247h-121q-41 0 -41 37v117q0 17 12 28t29 11h121q39 0 39 -39v-117q0 -37 -39 -37zM2171 958h-131q-20 0 -33.5 12t-13.5 31v140q0 19 13.5 33t33.5 14h131q18 0 30.5 -14t12.5 -33v-140q0 -19 -12 -31t-31 -12zM2331 1001v140q0 19 14 33t33 14h131q19 0 32 -14
t13 -33v-140q0 -19 -12.5 -31t-32.5 -12h-131q-19 0 -33 12.5t-14 30.5zM3146 229q19 0 33 -14.5t14 -34.5v-131q0 -20 -14 -34.5t-33 -14.5q-190 0 -269 104q-95 -139 -297 -139q-193 0 -294 107q-98 -107 -275 -107q-210 0 -318 104.5t-108 307.5v336h-188
q-172 0 -172 -178v-580q0 -395 -408 -395h-231q-211 0 -326 127t-115 307q0 210 121 387q40 55 90 18l74 -49q20 -13 25.5 -40t-6.5 -50q-76 -119 -76 -240q0 -112 56 -172.5t157 -60.5h233q178 0 178 166v582q0 407 400 407h352q26 0 44.5 -18.5t18.5 -44.5v-502
q0 -182 166 -182q176 0 176 182v371q0 26 19 44.5t45 18.5h98q27 0 46.5 -18.5t19.5 -44.5v-371q0 -182 166 -182q176 0 176 182v508q0 26 18.5 44.5t44.5 18.5h99q26 0 44.5 -18.5t18.5 -44.5v-463h2q0 -193 195 -193z" />
    <glyph glyph-name="uniFD1A" unicode="&#xfeb8;&#xfef2;" horiz-adv-x="3145" arabic-form="final" 
d="M2333 1247h-121q-41 0 -41 37v117q0 17 12 28t29 11h121q39 0 39 -39v-117q0 -37 -39 -37zM2171 958h-131q-20 0 -33.5 12t-13.5 31v140q0 19 13.5 33t33.5 14h131q18 0 30.5 -14t12.5 -33v-140q0 -19 -12 -31t-31 -12zM2331 1001v140q0 19 14 33t33 14h131q19 0 32 -14
t13 -33v-140q0 -19 -12.5 -31t-32.5 -12h-131q-19 0 -33 12.5t-14 30.5zM3146 229q19 0 33 -14.5t14 -34.5v-131q0 -20 -14 -34.5t-33 -14.5q-190 0 -269 104q-95 -139 -297 -139q-193 0 -294 107q-98 -107 -275 -107q-210 0 -318 104.5t-108 307.5v336h-188
q-172 0 -172 -178v-580q0 -395 -408 -395h-231q-211 0 -326 127t-115 307q0 210 121 387q40 55 90 18l74 -49q20 -13 25.5 -40t-6.5 -50q-76 -119 -76 -240q0 -112 56 -172.5t157 -60.5h233q178 0 178 166v582q0 407 400 407h352q26 0 44.5 -18.5t18.5 -44.5v-502
q0 -182 166 -182q176 0 176 182v371q0 26 19 44.5t45 18.5h98q27 0 46.5 -18.5t19.5 -44.5v-371q0 -182 166 -182q176 0 176 182v508q0 26 18.5 44.5t44.5 18.5h99q26 0 44.5 -18.5t18.5 -44.5v-463h2q0 -193 195 -193zM451 -590h133q19 0 31 -12t12 -29v-141
q0 -19 -12.5 -33t-30.5 -14h-133q-19 0 -33.5 14t-14.5 33v141q0 17 14.5 29t33.5 12zM791 -590h131q19 0 31 -12t12 -29v-141q0 -19 -12.5 -33t-30.5 -14h-131q-20 0 -34 14t-14 33v141q0 17 14 29t34 12z" />
    <glyph glyph-name="uniFD21" unicode="&#xfebc;&#xfef0;" horiz-adv-x="3084" arabic-form="final" 
d="M3084 229q19 0 33 -14.5t14 -34.5v-131q0 -20 -14 -34.5t-33 -14.5q-196 0 -276 117q-94 -117 -303 -117h-498q-209 0 -317.5 105.5t-108.5 306.5v301h-184q-172 0 -172 -178v-580q0 -395 -408 -395h-231q-211 0 -326 127t-115 307q0 210 121 387q40 55 90 18l74 -49
q20 -13 25.5 -40t-6.5 -50q-76 -119 -76 -240q0 -112 56 -172.5t157 -60.5h233q178 0 178 166v582q0 407 400 407h313q26 0 45 -18.5t19 -44.5v-150q129 129 227 178q94 49 221 49h283q182 0 282.5 -102.5t100.5 -282.5v-149h2q0 -193 194 -193zM2660 389v184
q0 71 -42.5 113.5t-110.5 42.5h-312q-96 0 -167 -35.5t-158 -122.5l-62 -67v-92q0 -183 166 -183h533q153 0 153 160z" />
    <glyph glyph-name="uniFD22" unicode="&#xfebc;&#xfef2;" horiz-adv-x="3084" arabic-form="final" 
d="M3084 229q19 0 33 -14.5t14 -34.5v-131q0 -20 -14 -34.5t-33 -14.5q-196 0 -276 117q-94 -117 -303 -117h-498q-209 0 -317.5 105.5t-108.5 306.5v301h-184q-172 0 -172 -178v-580q0 -395 -408 -395h-231q-211 0 -326 127t-115 307q0 210 121 387q40 55 90 18l74 -49
q20 -13 25.5 -40t-6.5 -50q-76 -119 -76 -240q0 -112 56 -172.5t157 -60.5h233q178 0 178 166v582q0 407 400 407h313q26 0 45 -18.5t19 -44.5v-150q129 129 227 178q94 49 221 49h283q182 0 282.5 -102.5t100.5 -282.5v-149h2q0 -193 194 -193zM2660 389v184
q0 71 -42.5 113.5t-110.5 42.5h-312q-96 0 -167 -35.5t-158 -122.5l-62 -67v-92q0 -183 166 -183h533q153 0 153 160zM451 -590h133q19 0 31 -12t12 -29v-141q0 -19 -12.5 -33t-30.5 -14h-133q-19 0 -33.5 14t-14.5 33v141q0 17 14.5 29t33.5 12zM791 -590h131q19 0 31 -12
t12 -29v-141q0 -19 -12.5 -33t-30.5 -14h-131q-20 0 -34 14t-14 33v141q0 17 14 29t34 12z" />
    <glyph glyph-name="uniFD23" unicode="&#xfec0;&#xfef0;" horiz-adv-x="3084" arabic-form="final" 
d="M2419 1104h-138q-20 0 -33.5 14.5t-13.5 34.5v141q0 20 13.5 32.5t33.5 12.5h138q45 0 45 -45v-141q0 -21 -12.5 -35t-32.5 -14zM3084 229q19 0 33 -14.5t14 -34.5v-131q0 -20 -14 -34.5t-33 -14.5q-196 0 -276 117q-94 -117 -303 -117h-498q-209 0 -317.5 105.5
t-108.5 306.5v301h-184q-172 0 -172 -178v-580q0 -395 -408 -395h-231q-211 0 -326 127t-115 307q0 210 121 387q40 55 90 18l74 -49q20 -13 25.5 -40t-6.5 -50q-76 -119 -76 -240q0 -112 56 -172.5t157 -60.5h233q178 0 178 166v582q0 407 400 407h313q26 0 45 -18.5
t19 -44.5v-150q129 129 227 178q94 49 221 49h283q182 0 282.5 -102.5t100.5 -282.5v-149h2q0 -193 194 -193zM2660 389v184q0 71 -42.5 113.5t-110.5 42.5h-312q-96 0 -167 -35.5t-158 -122.5l-62 -67v-92q0 -183 166 -183h533q153 0 153 160z" />
    <glyph glyph-name="uniFD24" unicode="&#xfec0;&#xfef2;" horiz-adv-x="3084" arabic-form="final" 
d="M2419 1104h-138q-20 0 -33.5 14.5t-13.5 34.5v141q0 20 13.5 32.5t33.5 12.5h138q45 0 45 -45v-141q0 -21 -12.5 -35t-32.5 -14zM3084 229q19 0 33 -14.5t14 -34.5v-131q0 -20 -14 -34.5t-33 -14.5q-196 0 -276 117q-94 -117 -303 -117h-498q-209 0 -317.5 105.5
t-108.5 306.5v301h-184q-172 0 -172 -178v-580q0 -395 -408 -395h-231q-211 0 -326 127t-115 307q0 210 121 387q40 55 90 18l74 -49q20 -13 25.5 -40t-6.5 -50q-76 -119 -76 -240q0 -112 56 -172.5t157 -60.5h233q178 0 178 166v582q0 407 400 407h313q26 0 45 -18.5
t19 -44.5v-150q129 129 227 178q94 49 221 49h283q182 0 282.5 -102.5t100.5 -282.5v-149h2q0 -193 194 -193zM2660 389v184q0 71 -42.5 113.5t-110.5 42.5h-312q-96 0 -167 -35.5t-158 -122.5l-62 -67v-92q0 -183 166 -183h533q153 0 153 160zM451 -590h133q19 0 31 -12
t12 -29v-141q0 -19 -12.5 -33t-30.5 -14h-133q-19 0 -33.5 14t-14.5 33v141q0 17 14.5 29t33.5 12zM791 -590h131q19 0 31 -12t12 -29v-141q0 -19 -12.5 -33t-30.5 -14h-131q-20 0 -34 14t-14 33v141q0 17 14 29t34 12z" />
    <glyph glyph-name="uniFD29" unicode="&#xfeb8;&#xfeae;" horiz-adv-x="2521" arabic-form="final" 
d="M1704 1247h-121q-41 0 -41 37v117q0 17 12 28t29 11h121q39 0 39 -39v-117q0 -37 -39 -37zM1542 958h-131q-20 0 -33.5 12t-13.5 31v140q0 19 13.5 33t33.5 14h131q18 0 30.5 -14t12.5 -33v-140q0 -19 -12 -31t-31 -12zM1702 1001v140q0 19 14 33t33 14h131q19 0 32 -14
t13 -33v-140q0 -19 -12.5 -31t-32.5 -12h-131q-19 0 -33 12.5t-14 30.5zM2521 229q19 0 33 -14.5t14 -34.5v-131q0 -20 -14 -34.5t-33 -14.5q-189 0 -268 104q-95 -139 -299 -139q-188 0 -295 107q-94 -107 -275 -107q-210 0 -318 104.5t-108 307.5v207h-354v-611
q0 -204 -96.5 -309.5t-282.5 -105.5h-20q-146 0 -256 98q-21 18 -25 44t13 50l51 64q37 45 86 8q43 -37 129 -37h24q80 0 115 43.5t35 142.5v908q0 26 18.5 44.5t44.5 18.5h99q26 0 45.5 -18.5t19.5 -44.5v-68h518h2q25 0 43.5 -18.5t18.5 -44.5v-371q0 -182 168 -182
q174 0 174 182v371q0 26 19.5 44.5t45.5 18.5h99q26 0 44.5 -18.5t18.5 -44.5v-371q0 -182 166 -182q176 0 176 182v508q0 26 19.5 44.5t46.5 18.5h98q26 0 44.5 -18.5t18.5 -44.5v-463h3q0 -193 194 -193z" />
    <glyph glyph-name="uniFD2A" unicode="&#xfeb4;&#xfeae;" horiz-adv-x="2521" arabic-form="final" 
d="M2521 229q19 0 33 -14.5t14 -34.5v-131q0 -20 -14 -34.5t-33 -14.5q-189 0 -268 104q-95 -139 -299 -139q-188 0 -295 107q-94 -107 -275 -107q-210 0 -318 104.5t-108 307.5v207h-354v-611q0 -204 -96.5 -309.5t-282.5 -105.5h-20q-146 0 -256 98q-21 18 -25 44t13 50
l51 64q37 45 86 8q43 -37 129 -37h24q80 0 115 43.5t35 142.5v908q0 26 18.5 44.5t44.5 18.5h99q26 0 45.5 -18.5t19.5 -44.5v-68h518h2q25 0 43.5 -18.5t18.5 -44.5v-371q0 -182 168 -182q174 0 174 182v371q0 26 19.5 44.5t45.5 18.5h99q26 0 44.5 -18.5t18.5 -44.5v-371
q0 -182 166 -182q176 0 176 182v508q0 26 19.5 44.5t46.5 18.5h98q26 0 44.5 -18.5t18.5 -44.5v-463h3q0 -193 194 -193z" />
    <glyph glyph-name="uniFEF5" unicode="&#xfedf;&#xfe82;" horiz-adv-x="1474" arabic-form="isolated" 
d="M903 0h-774q-49 0 -49 63v101q0 65 49 65h377v701h-64q-26 0 -44.5 18.5t-18.5 44.5v101q0 26 18.5 44.5t44.5 18.5h226q26 0 45.5 -18.5t19.5 -44.5v-865h172q166 0 166 160v1067q0 26 20 46t46 20h98q26 0 44.5 -19.5t18.5 -46.5v-1067q0 -196 -94.5 -292.5
t-300.5 -96.5zM684 1280q-53 0 -141 49q-65 35 -84 35q-35 0 -35 -39q0 -45 -41 -45h-66q-19 0 -31 11.5t-12 33.5q0 81 50 133.5t125 52.5q59 0 139 -51q53 -35 90 -35q29 0 29 43q0 19 11.5 31t33.5 12h65q14 0 27.5 -13t13.5 -30q0 -85 -48 -136.5t-126 -51.5z" />
    <glyph glyph-name="uniFEF6" unicode="&#xfee0;&#xfe82;" horiz-adv-x="1495" arabic-form="final" 
d="M1495 229q19 0 33 -14.5t14 -34.5v-131q0 -20 -14 -34.5t-33 -14.5q-197 0 -274 115q-100 -115 -318 -115h-774q-49 0 -49 63v101q0 65 49 65h377v701h-64q-26 0 -44.5 18.5t-18.5 44.5v101q0 26 18.5 44.5t44.5 18.5h226q26 0 45.5 -18.5t19.5 -44.5v-865h172
q166 0 166 160v1067q0 26 20 46t46 20h98q26 0 44.5 -19.5t18.5 -46.5v-1034h2q0 -193 195 -193zM383 1280h-66q-19 0 -31 11.5t-12 33.5q0 81 50 133.5t125 52.5q59 0 139 -51q53 -35 90 -35q29 0 29 43q0 19 11.5 31t33.5 12h65q14 0 27.5 -13t13.5 -30q0 -85 -48 -136.5
t-126 -51.5q-53 0 -141 49q-65 35 -84 35q-35 0 -35 -39q0 -45 -41 -45z" />
    <glyph glyph-name="uniFEF7" unicode="&#xfedf;&#xfe84;" horiz-adv-x="1474" arabic-form="isolated" 
d="M762 1280h-391q-19 0 -31 12t-12 31v68q0 18 12.5 31.5t30.5 13.5h39q-11 37 -11 57v51q0 91 61 151t152 60h21q87 0 153 -63q35 -31 2 -64l-40 -43q-35 -35 -70 -4q-18 18 -45 18h-21q-25 0 -41 -16t-16 -39v-41q0 -30 15.5 -48.5t41.5 -18.5h150q18 0 31.5 -15
t13.5 -30v-68q0 -18 -12.5 -30.5t-32.5 -12.5zM1137 1522h98q26 0 44.5 -19.5t18.5 -46.5v-1067q0 -196 -94.5 -292.5t-300.5 -96.5h-774q-49 0 -49 63v101q0 65 49 65h377v701h-64q-26 0 -44.5 18.5t-18.5 44.5v101q0 26 18.5 44.5t44.5 18.5h226q26 0 45.5 -18.5
t19.5 -44.5v-865h172q166 0 166 160v1067q0 26 20 46t46 20z" />
    <glyph glyph-name="uniFEF8" unicode="&#xfee0;&#xfe84;" horiz-adv-x="1495" arabic-form="final" 
d="M762 1280h-391q-19 0 -31 12t-12 31v68q0 18 12.5 31.5t30.5 13.5h39q-11 37 -11 57v51q0 91 61 151t152 60h21q87 0 153 -63q35 -31 2 -64l-40 -43q-35 -35 -70 -4q-18 18 -45 18h-21q-25 0 -41 -16t-16 -39v-41q0 -30 15.5 -48.5t41.5 -18.5h150q18 0 31.5 -15
t13.5 -30v-68q0 -18 -12.5 -30.5t-32.5 -12.5zM1495 229q19 0 33 -14.5t14 -34.5v-131q0 -20 -14 -34.5t-33 -14.5q-197 0 -274 115q-100 -115 -318 -115h-774q-49 0 -49 63v101q0 65 49 65h377v701h-64q-26 0 -44.5 18.5t-18.5 44.5v101q0 26 18.5 44.5t44.5 18.5h226
q26 0 45.5 -18.5t19.5 -44.5v-865h172q166 0 166 160v1067q0 26 20 46t46 20h98q26 0 44.5 -19.5t18.5 -46.5v-1034h2q0 -193 195 -193z" />
    <glyph glyph-name="uniFEF9" unicode="&#xfedf;&#xfe88;" horiz-adv-x="1474" arabic-form="isolated" 
d="M1137 1522h98q26 0 44.5 -19.5t18.5 -46.5v-1067q0 -196 -94.5 -292.5t-300.5 -96.5h-774q-49 0 -49 63v101q0 65 49 65h377v701h-64q-26 0 -44.5 18.5t-18.5 44.5v101q0 26 18.5 44.5t44.5 18.5h226q26 0 45.5 -18.5t19.5 -44.5v-865h172q166 0 166 160v1067q0 26 20 46
t46 20zM668 -442h149q18 0 31.5 -15t13.5 -30v-68q0 -19 -13 -31t-32 -12h-391q-19 0 -31 12t-12 31v68q0 18 12.5 31.5t30.5 13.5h39q-10 33 -10 57v51q0 91 61 151t152 60h20q88 0 154 -63q35 -31 2 -64l-41 -43q-35 -35 -70 -4q-18 18 -45 18h-20q-25 0 -41.5 -16
t-16.5 -39v-41q0 -30 16 -48.5t42 -18.5z" />
    <glyph glyph-name="uniFEFA" unicode="&#xfee0;&#xfe88;" horiz-adv-x="1495" arabic-form="final" 
d="M1495 229q19 0 33 -14.5t14 -34.5v-131q0 -20 -14 -34.5t-33 -14.5q-197 0 -274 115q-100 -115 -318 -115h-774q-49 0 -49 63v101q0 65 49 65h377v701h-64q-26 0 -44.5 18.5t-18.5 44.5v101q0 26 18.5 44.5t44.5 18.5h226q26 0 45.5 -18.5t19.5 -44.5v-865h172
q166 0 166 160v1067q0 26 20 46t46 20h98q26 0 44.5 -19.5t18.5 -46.5v-1034h2q0 -193 195 -193zM666 -442h149q18 0 31.5 -15t13.5 -30v-68q0 -19 -12.5 -31t-32.5 -12h-391q-19 0 -31 12t-12 31v68q0 18 12.5 31.5t30.5 13.5h39q-10 33 -10 57v51q0 91 61 151t152 60h20
q88 0 154 -63q35 -31 2 -64l-41 -43q-35 -35 -70 -4q-18 18 -45 18h-20q-25 0 -41.5 -16t-16.5 -39v-41q0 -30 16 -48.5t42 -18.5z" />
    <glyph glyph-name="uniFEFB" unicode="&#xfedf;&#xfe8e;" horiz-adv-x="1474" arabic-form="isolated" 
d="M903 0h-774q-49 0 -49 63v101q0 65 49 65h377v701h-64q-26 0 -44.5 18.5t-18.5 44.5v101q0 26 18.5 44.5t44.5 18.5h226q26 0 45.5 -18.5t19.5 -44.5v-865h172q166 0 166 160v1067q0 26 20 46t46 20h98q26 0 44.5 -19.5t18.5 -46.5v-1067q0 -196 -94.5 -292.5
t-300.5 -96.5z" />
    <glyph glyph-name="uniFEFC" unicode="&#xfee0;&#xfe8e;" horiz-adv-x="1495" arabic-form="final" 
d="M1495 229q19 0 33 -14.5t14 -34.5v-131q0 -20 -14 -34.5t-33 -14.5q-197 0 -274 115q-100 -115 -318 -115h-774q-49 0 -49 63v101q0 65 49 65h377v701h-64q-26 0 -44.5 18.5t-18.5 44.5v101q0 26 18.5 44.5t44.5 18.5h226q26 0 45.5 -18.5t19.5 -44.5v-865h172
q166 0 166 160v1067q0 26 20 46t46 20h98q26 0 44.5 -19.5t18.5 -46.5v-1034h2q0 -193 195 -193z" />
    <glyph glyph-name="uniFEDFFB51" unicode="&#xfedf;&#xfb51;" horiz-adv-x="1474" 
d="M672 1280h-310q-18 0 -29 11.5t-11 29.5v43q0 18 11 30.5t29 12.5h50v35q0 78 38 121t107 43h115q62 0 100.5 -38.5t38.5 -101.5v-47q0 -57 -40 -98t-99 -41zM1137 1522h98q26 0 44.5 -19.5t18.5 -46.5v-1067q0 -196 -94.5 -292.5t-300.5 -96.5h-774q-49 0 -49 63v101
q0 65 49 65h377v701h-64q-26 0 -44.5 18.5t-18.5 44.5v101q0 26 18.5 44.5t44.5 18.5h226q26 0 45.5 -18.5t19.5 -44.5v-865h172q166 0 166 160v1067q0 26 20 46t46 20zM528 1442v-35h129q21 0 21 20v19q0 22 -25 22h-94q-31 0 -31 -26z" />
    <glyph glyph-name="uniFEE0FB51" unicode="&#xfee0;&#xfb51;" horiz-adv-x="1474" 
d="M672 1280h-310q-18 0 -29 11.5t-11 29.5v43q0 18 11 30.5t29 12.5h50v35q0 78 38 121t107 43h115q62 0 100.5 -38.5t38.5 -101.5v-47q0 -57 -40 -98t-99 -41zM1137 1522h98q26 0 44.5 -19.5t18.5 -46.5v-1067q0 -196 -94.5 -292.5t-300.5 -96.5h-774q-49 0 -49 63v101
q0 65 49 65h377v701h-64q-26 0 -44.5 18.5t-18.5 44.5v101q0 26 18.5 44.5t44.5 18.5h226q26 0 45.5 -18.5t19.5 -44.5v-865h172q166 0 166 160v1067q0 26 20 46t46 20zM528 1442v-35h129q21 0 21 20v19q0 22 -25 22h-94q-31 0 -31 -26z" />
    <glyph glyph-name="uniFE92FE8A" unicode="&#xfe92;&#xfe8a;" horiz-adv-x="2148" 
d="M825 762h-391q-19 0 -31 12t-12 31v67q0 18 12.5 32t30.5 14h39q-10 33 -10 57v51q0 91 61 151t152 60h20q88 0 154 -63q35 -31 2 -64l-41 -43q-35 -35 -70 -4q-18 18 -45 18h-20q-25 0 -41.5 -16t-16.5 -39v-41q0 -30 16 -48.5t42 -18.5h149q18 0 31.5 -15.5t13.5 -30.5
v-67q0 -19 -13 -31t-32 -12zM2116 229h32q20 0 33.5 -14.5t13.5 -34.5v-131q0 -20 -13.5 -34.5t-33.5 -14.5h-30q-206 0 -302 97t-96 292v324h-323q-172 0 -172 -178v-580q0 -395 -408 -395h-231q-211 0 -326 127t-115 307q0 210 121 387q40 55 90 18l74 -49
q20 -13 25.5 -40t-6.5 -50q-76 -119 -76 -240q0 -112 56 -172.5t157 -60.5h233q178 0 178 166v582q0 407 400 407h323v62q0 26 20 45.5t46 19.5h98q26 0 45 -19.5t19 -45.5v-615q0 -160 168 -160zM1513 -147h138q20 0 32.5 -12t12.5 -31v-144q0 -20 -12.5 -33.5t-32.5 -13.5
h-138q-20 0 -33.5 13.5t-13.5 33.5v144q0 19 13.5 31t33.5 12z" />
    <glyph glyph-name="uniFB59FEAE" unicode="&#xfb59;&#xfeae;" horiz-adv-x="1478" 
d="M1446 229h33q20 0 33.5 -14.5t13.5 -34.5v-131q0 -20 -13.5 -34.5t-33.5 -14.5h-31q-206 0 -301.5 97t-95.5 292v324h-447v-740q0 -204 -96.5 -309.5t-282.5 -105.5h-20q-146 0 -256 98q-21 18 -25 44t13 50l51 64q37 45 86 8q43 -37 129 -37h24q80 0 115 43.5t35 142.5
v908q0 26 18.5 44.5t44.5 18.5h611v62q0 26 19.5 45.5t45.5 19.5h98q26 0 45 -19.5t19 -45.5v-615q0 -160 168 -160zM967 -188v-142q0 -19 -12.5 -33t-30.5 -14h-133q-19 0 -33.5 14t-14.5 33v142q0 17 14.5 29t33.5 12h133q19 0 31 -12t12 -29zM1130 -147h132q19 0 31 -12
t12 -29v-142q0 -19 -12.5 -33t-30.5 -14h-132q-20 0 -33.5 14t-13.5 33v142q0 17 13.5 29t33.5 12zM965 -436h120q39 0 39 -35v-119q0 -37 -39 -37h-120q-41 0 -41 37v119q0 35 41 35z" />
    <glyph glyph-name="uniFB59FEB0" unicode="&#xfb59;&#xfeb0;" horiz-adv-x="1478" 
d="M563 1087h-137q-20 0 -33.5 14.5t-13.5 35.5v141q0 20 13.5 32.5t33.5 12.5h137q45 0 45 -45v-141q0 -21 -12.5 -35.5t-32.5 -14.5zM1446 229h33q20 0 33.5 -14.5t13.5 -34.5v-131q0 -20 -13.5 -34.5t-33.5 -14.5h-31q-206 0 -301.5 97t-95.5 292v324h-447v-740
q0 -204 -96.5 -309.5t-282.5 -105.5h-20q-146 0 -256 98q-21 18 -25 44t13 50l51 64q37 45 86 8q43 -37 129 -37h24q80 0 115 43.5t35 142.5v908q0 26 18.5 44.5t44.5 18.5h611v62q0 26 19.5 45.5t45.5 19.5h98q26 0 45 -19.5t19 -45.5v-615q0 -160 168 -160zM967 -188v-142
q0 -19 -12.5 -33t-30.5 -14h-133q-19 0 -33.5 14t-14.5 33v142q0 17 14.5 29t33.5 12h133q19 0 31 -12t12 -29zM1130 -147h132q19 0 31 -12t12 -29v-142q0 -19 -12.5 -33t-30.5 -14h-132q-20 0 -33.5 14t-13.5 33v142q0 17 13.5 29t33.5 12zM965 -436h120q39 0 39 -35v-119
q0 -37 -39 -37h-120q-41 0 -41 37v119q0 35 41 35z" />
    <glyph glyph-name="uniFB59FEE6" unicode="&#xfb59;&#xfee6;" horiz-adv-x="2084" 
d="M2052 229h33q20 0 33.5 -14.5t13.5 -34.5v-131q0 -20 -13.5 -34.5t-33.5 -14.5h-31q-206 0 -300.5 96.5t-94.5 292.5v195h-434v-627q0 -395 -408 -395h-231q-211 0 -326 127t-115 307q0 213 121 387q40 55 90 18l74 -49q20 -13 25.5 -40.5t-6.5 -47.5q-76 -119 -76 -239
q0 -112 56.5 -174t156.5 -62h233q178 0 178 166v793q0 26 19 44.5t45 18.5h598v61q0 26 18.5 45t44.5 19h99q26 0 44.5 -19t18.5 -45v-483q0 -160 168 -160zM743 672h-137q-20 0 -33.5 14.5t-13.5 34.5v141q0 20 13.5 32.5t33.5 12.5h137q45 0 45 -45v-141q0 -21 -12.5 -35
t-32.5 -14zM1587 -188v-142q0 -19 -12.5 -33t-30.5 -14h-133q-19 0 -33 14t-14 33v142q0 17 14 29t33 12h133q19 0 31 -12t12 -29zM1751 -147h131q19 0 31 -12t12 -29v-142q0 -19 -12.5 -33t-30.5 -14h-131q-20 0 -33.5 14t-13.5 33v142q0 17 13.5 29t33.5 12zM1585 -436
h121q39 0 39 -35v-119q0 -37 -39 -37h-121q-41 0 -41 37v119q0 35 41 35z" />
    <glyph glyph-name="uniFB59FEF0" unicode="&#xfb59;&#xfef0;" horiz-adv-x="2148" 
d="M2116 229h32q20 0 33.5 -14.5t13.5 -34.5v-131q0 -20 -13.5 -34.5t-33.5 -14.5h-30q-206 0 -302 97t-96 292v324h-323q-172 0 -172 -178v-580q0 -395 -408 -395h-231q-211 0 -326 127t-115 307q0 210 121 387q40 55 90 18l74 -49q20 -13 25.5 -40t-6.5 -50
q-76 -119 -76 -240q0 -112 56 -172.5t157 -60.5h233q178 0 178 166v582q0 407 400 407h323v62q0 26 20 45.5t46 19.5h98q26 0 45 -19.5t19 -45.5v-615q0 -160 168 -160zM1587 -188v-142q0 -19 -12.5 -33t-30.5 -14h-133q-19 0 -33 14t-14 33v142q0 17 14 29t33 12h133
q19 0 31 -12t12 -29zM1751 -147h131q19 0 31 -12t12 -29v-142q0 -19 -12.5 -33t-30.5 -14h-131q-20 0 -33.5 14t-13.5 33v142q0 17 13.5 29t33.5 12zM1585 -436h121q39 0 39 -35v-119q0 -37 -39 -37h-121q-41 0 -41 37v119q0 35 41 35z" />
    <glyph glyph-name="uniFB59FEF2" unicode="&#xfb59;&#xfef2;" horiz-adv-x="2148" 
d="M2116 229h32q20 0 33.5 -14.5t13.5 -34.5v-131q0 -20 -13.5 -34.5t-33.5 -14.5h-30q-206 0 -302 97t-96 292v324h-323q-172 0 -172 -178v-580q0 -395 -408 -395h-231q-211 0 -326 127t-115 307q0 210 121 387q40 55 90 18l74 -49q20 -13 25.5 -40t-6.5 -50
q-76 -119 -76 -240q0 -112 56 -172.5t157 -60.5h233q178 0 178 166v582q0 407 400 407h323v62q0 26 20 45.5t46 19.5h98q26 0 45 -19.5t19 -45.5v-615q0 -160 168 -160zM1587 -188v-142q0 -19 -12.5 -33t-30.5 -14h-133q-19 0 -33 14t-14 33v142q0 17 14 29t33 12h133
q19 0 31 -12t12 -29zM1751 -147h131q19 0 31 -12t12 -29v-142q0 -19 -12.5 -33t-30.5 -14h-131q-20 0 -33.5 14t-13.5 33v142q0 17 13.5 29t33.5 12zM1585 -436h121q39 0 39 -35v-119q0 -37 -39 -37h-121q-41 0 -41 37v119q0 35 41 35zM451 -590h133q19 0 31 -12t12 -29
v-141q0 -19 -12.5 -33t-30.5 -14h-133q-19 0 -33.5 14t-14.5 33v141q0 17 14.5 29t33.5 12zM791 -590h131q19 0 31 -12t12 -29v-141q0 -19 -12.5 -33t-30.5 -14h-131q-20 0 -34 14t-14 33v141q0 17 14 29t34 12z" />
    <glyph glyph-name="uniFB59FE8A" unicode="&#xfb59;&#xfe8a;" horiz-adv-x="2148" 
d="M825 762h-391q-19 0 -31 12t-12 31v67q0 18 12.5 32t30.5 14h39q-10 33 -10 57v51q0 91 61 151t152 60h20q88 0 154 -63q35 -31 2 -64l-41 -43q-35 -35 -70 -4q-18 18 -45 18h-20q-25 0 -41.5 -16t-16.5 -39v-41q0 -30 16 -48.5t42 -18.5h149q18 0 31.5 -15.5t13.5 -30.5
v-67q0 -19 -13 -31t-32 -12zM2116 229h32q20 0 33.5 -14.5t13.5 -34.5v-131q0 -20 -13.5 -34.5t-33.5 -14.5h-30q-206 0 -302 97t-96 292v324h-323q-172 0 -172 -178v-580q0 -395 -408 -395h-231q-211 0 -326 127t-115 307q0 210 121 387q40 55 90 18l74 -49
q20 -13 25.5 -40t-6.5 -50q-76 -119 -76 -240q0 -112 56 -172.5t157 -60.5h233q178 0 178 166v582q0 407 400 407h323v62q0 26 20 45.5t46 19.5h98q26 0 45 -19.5t19 -45.5v-615q0 -160 168 -160zM1587 -188v-142q0 -19 -12.5 -33t-30.5 -14h-133q-19 0 -33 14t-14 33v142
q0 17 14 29t33 12h133q19 0 31 -12t12 -29zM1751 -147h131q19 0 31 -12t12 -29v-142q0 -19 -12.5 -33t-30.5 -14h-131q-20 0 -33.5 14t-13.5 33v142q0 17 13.5 29t33.5 12zM1585 -436h121q39 0 39 -35v-119q0 -37 -39 -37h-121q-41 0 -41 37v119q0 35 41 35z" />
    <glyph glyph-name="uniFE98FE8A" unicode="&#xfe98;&#xfe8a;" horiz-adv-x="2148" 
d="M1739 1214h-131q-20 0 -33.5 14.5t-13.5 33.5v139q0 19 13.5 31t33.5 12h131q19 0 32 -12t13 -31v-139q0 -19 -13.5 -33.5t-31.5 -14.5zM2077 1214h-131q-19 0 -33.5 14.5t-14.5 33.5v139q0 18 14.5 30.5t33.5 12.5h131q20 0 32.5 -12t12.5 -31v-139q0 -19 -13.5 -33.5
t-31.5 -14.5zM825 762h-391q-19 0 -31 12t-12 31v67q0 18 12.5 32t30.5 14h39q-10 33 -10 57v51q0 91 61 151t152 60h20q88 0 154 -63q35 -31 2 -64l-41 -43q-35 -35 -70 -4q-18 18 -45 18h-20q-25 0 -41.5 -16t-16.5 -39v-41q0 -30 16 -48.5t42 -18.5h149q18 0 31.5 -15.5
t13.5 -30.5v-67q0 -19 -13 -31t-32 -12zM2116 229h32q20 0 33.5 -14.5t13.5 -34.5v-131q0 -20 -13.5 -34.5t-33.5 -14.5h-30q-206 0 -302 97t-96 292v324h-323q-172 0 -172 -178v-580q0 -395 -408 -395h-231q-211 0 -326 127t-115 307q0 210 121 387q40 55 90 18l74 -49
q20 -13 25.5 -40t-6.5 -50q-76 -119 -76 -240q0 -112 56 -172.5t157 -60.5h233q178 0 178 166v582q0 407 400 407h323v62q0 26 20 45.5t46 19.5h98q26 0 45 -19.5t19 -45.5v-615q0 -160 168 -160z" />
    <glyph glyph-name="uniFE9CFE8A" unicode="&#xfe9c;&#xfe8a;" horiz-adv-x="2148" 
d="M1903 1503h-121q-41 0 -41 37v117q0 17 12 28t29 11h121q39 0 39 -39v-117q0 -37 -39 -37zM1741 1214h-131q-20 0 -33.5 12t-13.5 31v140q0 19 13.5 33t33.5 14h131q18 0 30.5 -14t12.5 -33v-140q0 -19 -12 -31t-31 -12zM1901 1257v140q0 19 14 33t33 14h131q19 0 32 -14
t13 -33v-140q0 -19 -12.5 -31t-32.5 -12h-131q-19 0 -33 12.5t-14 30.5zM825 762h-391q-19 0 -31 12t-12 31v67q0 18 12.5 32t30.5 14h39q-10 33 -10 57v51q0 91 61 151t152 60h20q88 0 154 -63q35 -31 2 -64l-41 -43q-35 -35 -70 -4q-18 18 -45 18h-20q-25 0 -41.5 -16
t-16.5 -39v-41q0 -30 16 -48.5t42 -18.5h149q18 0 31.5 -15.5t13.5 -30.5v-67q0 -19 -13 -31t-32 -12zM2116 229h32q20 0 33.5 -14.5t13.5 -34.5v-131q0 -20 -13.5 -34.5t-33.5 -14.5h-30q-206 0 -302 97t-96 292v324h-323q-172 0 -172 -178v-580q0 -395 -408 -395h-231
q-211 0 -326 127t-115 307q0 210 121 387q40 55 90 18l74 -49q20 -13 25.5 -40t-6.5 -50q-76 -119 -76 -240q0 -112 56 -172.5t157 -60.5h233q178 0 178 166v582q0 407 400 407h323v62q0 26 20 45.5t46 19.5h98q26 0 45 -19.5t19 -45.5v-615q0 -160 168 -160z" />
    <glyph glyph-name="uniFEB3FEB0" unicode="&#xfeb3;&#xfeb0;" horiz-adv-x="2496" 
d="M565 1087h-137q-20 0 -33.5 14.5t-13.5 35.5v141q0 20 13.5 32.5t33.5 12.5h137q45 0 45 -45v-141q0 -21 -12.5 -35.5t-32.5 -14.5zM2163 948h98q26 0 44.5 -18.5t18.5 -44.5v-508q0 -199 -97.5 -305.5t-272.5 -106.5q-188 0 -295 107q-94 -107 -275 -107
q-210 0 -318 104.5t-108 307.5v207h-354v-611q0 -204 -96.5 -309.5t-282.5 -105.5h-20q-146 0 -256 98q-21 18 -25 44t13 50l51 64q37 45 86 8q43 -37 129 -37h24q80 0 115 43.5t35 142.5v908q0 26 18.5 44.5t44.5 18.5h99q26 0 45.5 -18.5t19.5 -44.5v-68h518h2
q25 0 43.5 -18.5t18.5 -44.5v-371q0 -182 168 -182q174 0 174 182v371q0 26 19.5 44.5t45.5 18.5h99q26 0 44.5 -18.5t18.5 -44.5v-371q0 -182 166 -182q176 0 176 182v508q0 26 19.5 44.5t46.5 18.5z" />
    <glyph glyph-name="uniFEB4FEB0" unicode="&#xfeb4;&#xfeb0;" horiz-adv-x="2521" 
d="M565 1087h-137q-20 0 -33.5 14.5t-13.5 35.5v141q0 20 13.5 32.5t33.5 12.5h137q45 0 45 -45v-141q0 -21 -12.5 -35.5t-32.5 -14.5zM2521 229q19 0 33 -14.5t14 -34.5v-131q0 -20 -14 -34.5t-33 -14.5q-189 0 -268 104q-95 -139 -299 -139q-188 0 -295 107
q-94 -107 -275 -107q-210 0 -318 104.5t-108 307.5v207h-354v-611q0 -204 -96.5 -309.5t-282.5 -105.5h-20q-146 0 -256 98q-21 18 -25 44t13 50l51 64q37 45 86 8q43 -37 129 -37h24q80 0 115 43.5t35 142.5v908q0 26 18.5 44.5t44.5 18.5h99q26 0 45.5 -18.5t19.5 -44.5
v-68h518h2q25 0 43.5 -18.5t18.5 -44.5v-371q0 -182 168 -182q174 0 174 182v371q0 26 19.5 44.5t45.5 18.5h99q26 0 44.5 -18.5t18.5 -44.5v-371q0 -182 166 -182q176 0 176 182v508q0 26 19.5 44.5t46.5 18.5h98q26 0 44.5 -18.5t18.5 -44.5v-463h3q0 -193 194 -193z" />
    <glyph glyph-name="uniFEB3FE8A" unicode="&#xfeb3;&#xfe8a;" horiz-adv-x="3123" 
d="M1614 1065h-391q-19 0 -31 12t-12 31v68q0 18 12.5 31.5t30.5 13.5h39q-11 37 -11 57v51q0 91 61 151t152 60h21q87 0 153 -63q35 -31 2 -64l-41 -43q-34 -34 -69 -4q-18 18 -45 18h-21q-25 0 -41 -16t-16 -39v-41q0 -30 15.5 -48.5t41.5 -18.5h150q18 0 31.5 -15
t13.5 -30v-68q0 -19 -12.5 -31t-32.5 -12zM2787 948h99q26 0 44.5 -18.5t18.5 -44.5v-508q0 -199 -97 -305.5t-272 -106.5q-193 0 -294 107q-98 -107 -275 -107q-210 0 -318 104.5t-108 307.5v336h-188q-172 0 -172 -178v-580q0 -395 -408 -395h-231q-211 0 -326 127
t-115 307q0 210 121 387q40 55 90 18l74 -49q20 -13 25.5 -40t-6.5 -50q-76 -119 -76 -240q0 -112 56 -172.5t157 -60.5h233q178 0 178 166v582q0 407 400 407h352q26 0 44.5 -18.5t18.5 -44.5v-502q0 -182 166 -182q176 0 176 182v371q0 26 19 44.5t45 18.5h98
q27 0 46.5 -18.5t19.5 -44.5v-371q0 -182 166 -182q176 0 176 182v508q0 26 18.5 44.5t44.5 18.5z" />
    <glyph glyph-name="uniFEB4FE8A" unicode="&#xfeb4;&#xfe8a;" horiz-adv-x="3145" 
d="M1614 1065h-391q-19 0 -31 12t-12 31v68q0 18 12.5 31.5t30.5 13.5h39q-11 37 -11 57v51q0 91 61 151t152 60h21q87 0 153 -63q35 -31 2 -64l-41 -43q-34 -34 -69 -4q-18 18 -45 18h-21q-25 0 -41 -16t-16 -39v-41q0 -30 15.5 -48.5t41.5 -18.5h150q18 0 31.5 -15
t13.5 -30v-68q0 -19 -12.5 -31t-32.5 -12zM3146 229q19 0 33 -14.5t14 -34.5v-131q0 -20 -14 -34.5t-33 -14.5q-190 0 -269 104q-95 -139 -297 -139q-193 0 -294 107q-98 -107 -275 -107q-210 0 -318 104.5t-108 307.5v336h-188q-172 0 -172 -178v-580q0 -395 -408 -395
h-231q-211 0 -326 127t-115 307q0 210 121 387q40 55 90 18l74 -49q20 -13 25.5 -40t-6.5 -50q-76 -119 -76 -240q0 -112 56 -172.5t157 -60.5h233q178 0 178 166v582q0 407 400 407h352q26 0 44.5 -18.5t18.5 -44.5v-502q0 -182 166 -182q176 0 176 182v371q0 26 19 44.5
t45 18.5h98q27 0 46.5 -18.5t19.5 -44.5v-371q0 -182 166 -182q176 0 176 182v508q0 26 18.5 44.5t44.5 18.5h99q26 0 44.5 -18.5t18.5 -44.5v-463h2q0 -193 195 -193z" />
    <glyph glyph-name="uniFEB7FEB0" unicode="&#xfeb7;&#xfeb0;" horiz-adv-x="2496" 
d="M1704 1247h-121q-41 0 -41 37v117q0 17 12 28t29 11h121q39 0 39 -39v-117q0 -37 -39 -37zM565 1087h-137q-20 0 -33.5 14.5t-13.5 35.5v141q0 20 13.5 32.5t33.5 12.5h137q45 0 45 -45v-141q0 -21 -12.5 -35.5t-32.5 -14.5zM1542 958h-131q-20 0 -33.5 12t-13.5 31v140
q0 19 13.5 33t33.5 14h131q18 0 30.5 -14t12.5 -33v-140q0 -19 -12 -31t-31 -12zM1702 1001v140q0 19 14 33t33 14h131q19 0 32 -14t13 -33v-140q0 -19 -12.5 -31t-32.5 -12h-131q-19 0 -33 12.5t-14 30.5zM2163 948h98q26 0 44.5 -18.5t18.5 -44.5v-508
q0 -199 -97.5 -305.5t-272.5 -106.5q-188 0 -295 107q-94 -107 -275 -107q-210 0 -318 104.5t-108 307.5v207h-354v-611q0 -204 -96.5 -309.5t-282.5 -105.5h-20q-146 0 -256 98q-21 18 -25 44t13 50l51 64q37 45 86 8q43 -37 129 -37h24q80 0 115 43.5t35 142.5v908
q0 26 18.5 44.5t44.5 18.5h99q26 0 45.5 -18.5t19.5 -44.5v-68h518h2q25 0 43.5 -18.5t18.5 -44.5v-371q0 -182 168 -182q174 0 174 182v371q0 26 19.5 44.5t45.5 18.5h99q26 0 44.5 -18.5t18.5 -44.5v-371q0 -182 166 -182q176 0 176 182v508q0 26 19.5 44.5t46.5 18.5z
" />
    <glyph glyph-name="uniFEB8FEB0" unicode="&#xfeb8;&#xfeb0;" horiz-adv-x="2521" 
d="M1704 1247h-121q-41 0 -41 37v117q0 17 12 28t29 11h121q39 0 39 -39v-117q0 -37 -39 -37zM565 1087h-137q-20 0 -33.5 14.5t-13.5 35.5v141q0 20 13.5 32.5t33.5 12.5h137q45 0 45 -45v-141q0 -21 -12.5 -35.5t-32.5 -14.5zM1542 958h-131q-20 0 -33.5 12t-13.5 31v140
q0 19 13.5 33t33.5 14h131q18 0 30.5 -14t12.5 -33v-140q0 -19 -12 -31t-31 -12zM1702 1001v140q0 19 14 33t33 14h131q19 0 32 -14t13 -33v-140q0 -19 -12.5 -31t-32.5 -12h-131q-19 0 -33 12.5t-14 30.5zM2521 229q19 0 33 -14.5t14 -34.5v-131q0 -20 -14 -34.5t-33 -14.5
q-189 0 -268 104q-95 -139 -299 -139q-188 0 -295 107q-94 -107 -275 -107q-210 0 -318 104.5t-108 307.5v207h-354v-611q0 -204 -96.5 -309.5t-282.5 -105.5h-20q-146 0 -256 98q-21 18 -25 44t13 50l51 64q37 45 86 8q43 -37 129 -37h24q80 0 115 43.5t35 142.5v908
q0 26 18.5 44.5t44.5 18.5h99q26 0 45.5 -18.5t19.5 -44.5v-68h518h2q25 0 43.5 -18.5t18.5 -44.5v-371q0 -182 168 -182q174 0 174 182v371q0 26 19.5 44.5t45.5 18.5h99q26 0 44.5 -18.5t18.5 -44.5v-371q0 -182 166 -182q176 0 176 182v508q0 26 19.5 44.5t46.5 18.5h98
q26 0 44.5 -18.5t18.5 -44.5v-463h3q0 -193 194 -193z" />
    <glyph glyph-name="uniFEB7FE8A" unicode="&#xfeb7;&#xfe8a;" horiz-adv-x="3123" 
d="M1614 1065h-391q-19 0 -31 12t-12 31v68q0 18 12.5 31.5t30.5 13.5h39q-11 37 -11 57v51q0 91 61 151t152 60h21q87 0 153 -63q35 -31 2 -64l-41 -43q-34 -34 -69 -4q-18 18 -45 18h-21q-25 0 -41 -16t-16 -39v-41q0 -30 15.5 -48.5t41.5 -18.5h150q18 0 31.5 -15
t13.5 -30v-68q0 -19 -12.5 -31t-32.5 -12zM2335 1247h-121q-41 0 -41 37v117q0 17 12 28t29 11h121q39 0 39 -39v-117q0 -37 -39 -37zM2173 958h-131q-20 0 -33.5 12t-13.5 31v140q0 19 13.5 33t33.5 14h131q18 0 30.5 -14t12.5 -33v-140q0 -19 -12 -31t-31 -12zM2333 1001
v140q0 19 14 33t33 14h131q19 0 32 -14t13 -33v-140q0 -19 -12.5 -31t-32.5 -12h-131q-19 0 -33 12.5t-14 30.5zM2787 948h99q26 0 44.5 -18.5t18.5 -44.5v-508q0 -199 -97 -305.5t-272 -106.5q-193 0 -294 107q-98 -107 -275 -107q-210 0 -318 104.5t-108 307.5v336h-188
q-172 0 -172 -178v-580q0 -395 -408 -395h-231q-211 0 -326 127t-115 307q0 210 121 387q40 55 90 18l74 -49q20 -13 25.5 -40t-6.5 -50q-76 -119 -76 -240q0 -112 56 -172.5t157 -60.5h233q178 0 178 166v582q0 407 400 407h352q26 0 44.5 -18.5t18.5 -44.5v-502
q0 -182 166 -182q176 0 176 182v371q0 26 19 44.5t45 18.5h98q27 0 46.5 -18.5t19.5 -44.5v-371q0 -182 166 -182q176 0 176 182v508q0 26 18.5 44.5t44.5 18.5z" />
    <glyph glyph-name="uniFEB8FE8A" unicode="&#xfeb8;&#xfe8a;" horiz-adv-x="3145" 
d="M1614 1065h-391q-19 0 -31 12t-12 31v68q0 18 12.5 31.5t30.5 13.5h39q-11 37 -11 57v51q0 91 61 151t152 60h21q87 0 153 -63q35 -31 2 -64l-41 -43q-34 -34 -69 -4q-18 18 -45 18h-21q-25 0 -41 -16t-16 -39v-41q0 -30 15.5 -48.5t41.5 -18.5h150q18 0 31.5 -15
t13.5 -30v-68q0 -19 -12.5 -31t-32.5 -12zM2333 1247h-121q-41 0 -41 37v117q0 17 12 28t29 11h121q39 0 39 -39v-117q0 -37 -39 -37zM2171 958h-131q-20 0 -33.5 12t-13.5 31v140q0 19 13.5 33t33.5 14h131q18 0 30.5 -14t12.5 -33v-140q0 -19 -12 -31t-31 -12zM2331 1001
v140q0 19 14 33t33 14h131q19 0 32 -14t13 -33v-140q0 -19 -12.5 -31t-32.5 -12h-131q-19 0 -33 12.5t-14 30.5zM3146 229q19 0 33 -14.5t14 -34.5v-131q0 -20 -14 -34.5t-33 -14.5q-190 0 -269 104q-95 -139 -297 -139q-193 0 -294 107q-98 -107 -275 -107
q-210 0 -318 104.5t-108 307.5v336h-188q-172 0 -172 -178v-580q0 -395 -408 -395h-231q-211 0 -326 127t-115 307q0 210 121 387q40 55 90 18l74 -49q20 -13 25.5 -40t-6.5 -50q-76 -119 -76 -240q0 -112 56 -172.5t157 -60.5h233q178 0 178 166v582q0 407 400 407h352
q26 0 44.5 -18.5t18.5 -44.5v-502q0 -182 166 -182q176 0 176 182v371q0 26 19 44.5t45 18.5h98q27 0 46.5 -18.5t19.5 -44.5v-371q0 -182 166 -182q176 0 176 182v508q0 26 18.5 44.5t44.5 18.5h99q26 0 44.5 -18.5t18.5 -44.5v-463h2q0 -193 195 -193z" />
    <glyph glyph-name="uniFEBBFE8A" unicode="&#xfebb;&#xfe8a;" horiz-adv-x="3041" 
d="M1614 1065h-391q-19 0 -31 12t-12 31v68q0 18 12.5 31.5t30.5 13.5h39q-11 37 -11 57v51q0 91 61 151t152 60h21q87 0 153 -63q35 -31 2 -64l-41 -43q-34 -34 -69 -4q-18 18 -45 18h-21q-25 0 -41 -16t-16 -39v-41q0 -30 15.5 -48.5t41.5 -18.5h150q18 0 31.5 -15
t13.5 -30v-68q0 -19 -12.5 -31t-32.5 -12zM2222 956h283q182 0 282.5 -102.5t100.5 -282.5v-182q0 -389 -383 -389h-498q-209 0 -317.5 105.5t-108.5 306.5v301h-184q-172 0 -172 -178v-580q0 -395 -408 -395h-231q-211 0 -326 127t-115 307q0 210 121 387q40 55 90 18
l74 -49q20 -13 25.5 -40t-6.5 -50q-76 -119 -76 -240q0 -112 56 -172.5t157 -60.5h233q178 0 178 166v582q0 407 400 407h313q26 0 45 -18.5t19 -44.5v-150q129 129 227 178q94 49 221 49zM2660 389v184q0 71 -42.5 113.5t-110.5 42.5h-312q-96 0 -167 -35.5t-158 -122.5
l-62 -67v-92q0 -183 166 -183h533q153 0 153 160z" />
    <glyph glyph-name="uniFEBCFE8A" unicode="&#xfebc;&#xfe8a;" horiz-adv-x="3084" 
d="M1614 1065h-391q-19 0 -31 12t-12 31v68q0 18 12.5 31.5t30.5 13.5h39q-11 37 -11 57v51q0 91 61 151t152 60h21q87 0 153 -63q35 -31 2 -64l-41 -43q-34 -34 -69 -4q-18 18 -45 18h-21q-25 0 -41 -16t-16 -39v-41q0 -30 15.5 -48.5t41.5 -18.5h150q18 0 31.5 -15
t13.5 -30v-68q0 -19 -12.5 -31t-32.5 -12zM3084 229q19 0 33 -14.5t14 -34.5v-131q0 -20 -14 -34.5t-33 -14.5q-196 0 -276 117q-94 -117 -303 -117h-498q-209 0 -317.5 105.5t-108.5 306.5v301h-184q-172 0 -172 -178v-580q0 -395 -408 -395h-231q-211 0 -326 127t-115 307
q0 210 121 387q40 55 90 18l74 -49q20 -13 25.5 -40t-6.5 -50q-76 -119 -76 -240q0 -112 56 -172.5t157 -60.5h233q178 0 178 166v582q0 407 400 407h313q26 0 45 -18.5t19 -44.5v-150q129 129 227 178q94 49 221 49h283q182 0 282.5 -102.5t100.5 -282.5v-149h2
q0 -193 194 -193zM2660 389v184q0 71 -42.5 113.5t-110.5 42.5h-312q-96 0 -167 -35.5t-158 -122.5l-62 -67v-92q0 -183 166 -183h533q153 0 153 160z" />
    <glyph glyph-name="uniFEBFFE8A" unicode="&#xfebf;&#xfe8a;" horiz-adv-x="3041" 
d="M1614 1065h-391q-19 0 -31 12t-12 31v68q0 18 12.5 31.5t30.5 13.5h39q-11 37 -11 57v51q0 91 61 151t152 60h21q87 0 153 -63q35 -31 2 -64l-41 -43q-34 -34 -69 -4q-18 18 -45 18h-21q-25 0 -41 -16t-16 -39v-41q0 -30 15.5 -48.5t41.5 -18.5h150q18 0 31.5 -15
t13.5 -30v-68q0 -19 -12.5 -31t-32.5 -12zM2419 1104h-138q-20 0 -33.5 14.5t-13.5 34.5v141q0 20 13.5 32.5t33.5 12.5h138q45 0 45 -45v-141q0 -21 -12.5 -35t-32.5 -14zM2222 956h283q182 0 282.5 -102.5t100.5 -282.5v-182q0 -389 -383 -389h-498q-209 0 -317.5 105.5
t-108.5 306.5v301h-184q-172 0 -172 -178v-580q0 -395 -408 -395h-231q-211 0 -326 127t-115 307q0 210 121 387q40 55 90 18l74 -49q20 -13 25.5 -40t-6.5 -50q-76 -119 -76 -240q0 -112 56 -172.5t157 -60.5h233q178 0 178 166v582q0 407 400 407h313q26 0 45 -18.5
t19 -44.5v-150q129 129 227 178q94 49 221 49zM2660 389v184q0 71 -42.5 113.5t-110.5 42.5h-312q-96 0 -167 -35.5t-158 -122.5l-62 -67v-92q0 -183 166 -183h533q153 0 153 160z" />
    <glyph glyph-name="uniFEC0FE8A" unicode="&#xfec0;&#xfe8a;" horiz-adv-x="3084" 
d="M1614 1065h-391q-19 0 -31 12t-12 31v68q0 18 12.5 31.5t30.5 13.5h39q-11 37 -11 57v51q0 91 61 151t152 60h21q87 0 153 -63q35 -31 2 -64l-41 -43q-34 -34 -69 -4q-18 18 -45 18h-21q-25 0 -41 -16t-16 -39v-41q0 -30 15.5 -48.5t41.5 -18.5h150q18 0 31.5 -15
t13.5 -30v-68q0 -19 -12.5 -31t-32.5 -12zM2419 1104h-138q-20 0 -33.5 14.5t-13.5 34.5v141q0 20 13.5 32.5t33.5 12.5h138q45 0 45 -45v-141q0 -21 -12.5 -35t-32.5 -14zM3084 229q19 0 33 -14.5t14 -34.5v-131q0 -20 -14 -34.5t-33 -14.5q-196 0 -276 117
q-94 -117 -303 -117h-498q-209 0 -317.5 105.5t-108.5 306.5v301h-184q-172 0 -172 -178v-580q0 -395 -408 -395h-231q-211 0 -326 127t-115 307q0 210 121 387q40 55 90 18l74 -49q20 -13 25.5 -40t-6.5 -50q-76 -119 -76 -240q0 -112 56 -172.5t157 -60.5h233
q178 0 178 166v582q0 407 400 407h313q26 0 45 -18.5t19 -44.5v-150q129 129 227 178q94 49 221 49h283q182 0 282.5 -102.5t100.5 -282.5v-149h2q0 -193 194 -193zM2660 389v184q0 71 -42.5 113.5t-110.5 42.5h-312q-96 0 -167 -35.5t-158 -122.5l-62 -67v-92
q0 -183 166 -183h533q153 0 153 160z" />
    <glyph glyph-name="uniFEE8FE8A" unicode="&#xfee8;&#xfe8a;" horiz-adv-x="2148" 
d="M1913 1214h-137q-20 0 -33.5 14.5t-13.5 35.5v141q0 20 13.5 32.5t33.5 12.5h137q45 0 45 -45v-141q0 -21 -12.5 -35.5t-32.5 -14.5zM825 762h-391q-19 0 -31 12t-12 31v67q0 18 12.5 32t30.5 14h39q-10 33 -10 57v51q0 91 61 151t152 60h20q88 0 154 -63q35 -31 2 -64
l-41 -43q-35 -35 -70 -4q-18 18 -45 18h-20q-25 0 -41.5 -16t-16.5 -39v-41q0 -30 16 -48.5t42 -18.5h149q18 0 31.5 -15.5t13.5 -30.5v-67q0 -19 -13 -31t-32 -12zM2116 229h32q20 0 33.5 -14.5t13.5 -34.5v-131q0 -20 -13.5 -34.5t-33.5 -14.5h-30q-206 0 -302 97t-96 292
v324h-323q-172 0 -172 -178v-580q0 -395 -408 -395h-231q-211 0 -326 127t-115 307q0 210 121 387q40 55 90 18l74 -49q20 -13 25.5 -40t-6.5 -50q-76 -119 -76 -240q0 -112 56 -172.5t157 -60.5h233q178 0 178 166v582q0 407 400 407h323v62q0 26 20 45.5t46 19.5h98
q26 0 45 -19.5t19 -45.5v-615q0 -160 168 -160z" />
    <glyph glyph-name="uniFBE9FEAE" unicode="&#x649;&#xfeae;" horiz-adv-x="1478" 
d="M1446 229h33q20 0 33.5 -14.5t13.5 -34.5v-131q0 -20 -13.5 -34.5t-33.5 -14.5h-31q-206 0 -301.5 97t-95.5 292v324h-447v-740q0 -204 -96.5 -309.5t-282.5 -105.5h-20q-146 0 -256 98q-21 18 -25 44t13 50l51 64q37 45 86 8q43 -37 129 -37h24q80 0 115 43.5t35 142.5
v908q0 26 18.5 44.5t44.5 18.5h611v62q0 26 19.5 45.5t45.5 19.5h98q26 0 45 -19.5t19 -45.5v-615q0 -160 168 -160z" />
    <glyph glyph-name="uniFBE9FEB0" unicode="&#x649;&#xfeb0;" horiz-adv-x="1478" 
d="M563 1087h-137q-20 0 -33.5 14.5t-13.5 35.5v141q0 20 13.5 32.5t33.5 12.5h137q45 0 45 -45v-141q0 -21 -12.5 -35.5t-32.5 -14.5zM1446 229h33q20 0 33.5 -14.5t13.5 -34.5v-131q0 -20 -13.5 -34.5t-33.5 -14.5h-31q-206 0 -301.5 97t-95.5 292v324h-447v-740
q0 -204 -96.5 -309.5t-282.5 -105.5h-20q-146 0 -256 98q-21 18 -25 44t13 50l51 64q37 45 86 8q43 -37 129 -37h24q80 0 115 43.5t35 142.5v908q0 26 18.5 44.5t44.5 18.5h611v62q0 26 19.5 45.5t45.5 19.5h98q26 0 45 -19.5t19 -45.5v-615q0 -160 168 -160z" />
    <glyph glyph-name="uniFBE9FEE6" unicode="&#x649;&#xfee6;" horiz-adv-x="2084" 
d="M2052 229h33q20 0 33.5 -14.5t13.5 -34.5v-131q0 -20 -13.5 -34.5t-33.5 -14.5h-31q-206 0 -300.5 96.5t-94.5 292.5v195h-434v-627q0 -395 -408 -395h-231q-211 0 -326 127t-115 307q0 213 121 387q40 55 90 18l74 -49q20 -13 25.5 -40.5t-6.5 -47.5q-76 -119 -76 -239
q0 -112 56.5 -174t156.5 -62h233q178 0 178 166v793q0 26 19 44.5t45 18.5h598v61q0 26 18.5 45t44.5 19h99q26 0 44.5 -19t18.5 -45v-483q0 -160 168 -160zM743 672h-137q-20 0 -33.5 14.5t-13.5 34.5v141q0 20 13.5 32.5t33.5 12.5h137q45 0 45 -45v-141q0 -21 -12.5 -35
t-32.5 -14z" />
    <glyph glyph-name="uniFBE9FB9F" unicode="&#x649;&#xfb9f;" horiz-adv-x="2084" 
d="M2052 229h33q20 0 33.5 -14.5t13.5 -34.5v-131q0 -20 -13.5 -34.5t-33.5 -14.5h-31q-206 0 -300.5 96.5t-94.5 292.5v195h-434v-627q0 -395 -408 -395h-231q-211 0 -326 127t-115 307q0 213 121 387q40 55 90 18l74 -49q20 -13 25.5 -40.5t-6.5 -47.5q-76 -119 -76 -239
q0 -112 56.5 -174t156.5 -62h233q178 0 178 166v793q0 26 19 44.5t45 18.5h598v61q0 26 18.5 45t44.5 19h99q26 0 44.5 -19t18.5 -45v-483q0 -160 168 -160z" />
    <glyph glyph-name="uniFE8CFE8A" unicode="&#xfe8c;&#xfe8a;" horiz-adv-x="2148" 
d="M2036 1192h-391q-19 0 -31 12t-12 31v68q0 18 12.5 31.5t30.5 13.5h38q-10 33 -10 57v51q0 91 61 151t152 60h21q87 0 153 -63q35 -31 2 -64l-41 -43q-34 -34 -69 -4q-18 18 -45 18h-21q-25 0 -41 -16t-16 -39v-41q0 -30 15.5 -48.5t41.5 -18.5h150q18 0 31.5 -15
t13.5 -30v-68q0 -19 -12.5 -31t-32.5 -12zM825 762h-391q-19 0 -31 12t-12 31v67q0 18 12.5 32t30.5 14h39q-10 33 -10 57v51q0 91 61 151t152 60h20q88 0 154 -63q35 -31 2 -64l-41 -43q-35 -35 -70 -4q-18 18 -45 18h-20q-25 0 -41.5 -16t-16.5 -39v-41q0 -30 16 -48.5
t42 -18.5h149q18 0 31.5 -15.5t13.5 -30.5v-67q0 -19 -13 -31t-32 -12zM2116 229h32q20 0 33.5 -14.5t13.5 -34.5v-131q0 -20 -13.5 -34.5t-33.5 -14.5h-30q-206 0 -302 97t-96 292v324h-323q-172 0 -172 -178v-580q0 -395 -408 -395h-231q-211 0 -326 127t-115 307
q0 210 121 387q40 55 90 18l74 -49q20 -13 25.5 -40t-6.5 -50q-76 -119 -76 -240q0 -112 56 -172.5t157 -60.5h233q178 0 178 166v582q0 407 400 407h323v62q0 26 20 45.5t46 19.5h98q26 0 45 -19.5t19 -45.5v-615q0 -160 168 -160z" />
    <glyph glyph-name="uni066E.init" unicode="&#x66e;" horiz-adv-x="675" 
d="M106 0h-106q-19 0 -33 14.5t-14 34.5v131q0 20 14 34.5t33 14.5h111q165 0 165 160v490q0 26 19 44.5t45 18.5h100q26 0 45 -18.5t19 -44.5v-490q0 -196 -95.5 -292.5t-302.5 -96.5z" />
    <glyph glyph-name="uni066E.medi" unicode="&#x66e;" horiz-adv-x="751" 
d="M686 229h66q19 0 33 -14.5t14 -34.5v-131q0 -20 -14 -34.5t-33 -14.5h-66q-180 0 -262 113q-94 -113 -318 -113h-106q-19 0 -33 14.5t-14 34.5v131q0 20 14 34.5t33 14.5h111q165 0 165 160v490q0 26 19 44.5t45 18.5h100q26 0 45 -18.5t19 -44.5v-457q0 -91 48.5 -142
t133.5 -51z" />
    <glyph glyph-name="uni066E.fina" unicode="&#x66e;" horiz-adv-x="1671" 
d="M1671 229q19 0 33 -14.5t14 -34.5v-131q0 -20 -14 -34.5t-33 -14.5q-197 0 -274 115q-100 -115 -318 -115h-524q-199 0 -304.5 112t-105.5 312v135q0 153 101 254q19 20 45.5 21.5t46.5 -17.5l70 -61q39 -33 4 -90q-39 -45 -39 -131v-113q0 -86 51 -139.5t133 -53.5h524
q166 0 166 160v490q0 26 19.5 44.5t46.5 18.5h98q26 0 45 -18.5t19 -44.5v-457h2q0 -193 194 -193z" />
    <glyph glyph-name="uni066F.fina" unicode="&#x66f;" horiz-adv-x="1597" 
d="M1427 229h168q20 0 35 -14.5t15 -34.5v-131q0 -20 -15 -34.5t-35 -14.5h-168v-47q0 -395 -407 -395h-434q-211 0 -326 127t-115 307q0 210 121 387q40 55 90 18l74 -49q20 -13 25.5 -40.5t-6.5 -47.5q-76 -119 -76 -242q0 -111 56 -171t157 -60h436q178 0 178 164v49
h-260q-149 0 -242 100q-98 101 -98 250v217q0 163 109 281q109 115 268 115h74q161 0 270 -109q106 -109 106 -287v-338zM827 569v-147q0 -89 42.5 -141t119.5 -52h211v340q0 77 -44.5 120.5t-117.5 43.5h-49q-70 0 -116 -44t-46 -120z" />
    <glyph glyph-name="uni06A1.init" unicode="&#x6a1;" horiz-adv-x="1148" 
d="M520 963h76q180 0 285.5 -105.5t105.5 -290.5v-159q0 -189 -108 -298.5t-283 -109.5h-594q-20 0 -34.5 14.5t-14.5 34.5v131q0 20 14.5 34.5t34.5 14.5h219l-96 338q0 164 100 279q102 117 295 117zM760 406v163q0 69 -47 116.5t-115 47.5h-82q-79 0 -123.5 -48.5
t-44.5 -133.5l80 -322h170q70 0 116 48.5t46 128.5z" />
    <glyph glyph-name="uni06A1.medi" unicode="&#x6a1;" horiz-adv-x="1181" 
d="M1182 229q19 0 33 -14.5t14 -34.5v-131q0 -20 -14 -34.5t-33 -14.5q-208 0 -285 129q-111 -129 -301 -129h-594q-20 0 -34.5 14.5t-14.5 34.5v131q0 20 14.5 34.5t34.5 14.5h219l-96 338q0 164 100 279q102 117 295 117h76q180 0 285.5 -105.5t105.5 -290.5v-145
q0 -193 195 -193zM760 406v163q0 69 -47 116.5t-115 47.5h-82q-79 0 -123.5 -48.5t-44.5 -133.5l80 -322h170q70 0 116 48.5t46 128.5z" />
    <glyph glyph-name="uni06A1.fina" unicode="&#x6a1;" horiz-adv-x="1992" 
d="M1993 229q19 0 33 -14.5t14 -34.5v-131q0 -20 -14 -34.5t-33 -14.5q-209 0 -285 131q-107 -131 -303 -131h-850q-199 0 -304.5 112t-105.5 312v135q0 153 101 254q19 20 45.5 21.5t46.5 -17.5l70 -61q39 -33 4 -90q-39 -45 -39 -131v-113q0 -86 51 -139.5t133 -53.5h473
l-96 338q0 164 100 279q102 117 295 117h76q180 0 285.5 -105.5t105.5 -290.5v-145h2q0 -193 195 -193zM1569 406v163q0 69 -47 116.5t-115 47.5h-82q-79 0 -123.5 -48.5t-44.5 -133.5l80 -322h170q70 0 116 48.5t46 128.5z" />
    <glyph glyph-name="uni06C2.fina" unicode="&#x6c2;" horiz-adv-x="1165" 
d="M754 1085h-392q-19 0 -31 12t-12 31v68q0 18 12.5 31.5t30.5 13.5h39q-10 33 -10 57v52q0 91 61 151t152 60h21q86 0 153 -64q35 -30 2 -63l-41 -43q-35 -35 -69 -5q-19 19 -45 19h-21q-25 0 -41 -16t-16 -39v-41q0 -30 15.5 -49t41.5 -19h150q18 0 31.5 -15t13.5 -30
v-68q0 -19 -12.5 -31t-32.5 -12zM1143 229h22q19 0 33 -14.5t14 -34.5v-131q0 -20 -14 -34.5t-33 -14.5h-71q-159 0 -256 88t-97 236v237q0 172 -168 172h-28q-85 0 -128.5 -45.5t-43.5 -126.5v-252q0 -26 -19.5 -44.5t-46.5 -18.5h-98q-26 0 -45 18.5t-19 44.5v242
q0 187 102 299.5t298 112.5h24q400 0 400 -402v-162q0 -81 46.5 -125.5t127.5 -44.5z" />
    <glyph glyph-name="uni06C3.fina" unicode="&#x6c3;" horiz-adv-x="1165" 
d="M457 1108h-131q-20 0 -33.5 14t-13.5 33v139q0 19 13.5 31t33.5 12h131q19 0 32 -12t13 -31v-139q0 -19 -13 -33t-32 -14zM795 1108h-131q-19 0 -33.5 14t-14.5 33v139q0 18 14.5 30.5t33.5 12.5h131q20 0 32.5 -12t12.5 -31v-139q0 -19 -13 -33t-32 -14zM1165 0h-71
q-159 0 -256 88t-97 236v237q0 172 -168 172h-28q-85 0 -128.5 -45.5t-43.5 -126.5v-252q0 -26 -19.5 -44.5t-46.5 -18.5h-98q-26 0 -45 18.5t-19 44.5v242q0 187 102 299.5t298 112.5h24q400 0 400 -402v-162q0 -81 46.5 -125.5t127.5 -44.5h22q19 0 33 -14.5t14 -34.5
v-131q0 -20 -14 -34.5t-33 -14.5z" />
    <glyph glyph-name="uniFB51" unicode="&#x671;" horiz-adv-x="677" arabic-form="final" 
d="M547 1538v-47q0 -57 -40 -98t-99 -41h-310q-18 0 -29.5 11.5t-11.5 29.5v43q0 18 11.5 30.5t29.5 12.5h49v34q0 78 38.5 121t107.5 43h115q62 0 100.5 -38t38.5 -101zM264 1513v-34h129q21 0 21 20v19q0 22 -25 22h-94q-31 0 -31 -27zM623 229h55q20 0 33.5 -14.5
t13.5 -34.5v-131q0 -20 -13.5 -34.5t-33.5 -14.5h-88q-164 0 -255 99t-91 276v624h-64q-26 0 -45.5 20t-19.5 46v100q0 26 19.5 45t45.5 19h228q26 0 44.5 -19t18.5 -45v-792q0 -144 152 -144z" />
    <glyph glyph-name="uniFB57" unicode="&#x67e;" horiz-adv-x="1671" arabic-form="final" 
d="M1671 229q19 0 33 -14.5t14 -34.5v-131q0 -20 -14 -34.5t-33 -14.5q-197 0 -274 115q-100 -115 -318 -115h-524q-199 0 -304.5 112t-105.5 312v135q0 153 101 254q19 20 45.5 21.5t46.5 -17.5l70 -61q39 -33 4 -90q-39 -45 -39 -131v-113q0 -86 51 -139.5t133 -53.5h524
q166 0 166 160v490q0 26 19.5 44.5t46.5 18.5h98q26 0 45 -18.5t19 -44.5v-457h2q0 -193 194 -193zM778 -188v-142q0 -19 -12.5 -33t-30.5 -14h-133q-19 0 -33 14t-14 33v142q0 17 14 29t33 12h133q19 0 31 -12t12 -29zM942 -147h131q19 0 31 -12t12 -29v-142
q0 -19 -12.5 -33t-30.5 -14h-131q-20 0 -33.5 14t-13.5 33v142q0 17 13.5 29t33.5 12zM776 -436h121q39 0 39 -35v-119q0 -37 -39 -37h-121q-41 0 -41 37v119q0 35 41 35z" />
    <glyph glyph-name="uniFB58" unicode="&#x67e;" horiz-adv-x="778" arabic-form="initial" 
d="M209 0h-209q-19 0 -33 14.5t-14 34.5v131q0 20 14 34.5t33 14.5h211q166 0 166 160v490q0 26 19.5 44.5t45.5 18.5h99q26 0 44.5 -18.5t18.5 -44.5v-490q0 -196 -94.5 -292.5t-300.5 -96.5zM199 -377h-133q-19 0 -33.5 14t-14.5 33v142q0 17 14.5 29t33.5 12h133
q19 0 31 -12t12 -29v-142q0 -19 -12.5 -33t-30.5 -14zM537 -377h-131q-20 0 -34 14t-14 33v142q0 17 14 29t34 12h131q19 0 31 -12t12 -29v-142q0 -19 -12.5 -33t-30.5 -14zM360 -627h-120q-41 0 -41 37v119q0 35 41 35h120q39 0 39 -35v-119q0 -37 -39 -37z" />
    <glyph glyph-name="uniFB59" unicode="&#x67e;" horiz-adv-x="851" arabic-form="medial" 
d="M786 229h66q19 0 33 -14.5t14 -34.5v-131q0 -20 -14 -34.5t-33 -14.5h-66q-180 0 -262 113q-94 -113 -315 -113h-209q-19 0 -33 14.5t-14 34.5v131q0 20 14 34.5t33 14.5h211q166 0 166 160v490q0 26 19.5 44.5t45.5 18.5h99q26 0 44.5 -18.5t18.5 -44.5v-457
q0 -91 48.5 -142t133.5 -51zM395 -188v-142q0 -19 -12.5 -33t-30.5 -14h-133q-19 0 -33 14t-14 33v142q0 17 14 29t33 12h133q19 0 31 -12t12 -29zM559 -147h131q19 0 31 -12t12 -29v-142q0 -19 -12.5 -33t-30.5 -14h-131q-20 0 -33.5 14t-13.5 33v142q0 17 13.5 29t33.5 12
zM393 -436h121q39 0 39 -35v-119q0 -37 -39 -37h-121q-41 0 -41 37v119q0 35 41 35z" />
    <glyph glyph-name="uniFB67" unicode="&#x679;" horiz-adv-x="1671" arabic-form="final" 
d="M930 1067h-309q-18 0 -29.5 11.5t-11.5 29.5v43q0 18 11.5 30.5t29.5 12.5h49v256q0 33 35 33h49q32 0 32 -33v-59q6 2 29 2h115q62 0 100.5 -38.5t38.5 -101.5v-47q0 -57 -40 -98t-99 -41zM786 1229v-35h129q21 0 21 20v19q0 22 -25 22h-94q-31 0 -31 -26zM1671 229
q19 0 33 -14.5t14 -34.5v-131q0 -20 -14 -34.5t-33 -14.5q-197 0 -274 115q-100 -115 -318 -115h-524q-199 0 -304.5 112t-105.5 312v135q0 153 101 254q19 20 45.5 21.5t46.5 -17.5l70 -61q39 -33 4 -90q-39 -45 -39 -131v-113q0 -86 51 -139.5t133 -53.5h524
q166 0 166 160v490q0 26 19.5 44.5t46.5 18.5h98q26 0 45 -18.5t19 -44.5v-457h2q0 -193 194 -193z" />
    <glyph glyph-name="uniFB68" unicode="&#x679;" horiz-adv-x="675" arabic-form="initial" 
d="M385 1393h115q62 0 100.5 -38.5t38.5 -101.5v-47q0 -57 -40 -98t-99 -41h-310q-18 0 -29 11.5t-11 29.5v43q0 18 11 30.5t29 12.5h50v256q0 33 34 33h50q32 0 32 -33v-59q6 2 29 2zM506 1214v19q0 22 -25 22h-94q-31 0 -31 -26v-35h129q21 0 21 20zM340 942h100
q26 0 45 -18.5t19 -44.5v-490q0 -196 -95.5 -292.5t-302.5 -96.5h-106q-19 0 -33 14.5t-14 34.5v131q0 20 14 34.5t33 14.5h111q165 0 165 160v490q0 26 19 44.5t45 18.5z" />
    <glyph glyph-name="uniFB69" unicode="&#x679;" horiz-adv-x="751" arabic-form="medial" 
d="M500 1067h-310q-18 0 -29 11.5t-11 29.5v43q0 18 11 30.5t29 12.5h50v256q0 33 34 33h50q32 0 32 -33v-59q6 2 29 2h115q62 0 100.5 -38.5t38.5 -101.5v-47q0 -57 -40 -98t-99 -41zM356 1229v-35h129q21 0 21 20v19q0 22 -25 22h-94q-31 0 -31 -26zM686 229h66
q19 0 33 -14.5t14 -34.5v-131q0 -20 -14 -34.5t-33 -14.5h-66q-180 0 -262 113q-94 -113 -318 -113h-106q-19 0 -33 14.5t-14 34.5v131q0 20 14 34.5t33 14.5h111q165 0 165 160v490q0 26 19 44.5t45 18.5h100q26 0 45 -18.5t19 -44.5v-457q0 -91 48.5 -142t133.5 -51z" />
    <glyph glyph-name="uniFB6B" unicode="&#x6a4;" horiz-adv-x="1992" arabic-form="final" 
d="M1436 1397h-121q-41 0 -41 37v116q0 17 12 28t29 11h121q39 0 39 -39v-116q0 -37 -39 -37zM1274 1108h-131q-20 0 -33.5 12t-13.5 31v139q0 19 13.5 33t33.5 14h131q18 0 30.5 -14t12.5 -33v-139q0 -19 -12 -31t-31 -12zM1434 1151v139q0 19 14 33t33 14h131q19 0 32 -14
t13 -33v-139q0 -19 -12.5 -31t-32.5 -12h-131q-19 0 -33 12.5t-14 30.5zM1993 229q19 0 33 -14.5t14 -34.5v-131q0 -20 -14 -34.5t-33 -14.5q-205 0 -287 129q-108 -129 -301 -129h-850q-199 0 -304.5 112t-105.5 312v135q0 153 101 254q19 20 45.5 21.5t46.5 -17.5l70 -61
q39 -33 4 -90q-39 -45 -39 -131v-113q0 -86 51 -139.5t133 -53.5h473l-94 338q0 164 100 279q99 117 293 117h76q180 0 285.5 -105.5t105.5 -290.5v-145q0 -193 197 -193zM1569 406v163q0 69 -47 116.5t-115 47.5h-80q-81 0 -125.5 -48.5t-44.5 -133.5l82 -322h168
q70 0 116 48.5t46 128.5z" />
    <glyph glyph-name="uniFB6C" unicode="&#x6a4;" horiz-adv-x="1148" arabic-form="initial" 
d="M616 1397h-120q-41 0 -41 37v116q0 17 12 28t29 11h120q39 0 39 -39v-116q0 -37 -39 -37zM455 1108h-131q-20 0 -34 12t-14 31v139q0 19 14 33t34 14h131q18 0 30.5 -14t12.5 -33v-139q0 -19 -12 -31t-31 -12zM614 1151v139q0 19 14.5 33t33.5 14h131q19 0 32 -14t13 -33
v-139q0 -19 -12.5 -31t-32.5 -12h-131q-19 0 -33.5 12.5t-14.5 30.5zM520 963h76q180 0 285.5 -105.5t105.5 -290.5v-159q0 -189 -108 -298.5t-283 -109.5h-594q-20 0 -34.5 14.5t-14.5 34.5v131q0 20 14.5 34.5t34.5 14.5h219l-96 338q0 164 100 279q102 117 295 117z
M760 406v163q0 69 -47 116.5t-115 47.5h-82q-79 0 -123.5 -48.5t-44.5 -133.5l80 -322h170q70 0 116 48.5t46 128.5z" />
    <glyph glyph-name="uniFB6D" unicode="&#x6a4;" horiz-adv-x="1181" arabic-form="medial" 
d="M616 1397h-120q-41 0 -41 37v116q0 17 12 28t29 11h120q39 0 39 -39v-116q0 -37 -39 -37zM455 1108h-131q-20 0 -34 12t-14 31v139q0 19 14 33t34 14h131q18 0 30.5 -14t12.5 -33v-139q0 -19 -12 -31t-31 -12zM614 1151v139q0 19 14.5 33t33.5 14h131q19 0 32 -14t13 -33
v-139q0 -19 -12.5 -31t-32.5 -12h-131q-19 0 -33.5 12.5t-14.5 30.5zM1182 229q20 0 33.5 -14.5t13.5 -34.5v-131q0 -20 -13.5 -34.5t-33.5 -14.5q-208 0 -285 129q-111 -129 -301 -129h-594q-20 0 -34.5 14.5t-14.5 34.5v131q0 20 14.5 34.5t34.5 14.5h219l-96 338
q0 164 100 279q102 117 295 117h76q180 0 285.5 -105.5t105.5 -290.5v-145q0 -193 195 -193zM760 406v163q0 69 -47 116.5t-115 47.5h-82q-79 0 -123.5 -48.5t-44.5 -133.5l80 -322h170q70 0 116 48.5t46 128.5z" />
    <glyph glyph-name="uniFB7B" unicode="&#x686;" horiz-adv-x="1273" arabic-form="final" 
d="M1155 229h119q20 0 33.5 -14.5t13.5 -34.5v-131q0 -20 -13.5 -34.5t-33.5 -14.5h-696q-108 0 -168 -49.5t-60 -136.5v-54q0 -89 115 -163q42 -23 20 -74l-34 -86q-11 -25 -35 -35t-49 0q-111 44 -178.5 129t-67.5 203v119q0 162 129 270q127 106 334 106h239
q-71 83 -71 209v133q0 74 -45 118t-119 44h-51q-67 0 -131 -49q-48 -40 -89 4l-63 72q-19 20 -17.5 46.5t21.5 45.5q47 43 119 77t139 34h84q179 0 279 -106t100 -282v-159q0 -187 176 -187zM797 -195v-120q0 -17 -11 -29t-28 -12h-115q-17 0 -29 12t-12 29v120
q0 14 12 25.5t29 11.5h115q17 0 28 -10t11 -27zM938 -158h115q17 0 28 -10t11 -27v-120q0 -17 -11 -29t-28 -12h-115q-17 0 -29 12t-12 29v120q0 14 12 25.5t29 11.5zM795 -410h106q33 0 33 -30v-103q0 -35 -33 -35h-106q-37 0 -37 35v103q0 30 37 30z" />
    <glyph glyph-name="uniFB7C" unicode="&#x686;" horiz-adv-x="1189" arabic-form="initial" 
d="M1071 229q19 0 33 -13.5t14 -33.5v-133q0 -20 -14 -34.5t-33 -14.5h-1069q-20 0 -34.5 14.5t-14.5 34.5v131q0 20 14.5 34.5t34.5 14.5h737q-71 83 -71 209v133q0 74 -46 118t-120 44h-51q-71 0 -129 -49q-51 -40 -89 4l-63 72q-19 20 -18 46.5t20 45.5q49 44 120.5 77.5
t137.5 33.5h86q179 0 278 -106t99 -282v-159q0 -187 178 -187zM469 -188v-142q0 -19 -12.5 -33t-30.5 -14h-133q-19 0 -33 14t-14 33v142q0 17 14 29t33 12h133q19 0 31 -12t12 -29zM633 -147h131q19 0 31 -12t12 -29v-142q0 -19 -12.5 -33t-30.5 -14h-131q-20 0 -33.5 14
t-13.5 33v142q0 17 13.5 29t33.5 12zM467 -436h121q39 0 39 -35v-119q0 -37 -39 -37h-121q-41 0 -41 37v119q0 35 41 35z" />
    <glyph glyph-name="uniFB7D" unicode="&#x686;" horiz-adv-x="1193" arabic-form="medial" 
d="M1071 229h123q20 0 33.5 -14.5t13.5 -34.5v-131q0 -20 -13.5 -34.5t-33.5 -14.5h-1192q-20 0 -34.5 14.5t-14.5 34.5v131q0 20 14.5 34.5t34.5 14.5h737q-71 83 -71 209v133q0 74 -46 118t-120 44h-51q-71 0 -129 -49q-51 -40 -89 4l-63 72q-19 20 -18 46.5t20 45.5
q49 44 120.5 77.5t137.5 33.5h86q179 0 278 -106t99 -282v-159q0 -187 178 -187zM469 -188v-142q0 -19 -12.5 -33t-30.5 -14h-133q-19 0 -33 14t-14 33v142q0 17 14 29t33 12h133q19 0 31 -12t12 -29zM633 -147h131q19 0 31 -12t12 -29v-142q0 -19 -12.5 -33t-30.5 -14h-131
q-20 0 -33.5 14t-13.5 33v142q0 17 13.5 29t33.5 12zM467 -436h121q39 0 39 -35v-119q0 -37 -39 -37h-121q-41 0 -41 37v119q0 35 41 35z" />
    <glyph glyph-name="uniFB89" unicode="&#x688;" horiz-adv-x="1159" arabic-form="final" 
d="M627 1126h-310q-18 0 -29.5 11.5t-11.5 29.5v43q0 18 11.5 30.5t29.5 12.5h50v256q0 33 34 33h50q32 0 32 -33v-59q6 2 29 2h115q62 0 100.5 -38t38.5 -101v-47q0 -57 -40 -98.5t-99 -41.5zM483 1288v-35h129q21 0 21 21v18q0 23 -25 23h-94q-31 0 -31 -27zM1159 229
q19 0 33 -14.5t14 -34.5v-131q0 -20 -14 -34.5t-33 -14.5q-198 0 -276 96q-116 -96 -289 -96h-238q-140 0 -258 100q-20 13 -23 40.5t11 47.5l59 82q35 47 91 9q62 -50 139 -50h184q88 0 140 58t40 143l-30 188q-12 70 -62 113t-115 43h-22q-26 0 -46 19t-20 45v100
q0 26 19.5 44.5t46.5 18.5h20q357 0 400 -309l45 -309q17 -80 61 -117t123 -37z" />
    <glyph glyph-name="uniFB8B" unicode="&#x698;" horiz-adv-x="798" arabic-form="final" 
d="M555 1376h-121q-41 0 -41 37v117q0 17 12 28t29 11h121q39 0 39 -39v-117q0 -37 -39 -37zM393 1087h-131q-20 0 -33.5 12t-13.5 31v140q0 19 13.5 33t33.5 14h131q18 0 30.5 -14t12.5 -33v-140q0 -19 -12 -31t-31 -12zM553 1130v140q0 19 14 33t33 14h131q19 0 32 -14
t13 -33v-140q0 -19 -12.5 -31t-32.5 -12h-131q-19 0 -33 12.5t-14 30.5zM799 229q19 0 33 -14.5t14 -34.5v-131q0 -20 -14 -34.5t-33 -14.5q-121 0 -195 41v-68q0 -204 -96.5 -309.5t-282.5 -105.5h-20q-146 0 -256 98q-21 18 -25 44t13 50l51 64q37 45 86 8q43 -37 129 -37
h24q80 0 115 43.5t35 142.5v908q0 26 18.5 44.5t44.5 18.5h99q26 0 45.5 -18.5t19.5 -44.5v-457q0 -193 195 -193z" />
    <glyph glyph-name="uniFB8D" unicode="&#x691;" horiz-adv-x="798" arabic-form="final" 
d="M598 1067h-309q-18 0 -29.5 11.5t-11.5 29.5v43q0 18 11.5 30.5t29.5 12.5h49v256q0 33 35 33h49q33 0 33 -33v-59q6 2 28 2h115q62 0 100.5 -38.5t38.5 -101.5v-47q0 -57 -40 -98t-99 -41zM455 1229v-35h129q20 0 20 20v19q0 22 -24 22h-95q-30 0 -30 -26zM799 229
q19 0 33 -14.5t14 -34.5v-131q0 -20 -14 -34.5t-33 -14.5q-121 0 -195 41v-68q0 -204 -96.5 -309.5t-282.5 -105.5h-20q-146 0 -256 98q-21 18 -25 44t13 50l51 64q37 45 86 8q43 -37 129 -37h24q80 0 115 43.5t35 142.5v908q0 26 18.5 44.5t44.5 18.5h99q26 0 45.5 -18.5
t19.5 -44.5v-457q0 -193 195 -193z" />
    <glyph glyph-name="uniFB8F" unicode="&#x6a9;" horiz-adv-x="1787" arabic-form="final" 
d="M1788 229q19 0 33 -14.5t14 -34.5v-131q0 -20 -14 -34.5t-33 -14.5q-192 0 -270 106q-87 -106 -308 -106h-655q-199 0 -304.5 112t-105.5 312v135q0 153 101 254q19 20 45.5 21.5t46.5 -17.5l70 -61q39 -33 4 -90q-39 -45 -39 -131v-113q0 -86 51 -139.5t133 -53.5h655
q82 0 117 33t35 111v254l-571 100q-52 9 -66 59l-53 197q-15 57 31 84l831 565q20 14 44 1.5t24 -38.5v-147q0 -51 -48 -76l-632 -403l6 -33l594 -109q67 -12 67 -77v-328h2q0 -193 195 -193z" />
    <glyph glyph-name="uniFB90" unicode="&#x6a9;" horiz-adv-x="1230" arabic-form="initial" 
d="M1059 1595v-147q0 -52 -47 -76l-633 -403l6 -33l594 -109q68 -12 68 -77v-375q0 -195 -87.5 -285t-293.5 -90h-664q-49 0 -49 63v101q0 65 49 65h666q82 0 116.5 33t34.5 111v254l-571 100q-52 9 -66 59l-53 197q-15 57 31 84l831 565q20 14 44 1.5t24 -38.5z" />
    <glyph glyph-name="uniFB91" unicode="&#x6a9;" horiz-adv-x="1243" arabic-form="medial" 
d="M1243 229q19 0 33 -14.5t14 -34.5v-131q0 -20 -14 -34.5t-33 -14.5q-192 0 -270 106q-87 -106 -307 -106h-664q-49 0 -49 63v101q0 65 49 65h666q82 0 116.5 33t34.5 111v254l-571 100q-52 9 -66 59l-53 197q-15 57 31 84l831 565q20 14 44 1.5t24 -38.5v-147
q0 -52 -47 -76l-633 -403l6 -33l594 -109q68 -12 68 -77v-328h2q0 -193 194 -193z" />
    <glyph glyph-name="uniFB93" unicode="&#x6af;" horiz-adv-x="1787" arabic-form="final" 
d="M1448 1755l-780 -528q-19 -13 -19 8v88q0 24 15 33l780 530q18 9 18 -8v-90q0 -25 -14 -33zM1788 229q19 0 33 -14.5t14 -34.5v-131q0 -20 -14 -34.5t-33 -14.5q-192 0 -270 106q-87 -106 -308 -106h-655q-199 0 -304.5 112t-105.5 312v135q0 153 101 254
q19 20 45.5 21.5t46.5 -17.5l70 -61q39 -33 4 -90q-39 -45 -39 -131v-113q0 -86 51 -139.5t133 -53.5h655q82 0 117 33t35 111v254l-571 100q-52 9 -66 59l-53 197q-15 57 31 84l831 565q20 14 44 1.5t24 -38.5v-147q0 -51 -48 -76l-632 -403l6 -33l594 -109q67 -12 67 -77
v-328h2q0 -193 195 -193z" />
    <glyph glyph-name="uniFB94" unicode="&#x6af;" horiz-adv-x="1230" arabic-form="initial" 
d="M903 1755l-780 -528q-19 -13 -19 8v88q0 24 15 33l780 530q19 10 19 -8v-90q0 -24 -15 -33zM1059 1595v-147q0 -52 -47 -76l-633 -403l6 -33l594 -109q68 -12 68 -77v-375q0 -195 -87.5 -285t-293.5 -90h-664q-49 0 -49 63v101q0 65 49 65h666q82 0 116.5 33t34.5 111
v254l-571 100q-52 9 -66 59l-53 197q-15 57 31 84l831 565q20 14 44 1.5t24 -38.5z" />
    <glyph glyph-name="uniFB95" unicode="&#x6af;" horiz-adv-x="1243" arabic-form="medial" 
d="M903 1755l-780 -528q-19 -13 -19 8v88q0 24 15 33l780 530q19 10 19 -8v-90q0 -24 -15 -33zM1243 229q19 0 33 -14.5t14 -34.5v-131q0 -20 -14 -34.5t-33 -14.5q-192 0 -270 106q-87 -106 -307 -106h-664q-49 0 -49 63v101q0 65 49 65h666q82 0 116.5 33t34.5 111v254
l-571 100q-52 9 -66 59l-53 197q-15 57 31 84l831 565q20 14 44 1.5t24 -38.5v-147q0 -52 -47 -76l-633 -403l6 -33l594 -109q68 -12 68 -77v-328h2q0 -193 194 -193z" />
    <glyph glyph-name="uniFB9F" unicode="&#x6ba;" horiz-adv-x="1419" arabic-form="final" 
d="M1419 229q19 0 33 -14.5t14 -34.5v-131q0 -20 -14 -34.5t-33 -14.5q-120 0 -194 41v-84q0 -395 -408 -395h-231q-211 0 -326 127t-115 307q0 213 121 387q40 55 90 18l74 -49q20 -13 25.5 -40.5t-6.5 -47.5q-76 -119 -76 -239q0 -112 56.5 -174t156.5 -62h233
q178 0 178 166v774q0 26 19 45t45 19h98q26 0 46 -19t20 -45v-307q0 -193 194 -193z" />
    <glyph glyph-name="uniFBA5" unicode="&#x6c0;" horiz-adv-x="1159" arabic-form="final" 
d="M725 1139h-391q-19 0 -31 12t-12 31v67q0 18 12.5 31.5t30.5 13.5h39q-11 37 -11 58v51q0 91 61 151t152 60h21q87 0 154 -64q35 -30 2 -63l-41 -43q-35 -35 -70 -4q-18 18 -45 18h-21q-25 0 -41 -16t-16 -39v-41q0 -30 15.5 -49t41.5 -19h150q18 0 31.5 -15t13.5 -30
v-67q0 -19 -12.5 -31t-32.5 -12zM1120 229h39q20 0 33.5 -13.5t13.5 -33.5v-133q0 -20 -13.5 -34.5t-33.5 -14.5h-74q-209 0 -297 172q-86 -111 -241 -111h-62q-148 0 -243 95q-97 94 -97 241v170q0 180 102.5 288t274.5 108h41q104 0 182 -66v78q0 26 19 44.5t45 18.5h98
q26 0 45 -18.5t19 -44.5v-600q0 -146 149 -146zM535 291h47q79 0 121 46.5t42 131.5v100q0 77 -45 120.5t-118 43.5h-47q-70 0 -116 -44t-46 -120v-100q0 -178 162 -178z" />
    <glyph glyph-name="uniFBA7" unicode="&#x6c1;" horiz-adv-x="1165" arabic-form="final" 
d="M1165 0h-71q-159 0 -256 88t-97 236v237q0 172 -168 172h-28q-85 0 -128.5 -45.5t-43.5 -126.5v-252q0 -26 -19.5 -44.5t-46.5 -18.5h-98q-26 0 -45 18.5t-19 44.5v242q0 187 102 299.5t298 112.5h24q400 0 400 -402v-162q0 -81 46.5 -125.5t127.5 -44.5h22
q19 0 33 -14.5t14 -34.5v-131q0 -20 -14 -34.5t-33 -14.5z" />
    <glyph glyph-name="uniFBA8" unicode="&#x6c1;" horiz-adv-x="675" arabic-form="initial" 
d="M504 879v-490q0 -246 -148 -332l-41 -149h54q28 0 46.5 -19.5t18.5 -46.5v-170q0 -29 -18 -47t-47 -18h-146q-26 0 -44.5 19.5t-18.5 45.5v170q0 62 18 127l8 35q-66 -4 -80 -4h-106q-19 0 -33 14.5t-14 34.5v131q0 20 14 34.5t33 14.5h111q165 0 165 160v490
q0 26 19 44.5t45 18.5h100q26 0 45 -18.5t19 -44.5z" />
    <glyph glyph-name="uniFBA9" unicode="&#x6c1;" horiz-adv-x="1531" arabic-form="medial" 
d="M721 229h811q20 0 33.5 -14.5t13.5 -34.5v-131q0 -20 -13.5 -34.5t-33.5 -14.5h-211l-43 -160h53q26 0 45 -19.5t19 -45.5v-170q0 -26 -19 -46t-45 -20h-145q-26 0 -46 20t-20 46v170q0 40 19 127l26 98h-284l90 -272q21 -55 6 -82l-29 -54q-18 -34 -74 -34h-339
q-161 0 -269 102q-106 100 -106 277v63h-160q-19 0 -33 14.5t-14 34.5v131q0 20 14 34.5t33 14.5h160v389q0 26 19.5 45t45.5 19h99q26 0 44.5 -19t18.5 -45v-684q0 -71 37.5 -109t105.5 -38h199l-102 270q-21 52 -6 82l26 56q15 34 74 34z" />
    <glyph glyph-name="uniFBAB" unicode="&#x6be;" horiz-adv-x="1366" arabic-form="final" 
d="M1167 229h197q19 0 33 -14.5t14 -34.5v-131q0 -20 -14 -34.5t-33 -14.5h-252l100 -272q19 -55 7 -82l-29 -54q-18 -34 -74 -34h-338q-166 0 -270.5 101t-104.5 271v70h-26q-75 0 -139 -49q-57 -38 -91 8l-59 82q-17 21 -14 45.5t24 42.5q118 100 260 100h45v338
q0 172 107 285q105 114 272 111h95q162 -3 266 -113q102 -114 102 -283v-143q0 -105 -78 -195zM877 733h-99q-65 2 -106 -42t-41 -122v-340h211q78 0 127 54t49 139v147q0 77 -37 119.5t-104 44.5zM774 -213h187l-78 213h-252v-70q0 -69 37.5 -106t105.5 -37z" />
    <glyph glyph-name="uniFBAC" unicode="&#x6be;" horiz-adv-x="1447" arabic-form="initial" 
d="M621 1276h223q201 0 323.5 -115t122.5 -315v-426q0 -192 -94 -306t-254 -114h-940q-20 0 -34.5 14.5t-14.5 34.5v131q0 20 14.5 34.5t34.5 14.5h180l-76 281q0 139 107 240q106 100 254 100h80q138 0 239 -98q99 -99 99 -242v-94q0 -107 -51 -187h73q82 0 119 45.5
t37 145.5v426q0 203 -217 203h-191q-87 0 -145 -43q-53 -33 -88 8l-57 73q-18 24 -15.5 49.5t23.5 43.5q116 96 248 96zM528 621h-61q-63 0 -98 -41t-35 -113l59 -238h123q141 0 141 140v98q0 154 -129 154z" />
    <glyph glyph-name="uniFBAD" unicode="&#x6be;" horiz-adv-x="1118" arabic-form="medial" 
d="M920 229h198q19 0 32 -13.5t13 -33.5v-133q0 -20 -13 -34.5t-32 -14.5h-252l99 -272q21 -52 6 -82l-27 -54q-18 -34 -76 -34h-336q-162 0 -268 100t-106 279v63h-158q-19 0 -33 14.5t-14 34.5v133q0 20 14 33.5t33 13.5h158v338q0 173 106 285q105 114 271 111h88
q166 -3 270 -113q104 -113 104 -283v-143q0 -106 -77 -195zM623 733h-91q-65 2 -106 -42t-41 -122v-340h209q78 0 127 55t49 140v145q0 77 -38.5 119.5t-108.5 44.5zM526 -213h187l-78 213h-250v-66q0 -147 141 -147z" />
    <glyph glyph-name="uniFBAF" unicode="&#x6d2;" horiz-adv-x="1564" arabic-form="final" 
d="M168 229h1380q27 0 45.5 -19t18.5 -48v-99q0 -26 -19 -44.5t-45 -18.5h-1216v-139q0 -168 162 -168h297q79 0 131 37q53 35 88 -6l57 -64q17 -19 15 -45t-21 -45q-110 -107 -266 -107h-299q-192 0 -292 106t-100 310v285q0 26 19 45.5t45 19.5z" />
    <glyph glyph-name="uniFBB1" unicode="&#x6d3;" horiz-adv-x="1564" arabic-form="final" 
d="M1051 365h-392q-19 0 -31 12t-12 31v67q0 18 12.5 31.5t30.5 13.5h39q-10 33 -10 58v51q0 91 61 151t152 60h21q86 0 153 -64q35 -30 2 -63l-41 -43q-34 -34 -69 -4q-18 18 -45 18h-21q-25 0 -41 -16t-16 -39v-41q0 -30 15.5 -49t41.5 -19h150q18 0 31.5 -15t13.5 -30
v-67q0 -19 -13 -31t-32 -12zM168 229h1380q27 0 45.5 -19t18.5 -48v-99q0 -26 -19 -44.5t-45 -18.5h-1216v-139q0 -168 162 -168h297q79 0 131 37q53 35 88 -6l57 -64q17 -19 15 -45t-21 -45q-110 -107 -266 -107h-299q-192 0 -292 106t-100 310v285q0 26 19 45.5t45 19.5z
" />
    <glyph glyph-name="uniFBFD" unicode="&#x6cc;" horiz-adv-x="1996" arabic-form="final" 
d="M1808 229h189q47 0 47 -67v-99q0 -63 -47 -63h-352q-26 0 -45 18.5t-19 44.5v650h-184q-172 0 -172 -178v-580q0 -395 -408 -395h-231q-211 0 -326 127t-115 307q0 210 121 387q40 55 90 18l74 -49q20 -13 25.5 -40t-6.5 -50q-76 -119 -76 -240q0 -112 56 -172.5
t157 -60.5h233q178 0 178 166v582q0 407 400 407h346q26 0 45.5 -18.5t19.5 -44.5v-650z" />
    <glyph glyph-name="uniFBFE" unicode="&#x6cc;" horiz-adv-x="778" arabic-form="initial" 
d="M209 0h-209q-19 0 -33 14.5t-14 34.5v131q0 20 14 34.5t33 14.5h211q166 0 166 160v490q0 26 19.5 44.5t45.5 18.5h99q26 0 44.5 -18.5t18.5 -44.5v-490q0 -196 -94.5 -292.5t-300.5 -96.5zM197 -377h-134q-19 0 -33 14t-14 33v142q0 17 14 29t33 12h134q19 0 31 -12
t12 -29v-142q0 -19 -12.5 -33t-30.5 -14zM535 -377h-132q-20 0 -33.5 14t-13.5 33v142q0 17 13.5 29t33.5 12h132q19 0 31 -12t12 -29v-142q0 -19 -12.5 -33t-30.5 -14z" />
    <glyph glyph-name="uniFBFF" unicode="&#x6cc;" horiz-adv-x="851" arabic-form="medial" 
d="M786 229h66q19 0 33 -14.5t14 -34.5v-131q0 -20 -14 -34.5t-33 -14.5h-66q-180 0 -262 113q-94 -113 -315 -113h-209q-19 0 -33 14.5t-14 34.5v131q0 20 14 34.5t33 14.5h211q166 0 166 160v490q0 26 19.5 44.5t45.5 18.5h99q26 0 44.5 -18.5t18.5 -44.5v-457
q0 -91 48.5 -142t133.5 -51zM217 -147h133q19 0 31 -12t12 -29v-142q0 -19 -12.5 -33t-30.5 -14h-133q-19 0 -33 14t-14 33v142q0 17 14 29t33 12zM557 -147h131q19 0 31 -12t12 -29v-142q0 -19 -12.5 -33t-30.5 -14h-131q-20 0 -33.5 14t-13.5 33v142q0 17 13.5 29t33.5 12
z" />
    <glyph glyph-name="uniFE82" unicode="&#x622;" horiz-adv-x="677" arabic-form="final" 
d="M160 1397q0 -45 -41 -45h-66q-19 0 -31 11.5t-12 33.5q0 81 49.5 133.5t124.5 52.5q60 0 140 -51q53 -35 90 -35q28 0 28 43q0 19 11.5 31t33.5 12h66q14 0 27.5 -13t13.5 -30q0 -85 -48 -136.5t-126 -51.5q-53 0 -141 49q-65 35 -84 35q-35 0 -35 -39zM623 229h55
q20 0 33.5 -14.5t13.5 -34.5v-131q0 -20 -13.5 -34.5t-33.5 -14.5h-88q-164 0 -255 99t-91 276v624h-64q-26 0 -45.5 20t-19.5 46v100q0 26 19.5 45t45.5 19h228q26 0 44.5 -19t18.5 -45v-792q0 -144 152 -144z" />
    <glyph glyph-name="uniFE84" unicode="&#x623;" horiz-adv-x="677" arabic-form="final" 
d="M543 1462v-67q0 -19 -13 -31t-32 -12h-392q-19 0 -31 12t-12 31v67q0 18 12.5 31.5t30.5 13.5h39q-10 33 -10 58v51q0 91 61 151t152 60h21q86 0 153 -64q35 -30 2 -63l-41 -43q-34 -34 -69 -4q-18 18 -45 18h-21q-25 0 -41 -16t-16 -39v-41q0 -30 15.5 -49t41.5 -19h150
q18 0 31.5 -15t13.5 -30zM623 229h55q20 0 33.5 -14.5t13.5 -34.5v-131q0 -20 -13.5 -34.5t-33.5 -14.5h-88q-164 0 -255 99t-91 276v624h-64q-26 0 -45.5 20t-19.5 46v100q0 26 19.5 45t45.5 19h228q26 0 44.5 -19t18.5 -45v-792q0 -144 152 -144z" />
    <glyph glyph-name="uniFE86" unicode="&#x624;" horiz-adv-x="1150" arabic-form="final" 
d="M719 1067h-412q-19 0 -31 12t-12 31v109q0 18 12.5 31.5t30.5 13.5h43q-14 25 -14 57v72q0 86 72 149q71 62 161 62h21q82 0 160 -72q26 -23 2 -64l-47 -75q-17 -26 -60 -4q-41 18 -59 18h-17q-25 0 -41 -16t-16 -39v-21q0 -30 15.5 -48.5t41.5 -18.5h150q18 0 31.5 -15
t13.5 -30v-109q0 -17 -13 -30t-32 -13zM981 229h168q20 0 34.5 -14.5t14.5 -34.5v-131q0 -20 -14.5 -34.5t-34.5 -14.5h-168v-27q0 -203 -99.5 -309t-291.5 -106h-156q-157 0 -266 106q-20 19 -22.5 45t14.5 45l57 64q37 40 90 6q52 -37 131 -37h154q161 0 164 168v45h-262
q-149 0 -242 100q-98 101 -98 250v217q0 164 108 281q109 115 268 115h74q161 0 270 -109q107 -110 107 -287v-338zM381 569v-147q0 -89 42.5 -141t119.5 -52h211v340q0 77 -44.5 120.5t-117.5 43.5h-49q-70 0 -116 -44t-46 -120z" />
    <glyph glyph-name="uniFE88" unicode="&#x625;" horiz-adv-x="677" arabic-form="final" 
d="M623 229h55q20 0 33.5 -14.5t13.5 -34.5v-131q0 -20 -13.5 -34.5t-33.5 -14.5h-88q-164 0 -255 99t-91 276v854h-64q-26 0 -45.5 19.5t-19.5 45.5v101q0 26 19.5 44.5t45.5 18.5h228q26 0 44.5 -18.5t18.5 -44.5v-1022q0 -144 152 -144zM385 -442h150q18 0 31.5 -15
t13.5 -30v-68q0 -19 -13 -31t-32 -12h-392q-19 0 -31 12t-12 31v68q0 18 12.5 31.5t30.5 13.5h39q-10 33 -10 57v51q0 91 61 151t152 60h21q87 0 153 -63q35 -31 2 -64l-41 -43q-34 -34 -69 -4q-18 18 -45 18h-21q-25 0 -41 -16t-16 -39v-41q0 -30 15.5 -48.5t41.5 -18.5z
" />
    <glyph glyph-name="uniFE8A" unicode="&#x626;" horiz-adv-x="1996" arabic-form="final" 
d="M1700 1065h-391q-19 0 -31 12t-12 31v68q0 18 12.5 31.5t30.5 13.5h39q-11 37 -11 57v51q0 91 61 151t152 60h21q87 0 153 -63q35 -31 2 -64l-40 -43q-35 -35 -70 -4q-18 18 -45 18h-21q-25 0 -41 -16t-16 -39v-41q0 -30 15.5 -48.5t41.5 -18.5h150q18 0 31.5 -15
t13.5 -30v-68q0 -19 -12.5 -31t-32.5 -12zM1808 229h189q47 0 47 -67v-99q0 -63 -47 -63h-352q-26 0 -45 18.5t-19 44.5v650h-184q-172 0 -172 -178v-580q0 -395 -408 -395h-231q-211 0 -326 127t-115 307q0 210 121 387q40 55 90 18l74 -49q20 -13 25.5 -40t-6.5 -50
q-76 -119 -76 -240q0 -112 56 -172.5t157 -60.5h233q178 0 178 166v582q0 407 400 407h346q26 0 45.5 -18.5t19.5 -44.5v-650z" />
    <glyph glyph-name="uniFE8B" unicode="&#x626;" horiz-adv-x="675" arabic-form="initial" 
d="M440 1221h150q18 0 31.5 -15t13.5 -30v-68q0 -19 -12.5 -31t-32.5 -12h-391q-19 0 -31 12t-12 31v68q0 18 12.5 31.5t30.5 13.5h39q-11 37 -11 57v51q0 91 61 151t152 60h21q87 0 153 -63q35 -31 2 -64l-41 -43q-34 -34 -69 -4q-18 18 -45 18h-21q-25 0 -41 -16t-16 -39
v-41q0 -30 15.5 -48.5t41.5 -18.5zM340 942h100q26 0 45 -18.5t19 -44.5v-490q0 -196 -95.5 -292.5t-302.5 -96.5h-106q-19 0 -33 14.5t-14 34.5v131q0 20 14 34.5t33 14.5h111q165 0 165 160v490q0 26 19 44.5t45 18.5z" />
    <glyph glyph-name="uniFE8C" unicode="&#x626;" horiz-adv-x="751" arabic-form="medial" 
d="M590 1065h-391q-19 0 -31 12t-12 31v68q0 18 12.5 31.5t30.5 13.5h39q-11 37 -11 57v51q0 91 61 151t152 60h21q87 0 153 -63q35 -31 2 -64l-41 -43q-34 -34 -69 -4q-18 18 -45 18h-21q-25 0 -41 -16t-16 -39v-41q0 -30 15.5 -48.5t41.5 -18.5h150q18 0 31.5 -15
t13.5 -30v-68q0 -19 -12.5 -31t-32.5 -12zM686 229h66q19 0 33 -14.5t14 -34.5v-131q0 -20 -14 -34.5t-33 -14.5h-66q-180 0 -262 113q-94 -113 -318 -113h-106q-19 0 -33 14.5t-14 34.5v131q0 20 14 34.5t33 14.5h111q165 0 165 160v490q0 26 19 44.5t45 18.5h100
q26 0 45 -18.5t19 -44.5v-457q0 -91 48.5 -142t133.5 -51z" />
    <glyph glyph-name="uniFE8E" unicode="&#x627;" horiz-adv-x="677" arabic-form="final" 
d="M623 229h55q20 0 33.5 -14.5t13.5 -34.5v-131q0 -20 -13.5 -34.5t-33.5 -14.5h-88q-164 0 -255 99t-91 276v854h-64q-26 0 -45.5 19.5t-19.5 45.5v101q0 26 19.5 44.5t45.5 18.5h228q26 0 44.5 -18.5t18.5 -44.5v-1022q0 -144 152 -144z" />
    <glyph glyph-name="uniFE90" unicode="&#x628;" horiz-adv-x="1671" arabic-form="final" 
d="M1671 229q19 0 33 -14.5t14 -34.5v-131q0 -20 -14 -34.5t-33 -14.5q-197 0 -274 115q-100 -115 -318 -115h-524q-199 0 -304.5 112t-105.5 312v135q0 153 101 254q19 20 45.5 21.5t46.5 -17.5l70 -61q39 -33 4 -90q-39 -45 -39 -131v-113q0 -86 51 -139.5t133 -53.5h524
q166 0 166 160v490q0 26 19.5 44.5t46.5 18.5h98q26 0 45 -18.5t19 -44.5v-457h2q0 -193 194 -193zM768 -147h137q20 0 32.5 -12t12.5 -31v-144q0 -20 -12.5 -33.5t-32.5 -13.5h-137q-20 0 -33.5 13.5t-13.5 33.5v144q0 19 13.5 31t33.5 12z" />
    <glyph glyph-name="uniFE91" unicode="&#x628;" horiz-adv-x="675" arabic-form="initial" 
d="M106 0h-106q-19 0 -33 14.5t-14 34.5v131q0 20 14 34.5t33 14.5h111q165 0 165 160v490q0 26 19 44.5t45 18.5h100q26 0 45 -18.5t19 -44.5v-490q0 -196 -95.5 -292.5t-302.5 -96.5zM309 -381h-137q-20 0 -33.5 13.5t-13.5 33.5v144q0 19 13.5 31t33.5 12h137
q20 0 32.5 -12t12.5 -31v-144q0 -20 -12.5 -33.5t-32.5 -13.5z" />
    <glyph glyph-name="uniFE92" unicode="&#x628;" horiz-adv-x="751" arabic-form="medial" 
d="M686 229h66q19 0 33 -14.5t14 -34.5v-131q0 -20 -14 -34.5t-33 -14.5h-66q-180 0 -262 113q-94 -113 -318 -113h-106q-19 0 -33 14.5t-14 34.5v131q0 20 14 34.5t33 14.5h111q165 0 165 160v490q0 26 19 44.5t45 18.5h100q26 0 45 -18.5t19 -44.5v-457q0 -91 48.5 -142
t133.5 -51zM317 -147h138q20 0 32.5 -12t12.5 -31v-144q0 -20 -12.5 -33.5t-32.5 -13.5h-138q-20 0 -33.5 13.5t-13.5 33.5v144q0 19 13.5 31t33.5 12z" />
    <glyph glyph-name="uniFE94" unicode="&#x629;" horiz-adv-x="1159" arabic-form="final" 
d="M428 1161h-131q-20 0 -33.5 14t-13.5 33v140q0 19 13.5 31t33.5 12h131q19 0 32 -12t13 -31v-140q0 -19 -13 -33t-32 -14zM766 1161h-131q-19 0 -33 14t-14 33v140q0 18 14 30.5t33 12.5h131q20 0 32.5 -12t12.5 -31v-140q0 -19 -13 -33t-32 -14zM1120 229h39
q20 0 33.5 -13.5t13.5 -33.5v-133q0 -20 -13.5 -34.5t-33.5 -14.5h-74q-209 0 -297 172q-86 -111 -241 -111h-62q-148 0 -243 95q-97 94 -97 241v170q0 180 102.5 288t274.5 108h41q104 0 182 -66v78q0 26 19 44.5t45 18.5h98q26 0 45 -18.5t19 -44.5v-600q0 -146 149 -146z
M535 291h47q79 0 121 46.5t42 131.5v100q0 77 -45 120.5t-118 43.5h-47q-70 0 -116 -44t-46 -120v-100q0 -178 162 -178z" />
    <glyph glyph-name="uniFE96" unicode="&#x62a;" horiz-adv-x="1671" arabic-form="final" 
d="M723 1087h-131q-20 0 -33.5 14.5t-13.5 33.5v139q0 19 13.5 31t33.5 12h131q19 0 32 -12t13 -31v-139q0 -19 -13.5 -33.5t-31.5 -14.5zM1061 1087h-131q-19 0 -33 14.5t-14 33.5v139q0 18 14 30.5t33 12.5h131q20 0 32.5 -12t12.5 -31v-139q0 -19 -13.5 -33.5
t-31.5 -14.5zM1671 229q19 0 33 -14.5t14 -34.5v-131q0 -20 -14 -34.5t-33 -14.5q-197 0 -274 115q-100 -115 -318 -115h-524q-199 0 -304.5 112t-105.5 312v135q0 153 101 254q19 20 45.5 21.5t46.5 -17.5l70 -61q39 -33 4 -90q-39 -45 -39 -131v-113q0 -86 51 -139.5
t133 -53.5h524q166 0 166 160v490q0 26 19.5 44.5t46.5 18.5h98q26 0 45 -18.5t19 -44.5v-457h2q0 -193 194 -193z" />
    <glyph glyph-name="uniFE97" unicode="&#x62a;" horiz-adv-x="778" arabic-form="initial" 
d="M393 1087h-131q-20 0 -33.5 14.5t-13.5 33.5v139q0 19 13.5 31t33.5 12h131q19 0 32 -12t13 -31v-139q0 -19 -13.5 -33.5t-31.5 -14.5zM731 1087h-131q-19 0 -33 14.5t-14 33.5v139q0 18 14 30.5t33 12.5h131q20 0 32.5 -12t12.5 -31v-139q0 -19 -13.5 -33.5t-31.5 -14.5
zM209 0h-209q-19 0 -33 14.5t-14 34.5v131q0 20 14 34.5t33 14.5h211q166 0 166 160v490q0 26 19.5 44.5t45.5 18.5h99q26 0 44.5 -18.5t18.5 -44.5v-490q0 -196 -94.5 -292.5t-300.5 -96.5z" />
    <glyph glyph-name="uniFE98" unicode="&#x62a;" horiz-adv-x="851" arabic-form="medial" 
d="M393 1087h-131q-20 0 -33.5 14.5t-13.5 33.5v139q0 19 13.5 31t33.5 12h131q19 0 32 -12t13 -31v-139q0 -19 -13.5 -33.5t-31.5 -14.5zM731 1087h-131q-19 0 -33 14.5t-14 33.5v139q0 18 14 30.5t33 12.5h131q20 0 32.5 -12t12.5 -31v-139q0 -19 -13.5 -33.5t-31.5 -14.5
zM786 229h66q19 0 33 -14.5t14 -34.5v-131q0 -20 -14 -34.5t-33 -14.5h-66q-180 0 -262 113q-94 -113 -315 -113h-209q-19 0 -33 14.5t-14 34.5v131q0 20 14 34.5t33 14.5h211q166 0 166 160v490q0 26 19.5 44.5t45.5 18.5h99q26 0 44.5 -18.5t18.5 -44.5v-457
q0 -91 48.5 -142t133.5 -51z" />
    <glyph glyph-name="uniFE9A" unicode="&#x62b;" horiz-adv-x="1671" arabic-form="final" 
d="M887 1376h-121q-41 0 -41 37v117q0 17 12 28t29 11h121q39 0 39 -39v-117q0 -37 -39 -37zM725 1087h-131q-20 0 -33.5 12t-13.5 31v140q0 19 13.5 33t33.5 14h131q18 0 30.5 -14t12.5 -33v-140q0 -19 -12 -31t-31 -12zM885 1130v140q0 19 14 33t33 14h131q19 0 32 -14
t13 -33v-140q0 -19 -12.5 -31t-32.5 -12h-131q-19 0 -33 12.5t-14 30.5zM1671 229q19 0 33 -14.5t14 -34.5v-131q0 -20 -14 -34.5t-33 -14.5q-197 0 -274 115q-100 -115 -318 -115h-524q-199 0 -304.5 112t-105.5 312v135q0 153 101 254q19 20 45.5 21.5t46.5 -17.5l70 -61
q39 -33 4 -90q-39 -45 -39 -131v-113q0 -86 51 -139.5t133 -53.5h524q166 0 166 160v490q0 26 19.5 44.5t46.5 18.5h98q26 0 45 -18.5t19 -44.5v-457h2q0 -193 194 -193z" />
    <glyph glyph-name="uniFE9B" unicode="&#x62b;" horiz-adv-x="778" arabic-form="initial" 
d="M557 1376h-121q-41 0 -41 37v117q0 17 12 28t29 11h121q39 0 39 -39v-117q0 -37 -39 -37zM395 1087h-131q-20 0 -33.5 12t-13.5 31v140q0 19 13.5 33t33.5 14h131q18 0 30.5 -14t12.5 -33v-140q0 -19 -12 -31t-31 -12zM733 1087h-131q-19 0 -33 12.5t-14 30.5v140
q0 19 14 33t33 14h131q19 0 32 -14t13 -33v-140q0 -19 -12.5 -31t-32.5 -12zM209 0h-209q-19 0 -33 14.5t-14 34.5v131q0 20 14 34.5t33 14.5h211q166 0 166 160v490q0 26 19.5 44.5t45.5 18.5h99q26 0 44.5 -18.5t18.5 -44.5v-490q0 -196 -94.5 -292.5t-300.5 -96.5z" />
    <glyph glyph-name="uniFE9C" unicode="&#x62b;" horiz-adv-x="851" arabic-form="medial" 
d="M555 1376h-121q-41 0 -41 37v117q0 17 12 28t29 11h121q39 0 39 -39v-117q0 -37 -39 -37zM393 1087h-131q-20 0 -33.5 12t-13.5 31v140q0 19 13.5 33t33.5 14h131q18 0 30.5 -14t12.5 -33v-140q0 -19 -12 -31t-31 -12zM553 1130v140q0 19 14 33t33 14h131q19 0 32 -14
t13 -33v-140q0 -19 -12.5 -31t-32.5 -12h-131q-19 0 -33 12.5t-14 30.5zM786 229h66q19 0 33 -14.5t14 -34.5v-131q0 -20 -14 -34.5t-33 -14.5h-66q-180 0 -262 113q-94 -113 -315 -113h-209q-19 0 -33 14.5t-14 34.5v131q0 20 14 34.5t33 14.5h211q166 0 166 160v490
q0 26 19.5 44.5t45.5 18.5h99q26 0 44.5 -18.5t18.5 -44.5v-457q0 -91 48.5 -142t133.5 -51z" />
    <glyph glyph-name="uniFE9E" unicode="&#x62c;" horiz-adv-x="1273" arabic-form="final" 
d="M1155 229h119q20 0 33.5 -14.5t13.5 -34.5v-131q0 -20 -13.5 -34.5t-33.5 -14.5h-696q-108 0 -168 -49.5t-60 -136.5v-54q0 -89 115 -163q42 -23 20 -74l-34 -86q-11 -25 -35 -35t-49 0q-111 44 -178.5 129t-67.5 203v119q0 162 129 270q127 106 334 106h239
q-71 83 -71 209v133q0 74 -45 118t-119 44h-51q-67 0 -131 -49q-48 -40 -89 4l-63 72q-19 20 -17.5 46.5t21.5 45.5q47 43 119 77t139 34h84q179 0 279 -106t100 -282v-159q0 -187 176 -187zM692 -139h135q20 0 32.5 -12t12.5 -31v-144q0 -20 -12.5 -33.5t-32.5 -13.5h-135
q-20 0 -34.5 13.5t-14.5 33.5v144q0 19 14 31t35 12z" />
    <glyph glyph-name="uniFE9F" unicode="&#x62c;" horiz-adv-x="1189" arabic-form="initial" 
d="M1071 229q19 0 33 -13.5t14 -33.5v-133q0 -20 -14 -34.5t-33 -14.5h-1069q-20 0 -34.5 14.5t-14.5 34.5v131q0 20 14.5 34.5t34.5 14.5h737q-71 83 -71 209v133q0 74 -46 118t-120 44h-51q-71 0 -129 -49q-51 -40 -89 4l-63 72q-19 20 -18 46.5t20 45.5q49 44 120.5 77.5
t137.5 33.5h86q179 0 278 -106t99 -282v-159q0 -187 178 -187zM459 -147h137q20 0 32.5 -12t12.5 -31v-144q0 -20 -12.5 -33.5t-32.5 -13.5h-137q-20 0 -33.5 13.5t-13.5 33.5v144q0 19 13.5 31t33.5 12z" />
    <glyph glyph-name="uniFEA0" unicode="&#x62c;" horiz-adv-x="1193" arabic-form="medial" 
d="M1071 229h123q20 0 33.5 -14.5t13.5 -34.5v-131q0 -20 -13.5 -34.5t-33.5 -14.5h-1192q-20 0 -34.5 14.5t-14.5 34.5v131q0 20 14.5 34.5t34.5 14.5h737q-71 83 -71 209v133q0 74 -46 118t-120 44h-51q-71 0 -129 -49q-51 -40 -89 4l-63 72q-19 20 -18 46.5t20 45.5
q49 44 120.5 77.5t137.5 33.5h86q179 0 278 -106t99 -282v-159q0 -187 178 -187zM459 -147h137q20 0 32.5 -12t12.5 -31v-144q0 -20 -12.5 -33.5t-32.5 -13.5h-137q-20 0 -33.5 13.5t-13.5 33.5v144q0 19 13.5 31t33.5 12z" />
    <glyph glyph-name="uniFEA2" unicode="&#x62d;" horiz-adv-x="1280" arabic-form="final" 
d="M1155 229h125q20 0 33.5 -14.5t13.5 -34.5v-131q0 -20 -13.5 -34.5t-33.5 -14.5h-702q-107 0 -166.5 -50t-59.5 -136v-19q0 -89 63.5 -137.5t186.5 -48.5q128 0 256 76q61 28 88 -19l51 -84q35 -52 -18 -90q-158 -113 -377 -113q-198 0 -340 97q-141 94 -141 258v119
q0 162 129 270q124 106 334 106h239q-71 83 -71 209v135q0 74 -45 118t-119 44h-51q-71 0 -131 -51q-50 -35 -89 4l-63 72q-19 20 -17.5 46.5t21.5 45.5q47 43 119 77t139 34h84q179 0 279 -106t100 -282v-159q0 -187 176 -187z" />
    <glyph glyph-name="uniFEA3" unicode="&#x62d;" horiz-adv-x="1189" arabic-form="initial" 
d="M1071 229q19 0 33 -13.5t14 -33.5v-133q0 -20 -14 -34.5t-33 -14.5h-1069q-20 0 -34.5 14.5t-14.5 34.5v131q0 20 14.5 34.5t34.5 14.5h737q-71 83 -71 209v133q0 74 -46 118t-120 44h-51q-71 0 -129 -49q-51 -40 -89 4l-63 72q-19 20 -18 46.5t20 45.5q49 44 120.5 77.5
t137.5 33.5h86q179 0 278 -106t99 -282v-159q0 -187 178 -187z" />
    <glyph glyph-name="uniFEA4" unicode="&#x62d;" horiz-adv-x="1193" arabic-form="medial" 
d="M1071 229h123q20 0 33.5 -14.5t13.5 -34.5v-131q0 -20 -13.5 -34.5t-33.5 -14.5h-1192q-20 0 -34.5 14.5t-14.5 34.5v131q0 20 14.5 34.5t34.5 14.5h737q-71 83 -71 209v133q0 74 -46 118t-120 44h-51q-71 0 -129 -49q-51 -40 -89 4l-63 72q-19 20 -18 46.5t20 45.5
q49 44 120.5 77.5t137.5 33.5h86q179 0 278 -106t99 -282v-159q0 -187 178 -187z" />
    <glyph glyph-name="uniFEA6" unicode="&#x62e;" horiz-adv-x="1280" arabic-form="final" 
d="M639 1110h-137q-20 0 -33.5 14.5t-13.5 34.5v141q0 20 13.5 33t33.5 13h137q45 0 45 -46v-141q0 -21 -12.5 -35t-32.5 -14zM1155 229h125q20 0 33.5 -14.5t13.5 -34.5v-131q0 -20 -13.5 -34.5t-33.5 -14.5h-702q-107 0 -166.5 -50t-59.5 -136v-19q0 -89 63.5 -137.5
t186.5 -48.5q128 0 256 76q61 28 88 -19l51 -84q35 -52 -18 -90q-158 -113 -377 -113q-198 0 -340 97q-141 94 -141 258v119q0 162 129 270q124 106 334 106h239q-71 83 -71 209v135q0 74 -45 118t-119 44h-51q-71 0 -131 -51q-50 -35 -89 4l-63 72q-19 20 -17.5 46.5
t21.5 45.5q47 43 119 77t139 34h84q179 0 279 -106t100 -282v-159q0 -187 176 -187z" />
    <glyph glyph-name="uniFEA7" unicode="&#x62e;" horiz-adv-x="1189" arabic-form="initial" 
d="M545 1110h-137q-20 0 -34 14.5t-14 34.5v141q0 20 14 33t34 13h137q45 0 45 -46v-141q0 -21 -12.5 -35t-32.5 -14zM1071 229q19 0 33 -13.5t14 -33.5v-133q0 -20 -14 -34.5t-33 -14.5h-1069q-20 0 -34.5 14.5t-14.5 34.5v131q0 20 14.5 34.5t34.5 14.5h737
q-71 83 -71 209v133q0 74 -46 118t-120 44h-51q-71 0 -129 -49q-51 -40 -89 4l-63 72q-19 20 -18 46.5t20 45.5q49 44 120.5 77.5t137.5 33.5h86q179 0 278 -106t99 -282v-159q0 -187 178 -187z" />
    <glyph glyph-name="uniFEA8" unicode="&#x62e;" horiz-adv-x="1193" arabic-form="medial" 
d="M545 1110h-137q-20 0 -34 14.5t-14 34.5v141q0 20 14 33t34 13h137q45 0 45 -46v-141q0 -21 -12.5 -35t-32.5 -14zM1071 229h123q20 0 33.5 -14.5t13.5 -34.5v-131q0 -20 -13.5 -34.5t-33.5 -14.5h-1192q-20 0 -34.5 14.5t-14.5 34.5v131q0 20 14.5 34.5t34.5 14.5h737
q-71 83 -71 209v133q0 74 -46 118t-120 44h-51q-71 0 -129 -49q-51 -40 -89 4l-63 72q-19 20 -18 46.5t20 45.5q49 44 120.5 77.5t137.5 33.5h86q179 0 278 -106t99 -282v-159q0 -187 178 -187z" />
    <glyph glyph-name="uniFEAA" unicode="&#x62f;" horiz-adv-x="1159" arabic-form="final" 
d="M1159 229q19 0 33 -14.5t14 -34.5v-131q0 -20 -14 -34.5t-33 -14.5q-198 0 -276 96q-116 -96 -289 -96h-238q-140 0 -258 100q-20 13 -23 40.5t11 47.5l59 82q35 47 91 9q62 -50 139 -50h184q88 0 140 58t40 143l-30 188q-12 70 -62 113t-115 43h-22q-26 0 -46 19t-20 45
v100q0 26 19.5 44.5t46.5 18.5h20q357 0 400 -309l45 -309q17 -80 61 -117t123 -37z" />
    <glyph glyph-name="uniFEAC" unicode="&#x630;" horiz-adv-x="1159" arabic-form="final" 
d="M594 1149h-137q-20 0 -33.5 14.5t-13.5 34.5v141q0 20 13.5 32.5t33.5 12.5h137q45 0 45 -45v-141q0 -21 -12.5 -35t-32.5 -14zM1159 229q19 0 33 -14.5t14 -34.5v-131q0 -20 -14 -34.5t-33 -14.5q-198 0 -276 96q-116 -96 -289 -96h-238q-140 0 -258 100
q-20 13 -23 40.5t11 47.5l59 82q35 47 91 9q62 -50 139 -50h184q88 0 140 58t40 143l-30 188q-12 70 -62 113t-115 43h-22q-26 0 -46 19t-20 45v100q0 26 19.5 44.5t46.5 18.5h20q357 0 400 -309l45 -309q17 -80 61 -117t123 -37z" />
    <glyph glyph-name="uniFEAE" unicode="&#x631;" horiz-adv-x="798" arabic-form="final" 
d="M799 229q19 0 33 -14.5t14 -34.5v-131q0 -20 -14 -34.5t-33 -14.5q-121 0 -195 41v-68q0 -204 -96.5 -309.5t-282.5 -105.5h-20q-146 0 -256 98q-21 18 -25 44t13 50l51 64q37 45 86 8q43 -37 129 -37h24q80 0 115 43.5t35 142.5v908q0 26 18.5 44.5t44.5 18.5h99
q26 0 45.5 -18.5t19.5 -44.5v-457q0 -193 195 -193z" />
    <glyph glyph-name="uniFEB0" unicode="&#x632;" horiz-adv-x="798" arabic-form="final" 
d="M565 1087h-137q-20 0 -33.5 14.5t-13.5 35.5v141q0 20 13.5 32.5t33.5 12.5h137q45 0 45 -45v-141q0 -21 -12.5 -35.5t-32.5 -14.5zM799 229q19 0 33 -14.5t14 -34.5v-131q0 -20 -14 -34.5t-33 -14.5q-121 0 -195 41v-68q0 -204 -96.5 -309.5t-282.5 -105.5h-20
q-146 0 -256 98q-21 18 -25 44t13 50l51 64q37 45 86 8q43 -37 129 -37h24q80 0 115 43.5t35 142.5v908q0 26 18.5 44.5t44.5 18.5h99q26 0 45.5 -18.5t19.5 -44.5v-457q0 -193 195 -193z" />
    <glyph glyph-name="uniFEB2" unicode="&#x633;" horiz-adv-x="2557" arabic-form="final" 
d="M2558 229q19 0 33 -14.5t14 -34.5v-131q0 -20 -14 -34.5t-33 -14.5q-184 0 -266 102q-101 -137 -299 -137q-190 0 -297 107q-94 -107 -273 -107q-113 0 -198 39v-47q0 -395 -408 -395h-231q-211 0 -326 127t-115 307q0 213 121 387q40 55 90 18l74 -49q20 -13 25.5 -40.5
t-6.5 -47.5q-76 -119 -76 -239q0 -112 56.5 -174t156.5 -62h233q178 0 178 166v774q0 26 19 45t45 19h98q26 0 46 -19t20 -45v-352q0 -182 166 -182q176 0 176 182v371q0 26 18.5 44.5t44.5 18.5h99q26 0 45.5 -18.5t19.5 -44.5v-371q0 -182 166 -182q176 0 176 182v508
q0 26 19 44.5t45 18.5h98q26 0 45.5 -18.5t19.5 -44.5v-463q0 -193 195 -193z" />
    <glyph glyph-name="uniFEB3" unicode="&#x633;" horiz-adv-x="1761" arabic-form="initial" 
d="M1425 948h99q26 0 44.5 -18.5t18.5 -44.5v-508q0 -199 -97.5 -305.5t-272.5 -106.5q-194 0 -295 107q-101 -107 -273 -107q-203 0 -311 123q-104 -88 -281 -88h-57q-19 0 -33 14.5t-14 34.5v131q0 20 14 34.5t33 14.5h59q164 0 164 160v359q0 26 19 44.5t45 18.5h98
q27 0 46.5 -18.5t19.5 -44.5v-371q0 -182 165 -182q177 0 177 182v371q0 26 18.5 44.5t44.5 18.5h98q26 0 45 -18.5t19 -44.5v-371q0 -182 168 -182q174 0 174 182v508q0 26 19.5 44.5t45.5 18.5z" />
    <glyph glyph-name="uniFEB4" unicode="&#x633;" horiz-adv-x="1783" arabic-form="medial" 
d="M1784 229q19 0 33 -14.5t14 -34.5v-131q0 -20 -14 -34.5t-33 -14.5q-189 0 -268 104q-95 -139 -299 -139q-194 0 -295 107q-101 -107 -273 -107q-203 0 -311 123q-104 -88 -281 -88h-57q-19 0 -33 14.5t-14 34.5v131q0 20 14 34.5t33 14.5h59q164 0 164 160v359
q0 26 19 44.5t45 18.5h98q27 0 46.5 -18.5t19.5 -44.5v-371q0 -182 165 -182q177 0 177 182v371q0 26 18.5 44.5t44.5 18.5h98q26 0 45 -18.5t19 -44.5v-371q0 -182 168 -182q174 0 174 182v508q0 26 19.5 44.5t45.5 18.5h99q26 0 44.5 -18.5t18.5 -44.5v-463h2
q0 -193 195 -193z" />
    <glyph glyph-name="uniFEB6" unicode="&#x634;" horiz-adv-x="2557" arabic-form="final" 
d="M1743 1247h-121q-41 0 -41 37v117q0 17 12 28t29 11h121q39 0 39 -39v-117q0 -37 -39 -37zM1581 958h-131q-20 0 -33.5 12t-13.5 31v140q0 19 13.5 33t33.5 14h131q18 0 30.5 -14t12.5 -33v-140q0 -19 -12 -31t-31 -12zM1741 1001v140q0 19 14 33t33 14h131q19 0 32 -14
t13 -33v-140q0 -19 -12.5 -31t-32.5 -12h-131q-19 0 -33 12.5t-14 30.5zM2558 229q19 0 33 -14.5t14 -34.5v-131q0 -20 -14 -34.5t-33 -14.5q-184 0 -266 102q-101 -137 -299 -137q-190 0 -297 107q-94 -107 -273 -107q-113 0 -198 39v-47q0 -395 -408 -395h-231
q-211 0 -326 127t-115 307q0 213 121 387q40 55 90 18l74 -49q20 -13 25.5 -40.5t-6.5 -47.5q-76 -119 -76 -239q0 -112 56.5 -174t156.5 -62h233q178 0 178 166v774q0 26 19 45t45 19h98q26 0 46 -19t20 -45v-352q0 -182 166 -182q176 0 176 182v371q0 26 18.5 44.5
t44.5 18.5h99q26 0 45.5 -18.5t19.5 -44.5v-371q0 -182 166 -182q176 0 176 182v508q0 26 19 44.5t45 18.5h98q26 0 45.5 -18.5t19.5 -44.5v-463q0 -193 195 -193z" />
    <glyph glyph-name="uniFEB7" unicode="&#x634;" horiz-adv-x="1761" arabic-form="initial" 
d="M967 1247h-121q-41 0 -41 37v117q0 17 12 28t29 11h121q39 0 39 -39v-117q0 -37 -39 -37zM805 958h-131q-20 0 -33.5 12t-13.5 31v140q0 19 13.5 33t33.5 14h131q18 0 30.5 -14t12.5 -33v-140q0 -19 -12 -31t-31 -12zM965 1001v140q0 19 14 33t33 14h131q19 0 32 -14
t13 -33v-140q0 -19 -12.5 -31t-32.5 -12h-131q-19 0 -33 12.5t-14 30.5zM1425 948h99q26 0 44.5 -18.5t18.5 -44.5v-508q0 -199 -97.5 -305.5t-272.5 -106.5q-194 0 -295 107q-101 -107 -273 -107q-203 0 -311 123q-104 -88 -281 -88h-57q-19 0 -33 14.5t-14 34.5v131
q0 20 14 34.5t33 14.5h59q164 0 164 160v359q0 26 19 44.5t45 18.5h98q27 0 46.5 -18.5t19.5 -44.5v-371q0 -182 165 -182q177 0 177 182v371q0 26 18.5 44.5t44.5 18.5h98q26 0 45 -18.5t19 -44.5v-371q0 -182 168 -182q174 0 174 182v508q0 26 19.5 44.5t45.5 18.5z" />
    <glyph glyph-name="uniFEB8" unicode="&#x634;" horiz-adv-x="1783" arabic-form="medial" 
d="M965 1247h-121q-41 0 -41 37v117q0 17 12 28t29 11h121q39 0 39 -39v-117q0 -37 -39 -37zM803 958h-131q-20 0 -33.5 12t-13.5 31v140q0 19 13.5 33t33.5 14h131q18 0 30.5 -14t12.5 -33v-140q0 -19 -12 -31t-31 -12zM963 1001v140q0 19 14 33t33 14h131q19 0 32 -14
t13 -33v-140q0 -19 -12.5 -31t-32.5 -12h-131q-19 0 -33 12.5t-14 30.5zM1784 229q19 0 33 -14.5t14 -34.5v-131q0 -20 -14 -34.5t-33 -14.5q-189 0 -268 104q-95 -139 -299 -139q-194 0 -295 107q-101 -107 -273 -107q-203 0 -311 123q-104 -88 -281 -88h-57
q-19 0 -33 14.5t-14 34.5v131q0 20 14 34.5t33 14.5h59q164 0 164 160v359q0 26 19 44.5t45 18.5h98q27 0 46.5 -18.5t19.5 -44.5v-371q0 -182 165 -182q177 0 177 182v371q0 26 18.5 44.5t44.5 18.5h98q26 0 45 -18.5t19 -44.5v-371q0 -182 168 -182q174 0 174 182v508
q0 26 19.5 44.5t45.5 18.5h99q26 0 44.5 -18.5t18.5 -44.5v-463h2q0 -193 195 -193z" />
    <glyph glyph-name="uniFEBA" unicode="&#x635;" horiz-adv-x="2414" arabic-form="final" 
d="M2415 229q19 0 33 -14.5t14 -34.5v-131q0 -20 -14 -34.5t-33 -14.5q-197 0 -277 117q-94 -117 -305 -117h-608v-45q0 -395 -408 -395h-231q-211 0 -326 127t-115 307q0 210 121 387q40 55 90 18l74 -49q20 -13 25.5 -40t-6.5 -50q-76 -119 -76 -240q0 -112 56 -172.5
t157 -60.5h233q178 0 178 166v940q0 26 19 44.5t45 18.5h65q26 0 45 -18.5t19 -44.5v-64q148 127 319 127h324q182 0 283.5 -102.5t101.5 -282.5v-149h2q0 -193 195 -193zM1991 389v184q0 71 -43 113.5t-111 42.5h-354q-118 0 -188 -50.5t-70 -152.5v-297h612q154 0 154 160
z" />
    <glyph glyph-name="uniFEBB" unicode="&#x635;" horiz-adv-x="1574" arabic-form="initial" 
d="M711 956h325q182 0 283.5 -102.5t101.5 -282.5v-182q0 -389 -385 -389h-1034q-49 0 -49 63v101q0 65 49 65h197v664q0 26 19.5 44.5t45.5 18.5h64q26 0 45.5 -18.5t19.5 -44.5v-64q148 127 318 127zM1194 389v184q0 71 -43 113.5t-113 42.5h-354q-118 0 -188 -50.5
t-70 -152.5v-297h612q156 0 156 160z" />
    <glyph glyph-name="uniFEBC" unicode="&#x635;" horiz-adv-x="1615" arabic-form="medial" 
d="M1616 229q19 0 33 -14.5t14 -34.5v-131q0 -20 -14 -34.5t-33 -14.5q-197 0 -277 115q-95 -115 -303 -115h-1034q-49 0 -49 63v101q0 65 49 65h197v664q0 26 19.5 44.5t45.5 18.5h64q26 0 45.5 -18.5t19.5 -44.5v-64q148 127 318 127h325q182 0 283.5 -102.5t101.5 -282.5
v-149q0 -193 195 -193zM1194 389v184q0 71 -43 113.5t-113 42.5h-354q-118 0 -188 -50.5t-70 -152.5v-297h612q156 0 156 160z" />
    <glyph glyph-name="uniFEBE" unicode="&#x636;" horiz-adv-x="2414" arabic-form="final" 
d="M1735 1104h-138q-20 0 -33.5 14.5t-13.5 34.5v141q0 20 13.5 32.5t33.5 12.5h138q45 0 45 -45v-141q0 -21 -12.5 -35t-32.5 -14zM2415 229q19 0 33 -14.5t14 -34.5v-131q0 -20 -14 -34.5t-33 -14.5q-197 0 -277 117q-94 -117 -305 -117h-608v-45q0 -395 -408 -395h-231
q-211 0 -326 127t-115 307q0 210 121 387q40 55 90 18l74 -49q20 -13 25.5 -40t-6.5 -50q-76 -119 -76 -240q0 -112 56 -172.5t157 -60.5h233q178 0 178 166v940q0 26 19 44.5t45 18.5h65q26 0 45 -18.5t19 -44.5v-64q148 127 319 127h324q182 0 283.5 -102.5t101.5 -282.5
v-149h2q0 -193 195 -193zM1991 389v184q0 71 -43 113.5t-111 42.5h-354q-118 0 -188 -50.5t-70 -152.5v-297h612q154 0 154 160z" />
    <glyph glyph-name="uniFEBF" unicode="&#x636;" horiz-adv-x="1574" arabic-form="initial" 
d="M938 1104h-137q-20 0 -33.5 14.5t-13.5 34.5v141q0 20 13.5 32.5t33.5 12.5h137q45 0 45 -45v-141q0 -21 -12.5 -35t-32.5 -14zM711 956h325q182 0 283.5 -102.5t101.5 -282.5v-182q0 -389 -385 -389h-1034q-49 0 -49 63v101q0 65 49 65h197v664q0 26 19.5 44.5
t45.5 18.5h64q26 0 45.5 -18.5t19.5 -44.5v-64q148 127 318 127zM1194 389v184q0 71 -43 113.5t-113 42.5h-354q-118 0 -188 -50.5t-70 -152.5v-297h612q156 0 156 160z" />
    <glyph glyph-name="uniFEC0" unicode="&#x636;" horiz-adv-x="1615" arabic-form="medial" 
d="M938 1104h-137q-20 0 -33.5 14.5t-13.5 34.5v141q0 20 13.5 32.5t33.5 12.5h137q45 0 45 -45v-141q0 -21 -12.5 -35t-32.5 -14zM1616 229q19 0 33 -14.5t14 -34.5v-131q0 -20 -14 -34.5t-33 -14.5q-197 0 -277 115q-95 -115 -303 -115h-1034q-49 0 -49 63v101q0 65 49 65
h197v664q0 26 19.5 44.5t45.5 18.5h64q26 0 45.5 -18.5t19.5 -44.5v-64q148 127 318 127h325q182 0 283.5 -102.5t101.5 -282.5v-149q0 -193 195 -193zM1194 389v184q0 71 -43 113.5t-113 42.5h-354q-118 0 -188 -50.5t-70 -152.5v-297h612q156 0 156 160z" />
    <glyph glyph-name="uniFEC2" unicode="&#x637;" horiz-adv-x="1751" arabic-form="final" 
d="M1751 229q19 0 33 -14.5t14 -34.5v-131q0 -20 -14 -34.5t-33 -14.5q-193 0 -276 115q-95 -117 -304 -117h-1038q-49 0 -49 63v101q0 65 49 65h201l-2 1000h-62q-26 0 -44.5 19.5t-18.5 45.5v101q0 26 18.5 44.5t44.5 18.5h226q26 0 44.5 -18.5t18.5 -44.5v-539
q138 100 287 100h325q182 0 282.5 -102.5t100.5 -282.5v-147h2q0 -193 195 -193zM1329 387v184q0 71 -42.5 113.5t-112.5 42.5h-355q-118 0 -188 -50.5t-70 -152.5v-297h613q155 0 155 160z" />
    <glyph glyph-name="uniFEC3" unicode="&#x637;" horiz-adv-x="1699" arabic-form="initial" 
d="M838 956h323q182 0 283.5 -102.5t101.5 -282.5v-182q0 -389 -385 -389h-1159q-49 0 -49 63v101q0 65 49 65h324l-2 1000h-62q-26 0 -45.5 19.5t-19.5 45.5v101q0 26 19.5 44.5t45.5 18.5h225q26 0 45 -18.5t19 -44.5v-539q138 100 287 100zM1319 389v184q0 71 -43 113.5
t-111 42.5h-354q-118 0 -188 -50.5t-70 -152.5v-297h612q154 0 154 160z" />
    <glyph glyph-name="uniFEC4" unicode="&#x637;" horiz-adv-x="1742" arabic-form="medial" 
d="M1743 229q19 0 33 -14.5t14 -34.5v-131q0 -20 -14 -34.5t-33 -14.5q-197 0 -277 117q-94 -117 -305 -117h-1159q-49 0 -49 63v101q0 65 49 65h324l-2 1000h-62q-26 0 -45.5 19.5t-19.5 45.5v101q0 26 19.5 44.5t45.5 18.5h225q26 0 45 -18.5t19 -44.5v-539
q138 100 287 100h323q182 0 283.5 -102.5t101.5 -282.5v-149h2q0 -193 195 -193zM1319 389v184q0 71 -43 113.5t-111 42.5h-354q-118 0 -188 -50.5t-70 -152.5v-297h612q154 0 154 160z" />
    <glyph glyph-name="uniFEC6" unicode="&#x638;" horiz-adv-x="1751" arabic-form="final" 
d="M1751 229q19 0 33 -14.5t14 -34.5v-131q0 -20 -14 -34.5t-33 -14.5q-193 0 -276 115q-95 -117 -304 -117h-1038q-49 0 -49 63v101q0 65 49 65h201l-2 1000h-62q-26 0 -44.5 19.5t-18.5 45.5v101q0 26 18.5 44.5t44.5 18.5h226q26 0 44.5 -18.5t18.5 -44.5v-539
q138 100 287 100h325q182 0 282.5 -102.5t100.5 -282.5v-147h2q0 -193 195 -193zM1067 1102h-137q-20 0 -33.5 14.5t-13.5 34.5v141q0 20 13.5 32.5t33.5 12.5h137q45 0 45 -45v-141q0 -21 -12.5 -35t-32.5 -14zM1329 387v184q0 71 -42.5 113.5t-112.5 42.5h-355
q-118 0 -188 -50.5t-70 -152.5v-297h613q155 0 155 160z" />
    <glyph glyph-name="uniFEC7" unicode="&#x638;" horiz-adv-x="1699" arabic-form="initial" 
d="M838 956h323q182 0 283.5 -102.5t101.5 -282.5v-182q0 -389 -385 -389h-1159q-49 0 -49 63v101q0 65 49 65h324l-2 1000h-62q-26 0 -45.5 19.5t-19.5 45.5v101q0 26 19.5 44.5t45.5 18.5h225q26 0 45 -18.5t19 -44.5v-539q138 100 287 100zM1053 1104h-138
q-20 0 -33.5 14.5t-13.5 34.5v141q0 20 13.5 32.5t33.5 12.5h138q45 0 45 -45v-141q0 -21 -12.5 -35t-32.5 -14zM1319 389v184q0 71 -43 113.5t-111 42.5h-354q-118 0 -188 -50.5t-70 -152.5v-297h612q154 0 154 160z" />
    <glyph glyph-name="uniFEC8" unicode="&#x638;" horiz-adv-x="1742" arabic-form="medial" 
d="M1743 229q19 0 33 -14.5t14 -34.5v-131q0 -20 -14 -34.5t-33 -14.5q-197 0 -277 117q-94 -117 -305 -117h-1159q-49 0 -49 63v101q0 65 49 65h324l-2 1000h-62q-26 0 -45.5 19.5t-19.5 45.5v101q0 26 19.5 44.5t45.5 18.5h225q26 0 45 -18.5t19 -44.5v-539
q138 100 287 100h323q182 0 283.5 -102.5t101.5 -282.5v-149h2q0 -193 195 -193zM1053 1104h-138q-20 0 -33.5 14.5t-13.5 34.5v141q0 20 13.5 32.5t33.5 12.5h138q45 0 45 -45v-141q0 -21 -12.5 -35t-32.5 -14zM1319 389v184q0 71 -43 113.5t-111 42.5h-354
q-118 0 -188 -50.5t-70 -152.5v-297h612q154 0 154 160z" />
    <glyph glyph-name="uniFECA" unicode="&#x639;" horiz-adv-x="1296" arabic-form="final" 
d="M1077 229h219q19 0 33 -14.5t14 -34.5v-131q0 -20 -14 -34.5t-33 -14.5h-696q-107 0 -166 -50t-59 -136v-19q0 -89 63.5 -137.5t188.5 -48.5q128 0 256 76q59 27 86 -19l53 -84q33 -51 -18 -90q-162 -113 -377 -113q-203 0 -342 95q-140 96 -140 260v119q0 123 75 217
t206 135l-150 370q0 167 101 277q99 111 268 111h201q164 0 266 -111q100 -112 100 -277zM801 733h-99q-82 0 -133 -46t-61 -130l121 -328h235l121 328q-13 84 -61.5 130t-122.5 46z" />
    <glyph glyph-name="uniFECB" unicode="&#x639;" horiz-adv-x="1042" arabic-form="initial" 
d="M616 229h279q26 0 44.5 -19.5t18.5 -45.5v-101q0 -26 -18.5 -44.5t-44.5 -18.5h-893q-20 0 -34.5 14.5t-14.5 34.5v131q0 20 14.5 34.5t34.5 14.5h209q-59 77 -59 181v170q0 175 97.5 280t276.5 105h90q67 0 142.5 -36t122.5 -79q20 -19 21.5 -44.5t-17.5 -45.5l-62 -72
q-40 -40 -90 -4q-62 53 -135 53h-57q-78 0 -120 -46.5t-42 -131.5v-158q0 -93 54 -132.5t183 -39.5z" />
    <glyph glyph-name="uniFECC" unicode="&#x639;" horiz-adv-x="1099" arabic-form="medial" 
d="M881 229h219q20 0 33.5 -14.5t13.5 -34.5v-131q0 -20 -13.5 -34.5t-33.5 -14.5h-1098q-20 0 -34.5 14.5t-14.5 34.5v131q0 20 14.5 34.5t34.5 14.5h217l-139 346q0 168 100 277q99 111 271 111h198q167 0 269 -111q100 -112 100 -277zM313 557l121 -328h236l118 328
q-12 85 -59.5 130.5t-122.5 45.5h-100q-82 0 -132.5 -45.5t-60.5 -130.5z" />
    <glyph glyph-name="uniFECE" unicode="&#x63a;" horiz-adv-x="1296" arabic-form="final" 
d="M829 1110h-137q-20 0 -33.5 14.5t-13.5 34.5v141q0 20 13.5 33t33.5 13h137q45 0 45 -46v-141q0 -21 -12.5 -35t-32.5 -14zM1077 229h219q19 0 33 -14.5t14 -34.5v-131q0 -20 -14 -34.5t-33 -14.5h-696q-107 0 -166 -50t-59 -136v-19q0 -89 63.5 -137.5t188.5 -48.5
q128 0 256 76q59 27 86 -19l53 -84q33 -51 -18 -90q-162 -113 -377 -113q-203 0 -342 95q-140 96 -140 260v119q0 123 75 217t206 135l-150 370q0 167 101 277q99 111 268 111h201q164 0 266 -111q100 -112 100 -277zM801 733h-99q-82 0 -133 -46t-61 -130l121 -328h235
l121 328q-13 84 -61.5 130t-122.5 46z" />
    <glyph glyph-name="uniFECF" unicode="&#x63a;" horiz-adv-x="1042" arabic-form="initial" 
d="M645 1110h-137q-20 0 -33.5 14.5t-13.5 34.5v141q0 20 13.5 33t33.5 13h137q45 0 45 -46v-141q0 -21 -12.5 -35t-32.5 -14zM616 229h279q26 0 44.5 -19.5t18.5 -45.5v-101q0 -26 -18.5 -44.5t-44.5 -18.5h-893q-20 0 -34.5 14.5t-14.5 34.5v131q0 20 14.5 34.5t34.5 14.5
h209q-59 77 -59 181v170q0 175 97.5 280t276.5 105h90q67 0 142.5 -36t122.5 -79q20 -19 21.5 -44.5t-17.5 -45.5l-62 -72q-40 -40 -90 -4q-62 53 -135 53h-57q-78 0 -120 -46.5t-42 -131.5v-158q0 -93 54 -132.5t183 -39.5z" />
    <glyph glyph-name="uniFED0" unicode="&#x63a;" horiz-adv-x="1099" arabic-form="medial" 
d="M623 1106h-138q-20 0 -33.5 14.5t-13.5 34.5v141q0 20 13.5 32.5t33.5 12.5h138q45 0 45 -45v-141q0 -21 -12.5 -35t-32.5 -14zM881 229h219q20 0 33.5 -14.5t13.5 -34.5v-131q0 -20 -13.5 -34.5t-33.5 -14.5h-1098q-20 0 -34.5 14.5t-14.5 34.5v131q0 20 14.5 34.5
t34.5 14.5h217l-139 346q0 168 100 277q99 111 271 111h198q167 0 269 -111q100 -112 100 -277zM313 557l121 -328h236l118 328q-12 85 -59.5 130.5t-122.5 45.5h-100q-82 0 -132.5 -45.5t-60.5 -130.5z" />
    <glyph glyph-name="uniFED2" unicode="&#x641;" horiz-adv-x="1992" arabic-form="final" 
d="M1446 1108h-137q-20 0 -33.5 14.5t-13.5 34.5v141q0 20 13.5 32.5t33.5 12.5h137q45 0 45 -45v-141q0 -21 -12.5 -35t-32.5 -14zM1993 229q19 0 33 -14.5t14 -34.5v-131q0 -20 -14 -34.5t-33 -14.5q-205 0 -287 129q-108 -129 -301 -129h-850q-199 0 -304.5 112
t-105.5 312v135q0 153 101 254q19 20 45.5 21.5t46.5 -17.5l70 -61q39 -33 4 -90q-39 -45 -39 -131v-113q0 -86 51 -139.5t133 -53.5h473l-94 338q0 164 100 279q99 117 293 117h76q180 0 285.5 -105.5t105.5 -290.5v-145q0 -193 197 -193zM1569 406v163q0 69 -47 116.5
t-115 47.5h-80q-81 0 -125.5 -48.5t-44.5 -133.5l82 -322h168q70 0 116 48.5t46 128.5z" />
    <glyph glyph-name="uniFED3" unicode="&#x641;" horiz-adv-x="1148" arabic-form="initial" 
d="M627 1108h-138q-20 0 -33.5 14.5t-13.5 34.5v141q0 20 13.5 32.5t33.5 12.5h138q45 0 45 -45v-141q0 -21 -12.5 -35t-32.5 -14zM520 963h76q180 0 285.5 -105.5t105.5 -290.5v-159q0 -189 -108 -298.5t-283 -109.5h-594q-20 0 -34.5 14.5t-14.5 34.5v131q0 20 14.5 34.5
t34.5 14.5h219l-96 338q0 164 100 279q102 117 295 117zM760 406v163q0 69 -47 116.5t-115 47.5h-82q-79 0 -123.5 -48.5t-44.5 -133.5l80 -322h170q70 0 116 48.5t46 128.5z" />
    <glyph glyph-name="uniFED4" unicode="&#x641;" horiz-adv-x="1181" arabic-form="medial" 
d="M627 1108h-138q-20 0 -33.5 14.5t-13.5 34.5v141q0 20 13.5 32.5t33.5 12.5h138q45 0 45 -45v-141q0 -21 -12.5 -35t-32.5 -14zM1182 229q20 0 33.5 -14.5t13.5 -34.5v-131q0 -20 -13.5 -34.5t-33.5 -14.5q-208 0 -285 129q-111 -129 -301 -129h-594q-20 0 -34.5 14.5
t-14.5 34.5v131q0 20 14.5 34.5t34.5 14.5h219l-96 338q0 164 100 279q102 117 295 117h76q180 0 285.5 -105.5t105.5 -290.5v-145q0 -193 195 -193zM760 406v163q0 69 -47 116.5t-115 47.5h-82q-79 0 -123.5 -48.5t-44.5 -133.5l80 -322h170q70 0 116 48.5t46 128.5z" />
    <glyph glyph-name="uniFED6" unicode="&#x642;" horiz-adv-x="1597" arabic-form="final" 
d="M922 1108h-131q-20 0 -34 14t-14 33v139q0 19 14 31t34 12h131q19 0 32 -12t13 -31v-139q0 -19 -13 -33t-32 -14zM1260 1108h-132q-19 0 -33 14t-14 33v139q0 18 14 30.5t33 12.5h132q20 0 32.5 -12t12.5 -31v-139q0 -19 -13 -33t-32 -14zM1427 229h168q20 0 35 -14.5
t15 -34.5v-131q0 -20 -15 -34.5t-35 -14.5h-168v-47q0 -395 -407 -395h-434q-211 0 -326 127t-115 307q0 210 121 387q40 55 90 18l74 -49q20 -13 25.5 -40.5t-6.5 -47.5q-76 -119 -76 -242q0 -111 56 -171t157 -60h436q178 0 178 164v49h-260q-149 0 -242 100
q-98 101 -98 250v217q0 163 109 281q109 115 268 115h74q161 0 270 -109q106 -109 106 -287v-338zM827 569v-147q0 -89 42.5 -141t119.5 -52h211v340q0 77 -44.5 120.5t-117.5 43.5h-49q-70 0 -116 -44t-46 -120z" />
    <glyph glyph-name="uniFED7" unicode="&#x642;" horiz-adv-x="1148" arabic-form="initial" 
d="M453 1108h-131q-20 0 -34 14t-14 33v139q0 19 14 31t34 12h131q19 0 32 -12t13 -31v-139q0 -19 -13 -33t-32 -14zM791 1108h-132q-19 0 -33 14t-14 33v139q0 18 14 30.5t33 12.5h132q20 0 32.5 -12t12.5 -31v-139q0 -19 -13 -33t-32 -14zM520 963h76q180 0 285.5 -105.5
t105.5 -290.5v-159q0 -189 -108 -298.5t-283 -109.5h-594q-20 0 -34.5 14.5t-14.5 34.5v131q0 20 14.5 34.5t34.5 14.5h219l-96 338q0 164 100 279q102 117 295 117zM760 406v163q0 69 -47 116.5t-115 47.5h-82q-79 0 -123.5 -48.5t-44.5 -133.5l80 -322h170q70 0 116 48.5
t46 128.5z" />
    <glyph glyph-name="uniFED8" unicode="&#x642;" horiz-adv-x="1181" arabic-form="medial" 
d="M453 1108h-131q-20 0 -34 14t-14 33v139q0 19 14 31t34 12h131q19 0 32 -12t13 -31v-139q0 -19 -13 -33t-32 -14zM791 1108h-132q-19 0 -33 14t-14 33v139q0 18 14 30.5t33 12.5h132q20 0 32.5 -12t12.5 -31v-139q0 -19 -13 -33t-32 -14zM1182 229q19 0 33 -14.5
t14 -34.5v-131q0 -20 -14 -34.5t-33 -14.5q-208 0 -285 129q-111 -129 -301 -129h-594q-20 0 -34.5 14.5t-14.5 34.5v131q0 20 14.5 34.5t34.5 14.5h219l-96 338q0 164 100 279q102 117 295 117h76q180 0 285.5 -105.5t105.5 -290.5v-145q0 -193 195 -193zM760 406v163
q0 69 -47 116.5t-115 47.5h-82q-79 0 -123.5 -48.5t-44.5 -133.5l80 -322h170q70 0 116 48.5t46 128.5z" />
    <glyph glyph-name="uniFEDA" unicode="&#x643;" horiz-adv-x="1675" arabic-form="final" 
d="M1675 229q19 0 33 -14.5t14 -34.5v-131q0 -20 -14 -34.5t-33 -14.5q-195 0 -274 113q-94 -113 -316 -113h-213h-2h-315q-199 0 -304.5 112t-105.5 312v135q0 153 101 254q19 20 45.5 21.5t46.5 -17.5l70 -61q39 -33 4 -90q-39 -45 -39 -131v-113q0 -86 51 -139.5
t133 -53.5h313h2h218q165 0 165 160l-2 1006q0 26 19.5 44.5t46.5 18.5h98q26 0 45 -18.5t19 -44.5l2 -1006v-6q18 -154 192 -154zM834 614h-205q-19 0 -31 12t-12 31v109q0 18 12.5 31.5t30.5 13.5h207q58 0 61 49l-195 31q-42 6 -51 41l-28 94q-12 46 22 70l270 196
q13 11 32.5 1.5t19.5 -29.5v-119q0 -47 -37 -62l-119 -47l2 -6l184 -33q80 -15 80 -88v-49q0 -129 -54 -187.5t-189 -58.5z" />
    <glyph glyph-name="uniFEDB" unicode="&#x643;" horiz-adv-x="1230" arabic-form="initial" 
d="M1059 1595v-147q0 -52 -47 -76l-633 -403l6 -33l594 -109q68 -12 68 -77v-375q0 -195 -87.5 -285t-293.5 -90h-664q-49 0 -49 63v101q0 65 49 65h666q82 0 116.5 33t34.5 111v254l-571 100q-52 9 -66 59l-53 197q-15 57 31 84l831 565q20 14 44 1.5t24 -38.5z" />
    <glyph glyph-name="uniFEDC" unicode="&#x643;" horiz-adv-x="1243" arabic-form="medial" 
d="M1243 229q19 0 33 -14.5t14 -34.5v-131q0 -20 -14 -34.5t-33 -14.5q-192 0 -270 106q-87 -106 -307 -106h-664q-49 0 -49 63v101q0 65 49 65h666q82 0 116.5 33t34.5 111v254l-571 100q-52 9 -66 59l-53 197q-15 57 31 84l831 565q20 14 44 1.5t24 -38.5v-147
q0 -52 -47 -76l-633 -403l6 -33l594 -109q68 -12 68 -77v-328h2q0 -193 194 -193z" />
    <glyph glyph-name="uniFEDE" unicode="&#x644;" horiz-adv-x="1536" arabic-form="final" 
d="M1536 229q19 0 33 -14.5t14 -34.5v-131q0 -20 -14 -34.5t-33 -14.5q-121 0 -197 43v-90q0 -395 -407 -395h-346q-211 0 -326 127t-115 307q0 210 121 387q40 55 90 18l74 -49q20 -13 25.5 -40.5t-6.5 -47.5q-76 -119 -76 -242q0 -111 56 -171t157 -60h348q178 0 178 164
v1278h-63q-26 0 -45 19.5t-19 45.5v101q0 26 19 44.5t45 18.5h225q26 0 44.5 -18.5t18.5 -44.5l2 -973h2q0 -193 195 -193z" />
    <glyph glyph-name="uniFEDF" unicode="&#x644;" horiz-adv-x="677" arabic-form="initial" 
d="M106 0h-106q-19 0 -33 14.5t-14 34.5v131q0 20 14 34.5t33 14.5h111q165 0 165 160v840h-63q-26 0 -46 19.5t-20 45.5v101q0 26 19.5 44.5t46.5 18.5h225q27 0 46.5 -18.5t19.5 -44.5v-1006q0 -196 -95.5 -292.5t-302.5 -96.5z" />
    <glyph glyph-name="uniFEE0" unicode="&#x644;" horiz-adv-x="698" arabic-form="medial" 
d="M698 229q19 0 33 -14.5t14 -34.5v-131q0 -20 -14 -34.5t-33 -14.5q-195 0 -274 113q-94 -113 -318 -113h-106q-19 0 -33 14.5t-14 34.5v131q0 20 14 34.5t33 14.5h111q165 0 165 160v840h-63q-26 0 -46 19.5t-20 45.5v101q0 26 19.5 44.5t46.5 18.5h225q27 0 46.5 -18.5
t19.5 -44.5v-973q0 -193 194 -193z" />
    <glyph glyph-name="uniFEE2" unicode="&#x645;" horiz-adv-x="1351" arabic-form="final" 
d="M1352 229q19 0 33 -14.5t14 -34.5v-131q0 -20 -14 -34.5t-33 -14.5q-208 0 -285 129q-111 -129 -303 -129h-293q-68 0 -106.5 -34t-38.5 -97v-420q0 -26 -19 -44.5t-45 -18.5h-100q-26 0 -45 18.5t-19 44.5v420q0 149 78.5 245t212.5 113l-94 340q0 164 100 279
q99 117 293 117h76q180 0 285.5 -105.5t105.5 -290.5v-145h2q0 -193 195 -193zM928 406v163q0 69 -47 116.5t-115 47.5h-82q-79 0 -123.5 -48.5t-44.5 -133.5l82 -322h168q70 0 116 48.5t46 128.5z" />
    <glyph glyph-name="uniFEE3" unicode="&#x645;" horiz-adv-x="1214" arabic-form="initial" 
d="M610 963h60q182 0 286.5 -102t104.5 -286v-202q0 -189 -108 -298.5t-283 -109.5l-326 133q-101 -98 -268 -98h-76q-19 0 -33 14.5t-14 34.5v131q0 20 14 34.5t33 14.5h74q79 0 112 29t33 100v217q0 180 104 284t287 104zM836 369v209q0 67 -47 111t-115 44h-66
q-68 0 -115 -44t-47 -111v-220q0 -34 -6 -71l230 -94q71 0 118.5 48t47.5 128z" />
    <glyph glyph-name="uniFEE4" unicode="&#x645;" horiz-adv-x="1257" arabic-form="medial" 
d="M1257 229q19 0 33.5 -14.5t14.5 -34.5v-131q0 -20 -14.5 -34.5t-33.5 -14.5q-195 0 -272 111q-109 -146 -315 -146l-326 133q-101 -98 -268 -98h-76q-19 0 -33 14.5t-14 34.5v131q0 20 14 34.5t33 14.5h74q79 0 112 29t33 100v217q0 180 104 284t287 104h60
q182 0 286.5 -102t104.5 -286v-153h2q0 -193 194 -193zM836 369v209q0 67 -47 111t-115 44h-66q-68 0 -115 -44t-47 -111v-220q0 -34 -6 -71l230 -94q71 0 118.5 48t47.5 128z" />
    <glyph glyph-name="uniFEE6" unicode="&#x646;" horiz-adv-x="1419" arabic-form="final" 
d="M743 672h-137q-20 0 -33.5 14.5t-13.5 34.5v141q0 20 13.5 32.5t33.5 12.5h137q45 0 45 -45v-141q0 -21 -12.5 -35t-32.5 -14zM1419 229q20 0 33.5 -14.5t13.5 -34.5v-131q0 -20 -13.5 -34.5t-33.5 -14.5q-120 0 -194 41v-84q0 -395 -408 -395h-231q-211 0 -326 127
t-115 307q0 213 121 387q40 55 90 18l74 -49q20 -13 25.5 -40.5t-6.5 -47.5q-76 -119 -76 -239q0 -112 56.5 -174t156.5 -62h233q178 0 178 166v774q0 26 19 45t45 19h98q26 0 46 -19t20 -45v-307q0 -193 194 -193z" />
    <glyph glyph-name="uniFEE7" unicode="&#x646;" horiz-adv-x="675" arabic-form="initial" 
d="M467 1087h-137q-20 0 -33.5 14.5t-13.5 35.5v141q0 20 13.5 32.5t33.5 12.5h137q45 0 45 -45v-141q0 -21 -12.5 -35.5t-32.5 -14.5zM106 0h-106q-19 0 -33 14.5t-14 34.5v131q0 20 14 34.5t33 14.5h111q165 0 165 160v490q0 26 19 44.5t45 18.5h100q26 0 45 -18.5
t19 -44.5v-490q0 -196 -95.5 -292.5t-302.5 -96.5z" />
    <glyph glyph-name="uniFEE8" unicode="&#x646;" horiz-adv-x="751" arabic-form="medial" 
d="M467 1087h-137q-20 0 -33.5 14.5t-13.5 35.5v141q0 20 13.5 32.5t33.5 12.5h137q45 0 45 -45v-141q0 -21 -12.5 -35.5t-32.5 -14.5zM686 229h66q19 0 33 -14.5t14 -34.5v-131q0 -20 -14 -34.5t-33 -14.5h-66q-180 0 -262 113q-94 -113 -318 -113h-106q-19 0 -33 14.5
t-14 34.5v131q0 20 14 34.5t33 14.5h111q165 0 165 160v490q0 26 19 44.5t45 18.5h100q26 0 45 -18.5t19 -44.5v-457q0 -91 48.5 -142t133.5 -51z" />
    <glyph glyph-name="uniFEE9" unicode="&#x647;" horiz-adv-x="1720" arabic-form="isolated" 
d="M895 1276h223q201 0 324 -115t123 -315v-426q0 -192 -95 -306t-256 -114h-858q-140 0 -258 100q-20 13 -23 40.5t11 47.5l59 82q35 47 91 9q62 -50 139 -50h80l-76 281q0 138 108 240q106 100 254 100h78q139 0 240 -98q98 -101 98 -242v-94q0 -107 -51 -187h76
q80 0 117.5 46.5t37.5 144.5v426q0 203 -217 203h-192q-86 0 -144 -43q-53 -33 -88 8l-59 73q-40 52 10 93q116 96 248 96zM803 621h-62q-63 0 -99 -41t-36 -113l62 -238h123q141 0 141 140v98q0 154 -129 154z" />
    <glyph glyph-name="uniFEEA" unicode="&#x647;" horiz-adv-x="1159" arabic-form="final" 
d="M1120 229h39q20 0 33.5 -13.5t13.5 -33.5v-133q0 -20 -13.5 -34.5t-33.5 -14.5h-74q-209 0 -297 172q-86 -111 -241 -111h-62q-148 0 -243 95q-97 94 -97 241v170q0 180 102.5 288t274.5 108h41q104 0 182 -66v78q0 26 19 44.5t45 18.5h98q26 0 45 -18.5t19 -44.5v-600
q0 -146 149 -146zM535 291h47q79 0 121 46.5t42 131.5v100q0 77 -45 120.5t-118 43.5h-47q-70 0 -116 -44t-46 -120v-100q0 -178 162 -178z" />
    <glyph glyph-name="uniFEEB" unicode="&#x647;" horiz-adv-x="1447" arabic-form="initial" 
d="M621 1276h223q201 0 323.5 -115t122.5 -315v-426q0 -192 -94 -306t-254 -114h-940q-20 0 -34.5 14.5t-14.5 34.5v131q0 20 14.5 34.5t34.5 14.5h180l-76 281q0 139 107 240q106 100 254 100h80q138 0 239 -98q99 -99 99 -242v-94q0 -107 -51 -187h73q82 0 119 45.5
t37 145.5v426q0 203 -217 203h-191q-87 0 -145 -43q-53 -33 -88 8l-57 73q-18 24 -15.5 49.5t23.5 43.5q116 96 248 96zM528 621h-61q-63 0 -98 -41t-35 -113l59 -238h123q141 0 141 140v98q0 154 -129 154z" />
    <glyph glyph-name="uniFEEC" unicode="&#x647;" horiz-adv-x="1118" arabic-form="medial" 
d="M920 229h198q19 0 32 -13.5t13 -33.5v-133q0 -20 -13 -34.5t-32 -14.5h-252l99 -272q21 -52 6 -82l-27 -54q-18 -34 -76 -34h-336q-162 0 -268 100t-106 279v63h-158q-19 0 -33 14.5t-14 34.5v133q0 20 14 33.5t33 13.5h158v338q0 173 106 285q105 114 271 111h88
q166 -3 270 -113q104 -113 104 -283v-143q0 -106 -77 -195zM623 733h-91q-65 2 -106 -42t-41 -122v-340h209q78 0 127 55t49 140v145q0 77 -38.5 119.5t-108.5 44.5zM526 -213h187l-78 213h-250v-66q0 -147 141 -147z" />
    <glyph glyph-name="uniFEEE" unicode="&#x648;" horiz-adv-x="1150" arabic-form="final" 
d="M981 229h168q20 0 34.5 -14.5t14.5 -34.5v-131q0 -20 -14.5 -34.5t-34.5 -14.5h-168v-27q0 -203 -99.5 -309t-291.5 -106h-156q-157 0 -266 106q-20 19 -22.5 45t14.5 45l57 64q37 40 90 6q52 -37 131 -37h154q161 0 164 168v45h-262q-149 0 -242 100q-98 101 -98 250
v217q0 164 108 281q109 115 268 115h74q161 0 270 -109q107 -110 107 -287v-338zM381 569v-147q0 -89 42.5 -141t119.5 -52h211v340q0 77 -44.5 120.5t-117.5 43.5h-49q-70 0 -116 -44t-46 -120z" />
    <glyph glyph-name="uniFEF0" unicode="&#x649;" horiz-adv-x="1996" arabic-form="final" 
d="M1808 229h189q47 0 47 -67v-99q0 -63 -47 -63h-352q-26 0 -45 18.5t-19 44.5v650h-184q-172 0 -172 -178v-580q0 -395 -408 -395h-231q-211 0 -326 127t-115 307q0 210 121 387q40 55 90 18l74 -49q20 -13 25.5 -40t-6.5 -50q-76 -119 -76 -240q0 -112 56 -172.5
t157 -60.5h233q178 0 178 166v582q0 407 400 407h346q26 0 45.5 -18.5t19.5 -44.5v-650z" />
    <glyph glyph-name="uniFEF2" unicode="&#x64a;" horiz-adv-x="1996" arabic-form="final" 
d="M1808 229h189q47 0 47 -67v-99q0 -63 -47 -63h-352q-26 0 -45 18.5t-19 44.5v650h-184q-172 0 -172 -178v-580q0 -395 -408 -395h-231q-211 0 -326 127t-115 307q0 210 121 387q40 55 90 18l74 -49q20 -13 25.5 -40t-6.5 -50q-76 -119 -76 -240q0 -112 56 -172.5
t157 -60.5h233q178 0 178 166v582q0 407 400 407h346q26 0 45.5 -18.5t19.5 -44.5v-650zM451 -590h133q19 0 31 -12t12 -29v-141q0 -19 -12.5 -33t-30.5 -14h-133q-19 0 -33.5 14t-14.5 33v141q0 17 14.5 29t33.5 12zM791 -590h131q19 0 31 -12t12 -29v-141q0 -19 -12.5 -33
t-30.5 -14h-131q-20 0 -34 14t-14 33v141q0 17 14 29t34 12z" />
    <glyph glyph-name="uniFEF3" unicode="&#x64a;" horiz-adv-x="778" arabic-form="initial" 
d="M209 0h-209q-19 0 -33 14.5t-14 34.5v131q0 20 14 34.5t33 14.5h211q166 0 166 160v490q0 26 19.5 44.5t45.5 18.5h99q26 0 44.5 -18.5t18.5 -44.5v-490q0 -196 -94.5 -292.5t-300.5 -96.5zM197 -377h-134q-19 0 -33 14t-14 33v142q0 17 14 29t33 12h134q19 0 31 -12
t12 -29v-142q0 -19 -12.5 -33t-30.5 -14zM535 -377h-132q-20 0 -33.5 14t-13.5 33v142q0 17 13.5 29t33.5 12h132q19 0 31 -12t12 -29v-142q0 -19 -12.5 -33t-30.5 -14z" />
    <glyph glyph-name="uniFEF4" unicode="&#x64a;" horiz-adv-x="851" arabic-form="medial" 
d="M786 229h66q19 0 33 -14.5t14 -34.5v-131q0 -20 -14 -34.5t-33 -14.5h-66q-180 0 -262 113q-94 -113 -315 -113h-209q-19 0 -33 14.5t-14 34.5v131q0 20 14 34.5t33 14.5h211q166 0 166 160v490q0 26 19.5 44.5t45.5 18.5h99q26 0 44.5 -18.5t18.5 -44.5v-457
q0 -91 48.5 -142t133.5 -51zM217 -147h133q19 0 31 -12t12 -29v-142q0 -19 -12.5 -33t-30.5 -14h-133q-19 0 -33 14t-14 33v142q0 17 14 29t33 12zM557 -147h131q19 0 31 -12t12 -29v-142q0 -19 -12.5 -33t-30.5 -14h-131q-20 0 -33.5 14t-13.5 33v142q0 17 13.5 29t33.5 12
z" />
    <glyph glyph-name=".notdef" horiz-adv-x="0" 
 />
    <glyph glyph-name=".null" horiz-adv-x="0" 
 />
    <glyph glyph-name="nonmarkingreturn" horiz-adv-x="681" 
 />
    <glyph glyph-name="CR" unicode="&#xd;" horiz-adv-x="0" 
 />
    <glyph glyph-name="space" unicode=" " horiz-adv-x="573" 
 />
    <glyph glyph-name="exclam" unicode="!" 
d="M584 440h-99q-26 0 -44.5 19.5t-18.5 46.5v803q0 26 18.5 44.5t44.5 18.5h99q26 0 45.5 -18.5t19.5 -44.5v-803q0 -26 -19.5 -46t-45.5 -20zM608 0h-145q-26 0 -45 18.5t-19 44.5v173q0 26 19 45.5t45 19.5h145q26 0 46 -19.5t20 -45.5v-173q0 -26 -19.5 -44.5
t-46.5 -18.5z" />
    <glyph glyph-name="quotedbl" unicode="&#x22;" 
d="M379 1044h-98q-26 0 -46 20t-20 46v342q0 26 20 45t46 19h98q26 0 44.5 -19t18.5 -45v-342q0 -27 -18.5 -46.5t-44.5 -19.5zM797 1044h-99q-27 0 -46 18.5t-19 47.5v342q0 26 19.5 45t45.5 19h99q26 0 44.5 -19t18.5 -45v-342q0 -27 -18.5 -46.5t-44.5 -19.5z" />
    <glyph glyph-name="numbersign" unicode="#" 
d="M940 1001h51q29 0 47.5 -19t18.5 -46v-62q0 -26 -19.5 -44.5t-46.5 -18.5h-94l-55 -254h110q26 0 45 -19.5t19 -45.5v-62q0 -26 -19 -44.5t-45 -18.5h-153l-68 -304q-15 -63 -78 -63h-94q-25 0 -40 19t-9 44l68 304h-224l-67 -304q-15 -63 -78 -63h-94q-25 0 -40 19
t-9 44l67 304h-51q-27 0 -46.5 18.5t-19.5 44.5v62q0 29 18.5 47t47.5 18h94l55 254h-110q-27 0 -46.5 18.5t-19.5 44.5v62q0 26 20 45.5t46 19.5h153l68 302q15 63 78 63h94q25 0 40 -19t9 -44l-67 -302h223l67 302q15 63 78 63h92q25 0 41.5 -19.5t10.5 -43.5zM397 557
h224l55 254h-223z" />
    <glyph glyph-name="dollar" unicode="$" 
d="M946 367q0 -150 -80 -247.5t-215 -127.5v-133q0 -26 -19.5 -45t-45.5 -19h-86q-26 0 -45 19t-19 45v129q-175 27 -293 166q-17 24 -13.5 49t22.5 37l69 51q52 34 96 -10q85 -101 213 -101q90 0 139.5 47.5t49.5 134.5q0 144 -156 203l-157 66q-269 112 -269 370
q0 149 80 245t217 128v137q0 26 20 45t46 19h86q26 0 44.5 -19t18.5 -45v-129q107 -15 223 -79q21 -12 27 -39.5t-10 -46.5l-49 -68q-26 -32 -56 -29q-20 6 -67 24.5t-87 31t-67 12.5q-91 0 -146 -48.5t-55 -127.5q0 -71 41 -115.5t129 -75.5l142 -57q272 -111 272 -397z
" />
    <glyph glyph-name="percent" unicode="%" 
d="M485 1147v-174q0 -236 -217 -236t-217 236v174q0 235 217 235t217 -235zM205 1176v-232q0 -86 63 -86q64 0 64 86v232q0 86 -64 86q-63 0 -63 -86zM176 168l-26 25q-42 36 -3 83l660 920q18 21 43.5 23.5t46.5 -15.5l25 -24q41 -35 2 -86l-660 -918q-17 -23 -42.5 -25
t-45.5 17zM1022 399v-174q0 -235 -217 -235t-217 235v174q0 236 217 236t217 -236zM741 428v-229q0 -88 64 -88q63 0 63 88v229q0 86 -63 86q-64 0 -64 -86z" />
    <glyph glyph-name="ampersand" unicode="&#x26;" 
d="M872 272l148 -200q17 -23 5.5 -47.5t-40.5 -24.5h-123q-20 0 -34 2.5t-25.5 10.5t-16 12.5t-16 21.5t-16.5 23l-21 28q-136 -118 -311 -118q-181 0 -285 104q-106 100 -106 256q0 250 213 389l16 10q-123 172 -123 322q0 148 92.5 239t241.5 91q140 0 226.5 -85.5
t86.5 -222.5q0 -125 -53.5 -216t-163.5 -173l-4 -4l166 -225q49 120 66 246q9 63 75 63h80q25 0 43.5 -20t14.5 -43q-35 -264 -136 -439zM362 1057q0 -83 78 -199l2 2q119 88 119 205q0 53 -24.5 87t-67.5 34q-48 0 -77.5 -38t-29.5 -91zM428 184q95 0 178 86l-219 297
l-12 -8q-115 -89 -115 -203q0 -78 45 -125t123 -47z" />
    <glyph glyph-name="quotesingle" unicode="'" 
d="M586 1044h-99q-26 0 -44.5 19.5t-18.5 46.5v342q0 26 18.5 45t44.5 19h99q26 0 45.5 -19t19.5 -45v-342q0 -26 -19.5 -46t-45.5 -20z" />
    <glyph glyph-name="parenleft" unicode="(" 
d="M813 -319h-115q-176 0 -276 103t-100 273v1082q0 170 100 273.5t276 103.5h115q26 0 45 -19t19 -45v-68q0 -26 -19 -44.5t-45 -18.5h-92q-184 0 -184 -191v-1064q0 -191 184 -191h92q26 0 45 -18.5t19 -44.5v-68q0 -26 -19 -44.5t-45 -18.5z" />
    <glyph glyph-name="parenright" unicode=")" 
d="M377 -319h-115q-26 0 -44.5 18.5t-18.5 44.5v68q0 26 18.5 44.5t44.5 18.5h92q185 0 185 191v1064q0 191 -185 191h-92q-26 0 -44.5 18.5t-18.5 44.5v68q0 26 18.5 45t44.5 19h115q176 0 276.5 -103.5t100.5 -273.5v-1082q0 -170 -100.5 -273t-276.5 -103z" />
    <glyph glyph-name="asterisk" unicode="*" 
d="M348 612l-63 37q-23 13 -30 39t7 49l107 174l-170 64q-24 10 -34.5 34.5t-2.5 49.5l24 67q10 23 34.5 34t49.5 3l166 -61v207q0 26 19 44.5t45 18.5h71q27 0 46.5 -18.5t19.5 -44.5v-207l166 61q25 10 49.5 -1t32.5 -36l26 -67q10 -25 -1 -49.5t-36 -32.5l-172 -66
l107 -174q14 -23 7 -49t-30 -39l-63 -37q-23 -14 -48.5 -7t-37.5 30l-100 162l-101 -162q-13 -23 -39 -30t-49 7z" />
    <glyph glyph-name="plus" unicode="+" 
d="M643 688h231q26 0 45 -18.5t19 -44.5v-80q0 -26 -19 -46t-45 -20h-231v-248q0 -26 -18.5 -44.5t-44.5 -18.5h-84q-27 0 -46.5 18.5t-19.5 44.5v248h-229q-29 0 -47.5 18.5t-18.5 47.5v80q0 26 19.5 44.5t46.5 18.5h229v250q0 26 19.5 44.5t46.5 18.5h84q26 0 44.5 -18.5
t18.5 -44.5v-250z" />
    <glyph glyph-name="comma" unicode="," 
d="M532 -287h-32q-26 0 -37.5 17.5t-5.5 42.5l63 227h-53q-27 0 -46.5 18.5t-19.5 44.5v173q0 27 18.5 46t47.5 19h145q26 0 45 -19.5t19 -45.5v-173q0 -65 -19 -124l-41 -162q-6 -20 -9.5 -27.5t-12 -18.5t-23.5 -14.5t-39 -3.5z" />
    <glyph glyph-name="hyphen" unicode="-" 
d="M737 479h-401q-26 0 -45 20t-19 46v80q0 26 19 44.5t45 18.5h401q27 0 46.5 -18.5t19.5 -44.5v-80q0 -29 -18.5 -47.5t-47.5 -18.5z" />
    <glyph glyph-name="period" unicode="." 
d="M610 0h-147q-26 0 -45 18.5t-19 44.5v173q0 26 19 45.5t45 19.5h147q26 0 45 -19.5t19 -45.5v-173q0 -26 -19 -44.5t-45 -18.5z" />
    <glyph glyph-name="slash" unicode="/" 
d="M330 0h-94q-32 0 -45 24.5t-1 57.5l467 1231q13 32 31 45.5t55 13.5h95q32 0 44.5 -24.5t0.5 -55.5l-467 -1233q-13 -32 -31 -45.5t-55 -13.5z" />
    <glyph glyph-name="zero" unicode="0" 
d="M938 958v-546q0 -432 -401 -432q-402 0 -402 432v546q0 433 402 433q401 0 401 -433zM362 985v-600q0 -201 175 -201q174 0 174 201v600q0 201 -174 201q-175 0 -175 -201z" />
    <glyph glyph-name="one" unicode="1" 
d="M684 205h252q26 0 44.5 -19t18.5 -45v-78q0 -26 -18.5 -44.5t-44.5 -18.5h-737q-26 0 -45 18.5t-19 44.5v78q0 26 19 45t45 19h256v887l-146 -146q-23 -23 -55.5 -10.5t-32.5 43.5v94q0 64 45 109l146 145q48 45 108 45h101q26 0 44.5 -18t18.5 -43v-2v-1104z" />
    <glyph glyph-name="two" unicode="2" 
d="M449 203h428q26 0 45.5 -19t19.5 -45v-76q0 -27 -18 -46t-47 -19h-674q-26 0 -45 19.5t-19 45.5v76q0 66 47 107q329 302 428 450q101 152 101 279q0 96 -51.5 153.5t-143.5 57.5q-108 0 -192 -84q-46 -46 -97 -10l-67 51q-20 12 -23.5 40.5t13.5 45.5q140 162 368 162
q212 0 318 -121q102 -123 102 -305q0 -153 -102 -326q-103 -172 -391 -436z" />
    <glyph glyph-name="three" unicode="3" 
d="M788 680q134 -110 134 -289q0 -182 -109 -297q-111 -114 -309 -114q-228 0 -369 163q-14 17 -11 45t21 41l70 50q52 37 94 -11q84 -84 193 -84q91 0 141.5 53.5t50.5 145.5q0 98 -48.5 148.5t-137.5 50.5h-31q-26 0 -44.5 18.5t-18.5 44.5v76q0 26 18.5 45.5t44.5 19.5
h31q84 0 135 52.5t51 148.5q0 92 -50.5 145.5t-141.5 53.5q-107 0 -191 -84q-41 -48 -94 -10l-70 51q-18 12 -21 40.5t11 45.5q146 162 369 162q195 1 305.5 -111.5t110.5 -300.5q0 -192 -134 -299z" />
    <glyph glyph-name="four" unicode="4" 
d="M823 530h60q26 0 45.5 -18.5t19.5 -44.5v-78q0 -26 -19.5 -44.5t-45.5 -18.5h-60v-263q0 -26 -18.5 -44.5t-44.5 -18.5h-101q-26 0 -44.5 18.5t-18.5 44.5v263h-451q-26 0 -44.5 18.5t-18.5 44.5v78q0 59 37 123l434 710q41 69 100 72h6h101q26 0 44.5 -18.5t18.5 -44.5
v-779zM596 973l-274 -443h274v443z" />
    <glyph glyph-name="five" unicode="5" 
d="M578 893q176 0 267.5 -114.5t96.5 -321.5v-64q0 -194 -109.5 -303.5t-308.5 -109.5q-224 0 -354 161q-14 17 -11 45.5t21 40.5l70 52q50 39 94 -11q72 -84 178 -84q89 0 141 51t52 144v98q0 209 -168 209q-89 0 -146 -57q-5 -4 -16 -13.5t-14 -12t-11 -8.5t-12 -7
t-12 -4.5t-15.5 -4t-18 -1t-23.5 -0.5h-50q-26 0 -44.5 19.5t-18.5 45.5v666q0 26 18.5 44.5t44.5 18.5h602q26 0 45 -18.5t19 -44.5v-78q0 -26 -19 -45t-45 -19h-436v-336q92 62 183 62z" />
    <glyph glyph-name="six" unicode="6" 
d="M559 879q179 0 279.5 -107t101.5 -301v-59q0 -432 -395 -432t-395 432v526q0 220 104 336.5t311 116.5q203 0 326 -144q17 -19 14 -46.5t-22 -41.5l-66 -47q-33 -18 -48 -17t-48 25q-69 66 -156 66q-97 0 -141.5 -54t-44.5 -171v-146q73 64 180 64zM713 385v88
q0 104 -41 152.5t-127 48.5q-87 0 -125 -41.5t-43 -136.5v-111q0 -201 168 -201t168 201z" />
    <glyph glyph-name="seven" unicode="7" 
d="M178 1372h694q26 0 45 -18.5t19 -44.5v-78q0 -57 -18 -109l-379 -1073q-15 -49 -68 -49h-119q-26 0 -40.5 22t-4.5 50l389 1095h-518q-26 0 -44.5 19t-18.5 45v78q0 26 18.5 44.5t44.5 18.5z" />
    <glyph glyph-name="eight" unicode="8" 
d="M793 694q145 -115 145 -327q0 -173 -111 -281q-112 -106 -292 -106t-290 107t-110 280q0 216 144 327q-132 102 -132 314q0 174 104.5 278.5t283.5 104.5q182 0 286.5 -104t104.5 -279q0 -208 -133 -314zM535 1186q-160 0 -160 -197q0 -97 41 -149t119 -52q79 0 121 52
t42 149q0 197 -163 197zM535 184q85 0 130.5 53t45.5 150q0 100 -45.5 154.5t-130.5 54.5q-82 0 -127.5 -54.5t-45.5 -154.5q0 -97 45.5 -150t127.5 -53z" />
    <glyph glyph-name="nine" unicode="9" 
d="M528 1391q398 0 398 -433l-2 -526q0 -219 -104.5 -335.5t-311.5 -116.5q-202 0 -324 143q-17 17 -13.5 45.5t22.5 40.5l65 47q32 20 48 18t48 -26q64 -64 154 -64q97 0 142.5 54t45.5 172v145q-72 -63 -182 -63q-179 0 -280 106.5t-101 300.5v59q0 433 395 433zM528 696
q92 0 130 47t38 154v88q0 201 -168 201t-168 -201v-88q0 -201 168 -201z" />
    <glyph glyph-name="colon" unicode=":" 
d="M610 739h-147q-26 0 -45 20t-19 46v172q0 26 19 44.5t45 18.5h147q26 0 45 -18.5t19 -44.5v-172q0 -26 -19 -46t-45 -20zM610 0h-147q-26 0 -45 18.5t-19 44.5v173q0 26 19 45.5t45 19.5h147q26 0 45 -19.5t19 -45.5v-173q0 -26 -19 -44.5t-45 -18.5z" />
    <glyph glyph-name="semicolon" unicode=";" 
d="M610 739h-147q-26 0 -45 20t-19 46v172q0 26 19 44.5t45 18.5h147q26 0 45 -18.5t19 -44.5v-172q0 -26 -19 -46t-45 -20zM532 -287h-32q-26 0 -37.5 17.5t-5.5 42.5l63 227h-53q-27 0 -46.5 18.5t-19.5 44.5v173q0 27 18.5 46t47.5 19h145q26 0 45 -19.5t19 -45.5v-173
q0 -65 -19 -124l-41 -162q-6 -20 -9.5 -27.5t-12 -18.5t-23.5 -14.5t-39 -3.5z" />
    <glyph glyph-name="less" unicode="&#x3c;" 
d="M854 25l-664 372q-59 27 -59 88v107q0 60 59 90l664 371q25 15 53.5 0.5t28.5 -45.5v-78q0 -37 -12.5 -55.5t-44.5 -36.5l-521 -299l521 -297q32 -18 44.5 -36.5t12.5 -55.5v-80q0 -31 -28.5 -45.5t-53.5 0.5z" />
    <glyph glyph-name="equal" unicode="=" 
d="M874 692h-673q-29 0 -47.5 18.5t-18.5 47.5v80q0 26 20 45.5t46 19.5h673q26 0 46 -19.5t20 -45.5v-80q0 -29 -19.5 -47.5t-46.5 -18.5zM874 264h-673q-26 0 -46 19t-20 45v82q0 26 19.5 44.5t46.5 18.5h673q27 0 46.5 -18.5t19.5 -44.5v-82q0 -26 -20 -45t-46 -19z" />
    <glyph glyph-name="greater" unicode="&#x3e;" 
d="M895 397l-666 -372q-25 -14 -52 0t-27 45v80q0 37 12.5 55.5t44.5 36.5l518 297l-518 299q-32 18 -44.5 36.5t-12.5 55.5v78q0 31 27 45t52 0l666 -371q57 -29 57 -90v-107q0 -62 -57 -88z" />
    <glyph glyph-name="question" unicode="?" 
d="M584 424h-101q-26 0 -44.5 19.5t-18.5 45.5v35q0 86 55 156l129 158q55 64 74.5 102.5t19.5 87.5q0 68 -54 113t-136 45q-115 0 -195 -92q-51 -45 -96 -11l-67 52q-19 12 -23 40.5t10 45.5q138 170 367 170q183 0 305 -93q117 -91 117 -237q0 -153 -115 -289l-115 -137
q-47 -56 -47 -123v-23q0 -26 -19.5 -45.5t-45.5 -19.5zM606 0h-145q-26 0 -45 18.5t-19 44.5v173q0 26 19 45.5t45 19.5h145q29 0 47.5 -19t18.5 -46v-173q0 -26 -19.5 -44.5t-46.5 -18.5z" />
    <glyph glyph-name="at" unicode="@" 
d="M537 -381q-225 0 -349.5 129t-124.5 354v795q0 231 124.5 363.5t349.5 132.5t349 -132.5t124 -363.5v-653q0 -129 -55.5 -196.5t-153.5 -67.5q-68 0 -117.5 31t-62.5 87q-26 -55 -85 -86.5t-137 -31.5q-134 0 -190 79.5t-27 231.5l97 508q65 299 272 299q133 0 170 -107
l8 37q9 41 47 41h101q20 0 28.5 -16.5t3.5 -40.5l-155 -744q-10 -41 16.5 -68.5t65.5 -27.5q66 0 92 51t26 185v489q0 203 -106.5 321.5t-310.5 118.5q-201 0 -309.5 -115.5t-108.5 -324.5v-795q0 -203 108.5 -315.5t309.5 -112.5q204 0 325 136q16 22 33 8l12 -13
q9 -9 0 -28q-140 -158 -370 -158zM442 184q41 0 64 22.5t35 76.5l108 518q15 92 -61 92q-75 0 -96 -98l-109 -521q-18 -90 59 -90z" />
    <glyph glyph-name="A" unicode="A" 
d="M662 1311l368 -1237q8 -29 -9 -51.5t-46 -22.5h-98q-65 0 -80 63l-76 267h-367l-75 -267q-21 -63 -82 -63h-99q-30 0 -46.5 22.5t-6.5 51.5l367 1237q15 61 80 61h90q65 0 80 -61zM662 547l-125 479l-123 -479h248z" />
    <glyph glyph-name="B" unicode="B" 
d="M821 700q160 -95 160 -303q0 -180 -110.5 -288.5t-299.5 -108.5h-376q-26 0 -45 18.5t-19 44.5v1246q0 26 19 44.5t45 18.5h360q182 0 290.5 -107.5t108.5 -285.5q0 -193 -133 -279zM725 977q0 81 -45.5 125.5t-124.5 44.5h-197v-340h197q79 0 124.5 45.5t45.5 124.5z
M358 225h213q85 0 133 47t48 131q0 85 -48.5 132t-134.5 47h-211v-357z" />
    <glyph glyph-name="C" unicode="C" 
d="M569 -20q-207 0 -323.5 123.5t-116.5 336.5v490q0 213 116.5 337t323.5 124q260 0 392 -191q13 -19 7.5 -47t-24.5 -39l-90 -59q-47 -27 -92 18q-77 92 -193 92q-100 0 -155.5 -60t-55.5 -175v-490q0 -115 55.5 -175t155.5 -60q116 0 193 92q45 45 92 18l90 -59
q19 -11 24.5 -39t-7.5 -47q-132 -190 -392 -190z" />
    <glyph glyph-name="D" unicode="D" 
d="M197 1372h360q208 0 317 -122.5t109 -342.5v-456q0 -211 -110 -331t-316 -120h-360q-26 0 -45 18.5t-19 44.5v1246q0 26 19 44.5t45 18.5zM754 451v456q0 124 -48.5 182t-148.5 58h-195v-922h195q197 0 197 226z" />
    <glyph glyph-name="E" unicode="E" 
d="M825 1147h-387v-340h330q26 0 46 -20t20 -46v-96q0 -26 -20 -45.5t-46 -19.5h-330v-355h387q26 0 45 -18.5t19 -44.5v-99q0 -26 -19 -44.5t-45 -18.5h-551q-26 0 -45.5 18.5t-19.5 44.5v1246q0 26 19.5 44.5t45.5 18.5h551q26 0 45 -18.5t19 -44.5v-99q0 -26 -19 -44.5
t-45 -18.5z" />
    <glyph glyph-name="F" unicode="F" 
d="M297 1372h549q26 0 44.5 -18.5t18.5 -44.5v-99q0 -26 -18.5 -44.5t-44.5 -18.5h-385v-340h327q26 0 45 -20t19 -46v-96q0 -26 -19 -44.5t-45 -18.5h-327v-519q0 -26 -19 -44.5t-45 -18.5h-100q-26 0 -45 18.5t-19 44.5v1246q0 26 19 44.5t45 18.5z" />
    <glyph glyph-name="G" unicode="G" 
d="M608 807h301q26 0 45 -20t19 -46v-301q0 -217 -109.5 -338.5t-316.5 -121.5t-316.5 121.5t-109.5 338.5v490q0 213 116.5 337t323.5 124q259 0 391 -191q13 -19 8 -47t-24 -39l-90 -59q-47 -30 -92 18q-77 92 -193 92q-101 0 -156 -59.5t-55 -175.5v-490q0 -235 197 -235
q196 0 196 235v140h-135q-26 0 -44.5 19.5t-18.5 45.5v96q0 27 18.5 46.5t44.5 19.5z" />
    <glyph glyph-name="H" unicode="H" 
d="M797 1372h100q27 0 46.5 -18.5t19.5 -44.5v-1246q0 -26 -19.5 -44.5t-46.5 -18.5h-100q-26 0 -45 18.5t-19 44.5v519h-395v-519q0 -26 -19 -44.5t-45 -18.5h-100q-26 0 -44.5 18.5t-18.5 44.5v1246q0 26 18.5 44.5t44.5 18.5h100q26 0 45 -18.5t19 -44.5v-502h395v502
q0 26 19 44.5t45 18.5z" />
    <glyph glyph-name="I" unicode="I" 
d="M854 1147h-201v-922h201q26 0 45 -18.5t19 -44.5v-99q0 -26 -19 -44.5t-45 -18.5h-633q-26 0 -44.5 18.5t-18.5 44.5v99q0 26 18.5 44.5t44.5 18.5h203v922h-203q-26 0 -44.5 18.5t-18.5 44.5v99q0 26 18.5 44.5t44.5 18.5h633q26 0 45 -18.5t19 -44.5v-99
q0 -26 -19 -44.5t-45 -18.5z" />
    <glyph glyph-name="J" unicode="J" 
d="M322 1372h540q26 0 45 -18.5t19 -44.5v-869q0 -213 -116 -336.5t-323 -123.5q-259 0 -391 190q-14 19 -9 47.5t24 38.5l92 59q47 27 92 -18q74 -92 192 -92q100 0 155.5 60t55.5 175v707h-376q-27 0 -46.5 18.5t-19.5 44.5v99q0 26 19.5 44.5t46.5 18.5z" />
    <glyph glyph-name="K" unicode="K" 
d="M639 778l369 -694q17 -29 2 -56.5t-47 -27.5h-99q-66 0 -92 57l-268 500l-158 -262v-232q0 -26 -18.5 -44.5t-44.5 -18.5h-101q-26 0 -45.5 18.5t-19.5 44.5v1246q0 26 19.5 44.5t45.5 18.5h101q26 0 44.5 -18.5t18.5 -44.5v-576l367 582q29 57 94 57h96q32 0 46.5 -29
t-3.5 -55z" />
    <glyph glyph-name="L" unicode="L" 
d="M436 225h426q26 0 45 -18.5t19 -44.5v-99q0 -26 -19 -44.5t-45 -18.5h-592q-26 0 -44.5 18.5t-18.5 44.5v1246q0 26 18.5 44.5t44.5 18.5h101q26 0 45.5 -18.5t19.5 -44.5v-1084z" />
    <glyph glyph-name="M" unicode="M" 
d="M825 1372h101q26 0 44.5 -18.5t18.5 -44.5v-1246q0 -26 -18.5 -44.5t-44.5 -18.5h-101q-26 0 -44.5 18.5t-18.5 44.5v859l-154 -369q-27 -64 -71 -64h-52q-55 0 -73 64l-101 307v-797q0 -26 -18.5 -44.5t-44.5 -18.5h-101q-26 0 -44.5 18.5t-18.5 44.5v1246
q0 26 18.5 44.5t44.5 18.5h101q14 0 16 -2q56 -9 80 -80l166 -471l215 471q11 24 15 31t14.5 21.5t24 20t34.5 7.5q2 2 12 2z" />
    <glyph glyph-name="N" unicode="N" 
d="M825 1372h101q26 0 44.5 -18.5t18.5 -44.5v-1246q0 -26 -18.5 -44.5t-44.5 -18.5h-101q-10 0 -12 2q-10 2 -18.5 5t-14.5 5.5t-12 8t-9 8t-8.5 11t-7 11t-8 14t-8.5 15.5l-416 790v-807q0 -26 -18.5 -44.5t-44.5 -18.5h-101q-26 0 -44.5 18.5t-18.5 44.5v1246
q0 26 18.5 44.5t44.5 18.5h101h2q13 -2 23.5 -4.5t17.5 -4.5t14 -7l10.5 -7.5t9 -11t7.5 -12t8.5 -15.5t9.5 -18l412 -805v822q0 26 18.5 44.5t44.5 18.5z" />
    <glyph glyph-name="O" unicode="O" 
d="M854 104q-106 -124 -317 -124q-212 0 -318 124q-108 123 -108 336v490q0 217 110 339t316 122t316 -122t110 -339v-490q0 -212 -109 -336zM537 205q198 0 198 235v490q0 235 -198 235q-197 0 -197 -235v-490q0 -235 197 -235z" />
    <glyph glyph-name="P" unicode="P" 
d="M213 1372h360q202 0 316 -135q115 -136 115 -328q0 -193 -115 -329t-316 -136h-194v-381q0 -26 -19.5 -44.5t-46.5 -18.5h-100q-26 0 -44.5 18.5t-18.5 44.5v1246q0 26 18.5 44.5t44.5 18.5zM379 672h178q104 0 160.5 64.5t56.5 172.5q0 107 -57 172.5t-160 65.5h-178
v-475z" />
    <glyph glyph-name="Q" unicode="Q" 
d="M963 930v-490q0 -192 -82 -305l39 -47q40 -46 -2 -86l-74 -68q-24 -18 -48.5 -15t-43.5 24l-52 61q-74 -24 -163 -24q-207 0 -316.5 121.5t-109.5 338.5v490q0 217 110 339t316 122t316 -122t110 -339zM614 453l105 -125q16 53 16 112v490q0 235 -198 235
q-197 0 -197 -235v-490q0 -232 192 -235l-86 102q-17 20 -14 45.5t23 44.5l67 62q24 18 48.5 16.5t43.5 -22.5z" />
    <glyph glyph-name="R" unicode="R" 
d="M717 596l264 -514q15 -25 1.5 -53.5t-44.5 -28.5h-104q-40 0 -59.5 12.5t-37.5 44.5l-274 529q-79 11 -94 16v-539q0 -26 -19.5 -44.5t-46.5 -18.5h-100q-26 0 -45 18.5t-19 44.5v1246q0 26 19 44.5t45 18.5h372q183 0 291.5 -108.5t108.5 -286.5q0 -140 -68.5 -241.5
t-189.5 -139.5zM575 1147h-206v-352h204q76 0 123 48.5t47 131.5q0 79 -46 125.5t-122 46.5z" />
    <glyph glyph-name="S" unicode="S" 
d="M545 -20q-283 0 -439 190q-14 17 -10.5 44t21.5 40l78 53q30 21 53 20.5t57 -24.5q94 -98 234 -98q97 0 154 47t57 127q0 133 -150 180l-190 57q-142 43 -218.5 142t-76.5 239q0 192 131 293q128 101 319 101q188 0 344 -93q20 -12 26 -39.5t-7 -46.5l-64 -86
q-29 -44 -94 -20q-115 59 -225 59q-88 0 -143.5 -45t-55.5 -123q0 -120 133 -161l191 -58q160 -49 234.5 -148.5t74.5 -260.5q0 -185 -123 -287q-126 -102 -311 -102z" />
    <glyph glyph-name="T" unicode="T" 
d="M156 1372h764q26 0 44.5 -18.5t18.5 -44.5v-99q0 -26 -18.5 -44.5t-44.5 -18.5h-267v-1084q0 -26 -19.5 -44.5t-45.5 -18.5h-101q-26 0 -44.5 18.5t-18.5 44.5v1084h-268q-27 0 -46.5 18.5t-19.5 44.5v99q0 26 19.5 44.5t46.5 18.5z" />
    <glyph glyph-name="U" unicode="U" 
d="M854 104q-106 -124 -317 -124q-212 0 -318 124q-108 123 -108 336v869q0 26 19.5 44.5t45.5 18.5h100q26 0 45 -18.5t19 -44.5v-869q0 -235 197 -235q198 0 198 235v869q0 26 19 44.5t45 18.5h100q26 0 45 -18.5t19 -44.5v-869q0 -212 -109 -336z" />
    <glyph glyph-name="V" unicode="V" 
d="M569 0h-77q-61 0 -82 61l-365 1237q-10 26 7 50t46 24h99q64 0 79 -63l261 -965l260 965q15 63 80 63h98q29 0 45 -23.5t8 -50.5l-362 -1226q-11 -31 -38 -51.5t-59 -20.5z" />
    <glyph glyph-name="W" unicode="W" 
d="M356 0h-116q-27 0 -46.5 17t-23.5 46l-119 1235q-5 32 9.5 53t43.5 21h101q72 0 78 -63l61 -832l78 576q9 59 63 59h103q54 0 63 -59l78 -576l59 832q3 63 78 63h97q63 0 57 -74l-117 -1235q-4 -29 -23 -46t-46 -17h-117q-59 0 -74 63l-106 531l-107 -531
q-15 -63 -74 -63z" />
    <glyph glyph-name="X" unicode="X" 
d="M676 696l328 -626q13 -24 -0.5 -47t-40.5 -23h-107q-64 0 -90 57l-227 465l-230 -465q-29 -57 -90 -57h-106q-26 0 -40.5 22.5t-2.5 47.5l329 626l-307 607q-10 25 4.5 47t40.5 22h105q63 0 90 -59l207 -439l204 439q27 59 88 59h107q27 0 41 -22t2 -47z" />
    <glyph glyph-name="Y" unicode="Y" 
d="M854 1372h104q38 0 54 -21t2 -53l-363 -788v-447q0 -26 -18.5 -44.5t-44.5 -18.5h-101q-26 0 -45.5 18.5t-19.5 44.5v447l-363 788q-13 35 1.5 54.5t52.5 19.5h108q34 0 50 -13t30 -50l236 -531l237 531q13 34 29.5 48.5t50.5 14.5z" />
    <glyph glyph-name="Z" unicode="Z" 
d="M387 225h502q26 0 45.5 -18.5t19.5 -44.5v-96q0 -29 -18 -47.5t-47 -18.5h-705q-26 0 -44.5 18.5t-18.5 44.5v99v2q0 68 33 112l528 871h-492q-26 0 -44.5 18.5t-18.5 44.5v99q0 26 18.5 44.5t44.5 18.5h693q26 0 44.5 -18.5t18.5 -44.5v-99v-2q0 -68 -33 -112z" />
    <glyph glyph-name="bracketleft" unicode="[" 
d="M813 1323h-278v-1450h278q26 0 45 -18.5t19 -44.5v-66q0 -26 -19 -44.5t-45 -18.5h-426q-26 0 -45.5 18.5t-19.5 44.5v1708q0 26 19.5 45t45.5 19h426q26 0 45 -19t19 -45v-66q0 -26 -19 -44.5t-45 -18.5z" />
    <glyph glyph-name="backslash" unicode="\" 
d="M838 0h-95q-37 0 -55 13.5t-31 45.5l-467 1233q-12 31 1 55.5t45 24.5h94q37 0 55 -13.5t31 -45.5l467 -1231q12 -33 -0.5 -57.5t-44.5 -24.5z" />
    <glyph glyph-name="bracketright" unicode="]" 
d="M260 1516h426q26 0 46 -19t20 -45v-1708q0 -26 -19.5 -44.5t-46.5 -18.5h-426q-26 0 -44.5 18.5t-18.5 44.5v66q0 26 18.5 44.5t44.5 18.5h279v1450h-279q-26 0 -44.5 18.5t-18.5 44.5v66q0 26 18.5 45t44.5 19z" />
    <glyph glyph-name="asciicircum" unicode="^" 
d="M264 676h-100q-29 0 -44.5 23t-4.5 49l291 708q25 60 86 60h90q61 0 86 -60l290 -708q11 -26 -4.5 -49t-44.5 -23h-102q-62 0 -86 59l-184 441l-185 -441q-24 -59 -88 -59z" />
    <glyph glyph-name="underscore" unicode="_" 
d="M874 -299h-675q-26 0 -45 18.5t-19 44.5v80q0 26 19 45t45 19h675q26 0 46 -19t20 -45v-80q0 -26 -19.5 -44.5t-46.5 -18.5z" />
    <glyph glyph-name="a" unicode="a" 
d="M956 188h19q29 0 29 -34v-99q0 -24 -21 -39q-33 -26 -104 -26q-58 0 -104.5 29.5t-63.5 82.5q-82 -122 -256 -122q-166 0 -254 111t-88 321v254q0 210 88 321t254 111q151 0 231 -92v16q-2 21 12.5 34t40.5 13h111q26 0 44.5 -19.5t18.5 -45.5v-758q0 -58 43 -58z
M682 334v411q0 59 -46.5 98.5t-123.5 39.5q-172 0 -172 -191v-307q0 -190 172 -190q78 0 124 39t46 100z" />
    <glyph glyph-name="b" unicode="b" 
d="M600 1098q166 0 254 -111t88 -321v-254q0 -210 -88 -321t-254 -111q-147 0 -227 86v-3q0 -26 -19 -44.5t-45 -18.5h-100q-26 0 -45 18.5t-19 44.5v1389q0 26 19 45t45 19h100q26 0 45 -19t19 -45v-440q80 86 227 86zM715 385v307q0 191 -172 191q-77 0 -123.5 -39.5
t-46.5 -98.5v-411q0 -61 46 -100t124 -39q172 0 172 190z" />
    <glyph glyph-name="c" unicode="c" 
d="M584 -20q-197 0 -301.5 113.5t-104.5 324.5v241q0 212 104.5 325.5t301.5 113.5q212 0 321 -142q17 -19 13 -45.5t-23 -40.5l-53 -41q-38 -19 -51 -18t-56 25q-63 57 -151 57q-178 0 -178 -209v-291q0 -209 178 -209q87 0 151 58q42 24 55.5 25t51.5 -19l53 -41
q19 -14 23 -40.5t-13 -45.5q-108 -141 -321 -141z" />
    <glyph glyph-name="d" unicode="d" 
d="M764 1516h100q26 0 45 -19t19 -45v-1389q0 -26 -19 -44.5t-45 -18.5h-100q-26 0 -45 18.5t-19 44.5v3q-80 -86 -227 -86q-166 0 -254 111t-88 321v254q0 210 88 321t254 111q147 0 227 -86v440q0 26 19 45t45 19zM530 195q78 0 124 39t46 100v411q0 59 -46.5 98.5
t-123.5 39.5q-172 0 -172 -191v-307q0 -190 172 -190z" />
    <glyph glyph-name="e" unicode="e" 
d="M147 418v248q0 432 396 432q395 0 395 -432v-148q0 -26 -19 -44.5t-45 -18.5h-499v-62q0 -209 190 -209q86 0 158 60q41 23 56 23.5t50 -19.5l54 -39q20 -13 23 -42t-11 -46q-114 -141 -330 -141q-206 0 -312 111.5t-106 326.5zM375 692v-55l336 6v49q0 104 -41 152.5
t-127 48.5q-168 0 -168 -201z" />
    <glyph glyph-name="f" unicode="f" 
d="M1067 1395q17 -19 12 -46.5t-24 -41.5l-54 -39q-26 -14 -39 -16.5t-22 0.5t-43 20q-71 59 -152 59q-91 0 -134 -58.5t-44 -185.5v-18h234q26 0 44.5 -19.5t18.5 -45.5v-76q0 -27 -18.5 -46.5t-44.5 -19.5h-234v-657h332q26 0 45 -19t19 -45v-78q0 -26 -19 -44.5
t-45 -18.5h-676q-26 0 -45.5 18.5t-19.5 44.5v78q0 26 19.5 45t45.5 19h117v657h-117q-26 0 -45.5 20t-19.5 46v76q0 26 19.5 45.5t45.5 19.5h117v21q0 446 391 446q207 0 336 -141z" />
    <glyph glyph-name="g" unicode="g" 
d="M743 1069h119q26 0 45 -19.5t19 -45.5v-994q0 -440 -418 -440q-222 0 -336 141q-31 42 12 88l33 37q20 20 43.5 20t61.5 -20q70 -61 186 -61q190 0 190 209v88q-80 -92 -231 -92q-166 0 -254 111t-88 321v254q0 210 88 321t254 111q151 0 231 -92v16q0 20 13 33.5
t32 13.5zM694 334v411q0 59 -46.5 98.5t-123.5 39.5q-172 0 -172 -191v-307q0 -190 172 -190q78 0 124 39t46 100z" />
    <glyph glyph-name="h" unicode="h" 
d="M629 1100q149 0 228 -107.5t79 -310.5v-619q0 -26 -19.5 -44.5t-46.5 -18.5h-98q-26 0 -44.5 18.5t-18.5 44.5v619q0 201 -168 201q-86 0 -127 -48.5t-41 -152.5v-619q0 -26 -19 -44.5t-45 -18.5h-100q-26 0 -45 18.5t-19 44.5v1389q0 26 19 45t45 19h100q26 0 45 -19
t19 -45v-471q82 119 256 119z" />
    <glyph glyph-name="i" unicode="i" 
d="M610 1204h-100q-26 0 -45 19t-19 45v135q0 26 19 45.5t45 19.5h100q26 0 45 -19.5t19 -45.5v-135q0 -26 -19 -45t-45 -19zM672 205h280q26 0 46 -19t20 -45v-78q0 -26 -19.5 -44.5t-46.5 -18.5h-794q-27 0 -46.5 18.5t-19.5 44.5v78q0 26 20 45t46 19h286v657h-200
q-26 0 -46 20t-20 46v76q0 26 20 45.5t46 19.5h364q26 0 45 -19.5t19 -45.5v-799z" />
    <glyph glyph-name="j" unicode="j" 
d="M637 1468h100q26 0 45 -19.5t19 -45.5v-135q0 -26 -19 -45t-45 -19h-100q-26 0 -45 19t-19 45v135q0 26 19 45.5t45 19.5zM285 1069h448q26 0 46 -19.5t20 -45.5v-1002q0 -432 -406 -432q-207 0 -321 141q-14 20 -11 47.5t21 40.5l55 39q25 16 38 19t24 -1t43 -22
q71 -59 151 -59q178 0 178 209v878h-286q-26 0 -45 20t-19 46v76q0 26 19 45.5t45 19.5z" />
    <glyph glyph-name="k" unicode="k" 
d="M678 653l307 -571q14 -29 0.5 -55.5t-43.5 -26.5h-96q-65 0 -94 57l-222 406l-147 -193v-207q0 -26 -19.5 -44.5t-46.5 -18.5h-98q-26 0 -44.5 18.5t-18.5 44.5v1389q0 26 18.5 45t44.5 19h98q26 0 46 -19t20 -45v-819l307 383q38 53 103 53h92q36 0 50 -30.5t-7 -59.5z
" />
    <glyph glyph-name="l" unicode="l" 
d="M653 205h283q26 0 45.5 -19t19.5 -45v-78q0 -26 -19.5 -44.5t-45.5 -18.5h-795q-26 0 -45.5 18.5t-19.5 44.5v78q0 26 19.5 45t45.5 19h283v1106h-199q-26 0 -44.5 18.5t-18.5 44.5v78q0 26 18.5 45t44.5 19h363q26 0 45.5 -19t19.5 -45v-1247z" />
    <glyph glyph-name="m" unicode="m" 
d="M770 1102q102 0 161.5 -85.5t59.5 -228.5v-725q0 -26 -18.5 -44.5t-44.5 -18.5h-99q-26 0 -45.5 18.5t-19.5 44.5v725q0 89 -55 89q-58 0 -58 -89v-725q0 -26 -18.5 -44.5t-44.5 -18.5h-99q-26 0 -45.5 18.5t-19.5 44.5v725q0 89 -55 89q-60 0 -60 -89v-725
q0 -26 -19.5 -44.5t-45.5 -18.5h-97q-26 0 -45.5 18.5t-19.5 44.5v941q0 26 19.5 45.5t45.5 19.5h107q30 0 45 -27q57 60 131 60q117 0 176 -109q59 109 164 109z" />
    <glyph glyph-name="n" unicode="n" 
d="M629 1100q149 0 228 -107.5t79 -310.5v-619q0 -26 -19.5 -44.5t-46.5 -18.5h-98q-26 0 -44.5 18.5t-18.5 44.5v619q0 201 -168 201q-86 0 -127 -48.5t-41 -152.5v-619q0 -26 -19 -44.5t-45 -18.5h-100q-26 0 -45 18.5t-19 44.5v941q0 26 19 45.5t45 19.5h100
q26 0 45 -19.5t19 -45.5v-23q82 119 256 119z" />
    <glyph glyph-name="o" unicode="o" 
d="M938 666v-254q0 -432 -401 -432q-402 0 -402 432v254q0 432 402 432q401 0 401 -432zM362 692v-307q0 -201 175 -201q174 0 174 201v307q0 201 -174 201q-175 0 -175 -201z" />
    <glyph glyph-name="p" unicode="p" 
d="M600 1098q166 0 254 -111t88 -321v-254q0 -210 -88 -321t-254 -111q-147 0 -227 86v-412q0 -26 -19 -45t-45 -19h-100q-26 0 -45 19t-19 45v1350q0 26 19 45.5t45 19.5h100q24 0 41.5 -17t22.5 -42q82 88 227 88zM715 385v307q0 191 -172 191q-77 0 -123.5 -39.5
t-46.5 -98.5v-411q0 -61 46 -100t124 -39q172 0 172 190z" />
    <glyph glyph-name="q" unicode="q" 
d="M764 1069h100q26 0 45 -19.5t19 -45.5v-1350q0 -26 -19 -45t-45 -19h-100q-26 0 -45 19t-19 45v412q-80 -86 -227 -86q-166 0 -254 111t-88 321v254q0 210 88 321t254 111q145 0 227 -88q5 25 22.5 42t41.5 17zM530 195q78 0 124 39t46 100v411q0 59 -46.5 98.5
t-123.5 39.5q-172 0 -172 -191v-307q0 -190 172 -190z" />
    <glyph glyph-name="r" unicode="r" 
d="M793 1069h112q26 0 46 -19.5t20 -45.5v-86q0 -26 -20 -46t-46 -20h-170q-78 0 -118.5 -37.5t-47.5 -118.5v-491h277q26 0 44.5 -19t18.5 -45v-78q0 -26 -18.5 -44.5t-44.5 -18.5h-676q-27 0 -46.5 18.5t-19.5 44.5v78q0 26 20 45t46 19h172v657h-166q-26 0 -45.5 20
t-19.5 46v76q0 26 19.5 45.5t45.5 19.5h328q26 0 45.5 -19.5t19.5 -45.5v-54q64 119 224 119z" />
    <glyph glyph-name="s" unicode="s" 
d="M561 -20q-258 0 -409 145q-18 17 -17 43t23 43l65 47q34 22 52 21.5t55 -21.5q107 -76 229 -76q150 0 150 115q0 87 -111 117l-186 51q-248 70 -248 315q0 318 373 318q188 0 313 -78q23 -13 27.5 -39.5t-9.5 -44.5l-49 -68q-32 -44 -96 -22q-85 49 -197 49
q-135 0 -135 -107q0 -76 123 -114l174 -45q122 -34 185 -111t63 -213q0 -325 -375 -325z" />
    <glyph glyph-name="t" unicode="t" 
d="M932 248l53 -39q20 -17 23 -43.5t-11 -44.5q-114 -141 -323 -141q-404 0 -404 428v454h-114q-26 0 -46 20t-20 46v76q0 26 20 45.5t46 19.5h114v240q0 26 19 44.5t45 18.5h100q26 0 45 -18.5t19 -44.5v-240h290q26 0 45 -19.5t19 -45.5v-76q0 -26 -19 -46t-45 -20h-290
v-473q0 -205 176 -205q82 0 151 60q53 26 74 22q15 -3 33 -18z" />
    <glyph glyph-name="u" unicode="u" 
d="M756 1069h100q26 0 45 -19.5t19 -45.5v-941q0 -26 -19 -44.5t-45 -18.5h-100q-26 0 -45 18.5t-19 44.5v33q-64 -116 -207 -116q-338 0 -338 409v615q0 26 20 45.5t46 19.5h98q26 0 45 -19.5t19 -45.5v-615q0 -102 40.5 -148t127.5 -46q149 0 149 200v609q0 26 19 45.5
t45 19.5z" />
    <glyph glyph-name="v" unicode="v" 
d="M590 0h-107q-61 0 -82 61l-313 934q-10 29 6.5 51.5t46.5 22.5h101q62 0 77 -63l218 -701l217 701q15 63 77 63h101q29 0 45 -22.5t8 -51.5l-313 -934q-15 -61 -82 -61z" />
    <glyph glyph-name="w" unicode="w" 
d="M365 0h-115q-27 0 -46.5 17t-23.5 46l-98 932q-5 32 9.5 53t43.5 21h96q75 0 78 -63l37 -600l105 411q15 53 59 53h55q43 0 58 -53l104 -414l37 603q3 63 78 63h92q63 0 57 -74l-98 -932q-1 -26 -22 -44.5t-48 -18.5h-114q-56 0 -74 63l-98 369l-99 -369q-18 -63 -73 -63
z" />
    <glyph glyph-name="x" unicode="x" 
d="M664 541l297 -467q14 -23 1 -48.5t-42 -25.5h-109q-62 0 -96 57l-178 303l-179 -303q-34 -57 -96 -57h-108q-29 0 -42 25.5t1 48.5l295 463l-291 456q-14 25 -1 50.5t42 25.5h108q60 0 94 -57l179 -301l174 301q34 57 94 57h108q29 0 42 -25.5t-1 -50.5z" />
    <glyph glyph-name="y" unicode="y" 
d="M831 1069h101q29 0 46 -22.5t9 -51.5l-352 -1069q-30 -89 -52 -135.5t-59 -99.5q-38 -53 -92 -77t-133 -24h-113q-26 0 -44.5 19t-18.5 45v78q0 26 18.5 44.5t44.5 18.5h47q65 0 102.5 31t67.5 106l21 58l-336 1005q-10 29 6.5 51.5t46.5 22.5h101q62 0 77 -63l218 -703
l217 703q15 63 77 63z" />
    <glyph glyph-name="z" unicode="z" 
d="M434 205h420q26 0 45 -19t19 -45v-78q0 -26 -19 -44.5t-45 -18.5h-631q-26 0 -45.5 18.5t-19.5 44.5v78v2q0 63 37 109l438 610h-400q-26 0 -44.5 19.5t-18.5 46.5v76q0 26 18.5 45.5t44.5 19.5h611q26 0 44.5 -19.5t18.5 -45.5v-76q0 -63 -37 -115z" />
    <glyph glyph-name="braceleft" unicode="{" 
d="M575 1130v-350q0 -129 -83 -182q83 -53 83 -180v-352q0 -191 185 -191h92q27 0 46.5 -18.5t19.5 -44.5v-66q0 -26 -20 -45.5t-46 -19.5h-115q-175 0 -275 103t-100 273v326q0 59 -17 84t-60 25q-26 0 -45 18.5t-19 44.5v86q0 26 19 46t45 20q43 0 60 24.5t17 81.5v326
q0 170 100.5 273.5t274.5 103.5h115q26 0 46 -19t20 -45v-68q0 -26 -19.5 -44.5t-46.5 -18.5h-92q-185 0 -185 -191z" />
    <glyph glyph-name="bar" unicode="|" 
d="M580 -197h-86q-26 0 -45 19t-19 45v1442q0 26 19 44.5t45 18.5h86q26 0 44.5 -18.5t18.5 -44.5v-1442q0 -26 -18.5 -45t-44.5 -19z" />
    <glyph glyph-name="braceright" unicode="}" 
d="M788 707q26 0 45 -20t19 -46v-86q0 -26 -19 -44.5t-45 -18.5q-43 0 -60 -25t-17 -84v-326q0 -170 -100 -273t-275 -103h-115q-26 0 -45.5 19.5t-19.5 45.5v66q0 26 19.5 44.5t45.5 18.5h92q185 0 185 191v352q0 127 84 180q-84 53 -84 182v350q0 191 -185 191h-92
q-26 0 -45.5 18.5t-19.5 44.5v68q0 26 19.5 45t45.5 19h115q174 0 274.5 -103.5t100.5 -273.5v-326q0 -57 17 -81.5t60 -24.5z" />
    <glyph glyph-name="asciitilde" unicode="~" 
d="M692 432q-69 0 -151 49q-86 47 -121 47q-61 0 -107 -49q-45 -45 -86 2l-49 54q-19 20 -18 46.5t20 45.5q104 110 203 110q68 0 154 -47q82 -49 116 -49q61 0 107 49q44 40 86 -2l49 -53q19 -20 18 -47t-20 -47q-103 -109 -201 -109z" />
    <glyph glyph-name="exclamdown" unicode="&#xa1;" 
d="M463 1069h145q27 0 46.5 -18.5t19.5 -44.5v-172q0 -26 -20 -45t-46 -19h-145q-26 0 -45 19t-19 45v172q0 26 19 44.5t45 18.5zM485 629h99q26 0 45.5 -19t19.5 -45v-803q0 -29 -19 -47t-46 -18h-99q-26 0 -44.5 19.5t-18.5 45.5v803q0 26 18.5 45t44.5 19z" />
    <glyph glyph-name="cent" unicode="&#xa2;" 
d="M842 248l53 -41q19 -14 23 -40.5t-13 -45.5q-78 -103 -213 -131v-131q0 -26 -18.5 -45t-44.5 -19h-86q-26 0 -45 19t-19 45v129q-301 58 -301 430v241q0 373 301 431v129q0 26 19 44.5t45 18.5h86q26 0 44.5 -18.5t18.5 -44.5v-132q135 -28 213 -131q17 -19 13 -45.5
t-23 -40.5l-53 -41q-38 -19 -51 -18t-56 25q-63 57 -151 57q-178 0 -178 -209v-291q0 -209 178 -209q87 0 151 58q42 24 55.5 25t51.5 -19z" />
    <glyph glyph-name="sterling" unicode="&#xa3;" 
d="M410 205h524q26 0 44.5 -19t18.5 -45v-78q0 -26 -18.5 -44.5t-44.5 -18.5h-780q-26 0 -45 18.5t-19 44.5v78q0 26 19 45t45 19q47 0 63 27.5t16 103.5v254h-63q-26 0 -45 18.5t-19 44.5v68q0 26 19 44.5t45 18.5h63v166q0 212 102.5 326.5t297.5 114.5q213 0 328 -142
q14 -19 11 -45t-22 -43l-55 -39l-15 -9t-12.5 -5.5t-9.5 -4t-8.5 -1t-8 0.5t-9.5 3t-10.5 4.5t-14 7t-16.5 8.5q-75 60 -158 60q-172 0 -172 -209v-193h270q26 0 45 -18.5t19 -44.5v-68q0 -26 -19 -44.5t-45 -18.5h-270v-238q0 -99 -51 -147z" />
    <glyph glyph-name="currency" unicode="&#xa4;" 
d="M909 154l84 -150q13 -24 7 -50t-29 -38l-78 -43q-23 -12 -49.5 -4t-36.5 31l-64 110q-77 -30 -180 -30q-115 0 -186 32l-64 -112q-12 -23 -39 -31t-47 4l-80 43q-23 12 -28.5 37.5t8.5 50.5l86 156q-51 99 -51 252v254q0 153 51 252l-88 153q-14 25 -7.5 51t29.5 39
l78 43q23 12 49.5 4.5t36.5 -30.5l64 -113q73 33 188 33q103 0 182 -31l62 111q12 23 37.5 30.5t48.5 -4.5l78 -43q50 -29 22 -90l-84 -149q56 -100 56 -256v-254q0 -155 -56 -258zM389 692v-307q0 -201 174 -201t174 201v307q0 104 -41.5 152.5t-132.5 48.5
q-174 0 -174 -201z" />
    <glyph glyph-name="yen" unicode="&#xa5;" 
d="M854 1372h104q38 0 54 -21t2 -53l-271 -589h131q26 0 46 -19t20 -45v-70q0 -26 -20 -45.5t-46 -19.5h-223v-123h223q27 0 46.5 -18.5t19.5 -44.5v-70q0 -26 -20 -46t-46 -20h-223v-125q0 -26 -18.5 -44.5t-44.5 -18.5h-101q-26 0 -45.5 18.5t-19.5 44.5v125h-221
q-26 0 -46 20t-20 46v70q0 26 19.5 44.5t46.5 18.5h221v123h-221q-26 0 -46 19.5t-20 45.5v70q0 26 20 45t46 19h129l-271 589q-13 35 1.5 54.5t52.5 19.5h108q34 0 50 -13t30 -50l236 -531l237 531q13 34 29.5 48.5t50.5 14.5z" />
    <glyph glyph-name="brokenbar" unicode="&#xa6;" 
d="M580 709h-86q-27 0 -46.5 18.5t-19.5 44.5v537q0 26 19.5 44.5t46.5 18.5h86q26 0 44.5 -18.5t18.5 -44.5v-537q0 -26 -18.5 -44.5t-44.5 -18.5zM580 -197h-86q-26 0 -46 19t-20 45v536q0 26 20 46t46 20h86q26 0 44.5 -19.5t18.5 -46.5v-536q0 -26 -18.5 -45t-44.5 -19z
" />
    <glyph glyph-name="section" unicode="&#xa7;" 
d="M766 201q113 -104 113 -256q0 -155 -94 -240.5t-250 -85.5q-229 0 -361 150q-17 14 -14 43t22 43l47 34q53 41 103 -6q75 -78 182 -78q72 0 113 36t41 93q0 111 -133 170l-173 78q-227 102 -227 320q0 183 170 297q-117 89 -117 262q0 148 94.5 239t256.5 91
q163 0 299 -80q20 -10 26 -37t-8 -47l-41 -58q-36 -48 -94 -18q-86 51 -174 51q-62 0 -104 -40t-42 -101q0 -102 119 -154l152 -65q260 -114 260 -336q0 -191 -166 -305zM352 520q0 -62 35 -102.5t125 -81.5l59 -27q139 83 142 178q0 113 -123 168l-98 47
q-140 -78 -140 -182z" />
    <glyph glyph-name="copyright" unicode="&#xa9;" 
d="M885 111q-125 -131 -348 -131q-224 0 -349 131t-125 352v446q0 223 126.5 353.5t347.5 130.5t347 -130.5t126 -353.5v-446q0 -221 -125 -352zM227 150q108 -117 310 -117q200 0 311 117q108 114 108 313v446q0 200 -110 314t-309 114t-309.5 -114t-110.5 -314v-446
q0 -200 110 -313zM553 295q-128 0 -204.5 80t-76.5 211v205q0 131 76.5 210.5t204.5 79.5q136 0 219 -92q40 -43 4 -76l-53 -28q-28 -20 -64 2q-49 49 -106 49q-121 0 -121 -148v-202q0 -146 121 -146q59 0 106 47q31 25 64 5l53 -31q18 -14 16 -35t-20 -39
q-80 -92 -219 -92z" />
    <glyph glyph-name="ordfeminine" unicode="&#xaa;" 
d="M858 678h14q23 0 23 -25v-75q0 -23 -14 -31q-27 -21 -82 -21q-44 0 -81 22.5t-48 61.5q-62 -92 -197 -92q-127 0 -195.5 86.5t-68.5 247.5v195q0 161 67.5 246t196.5 85q115 0 178 -69v10q-1 17 10 27t31 10h84q20 0 34.5 -14.5t14.5 -34.5v-584q0 -45 33 -45zM647 791
v317q0 44 -35.5 74t-93.5 30q-133 0 -133 -145v-236q0 -147 133 -147q60 0 94.5 30.5t34.5 76.5z" />
    <glyph glyph-name="guillemotleft" unicode="&#xab;" 
d="M442 119l-266 270q-45 45 -45 111v73q0 64 45 109l266 266q19 21 49.5 12t30.5 -42v-105q0 -14 -1 -24.5t-4 -20t-4.5 -15t-7.5 -13l-8 -10t-11.5 -11.5t-12.5 -12l-176 -172l176 -177q3 -2 10 -8.5t8.5 -8t7 -6.5t6.5 -7.5t4 -7t4 -8.5t3 -10.5t2.5 -13.5t1.5 -15.5
t2 -20.5v-102q0 -34 -30.5 -43.5t-49.5 12.5zM862 119l-266 270q-29 29 -37 50.5t-8 60.5v73q0 64 45 109l266 266q17 22 48.5 13t31.5 -43v-105q0 -10 -0.5 -19t-2.5 -17t-3 -13t-5 -12t-5.5 -9.5t-7.5 -9t-7 -8t-9 -9.5l-9 -9l-178 -172l178 -177q3 -3 13.5 -13
t12.5 -12.5t9 -12t8.5 -17.5t3.5 -21t2 -30v-102q0 -34 -31.5 -43.5t-48.5 12.5z" />
    <glyph glyph-name="logicalnot" unicode="&#xac;" 
d="M201 688h673q26 0 45 -18.5t19 -44.5v-445q0 -26 -19 -44.5t-45 -18.5h-83q-27 0 -46.5 18.5t-19.5 44.5v299h-524q-29 0 -47.5 18.5t-18.5 47.5v80q0 26 19.5 44.5t46.5 18.5z" />
    <glyph glyph-name="registered" unicode="&#xae;" 
d="M188 1262q125 131 349 131q223 0 348 -131t125 -353v-446q0 -223 -126 -353t-347 -130t-347.5 130t-126.5 353v446q0 222 125 353zM956 463v446q0 200 -110 314t-309 114t-309.5 -114t-110.5 -314v-446q0 -200 110.5 -315t309.5 -115t309 115t110 315zM657 635l158 -262
q13 -29 0.5 -50.5t-39.5 -21.5h-35q-63 0 -90 55l-135 267h-47v-258q0 -26 -20 -45t-46 -19h-30q-26 0 -45 19t-19 45v645q0 26 19 44.5t45 18.5h202q107 0 170.5 -63t63.5 -164q0 -164 -152 -211zM563 928h-94v-183h94q37 0 60.5 25t23.5 66q0 42 -23.5 67t-60.5 25z" />
    <glyph glyph-name="degree" unicode="&#xb0;" 
d="M770 831q-94 -94 -233 -94q-138 0 -232 94t-94 232q0 139 94 233q95 95 232 95q138 0 233 -95q94 -94 94 -233q0 -138 -94 -232zM422 950q33 -37 83 -44.5t93.5 10t73.5 57.5t26 90q0 66 -47.5 114t-113.5 48t-114 -48t-48 -114t47 -113z" />
    <glyph glyph-name="plusminus" unicode="&#xb1;" 
d="M430 600h-229q-26 0 -46 19t-20 45v81q0 26 20 45t46 19h229v195q0 26 19.5 44.5t46.5 18.5h84q26 0 44.5 -18.5t18.5 -44.5v-195h231q26 0 45 -19t19 -45v-81q0 -26 -19 -45t-45 -19h-231v-190q0 -27 -18.5 -46.5t-44.5 -19.5h-84q-29 0 -47.5 18.5t-18.5 47.5v190z
M201 207h673q26 0 46 -20t20 -46v-80q0 -26 -19.5 -44.5t-46.5 -18.5h-673q-27 0 -46.5 18.5t-19.5 44.5v80q0 27 18.5 46.5t47.5 19.5z" />
    <glyph glyph-name="uni00B2" unicode="&#xb2;" 
d="M489 657h259q17 0 28.5 -11t11.5 -28v-51q0 -17 -11.5 -28t-28.5 -11h-414q-17 0 -29 11t-12 28v47v4q0 38 31 66q323 290 323 440q0 57 -33 92t-88 35q-65 0 -114 -49q-31 -31 -62 -6l-43 33q-12 8 -14 25t8 28q87 100 227 100q126 0 195.5 -73.5t69.5 -188.5
q0 -92 -64 -196q-65 -108 -240 -267z" />
    <glyph glyph-name="uni00B3" unicode="&#xb3;" 
d="M698 942q82 -61 82 -170q0 -115 -69 -185.5t-191 -70.5q-141 0 -229 98q-10 11 -8.5 28t12.5 28l45 32q31 25 59 -6q46 -49 121 -49q55 0 86 32.5t31 88.5q0 54 -31 82.5t-84 28.5h-20q-17 0 -28 12t-11 29v51q0 16 12.5 27.5t26.5 11.5h20q50 0 82.5 33.5t32.5 89.5
q0 54 -33.5 86t-89.5 32q-66 0 -115 -49q-27 -35 -59 -6l-45 33q-12 8 -14 25t10 28q84 100 225 100q122 0 193 -70t71 -184q0 -116 -82 -186z" />
    <glyph glyph-name="uni00B5" unicode="&#xb5;" horiz-adv-x="1064" 
d="M756 1069h100q26 0 45 -19.5t19 -45.5v-1350q0 -26 -19 -45t-45 -19h-100q-26 0 -45 19t-19 45v442q-64 -116 -207 -116q-338 0 -338 409v615q0 26 20 45.5t46 19.5h98q26 0 45 -19.5t19 -45.5v-615q0 -102 40.5 -148t127.5 -46q149 0 149 200v609q0 26 19 45.5t45 19.5z
" />
    <glyph glyph-name="paragraph" unicode="&#xb6;" 
d="M422 1372h483q26 0 45 -18.5t19 -44.5v-1442q0 -26 -19 -45t-45 -19h-74q-26 0 -44.5 19t-18.5 45v1325h-135v-1325q0 -26 -20 -45t-46 -19h-71q-26 0 -45 19t-19 45v721q-171 0 -285 114q-116 113 -116 277t114 278q115 115 277 115z" />
    <glyph glyph-name="middot" unicode="&#xb7;" 
d="M610 406h-147q-26 0 -45 18.5t-19 44.5v172q0 26 19 46t45 20h147q26 0 45 -20t19 -46v-172q0 -26 -19 -44.5t-45 -18.5z" />
    <glyph glyph-name="uni00B9" unicode="&#xb9;" 
d="M780 526h-454q-17 0 -28 12t-11 29v49q0 17 11 29t28 12h153v535l-88 -90q-12 -13 -33.5 -5.5t-21.5 27.5v62q0 39 31 67l88 88q29 29 65 29h66q17 0 29 -12t12 -29v-672h153q17 0 28 -12t11 -29v-49q0 -17 -11 -29t-28 -12z" />
    <glyph glyph-name="ordmasculine" unicode="&#xba;" 
d="M539 526q-310 0 -310 332v197q0 331 310 331q307 0 307 -331v-197q0 -332 -307 -332zM539 684q133 0 133 154v235q0 156 -133 156q-136 0 -136 -156v-235q0 -154 136 -154z" />
    <glyph glyph-name="guillemotright" unicode="&#xbb;" 
d="M911 389l-266 -270q-19 -22 -49.5 -12.5t-30.5 43.5v102q1 12 2 20.5t1.5 15.5t2.5 13.5t3 10.5t4 8.5t4 7t6.5 7.5t7 6.5t8.5 8t10 8.5l177 177l-177 172l-10.5 10.5t-10.5 10t-8 9t-7 10.5t-5.5 11.5t-4.5 14.5t-2 17.5t-1 22.5v105q0 33 30.5 42t49.5 -12l266 -266
q45 -45 45 -109v-73q0 -26 -1.5 -38.5t-12 -32t-31.5 -40.5zM492 387l-267 -270q-17 -22 -48.5 -13t-31.5 43v105q0 16 2 29t3.5 20.5t9 17.5t9 12.5t13 13.5t13.5 13l178 174l-178 175q-29 29 -35 38q-15 24 -15 68v102q0 34 31.5 43.5t48.5 -12.5l267 -266q45 -45 45 -109
v-73q0 -27 -1 -38t-11.5 -31t-32.5 -42z" />
    <glyph glyph-name="onequarter" unicode="&#xbc;" 
d="M412 748h-287q-17 0 -28 11.5t-11 28.5v50q0 17 11 29t28 12h74v315l-52 -49q-13 -13 -34 -5.5t-21 27.5v62q0 41 29 67l51 50q33 26 66 26h65q17 0 29 -11t12 -28v-454h68q17 0 29 -12t12 -29v-50q0 -17 -12 -28.5t-29 -11.5zM190 168l-26 22q-39 34 -2 86l661 920
q18 21 42.5 23.5t45.5 -15.5l27 -24q39 -34 2 -86l-661 -918q-17 -23 -43 -25t-46 17zM889 0h-68q-39 0 -39 39v92h-209q-17 0 -27.5 11t-10.5 28v49q0 35 22 74l191 291q27 43 61 43h80q39 0 39 -39v-324h35q17 0 27.5 -11.5t10.5 -29.5v-53q0 -17 -10.5 -28t-27.5 -11h-35
v-92q0 -39 -39 -39zM809 465l-135 -217h135v217z" />
    <glyph glyph-name="onehalf" unicode="&#xbd;" 
d="M412 748h-287q-17 0 -28 11.5t-11 28.5v50q0 17 11 29t28 12h74v315l-52 -49q-13 -13 -34 -5.5t-21 27.5v62q0 41 29 67l51 50q33 26 66 26h65q17 0 29 -11t12 -28v-454h68q17 0 29 -12t12 -29v-50q0 -17 -12 -28.5t-29 -11.5zM176 168l-24 22q-41 35 -2 86l659 920
q18 21 42.5 23.5t45.5 -15.5l27 -24q41 -35 2 -86l-660 -918q-17 -23 -43.5 -25t-46.5 17zM965 0h-314q-39 0 -39 39v51q0 41 31 66q123 114 172 176q47 59 47 110q0 33 -17 52.5t-46 19.5q-42 0 -82 -43q-23 -23 -51 -2l-33 29q-33 25 -8 53q85 94 192 94q82 0 134.5 -53
t52.5 -139q0 -135 -195 -324h156q17 0 29 -11t12 -28v-51q0 -17 -12 -28t-29 -11z" />
    <glyph glyph-name="threequarters" unicode="&#xbe;" 
d="M424 1065q55 -52 55 -137q0 -89 -51 -140q-53 -53 -133 -53q-102 0 -191 74q-27 18 0 55l29 33q17 25 51 4q41 -35 86 -35q68 0 68 74q0 32 -18 53t-48 21h-14q-37 0 -37 30v43q0 31 37 31h14q66 0 66 68q0 71 -68 71q-41 0 -86 -36q-37 -16 -51 4l-27 32q-28 36 -2 56
q88 76 189 76q82 0 134 -53.5t52 -139.5q0 -85 -55 -131zM897 1204l27 -24q41 -35 2 -86l-660 -918q-17 -23 -43.5 -25t-46.5 17l-24 22q-41 35 -2 86l659 920q18 21 42.5 23.5t45.5 -15.5zM928 264h35q17 0 27.5 -11.5t10.5 -29.5v-53q0 -17 -10.5 -28t-27.5 -11h-35v-92
q0 -39 -39 -39h-68q-39 0 -39 39v92h-209q-17 0 -27.5 11t-10.5 28v49q0 35 22 74l191 291q27 43 61 43h80q39 0 39 -39v-324zM674 248h135v217z" />
    <glyph glyph-name="questiondown" unicode="&#xbf;" 
d="M467 1069h145q26 0 45 -19.5t19 -45.5v-173q0 -26 -19 -44.5t-45 -18.5h-145q-27 0 -46.5 18.5t-19.5 44.5v173q0 26 20 45.5t46 19.5zM489 643h101q26 0 44.5 -18.5t18.5 -44.5v-35q0 -89 -55 -156l-129 -158q-56 -69 -75 -105.5t-19 -84.5q0 -69 54 -113.5t136 -44.5
q114 0 195 90q46 46 96 11l68 -50q19 -13 22.5 -41t-10.5 -45q-135 -170 -367 -170q-184 0 -303 93q-119 91 -119 237q0 150 115 289l115 135q47 59 47 123v25q0 26 19.5 44.5t45.5 18.5z" />
    <glyph glyph-name="Agrave" unicode="&#xc0;" 
d="M455 1518l-107 182q-19 25 -5.5 50.5t44.5 25.5h127q37 0 54.5 -15t23.5 -49l70 -184q5 -25 -10.5 -44.5t-41.5 -19.5h-57q-59 0 -98 54zM662 1311l368 -1237q8 -29 -9 -51.5t-46 -22.5h-98q-65 0 -80 63l-76 267h-367l-75 -267q-21 -63 -82 -63h-99q-30 0 -46.5 22.5
t-6.5 51.5l367 1237q15 61 80 61h90q65 0 80 -61zM662 547l-125 479l-123 -479h248z" />
    <glyph glyph-name="Aacute" unicode="&#xc1;" 
d="M532 1436h-57q-26 0 -40.5 19t-8.5 44l70 184q6 34 23 49t54 15h127q31 0 44.5 -25.5t-3.5 -50.5l-108 -182q-38 -53 -101 -53zM662 1311l368 -1237q8 -29 -9 -51.5t-46 -22.5h-98q-65 0 -80 63l-76 267h-367l-75 -267q-21 -63 -82 -63h-99q-30 0 -46.5 22.5t-6.5 51.5
l367 1237q15 61 80 61h90q65 0 80 -61zM662 547l-125 479l-123 -479h248z" />
    <glyph glyph-name="Acircumflex" unicode="&#xc2;" 
d="M373 1464h-70q-28 0 -40 26t3 46l129 186q22 31 40 42.5t59 11.5h77q39 0 58 -11.5t41 -42.5l137 -194q14 -20 2.5 -42t-37.5 -22h-80q-32 0 -49.5 8t-24 18t-16.5 34l-70 110l-69 -112q-10 -23 -16 -32.5t-24 -17.5t-50 -8zM662 1311l368 -1237q8 -29 -9 -51.5
t-46 -22.5h-98q-65 0 -80 63l-76 267h-367l-75 -267q-21 -63 -82 -63h-99q-30 0 -46.5 22.5t-6.5 51.5l367 1237q15 61 80 61h90q65 0 80 -61zM662 547l-125 479l-123 -479h248z" />
    <glyph glyph-name="Atilde" unicode="&#xc3;" 
d="M356 1466h-67q-28 0 -43 19t-10 45q49 178 188 178q69 0 113 -33l41 -26q24 -17 45 -17q35 0 55 45q9 27 39 27h65q29 0 44 -19.5t10 -46.5q-50 -176 -189 -176q-53 0 -112 35l-43 27q-22 14 -43 14q-36 0 -56 -45q-9 -27 -37 -27zM662 1311l368 -1237q8 -29 -9 -51.5
t-46 -22.5h-98q-65 0 -80 63l-76 267h-367l-75 -267q-21 -63 -82 -63h-99q-30 0 -46.5 22.5t-6.5 51.5l367 1237q15 61 80 61h90q65 0 80 -61zM662 547l-125 479l-123 -479h248z" />
    <glyph glyph-name="Adieresis" unicode="&#xc4;" 
d="M391 1460h-98q-26 0 -46 19t-20 45v135q0 26 20 45.5t46 19.5h98q26 0 45 -19.5t19 -45.5v-135q0 -26 -19 -45t-45 -19zM780 1460h-98q-26 0 -45 19t-19 45v135q0 26 19 45.5t45 19.5h98q26 0 46 -19.5t20 -45.5v-135q0 -26 -20 -45t-46 -19zM662 1311l368 -1237
q8 -29 -9 -51.5t-46 -22.5h-98q-65 0 -80 63l-76 267h-367l-75 -267q-21 -63 -82 -63h-99q-30 0 -46.5 22.5t-6.5 51.5l367 1237q15 61 80 61h90q65 0 80 -61zM662 547l-125 479l-123 -479h248z" />
    <glyph glyph-name="Aring" unicode="&#xc5;" 
d="M662 1497q-52 -53 -124 -53t-124 53t-52 124t52 124t124 53t124 -53t52 -124t-52 -124zM567 1651q-11 11 -25 12.5t-24.5 -6t-18 -18.5t-6 -25t12.5 -25t25 -12.5t24.5 6t18 18.5t6 25t-12.5 25zM662 1311l368 -1237q8 -29 -9 -51.5t-46 -22.5h-98q-65 0 -80 63l-76 267
h-367l-75 -267q-21 -63 -82 -63h-99q-30 0 -46.5 22.5t-6.5 51.5l367 1237q15 61 80 61h90q65 0 80 -61zM662 547l-125 479l-123 -479h248z" />
    <glyph glyph-name="AE" unicode="&#xc6;" 
d="M983 1147h-211v-340h154q29 0 47 -18.5t18 -47.5v-96q0 -26 -19.5 -44.5t-45.5 -18.5h-154v-357h211q26 0 45 -18.5t19 -44.5v-99q0 -26 -19 -44.5t-45 -18.5h-377q-26 0 -44.5 18.5t-18.5 44.5v267h-217l-82 -267q-11 -36 -27.5 -49.5t-52.5 -13.5h-98q-29 0 -46 22.5
t-10 51.5l406 1237q15 61 82 61h104h4h377q26 0 45 -18.5t19 -44.5v-99q0 -26 -19 -44.5t-45 -18.5zM543 1047l-152 -500h152v500z" />
    <glyph glyph-name="Ccedilla" unicode="&#xc7;" 
d="M854 315l90 -59q19 -11 24.5 -39t-7.5 -47q-109 -160 -310 -184l-78 -252q-15 -64 -75 -64h-72q-26 0 -42 21t-9 47l90 252q-160 29 -248 147.5t-88 302.5v490q0 213 116.5 337t323.5 124q260 0 392 -191q13 -19 7.5 -47t-24.5 -39l-90 -59q-47 -27 -92 18
q-77 92 -193 92q-100 0 -155.5 -60t-55.5 -175v-490q0 -115 55.5 -175t155.5 -60q116 0 193 92q45 45 92 18z" />
    <glyph glyph-name="Egrave" unicode="&#xc8;" 
d="M465 1518l-107 182q-19 25 -5.5 50.5t44.5 25.5h127q37 0 54.5 -15t23.5 -49l70 -184q5 -25 -10 -44.5t-41 -19.5h-58q-59 0 -98 54zM825 1147h-387v-340h330q26 0 46 -20t20 -46v-96q0 -26 -20 -45.5t-46 -19.5h-330v-355h387q26 0 45 -18.5t19 -44.5v-99
q0 -26 -19 -44.5t-45 -18.5h-551q-26 0 -45.5 18.5t-19.5 44.5v1246q0 26 19.5 44.5t45.5 18.5h551q26 0 45 -18.5t19 -44.5v-99q0 -26 -19 -44.5t-45 -18.5z" />
    <glyph glyph-name="Eacute" unicode="&#xc9;" 
d="M543 1436h-58q-26 0 -40.5 19t-8.5 44l70 184q6 34 23.5 49t54.5 15h127q31 0 44.5 -25.5t-3.5 -50.5l-109 -182q-38 -53 -100 -53zM825 1147h-387v-340h330q26 0 46 -20t20 -46v-96q0 -26 -20 -45.5t-46 -19.5h-330v-355h387q26 0 45 -18.5t19 -44.5v-99
q0 -26 -19 -44.5t-45 -18.5h-551q-26 0 -45.5 18.5t-19.5 44.5v1246q0 26 19.5 44.5t45.5 18.5h551q26 0 45 -18.5t19 -44.5v-99q0 -26 -19 -44.5t-45 -18.5z" />
    <glyph glyph-name="Ecircumflex" unicode="&#xca;" 
d="M383 1464h-70q-28 0 -40 26t3 46l130 186q15 21 24 30.5t27.5 16.5t46.5 7h78q39 0 57.5 -11t40.5 -43l137 -194q14 -20 2.5 -42t-37.5 -22h-80q-32 0 -49.5 8t-24 18t-16.5 34l-69 110l-70 -112q-10 -23 -16 -32.5t-24 -17.5t-50 -8zM825 1147h-387v-340h330
q26 0 46 -20t20 -46v-96q0 -26 -20 -45.5t-46 -19.5h-330v-355h387q26 0 45 -18.5t19 -44.5v-99q0 -26 -19 -44.5t-45 -18.5h-551q-26 0 -45.5 18.5t-19.5 44.5v1246q0 26 19.5 44.5t45.5 18.5h551q26 0 45 -18.5t19 -44.5v-99q0 -26 -19 -44.5t-45 -18.5z" />
    <glyph glyph-name="Edieresis" unicode="&#xcb;" 
d="M401 1460h-98q-26 0 -45.5 19t-19.5 45v135q0 26 19.5 45.5t45.5 19.5h98q26 0 45 -19.5t19 -45.5v-135q0 -26 -19 -45t-45 -19zM791 1460h-99q-26 0 -44.5 19t-18.5 45v135q0 26 18.5 45.5t44.5 19.5h99q26 0 45.5 -19.5t19.5 -45.5v-135q0 -26 -19.5 -45t-45.5 -19z
M825 1147h-387v-340h330q26 0 46 -20t20 -46v-96q0 -26 -20 -45.5t-46 -19.5h-330v-355h387q26 0 45 -18.5t19 -44.5v-99q0 -26 -19 -44.5t-45 -18.5h-551q-26 0 -45.5 18.5t-19.5 44.5v1246q0 26 19.5 44.5t45.5 18.5h551q26 0 45 -18.5t19 -44.5v-99q0 -26 -19 -44.5
t-45 -18.5z" />
    <glyph glyph-name="Igrave" unicode="&#xcc;" 
d="M455 1518l-107 182q-19 25 -5.5 50.5t44.5 25.5h127q37 0 54.5 -15t23.5 -49l70 -184q5 -25 -10.5 -44.5t-41.5 -19.5h-57q-59 0 -98 54zM854 1147h-201v-922h201q26 0 45 -18.5t19 -44.5v-99q0 -26 -19 -44.5t-45 -18.5h-633q-26 0 -44.5 18.5t-18.5 44.5v99
q0 26 18.5 44.5t44.5 18.5h203v922h-203q-26 0 -44.5 18.5t-18.5 44.5v99q0 26 18.5 44.5t44.5 18.5h633q26 0 45 -18.5t19 -44.5v-99q0 -26 -19 -44.5t-45 -18.5z" />
    <glyph glyph-name="Iacute" unicode="&#xcd;" 
d="M532 1436h-57q-26 0 -40.5 19t-8.5 44l70 184q6 34 23 49t54 15h127q31 0 44.5 -25.5t-3.5 -50.5l-108 -182q-38 -53 -101 -53zM854 1147h-201v-922h201q26 0 45 -18.5t19 -44.5v-99q0 -26 -19 -44.5t-45 -18.5h-633q-26 0 -44.5 18.5t-18.5 44.5v99q0 26 18.5 44.5
t44.5 18.5h203v922h-203q-26 0 -44.5 18.5t-18.5 44.5v99q0 26 18.5 44.5t44.5 18.5h633q26 0 45 -18.5t19 -44.5v-99q0 -26 -19 -44.5t-45 -18.5z" />
    <glyph glyph-name="Icircumflex" unicode="&#xce;" 
d="M373 1464h-70q-28 0 -40 26t3 46l129 186q22 31 40 42.5t59 11.5h77q39 0 58 -11.5t41 -42.5l137 -194q14 -20 2.5 -42t-37.5 -22h-80q-32 0 -49.5 8t-24 18t-16.5 34l-70 110l-69 -112q-10 -23 -16 -32.5t-24 -17.5t-50 -8zM854 1147h-201v-922h201q26 0 45 -18.5
t19 -44.5v-99q0 -26 -19 -44.5t-45 -18.5h-633q-26 0 -44.5 18.5t-18.5 44.5v99q0 26 18.5 44.5t44.5 18.5h203v922h-203q-26 0 -44.5 18.5t-18.5 44.5v99q0 26 18.5 44.5t44.5 18.5h633q26 0 45 -18.5t19 -44.5v-99q0 -26 -19 -44.5t-45 -18.5z" />
    <glyph glyph-name="Idieresis" unicode="&#xcf;" 
d="M391 1460h-98q-26 0 -46 19t-20 45v135q0 26 20 45.5t46 19.5h98q26 0 45 -19.5t19 -45.5v-135q0 -26 -19 -45t-45 -19zM780 1460h-98q-26 0 -45 19t-19 45v135q0 26 19 45.5t45 19.5h98q26 0 46 -19.5t20 -45.5v-135q0 -26 -20 -45t-46 -19zM854 1147h-201v-922h201
q26 0 45 -18.5t19 -44.5v-99q0 -26 -19 -44.5t-45 -18.5h-633q-26 0 -44.5 18.5t-18.5 44.5v99q0 26 18.5 44.5t44.5 18.5h203v922h-203q-26 0 -44.5 18.5t-18.5 44.5v99q0 26 18.5 44.5t44.5 18.5h633q26 0 45 -18.5t19 -44.5v-99q0 -26 -19 -44.5t-45 -18.5z" />
    <glyph glyph-name="Eth" unicode="&#xd0;" 
d="M197 1372h360q208 0 317 -122.5t109 -342.5v-456q0 -211 -110 -331t-316 -120h-360q-26 0 -45 18.5t-19 44.5v527h-41q-26 0 -44.5 19.5t-18.5 45.5v66q0 26 18.5 44.5t44.5 18.5h41v525q0 26 19 44.5t45 18.5zM754 451v456q0 124 -48.5 182t-148.5 58h-195v-363h130
q26 0 45.5 -18.5t19.5 -44.5v-66q0 -26 -19.5 -45.5t-45.5 -19.5h-130v-365h195q197 0 197 226z" />
    <glyph glyph-name="Ntilde" unicode="&#xd1;" 
d="M377 1466h-68q-28 0 -43 19t-10 45q49 178 188 178q69 0 113 -33l41 -26q24 -17 45 -17q35 0 55 45q9 27 39 27h66q28 0 43 -19.5t10 -46.5q-50 -176 -188 -176q-54 0 -113 35l-43 27q-22 14 -43 14q-35 0 -55 -45q-9 -27 -37 -27zM825 1372h101q26 0 44.5 -18.5
t18.5 -44.5v-1246q0 -26 -18.5 -44.5t-44.5 -18.5h-101q-10 0 -12 2q-10 2 -18.5 5t-14.5 5.5t-12 8t-9 8t-8.5 11t-7 11t-8 14t-8.5 15.5l-416 790v-807q0 -26 -18.5 -44.5t-44.5 -18.5h-101q-26 0 -44.5 18.5t-18.5 44.5v1246q0 26 18.5 44.5t44.5 18.5h101h2
q13 -2 23.5 -4.5t17.5 -4.5t14 -7l10.5 -7.5t9 -11t7.5 -12t8.5 -15.5t9.5 -18l412 -805v822q0 26 18.5 44.5t44.5 18.5z" />
    <glyph glyph-name="Ograve" unicode="&#xd2;" 
d="M610 1483h-57q-60 0 -98 53l-107 182q-19 25 -5.5 50.5t44.5 25.5h127q37 0 54.5 -15t23.5 -48l70 -185q5 -25 -10.5 -44t-41.5 -19zM854 104q-106 -124 -317 -124q-212 0 -318 124q-108 123 -108 336v490q0 217 110 339t316 122t316 -122t110 -339v-490
q0 -212 -109 -336zM537 205q198 0 198 235v490q0 235 -198 235q-197 0 -197 -235v-490q0 -235 197 -235z" />
    <glyph glyph-name="Oacute" unicode="&#xd3;" 
d="M532 1454h-57q-26 0 -40.5 19.5t-8.5 44.5l70 184q6 34 23 48.5t54 14.5h127q31 0 44.5 -25t-3.5 -50l-108 -183q-38 -53 -101 -53zM854 104q-106 -124 -317 -124q-212 0 -318 124q-108 123 -108 336v490q0 217 110 339t316 122t316 -122t110 -339v-490q0 -212 -109 -336
zM537 205q198 0 198 235v490q0 235 -198 235q-197 0 -197 -235v-490q0 -235 197 -235z" />
    <glyph glyph-name="Ocircumflex" unicode="&#xd4;" 
d="M373 1483h-70q-28 0 -39.5 24t2.5 47l129 187q22 30 40 41.5t59 11.5h77q39 0 58.5 -11t40.5 -42l137 -195q13 -23 2 -43t-37 -20h-80q-32 0 -49.5 7.5t-24 17.5t-16.5 34l-70 111l-69 -113q-10 -23 -16.5 -32.5t-24 -17t-49.5 -7.5zM854 104q-106 -124 -317 -124
q-212 0 -318 124q-108 123 -108 336v490q0 217 110 339t316 122t316 -122t110 -339v-490q0 -212 -109 -336zM537 205q198 0 198 235v490q0 235 -198 235q-197 0 -197 -235v-490q0 -235 197 -235z" />
    <glyph glyph-name="Otilde" unicode="&#xd5;" 
d="M647 1481q-53 0 -112 35l-43 26q-22 14 -43 14q-36 0 -56 -45q-9 -26 -37 -26h-67q-28 0 -43 18.5t-10 44.5q49 178 188 178q70 0 113 -32l41 -27q22 -16 45 -16q35 0 55 45q9 26 39 26h65q29 0 44 -19t10 -46q-50 -176 -189 -176zM854 104q-106 -124 -317 -124
q-212 0 -318 124q-108 123 -108 336v490q0 217 110 339t316 122t316 -122t110 -339v-490q0 -212 -109 -336zM537 205q198 0 198 235v490q0 235 -198 235q-197 0 -197 -235v-490q0 -235 197 -235z" />
    <glyph glyph-name="Odieresis" unicode="&#xd6;" 
d="M391 1479h-98q-27 0 -46.5 18.5t-19.5 44.5v135q0 26 20 46t46 20h98q26 0 45 -20t19 -46v-135q0 -26 -19 -44.5t-45 -18.5zM780 1479h-98q-26 0 -45 18.5t-19 44.5v135q0 26 19 46t45 20h98q26 0 46 -20t20 -46v-135q0 -26 -19.5 -44.5t-46.5 -18.5zM854 104
q-106 -124 -317 -124q-212 0 -318 124q-108 123 -108 336v490q0 217 110 339t316 122t316 -122t110 -339v-490q0 -212 -109 -336zM537 205q198 0 198 235v490q0 235 -198 235q-197 0 -197 -235v-490q0 -235 197 -235z" />
    <glyph glyph-name="multiply" unicode="&#xd7;" 
d="M893 854l-221 -268l221 -269q17 -20 13.5 -48t-23.5 -42l-62 -51q-20 -17 -48 -13.5t-42 23.5l-194 236l-193 -236q-18 -21 -43.5 -24t-46.5 14l-64 51q-21 18 -24 42t14 48l221 269l-221 268q-17 21 -14 46.5t24 43.5l64 51q20 18 46.5 14.5t43.5 -26.5l193 -233
l194 233q17 23 42 26t48 -14l64 -51q20 -17 22.5 -43.5t-14.5 -46.5z" />
    <glyph glyph-name="Oslash" unicode="&#xd8;" 
d="M950 1294l-47 -98q60 -111 60 -266v-490q0 -217 -109.5 -338.5t-316.5 -121.5q-118 0 -201 38l-14 -28q-12 -23 -37.5 -32.5t-48.5 1.5l-78 37q-25 12 -34 36.5t3 49.5l43 90q-59 115 -59 268v490q0 217 110 339t316 122q112 0 202 -41l17 34q12 26 36.5 35.5t49.5 -2.5
l80 -37q25 -12 32.5 -36.5t-4.5 -49.5zM340 930v-408l299 621q-49 22 -102 22q-197 0 -197 -235zM537 205q198 0 198 235v408l-299 -621q39 -22 101 -22z" />
    <glyph glyph-name="Ugrave" unicode="&#xd9;" 
d="M610 1464h-57q-59 0 -98 54l-107 182q-19 25 -5.5 50.5t44.5 25.5h127q37 0 54.5 -15t23.5 -49l70 -184q5 -25 -10.5 -44.5t-41.5 -19.5zM854 104q-106 -124 -317 -124q-212 0 -318 124q-108 123 -108 336v869q0 26 19.5 44.5t45.5 18.5h100q26 0 45 -18.5t19 -44.5v-869
q0 -235 197 -235q198 0 198 235v869q0 26 19 44.5t45 18.5h100q26 0 45 -18.5t19 -44.5v-869q0 -212 -109 -336z" />
    <glyph glyph-name="Uacute" unicode="&#xda;" 
d="M532 1436h-57q-26 0 -40.5 19t-8.5 44l70 184q6 34 23 49t54 15h127q31 0 44.5 -25.5t-3.5 -50.5l-108 -182q-38 -53 -101 -53zM854 104q-106 -124 -317 -124q-212 0 -318 124q-108 123 -108 336v869q0 26 19.5 44.5t45.5 18.5h100q26 0 45 -18.5t19 -44.5v-869
q0 -235 197 -235q198 0 198 235v869q0 26 19 44.5t45 18.5h100q26 0 45 -18.5t19 -44.5v-869q0 -212 -109 -336z" />
    <glyph glyph-name="Ucircumflex" unicode="&#xdb;" 
d="M373 1464h-70q-28 0 -40 26t3 46l129 186q22 31 40 42.5t59 11.5h77q39 0 58 -11.5t41 -42.5l137 -194q14 -20 2.5 -42t-37.5 -22h-80q-32 0 -49.5 8t-24 18t-16.5 34l-70 110l-69 -112q-10 -23 -16 -32.5t-24 -17.5t-50 -8zM854 104q-106 -124 -317 -124
q-212 0 -318 124q-108 123 -108 336v869q0 26 19.5 44.5t45.5 18.5h100q26 0 45 -18.5t19 -44.5v-869q0 -235 197 -235q198 0 198 235v869q0 26 19 44.5t45 18.5h100q26 0 45 -18.5t19 -44.5v-869q0 -212 -109 -336z" />
    <glyph glyph-name="Udieresis" unicode="&#xdc;" 
d="M391 1460h-98q-26 0 -46 19t-20 45v135q0 26 20 45.5t46 19.5h98q26 0 45 -19.5t19 -45.5v-135q0 -26 -19 -45t-45 -19zM780 1460h-98q-26 0 -45 19t-19 45v135q0 26 19 45.5t45 19.5h98q26 0 46 -19.5t20 -45.5v-135q0 -26 -20 -45t-46 -19zM854 104
q-106 -124 -317 -124q-212 0 -318 124q-108 123 -108 336v869q0 26 19.5 44.5t45.5 18.5h100q26 0 45 -18.5t19 -44.5v-869q0 -235 197 -235q198 0 198 235v869q0 26 19 44.5t45 18.5h100q26 0 45 -18.5t19 -44.5v-869q0 -212 -109 -336z" />
    <glyph glyph-name="Yacute" unicode="&#xdd;" 
d="M532 1436h-57q-26 0 -40.5 19t-8.5 44l70 184q6 34 23 49t54 15h127q31 0 44.5 -25.5t-3.5 -50.5l-108 -182q-38 -53 -101 -53zM854 1372h104q38 0 54 -21t2 -53l-363 -788v-447q0 -26 -18.5 -44.5t-44.5 -18.5h-101q-26 0 -45.5 18.5t-19.5 44.5v447l-363 788
q-13 35 1.5 54.5t52.5 19.5h108q34 0 50 -13t30 -50l236 -531l237 531q13 34 29.5 48.5t50.5 14.5z" />
    <glyph glyph-name="Thorn" unicode="&#xde;" 
d="M379 1149h194q202 0 316 -135q115 -136 115 -328t-115 -328q-114 -135 -316 -135h-194v-160q0 -26 -19.5 -44.5t-46.5 -18.5h-100q-26 0 -44.5 18.5t-18.5 44.5v1246q0 26 18.5 44.5t44.5 18.5h100q27 0 46.5 -18.5t19.5 -44.5v-160zM379 449h178q104 0 160.5 64.5
t56.5 172.5t-56.5 173t-160.5 65h-178v-475z" />
    <glyph glyph-name="germandbls" unicode="&#xdf;" 
d="M733 680l90 -57q81 -46 135 -129.5t54 -196.5q0 -157 -82 -237t-236 -80q-186 0 -291 120q-15 13 -12 41.5t25 44.5l47 37q41 30 76 6q59 -47 129 -47q53 0 84.5 28.5t31.5 82.5q0 91 -84 135l-120 84q-158 106 -158 270q0 117 67 199t185 94v39q0 117 -39.5 167
t-130.5 50q-87 0 -126.5 -51t-39.5 -166v-1051q0 -26 -19.5 -44.5t-46.5 -18.5h-98q-26 0 -45.5 18.5t-19.5 44.5v1027q0 446 405 446q204 0 295.5 -109.5t91.5 -336.5v-152q0 -41 -37 -41h-80q-137 0 -137 -106q0 -61 86 -111z" />
    </font>
</defs>
</svg>
