<?xml version="1.0" standalone="no"?>
<!DOCTYPE svg PUBLIC "-//W3C//DTD SVG 1.1//EN" "http://www.w3.org/Graphics/SVG/1.1/DTD/svg11.dtd" >
<svg xmlns="http://www.w3.org/2000/svg" xmlns:xlink="http://www.w3.org/1999/xlink" version="1.1">
<metadata>
Created by FontForge 20201107 at Tue Jan  2 14:27:32 2024
 By 
Copyright (c) 2019 by 29Letters. All rights reserved.
</metadata>
<defs>
<font id="29LTBaseet-ExtraBold" horiz-adv-x="1073" >
  <font-face 
    font-family="29LT Baseet ExtraBold"
    font-weight="800"
    font-stretch="normal"
    units-per-em="2048"
    panose-1="0 0 9 0 0 0 0 0 0 0"
    ascent="1516"
    descent="-532"
    x-height="1083"
    cap-height="1372"
    bbox="-1061 -1089.03 3191 2275"
    underline-thickness="102"
    underline-position="-307"
    unicode-range="U+000D-FEFC"
  />
<missing-glyph horiz-adv-x="0" 
 />
    <glyph glyph-name="fi" unicode="fi" 
d="M424 1083h481q31 0 53.5 -21.5t22.5 -51.5v-934q0 -31 -22.5 -53.5t-53.5 -22.5h-117q-31 0 -53 22.5t-22 53.5v768h-289v-768q0 -31 -21.5 -53.5t-52.5 -22.5h-117q-32 0 -53.5 22.5t-21.5 53.5v768h-58q-31 0 -53 21.5t-22 52.5v92q0 31 22 52t53 21h58
q5 228 106.5 340.5t313.5 112.5q216 0 333 -141q17 -23 13 -53.5t-27 -47.5l-63 -47q-45 -24 -59 -23q-12 0 -61 27q-1 1 -3 2q-65 41 -133 41q-151 0 -154 -182v-29z" />
    <glyph glyph-name="fl" unicode="fl" 
d="M565 1536q416 0 416 -467v-993q0 -31 -22.5 -53.5t-53.5 -22.5h-117q-31 0 -53 22.5t-22 53.5v1036q0 85 -38.5 133.5t-107.5 48.5q-140 0 -143 -182v-29h115q31 0 53 -21t22 -52v-92q0 -31 -22 -52.5t-53 -21.5h-115v-768q0 -31 -21.5 -53.5t-52.5 -22.5h-117
q-32 0 -53.5 22.5t-21.5 53.5v768h-58q-31 0 -53 21.5t-22 52.5v92q0 31 22 52t53 21h58q6 453 407 453z" />
    <glyph glyph-name="uniFC64" unicode="&#xfe8c;&#xfeae;" horiz-adv-x="1523" arabic-form="final" 
d="M1403 1206h-391q-19 0 -31 12t-12 31v68q0 18 12.5 31.5t30.5 13.5h39q-11 37 -11 57v51q0 91 61 151t152 60h21q87 0 153 -63q36 -31 3 -64l-41 -43q-35 -35 -70 -4q-19 19 -45 19h-21q-25 0 -41 -16t-16 -40v-40q0 -30 15.5 -49t41.5 -19h150q18 0 31.5 -15t13.5 -30
v-68q0 -17 -13 -30t-32 -13zM1483 268h41q23 0 39 -16t16 -39v-158q0 -24 -15.5 -39.5t-39.5 -15.5h-37q-217 0 -316.5 103.5t-99.5 310.5v270h-432v-690q0 -215 -100 -325.5t-295 -110.5h-25q-146 0 -264 100q-24 21 -28 52.5t14 58.5l59 77q44 52 102 9q39 -31 115 -31h29
q72 0 99.5 37t27.5 131v885v2q2 31 22.5 52t50.5 21h625v58q0 31 21.5 52t52.5 21h119q31 0 52 -21t21 -52v-598q0 -144 146 -144z" />
    <glyph glyph-name="uniFC65" unicode="&#xfe8c;&#xfeb0;" horiz-adv-x="1523" arabic-form="final" 
d="M1403 1206h-391q-19 0 -31 12t-12 31v68q0 18 12.5 31.5t30.5 13.5h39q-11 37 -11 57v51q0 91 61 151t152 60h21q87 0 153 -63q36 -31 3 -64l-41 -43q-35 -35 -70 -4q-19 19 -45 19h-21q-25 0 -41 -16t-16 -40v-40q0 -30 15.5 -49t41.5 -19h150q18 0 31.5 -15t13.5 -30
v-68q0 -17 -13 -30t-32 -13zM592 1087h-160q-23 0 -40 16.5t-17 39.5v151q0 20 17 36t40 16h160q23 0 37 -14.5t14 -37.5v-151q0 -24 -14 -40t-37 -16zM1483 268h41q23 0 39 -16t16 -39v-158q0 -24 -15.5 -39.5t-39.5 -15.5h-37q-217 0 -316.5 103.5t-99.5 310.5v270h-432
v-690q0 -215 -100 -325.5t-295 -110.5h-25q-146 0 -264 100q-24 21 -28 52.5t14 58.5l59 77q44 52 102 9q39 -31 115 -31h29q72 0 99.5 37t27.5 131v885v2q2 31 22.5 52t50.5 21h625v58q0 31 21.5 52t52.5 21h119q31 0 52 -21t21 -52v-598q0 -144 146 -144z" />
    <glyph glyph-name="uniFC67" unicode="&#xfe8c;&#xfee6;" horiz-adv-x="2117" arabic-form="final" 
d="M1997 1077h-391q-19 0 -31 12t-12 31v68q0 18 12.5 31.5t30.5 13.5h39q-11 37 -11 57v51q0 91 61 151t152 60h21q87 0 153 -63q35 -31 2 -64l-41 -43q-34 -34 -69 -4q-19 19 -45 19h-21q-25 0 -41 -16.5t-16 -39.5v-41q0 -30 15.5 -48.5t41.5 -18.5h150q18 0 31.5 -15
t13.5 -30v-68q0 -19 -13 -31t-32 -12zM2077 268h41q23 0 38 -16t15 -39v-158q0 -25 -15 -40t-38 -15h-37q-217 0 -317.5 103.5t-100.5 310.5v139h-414v-573q0 -207 -102 -312.5t-320 -105.5h-235q-220 0 -336 131q-117 132 -117 311q0 221 121 389q18 27 46.5 34t55.5 -11
l89 -60q26 -17 32.5 -47.5t-10.5 -56.5q-65 -109 -65 -215q0 -99 48.5 -153t135.5 -54h239q152 0 152 145v773q0 31 22.5 53t53.5 22h604v54q0 32 22.5 53.5t53.5 21.5h116q31 0 53.5 -21.5t22.5 -53.5v-465q0 -144 146 -144zM760 670h-160q-23 0 -40 16t-17 39v152
q0 20 17 35.5t40 15.5h160q23 0 37 -14t14 -37v-152q0 -24 -14 -39.5t-37 -15.5z" />
    <glyph glyph-name="uniFC68" unicode="&#xfe8c;&#xfef0;" horiz-adv-x="2166" arabic-form="final" 
d="M2048 1206h-391q-19 0 -31 12t-12 31v68q0 18 12.5 31.5t30.5 13.5h39q-10 33 -10 57v51q0 91 60.5 151t151.5 60h21q88 0 154 -63q35 -31 2 -64l-41 -43q-35 -35 -70 -4q-19 19 -45 19h-21q-24 0 -40.5 -16t-16.5 -40v-40q0 -30 15.5 -49t41.5 -19h150q18 0 31.5 -15
t13.5 -30v-68q0 -18 -12.5 -30.5t-32.5 -12.5zM2126 268h41q23 0 39 -16t16 -39v-158q0 -24 -15.5 -39.5t-39.5 -15.5h-37q-217 0 -316.5 103.5t-99.5 310.5v270h-315q-150 0 -150 -154v-555q0 -207 -102 -312t-320 -105h-235q-220 0 -336 131q-117 132 -117 311
q0 221 121 389q18 27 46.5 34t55.5 -11l89 -60q26 -17 32.5 -47t-10.5 -55q-48 -83 -60.5 -164t7 -139t65 -91.5t107.5 -29.5h239q152 0 152 145v557q0 212 99.5 318t316.5 106h315v58q0 31 21.5 52t52.5 21h119q31 0 52 -21t21 -52v-598q0 -144 146 -144z" />
    <glyph glyph-name="uniFC69" unicode="&#xfe8c;&#xfef2;" horiz-adv-x="2166" arabic-form="final" 
d="M2048 1206h-391q-19 0 -31 12t-12 31v68q0 18 12.5 31.5t30.5 13.5h39q-10 33 -10 57v51q0 91 60.5 151t151.5 60h21q88 0 154 -63q35 -31 2 -64l-41 -43q-35 -35 -70 -4q-19 19 -45 19h-21q-24 0 -40.5 -16t-16.5 -40v-40q0 -30 15.5 -49t41.5 -19h150q18 0 31.5 -15
t13.5 -30v-68q0 -18 -12.5 -30.5t-32.5 -12.5zM2126 268h41q23 0 39 -16t16 -39v-158q0 -24 -15.5 -39.5t-39.5 -15.5h-37q-217 0 -316.5 103.5t-99.5 310.5v270h-315q-150 0 -150 -154v-555q0 -207 -102 -312t-320 -105h-235q-220 0 -336 131q-117 132 -117 311
q0 221 121 389q18 27 46.5 34t55.5 -11l89 -60q26 -17 32.5 -47t-10.5 -55q-48 -83 -60.5 -164t7 -139t65 -91.5t107.5 -29.5h239q152 0 152 145v557q0 212 99.5 318t316.5 106h315v58q0 31 21.5 52t52.5 21h119q31 0 52 -21t21 -52v-598q0 -144 146 -144zM438 -578h156
q23 0 37 -14t14 -35v-147q0 -23 -15 -38t-36 -15h-156q-20 0 -36.5 16.5t-16.5 36.5v147q0 21 15 35t38 14zM797 -578h155q23 0 37.5 -14t14.5 -35v-147q0 -23 -15.5 -38t-36.5 -15h-155q-23 0 -38.5 16t-15.5 37v147q0 20 15.5 34.5t38.5 14.5z" />
    <glyph glyph-name="uniFC6A" unicode="&#xfe92;&#xfeae;" horiz-adv-x="1523" arabic-form="final" 
d="M1483 268h41q23 0 39 -16t16 -39v-158q0 -24 -15.5 -39.5t-39.5 -15.5h-37q-217 0 -316.5 103.5t-99.5 310.5v270h-432v-690q0 -215 -100 -325.5t-295 -110.5h-25q-146 0 -264 100q-24 21 -28 52.5t14 58.5l59 77q44 52 102 9q39 -31 115 -31h29q72 0 99.5 37t27.5 131
v885v2q2 31 22.5 52t50.5 21h625v58q0 31 21.5 52t52.5 21h119q31 0 52 -21t21 -52v-598q0 -144 146 -144zM870 -135h160q23 0 38 -14t15 -37v-150q0 -24 -15 -40.5t-38 -16.5h-160q-23 0 -39 17t-16 40v150q0 23 15.5 37t39.5 14z" />
    <glyph glyph-name="uniFC6B" unicode="&#xfe92;&#xfeb0;" horiz-adv-x="1523" arabic-form="final" 
d="M592 1087h-160q-23 0 -40 16.5t-17 39.5v151q0 20 17 36t40 16h160q23 0 37 -14.5t14 -37.5v-151q0 -24 -14 -40t-37 -16zM1483 268h41q23 0 39 -16t16 -39v-158q0 -24 -15.5 -39.5t-39.5 -15.5h-37q-217 0 -316.5 103.5t-99.5 310.5v270h-432v-690q0 -215 -100 -325.5
t-295 -110.5h-25q-146 0 -264 100q-24 21 -28 52.5t14 58.5l59 77q44 52 102 9q39 -31 115 -31h29q72 0 99.5 37t27.5 131v885v2q2 31 22.5 52t50.5 21h625v58q0 31 21.5 52t52.5 21h119q31 0 52 -21t21 -52v-598q0 -144 146 -144zM870 -135h160q23 0 38 -14t15 -37v-150
q0 -24 -15 -40.5t-38 -16.5h-160q-23 0 -39 17t-16 40v150q0 23 15.5 37t39.5 14z" />
    <glyph glyph-name="uniFC6D" unicode="&#xfe92;&#xfee6;" horiz-adv-x="2117" arabic-form="final" 
d="M2077 268h41q23 0 38 -16t15 -39v-158q0 -25 -15 -40t-38 -15h-37q-217 0 -317.5 103.5t-100.5 310.5v139h-414v-573q0 -207 -102 -312.5t-320 -105.5h-235q-220 0 -336 131q-117 132 -117 311q0 221 121 389q18 27 46.5 34t55.5 -11l89 -60q26 -17 32.5 -47.5
t-10.5 -56.5q-65 -109 -65 -215q0 -99 48.5 -153t135.5 -54h239q152 0 152 145v773q0 31 22.5 53t53.5 22h604v54q0 32 22.5 53.5t53.5 21.5h116q31 0 53.5 -21.5t22.5 -53.5v-465q0 -144 146 -144zM760 670h-160q-23 0 -40 16t-17 39v152q0 20 17 35.5t40 15.5h160
q23 0 37 -14t14 -37v-152q0 -24 -14 -39.5t-37 -15.5zM1503 -135h160q23 0 38 -14t15 -37v-150q0 -24 -15 -40.5t-38 -16.5h-160q-23 0 -39 17t-16 40v150q0 23 15.5 37t39.5 14z" />
    <glyph glyph-name="uniFC6E" unicode="&#xfe92;&#xfef0;" horiz-adv-x="2166" arabic-form="final" 
d="M2126 268h41q23 0 39 -16t16 -39v-158q0 -24 -15.5 -39.5t-39.5 -15.5h-37q-217 0 -316.5 103.5t-99.5 310.5v270h-315q-150 0 -150 -154v-555q0 -207 -102 -312t-320 -105h-235q-220 0 -336 131q-117 132 -117 311q0 221 121 389q18 27 46.5 34t55.5 -11l89 -60
q26 -17 32.5 -47t-10.5 -55q-48 -83 -60.5 -164t7 -139t65 -91.5t107.5 -29.5h239q152 0 152 145v557q0 212 99.5 318t316.5 106h315v58q0 31 21.5 52t52.5 21h119q31 0 52 -21t21 -52v-598q0 -144 146 -144zM1516 -135h159q24 0 39 -14t15 -37v-150q0 -24 -15.5 -40.5
t-38.5 -16.5h-159q-23 0 -39.5 17t-16.5 40v150q0 23 16 37t40 14z" />
    <glyph glyph-name="uniFC6F" unicode="&#xfe92;&#xfef2;" horiz-adv-x="2166" arabic-form="final" 
d="M2126 268h41q23 0 39 -16t16 -39v-158q0 -24 -15.5 -39.5t-39.5 -15.5h-37q-217 0 -316.5 103.5t-99.5 310.5v270h-315q-150 0 -150 -154v-555q0 -207 -102 -312t-320 -105h-235q-220 0 -336 131q-117 132 -117 311q0 221 121 389q18 27 46.5 34t55.5 -11l89 -60
q26 -17 32.5 -47t-10.5 -55q-48 -83 -60.5 -164t7 -139t65 -91.5t107.5 -29.5h239q152 0 152 145v557q0 212 99.5 318t316.5 106h315v58q0 31 21.5 52t52.5 21h119q31 0 52 -21t21 -52v-598q0 -144 146 -144zM1516 -135h159q24 0 39 -14t15 -37v-150q0 -24 -15.5 -40.5
t-38.5 -16.5h-159q-23 0 -39.5 17t-16.5 40v150q0 23 16 37t40 14zM438 -578h156q23 0 37 -14t14 -35v-147q0 -23 -15 -38t-36 -15h-156q-20 0 -36.5 16.5t-16.5 36.5v147q0 21 15 35t38 14zM797 -578h155q23 0 37.5 -14t14.5 -35v-147q0 -23 -15.5 -38t-36.5 -15h-155
q-23 0 -38.5 16t-15.5 37v147q0 20 15.5 34.5t38.5 14.5z" />
    <glyph glyph-name="uniFC70" unicode="&#xfe98;&#xfeae;" horiz-adv-x="1523" arabic-form="final" 
d="M1108 1219h-156q-23 0 -39 16t-16 37v149q0 20 16 33.5t39 13.5h156q20 0 34.5 -13.5t14.5 -33.5v-149q0 -23 -14 -38t-35 -15zM1466 1219h-155q-21 0 -37.5 15.5t-16.5 37.5v149q0 20 15.5 33.5t38.5 13.5h155q21 0 35.5 -13.5t14.5 -33.5v-149q0 -23 -14.5 -38
t-35.5 -15zM1483 268h41q23 0 39 -16t16 -39v-158q0 -24 -15.5 -39.5t-39.5 -15.5h-37q-217 0 -316.5 103.5t-99.5 310.5v270h-432v-690q0 -215 -100 -325.5t-295 -110.5h-25q-146 0 -264 100q-24 21 -28 52.5t14 58.5l59 77q44 52 102 9q39 -31 115 -31h29q72 0 99.5 37
t27.5 131v885v2q2 31 22.5 52t50.5 21h625v58q0 31 21.5 52t52.5 21h119q31 0 52 -21t21 -52v-598q0 -144 146 -144z" />
    <glyph glyph-name="uniFC71" unicode="&#xfe98;&#xfeb0;" horiz-adv-x="1523" arabic-form="final" 
d="M1108 1219h-156q-23 0 -39 16t-16 37v149q0 20 16 33.5t39 13.5h156q20 0 34.5 -13.5t14.5 -33.5v-149q0 -23 -14 -38t-35 -15zM1466 1219h-155q-21 0 -37.5 15.5t-16.5 37.5v149q0 20 15.5 33.5t38.5 13.5h155q21 0 35.5 -13.5t14.5 -33.5v-149q0 -23 -14.5 -38
t-35.5 -15zM592 1087h-160q-23 0 -40 16.5t-17 39.5v151q0 20 17 36t40 16h160q23 0 37 -14.5t14 -37.5v-151q0 -24 -14 -40t-37 -16zM1483 268h41q23 0 39 -16t16 -39v-158q0 -24 -15.5 -39.5t-39.5 -15.5h-37q-217 0 -316.5 103.5t-99.5 310.5v270h-432v-690
q0 -215 -100 -325.5t-295 -110.5h-25q-146 0 -264 100q-24 21 -28 52.5t14 58.5l59 77q44 52 102 9q39 -31 115 -31h29q72 0 99.5 37t27.5 131v885v2q2 31 22.5 52t50.5 21h625v58q0 31 21.5 52t52.5 21h119q31 0 52 -21t21 -52v-598q0 -144 146 -144z" />
    <glyph glyph-name="uniFC73" unicode="&#xfe98;&#xfee6;" horiz-adv-x="2117" arabic-form="final" 
d="M1702 1090h-156q-23 0 -39 16t-16 37v149q0 20 16 33.5t39 13.5h156q20 0 34.5 -13.5t14.5 -33.5v-149q0 -23 -14 -38t-35 -15zM2060 1090h-155q-20 0 -37 16.5t-17 36.5v149q0 20 15.5 33.5t38.5 13.5h155q20 0 34.5 -13.5t14.5 -33.5v-149q0 -23 -14 -38t-35 -15z
M2077 268h41q23 0 38 -16t15 -39v-158q0 -25 -15 -40t-38 -15h-37q-217 0 -317.5 103.5t-100.5 310.5v139h-414v-573q0 -207 -102 -312.5t-320 -105.5h-235q-220 0 -336 131q-117 132 -117 311q0 221 121 389q18 27 46.5 34t55.5 -11l89 -60q26 -17 32.5 -47.5t-10.5 -56.5
q-65 -109 -65 -215q0 -99 48.5 -153t135.5 -54h239q152 0 152 145v773q0 31 22.5 53t53.5 22h604v54q0 32 22.5 53.5t53.5 21.5h116q31 0 53.5 -21.5t22.5 -53.5v-465q0 -144 146 -144zM760 670h-160q-23 0 -40 16t-17 39v152q0 20 17 35.5t40 15.5h160q23 0 37 -14t14 -37
v-152q0 -24 -14 -39.5t-37 -15.5z" />
    <glyph glyph-name="uniFC74" unicode="&#xfe98;&#xfef0;" horiz-adv-x="2166" arabic-form="final" 
d="M1755 1219h-156q-23 0 -39 16t-16 37v149q0 20 16 33.5t39 13.5h156q20 0 34.5 -13.5t14.5 -33.5v-149q0 -23 -14 -38t-35 -15zM2114 1219h-156q-21 0 -37 15t-16 38v149q0 20 15 33.5t38 13.5h156q20 0 34.5 -13.5t14.5 -33.5v-149q0 -23 -14 -38t-35 -15zM2126 268h41
q23 0 39 -16t16 -39v-158q0 -24 -15.5 -39.5t-39.5 -15.5h-37q-217 0 -316.5 103.5t-99.5 310.5v270h-315q-150 0 -150 -154v-555q0 -207 -102 -312t-320 -105h-235q-220 0 -336 131q-117 132 -117 311q0 221 121 389q18 27 46.5 34t55.5 -11l89 -60q26 -17 32.5 -47
t-10.5 -55q-48 -83 -60.5 -164t7 -139t65 -91.5t107.5 -29.5h239q152 0 152 145v557q0 212 99.5 318t316.5 106h315v58q0 31 21.5 52t52.5 21h119q31 0 52 -21t21 -52v-598q0 -144 146 -144z" />
    <glyph glyph-name="uniFC75" unicode="&#xfe98;&#xfef2;" horiz-adv-x="2166" arabic-form="final" 
d="M1755 1219h-156q-23 0 -39 16t-16 37v149q0 20 16 33.5t39 13.5h156q20 0 34.5 -13.5t14.5 -33.5v-149q0 -23 -14 -38t-35 -15zM2114 1219h-156q-21 0 -37 15t-16 38v149q0 20 15 33.5t38 13.5h156q20 0 34.5 -13.5t14.5 -33.5v-149q0 -23 -14 -38t-35 -15zM2126 268h41
q23 0 39 -16t16 -39v-158q0 -24 -15.5 -39.5t-39.5 -15.5h-37q-217 0 -316.5 103.5t-99.5 310.5v270h-315q-150 0 -150 -154v-555q0 -207 -102 -312t-320 -105h-235q-220 0 -336 131q-117 132 -117 311q0 221 121 389q18 27 46.5 34t55.5 -11l89 -60q26 -17 32.5 -47
t-10.5 -55q-48 -83 -60.5 -164t7 -139t65 -91.5t107.5 -29.5h239q152 0 152 145v557q0 212 99.5 318t316.5 106h315v58q0 31 21.5 52t52.5 21h119q31 0 52 -21t21 -52v-598q0 -144 146 -144zM438 -578h156q23 0 37 -14t14 -35v-147q0 -23 -15 -38t-36 -15h-156
q-20 0 -36.5 16.5t-16.5 36.5v147q0 21 15 35t38 14zM797 -578h155q23 0 37.5 -14t14.5 -35v-147q0 -23 -15.5 -38t-36.5 -15h-155q-23 0 -38.5 16t-15.5 37v147q0 20 15.5 34.5t38.5 14.5z" />
    <glyph glyph-name="uniFC76" unicode="&#xfe9c;&#xfeae;" horiz-adv-x="1523" arabic-form="final" 
d="M1282 1526h-143q-19 0 -33 11t-14 28v123q0 18 14 30.5t33 12.5h143q19 0 31 -12t12 -31v-123q0 -39 -43 -39zM1110 1219h-156q-23 0 -38 14t-15 35v147q0 23 16 38t37 15h156q21 0 36 -15t15 -38v-147q0 -20 -15.5 -34.5t-35.5 -14.5zM1260 1268v147q0 23 15 38t38 15
h155q21 0 36.5 -15t15.5 -38v-147q0 -20 -15.5 -34.5t-36.5 -14.5h-155q-23 0 -38 14t-15 35zM1483 268h41q23 0 39 -16t16 -39v-158q0 -24 -15.5 -39.5t-39.5 -15.5h-37q-217 0 -316.5 103.5t-99.5 310.5v270h-432v-690q0 -215 -100 -325.5t-295 -110.5h-25
q-146 0 -264 100q-24 21 -28 52.5t14 58.5l59 77q44 52 102 9q39 -31 115 -31h29q72 0 99.5 37t27.5 131v885v2q2 31 22.5 52t50.5 21h625v58q0 31 21.5 52t52.5 21h119q31 0 52 -21t21 -52v-598q0 -144 146 -144z" />
    <glyph glyph-name="uniFC77" unicode="&#xfe9c;&#xfeb0;" horiz-adv-x="1523" arabic-form="final" 
d="M1282 1526h-143q-19 0 -33 11t-14 28v123q0 18 14 30.5t33 12.5h143q19 0 31 -12t12 -31v-123q0 -39 -43 -39zM1110 1219h-156q-23 0 -38 14t-15 35v147q0 23 16 38t37 15h156q21 0 36 -15t15 -38v-147q0 -20 -15.5 -34.5t-35.5 -14.5zM1260 1268v147q0 23 15 38t38 15
h155q21 0 36.5 -15t15.5 -38v-147q0 -20 -15.5 -34.5t-36.5 -14.5h-155q-23 0 -38 14t-15 35zM592 1087h-160q-23 0 -40 16.5t-17 39.5v151q0 20 17 36t40 16h160q23 0 37 -14.5t14 -37.5v-151q0 -24 -14 -40t-37 -16zM1483 268h41q23 0 39 -16t16 -39v-158
q0 -24 -15.5 -39.5t-39.5 -15.5h-37q-217 0 -316.5 103.5t-99.5 310.5v270h-432v-690q0 -215 -100 -325.5t-295 -110.5h-25q-146 0 -264 100q-24 21 -28 52.5t14 58.5l59 77q44 52 102 9q39 -31 115 -31h29q72 0 99.5 37t27.5 131v885v2q2 31 22.5 52t50.5 21h625v58
q0 31 21.5 52t52.5 21h119q31 0 52 -21t21 -52v-598q0 -144 146 -144z" />
    <glyph glyph-name="uniFC79" unicode="&#xfe9c;&#xfee6;" horiz-adv-x="2117" arabic-form="final" 
d="M1876 1397h-143q-19 0 -33 11t-14 28v123q0 18 14 30.5t33 12.5h143q19 0 31 -12t12 -31v-123q0 -39 -43 -39zM1704 1090h-156q-23 0 -38 14t-15 35v147q0 20 16.5 36.5t36.5 16.5h156q21 0 36 -15t15 -38v-147q0 -20 -15.5 -34.5t-35.5 -14.5zM1853 1139v147
q0 21 15.5 37t38.5 16h155q21 0 36.5 -15t15.5 -38v-147q0 -20 -15.5 -34.5t-36.5 -14.5h-155q-23 0 -38.5 14.5t-15.5 34.5zM2077 268h41q23 0 38 -16t15 -39v-158q0 -25 -15 -40t-38 -15h-37q-217 0 -317.5 103.5t-100.5 310.5v139h-414v-573q0 -207 -102 -312.5
t-320 -105.5h-235q-220 0 -336 131q-117 132 -117 311q0 221 121 389q18 27 46.5 34t55.5 -11l89 -60q26 -17 32.5 -47.5t-10.5 -56.5q-65 -109 -65 -215q0 -99 48.5 -153t135.5 -54h239q152 0 152 145v773q0 31 22.5 53t53.5 22h604v54q0 32 22.5 53.5t53.5 21.5h116
q31 0 53.5 -21.5t22.5 -53.5v-465q0 -144 146 -144zM760 670h-160q-23 0 -40 16t-17 39v152q0 20 17 35.5t40 15.5h160q23 0 37 -14t14 -37v-152q0 -24 -14 -39.5t-37 -15.5z" />
    <glyph glyph-name="uniFC7A" unicode="&#xfe9c;&#xfef0;" horiz-adv-x="2166" arabic-form="final" 
d="M1927 1526h-143q-19 0 -33 11t-14 28v123q0 18 14 30.5t33 12.5h143q19 0 31 -12t12 -31v-123q0 -39 -43 -39zM1755 1219h-156q-23 0 -38 14t-15 35v147q0 23 15 38t38 15h156q21 0 36 -15t15 -38v-147q0 -20 -15.5 -34.5t-35.5 -14.5zM1905 1268v147q0 23 16 38t37 15
h156q21 0 36 -15t15 -38v-147q0 -20 -15.5 -34.5t-35.5 -14.5h-156q-23 0 -38 14t-15 35zM2126 268h41q23 0 39 -16t16 -39v-158q0 -24 -15.5 -39.5t-39.5 -15.5h-37q-217 0 -316.5 103.5t-99.5 310.5v270h-315q-150 0 -150 -154v-555q0 -207 -102 -312t-320 -105h-235
q-220 0 -336 131q-117 132 -117 311q0 221 121 389q18 27 46.5 34t55.5 -11l89 -60q26 -17 32.5 -47t-10.5 -55q-48 -83 -60.5 -164t7 -139t65 -91.5t107.5 -29.5h239q152 0 152 145v557q0 212 99.5 318t316.5 106h315v58q0 31 21.5 52t52.5 21h119q31 0 52 -21t21 -52v-598
q0 -144 146 -144z" />
    <glyph glyph-name="uniFC7B" unicode="&#xfe9c;&#xfef2;" horiz-adv-x="2166" arabic-form="final" 
d="M1927 1526h-143q-19 0 -33 11t-14 28v123q0 18 14 30.5t33 12.5h143q19 0 31 -12t12 -31v-123q0 -39 -43 -39zM1755 1219h-156q-23 0 -38 14t-15 35v147q0 23 15 38t38 15h156q21 0 36 -15t15 -38v-147q0 -20 -15.5 -34.5t-35.5 -14.5zM1905 1268v147q0 23 16 38t37 15
h156q21 0 36 -15t15 -38v-147q0 -20 -15.5 -34.5t-35.5 -14.5h-156q-23 0 -38 14t-15 35zM2126 268h41q23 0 39 -16t16 -39v-158q0 -24 -15.5 -39.5t-39.5 -15.5h-37q-217 0 -316.5 103.5t-99.5 310.5v270h-315q-150 0 -150 -154v-555q0 -207 -102 -312t-320 -105h-235
q-220 0 -336 131q-117 132 -117 311q0 221 121 389q18 27 46.5 34t55.5 -11l89 -60q26 -17 32.5 -47t-10.5 -55q-48 -83 -60.5 -164t7 -139t65 -91.5t107.5 -29.5h239q152 0 152 145v557q0 212 99.5 318t316.5 106h315v58q0 31 21.5 52t52.5 21h119q31 0 52 -21t21 -52v-598
q0 -144 146 -144zM438 -578h156q23 0 37 -14t14 -35v-147q0 -23 -15 -38t-36 -15h-156q-20 0 -36.5 16.5t-16.5 36.5v147q0 21 15 35t38 14zM797 -578h155q23 0 37.5 -14t14.5 -35v-147q0 -23 -15.5 -38t-36.5 -15h-155q-23 0 -38.5 16t-15.5 37v147q0 20 15.5 34.5
t38.5 14.5z" />
    <glyph glyph-name="uniFC8A" unicode="&#xfee8;&#xfeae;" horiz-adv-x="1523" arabic-form="final" 
d="M1292 1219h-159q-24 0 -41 16t-17 39v151q0 20 17.5 36t40.5 16h159q23 0 37 -14.5t14 -37.5v-151q0 -24 -14 -39.5t-37 -15.5zM1483 268h41q23 0 39 -16t16 -39v-158q0 -24 -15.5 -39.5t-39.5 -15.5h-37q-217 0 -316.5 103.5t-99.5 310.5v270h-432v-690
q0 -215 -100 -325.5t-295 -110.5h-25q-146 0 -264 100q-24 21 -28 52.5t14 58.5l59 77q44 52 102 9q39 -31 115 -31h29q72 0 99.5 37t27.5 131v885v2q2 31 22.5 52t50.5 21h625v58q0 31 21.5 52t52.5 21h119q31 0 52 -21t21 -52v-598q0 -144 146 -144z" />
    <glyph glyph-name="uniFC8B" unicode="&#xfee8;&#xfeb0;" horiz-adv-x="1523" arabic-form="final" 
d="M1292 1219h-159q-24 0 -41 16t-17 39v151q0 20 17.5 36t40.5 16h159q23 0 37 -14.5t14 -37.5v-151q0 -24 -14 -39.5t-37 -15.5zM592 1087h-160q-23 0 -40 16.5t-17 39.5v151q0 20 17 36t40 16h160q23 0 37 -14.5t14 -37.5v-151q0 -24 -14 -40t-37 -16zM1483 268h41
q23 0 39 -16t16 -39v-158q0 -24 -15.5 -39.5t-39.5 -15.5h-37q-217 0 -316.5 103.5t-99.5 310.5v270h-432v-690q0 -215 -100 -325.5t-295 -110.5h-25q-146 0 -264 100q-24 21 -28 52.5t14 58.5l59 77q44 52 102 9q39 -31 115 -31h29q72 0 99.5 37t27.5 131v885v2
q2 31 22.5 52t50.5 21h625v58q0 31 21.5 52t52.5 21h119q31 0 52 -21t21 -52v-598q0 -144 146 -144z" />
    <glyph glyph-name="uniFC8D" unicode="&#xfee8;&#xfee6;" horiz-adv-x="2117" arabic-form="final" 
d="M1886 1090h-160q-23 0 -40 16t-17 39v151q0 20 17 36t40 16h160q23 0 37 -14.5t14 -37.5v-151q0 -24 -14 -39.5t-37 -15.5zM2077 268h41q23 0 38 -16t15 -39v-158q0 -25 -15 -40t-38 -15h-37q-217 0 -317.5 103.5t-100.5 310.5v139h-414v-573q0 -207 -102 -312.5
t-320 -105.5h-235q-220 0 -336 131q-117 132 -117 311q0 221 121 389q18 27 46.5 34t55.5 -11l89 -60q26 -17 32.5 -47.5t-10.5 -56.5q-65 -109 -65 -215q0 -99 48.5 -153t135.5 -54h239q152 0 152 145v773q0 31 22.5 53t53.5 22h604v54q0 32 22.5 53.5t53.5 21.5h116
q31 0 53.5 -21.5t22.5 -53.5v-465q0 -144 146 -144zM760 670h-160q-23 0 -40 16t-17 39v152q0 20 17 35.5t40 15.5h160q23 0 37 -14t14 -37v-152q0 -24 -14 -39.5t-37 -15.5z" />
    <glyph glyph-name="uniFC8E" unicode="&#xfee8;&#xfef0;" horiz-adv-x="2166" arabic-form="final" 
d="M1937 1219h-159q-24 0 -41 16t-17 39v151q0 20 17.5 36t40.5 16h159q23 0 37.5 -14.5t14.5 -37.5v-151q0 -24 -14.5 -39.5t-37.5 -15.5zM2126 268h41q23 0 39 -16t16 -39v-158q0 -24 -15.5 -39.5t-39.5 -15.5h-37q-217 0 -316.5 103.5t-99.5 310.5v270h-315
q-150 0 -150 -154v-555q0 -207 -102 -312t-320 -105h-235q-220 0 -336 131q-117 132 -117 311q0 221 121 389q18 27 46.5 34t55.5 -11l89 -60q26 -17 32.5 -47t-10.5 -55q-48 -83 -60.5 -164t7 -139t65 -91.5t107.5 -29.5h239q152 0 152 145v557q0 212 99.5 318t316.5 106
h315v58q0 31 21.5 52t52.5 21h119q31 0 52 -21t21 -52v-598q0 -144 146 -144z" />
    <glyph glyph-name="uniFC8F" unicode="&#xfee8;&#xfef2;" horiz-adv-x="2166" arabic-form="final" 
d="M1937 1219h-159q-24 0 -41 16t-17 39v151q0 20 17.5 36t40.5 16h159q23 0 37.5 -14.5t14.5 -37.5v-151q0 -24 -14.5 -39.5t-37.5 -15.5zM2126 268h41q23 0 39 -16t16 -39v-158q0 -24 -15.5 -39.5t-39.5 -15.5h-37q-217 0 -316.5 103.5t-99.5 310.5v270h-315
q-150 0 -150 -154v-555q0 -207 -102 -312t-320 -105h-235q-220 0 -336 131q-117 132 -117 311q0 221 121 389q18 27 46.5 34t55.5 -11l89 -60q26 -17 32.5 -47t-10.5 -55q-48 -83 -60.5 -164t7 -139t65 -91.5t107.5 -29.5h239q152 0 152 145v557q0 212 99.5 318t316.5 106
h315v58q0 31 21.5 52t52.5 21h119q31 0 52 -21t21 -52v-598q0 -144 146 -144zM438 -578h156q23 0 37 -14t14 -35v-147q0 -23 -15 -38t-36 -15h-156q-20 0 -36.5 16.5t-16.5 36.5v147q0 21 15 35t38 14zM797 -578h155q23 0 37.5 -14t14.5 -35v-147q0 -23 -15.5 -38t-36.5 -15
h-155q-23 0 -38.5 16t-15.5 37v147q0 20 15.5 34.5t38.5 14.5z" />
    <glyph glyph-name="uniFC91" unicode="&#xfef4;&#xfeae;" horiz-adv-x="1523" arabic-form="final" 
d="M1483 268h41q23 0 39 -16t16 -39v-158q0 -24 -15.5 -39.5t-39.5 -15.5h-37q-217 0 -316.5 103.5t-99.5 310.5v270h-432v-690q0 -215 -100 -325.5t-295 -110.5h-25q-146 0 -264 100q-24 21 -28 52.5t14 58.5l59 77q44 52 102 9q39 -31 115 -31h29q72 0 99.5 37t27.5 131
v885v2q2 31 22.5 52t50.5 21h625v58q0 31 21.5 52t52.5 21h119q31 0 52 -21t21 -52v-598q0 -144 146 -144zM821 -135h156q23 0 37 -14t14 -35v-148q0 -23 -15 -38t-36 -15h-156q-23 0 -38 16t-15 37v148q0 21 15 35t38 14zM1180 -135h155q23 0 37 -14t14 -35v-148
q0 -23 -15 -38t-36 -15h-155q-20 0 -37 16.5t-17 36.5v148q0 20 15.5 34.5t38.5 14.5z" />
    <glyph glyph-name="uniFC92" unicode="&#xfef4;&#xfeb0;" horiz-adv-x="1523" arabic-form="final" 
d="M592 1087h-160q-23 0 -40 16.5t-17 39.5v151q0 20 17 36t40 16h160q23 0 37 -14.5t14 -37.5v-151q0 -24 -14 -40t-37 -16zM1483 268h41q23 0 39 -16t16 -39v-158q0 -24 -15.5 -39.5t-39.5 -15.5h-37q-217 0 -316.5 103.5t-99.5 310.5v270h-432v-690q0 -215 -100 -325.5
t-295 -110.5h-25q-146 0 -264 100q-24 21 -28 52.5t14 58.5l59 77q44 52 102 9q39 -31 115 -31h29q72 0 99.5 37t27.5 131v885v2q2 31 22.5 52t50.5 21h625v58q0 31 21.5 52t52.5 21h119q31 0 52 -21t21 -52v-598q0 -144 146 -144zM821 -135h156q23 0 37 -14t14 -35v-148
q0 -23 -15 -38t-36 -15h-156q-23 0 -38 16t-15 37v148q0 21 15 35t38 14zM1180 -135h155q23 0 37 -14t14 -35v-148q0 -23 -15 -38t-36 -15h-155q-20 0 -37 16.5t-17 36.5v148q0 20 15.5 34.5t38.5 14.5z" />
    <glyph glyph-name="uniFC94" unicode="&#xfef4;&#xfee6;" horiz-adv-x="2117" arabic-form="final" 
d="M2077 268h41q23 0 38 -16t15 -39v-158q0 -25 -15 -40t-38 -15h-37q-217 0 -317.5 103.5t-100.5 310.5v139h-414v-573q0 -207 -102 -312.5t-320 -105.5h-235q-220 0 -336 131q-117 132 -117 311q0 221 121 389q18 27 46.5 34t55.5 -11l89 -60q26 -17 32.5 -47.5
t-10.5 -56.5q-65 -109 -65 -215q0 -99 48.5 -153t135.5 -54h239q152 0 152 145v773q0 31 22.5 53t53.5 22h604v54q0 32 22.5 53.5t53.5 21.5h116q31 0 53.5 -21.5t22.5 -53.5v-465q0 -144 146 -144zM760 670h-160q-23 0 -40 16t-17 39v152q0 20 17 35.5t40 15.5h160
q23 0 37 -14t14 -37v-152q0 -24 -14 -39.5t-37 -15.5zM1430 -135h155q23 0 37 -14t14 -35v-148q0 -23 -15 -38t-36 -15h-155q-20 0 -37 16.5t-17 36.5v148q0 20 15.5 34.5t38.5 14.5zM1788 -135h156q23 0 37 -14t14 -35v-148q0 -23 -15 -38t-36 -15h-156q-23 0 -38 16
t-15 37v148q0 21 15 35t38 14z" />
    <glyph glyph-name="uniFCFB" unicode="&#xfeb3;&#xfef0;" horiz-adv-x="3123" arabic-form="isolated" 
d="M2763 956h116q31 0 53.5 -22t22.5 -53v-494q0 -207 -100 -316.5t-281 -109.5q-185 0 -295 96q-104 -96 -266 -96q-450 0 -450 426v297h-164q-150 0 -150 -154v-555q0 -207 -102 -312t-320 -105h-235q-220 0 -336 131q-117 132 -117 311q0 221 121 389q18 27 46.5 34
t55.5 -11l89 -60q26 -17 32.5 -47t-10.5 -55q-48 -83 -60.5 -164t7 -139t65 -91.5t107.5 -29.5h239q152 0 152 145v557q0 212 99.5 318t316.5 106h356q31 0 53.5 -22t22.5 -53v-490q0 -154 143 -154q152 0 152 154v361q0 31 22 53t54 22h116q31 0 52.5 -22t21.5 -53v-361
q0 -154 143 -154q152 0 152 154v494q0 31 22.5 53t53.5 22z" />
    <glyph glyph-name="uniFCFC" unicode="&#xfeb3;&#xfef2;" horiz-adv-x="3123" arabic-form="isolated" 
d="M2763 956h116q31 0 53.5 -22t22.5 -53v-494q0 -207 -100 -316.5t-281 -109.5q-185 0 -295 96q-104 -96 -266 -96q-450 0 -450 426v297h-164q-150 0 -150 -154v-555q0 -207 -102 -312t-320 -105h-235q-220 0 -336 131q-117 132 -117 311q0 221 121 389q18 27 46.5 34
t55.5 -11l89 -60q26 -17 32.5 -47t-10.5 -55q-48 -83 -60.5 -164t7 -139t65 -91.5t107.5 -29.5h239q152 0 152 145v557q0 212 99.5 318t316.5 106h356q31 0 53.5 -22t22.5 -53v-490q0 -154 143 -154q152 0 152 154v361q0 31 22 53t54 22h116q31 0 52.5 -22t21.5 -53v-361
q0 -154 143 -154q152 0 152 154v494q0 31 22.5 53t53.5 22zM440 -578h156q23 0 37 -14t14 -35v-147q0 -23 -15 -38t-36 -15h-156q-23 0 -38 16t-15 37v147q0 21 15 35t38 14zM799 -578h155q23 0 37.5 -14t14.5 -35v-147q0 -23 -15.5 -38t-36.5 -15h-155q-20 0 -37 16.5
t-17 36.5v147q0 20 15.5 34.5t38.5 14.5z" />
    <glyph glyph-name="uniFCFD" unicode="&#xfeb7;&#xfef0;" horiz-adv-x="3123" arabic-form="isolated" 
d="M2339 1264h-144q-19 0 -33 11t-14 28v122q0 18 14 30.5t33 12.5h144q19 0 31 -12t12 -31v-122q0 -39 -43 -39zM2167 956h-156q-23 0 -38 14.5t-15 35.5v147q0 23 16 38t37 15h156q21 0 36 -15t15 -38v-147q0 -20 -15.5 -35t-35.5 -15zM2316 1006v147q0 23 15.5 38
t38.5 15h155q21 0 36 -15t15 -38v-147q0 -20 -15.5 -35t-35.5 -15h-155q-23 0 -38.5 14.5t-15.5 35.5zM2763 956h116q31 0 53.5 -22t22.5 -53v-494q0 -207 -100 -316.5t-281 -109.5q-185 0 -295 96q-104 -96 -266 -96q-450 0 -450 426v297h-164q-150 0 -150 -154v-555
q0 -207 -102 -312t-320 -105h-235q-220 0 -336 131q-117 132 -117 311q0 221 121 389q18 27 46.5 34t55.5 -11l89 -60q26 -17 32.5 -47t-10.5 -55q-48 -83 -60.5 -164t7 -139t65 -91.5t107.5 -29.5h239q152 0 152 145v557q0 212 99.5 318t316.5 106h356q31 0 53.5 -22
t22.5 -53v-490q0 -154 143 -154q152 0 152 154v361q0 31 22 53t54 22h116q31 0 52.5 -22t21.5 -53v-361q0 -154 143 -154q152 0 152 154v494q0 31 22.5 53t53.5 22z" />
    <glyph glyph-name="uniFCFE" unicode="&#xfeb7;&#xfef2;" horiz-adv-x="3123" arabic-form="isolated" 
d="M2339 1264h-144q-19 0 -33 11t-14 28v122q0 18 14 30.5t33 12.5h144q19 0 31 -12t12 -31v-122q0 -39 -43 -39zM2167 956h-156q-23 0 -38 14.5t-15 35.5v147q0 23 16 38t37 15h156q21 0 36 -15t15 -38v-147q0 -20 -15.5 -35t-35.5 -15zM2316 1006v147q0 23 15.5 38
t38.5 15h155q21 0 36 -15t15 -38v-147q0 -20 -15.5 -35t-35.5 -15h-155q-23 0 -38.5 14.5t-15.5 35.5zM2763 956h116q31 0 53.5 -22t22.5 -53v-494q0 -207 -100 -316.5t-281 -109.5q-185 0 -295 96q-104 -96 -266 -96q-450 0 -450 426v297h-164q-150 0 -150 -154v-555
q0 -207 -102 -312t-320 -105h-235q-220 0 -336 131q-117 132 -117 311q0 221 121 389q18 27 46.5 34t55.5 -11l89 -60q26 -17 32.5 -47t-10.5 -55q-48 -83 -60.5 -164t7 -139t65 -91.5t107.5 -29.5h239q152 0 152 145v557q0 212 99.5 318t316.5 106h356q31 0 53.5 -22
t22.5 -53v-490q0 -154 143 -154q152 0 152 154v361q0 31 22 53t54 22h116q31 0 52.5 -22t21.5 -53v-361q0 -154 143 -154q152 0 152 154v494q0 31 22.5 53t53.5 22zM440 -578h156q23 0 37 -14t14 -35v-147q0 -23 -15 -38t-36 -15h-156q-23 0 -38 16t-15 37v147q0 21 15 35
t38 14zM799 -578h155q23 0 37.5 -14t14.5 -35v-147q0 -23 -15.5 -38t-36.5 -15h-155q-20 0 -37 16.5t-17 36.5v147q0 20 15.5 34.5t38.5 14.5z" />
    <glyph glyph-name="uniFD05" unicode="&#xfebb;&#xfef0;" horiz-adv-x="3059" arabic-form="isolated" 
d="M2228 971h279q187 0 293 -107.5t106 -292.5v-170q0 -401 -399 -401h-496q-221 0 -335.5 108.5t-114.5 317.5v258h-162q-150 0 -150 -154v-555q0 -207 -102 -312t-320 -105h-235q-220 0 -336 131q-117 132 -117 311q0 221 121 389q18 27 46.5 34t55.5 -11l89 -60
q26 -17 32.5 -47t-10.5 -55q-48 -83 -60.5 -164t7 -139t65 -91.5t107.5 -29.5h239q152 0 152 145v557q0 212 99.5 318t316.5 106h313q32 0 54 -22t22 -53v-107q117 106 223 158q93 43 217 43zM2640 399v174q0 56 -36.5 91.5t-92.5 35.5h-313q-97 0 -168 -31.5t-154 -107.5
l-47 -43v-92q0 -158 143 -158h539q129 0 129 131z" />
    <glyph glyph-name="uniFD06" unicode="&#xfebb;&#xfef2;" horiz-adv-x="3059" arabic-form="isolated" 
d="M2228 971h279q187 0 293 -107.5t106 -292.5v-170q0 -401 -399 -401h-496q-221 0 -335.5 108.5t-114.5 317.5v258h-162q-150 0 -150 -154v-555q0 -207 -102 -312t-320 -105h-235q-220 0 -336 131q-117 132 -117 311q0 221 121 389q18 27 46.5 34t55.5 -11l89 -60
q26 -17 32.5 -47t-10.5 -55q-48 -83 -60.5 -164t7 -139t65 -91.5t107.5 -29.5h239q152 0 152 145v557q0 212 99.5 318t316.5 106h313q32 0 54 -22t22 -53v-107q117 106 223 158q93 43 217 43zM2640 399v174q0 56 -36.5 91.5t-92.5 35.5h-313q-97 0 -168 -31.5t-154 -107.5
l-47 -43v-92q0 -158 143 -158h539q129 0 129 131zM438 -578h156q23 0 37 -14t14 -35v-147q0 -23 -15 -38t-36 -15h-156q-20 0 -36.5 16.5t-16.5 36.5v147q0 21 15 35t38 14zM797 -578h155q23 0 37.5 -14t14.5 -35v-147q0 -23 -15.5 -38t-36.5 -15h-155q-23 0 -38.5 16
t-15.5 37v147q0 20 15.5 34.5t38.5 14.5z" />
    <glyph glyph-name="uniFD07" unicode="&#xfebf;&#xfef0;" horiz-adv-x="3059" arabic-form="isolated" 
d="M2433 1104h-160q-23 0 -40 16t-17 39v152q0 20 17 35.5t40 15.5h160q23 0 37 -14t14 -37v-152q0 -24 -14 -39.5t-37 -15.5zM2228 971h279q187 0 293 -107.5t106 -292.5v-170q0 -401 -399 -401h-496q-221 0 -335.5 108.5t-114.5 317.5v258h-162q-150 0 -150 -154v-555
q0 -207 -102 -312t-320 -105h-235q-220 0 -336 131q-117 132 -117 311q0 221 121 389q18 27 46.5 34t55.5 -11l89 -60q26 -17 32.5 -47t-10.5 -55q-48 -83 -60.5 -164t7 -139t65 -91.5t107.5 -29.5h239q152 0 152 145v557q0 212 99.5 318t316.5 106h313q32 0 54 -22t22 -53
v-107q117 106 223 158q93 43 217 43zM2640 399v174q0 56 -36.5 91.5t-92.5 35.5h-313q-97 0 -168 -31.5t-154 -107.5l-47 -43v-92q0 -158 143 -158h539q129 0 129 131z" />
    <glyph glyph-name="uniFD08" unicode="&#xfebf;&#xfef2;" horiz-adv-x="3059" arabic-form="isolated" 
d="M2433 1104h-160q-23 0 -40 16t-17 39v152q0 20 17 35.5t40 15.5h160q23 0 37 -14t14 -37v-152q0 -24 -14 -39.5t-37 -15.5zM2228 971h279q187 0 293 -107.5t106 -292.5v-170q0 -401 -399 -401h-496q-221 0 -335.5 108.5t-114.5 317.5v258h-162q-150 0 -150 -154v-555
q0 -207 -102 -312t-320 -105h-235q-220 0 -336 131q-117 132 -117 311q0 221 121 389q18 27 46.5 34t55.5 -11l89 -60q26 -17 32.5 -47t-10.5 -55q-48 -83 -60.5 -164t7 -139t65 -91.5t107.5 -29.5h239q152 0 152 145v557q0 212 99.5 318t316.5 106h313q32 0 54 -22t22 -53
v-107q117 106 223 158q93 43 217 43zM2640 399v174q0 56 -36.5 91.5t-92.5 35.5h-313q-97 0 -168 -31.5t-154 -107.5l-47 -43v-92q0 -158 143 -158h539q129 0 129 131zM438 -578h156q23 0 37 -14t14 -35v-147q0 -23 -15 -38t-36 -15h-156q-20 0 -36.5 16.5t-16.5 36.5v147
q0 21 15 35t38 14zM797 -578h155q23 0 37.5 -14t14.5 -35v-147q0 -23 -15.5 -38t-36.5 -15h-155q-23 0 -38.5 16t-15.5 37v147q0 20 15.5 34.5t38.5 14.5z" />
    <glyph glyph-name="uniFD0D" unicode="&#xfeb7;&#xfeae;" horiz-adv-x="2531" arabic-form="isolated" 
d="M1741 1264h-144q-19 0 -33 11t-14 28v122q0 18 14 30.5t33 12.5h144q19 0 31 -12t12 -31v-122q0 -39 -43 -39zM1569 956h-156q-23 0 -38 14.5t-15 35.5v147q0 23 16 38t37 15h156q21 0 36 -15t15 -38v-147q0 -20 -15.5 -35t-35.5 -15zM1718 1006v147q0 23 15.5 38
t38.5 15h155q21 0 36 -15t15 -38v-147q0 -20 -15.5 -35t-35.5 -15h-155q-23 0 -38.5 14.5t-15.5 35.5zM2171 956h117q31 0 53 -22t22 -53v-494q0 -207 -99 -316.5t-279 -109.5q-185 0 -295 96q-104 -96 -269 -96q-221 0 -334.5 107.5t-113.5 318.5v166h-334v-559
q0 -215 -100 -325.5t-295 -110.5h-25q-146 0 -264 100q-24 21 -28 52.5t14 58.5l59 77q44 52 102 9q39 -31 115 -31h29q72 0 99.5 37t27.5 131v885q0 31 21 53t52 22h119q31 0 52.5 -22t21.5 -53v-54h526q31 0 52.5 -22t21.5 -53v-361q0 -154 143 -154q152 0 152 154v361
q0 31 22.5 53t53.5 22h116q31 0 53.5 -22t22.5 -53v-361q0 -154 144 -154q151 0 151 154v494q0 31 21.5 53t52.5 22z" />
    <glyph glyph-name="uniFD0E" unicode="&#xfeb3;&#xfeae;" horiz-adv-x="2531" arabic-form="isolated" 
d="M2171 956h117q31 0 53 -22t22 -53v-494q0 -207 -99 -316.5t-279 -109.5q-185 0 -295 96q-104 -96 -269 -96q-221 0 -334.5 107.5t-113.5 318.5v166h-334v-559q0 -215 -100 -325.5t-295 -110.5h-25q-146 0 -264 100q-24 21 -28 52.5t14 58.5l59 77q44 52 102 9
q39 -31 115 -31h29q72 0 99.5 37t27.5 131v885q0 31 21 53t52 22h119q31 0 52.5 -22t21.5 -53v-54h526q31 0 52.5 -22t21.5 -53v-361q0 -154 143 -154q152 0 152 154v361q0 31 22.5 53t53.5 22h116q31 0 53.5 -22t22.5 -53v-361q0 -154 144 -154q151 0 151 154v494
q0 31 21.5 53t52.5 22z" />
    <glyph glyph-name="uniFD17" unicode="&#xfeb4;&#xfef0;" horiz-adv-x="3137" arabic-form="final" 
d="M3138 268q23 0 38 -16t15 -39v-158q0 -25 -15 -40t-38 -15q-176 0 -265 92q-98 -131 -299 -131q-185 0 -295 96q-104 -96 -266 -96q-450 0 -450 426v297h-164q-150 0 -150 -154v-555q0 -207 -102 -312t-320 -105h-235q-220 0 -336 131q-117 132 -117 311q0 221 121 389
q18 27 46.5 34t55.5 -11l89 -60q26 -17 32.5 -47t-10.5 -55q-48 -83 -60.5 -164t7 -139t65 -91.5t107.5 -29.5h239q152 0 152 145v557q0 212 99.5 318t316.5 106h356q31 0 53.5 -22t22.5 -53v-490q0 -154 143 -154q152 0 152 154v361q0 31 22 53t54 22h116q31 0 52.5 -22
t21.5 -53v-361q0 -154 143 -154q152 0 152 154v494q0 31 22.5 53t53.5 22h116q31 0 53.5 -22t22.5 -53v-473q18 -140 183 -140z" />
    <glyph glyph-name="uniFD18" unicode="&#xfeb4;&#xfef2;" horiz-adv-x="3137" arabic-form="final" 
d="M3138 268q23 0 38 -16t15 -39v-158q0 -25 -15 -40t-38 -15q-176 0 -265 92q-98 -131 -299 -131q-185 0 -295 96q-104 -96 -266 -96q-450 0 -450 426v297h-164q-150 0 -150 -154v-555q0 -207 -102 -312t-320 -105h-235q-220 0 -336 131q-117 132 -117 311q0 221 121 389
q18 27 46.5 34t55.5 -11l89 -60q26 -17 32.5 -47t-10.5 -55q-48 -83 -60.5 -164t7 -139t65 -91.5t107.5 -29.5h239q152 0 152 145v557q0 212 99.5 318t316.5 106h356q31 0 53.5 -22t22.5 -53v-490q0 -154 143 -154q152 0 152 154v361q0 31 22 53t54 22h116q31 0 52.5 -22
t21.5 -53v-361q0 -154 143 -154q152 0 152 154v494q0 31 22.5 53t53.5 22h116q31 0 53.5 -22t22.5 -53v-473q18 -140 183 -140zM438 -578h156q23 0 37 -14t14 -35v-147q0 -23 -15 -38t-36 -15h-156q-20 0 -36.5 16.5t-16.5 36.5v147q0 21 15 35t38 14zM797 -578h155
q23 0 37.5 -14t14.5 -35v-147q0 -23 -15.5 -38t-36.5 -15h-155q-23 0 -38.5 16t-15.5 37v147q0 20 15.5 34.5t38.5 14.5z" />
    <glyph glyph-name="uniFD19" unicode="&#xfeb8;&#xfef0;" horiz-adv-x="3137" arabic-form="final" 
d="M2339 1264h-144q-19 0 -33 11t-14 28v122q0 18 14 30.5t33 12.5h144q19 0 31 -12t12 -31v-122q0 -39 -43 -39zM2167 956h-156q-23 0 -38 14.5t-15 35.5v147q0 23 16 38t37 15h156q21 0 36 -15t15 -38v-147q0 -20 -15.5 -35t-35.5 -15zM2316 1006v147q0 23 15.5 38
t38.5 15h155q21 0 36 -15t15 -38v-147q0 -20 -15.5 -35t-35.5 -15h-155q-23 0 -38.5 14.5t-15.5 35.5zM3138 268q23 0 38 -16t15 -39v-158q0 -25 -15 -40t-38 -15q-176 0 -265 92q-98 -131 -299 -131q-185 0 -295 96q-104 -96 -266 -96q-450 0 -450 426v297h-164
q-150 0 -150 -154v-555q0 -207 -102 -312t-320 -105h-235q-220 0 -336 131q-117 132 -117 311q0 221 121 389q18 27 46.5 34t55.5 -11l89 -60q26 -17 32.5 -47t-10.5 -55q-48 -83 -60.5 -164t7 -139t65 -91.5t107.5 -29.5h239q152 0 152 145v557q0 212 99.5 318t316.5 106
h356q31 0 53.5 -22t22.5 -53v-490q0 -154 143 -154q152 0 152 154v361q0 31 22 53t54 22h116q31 0 52.5 -22t21.5 -53v-361q0 -154 143 -154q152 0 152 154v494q0 31 22.5 53t53.5 22h116q31 0 53.5 -22t22.5 -53v-473q18 -140 183 -140z" />
    <glyph glyph-name="uniFD1A" unicode="&#xfeb8;&#xfef2;" horiz-adv-x="3137" arabic-form="final" 
d="M2339 1264h-144q-19 0 -33 11t-14 28v122q0 18 14 30.5t33 12.5h144q19 0 31 -12t12 -31v-122q0 -39 -43 -39zM2167 956h-156q-23 0 -38 14.5t-15 35.5v147q0 23 16 38t37 15h156q21 0 36 -15t15 -38v-147q0 -20 -15.5 -35t-35.5 -15zM2316 1006v147q0 23 15.5 38
t38.5 15h155q21 0 36 -15t15 -38v-147q0 -20 -15.5 -35t-35.5 -15h-155q-23 0 -38.5 14.5t-15.5 35.5zM3138 268q23 0 38 -16t15 -39v-158q0 -25 -15 -40t-38 -15q-176 0 -265 92q-98 -131 -299 -131q-185 0 -295 96q-104 -96 -266 -96q-450 0 -450 426v297h-164
q-150 0 -150 -154v-555q0 -207 -102 -312t-320 -105h-235q-220 0 -336 131q-117 132 -117 311q0 221 121 389q18 27 46.5 34t55.5 -11l89 -60q26 -17 32.5 -47t-10.5 -55q-48 -83 -60.5 -164t7 -139t65 -91.5t107.5 -29.5h239q152 0 152 145v557q0 212 99.5 318t316.5 106
h356q31 0 53.5 -22t22.5 -53v-490q0 -154 143 -154q152 0 152 154v361q0 31 22 53t54 22h116q31 0 52.5 -22t21.5 -53v-361q0 -154 143 -154q152 0 152 154v494q0 31 22.5 53t53.5 22h116q31 0 53.5 -22t22.5 -53v-473q18 -140 183 -140zM438 -578h156q23 0 37 -14t14 -35
v-147q0 -23 -15 -38t-36 -15h-156q-20 0 -36.5 16.5t-16.5 36.5v147q0 21 15 35t38 14zM797 -578h155q23 0 37.5 -14t14.5 -35v-147q0 -23 -15.5 -38t-36.5 -15h-155q-23 0 -38.5 16t-15.5 37v147q0 20 15.5 34.5t38.5 14.5z" />
    <glyph glyph-name="uniFD21" unicode="&#xfebc;&#xfef0;" horiz-adv-x="3088" arabic-form="final" 
d="M3088 268q23 0 38.5 -16t15.5 -39v-158q0 -25 -15 -40t-39 -15q-190 0 -274 106q-100 -106 -307 -106h-496q-221 0 -335.5 108.5t-114.5 317.5v258h-162q-150 0 -150 -154v-555q0 -207 -102 -312t-320 -105h-235q-220 0 -336 131q-117 132 -117 311q0 221 121 389
q18 27 46.5 34t55.5 -11l89 -60q26 -17 32.5 -47t-10.5 -55q-48 -83 -60.5 -164t7 -139t65 -91.5t107.5 -29.5h239q152 0 152 145v557q0 212 99.5 318t316.5 106h313q32 0 54 -22t22 -53v-107q117 106 223 158q93 43 217 43h279q187 0 293 -107.5t106 -292.5v-163
q18 -140 182 -140zM2640 399v174q0 56 -36.5 91.5t-92.5 35.5h-313q-97 0 -168 -31.5t-154 -107.5l-47 -43v-92q0 -158 143 -158h539q129 0 129 131z" />
    <glyph glyph-name="uniFD22" unicode="&#xfebc;&#xfef2;" horiz-adv-x="3088" arabic-form="final" 
d="M3088 268q23 0 38.5 -16t15.5 -39v-158q0 -25 -15 -40t-39 -15q-190 0 -274 106q-100 -106 -307 -106h-496q-221 0 -335.5 108.5t-114.5 317.5v258h-162q-150 0 -150 -154v-555q0 -207 -102 -312t-320 -105h-235q-220 0 -336 131q-117 132 -117 311q0 221 121 389
q18 27 46.5 34t55.5 -11l89 -60q26 -17 32.5 -47t-10.5 -55q-48 -83 -60.5 -164t7 -139t65 -91.5t107.5 -29.5h239q152 0 152 145v557q0 212 99.5 318t316.5 106h313q32 0 54 -22t22 -53v-107q117 106 223 158q93 43 217 43h279q187 0 293 -107.5t106 -292.5v-163
q18 -140 182 -140zM2640 399v174q0 56 -36.5 91.5t-92.5 35.5h-313q-97 0 -168 -31.5t-154 -107.5l-47 -43v-92q0 -158 143 -158h539q129 0 129 131zM438 -578h156q23 0 37 -14t14 -35v-147q0 -23 -15 -38t-36 -15h-156q-20 0 -36.5 16.5t-16.5 36.5v147q0 21 15 35t38 14z
M797 -578h155q23 0 37.5 -14t14.5 -35v-147q0 -23 -15.5 -38t-36.5 -15h-155q-23 0 -38.5 16t-15.5 37v147q0 20 15.5 34.5t38.5 14.5z" />
    <glyph glyph-name="uniFD23" unicode="&#xfec0;&#xfef0;" horiz-adv-x="3088" arabic-form="final" 
d="M2433 1104h-160q-23 0 -40 16t-17 39v152q0 20 17 35.5t40 15.5h160q23 0 37 -14t14 -37v-152q0 -24 -14 -39.5t-37 -15.5zM3088 268q23 0 38.5 -16t15.5 -39v-158q0 -25 -15 -40t-39 -15q-190 0 -274 106q-100 -106 -307 -106h-496q-221 0 -335.5 108.5t-114.5 317.5
v258h-162q-150 0 -150 -154v-555q0 -207 -102 -312t-320 -105h-235q-220 0 -336 131q-117 132 -117 311q0 221 121 389q18 27 46.5 34t55.5 -11l89 -60q26 -17 32.5 -47t-10.5 -55q-48 -83 -60.5 -164t7 -139t65 -91.5t107.5 -29.5h239q152 0 152 145v557q0 212 99.5 318
t316.5 106h313q32 0 54 -22t22 -53v-107q117 106 223 158q93 43 217 43h279q187 0 293 -107.5t106 -292.5v-163q18 -140 182 -140zM2640 399v174q0 56 -36.5 91.5t-92.5 35.5h-313q-97 0 -168 -31.5t-154 -107.5l-47 -43v-92q0 -158 143 -158h539q129 0 129 131z" />
    <glyph glyph-name="uniFD24" unicode="&#xfec0;&#xfef2;" horiz-adv-x="3088" arabic-form="final" 
d="M2433 1104h-160q-23 0 -40 16t-17 39v152q0 20 17 35.5t40 15.5h160q23 0 37 -14t14 -37v-152q0 -24 -14 -39.5t-37 -15.5zM3088 268q23 0 38.5 -16t15.5 -39v-158q0 -25 -15 -40t-39 -15q-190 0 -274 106q-100 -106 -307 -106h-496q-221 0 -335.5 108.5t-114.5 317.5
v258h-162q-150 0 -150 -154v-555q0 -207 -102 -312t-320 -105h-235q-220 0 -336 131q-117 132 -117 311q0 221 121 389q18 27 46.5 34t55.5 -11l89 -60q26 -17 32.5 -47t-10.5 -55q-48 -83 -60.5 -164t7 -139t65 -91.5t107.5 -29.5h239q152 0 152 145v557q0 212 99.5 318
t316.5 106h313q32 0 54 -22t22 -53v-107q117 106 223 158q93 43 217 43h279q187 0 293 -107.5t106 -292.5v-163q18 -140 182 -140zM2640 399v174q0 56 -36.5 91.5t-92.5 35.5h-313q-97 0 -168 -31.5t-154 -107.5l-47 -43v-92q0 -158 143 -158h539q129 0 129 131zM438 -578
h156q23 0 37 -14t14 -35v-147q0 -23 -15 -38t-36 -15h-156q-20 0 -36.5 16.5t-16.5 36.5v147q0 21 15 35t38 14zM797 -578h155q23 0 37.5 -14t14.5 -35v-147q0 -23 -15.5 -38t-36.5 -15h-155q-23 0 -38.5 16t-15.5 37v147q0 20 15.5 34.5t38.5 14.5z" />
    <glyph glyph-name="uniFD29" unicode="&#xfeb8;&#xfeae;" horiz-adv-x="2545" arabic-form="final" 
d="M1741 1264h-144q-19 0 -33 11t-14 28v122q0 18 14 30.5t33 12.5h144q19 0 31 -12t12 -31v-122q0 -39 -43 -39zM1569 956h-156q-23 0 -38 14.5t-15 35.5v147q0 23 16 38t37 15h156q21 0 36 -15t15 -38v-147q0 -20 -15.5 -35t-35.5 -15zM1718 1006v147q0 23 15.5 38
t38.5 15h155q21 0 36 -15t15 -38v-147q0 -20 -15.5 -35t-35.5 -15h-155q-23 0 -38.5 14.5t-15.5 35.5zM2546 268q23 0 38 -16t15 -39v-158q0 -25 -15 -40t-38 -15q-176 0 -265 92q-98 -131 -296 -131q-185 0 -295 96q-104 -96 -269 -96q-221 0 -334.5 107.5t-113.5 318.5
v166h-334v-559q0 -215 -100 -325.5t-295 -110.5h-25q-146 0 -264 100q-24 21 -28 52.5t14 58.5l59 77q44 52 102 9q39 -31 115 -31h29q72 0 99.5 37t27.5 131v885q0 31 21 53t52 22h119q31 0 52.5 -22t21.5 -53v-54h526q31 0 52.5 -22t21.5 -53v-361q0 -154 143 -154
q152 0 152 154v361q0 31 22.5 53t53.5 22h116q31 0 53.5 -22t22.5 -53v-361q0 -154 144 -154q151 0 151 154v494q0 31 21.5 53t52.5 22h117q31 0 53 -22t22 -53v-473q18 -140 183 -140z" />
    <glyph glyph-name="uniFD2A" unicode="&#xfeb4;&#xfeae;" horiz-adv-x="2545" arabic-form="final" 
d="M2546 268q23 0 38 -16t15 -39v-158q0 -25 -15 -40t-38 -15q-176 0 -265 92q-98 -131 -296 -131q-185 0 -295 96q-104 -96 -269 -96q-221 0 -334.5 107.5t-113.5 318.5v166h-334v-559q0 -215 -100 -325.5t-295 -110.5h-25q-146 0 -264 100q-24 21 -28 52.5t14 58.5l59 77
q44 52 102 9q39 -31 115 -31h29q72 0 99.5 37t27.5 131v885q0 31 21 53t52 22h119q31 0 52.5 -22t21.5 -53v-54h526q31 0 52.5 -22t21.5 -53v-361q0 -154 143 -154q152 0 152 154v361q0 31 22.5 53t53.5 22h116q31 0 53.5 -22t22.5 -53v-361q0 -154 144 -154q151 0 151 154
v494q0 31 21.5 53t52.5 22h117q31 0 53 -22t22 -53v-473q18 -140 183 -140z" />
    <glyph glyph-name="uniFEF5" unicode="&#xfedf;&#xfe82;" horiz-adv-x="1505" arabic-form="isolated" 
d="M698 1294q-53 0 -141 49q-65 35 -84 35q-35 0 -35 -39q0 -45 -41 -45h-65q-19 0 -31 11.5t-12 33.5q0 81 49.5 134t124.5 53q59 0 139 -51q53 -35 90 -35q29 0 29 43q0 19 11.5 31t33.5 12h65q14 0 27.5 -13t13.5 -30q0 -85 -48 -137t-126 -52zM920 0h-783q-55 0 -55 76
v119q0 73 55 73h361v633h-49q-31 0 -53.5 22.5t-22.5 53.5v119q0 31 22.5 53t53.5 22h241q31 0 53.5 -22t22.5 -53v-828h158q145 0 145 144v1032q0 31 22.5 52.5t53.5 21.5h117q31 0 53 -21.5t22 -52.5v-1030q0 -207 -100 -310.5t-317 -103.5z" />
    <glyph glyph-name="uniFEF6" unicode="&#xfee0;&#xfe82;" horiz-adv-x="1519" arabic-form="final" 
d="M399 1294h-65q-19 0 -31 11.5t-12 33.5q0 81 49.5 134t124.5 53q59 0 139 -51q53 -35 90 -35q29 0 29 43q0 19 11.5 31t33.5 12h66q14 0 27 -13t13 -30q0 -85 -48 -137t-126 -52q-53 0 -141 49q-65 35 -84 35q-35 0 -35 -39q0 -45 -41 -45zM1520 268q23 0 38 -16t15 -39
v-158q0 -25 -15 -40t-38 -15q-194 0 -277 109q-106 -109 -323 -109h-783q-55 0 -55 76v119q0 73 55 73h361v633h-49q-31 0 -53.5 22.5t-22.5 53.5v119q0 31 22.5 53t53.5 22h241q31 0 53.5 -22t22.5 -53v-828h158q145 0 145 144v1032q0 31 22.5 52.5t53.5 21.5h117
q31 0 53 -21.5t22 -52.5v-1030v-6q18 -140 183 -140z" />
    <glyph glyph-name="uniFEF7" unicode="&#xfedf;&#xfe84;" horiz-adv-x="1505" arabic-form="isolated" 
d="M776 1294h-391q-19 0 -31 12t-12 31v68q0 18 12.5 31.5t30.5 13.5h39q-10 33 -10 57v52q0 90 61 150t152 60h20q88 0 154 -63q35 -31 2 -64l-41 -43q-35 -35 -70 -4q-19 19 -45 19h-20q-25 0 -41.5 -16t-16.5 -39v-41q0 -30 16 -49t42 -19h149q18 0 31.5 -15t13.5 -30
v-68q0 -19 -13 -31t-32 -12zM1145 1518h117q31 0 53 -21.5t22 -52.5v-1030q0 -207 -100 -310.5t-317 -103.5h-783q-55 0 -55 76v119q0 73 55 73h361v633h-49q-31 0 -53.5 22.5t-22.5 53.5v119q0 31 22.5 53t53.5 22h241q31 0 53.5 -22t22.5 -53v-828h158q145 0 145 144v1032
q0 31 22.5 52.5t53.5 21.5z" />
    <glyph glyph-name="uniFEF8" unicode="&#xfee0;&#xfe84;" horiz-adv-x="1519" arabic-form="final" 
d="M778 1294h-391q-19 0 -31 12t-12 31v68q0 18 12.5 31.5t30.5 13.5h39q-10 33 -10 57v52q0 90 61 150t152 60h20q88 0 154 -63q35 -31 2 -64l-41 -43q-35 -35 -70 -4q-19 19 -45 19h-20q-25 0 -41.5 -16t-16.5 -39v-41q0 -30 16 -49t42 -19h149q18 0 31.5 -15t13.5 -30
v-68q0 -19 -12.5 -31t-32.5 -12zM1520 268q23 0 38 -16t15 -39v-158q0 -25 -15 -40t-38 -15q-194 0 -277 109q-106 -109 -323 -109h-783q-55 0 -55 76v119q0 73 55 73h361v633h-49q-31 0 -53.5 22.5t-22.5 53.5v119q0 31 22.5 53t53.5 22h241q31 0 53.5 -22t22.5 -53v-828
h158q145 0 145 144v1032q0 31 22.5 52.5t53.5 21.5h117q31 0 53 -21.5t22 -52.5v-1030v-6q18 -140 183 -140z" />
    <glyph glyph-name="uniFEF9" unicode="&#xfedf;&#xfe88;" horiz-adv-x="1505" arabic-form="isolated" 
d="M1145 1518h117q31 0 53 -21.5t22 -52.5v-1030q0 -207 -100 -310.5t-317 -103.5h-783q-55 0 -55 76v119q0 73 55 73h361v633h-49q-31 0 -53.5 22.5t-22.5 53.5v119q0 31 22.5 53t53.5 22h241q31 0 53.5 -22t22.5 -53v-828h158q145 0 145 144v1032q0 31 22.5 52.5
t53.5 21.5zM678 -442h149q18 0 31.5 -15t13.5 -30v-68q0 -19 -12.5 -31t-32.5 -12h-391q-19 0 -31 12t-12 31v68q0 18 12.5 31.5t30.5 13.5h39q-10 33 -10 57v51q0 91 61 151t152 60h20q88 0 154 -63q35 -31 2 -64l-41 -43q-35 -35 -70 -4q-18 18 -45 18h-20q-25 0 -41 -16
t-16 -39v-41q0 -30 15.5 -48.5t41.5 -18.5z" />
    <glyph glyph-name="uniFEFA" unicode="&#xfee0;&#xfe88;" horiz-adv-x="1519" arabic-form="final" 
d="M1520 268q23 0 38 -16t15 -39v-158q0 -25 -15 -40t-38 -15q-194 0 -277 109q-106 -109 -323 -109h-783q-55 0 -55 76v119q0 73 55 73h361v633h-49q-31 0 -53.5 22.5t-22.5 53.5v119q0 31 22.5 53t53.5 22h241q31 0 53.5 -22t22.5 -53v-828h158q145 0 145 144v1032
q0 31 22.5 52.5t53.5 21.5h117q31 0 53 -21.5t22 -52.5v-1030v-6q18 -140 183 -140zM680 -442h149q18 0 31.5 -15t13.5 -30v-68q0 -19 -13 -31t-32 -12h-391q-19 0 -31 12t-12 31v68q0 18 12.5 31.5t30.5 13.5h39q-10 33 -10 57v51q0 91 61 151t152 60h20q88 0 154 -63
q35 -31 2 -64l-41 -43q-35 -35 -70 -4q-18 18 -45 18h-20q-25 0 -41 -16t-16 -39v-41q0 -30 15.5 -48.5t41.5 -18.5z" />
    <glyph glyph-name="uniFEFB" unicode="&#xfedf;&#xfe8e;" horiz-adv-x="1505" arabic-form="isolated" 
d="M920 0h-783q-55 0 -55 76v119q0 73 55 73h361v633h-49q-31 0 -53.5 22.5t-22.5 53.5v119q0 31 22.5 53t53.5 22h241q31 0 53.5 -22t22.5 -53v-828h158q145 0 145 144v1032q0 31 22.5 52.5t53.5 21.5h117q31 0 53 -21.5t22 -52.5v-1030q0 -207 -100 -310.5t-317 -103.5z
" />
    <glyph glyph-name="uniFEFC" unicode="&#xfee0;&#xfe8e;" horiz-adv-x="1519" arabic-form="final" 
d="M1520 268q23 0 38 -16t15 -39v-158q0 -25 -15 -40t-38 -15q-194 0 -277 109q-106 -109 -323 -109h-783q-55 0 -55 76v119q0 73 55 73h361v633h-49q-31 0 -53.5 22.5t-22.5 53.5v119q0 31 22.5 53t53.5 22h241q31 0 53.5 -22t22.5 -53v-828h158q145 0 145 144v1032
q0 31 22.5 52.5t53.5 21.5h117q31 0 53 -21.5t22 -52.5v-1030v-6q18 -140 183 -140z" />
    <glyph glyph-name="uniFEDFFB51" unicode="&#xfedf;&#xfb51;" horiz-adv-x="1505" 
d="M686 1294h-309q-18 0 -29.5 11.5t-11.5 29.5v43q0 18 11.5 30.5t29.5 12.5h49v35q0 78 38 121t107 43h115q62 0 100.5 -38t38.5 -101v-47q0 -57 -40 -98.5t-99 -41.5zM1145 1518h117q31 0 53 -21.5t22 -52.5v-1030q0 -207 -100 -310.5t-317 -103.5h-783q-55 0 -55 76v119
q0 73 55 73h361v633h-49q-31 0 -53.5 22.5t-22.5 53.5v119q0 31 22.5 53t53.5 22h241q31 0 53.5 -22t22.5 -53v-828h158q145 0 145 144v1032q0 31 22.5 52.5t53.5 21.5zM543 1456v-35h129q20 0 20 21v18q0 23 -24 23h-95q-30 0 -30 -27z" />
    <glyph glyph-name="uniFEE0FB51" unicode="&#xfee0;&#xfb51;" horiz-adv-x="1505" 
d="M686 1294h-309q-18 0 -29.5 11.5t-11.5 29.5v43q0 18 11.5 30.5t29.5 12.5h49v35q0 78 38 121t107 43h115q62 0 100.5 -38t38.5 -101v-47q0 -57 -40 -98.5t-99 -41.5zM1145 1518h117q31 0 53 -21.5t22 -52.5v-1030q0 -207 -100 -310.5t-317 -103.5h-783q-55 0 -55 76v119
q0 73 55 73h361v633h-49q-31 0 -53.5 22.5t-22.5 53.5v119q0 31 22.5 53t53.5 22h241q31 0 53.5 -22t22.5 -53v-828h158q145 0 145 144v1032q0 31 22.5 52.5t53.5 21.5zM543 1456v-35h129q20 0 20 21v18q0 23 -24 23h-95q-30 0 -30 -27z" />
    <glyph glyph-name="uniFE92FE8A" unicode="&#xfe92;&#xfe8a;" horiz-adv-x="2166" 
d="M821 778h-391q-19 0 -31 12t-12 31v68q0 18 12.5 31.5t30.5 13.5h39q-10 33 -10 57v51q0 91 61 151t152 60h20q88 0 154 -63q35 -31 2 -64l-41 -43q-35 -35 -70 -4q-19 19 -45 19h-20q-25 0 -41.5 -16.5t-16.5 -39.5v-41q0 -30 16 -48.5t42 -18.5h149q18 0 31.5 -15
t13.5 -30v-68q0 -19 -13 -31t-32 -12zM2126 268h41q23 0 39 -16t16 -39v-158q0 -24 -15.5 -39.5t-39.5 -15.5h-37q-217 0 -316.5 103.5t-99.5 310.5v270h-315q-150 0 -150 -154v-555q0 -207 -102 -312t-320 -105h-235q-220 0 -336 131q-117 132 -117 311q0 221 121 389
q18 27 46.5 34t55.5 -11l89 -60q26 -17 32.5 -47t-10.5 -55q-48 -83 -60.5 -164t7 -139t65 -91.5t107.5 -29.5h239q152 0 152 145v557q0 212 99.5 318t316.5 106h315v58q0 31 21.5 52t52.5 21h119q31 0 52 -21t21 -52v-598q0 -144 146 -144zM1516 -135h159q24 0 39 -14
t15 -37v-150q0 -24 -15.5 -40.5t-38.5 -16.5h-159q-23 0 -39.5 17t-16.5 40v150q0 23 16 37t40 14z" />
    <glyph glyph-name="uniFB59FEAE" unicode="&#xfb59;&#xfeae;" horiz-adv-x="1523" 
d="M1483 268h41q23 0 39 -16t16 -39v-158q0 -24 -15.5 -39.5t-39.5 -15.5h-37q-217 0 -316.5 103.5t-99.5 310.5v270h-432v-690q0 -215 -100 -325.5t-295 -110.5h-25q-146 0 -264 100q-24 21 -28 52.5t14 58.5l59 77q44 52 102 9q39 -31 115 -31h29q72 0 99.5 37t27.5 131
v885v2q2 31 22.5 52t50.5 21h625v58q0 31 21.5 52t52.5 21h119q31 0 52 -21t21 -52v-598q0 -144 146 -144zM1028 -184v-148q0 -23 -15 -38t-36 -15h-156q-23 0 -38 16t-15 37v148q0 21 15 35t38 14h156q23 0 37 -14t14 -35zM1180 -135h155q23 0 37 -14t14 -35v-148
q0 -23 -15 -38t-36 -15h-155q-20 0 -37 16.5t-17 36.5v148q0 20 15.5 34.5t38.5 14.5zM1006 -442h143q43 0 43 -39v-121q0 -20 -12 -32.5t-31 -12.5h-143q-21 0 -34.5 12.5t-13.5 32.5v121q0 17 14 28t34 11z" />
    <glyph glyph-name="uniFB59FEB0" unicode="&#xfb59;&#xfeb0;" horiz-adv-x="1523" 
d="M592 1087h-160q-23 0 -40 16.5t-17 39.5v151q0 20 17 36t40 16h160q23 0 37 -14.5t14 -37.5v-151q0 -24 -14 -40t-37 -16zM1483 268h41q23 0 39 -16t16 -39v-158q0 -24 -15.5 -39.5t-39.5 -15.5h-37q-217 0 -316.5 103.5t-99.5 310.5v270h-432v-690q0 -215 -100 -325.5
t-295 -110.5h-25q-146 0 -264 100q-24 21 -28 52.5t14 58.5l59 77q44 52 102 9q39 -31 115 -31h29q72 0 99.5 37t27.5 131v885v2q2 31 22.5 52t50.5 21h625v58q0 31 21.5 52t52.5 21h119q31 0 52 -21t21 -52v-598q0 -144 146 -144zM1028 -184v-148q0 -23 -15 -38t-36 -15
h-156q-23 0 -38 16t-15 37v148q0 21 15 35t38 14h156q23 0 37 -14t14 -35zM1180 -135h155q23 0 37 -14t14 -35v-148q0 -23 -15 -38t-36 -15h-155q-20 0 -37 16.5t-17 36.5v148q0 20 15.5 34.5t38.5 14.5zM1006 -442h143q43 0 43 -39v-121q0 -20 -12 -32.5t-31 -12.5h-143
q-21 0 -34.5 12.5t-13.5 32.5v121q0 17 14 28t34 11z" />
    <glyph glyph-name="uniFB59FEE6" unicode="&#xfb59;&#xfee6;" horiz-adv-x="2117" 
d="M2077 268h41q23 0 38 -16t15 -39v-158q0 -25 -15 -40t-38 -15h-37q-217 0 -317.5 103.5t-100.5 310.5v139h-414v-573q0 -207 -102 -312.5t-320 -105.5h-235q-220 0 -336 131q-117 132 -117 311q0 221 121 389q18 27 46.5 34t55.5 -11l89 -60q26 -17 32.5 -47.5
t-10.5 -56.5q-65 -109 -65 -215q0 -99 48.5 -153t135.5 -54h239q152 0 152 145v773q0 31 22.5 53t53.5 22h604v54q0 32 22.5 53.5t53.5 21.5h116q31 0 53.5 -21.5t22.5 -53.5v-465q0 -144 146 -144zM760 670h-160q-23 0 -40 16t-17 39v152q0 20 17 35.5t40 15.5h160
q23 0 37 -14t14 -37v-152q0 -24 -14 -39.5t-37 -15.5zM1638 -184v-148q0 -23 -15 -38t-36 -15h-155q-23 0 -38.5 16t-15.5 37v148q0 20 15.5 34.5t38.5 14.5h155q23 0 37 -14t14 -35zM1790 -135h156q23 0 37 -14t14 -35v-148q0 -23 -15 -38t-36 -15h-156q-20 0 -36.5 16.5
t-16.5 36.5v148q0 21 15 35t38 14zM1616 -442h143q43 0 43 -39v-121q0 -20 -12 -32.5t-31 -12.5h-143q-20 0 -33.5 12.5t-13.5 32.5v121q0 17 13.5 28t33.5 11z" />
    <glyph glyph-name="uniFB59FEF0" unicode="&#xfb59;&#xfef0;" horiz-adv-x="2166" 
d="M2126 268h41q23 0 39 -16t16 -39v-158q0 -24 -15.5 -39.5t-39.5 -15.5h-37q-217 0 -316.5 103.5t-99.5 310.5v270h-315q-150 0 -150 -154v-555q0 -207 -102 -312t-320 -105h-235q-220 0 -336 131q-117 132 -117 311q0 221 121 389q18 27 46.5 34t55.5 -11l89 -60
q26 -17 32.5 -47t-10.5 -55q-48 -83 -60.5 -164t7 -139t65 -91.5t107.5 -29.5h239q152 0 152 145v557q0 212 99.5 318t316.5 106h315v58q0 31 21.5 52t52.5 21h119q31 0 52 -21t21 -52v-598q0 -144 146 -144zM1624 -184v-148q0 -23 -15 -38t-36 -15h-156q-20 0 -36.5 16.5
t-16.5 36.5v148q0 21 15 35t38 14h156q23 0 37 -14t14 -35zM1776 -135h155q23 0 37 -14t14 -35v-148q0 -23 -15 -38t-36 -15h-155q-23 0 -38.5 16t-15.5 37v148q0 20 15.5 34.5t38.5 14.5zM1602 -442h143q43 0 43 -39v-121q0 -20 -12 -32.5t-31 -12.5h-143q-21 0 -34.5 12.5
t-13.5 32.5v121q0 17 14 28t34 11z" />
    <glyph glyph-name="uniFB59FEF2" unicode="&#xfb59;&#xfef2;" horiz-adv-x="2166" 
d="M2126 268h41q23 0 39 -16t16 -39v-158q0 -24 -15.5 -39.5t-39.5 -15.5h-37q-217 0 -316.5 103.5t-99.5 310.5v270h-315q-150 0 -150 -154v-555q0 -207 -102 -312t-320 -105h-235q-220 0 -336 131q-117 132 -117 311q0 221 121 389q18 27 46.5 34t55.5 -11l89 -60
q26 -17 32.5 -47t-10.5 -55q-48 -83 -60.5 -164t7 -139t65 -91.5t107.5 -29.5h239q152 0 152 145v557q0 212 99.5 318t316.5 106h315v58q0 31 21.5 52t52.5 21h119q31 0 52 -21t21 -52v-598q0 -144 146 -144zM1624 -184v-148q0 -23 -15 -38t-36 -15h-156q-20 0 -36.5 16.5
t-16.5 36.5v148q0 21 15 35t38 14h156q23 0 37 -14t14 -35zM1776 -135h155q23 0 37 -14t14 -35v-148q0 -23 -15 -38t-36 -15h-155q-23 0 -38.5 16t-15.5 37v148q0 20 15.5 34.5t38.5 14.5zM1602 -442h143q43 0 43 -39v-121q0 -20 -12 -32.5t-31 -12.5h-143q-21 0 -34.5 12.5
t-13.5 32.5v121q0 17 14 28t34 11zM438 -578h156q23 0 37 -14t14 -35v-147q0 -23 -15 -38t-36 -15h-156q-20 0 -36.5 16.5t-16.5 36.5v147q0 21 15 35t38 14zM797 -578h155q23 0 37.5 -14t14.5 -35v-147q0 -23 -15.5 -38t-36.5 -15h-155q-23 0 -38.5 16t-15.5 37v147
q0 20 15.5 34.5t38.5 14.5z" />
    <glyph glyph-name="uniFB59FE8A" unicode="&#xfb59;&#xfe8a;" horiz-adv-x="2166" 
d="M821 778h-391q-19 0 -31 12t-12 31v68q0 18 12.5 31.5t30.5 13.5h39q-10 33 -10 57v51q0 91 61 151t152 60h20q88 0 154 -63q35 -31 2 -64l-41 -43q-35 -35 -70 -4q-19 19 -45 19h-20q-25 0 -41.5 -16.5t-16.5 -39.5v-41q0 -30 16 -48.5t42 -18.5h149q18 0 31.5 -15
t13.5 -30v-68q0 -19 -13 -31t-32 -12zM2126 268h41q23 0 39 -16t16 -39v-158q0 -24 -15.5 -39.5t-39.5 -15.5h-37q-217 0 -316.5 103.5t-99.5 310.5v270h-315q-150 0 -150 -154v-555q0 -207 -102 -312t-320 -105h-235q-220 0 -336 131q-117 132 -117 311q0 221 121 389
q18 27 46.5 34t55.5 -11l89 -60q26 -17 32.5 -47t-10.5 -55q-48 -83 -60.5 -164t7 -139t65 -91.5t107.5 -29.5h239q152 0 152 145v557q0 212 99.5 318t316.5 106h315v58q0 31 21.5 52t52.5 21h119q31 0 52 -21t21 -52v-598q0 -144 146 -144zM1624 -184v-148q0 -23 -15 -38
t-36 -15h-156q-20 0 -36.5 16.5t-16.5 36.5v148q0 21 15 35t38 14h156q23 0 37 -14t14 -35zM1776 -135h155q23 0 37 -14t14 -35v-148q0 -23 -15 -38t-36 -15h-155q-23 0 -38.5 16t-15.5 37v148q0 20 15.5 34.5t38.5 14.5zM1602 -442h143q43 0 43 -39v-121q0 -20 -12 -32.5
t-31 -12.5h-143q-21 0 -34.5 12.5t-13.5 32.5v121q0 17 14 28t34 11z" />
    <glyph glyph-name="uniFE98FE8A" unicode="&#xfe98;&#xfe8a;" horiz-adv-x="2166" 
d="M1755 1219h-156q-23 0 -39 16t-16 37v149q0 20 16 33.5t39 13.5h156q20 0 34.5 -13.5t14.5 -33.5v-149q0 -23 -14 -38t-35 -15zM2114 1219h-156q-21 0 -37 15t-16 38v149q0 20 15 33.5t38 13.5h156q20 0 34.5 -13.5t14.5 -33.5v-149q0 -23 -14 -38t-35 -15zM821 778h-391
q-19 0 -31 12t-12 31v68q0 18 12.5 31.5t30.5 13.5h39q-10 33 -10 57v51q0 91 61 151t152 60h20q88 0 154 -63q35 -31 2 -64l-41 -43q-35 -35 -70 -4q-19 19 -45 19h-20q-25 0 -41.5 -16.5t-16.5 -39.5v-41q0 -30 16 -48.5t42 -18.5h149q18 0 31.5 -15t13.5 -30v-68
q0 -19 -13 -31t-32 -12zM2126 268h41q23 0 39 -16t16 -39v-158q0 -24 -15.5 -39.5t-39.5 -15.5h-37q-217 0 -316.5 103.5t-99.5 310.5v270h-315q-150 0 -150 -154v-555q0 -207 -102 -312t-320 -105h-235q-220 0 -336 131q-117 132 -117 311q0 221 121 389q18 27 46.5 34
t55.5 -11l89 -60q26 -17 32.5 -47t-10.5 -55q-48 -83 -60.5 -164t7 -139t65 -91.5t107.5 -29.5h239q152 0 152 145v557q0 212 99.5 318t316.5 106h315v58q0 31 21.5 52t52.5 21h119q31 0 52 -21t21 -52v-598q0 -144 146 -144z" />
    <glyph glyph-name="uniFE9CFE8A" unicode="&#xfe9c;&#xfe8a;" horiz-adv-x="2166" 
d="M1927 1526h-143q-19 0 -33 11t-14 28v123q0 18 14 30.5t33 12.5h143q19 0 31 -12t12 -31v-123q0 -39 -43 -39zM1755 1219h-156q-23 0 -38 14t-15 35v147q0 23 15 38t38 15h156q21 0 36 -15t15 -38v-147q0 -20 -15.5 -34.5t-35.5 -14.5zM1905 1268v147q0 23 16 38t37 15
h156q21 0 36 -15t15 -38v-147q0 -20 -15.5 -34.5t-35.5 -14.5h-156q-23 0 -38 14t-15 35zM821 778h-391q-19 0 -31 12t-12 31v68q0 18 12.5 31.5t30.5 13.5h39q-10 33 -10 57v51q0 91 61 151t152 60h20q88 0 154 -63q35 -31 2 -64l-41 -43q-35 -35 -70 -4q-19 19 -45 19h-20
q-25 0 -41.5 -16.5t-16.5 -39.5v-41q0 -30 16 -48.5t42 -18.5h149q18 0 31.5 -15t13.5 -30v-68q0 -19 -13 -31t-32 -12zM2126 268h41q23 0 39 -16t16 -39v-158q0 -24 -15.5 -39.5t-39.5 -15.5h-37q-217 0 -316.5 103.5t-99.5 310.5v270h-315q-150 0 -150 -154v-555
q0 -207 -102 -312t-320 -105h-235q-220 0 -336 131q-117 132 -117 311q0 221 121 389q18 27 46.5 34t55.5 -11l89 -60q26 -17 32.5 -47t-10.5 -55q-48 -83 -60.5 -164t7 -139t65 -91.5t107.5 -29.5h239q152 0 152 145v557q0 212 99.5 318t316.5 106h315v58q0 31 21.5 52
t52.5 21h119q31 0 52 -21t21 -52v-598q0 -144 146 -144z" />
    <glyph glyph-name="uniFEB3FEB0" unicode="&#xfeb3;&#xfeb0;" horiz-adv-x="2531" 
d="M594 1087h-160q-23 0 -40 16.5t-17 39.5v151q0 20 17 36t40 16h160q23 0 37 -14.5t14 -37.5v-151q0 -24 -14 -40t-37 -16zM2171 956h117q31 0 53 -22t22 -53v-494q0 -207 -99 -316.5t-279 -109.5q-185 0 -295 96q-104 -96 -269 -96q-221 0 -334.5 107.5t-113.5 318.5v166
h-334v-559q0 -215 -100 -325.5t-295 -110.5h-25q-146 0 -264 100q-24 21 -28 52.5t14 58.5l59 77q44 52 102 9q39 -31 115 -31h29q72 0 99.5 37t27.5 131v885q0 31 21 53t52 22h119q31 0 52.5 -22t21.5 -53v-54h526q31 0 52.5 -22t21.5 -53v-361q0 -154 143 -154
q152 0 152 154v361q0 31 22.5 53t53.5 22h116q31 0 53.5 -22t22.5 -53v-361q0 -154 144 -154q151 0 151 154v494q0 31 21.5 53t52.5 22z" />
    <glyph glyph-name="uniFEB4FEB0" unicode="&#xfeb4;&#xfeb0;" horiz-adv-x="2545" 
d="M596 1087h-160q-23 0 -40 16.5t-17 39.5v151q0 20 17 36t40 16h160q23 0 37 -14.5t14 -37.5v-151q0 -24 -14 -40t-37 -16zM2546 268q23 0 38 -16t15 -39v-158q0 -25 -15 -40t-38 -15q-176 0 -265 92q-98 -131 -296 -131q-185 0 -295 96q-104 -96 -269 -96
q-221 0 -334.5 107.5t-113.5 318.5v166h-334v-559q0 -215 -100 -325.5t-295 -110.5h-25q-146 0 -264 100q-24 21 -28 52.5t14 58.5l59 77q44 52 102 9q39 -31 115 -31h29q72 0 99.5 37t27.5 131v885q0 31 21 53t52 22h119q31 0 52.5 -22t21.5 -53v-54h526q31 0 52.5 -22
t21.5 -53v-361q0 -154 143 -154q152 0 152 154v361q0 31 22.5 53t53.5 22h116q31 0 53.5 -22t22.5 -53v-361q0 -154 144 -154q151 0 151 154v494q0 31 21.5 53t52.5 22h117q31 0 53 -22t22 -53v-473q18 -140 183 -140z" />
    <glyph glyph-name="uniFEB3FE8A" unicode="&#xfeb3;&#xfe8a;" horiz-adv-x="3123" 
d="M1606 1075h-392q-19 0 -31 12t-12 31v68q0 18 12.5 31.5t30.5 13.5h39q-10 33 -10 57v51q0 91 61 151t152 60h21q87 0 153 -63q35 -31 2 -64l-41 -43q-34 -34 -69 -4q-19 19 -45 19h-21q-24 0 -40.5 -16.5t-16.5 -39.5v-41q0 -30 15.5 -48.5t41.5 -18.5h150
q18 0 31.5 -15t13.5 -30v-68q0 -18 -12.5 -30.5t-32.5 -12.5zM2763 956h116q31 0 53.5 -22t22.5 -53v-494q0 -207 -100 -316.5t-281 -109.5q-185 0 -295 96q-104 -96 -266 -96q-450 0 -450 426v297h-164q-150 0 -150 -154v-555q0 -207 -102 -312t-320 -105h-235
q-220 0 -336 131q-117 132 -117 311q0 221 121 389q18 27 46.5 34t55.5 -11l89 -60q26 -17 32.5 -47t-10.5 -55q-48 -83 -60.5 -164t7 -139t65 -91.5t107.5 -29.5h239q152 0 152 145v557q0 212 99.5 318t316.5 106h356q31 0 53.5 -22t22.5 -53v-490q0 -154 143 -154
q152 0 152 154v361q0 31 22 53t54 22h116q31 0 52.5 -22t21.5 -53v-361q0 -154 143 -154q152 0 152 154v494q0 31 22.5 53t53.5 22z" />
    <glyph glyph-name="uniFEB4FE8A" unicode="&#xfeb4;&#xfe8a;" horiz-adv-x="3137" 
d="M1606 1075h-392q-19 0 -31 12t-12 31v68q0 18 12.5 31.5t30.5 13.5h39q-10 33 -10 57v51q0 91 61 151t152 60h21q87 0 153 -63q35 -31 2 -64l-41 -43q-34 -34 -69 -4q-19 19 -45 19h-21q-24 0 -40.5 -16.5t-16.5 -39.5v-41q0 -30 15.5 -48.5t41.5 -18.5h150
q18 0 31.5 -15t13.5 -30v-68q0 -18 -12.5 -30.5t-32.5 -12.5zM3138 268q23 0 38 -16t15 -39v-158q0 -25 -15 -40t-38 -15q-176 0 -265 92q-98 -131 -299 -131q-185 0 -295 96q-104 -96 -266 -96q-450 0 -450 426v297h-164q-150 0 -150 -154v-555q0 -207 -102 -312t-320 -105
h-235q-220 0 -336 131q-117 132 -117 311q0 221 121 389q18 27 46.5 34t55.5 -11l89 -60q26 -17 32.5 -47t-10.5 -55q-48 -83 -60.5 -164t7 -139t65 -91.5t107.5 -29.5h239q152 0 152 145v557q0 212 99.5 318t316.5 106h356q31 0 53.5 -22t22.5 -53v-490q0 -154 143 -154
q152 0 152 154v361q0 31 22 53t54 22h116q31 0 52.5 -22t21.5 -53v-361q0 -154 143 -154q152 0 152 154v494q0 31 22.5 53t53.5 22h116q31 0 53.5 -22t22.5 -53v-473q18 -140 183 -140z" />
    <glyph glyph-name="uniFEB7FEB0" unicode="&#xfeb7;&#xfeb0;" horiz-adv-x="2531" 
d="M1741 1264h-144q-19 0 -33 11t-14 28v122q0 18 14 30.5t33 12.5h144q19 0 31 -12t12 -31v-122q0 -39 -43 -39zM594 1087h-160q-23 0 -40 16.5t-17 39.5v151q0 20 17 36t40 16h160q23 0 37 -14.5t14 -37.5v-151q0 -24 -14 -40t-37 -16zM1569 956h-156q-23 0 -38 14.5
t-15 35.5v147q0 23 16 38t37 15h156q21 0 36 -15t15 -38v-147q0 -20 -15.5 -35t-35.5 -15zM1718 1006v147q0 23 15.5 38t38.5 15h155q21 0 36 -15t15 -38v-147q0 -20 -15.5 -35t-35.5 -15h-155q-23 0 -38.5 14.5t-15.5 35.5zM2171 956h117q31 0 53 -22t22 -53v-494
q0 -207 -99 -316.5t-279 -109.5q-185 0 -295 96q-104 -96 -269 -96q-221 0 -334.5 107.5t-113.5 318.5v166h-334v-559q0 -215 -100 -325.5t-295 -110.5h-25q-146 0 -264 100q-24 21 -28 52.5t14 58.5l59 77q44 52 102 9q39 -31 115 -31h29q72 0 99.5 37t27.5 131v885
q0 31 21 53t52 22h119q31 0 52.5 -22t21.5 -53v-54h526q31 0 52.5 -22t21.5 -53v-361q0 -154 143 -154q152 0 152 154v361q0 31 22.5 53t53.5 22h116q31 0 53.5 -22t22.5 -53v-361q0 -154 144 -154q151 0 151 154v494q0 31 21.5 53t52.5 22z" />
    <glyph glyph-name="uniFEB8FEB0" unicode="&#xfeb8;&#xfeb0;" horiz-adv-x="2545" 
d="M1741 1264h-144q-19 0 -33 11t-14 28v122q0 18 14 30.5t33 12.5h144q19 0 31 -12t12 -31v-122q0 -39 -43 -39zM596 1087h-160q-23 0 -40 16.5t-17 39.5v151q0 20 17 36t40 16h160q23 0 37 -14.5t14 -37.5v-151q0 -24 -14 -40t-37 -16zM1569 956h-156q-23 0 -38 14.5
t-15 35.5v147q0 23 16 38t37 15h156q21 0 36 -15t15 -38v-147q0 -20 -15.5 -35t-35.5 -15zM1718 1006v147q0 23 15.5 38t38.5 15h155q21 0 36 -15t15 -38v-147q0 -20 -15.5 -35t-35.5 -15h-155q-23 0 -38.5 14.5t-15.5 35.5zM2546 268q23 0 38 -16t15 -39v-158
q0 -25 -15 -40t-38 -15q-176 0 -265 92q-98 -131 -296 -131q-185 0 -295 96q-104 -96 -269 -96q-221 0 -334.5 107.5t-113.5 318.5v166h-334v-559q0 -215 -100 -325.5t-295 -110.5h-25q-146 0 -264 100q-24 21 -28 52.5t14 58.5l59 77q44 52 102 9q39 -31 115 -31h29
q72 0 99.5 37t27.5 131v885q0 31 21 53t52 22h119q31 0 52.5 -22t21.5 -53v-54h526q31 0 52.5 -22t21.5 -53v-361q0 -154 143 -154q152 0 152 154v361q0 31 22.5 53t53.5 22h116q31 0 53.5 -22t22.5 -53v-361q0 -154 144 -154q151 0 151 154v494q0 31 21.5 53t52.5 22h117
q31 0 53 -22t22 -53v-473q18 -140 183 -140z" />
    <glyph glyph-name="uniFEB7FE8A" unicode="&#xfeb7;&#xfe8a;" horiz-adv-x="3123" 
d="M1606 1075h-392q-19 0 -31 12t-12 31v68q0 18 12.5 31.5t30.5 13.5h39q-10 33 -10 57v51q0 91 61 151t152 60h21q87 0 153 -63q35 -31 2 -64l-41 -43q-34 -34 -69 -4q-19 19 -45 19h-21q-24 0 -40.5 -16.5t-16.5 -39.5v-41q0 -30 15.5 -48.5t41.5 -18.5h150
q18 0 31.5 -15t13.5 -30v-68q0 -18 -12.5 -30.5t-32.5 -12.5zM2339 1264h-144q-19 0 -33 11t-14 28v122q0 18 14 30.5t33 12.5h144q19 0 31 -12t12 -31v-122q0 -39 -43 -39zM2167 956h-156q-23 0 -38 14.5t-15 35.5v147q0 23 16 38t37 15h156q21 0 36 -15t15 -38v-147
q0 -20 -15.5 -35t-35.5 -15zM2316 1006v147q0 23 15.5 38t38.5 15h155q21 0 36 -15t15 -38v-147q0 -20 -15.5 -35t-35.5 -15h-155q-23 0 -38.5 14.5t-15.5 35.5zM2763 956h116q31 0 53.5 -22t22.5 -53v-494q0 -207 -100 -316.5t-281 -109.5q-185 0 -295 96
q-104 -96 -266 -96q-450 0 -450 426v297h-164q-150 0 -150 -154v-555q0 -207 -102 -312t-320 -105h-235q-220 0 -336 131q-117 132 -117 311q0 221 121 389q18 27 46.5 34t55.5 -11l89 -60q26 -17 32.5 -47t-10.5 -55q-48 -83 -60.5 -164t7 -139t65 -91.5t107.5 -29.5h239
q152 0 152 145v557q0 212 99.5 318t316.5 106h356q31 0 53.5 -22t22.5 -53v-490q0 -154 143 -154q152 0 152 154v361q0 31 22 53t54 22h116q31 0 52.5 -22t21.5 -53v-361q0 -154 143 -154q152 0 152 154v494q0 31 22.5 53t53.5 22z" />
    <glyph glyph-name="uniFEB8FE8A" unicode="&#xfeb8;&#xfe8a;" horiz-adv-x="3137" 
d="M1606 1075h-392q-19 0 -31 12t-12 31v68q0 18 12.5 31.5t30.5 13.5h39q-10 33 -10 57v51q0 91 61 151t152 60h21q87 0 153 -63q35 -31 2 -64l-41 -43q-34 -34 -69 -4q-19 19 -45 19h-21q-24 0 -40.5 -16.5t-16.5 -39.5v-41q0 -30 15.5 -48.5t41.5 -18.5h150
q18 0 31.5 -15t13.5 -30v-68q0 -18 -12.5 -30.5t-32.5 -12.5zM2339 1264h-144q-19 0 -33 11t-14 28v122q0 18 14 30.5t33 12.5h144q19 0 31 -12t12 -31v-122q0 -39 -43 -39zM2167 956h-156q-23 0 -38 14.5t-15 35.5v147q0 23 16 38t37 15h156q21 0 36 -15t15 -38v-147
q0 -20 -15.5 -35t-35.5 -15zM2316 1006v147q0 23 15.5 38t38.5 15h155q21 0 36 -15t15 -38v-147q0 -20 -15.5 -35t-35.5 -15h-155q-23 0 -38.5 14.5t-15.5 35.5zM3138 268q23 0 38 -16t15 -39v-158q0 -25 -15 -40t-38 -15q-176 0 -265 92q-98 -131 -299 -131q-185 0 -295 96
q-104 -96 -266 -96q-450 0 -450 426v297h-164q-150 0 -150 -154v-555q0 -207 -102 -312t-320 -105h-235q-220 0 -336 131q-117 132 -117 311q0 221 121 389q18 27 46.5 34t55.5 -11l89 -60q26 -17 32.5 -47t-10.5 -55q-48 -83 -60.5 -164t7 -139t65 -91.5t107.5 -29.5h239
q152 0 152 145v557q0 212 99.5 318t316.5 106h356q31 0 53.5 -22t22.5 -53v-490q0 -154 143 -154q152 0 152 154v361q0 31 22 53t54 22h116q31 0 52.5 -22t21.5 -53v-361q0 -154 143 -154q152 0 152 154v494q0 31 22.5 53t53.5 22h116q31 0 53.5 -22t22.5 -53v-473
q18 -140 183 -140z" />
    <glyph glyph-name="uniFEBBFE8A" unicode="&#xfebb;&#xfe8a;" horiz-adv-x="3059" 
d="M1604 1075h-392q-19 0 -31 12t-12 31v68q0 18 12.5 31.5t30.5 13.5h39q-10 33 -10 57v51q0 91 61 151t152 60h21q87 0 153 -63q35 -31 2 -64l-41 -43q-34 -34 -69 -4q-19 19 -45 19h-21q-24 0 -40.5 -16.5t-16.5 -39.5v-41q0 -30 15.5 -48.5t41.5 -18.5h150
q18 0 31.5 -15t13.5 -30v-68q0 -17 -13 -30t-32 -13zM2228 971h279q187 0 293 -107.5t106 -292.5v-170q0 -401 -399 -401h-496q-221 0 -335.5 108.5t-114.5 317.5v258h-162q-150 0 -150 -154v-555q0 -207 -102 -312t-320 -105h-235q-220 0 -336 131q-117 132 -117 311
q0 221 121 389q18 27 46.5 34t55.5 -11l89 -60q26 -17 32.5 -47t-10.5 -55q-48 -83 -60.5 -164t7 -139t65 -91.5t107.5 -29.5h239q152 0 152 145v557q0 212 99.5 318t316.5 106h313q32 0 54 -22t22 -53v-107q117 106 223 158q93 43 217 43zM2640 399v174q0 56 -36.5 91.5
t-92.5 35.5h-313q-97 0 -168 -31.5t-154 -107.5l-47 -43v-92q0 -158 143 -158h539q129 0 129 131z" />
    <glyph glyph-name="uniFEBCFE8A" unicode="&#xfebc;&#xfe8a;" horiz-adv-x="3088" 
d="M1606 1075h-392q-19 0 -31 12t-12 31v68q0 18 12.5 31.5t30.5 13.5h39q-10 33 -10 57v51q0 91 61 151t152 60h21q87 0 153 -63q35 -31 2 -64l-41 -43q-34 -34 -69 -4q-19 19 -45 19h-21q-24 0 -40.5 -16.5t-16.5 -39.5v-41q0 -30 15.5 -48.5t41.5 -18.5h150
q18 0 31.5 -15t13.5 -30v-68q0 -18 -12.5 -30.5t-32.5 -12.5zM3088 268q23 0 38.5 -16t15.5 -39v-158q0 -25 -15 -40t-39 -15q-190 0 -274 106q-100 -106 -307 -106h-496q-221 0 -335.5 108.5t-114.5 317.5v258h-162q-150 0 -150 -154v-555q0 -207 -102 -312t-320 -105h-235
q-220 0 -336 131q-117 132 -117 311q0 221 121 389q18 27 46.5 34t55.5 -11l89 -60q26 -17 32.5 -47t-10.5 -55q-48 -83 -60.5 -164t7 -139t65 -91.5t107.5 -29.5h239q152 0 152 145v557q0 212 99.5 318t316.5 106h313q32 0 54 -22t22 -53v-107q117 106 223 158
q93 43 217 43h279q187 0 293 -107.5t106 -292.5v-163q18 -140 182 -140zM2640 399v174q0 56 -36.5 91.5t-92.5 35.5h-313q-97 0 -168 -31.5t-154 -107.5l-47 -43v-92q0 -158 143 -158h539q129 0 129 131z" />
    <glyph glyph-name="uniFEBFFE8A" unicode="&#xfebf;&#xfe8a;" horiz-adv-x="3059" 
d="M1604 1075h-392q-19 0 -31 12t-12 31v68q0 18 12.5 31.5t30.5 13.5h39q-10 33 -10 57v51q0 91 61 151t152 60h21q87 0 153 -63q35 -31 2 -64l-41 -43q-34 -34 -69 -4q-19 19 -45 19h-21q-24 0 -40.5 -16.5t-16.5 -39.5v-41q0 -30 15.5 -48.5t41.5 -18.5h150
q18 0 31.5 -15t13.5 -30v-68q0 -17 -13 -30t-32 -13zM2433 1104h-160q-23 0 -40 16t-17 39v152q0 20 17 35.5t40 15.5h160q23 0 37 -14t14 -37v-152q0 -24 -14 -39.5t-37 -15.5zM2228 971h279q187 0 293 -107.5t106 -292.5v-170q0 -401 -399 -401h-496q-221 0 -335.5 108.5
t-114.5 317.5v258h-162q-150 0 -150 -154v-555q0 -207 -102 -312t-320 -105h-235q-220 0 -336 131q-117 132 -117 311q0 221 121 389q18 27 46.5 34t55.5 -11l89 -60q26 -17 32.5 -47t-10.5 -55q-48 -83 -60.5 -164t7 -139t65 -91.5t107.5 -29.5h239q152 0 152 145v557
q0 212 99.5 318t316.5 106h313q32 0 54 -22t22 -53v-107q117 106 223 158q93 43 217 43zM2640 399v174q0 56 -36.5 91.5t-92.5 35.5h-313q-97 0 -168 -31.5t-154 -107.5l-47 -43v-92q0 -158 143 -158h539q129 0 129 131z" />
    <glyph glyph-name="uniFEC0FE8A" unicode="&#xfec0;&#xfe8a;" horiz-adv-x="3088" 
d="M1606 1075h-392q-19 0 -31 12t-12 31v68q0 18 12.5 31.5t30.5 13.5h39q-10 33 -10 57v51q0 91 61 151t152 60h21q87 0 153 -63q35 -31 2 -64l-41 -43q-34 -34 -69 -4q-19 19 -45 19h-21q-24 0 -40.5 -16.5t-16.5 -39.5v-41q0 -30 15.5 -48.5t41.5 -18.5h150
q18 0 31.5 -15t13.5 -30v-68q0 -18 -12.5 -30.5t-32.5 -12.5zM2433 1104h-160q-23 0 -40 16t-17 39v152q0 20 17 35.5t40 15.5h160q23 0 37 -14t14 -37v-152q0 -24 -14 -39.5t-37 -15.5zM3088 268q23 0 38.5 -16t15.5 -39v-158q0 -25 -15 -40t-39 -15q-190 0 -274 106
q-100 -106 -307 -106h-496q-221 0 -335.5 108.5t-114.5 317.5v258h-162q-150 0 -150 -154v-555q0 -207 -102 -312t-320 -105h-235q-220 0 -336 131q-117 132 -117 311q0 221 121 389q18 27 46.5 34t55.5 -11l89 -60q26 -17 32.5 -47t-10.5 -55q-48 -83 -60.5 -164t7 -139
t65 -91.5t107.5 -29.5h239q152 0 152 145v557q0 212 99.5 318t316.5 106h313q32 0 54 -22t22 -53v-107q117 106 223 158q93 43 217 43h279q187 0 293 -107.5t106 -292.5v-163q18 -140 182 -140zM2640 399v174q0 56 -36.5 91.5t-92.5 35.5h-313q-97 0 -168 -31.5t-154 -107.5
l-47 -43v-92q0 -158 143 -158h539q129 0 129 131z" />
    <glyph glyph-name="uniFEE8FE8A" unicode="&#xfee8;&#xfe8a;" horiz-adv-x="2166" 
d="M1937 1219h-159q-24 0 -41 16t-17 39v151q0 20 17.5 36t40.5 16h159q23 0 37.5 -14.5t14.5 -37.5v-151q0 -24 -14.5 -39.5t-37.5 -15.5zM821 778h-391q-19 0 -31 12t-12 31v68q0 18 12.5 31.5t30.5 13.5h39q-10 33 -10 57v51q0 91 61 151t152 60h20q88 0 154 -63
q35 -31 2 -64l-41 -43q-35 -35 -70 -4q-19 19 -45 19h-20q-25 0 -41.5 -16.5t-16.5 -39.5v-41q0 -30 16 -48.5t42 -18.5h149q18 0 31.5 -15t13.5 -30v-68q0 -19 -13 -31t-32 -12zM2126 268h41q23 0 39 -16t16 -39v-158q0 -24 -15.5 -39.5t-39.5 -15.5h-37
q-217 0 -316.5 103.5t-99.5 310.5v270h-315q-150 0 -150 -154v-555q0 -207 -102 -312t-320 -105h-235q-220 0 -336 131q-117 132 -117 311q0 221 121 389q18 27 46.5 34t55.5 -11l89 -60q26 -17 32.5 -47t-10.5 -55q-48 -83 -60.5 -164t7 -139t65 -91.5t107.5 -29.5h239
q152 0 152 145v557q0 212 99.5 318t316.5 106h315v58q0 31 21.5 52t52.5 21h119q31 0 52 -21t21 -52v-598q0 -144 146 -144z" />
    <glyph glyph-name="uniFBE9FEAE" unicode="&#x649;&#xfeae;" horiz-adv-x="1523" 
d="M1483 268h41q23 0 39 -16t16 -39v-158q0 -24 -15.5 -39.5t-39.5 -15.5h-37q-217 0 -316.5 103.5t-99.5 310.5v270h-432v-690q0 -215 -100 -325.5t-295 -110.5h-25q-146 0 -264 100q-24 21 -28 52.5t14 58.5l59 77q44 52 102 9q39 -31 115 -31h29q72 0 99.5 37t27.5 131
v885v2q2 31 22.5 52t50.5 21h625v58q0 31 21.5 52t52.5 21h119q31 0 52 -21t21 -52v-598q0 -144 146 -144z" />
    <glyph glyph-name="uniFBE9FEB0" unicode="&#x649;&#xfeb0;" horiz-adv-x="1523" 
d="M592 1087h-160q-23 0 -40 16.5t-17 39.5v151q0 20 17 36t40 16h160q23 0 37 -14.5t14 -37.5v-151q0 -24 -14 -40t-37 -16zM1483 268h41q23 0 39 -16t16 -39v-158q0 -24 -15.5 -39.5t-39.5 -15.5h-37q-217 0 -316.5 103.5t-99.5 310.5v270h-432v-690q0 -215 -100 -325.5
t-295 -110.5h-25q-146 0 -264 100q-24 21 -28 52.5t14 58.5l59 77q44 52 102 9q39 -31 115 -31h29q72 0 99.5 37t27.5 131v885v2q2 31 22.5 52t50.5 21h625v58q0 31 21.5 52t52.5 21h119q31 0 52 -21t21 -52v-598q0 -144 146 -144z" />
    <glyph glyph-name="uniFBE9FEE6" unicode="&#x649;&#xfee6;" horiz-adv-x="2117" 
d="M2077 268h41q23 0 38 -16t15 -39v-158q0 -25 -15 -40t-38 -15h-37q-217 0 -317.5 103.5t-100.5 310.5v139h-414v-573q0 -207 -102 -312.5t-320 -105.5h-235q-220 0 -336 131q-117 132 -117 311q0 221 121 389q18 27 46.5 34t55.5 -11l89 -60q26 -17 32.5 -47.5
t-10.5 -56.5q-65 -109 -65 -215q0 -99 48.5 -153t135.5 -54h239q152 0 152 145v773q0 31 22.5 53t53.5 22h604v54q0 32 22.5 53.5t53.5 21.5h116q31 0 53.5 -21.5t22.5 -53.5v-465q0 -144 146 -144zM760 670h-160q-23 0 -40 16t-17 39v152q0 20 17 35.5t40 15.5h160
q23 0 37 -14t14 -37v-152q0 -24 -14 -39.5t-37 -15.5z" />
    <glyph glyph-name="uniFBE9FB9F" unicode="&#x649;&#xfb9f;" horiz-adv-x="2117" 
d="M2077 268h41q23 0 38 -16t15 -39v-158q0 -25 -15 -40t-38 -15h-37q-217 0 -317.5 103.5t-100.5 310.5v139h-414v-573q0 -207 -102 -312.5t-320 -105.5h-235q-220 0 -336 131q-117 132 -117 311q0 221 121 389q18 27 46.5 34t55.5 -11l89 -60q26 -17 32.5 -47.5
t-10.5 -56.5q-65 -109 -65 -215q0 -99 48.5 -153t135.5 -54h239q152 0 152 145v773q0 31 22.5 53t53.5 22h604v54q0 32 22.5 53.5t53.5 21.5h116q31 0 53.5 -21.5t22.5 -53.5v-465q0 -144 146 -144z" />
    <glyph glyph-name="uniFE8CFE8A" unicode="&#xfe8c;&#xfe8a;" horiz-adv-x="2166" 
d="M2048 1206h-391q-19 0 -31 12t-12 31v68q0 18 12.5 31.5t30.5 13.5h39q-10 33 -10 57v51q0 91 60.5 151t151.5 60h21q88 0 154 -63q35 -31 2 -64l-41 -43q-35 -35 -70 -4q-19 19 -45 19h-21q-24 0 -40.5 -16t-16.5 -40v-40q0 -30 15.5 -49t41.5 -19h150q18 0 31.5 -15
t13.5 -30v-68q0 -18 -12.5 -30.5t-32.5 -12.5zM821 778h-391q-19 0 -31 12t-12 31v68q0 18 12.5 31.5t30.5 13.5h39q-10 33 -10 57v51q0 91 61 151t152 60h20q88 0 154 -63q35 -31 2 -64l-41 -43q-35 -35 -70 -4q-19 19 -45 19h-20q-25 0 -41.5 -16.5t-16.5 -39.5v-41
q0 -30 16 -48.5t42 -18.5h149q18 0 31.5 -15t13.5 -30v-68q0 -19 -13 -31t-32 -12zM2126 268h41q23 0 39 -16t16 -39v-158q0 -24 -15.5 -39.5t-39.5 -15.5h-37q-217 0 -316.5 103.5t-99.5 310.5v270h-315q-150 0 -150 -154v-555q0 -207 -102 -312t-320 -105h-235
q-220 0 -336 131q-117 132 -117 311q0 221 121 389q18 27 46.5 34t55.5 -11l89 -60q26 -17 32.5 -47t-10.5 -55q-48 -83 -60.5 -164t7 -139t65 -91.5t107.5 -29.5h239q152 0 152 145v557q0 212 99.5 318t316.5 106h315v58q0 31 21.5 52t52.5 21h119q31 0 52 -21t21 -52v-598
q0 -144 146 -144z" />
    <glyph glyph-name="uni066E.init" unicode="&#x66e;" horiz-adv-x="700" 
d="M117 0h-117q-23 0 -38 15t-15 40v158q0 23 15 39t38 16h119q145 0 145 144v465q0 31 22.5 53t53.5 22h117q31 0 53 -22t22 -53v-463q0 -207 -99 -310.5t-316 -103.5z" />
    <glyph glyph-name="uni066E.medi" unicode="&#x66e;" horiz-adv-x="772" 
d="M698 268h74q23 0 38 -16t15 -39v-158q0 -25 -15 -40t-38 -15h-76q-168 0 -260 109q-103 -109 -319 -109h-117q-23 0 -38 15t-15 40v158q0 23 15 39t38 16h119q145 0 145 144v465q0 31 22.5 53t53.5 22h117q31 0 53 -22t22 -53v-437q0 -75 47 -123.5t119 -48.5z" />
    <glyph glyph-name="uni066E.fina" unicode="&#x66e;" horiz-adv-x="1703" 
d="M1704 268q23 0 38 -16t15 -39v-158q0 -25 -15 -40t-38 -15q-194 0 -277 111q-102 -111 -323 -111h-535q-210 0 -320 116t-110 324v125q0 155 107 262q20 23 51.5 25t54.5 -18l82 -74q45 -39 4 -105q-32 -46 -32 -118v-97q0 -75 46.5 -123.5t118.5 -48.5h537
q145 0 145 144v465q0 31 21.5 53t52.5 22h119q31 0 52.5 -22t21.5 -53v-437q0 -84 48 -128t136 -44z" />
    <glyph glyph-name="uni066F.fina" unicode="&#x66f;" horiz-adv-x="1630" 
d="M1468 268h160q23 0 39 -16t16 -39v-158q0 -24 -15.5 -39.5t-39.5 -15.5h-160v-25q0 -417 -421 -417h-455q-220 0 -336 131q-117 132 -117 311q0 212 121 389q18 27 46.5 34t55.5 -11l89 -60q26 -17 32.5 -47.5t-10.5 -56.5q-65 -106 -65 -215q0 -99 48.5 -153t135.5 -54
h459q151 0 151 147v27h-256q-146 0 -248 102q-100 100 -100 252v207q0 165 115 289q114 123 276 123h88q164 0 279 -115q110 -116 110 -297v-174q2 -4 2 -18v-101zM866 563v-123q0 -77 37 -124.5t103 -47.5h194v295q0 65 -40 103.5t-99 38.5h-55q-58 0 -99 -39t-41 -103z
" />
    <glyph glyph-name="uni06A1.init" unicode="&#x6a1;" horiz-adv-x="1169" 
d="M524 973h78q188 0 298 -109t110 -303v-139q0 -197 -115 -309q-113 -113 -293 -113h-600q-24 0 -39.5 15.5t-15.5 39.5v158q0 23 16 39t39 16h199l-86 293q0 166 102 289t307 123zM743 420v143q0 57 -41 99.5t-96 42.5h-86q-67 0 -105 -44.5t-38 -117.5l72 -275h157
q58 0 97.5 42t39.5 110z" />
    <glyph glyph-name="uni06A1.medi" unicode="&#x6a1;" horiz-adv-x="1193" 
d="M1194 268q23 0 38 -16t15 -39v-158q0 -25 -15 -40t-38 -15q-204 0 -287 123q-114 -123 -305 -123h-600q-24 0 -39.5 15.5t-15.5 39.5v158q0 23 16 39t39 16h199l-86 293q0 166 102 289t307 123h78q188 0 298 -109t110 -303v-121q0 -84 48 -128t136 -44zM743 420v143
q0 57 -41 99.5t-96 42.5h-86q-67 0 -105 -44.5t-38 -117.5l72 -275h157q58 0 97.5 42t39.5 110z" />
    <glyph glyph-name="uni06A1.fina" unicode="&#x6a1;" horiz-adv-x="2007" 
d="M2007 268q23 0 38 -16t15 -39v-158q0 -25 -15 -40t-38 -15q-205 0 -287 123q-114 -123 -305 -123h-846q-210 0 -320 116t-110 324v125q0 155 107 262q20 23 51.5 25t54.5 -18l82 -74q45 -39 4 -105q-32 -46 -32 -118v-97q0 -75 46.5 -123.5t118.5 -48.5h443l-86 293
q0 166 102 289t307 123h78q188 0 298 -109t110 -303v-121q0 -84 48 -128t136 -44zM1556 420v143q0 57 -41 99.5t-96 42.5h-86q-67 0 -105 -44.5t-38 -117.5l72 -275h157q58 0 97.5 42t39.5 110z" />
    <glyph glyph-name="uni06C2.fina" unicode="&#x6c2;" horiz-adv-x="1181" 
d="M768 1096h-391q-19 0 -31 12t-12 31v67q0 18 12.5 31.5t30.5 13.5h39q-10 33 -10 58v51q0 91 60.5 151t151.5 60h21q87 0 154 -64q35 -30 2 -63l-41 -43q-35 -35 -70 -4q-18 18 -45 18h-21q-25 0 -41 -16t-16 -39v-41q0 -30 15.5 -49t41.5 -19h150q18 0 31.5 -15
t13.5 -30v-67q0 -17 -13 -30t-32 -13zM1159 268h23q23 0 38 -16t15 -39v-158q0 -25 -15 -40t-38 -15h-82q-161 0 -262 92t-101 244v219q0 150 -147 150h-33q-73 0 -111 -40t-38 -110l-2 -231q0 -31 -21.5 -53.5t-52.5 -22.5h-119q-31 0 -52.5 22.5t-21.5 53.5v219
q0 186 105 309q103 121 315 121h29q418 0 418 -420v-129q0 -71 42.5 -113.5t110.5 -42.5z" />
    <glyph glyph-name="uni06C3.fina" unicode="&#x6c3;" horiz-adv-x="1181" 
d="M475 1108h-156q-23 0 -39 16t-16 37v150q0 20 16 33.5t39 13.5h156q20 0 34.5 -13.5t14.5 -33.5v-150q0 -23 -14 -38t-35 -15zM834 1108h-156q-23 0 -38 15t-15 38v150q0 20 15 33.5t38 13.5h156q20 0 34.5 -13.5t14.5 -33.5v-150q0 -23 -14 -38t-35 -15zM1182 0h-82
q-161 0 -262 92t-101 244v219q0 150 -147 150h-33q-73 0 -111 -40t-38 -110l-2 -231q0 -31 -21.5 -53.5t-52.5 -22.5h-119q-31 0 -52.5 22.5t-21.5 53.5v219q0 186 105 309q103 121 315 121h29q418 0 418 -420v-129q0 -71 42.5 -113.5t110.5 -42.5h23q23 0 38 -16t15 -39
v-158q0 -25 -15 -40t-38 -15z" />
    <glyph glyph-name="uniFB51" unicode="&#x671;" horiz-adv-x="692" arabic-form="final" 
d="M428 1352h-309q-18 0 -29.5 11.5t-11.5 29.5v43q0 18 11.5 30.5t29.5 12.5h49v34q0 78 38 121t107 43h115q62 0 100.5 -38t38.5 -101v-47q0 -57 -40 -98t-99 -41zM285 1513v-34h129q20 0 20 20v19q0 22 -24 22h-95q-30 0 -30 -27zM637 268h55q23 0 38 -15t15 -40v-158
q0 -23 -15 -39t-38 -16h-96q-162 0 -258 104t-96 281v576h-54q-31 0 -52 21t-21 52v119q0 31 21.5 53.5t51.5 22.5h246q31 0 52.5 -22.5t21.5 -53.5v-770q0 -115 129 -115z" />
    <glyph glyph-name="uniFB57" unicode="&#x67e;" horiz-adv-x="1703" arabic-form="final" 
d="M1704 268q23 0 38 -16t15 -39v-158q0 -25 -15 -40t-38 -15q-194 0 -277 111q-102 -111 -323 -111h-535q-210 0 -320 116t-110 324v125q0 155 107 262q20 23 51.5 25t54.5 -18l82 -74q45 -39 4 -105q-32 -46 -32 -118v-97q0 -75 46.5 -123.5t118.5 -48.5h537
q145 0 145 144v465q0 31 21.5 53t52.5 22h119q31 0 52.5 -22t21.5 -53v-437q0 -84 48 -128t136 -44zM803 -184v-148q0 -23 -15 -38t-36 -15h-156q-23 0 -38 16t-15 37v148q0 21 15 35t38 14h156q23 0 37 -14t14 -35zM954 -135h156q23 0 37 -14t14 -35v-148q0 -23 -15 -38
t-36 -15h-156q-20 0 -36.5 16.5t-16.5 36.5v148q0 21 15 35t38 14zM780 -442h144q43 0 43 -39v-121q0 -20 -12 -32.5t-31 -12.5h-144q-20 0 -33.5 12.5t-13.5 32.5v121q0 17 13.5 28t33.5 11z" />
    <glyph glyph-name="uniFB58" unicode="&#x67e;" horiz-adv-x="813" arabic-form="initial" 
d="M229 0h-229q-23 0 -38 15t-15 40v158q0 23 15 39t38 16h233q146 0 146 144v465q0 31 21.5 53t52.5 22h118q31 0 52.5 -22t21.5 -53v-463q0 -207 -99.5 -310.5t-316.5 -103.5zM217 -385h-156q-20 0 -36.5 16.5t-16.5 36.5v148q0 21 15 35t38 14h156q23 0 37 -14t14 -35
v-148q0 -23 -15 -38t-36 -15zM575 -385h-155q-23 0 -38 16t-15 37v148q0 21 15 35t38 14h155q23 0 37.5 -14t14.5 -35v-148q0 -23 -15.5 -38t-36.5 -15zM389 -647h-143q-20 0 -33.5 12.5t-13.5 32.5v121q0 17 13.5 28t33.5 11h143q43 0 43 -39v-121q0 -20 -12 -32.5
t-31 -12.5z" />
    <glyph glyph-name="uniFB59" unicode="&#x67e;" horiz-adv-x="884" arabic-form="medial" 
d="M811 268h74q23 0 38 -16t15 -39v-158q0 -25 -15 -40t-38 -15h-76q-172 0 -258 109q-103 -109 -322 -109h-229q-23 0 -38 15t-15 40v158q0 23 15 39t38 16h233q146 0 146 144v465q0 31 21.5 53t52.5 22h118q31 0 52.5 -22t21.5 -53v-437q0 -75 47 -123.5t119 -48.5z
M418 -184v-148q0 -23 -15 -38t-36 -15h-156q-23 0 -38 16t-15 37v148q0 21 15 35t38 14h156q23 0 37 -14t14 -35zM569 -135h156q23 0 37 -14t14 -35v-148q0 -23 -15 -38t-36 -15h-156q-20 0 -36.5 16.5t-16.5 36.5v148q0 21 15 35t38 14zM395 -442h144q43 0 43 -39v-121
q0 -20 -12 -32.5t-31 -12.5h-144q-20 0 -33.5 12.5t-13.5 32.5v121q0 17 13.5 28t33.5 11z" />
    <glyph glyph-name="uniFB67" unicode="&#x679;" horiz-adv-x="1703" arabic-form="final" 
d="M948 1077h-309q-18 0 -29.5 11.5t-11.5 29.5v43q0 18 11.5 30.5t29.5 12.5h49v256q0 33 35 33h49q33 0 33 -33v-59q6 2 29 2h114q62 0 100.5 -38t38.5 -101v-47q0 -57 -40 -98.5t-99 -41.5zM805 1239v-35h129q20 0 20 21v18q0 23 -24 23h-94q-31 0 -31 -27zM1704 268
q23 0 38 -16t15 -39v-158q0 -25 -15 -40t-38 -15q-194 0 -277 111q-102 -111 -323 -111h-535q-210 0 -320 116t-110 324v125q0 155 107 262q20 23 51.5 25t54.5 -18l82 -74q45 -39 4 -105q-32 -46 -32 -118v-97q0 -75 46.5 -123.5t118.5 -48.5h537q145 0 145 144v465
q0 31 21.5 53t52.5 22h119q31 0 52.5 -22t21.5 -53v-437q0 -84 48 -128t136 -44z" />
    <glyph glyph-name="uniFB68" unicode="&#x679;" horiz-adv-x="700" arabic-form="initial" 
d="M393 1403h115q62 0 100.5 -38t38.5 -101v-47q0 -57 -40 -98.5t-99 -41.5h-309q-18 0 -29.5 11.5t-11.5 29.5v43q0 18 11.5 30.5t29.5 12.5h49v256q0 33 35 33h49q33 0 33 -33v-59q6 2 28 2zM514 1225v18q0 23 -25 23h-94q-30 0 -30 -27v-35h129q20 0 20 21zM340 952h117
q31 0 53 -22t22 -53v-463q0 -207 -99 -310.5t-316 -103.5h-117q-23 0 -38 15t-15 40v158q0 23 15 39t38 16h119q145 0 145 144v465q0 31 22.5 53t53.5 22z" />
    <glyph glyph-name="uniFB69" unicode="&#x679;" horiz-adv-x="772" arabic-form="medial" 
d="M508 1077h-309q-18 0 -29.5 11.5t-11.5 29.5v43q0 18 11.5 30.5t29.5 12.5h49v256q0 33 35 33h49q33 0 33 -33v-59q6 2 28 2h115q62 0 100.5 -38t38.5 -101v-47q0 -57 -40 -98.5t-99 -41.5zM365 1239v-35h129q20 0 20 21v18q0 23 -25 23h-94q-30 0 -30 -27zM698 268h74
q23 0 38 -16t15 -39v-158q0 -25 -15 -40t-38 -15h-76q-168 0 -260 109q-103 -109 -319 -109h-117q-23 0 -38 15t-15 40v158q0 23 15 39t38 16h119q145 0 145 144v465q0 31 22.5 53t53.5 22h117q31 0 53 -22t22 -53v-437q0 -75 47 -123.5t119 -48.5z" />
    <glyph glyph-name="uniFB6B" unicode="&#x6a4;" horiz-adv-x="2007" arabic-form="final" 
d="M1460 1415h-143q-19 0 -33 11t-14 28v123q0 18 14 30.5t33 12.5h143q19 0 31 -12t12 -31v-123q0 -39 -43 -39zM1288 1108h-155q-23 0 -38.5 14.5t-15.5 34.5v148q0 23 15.5 38t38.5 15h155q21 0 36 -15t15 -38v-148q0 -20 -15.5 -34.5t-35.5 -14.5zM1438 1157v148
q0 23 16 38t37 15h156q21 0 36 -15t15 -38v-148q0 -20 -15.5 -34.5t-35.5 -14.5h-156q-23 0 -38 14t-15 35zM2007 268q23 0 38 -16t15 -39v-158q0 -25 -15 -40t-38 -15q-205 0 -287 123q-114 -123 -305 -123h-846q-210 0 -320 116t-110 324v125q0 155 107 262q20 23 51.5 25
t54.5 -18l82 -74q45 -39 4 -105q-32 -46 -32 -118v-97q0 -75 46.5 -123.5t118.5 -48.5h445l-88 293q0 166 102 289t307 123h78q188 0 299 -109t111 -303v-121q0 -172 182 -172zM1556 420v143q0 57 -41 99.5t-96 42.5h-86q-67 0 -105 -44.5t-38 -117.5l72 -275h157
q58 0 97.5 42t39.5 110z" />
    <glyph glyph-name="uniFB6C" unicode="&#x6a4;" horiz-adv-x="1169" arabic-form="initial" 
d="M637 1415h-143q-19 0 -33.5 11t-14.5 28v123q0 18 14.5 30.5t33.5 12.5h143q19 0 31 -12t12 -31v-123q0 -39 -43 -39zM465 1108h-156q-23 0 -38 14t-15 35v148q0 23 15 38t38 15h156q21 0 36 -15t15 -38v-148q0 -20 -15.5 -34.5t-35.5 -14.5zM614 1157v148q0 23 16.5 38
t37.5 15h155q21 0 36 -15t15 -38v-148q0 -20 -15.5 -34.5t-35.5 -14.5h-155q-23 0 -38.5 14.5t-15.5 34.5zM524 973h78q188 0 298 -109t110 -303v-139q0 -197 -115 -309q-113 -113 -293 -113h-600q-24 0 -39.5 15.5t-15.5 39.5v158q0 23 16 39t39 16h199l-86 293
q0 166 102 289t307 123zM743 420v143q0 57 -41 99.5t-96 42.5h-86q-67 0 -105 -44.5t-38 -117.5l72 -275h157q58 0 97.5 42t39.5 110z" />
    <glyph glyph-name="uniFB6D" unicode="&#x6a4;" horiz-adv-x="1193" arabic-form="medial" 
d="M637 1415h-143q-19 0 -33.5 11t-14.5 28v123q0 18 14.5 30.5t33.5 12.5h143q19 0 31 -12t12 -31v-123q0 -39 -43 -39zM465 1108h-156q-23 0 -38 14t-15 35v148q0 23 15 38t38 15h156q21 0 36 -15t15 -38v-148q0 -20 -15.5 -34.5t-35.5 -14.5zM614 1157v148q0 23 16.5 38
t37.5 15h155q21 0 36 -15t15 -38v-148q0 -20 -15.5 -34.5t-35.5 -14.5h-155q-23 0 -38.5 14.5t-15.5 34.5zM1194 268q23 0 38 -16t15 -39v-158q0 -25 -15 -40t-38 -15q-205 0 -287 125q-113 -125 -305 -125h-600q-24 0 -39.5 15.5t-15.5 39.5v158q0 23 16 39t39 16h199
l-86 293q0 166 102 289t307 123h78q188 0 298 -109t110 -303v-121q0 -84 48 -128t136 -44zM743 420v143q0 57 -41 99.5t-96 42.5h-86q-67 0 -105 -44.5t-38 -117.5l72 -275h157q58 0 97.5 42t39.5 110z" />
    <glyph glyph-name="uniFB7B" unicode="&#x686;" horiz-adv-x="1294" arabic-form="final" 
d="M1194 268h100q23 0 38.5 -16t15.5 -39v-158q0 -25 -15 -40t-39 -15h-700q-99 0 -153 -44t-54 -120v-59q0 -85 121 -156q45 -26 24 -88l-40 -102q-12 -27 -41 -39t-58 -2q-124 44 -200 135t-76 221v135q0 168 135 279q132 108 348 108h209q-64 79 -64 193v104
q0 65 -39 101t-102 36h-51q-57 0 -115 -43q-63 -42 -104 5l-74 86q-21 25 -21 54t23 52q49 46 124 81.5t142 35.5h93q186 0 288.5 -110t102.5 -292v-139q0 -162 168 -162q12 0 14 -2zM856 -186v-125q0 -19 -12.5 -33t-30.5 -14h-133q-19 0 -32 14t-13 33v125q0 17 13 29
t32 12h133q19 0 31 -12t12 -29zM985 -145h131q19 0 31 -12t12 -29v-125q0 -19 -12.5 -33t-30.5 -14h-131q-19 0 -32 14t-13 33v125q0 17 13 29t32 12zM836 -406h122q37 0 37 -32v-105q0 -14 -10.5 -25.5t-26.5 -11.5h-122q-17 0 -28 11.5t-11 25.5v105q0 32 39 32z" />
    <glyph glyph-name="uniFB7C" unicode="&#x686;" horiz-adv-x="1200" arabic-form="initial" 
d="M1077 270q23 0 39.5 -16t16.5 -39v-160q0 -24 -16 -39.5t-40 -15.5h-1075q-24 0 -39.5 15.5t-15.5 39.5v158q0 23 16 39t39 16h705q-64 79 -64 193v104q0 65 -38 101t-101 36h-51q-59 0 -117 -43q-60 -43 -105 5l-73 86q-21 24 -20 53.5t24 52.5q47 44 123.5 80.5
t142.5 36.5h90q186 0 289.5 -110.5t103.5 -291.5v-139q0 -162 166 -162zM483 -184v-148q0 -23 -15 -38t-36 -15h-156q-23 0 -38 16t-15 37v148q0 21 15 35t38 14h156q23 0 37 -14t14 -35zM635 -135h156q23 0 37 -14t14 -35v-148q0 -23 -15 -38t-36 -15h-156
q-20 0 -36.5 16.5t-16.5 36.5v148q0 21 15 35t38 14zM461 -442h143q43 0 43 -39v-121q0 -20 -12 -32.5t-31 -12.5h-143q-20 0 -33.5 12.5t-13.5 32.5v121q0 17 13.5 28t33.5 11z" />
    <glyph glyph-name="uniFB7D" unicode="&#x686;" horiz-adv-x="1198" arabic-form="medial" 
d="M1092 268h106q23 0 39 -16t16 -39v-158q0 -24 -15.5 -39.5t-39.5 -15.5h-1196q-24 0 -39.5 15.5t-15.5 39.5v158q0 23 16 39t39 16h705q-64 79 -64 193v104q0 65 -38 101t-101 36h-51q-59 0 -117 -43q-60 -43 -105 5l-73 86q-21 24 -20 53.5t24 52.5q47 44 123.5 80.5
t142.5 36.5h90q186 0 289.5 -110.5t103.5 -291.5v-139q0 -162 166 -162q13 0 15 -2zM481 -184v-148q0 -23 -15 -38t-36 -15h-156q-20 0 -36.5 16.5t-16.5 36.5v148q0 21 15 35t38 14h156q23 0 37 -14t14 -35zM633 -135h155q23 0 37.5 -14t14.5 -35v-148q0 -23 -15.5 -38
t-36.5 -15h-155q-23 0 -38 16t-15 37v148q0 21 15 35t38 14zM459 -442h143q43 0 43 -39v-121q0 -20 -12 -32.5t-31 -12.5h-143q-20 0 -33.5 12.5t-13.5 32.5v121q0 17 13.5 28t33.5 11z" />
    <glyph glyph-name="uniFB89" unicode="&#x688;" horiz-adv-x="1165" arabic-form="final" 
d="M631 1139h-309q-18 0 -29.5 11.5t-11.5 29.5v43q0 18 11.5 30.5t29.5 12.5h49v256q0 32 35 32h49q17 0 24.5 -7.5t7.5 -24.5v-60q6 2 29 2h115q62 0 100.5 -38t38.5 -101v-47q0 -57 -40 -98t-99 -41zM487 1300v-34h129q21 0 21 20v19q0 22 -25 22h-94q-31 0 -31 -27z
M1165 268q23 0 38.5 -16t15.5 -39v-158q0 -25 -15.5 -40t-38.5 -15q-199 0 -278 82q-110 -82 -277 -82h-248q-143 0 -266 102q-24 19 -27.5 49.5t15.5 53.5l70 96q18 26 48 28.5t56 -18.5q64 -43 129 -43h180q75 0 120.5 51t35.5 123l-29 168q-10 60 -54 96.5t-101 36.5h-19
q-31 0 -52.5 22.5t-21.5 53.5v119q0 31 21.5 53.5t52.5 22.5h17q373 0 419 -316l43 -309q35 -121 166 -121z" />
    <glyph glyph-name="uniFB8B" unicode="&#x698;" horiz-adv-x="823" arabic-form="final" 
d="M586 1395h-144q-19 0 -33 11t-14 28v122q0 18 14 30.5t33 12.5h144q19 0 31 -12t12 -31v-122q0 -39 -43 -39zM414 1087h-156q-23 0 -38 14.5t-15 35.5v147q0 23 16 38t37 15h156q21 0 36 -15t15 -38v-147q0 -20 -15.5 -35t-35.5 -15zM563 1137v147q0 23 15 38t38 15h156
q21 0 36 -15t15 -38v-147q0 -20 -15.5 -35t-35.5 -15h-156q-23 0 -38 14.5t-15 35.5zM823 268q23 0 38.5 -16t15.5 -39v-158q0 -25 -15.5 -40t-38.5 -15q-106 0 -184 35v-41q0 -215 -100 -325.5t-295 -110.5h-25q-146 0 -264 100q-24 21 -28 52.5t14 58.5l59 77q44 52 102 9
q39 -31 115 -31h29q72 0 99.5 37t27.5 131v885q0 31 21 53t52 22h119q31 0 52.5 -22t21.5 -53v-437q0 -84 48 -128t136 -44z" />
    <glyph glyph-name="uniFB8D" unicode="&#x691;" horiz-adv-x="823" arabic-form="final" 
d="M616 1077h-309q-18 0 -29.5 11.5t-11.5 29.5v43q0 18 11.5 30.5t29.5 12.5h49v256q0 33 35 33h49q33 0 33 -33v-59q6 2 29 2h114q62 0 101 -38t39 -101v-47q0 -57 -40.5 -98.5t-99.5 -41.5zM473 1239v-35h129q21 0 21 21v18q0 23 -25 23h-94q-31 0 -31 -27zM823 268
q23 0 38.5 -16t15.5 -39v-158q0 -25 -15.5 -40t-38.5 -15q-106 0 -184 35v-41q0 -215 -100 -325.5t-295 -110.5h-25q-146 0 -264 100q-24 21 -28 52.5t14 58.5l59 77q44 52 102 9q39 -31 115 -31h29q72 0 99.5 37t27.5 131v885q0 31 21 53t52 22h119q31 0 52.5 -22t21.5 -53
v-437q0 -84 48 -128t136 -44z" />
    <glyph glyph-name="uniFB8F" unicode="&#x6a9;" horiz-adv-x="1816" arabic-form="final" 
d="M1817 268q23 0 38 -16t15 -39v-158q0 -25 -15 -40t-38 -15q-187 0 -269 98q-94 -98 -311 -98h-360h-3h-305q-210 0 -320 116t-110 324v125q0 155 107 262q20 23 51.5 25t54.5 -18l82 -74q45 -39 4 -105q-32 -46 -32 -118v-97q0 -75 46.5 -123.5t118.5 -48.5h303h3h364
q69 0 98 29t29 98v207l-551 96q-61 12 -76 68l-57 217q-11 32 -3 55t38 43l848 570q25 17 51.5 3.5t26.5 -44.5v-174q0 -58 -54 -93l-616 -376l6 -25l575 -102q80 -12 80 -92v-351v-2q24 -127 181 -127z" />
    <glyph glyph-name="uniFB90" unicode="&#x6a9;" horiz-adv-x="1253" arabic-form="initial" 
d="M1085 1610v-174q0 -58 -53 -93l-616 -376l6 -25l575 -102q80 -12 80 -92v-351q0 -206 -90.5 -301.5t-308.5 -95.5h-676q-55 0 -55 76v119q0 73 55 73h680q69 0 98 29t29 98v207l-551 96q-61 12 -76 68l-57 217q-11 32 -3 55t38 43l848 570q25 17 51 3.5t26 -44.5z" />
    <glyph glyph-name="uniFB91" unicode="&#x6a9;" horiz-adv-x="1259" arabic-form="medial" 
d="M1260 268q23 0 38 -16t15 -39v-158q0 -25 -15 -40t-38 -15q-184 0 -271 100q-87 -100 -311 -100h-676q-55 0 -55 76v119q0 73 55 73h680q69 0 98 29t29 98v207l-551 96q-61 12 -76 68l-57 217q-11 32 -3 55t38 43l848 570q25 17 51 3.5t26 -44.5v-174q0 -58 -53 -93
l-616 -376l6 -25l575 -102q80 -12 80 -92v-340q18 -140 183 -140z" />
    <glyph glyph-name="uniFB93" unicode="&#x6af;" horiz-adv-x="1816" arabic-form="final" 
d="M1477 1769l-789 -530q-18 -12 -18 6v107q0 23 14 37l789 532q18 12 18 -8v-109q0 -24 -14 -35zM1817 268q23 0 38 -16t15 -39v-158q0 -25 -15 -40t-38 -15q-187 0 -269 98q-94 -98 -311 -98h-360h-3h-305q-210 0 -320 116t-110 324v125q0 155 107 262q20 23 51.5 25
t54.5 -18l82 -74q45 -39 4 -105q-32 -46 -32 -118v-97q0 -75 46.5 -123.5t118.5 -48.5h303h3h364q69 0 98 29t29 98v207l-551 96q-61 12 -76 68l-57 217q-11 32 -3 55t38 43l848 570q25 17 51.5 3.5t26.5 -44.5v-174q0 -58 -54 -93l-616 -376l6 -25l575 -102q80 -12 80 -92
v-351v-2q24 -127 181 -127z" />
    <glyph glyph-name="uniFB94" unicode="&#x6af;" horiz-adv-x="1253" arabic-form="initial" 
d="M918 1769l-789 -530q-18 -12 -18 6v107q0 23 14 37l788 532q19 13 19 -8v-109q0 -24 -14 -35zM1085 1610v-174q0 -58 -53 -93l-616 -376l6 -25l575 -102q80 -12 80 -92v-351q0 -206 -90.5 -301.5t-308.5 -95.5h-676q-55 0 -55 76v119q0 73 55 73h680q69 0 98 29t29 98
v207l-551 96q-61 12 -76 68l-57 217q-11 32 -3 55t38 43l848 570q25 17 51 3.5t26 -44.5z" />
    <glyph glyph-name="uniFB95" unicode="&#x6af;" horiz-adv-x="1259" arabic-form="medial" 
d="M918 1769l-789 -530q-18 -12 -18 6v107q0 23 14 37l788 532q19 13 19 -8v-109q0 -24 -14 -35zM1260 268q23 0 38 -16t15 -39v-158q0 -25 -15 -40t-38 -15q-184 0 -271 100q-87 -100 -311 -100h-676q-55 0 -55 76v119q0 73 55 73h680q69 0 98 29t29 98v207l-551 96
q-61 12 -76 68l-57 217q-11 32 -3 55t38 43l848 570q25 17 51 3.5t26 -44.5v-174q0 -58 -53 -93l-616 -376l6 -25l575 -102q80 -12 80 -92v-340q18 -140 183 -140z" />
    <glyph glyph-name="uniFB9F" unicode="&#x6ba;" horiz-adv-x="1433" arabic-form="final" 
d="M1434 268q23 0 38 -16t15 -39v-158q0 -25 -15 -40t-38 -15q-107 0 -185 35v-55q0 -207 -102 -312.5t-320 -105.5h-235q-220 0 -336 131q-117 132 -117 311q0 221 121 389q18 27 46.5 34t55.5 -11l89 -60q26 -17 32.5 -47.5t-10.5 -56.5q-65 -109 -65 -215
q0 -99 48.5 -153t135.5 -54h239q152 0 152 145v756q0 31 22.5 53.5t53.5 22.5h117q30 0 51.5 -22.5t21.5 -53.5v-291q0 -84 48 -128t137 -44z" />
    <glyph glyph-name="uniFBA5" unicode="&#x6c0;" horiz-adv-x="1177" arabic-form="final" 
d="M733 1155h-391q-19 0 -31 12t-12 31v68q0 18 12.5 31.5t30.5 13.5h39q-10 33 -10 57v51q0 91 61 151t152 60h20q88 0 154 -63q35 -31 2 -64l-41 -43q-35 -35 -70 -4q-19 19 -45 19h-20q-25 0 -41.5 -16.5t-16.5 -39.5v-41q0 -30 16 -48.5t42 -18.5h149q18 0 31.5 -15
t13.5 -30v-68q0 -19 -12.5 -31t-32.5 -12zM1130 270h48q24 0 39.5 -15.5t15.5 -39.5v-160q0 -23 -16 -39t-39 -16h-88q-204 0 -299 164q-88 -101 -234 -101h-72q-145 0 -245 95q-101 94 -101 241v162q0 186 106 299t283 113h50q91 0 159 -51v59q0 31 22.5 53.5t53.5 22.5
h117q31 0 53.5 -22.5t22.5 -53.5v-596q0 -56 33 -85.5t91 -29.5zM545 332h53q67 0 103 40.5t36 110.5v80q0 66 -39 104t-100 38h-53q-58 0 -98.5 -39t-40.5 -103v-78q0 -153 139 -153z" />
    <glyph glyph-name="uniFBA7" unicode="&#x6c1;" horiz-adv-x="1181" arabic-form="final" 
d="M1182 0h-82q-161 0 -262 92t-101 244v219q0 150 -147 150h-33q-73 0 -111 -40t-38 -110l-2 -231q0 -31 -21.5 -53.5t-52.5 -22.5h-119q-31 0 -52.5 22.5t-21.5 53.5v219q0 186 105 309q103 121 315 121h29q418 0 418 -420v-129q0 -71 42.5 -113.5t110.5 -42.5h23
q23 0 38 -16t15 -39v-158q0 -25 -15 -40t-38 -15z" />
    <glyph glyph-name="uniFBA8" unicode="&#x6c1;" horiz-adv-x="700" arabic-form="initial" 
d="M532 877v-463q0 -262 -159 -357l-39 -141h63q31 0 52.5 -21.5t21.5 -52.5v-184q0 -31 -21.5 -52.5t-52.5 -21.5h-170q-32 0 -53.5 21.5t-21.5 52.5v184q0 67 20 148l4 12q-12 -2 -59 -2h-117q-23 0 -38 15t-15 40v158q0 23 15 39t38 16h119q145 0 145 144v465
q0 31 22.5 53t53.5 22h117q31 0 53 -22t22 -53z" />
    <glyph glyph-name="uniFBA9" unicode="&#x6c1;" horiz-adv-x="1579" arabic-form="medial" 
d="M719 268h860q23 0 38 -16t15 -39v-158q0 -25 -15 -40t-38 -15h-219l-43 -154h63q31 0 53.5 -21.5t22.5 -51.5v-185q0 -30 -22.5 -51.5t-53.5 -21.5h-170q-31 0 -53 21t-22 52v185q0 64 22 147l21 80h-271l82 -244q22 -66 6 -94l-30 -63q-18 -41 -88 -41h-338
q-167 0 -277 104q-110 107 -110 285v53h-152q-23 0 -38 15t-15 40v158q0 23 15 39t38 16h152v369q0 31 21.5 53.5t51.5 22.5h117q32 0 54 -22.5t22 -53.5v-692q0 -57 31 -88t86 -31h170l-97 244q-23 59 -8 94l31 63q18 41 88 41z" />
    <glyph glyph-name="uniFBAB" unicode="&#x6be;" horiz-adv-x="1394" arabic-form="final" 
d="M1214 268h179q23 0 38 -16t15 -39v-158q0 -25 -15 -40t-38 -15h-240l90 -244q27 -58 8 -94l-30 -63q-18 -41 -88 -41h-338q-167 0 -277 104t-110 281v57h-21q-69 0 -127 -43q-63 -46 -104 10l-70 96q-19 25 -16 54t28 49q123 102 267 102h43v293q0 176 110 295
q108 117 279 117h98q169 -3 276 -119q107 -119 107 -293v-121q0 -90 -64 -172zM895 705h-100q-53 0 -87 -38t-34 -104v-295h182q67 0 111.5 50t44.5 120v125q0 139 -117 142zM791 -174h157l-65 174h-209v-59q0 -115 117 -115z" />
    <glyph glyph-name="uniFBAC" unicode="&#x6be;" horiz-adv-x="1476" arabic-form="initial" 
d="M623 1303h225q209 0 340 -119q133 -121 133 -336v-410q0 -198 -96 -318t-256 -120h-967q-24 0 -39.5 15.5t-15.5 39.5v158q0 23 16 39t39 16h166l-70 248q0 140 113 244q111 102 258 102h86q139 0 244 -102q104 -101 104 -244v-84q0 -93 -39 -164h64q66 0 96.5 40
t30.5 130v410q0 186 -203 186h-188q-78 0 -136 -37q-66 -34 -104 13l-68 88q-20 25 -16 55.5t29 50.5q114 99 254 99zM535 594h-66q-48 0 -76 -34.5t-28 -94.5l51 -197h108q111 0 111 109v88q0 129 -100 129z" />
    <glyph glyph-name="uniFBAD" unicode="&#x6be;" horiz-adv-x="1134" arabic-form="medial" 
d="M958 270h177q23 0 39 -16t16 -39v-160q0 -24 -15.5 -39.5t-39.5 -15.5h-240l92 -244q21 -60 6 -94l-30 -63q-18 -41 -89 -41h-337q-167 0 -277 104t-110 285v53h-150q-23 0 -38 15t-15 40v160q0 23 15 39t38 16h150v291q0 176 110 295q108 117 281 117h94
q171 -3 278 -119q109 -121 109 -293v-121q0 -88 -64 -170zM635 705h-98q-53 0 -87 -38t-34 -104v-293h184q65 0 109.5 50t44.5 120v123q0 66 -32 103t-87 39zM535 -174h155l-65 174h-209v-55q0 -119 119 -119z" />
    <glyph glyph-name="uniFBAF" unicode="&#x6d2;" horiz-adv-x="1591" arabic-form="final" 
d="M174 268h1397q31 0 53.5 -22t22.5 -53v-117q0 -31 -22.5 -53.5t-53.5 -22.5h-1206v-139q0 -148 135 -148h307q77 0 121 33q57 40 102 -8l66 -76q20 -20 18.5 -52t-24.5 -52q-119 -113 -277 -113h-313q-198 0 -300 111t-102 325v314q0 31 22 52t54 21z" />
    <glyph glyph-name="uniFBB1" unicode="&#x6d3;" horiz-adv-x="1591" arabic-form="final" 
d="M1067 399h-391q-19 0 -31 12t-12 31v68q0 18 12.5 31.5t30.5 13.5h39q-10 33 -10 57v52q0 90 61 150t152 60h20q88 0 154 -63q35 -30 2 -63l-41 -43q-35 -35 -70 -5q-19 19 -45 19h-20q-25 0 -41.5 -16t-16.5 -39v-41q0 -30 16 -49t42 -19h149q18 0 31.5 -15t13.5 -30
v-68q0 -17 -13 -30t-32 -13zM174 268h1397q31 0 53.5 -22t22.5 -53v-117q0 -31 -22.5 -53.5t-53.5 -22.5h-1206v-139q0 -148 135 -148h307q77 0 121 33q57 40 102 -8l66 -76q20 -20 18.5 -52t-24.5 -52q-119 -113 -277 -113h-313q-198 0 -300 111t-102 325v314q0 31 22 52
t54 21z" />
    <glyph glyph-name="uniFBFD" unicode="&#x6cc;" horiz-adv-x="2007" arabic-form="final" 
d="M1829 268h178q53 0 53 -75v-117q0 -76 -53 -76h-371q-31 0 -53 22.5t-22 53.5v608h-162q-150 0 -150 -154v-555q0 -207 -102 -312t-320 -105h-235q-220 0 -336 131q-117 132 -117 311q0 221 121 389q18 27 46.5 34t55.5 -11l89 -60q26 -17 32.5 -47t-10.5 -55
q-48 -83 -60.5 -164t7 -139t65 -91.5t107.5 -29.5h239q152 0 152 145v557q0 212 99.5 318t316.5 106h354q31 0 53.5 -22t22.5 -53v-609z" />
    <glyph glyph-name="uniFBFE" unicode="&#x6cc;" horiz-adv-x="813" arabic-form="initial" 
d="M229 0h-229q-23 0 -38 15t-15 40v158q0 23 15 39t38 16h233q146 0 146 144v465q0 31 21.5 53t52.5 22h118q31 0 52.5 -22t21.5 -53v-463q0 -207 -99.5 -310.5t-316.5 -103.5zM215 -385h-156q-23 0 -38 16t-15 37v148q0 21 15 35t38 14h156q23 0 37 -14t14 -35v-148
q0 -23 -15 -38t-36 -15zM573 -385h-155q-20 0 -36.5 16.5t-16.5 36.5v148q0 21 15 35t38 14h155q23 0 37.5 -14t14.5 -35v-148q0 -23 -15.5 -38t-36.5 -15z" />
    <glyph glyph-name="uniFBFF" unicode="&#x6cc;" horiz-adv-x="884" arabic-form="medial" 
d="M811 268h74q23 0 38 -16t15 -39v-158q0 -25 -15 -40t-38 -15h-76q-172 0 -258 109q-103 -109 -322 -109h-229q-23 0 -38 15t-15 40v158q0 23 15 39t38 16h233q146 0 146 144v465q0 31 21.5 53t52.5 22h118q31 0 52.5 -22t21.5 -53v-437q0 -75 47 -123.5t119 -48.5z
M209 -135h156q23 0 37 -14t14 -35v-148q0 -23 -15 -38t-36 -15h-156q-20 0 -36.5 16.5t-16.5 36.5v148q0 21 15 35t38 14zM567 -135h156q23 0 37 -14t14 -35v-148q0 -23 -15 -38t-36 -15h-156q-23 0 -38 16t-15 37v148q0 21 15 35t38 14z" />
    <glyph glyph-name="uniFE82" unicode="&#x622;" horiz-adv-x="692" arabic-form="final" 
d="M180 1397q0 -45 -41 -45h-65q-19 0 -31 11.5t-12 33.5q0 81 49.5 133.5t124.5 52.5q59 0 139 -51q53 -35 90 -35q29 0 29 43q0 19 11.5 31t33.5 12h65q14 0 27.5 -13t13.5 -30q0 -85 -48 -136.5t-126 -51.5q-53 0 -141 49q-65 35 -84 35q-35 0 -35 -39zM637 268h55
q23 0 38 -15t15 -40v-158q0 -23 -15 -39t-38 -16h-96q-162 0 -258 104t-96 281v576h-54q-31 0 -52 21t-21 52v119q0 31 21.5 53.5t51.5 22.5h246q31 0 52.5 -22.5t21.5 -53.5v-770q0 -115 129 -115z" />
    <glyph glyph-name="uniFE84" unicode="&#x623;" horiz-adv-x="692" arabic-form="final" 
d="M518 1352h-391q-19 0 -31 12t-12 31v67q0 18 12.5 31.5t30.5 13.5h39q-10 33 -10 58v51q0 91 61 151t152 60h20q87 0 154 -64q35 -30 2 -63l-41 -43q-35 -35 -70 -4q-18 18 -45 18h-20q-25 0 -41.5 -16t-16.5 -39v-41q0 -30 16 -49t42 -19h149q18 0 31.5 -15t13.5 -30
v-67q0 -19 -13 -31t-32 -12zM637 268h55q23 0 38 -15t15 -40v-158q0 -23 -15 -39t-38 -16h-96q-162 0 -258 104t-96 281v576h-54q-31 0 -52 21t-21 52v119q0 31 21.5 53.5t51.5 22.5h246q31 0 52.5 -22.5t21.5 -53.5v-770q0 -115 129 -115z" />
    <glyph glyph-name="uniFE86" unicode="&#x624;" horiz-adv-x="1179" arabic-form="final" 
d="M727 1077h-412q-19 0 -31 12t-12 31v109q0 18 12.5 31.5t30.5 13.5h43q-14 25 -14 57v72q0 86 72 149q71 62 162 62h20q82 0 160 -72q26 -23 2 -63l-47 -76q-17 -26 -60 -4q-41 18 -59 18h-16q-25 0 -41.5 -16t-16.5 -39v-21q0 -30 16 -48.5t42 -18.5h149q18 0 31.5 -15
t13.5 -30v-109q0 -19 -13 -31t-32 -12zM1018 268h160q23 0 39 -16t16 -39v-158q0 -24 -15.5 -39.5t-39.5 -15.5h-160v-6q0 -214 -103 -325t-301 -111h-172q-154 0 -276 110q-23 23 -25.5 53.5t17.5 53.5l67 73q42 51 103 11q44 -33 118 -33h170q131 0 134 147v27h-254
q-146 0 -248 102q-101 101 -101 252v207q0 165 115 289q114 123 277 123h88q163 0 278 -115q111 -117 111 -297v-78q2 -2 2 -16v-199zM416 563v-123q0 -77 36.5 -124.5t102.5 -47.5h195v295q0 65 -40.5 103.5t-99.5 38.5h-55q-58 0 -98.5 -39t-40.5 -103z" />
    <glyph glyph-name="uniFE88" unicode="&#x625;" horiz-adv-x="692" arabic-form="final" 
d="M637 268h55q23 0 38 -15t15 -40v-158q0 -23 -15 -39t-38 -16h-96q-162 0 -258 104t-96 281v805h-54q-31 0 -52 21.5t-21 52.5v118q0 31 21.5 53.5t51.5 22.5h246q31 0 53.5 -22.5t22.5 -53.5v-999q0 -115 127 -115zM391 -442h150q18 0 31.5 -15t13.5 -30v-68
q0 -19 -12.5 -31t-32.5 -12h-391q-19 0 -31.5 12t-12.5 31v68q0 18 13 31.5t31 13.5h38q-10 33 -10 57v51q0 91 61 151t152 60h21q87 0 153 -63q35 -31 2 -64l-41 -43q-34 -34 -69 -4q-18 18 -45 18h-21q-25 0 -41 -16t-16 -39v-41q0 -30 15.5 -48.5t41.5 -18.5z" />
    <glyph glyph-name="uniFE8A" unicode="&#x626;" horiz-adv-x="2007" arabic-form="final" 
d="M1710 1075h-391q-19 0 -31 12t-12 31v68q0 18 12.5 31.5t30.5 13.5h39q-10 33 -10 57v51q0 91 61 151t152 60h20q88 0 154 -63q35 -31 2 -64l-41 -43q-35 -35 -70 -4q-19 19 -45 19h-20q-25 0 -41.5 -16.5t-16.5 -39.5v-41q0 -30 16 -48.5t42 -18.5h149q18 0 31.5 -15
t13.5 -30v-68q0 -17 -13 -30t-32 -13zM1829 268h178q53 0 53 -75v-117q0 -76 -53 -76h-371q-31 0 -53 22.5t-22 53.5v608h-162q-150 0 -150 -154v-555q0 -207 -102 -312t-320 -105h-235q-220 0 -336 131q-117 132 -117 311q0 221 121 389q18 27 46.5 34t55.5 -11l89 -60
q26 -17 32.5 -47t-10.5 -55q-48 -83 -60.5 -164t7 -139t65 -91.5t107.5 -29.5h239q152 0 152 145v557q0 212 99.5 318t316.5 106h354q31 0 53.5 -22t22.5 -53v-609z" />
    <glyph glyph-name="uniFE8B" unicode="&#x626;" horiz-adv-x="700" arabic-form="initial" 
d="M449 1231h149q18 0 31.5 -15t13.5 -30v-68q0 -18 -12.5 -30.5t-32.5 -12.5h-391q-19 0 -31 12t-12 31v68q0 18 12.5 31.5t30.5 13.5h39q-10 33 -10 57v51q0 91 61 151t152 60h20q88 0 154 -63q35 -31 2 -64l-41 -43q-35 -35 -70 -4q-19 19 -45 19h-20q-25 0 -41.5 -16.5
t-16.5 -39.5v-41q0 -30 16 -48.5t42 -18.5zM340 952h117q31 0 53 -22t22 -53v-463q0 -207 -99 -310.5t-316 -103.5h-117q-23 0 -38 15t-15 40v158q0 23 15 39t38 16h119q145 0 145 144v465q0 31 22.5 53t53.5 22z" />
    <glyph glyph-name="uniFE8C" unicode="&#x626;" horiz-adv-x="772" arabic-form="medial" 
d="M598 1075h-391q-19 0 -31 12t-12 31v68q0 18 12.5 31.5t30.5 13.5h39q-10 33 -10 57v51q0 91 61 151t152 60h20q88 0 154 -63q35 -31 2 -64l-41 -43q-35 -35 -70 -4q-19 19 -45 19h-20q-25 0 -41.5 -16.5t-16.5 -39.5v-41q0 -30 16 -48.5t42 -18.5h149q18 0 31.5 -15
t13.5 -30v-68q0 -18 -12.5 -30.5t-32.5 -12.5zM698 268h74q23 0 38 -16t15 -39v-158q0 -25 -15 -40t-38 -15h-76q-168 0 -260 109q-103 -109 -319 -109h-117q-23 0 -38 15t-15 40v158q0 23 15 39t38 16h119q145 0 145 144v465q0 31 22.5 53t53.5 22h117q31 0 53 -22t22 -53
v-437q0 -75 47 -123.5t119 -48.5z" />
    <glyph glyph-name="uniFE8E" unicode="&#x627;" horiz-adv-x="692" arabic-form="final" 
d="M637 268h55q23 0 38 -15t15 -40v-158q0 -23 -15 -39t-38 -16h-96q-162 0 -258 104t-96 281v805h-54q-31 0 -52 21.5t-21 52.5v118q0 31 21.5 53.5t51.5 22.5h246q31 0 53.5 -22.5t22.5 -53.5v-999q0 -115 127 -115z" />
    <glyph glyph-name="uniFE90" unicode="&#x628;" horiz-adv-x="1703" arabic-form="final" 
d="M1704 268q23 0 38 -16t15 -39v-158q0 -25 -15 -40t-38 -15q-194 0 -277 111q-102 -111 -323 -111h-535q-210 0 -320 116t-110 324v125q0 155 107 262q20 23 51.5 25t54.5 -18l82 -74q45 -39 4 -105q-32 -46 -32 -118v-97q0 -75 46.5 -123.5t118.5 -48.5h537
q145 0 145 144v465q0 31 21.5 53t52.5 22h119q31 0 52.5 -22t21.5 -53v-437q0 -84 48 -128t136 -44zM770 -135h160q23 0 38 -14t15 -37v-150q0 -24 -15 -40.5t-38 -16.5h-160q-23 0 -39 17t-16 40v150q0 23 15.5 37t39.5 14z" />
    <glyph glyph-name="uniFE91" unicode="&#x628;" horiz-adv-x="700" arabic-form="initial" 
d="M117 0h-117q-23 0 -38 15t-15 40v158q0 23 15 39t38 16h119q145 0 145 144v465q0 31 22.5 53t53.5 22h117q31 0 53 -22t22 -53v-463q0 -207 -99 -310.5t-316 -103.5zM326 -393h-160q-23 0 -39 17t-16 40v150q0 23 15.5 37t39.5 14h160q23 0 38 -14t15 -37v-150
q0 -24 -15 -40.5t-38 -16.5z" />
    <glyph glyph-name="uniFE92" unicode="&#x628;" horiz-adv-x="772" arabic-form="medial" 
d="M698 268h74q23 0 38 -16t15 -39v-158q0 -25 -15 -40t-38 -15h-76q-168 0 -260 109q-103 -109 -319 -109h-117q-23 0 -38 15t-15 40v158q0 23 15 39t38 16h119q145 0 145 144v465q0 31 22.5 53t53.5 22h117q31 0 53 -22t22 -53v-437q0 -75 47 -123.5t119 -48.5zM315 -135
h160q23 0 38 -14t15 -37v-150q0 -24 -15 -40.5t-38 -16.5h-160q-23 0 -39 17t-16 40v150q0 23 15.5 37t39.5 14z" />
    <glyph glyph-name="uniFE94" unicode="&#x629;" horiz-adv-x="1177" arabic-form="final" 
d="M438 1167h-155q-23 0 -39.5 16.5t-16.5 37.5v149q0 20 16.5 33.5t39.5 13.5h155q20 0 34.5 -13.5t14.5 -33.5v-149q0 -23 -14.5 -38.5t-34.5 -15.5zM797 1167h-156q-23 0 -38 16.5t-15 37.5v149q0 20 15 33.5t38 13.5h156q20 0 34.5 -13.5t14.5 -33.5v-149
q0 -23 -14.5 -38.5t-34.5 -15.5zM1130 270h48q24 0 39.5 -15.5t15.5 -39.5v-160q0 -23 -16 -39t-39 -16h-88q-204 0 -299 164q-88 -101 -234 -101h-72q-145 0 -245 95q-101 94 -101 241v162q0 186 106 299t283 113h50q91 0 159 -51v59q0 31 22.5 53.5t53.5 22.5h117
q31 0 53.5 -22.5t22.5 -53.5v-596q0 -56 33 -85.5t91 -29.5zM545 332h53q67 0 103 40.5t36 110.5v80q0 66 -39 104t-100 38h-53q-58 0 -98.5 -39t-40.5 -103v-78q0 -153 139 -153z" />
    <glyph glyph-name="uniFE96" unicode="&#x62a;" horiz-adv-x="1703" arabic-form="final" 
d="M745 1087h-155q-23 0 -39 16.5t-16 37.5v149q0 20 16 33.5t39 13.5h155q21 0 35.5 -13.5t14.5 -33.5v-149q0 -23 -14.5 -38.5t-35.5 -15.5zM1104 1087h-156q-23 0 -38 15.5t-15 38.5v149q0 20 15 33.5t38 13.5h156q20 0 34.5 -13.5t14.5 -33.5v-149q0 -23 -14.5 -38.5
t-34.5 -15.5zM1704 268q23 0 38 -16t15 -39v-158q0 -25 -15 -40t-38 -15q-194 0 -277 111q-102 -111 -323 -111h-535q-210 0 -320 116t-110 324v125q0 155 107 262q20 23 51.5 25t54.5 -18l82 -74q45 -39 4 -105q-32 -46 -32 -118v-97q0 -75 46.5 -123.5t118.5 -48.5h537
q145 0 145 144v465q0 31 21.5 53t52.5 22h119q31 0 52.5 -22t21.5 -53v-437q0 -84 48 -128t136 -44z" />
    <glyph glyph-name="uniFE97" unicode="&#x62a;" horiz-adv-x="813" arabic-form="initial" 
d="M416 1087h-156q-23 0 -39 16.5t-16 37.5v149q0 20 16 33.5t39 13.5h156q20 0 34.5 -13.5t14.5 -33.5v-149q0 -23 -14.5 -38.5t-34.5 -15.5zM774 1087h-156q-21 0 -37 15.5t-16 38.5v149q0 20 15 33.5t38 13.5h156q20 0 34.5 -13.5t14.5 -33.5v-149q0 -23 -14.5 -38.5
t-34.5 -15.5zM229 0h-229q-23 0 -38 15t-15 40v158q0 23 15 39t38 16h233q146 0 146 144v465q0 31 21.5 53t52.5 22h118q31 0 52.5 -22t21.5 -53v-463q0 -207 -99.5 -310.5t-316.5 -103.5z" />
    <glyph glyph-name="uniFE98" unicode="&#x62a;" horiz-adv-x="884" arabic-form="medial" 
d="M416 1087h-156q-23 0 -39 16.5t-16 37.5v149q0 20 16 33.5t39 13.5h156q20 0 34.5 -13.5t14.5 -33.5v-149q0 -23 -14.5 -38.5t-34.5 -15.5zM774 1087h-156q-21 0 -37 15.5t-16 38.5v149q0 20 15 33.5t38 13.5h156q20 0 34.5 -13.5t14.5 -33.5v-149q0 -23 -14.5 -38.5
t-34.5 -15.5zM811 268h74q23 0 38 -16t15 -39v-158q0 -25 -15 -40t-38 -15h-76q-172 0 -258 109q-103 -109 -322 -109h-229q-23 0 -38 15t-15 40v158q0 23 15 39t38 16h233q146 0 146 144v465q0 31 21.5 53t52.5 22h118q31 0 52.5 -22t21.5 -53v-437q0 -75 47 -123.5
t119 -48.5z" />
    <glyph glyph-name="uniFE9A" unicode="&#x62b;" horiz-adv-x="1703" arabic-form="final" 
d="M918 1395h-144q-19 0 -33 11t-14 28v122q0 18 14 30.5t33 12.5h144q19 0 31 -12t12 -31v-122q0 -39 -43 -39zM745 1087h-155q-23 0 -38 14.5t-15 35.5v147q0 23 16 38t37 15h155q21 0 36.5 -15t15.5 -38v-147q0 -20 -16 -35t-36 -15zM895 1137v147q0 23 15 38t38 15h156
q21 0 36 -15t15 -38v-147q0 -20 -15.5 -35t-35.5 -15h-156q-23 0 -38 14.5t-15 35.5zM1704 268q23 0 38 -16t15 -39v-158q0 -25 -15 -40t-38 -15q-194 0 -277 111q-102 -111 -323 -111h-535q-210 0 -320 116t-110 324v125q0 155 107 262q20 23 51.5 25t54.5 -18l82 -74
q45 -39 4 -105q-32 -46 -32 -118v-97q0 -75 46.5 -123.5t118.5 -48.5h537q145 0 145 144v465q0 31 21.5 53t52.5 22h119q31 0 52.5 -22t21.5 -53v-437q0 -84 48 -128t136 -44z" />
    <glyph glyph-name="uniFE9B" unicode="&#x62b;" horiz-adv-x="813" arabic-form="initial" 
d="M588 1395h-144q-19 0 -33 11t-14 28v122q0 18 14 30.5t33 12.5h144q19 0 31 -12t12 -31v-122q0 -39 -43 -39zM416 1087h-156q-23 0 -38 14.5t-15 35.5v147q0 23 15 38t38 15h156q21 0 36 -15t15 -38v-147q0 -20 -15.5 -35t-35.5 -15zM774 1087h-156q-23 0 -38 14.5
t-15 35.5v147q0 23 16 38t37 15h156q21 0 36 -15t15 -38v-147q0 -20 -15.5 -35t-35.5 -15zM229 0h-229q-23 0 -38 15t-15 40v158q0 23 15 39t38 16h233q146 0 146 144v465q0 31 21.5 53t52.5 22h118q31 0 52.5 -22t21.5 -53v-463q0 -207 -99.5 -310.5t-316.5 -103.5z" />
    <glyph glyph-name="uniFE9C" unicode="&#x62b;" horiz-adv-x="884" arabic-form="medial" 
d="M590 1395h-144q-19 0 -33 11t-14 28v122q0 18 14 30.5t33 12.5h144q19 0 31 -12t12 -31v-122q0 -39 -43 -39zM418 1087h-156q-23 0 -38 14.5t-15 35.5v147q0 23 16 38t37 15h156q21 0 36 -15t15 -38v-147q0 -20 -15.5 -35t-35.5 -15zM567 1137v147q0 23 15.5 38t38.5 15
h155q21 0 36 -15t15 -38v-147q0 -20 -15.5 -35t-35.5 -15h-155q-23 0 -38.5 14.5t-15.5 35.5zM811 268h74q23 0 38 -16t15 -39v-158q0 -25 -15 -40t-38 -15h-76q-172 0 -258 109q-103 -109 -322 -109h-229q-23 0 -38 15t-15 40v158q0 23 15 39t38 16h233q146 0 146 144v465
q0 31 21.5 53t52.5 22h118q31 0 52.5 -22t21.5 -53v-437q0 -75 47 -123.5t119 -48.5z" />
    <glyph glyph-name="uniFE9E" unicode="&#x62c;" horiz-adv-x="1294" arabic-form="final" 
d="M1194 268h100q23 0 38.5 -16t15.5 -39v-158q0 -25 -15 -40t-39 -15h-700q-99 0 -153 -44t-54 -120v-59q0 -85 121 -156q45 -26 24 -88l-40 -102q-12 -27 -41 -39t-58 -2q-124 44 -200 135t-76 221v135q0 168 135 279q132 108 348 108h209q-64 79 -64 193v104
q0 65 -39 101t-102 36h-51q-57 0 -115 -43q-63 -42 -104 5l-74 86q-21 25 -21 54t23 52q49 46 124 81.5t142 35.5h93q186 0 288.5 -110t102.5 -292v-139q0 -162 168 -162q12 0 14 -2zM713 -121h161q23 0 37.5 -14t14.5 -37v-152q0 -24 -14.5 -39.5t-37.5 -15.5h-161
q-23 0 -39.5 16t-16.5 39v152q0 20 16.5 35.5t39.5 15.5z" />
    <glyph glyph-name="uniFE9F" unicode="&#x62c;" horiz-adv-x="1200" arabic-form="initial" 
d="M1077 270q23 0 39.5 -16t16.5 -39v-160q0 -24 -16 -39.5t-40 -15.5h-1075q-24 0 -39.5 15.5t-15.5 39.5v158q0 23 16 39t39 16h705q-64 79 -64 193v104q0 65 -38 101t-101 36h-51q-59 0 -117 -43q-60 -43 -105 5l-73 86q-21 24 -20 53.5t24 52.5q47 44 123.5 80.5
t142.5 36.5h90q186 0 289.5 -110.5t103.5 -291.5v-139q0 -162 166 -162zM451 -135h159q24 0 39 -14t15 -37v-150q0 -24 -15.5 -40.5t-38.5 -16.5h-159q-23 0 -39.5 17t-16.5 40v150q0 23 16 37t40 14z" />
    <glyph glyph-name="uniFEA0" unicode="&#x62c;" horiz-adv-x="1198" arabic-form="medial" 
d="M1092 268h106q23 0 39 -16t16 -39v-158q0 -24 -15.5 -39.5t-39.5 -15.5h-1196q-24 0 -39.5 15.5t-15.5 39.5v158q0 23 16 39t39 16h705q-64 79 -64 193v104q0 65 -38 101t-101 36h-51q-59 0 -117 -43q-60 -43 -105 5l-73 86q-21 24 -20 53.5t24 52.5q47 44 123.5 80.5
t142.5 36.5h90q186 0 289.5 -110.5t103.5 -291.5v-139q0 -162 166 -162q13 0 15 -2zM451 -135h159q24 0 39 -14t15 -37v-150q0 -24 -15.5 -40.5t-38.5 -16.5h-159q-23 0 -39.5 17t-16.5 40v150q0 23 16 37t40 14z" />
    <glyph glyph-name="uniFEA2" unicode="&#x62d;" horiz-adv-x="1300" arabic-form="final" 
d="M1194 268h106q23 0 39.5 -16t16.5 -39v-158q0 -24 -16 -39.5t-40 -15.5h-706q-100 0 -153.5 -44.5t-53.5 -119.5v-16q0 -168 236 -168q118 0 241 69q66 36 101 -20l63 -100q17 -26 10.5 -56t-32.5 -49q-163 -114 -383 -114q-211 0 -357 98q-149 98 -149 266v135
q0 168 135 279q132 108 348 108h209q-64 79 -64 193v106q0 65 -39 101.5t-102 36.5h-51q-57 0 -115 -43q-60 -46 -104 4l-74 84q-21 25 -21 54t23 52q49 46 124 81.5t142 35.5h93q186 0 288.5 -110t102.5 -292v-139q0 -162 168 -162q12 0 14 -2z" />
    <glyph glyph-name="uniFEA3" unicode="&#x62d;" horiz-adv-x="1200" arabic-form="initial" 
d="M1077 270q23 0 39.5 -16t16.5 -39v-160q0 -24 -16 -39.5t-40 -15.5h-1075q-24 0 -39.5 15.5t-15.5 39.5v158q0 23 16 39t39 16h705q-64 79 -64 193v104q0 65 -38 101t-101 36h-51q-59 0 -117 -43q-60 -43 -105 5l-73 86q-21 24 -20 53.5t24 52.5q47 44 123.5 80.5
t142.5 36.5h90q186 0 289.5 -110.5t103.5 -291.5v-139q0 -162 166 -162z" />
    <glyph glyph-name="uniFEA4" unicode="&#x62d;" horiz-adv-x="1198" arabic-form="medial" 
d="M1092 268h106q23 0 39 -16t16 -39v-158q0 -24 -15.5 -39.5t-39.5 -15.5h-1196q-24 0 -39.5 15.5t-15.5 39.5v158q0 23 16 39t39 16h705q-64 79 -64 193v104q0 65 -38 101t-101 36h-51q-59 0 -117 -43q-60 -43 -105 5l-73 86q-21 24 -20 53.5t24 52.5q47 44 123.5 80.5
t142.5 36.5h90q186 0 289.5 -110.5t103.5 -291.5v-139q0 -162 166 -162q13 0 15 -2z" />
    <glyph glyph-name="uniFEA6" unicode="&#x62e;" horiz-adv-x="1300" arabic-form="final" 
d="M666 1108h-160q-23 0 -40 16t-17 39v152q0 20 17 35.5t40 15.5h160q23 0 37 -14t14 -37v-152q0 -24 -14 -39.5t-37 -15.5zM1194 268h106q23 0 39.5 -16t16.5 -39v-158q0 -24 -16 -39.5t-40 -15.5h-706q-100 0 -153.5 -44.5t-53.5 -119.5v-16q0 -168 236 -168
q118 0 241 69q66 36 101 -20l63 -100q17 -26 10.5 -56t-32.5 -49q-163 -114 -383 -114q-211 0 -357 98q-149 98 -149 266v135q0 168 135 279q132 108 348 108h209q-64 79 -64 193v106q0 65 -39 101.5t-102 36.5h-51q-57 0 -115 -43q-60 -46 -104 4l-74 84q-21 25 -21 54
t23 52q49 46 124 81.5t142 35.5h93q186 0 288.5 -110t102.5 -292v-139q0 -162 168 -162q12 0 14 -2z" />
    <glyph glyph-name="uniFEA7" unicode="&#x62e;" horiz-adv-x="1200" arabic-form="initial" 
d="M557 1108h-160q-23 0 -40 16t-17 39v152q0 20 17 35.5t40 15.5h160q23 0 37 -14t14 -37v-152q0 -24 -14 -39.5t-37 -15.5zM1077 270q23 0 39.5 -16t16.5 -39v-160q0 -24 -16 -39.5t-40 -15.5h-1075q-24 0 -39.5 15.5t-15.5 39.5v158q0 23 16 39t39 16h705q-64 79 -64 193
v104q0 65 -38 101t-101 36h-51q-59 0 -117 -43q-60 -43 -105 5l-73 86q-21 24 -20 53.5t24 52.5q47 44 123.5 80.5t142.5 36.5h90q186 0 289.5 -110.5t103.5 -291.5v-139q0 -162 166 -162z" />
    <glyph glyph-name="uniFEA8" unicode="&#x62e;" horiz-adv-x="1198" arabic-form="medial" 
d="M557 1108h-160q-23 0 -40 16t-17 39v152q0 20 17 35.5t40 15.5h160q23 0 37 -14t14 -37v-152q0 -24 -14 -39.5t-37 -15.5zM1092 268h106q23 0 39 -16t16 -39v-158q0 -24 -15.5 -39.5t-39.5 -15.5h-1196q-24 0 -39.5 15.5t-15.5 39.5v158q0 23 16 39t39 16h705
q-64 79 -64 193v104q0 65 -38 101t-101 36h-51q-59 0 -117 -43q-60 -43 -105 5l-73 86q-21 24 -20 53.5t24 52.5q47 44 123.5 80.5t142.5 36.5h90q186 0 289.5 -110.5t103.5 -291.5v-139q0 -162 166 -162q13 0 15 -2z" />
    <glyph glyph-name="uniFEAA" unicode="&#x62f;" horiz-adv-x="1165" arabic-form="final" 
d="M1165 268q23 0 38.5 -16t15.5 -39v-158q0 -25 -15.5 -40t-38.5 -15q-199 0 -278 82q-110 -82 -277 -82h-248q-143 0 -266 102q-24 19 -27.5 49.5t15.5 53.5l70 96q18 26 48 28.5t56 -18.5q64 -43 129 -43h180q75 0 120.5 51t35.5 123l-29 168q-10 60 -54 96.5t-101 36.5
h-19q-31 0 -52.5 22.5t-21.5 53.5v119q0 31 21.5 53.5t52.5 22.5h17q373 0 419 -316l43 -309q35 -121 166 -121z" />
    <glyph glyph-name="uniFEAC" unicode="&#x630;" horiz-adv-x="1165" arabic-form="final" 
d="M610 1147h-159q-24 0 -41 16t-17 39v152q0 20 17.5 35.5t40.5 15.5h159q23 0 37.5 -14t14.5 -37v-152q0 -24 -14.5 -39.5t-37.5 -15.5zM1165 268q23 0 38.5 -16t15.5 -39v-158q0 -25 -15.5 -40t-38.5 -15q-199 0 -278 82q-110 -82 -277 -82h-248q-143 0 -266 102
q-24 19 -27.5 49.5t15.5 53.5l70 96q18 26 48 28.5t56 -18.5q64 -43 129 -43h180q75 0 120.5 51t35.5 123l-29 168q-10 60 -54 96.5t-101 36.5h-19q-31 0 -52.5 22.5t-21.5 53.5v119q0 31 21.5 53.5t52.5 22.5h17q373 0 419 -316l43 -309q35 -121 166 -121z" />
    <glyph glyph-name="uniFEAE" unicode="&#x631;" horiz-adv-x="823" arabic-form="final" 
d="M823 268q23 0 38.5 -16t15.5 -39v-158q0 -25 -15.5 -40t-38.5 -15q-106 0 -184 35v-41q0 -215 -100 -325.5t-295 -110.5h-25q-146 0 -264 100q-24 21 -28 52.5t14 58.5l59 77q44 52 102 9q39 -31 115 -31h29q72 0 99.5 37t27.5 131v885q0 31 21 53t52 22h119
q31 0 52.5 -22t21.5 -53v-437q0 -84 48 -128t136 -44z" />
    <glyph glyph-name="uniFEB0" unicode="&#x632;" horiz-adv-x="823" arabic-form="final" 
d="M596 1087h-160q-23 0 -40 16.5t-17 39.5v151q0 20 17 36t40 16h160q23 0 37 -14.5t14 -37.5v-151q0 -24 -14 -40t-37 -16zM823 268q23 0 38.5 -16t15.5 -39v-158q0 -25 -15.5 -40t-38.5 -15q-106 0 -184 35v-41q0 -215 -100 -325.5t-295 -110.5h-25q-146 0 -264 100
q-24 21 -28 52.5t14 58.5l59 77q44 52 102 9q39 -31 115 -31h29q72 0 99.5 37t27.5 131v885q0 31 21 53t52 22h119q31 0 52.5 -22t21.5 -53v-437q0 -84 48 -128t136 -44z" />
    <glyph glyph-name="uniFEB2" unicode="&#x633;" horiz-adv-x="2557" arabic-form="final" 
d="M2558 268q23 0 38 -16t15 -39v-158q0 -25 -15 -40t-38 -15q-179 0 -264 94q-100 -133 -299 -133q-185 0 -295 96q-104 -96 -268 -96q-101 0 -183 31v-12q0 -207 -102 -312.5t-320 -105.5h-235q-220 0 -336 131q-117 132 -117 311q0 221 121 389q18 27 46.5 34t55.5 -11
l89 -60q26 -17 32.5 -47.5t-10.5 -56.5q-65 -109 -65 -215q0 -99 48.5 -153t135.5 -54h239q152 0 152 145v756q0 31 22.5 53.5t53.5 22.5h117q30 0 51.5 -22.5t21.5 -53.5v-344q0 -154 146 -154q149 0 149 154v361q0 31 22.5 53t53.5 22h117q31 0 53 -22t22 -53v-361
q0 -154 144 -154q151 0 151 154v494q0 31 22 53t54 22h117q31 0 52.5 -22t21.5 -53v-441q0 -84 48 -128t136 -44z" />
    <glyph glyph-name="uniFEB3" unicode="&#x633;" horiz-adv-x="1773" arabic-form="initial" 
d="M1413 956h117q32 0 54 -22t22 -53v-494q0 -207 -99.5 -316.5t-279.5 -109.5q-185 0 -295 96q-104 -96 -268 -96q-209 0 -316 119q-109 -80 -280 -80h-68q-23 0 -38 15t-15 40v158q0 23 15 39t38 16h72q143 0 143 144v336q0 31 21.5 53t52.5 22h119q31 0 52 -22t21 -53
v-361q0 -154 144 -154q151 0 151 154v361q0 31 22.5 53t53.5 22h117q31 0 53 -22t22 -53v-361q0 -154 144 -154q151 0 151 154v494q0 31 21.5 53t52.5 22z" />
    <glyph glyph-name="uniFEB4" unicode="&#x633;" horiz-adv-x="1787" arabic-form="medial" 
d="M1788 268q23 0 38 -16t15 -39v-158q0 -25 -15 -40t-38 -15q-175 0 -264 92q-98 -131 -297 -131q-185 0 -295 96q-104 -96 -268 -96q-209 0 -316 119q-109 -80 -280 -80h-68q-23 0 -38 15t-15 40v158q0 23 15 39t38 16h72q143 0 143 144v336q0 31 21.5 53t52.5 22h119
q31 0 52 -22t21 -53v-361q0 -154 144 -154q151 0 151 154v361q0 31 22.5 53t53.5 22h117q31 0 53 -22t22 -53v-361q0 -154 144 -154q151 0 151 154v494q0 31 21.5 53t52.5 22h117q32 0 54 -22t22 -53v-473q18 -140 182 -140z" />
    <glyph glyph-name="uniFEB6" unicode="&#x634;" horiz-adv-x="2557" arabic-form="final" 
d="M1755 1264h-143q-19 0 -33 11t-14 28v122q0 18 14 30.5t33 12.5h143q19 0 31 -12t12 -31v-122q0 -39 -43 -39zM1583 956h-156q-23 0 -38 14.5t-15 35.5v147q0 23 15 38t38 15h156q21 0 36 -15t15 -38v-147q0 -20 -15.5 -35t-35.5 -15zM1733 1006v147q0 23 16 38t37 15
h156q21 0 36 -15t15 -38v-147q0 -20 -15.5 -35t-35.5 -15h-156q-23 0 -38 14.5t-15 35.5zM2558 268q23 0 38 -16t15 -39v-158q0 -25 -15 -40t-38 -15q-179 0 -264 94q-100 -133 -299 -133q-185 0 -295 96q-104 -96 -268 -96q-101 0 -183 31v-12q0 -207 -102 -312.5
t-320 -105.5h-235q-220 0 -336 131q-117 132 -117 311q0 221 121 389q18 27 46.5 34t55.5 -11l89 -60q26 -17 32.5 -47.5t-10.5 -56.5q-65 -109 -65 -215q0 -99 48.5 -153t135.5 -54h239q152 0 152 145v756q0 31 22.5 53.5t53.5 22.5h117q30 0 51.5 -22.5t21.5 -53.5v-344
q0 -154 146 -154q149 0 149 154v361q0 31 22.5 53t53.5 22h117q31 0 53 -22t22 -53v-361q0 -154 144 -154q151 0 151 154v494q0 31 22 53t54 22h117q31 0 52.5 -22t21.5 -53v-441q0 -84 48 -128t136 -44z" />
    <glyph glyph-name="uniFEB7" unicode="&#x634;" horiz-adv-x="1773" arabic-form="initial" 
d="M981 1264h-143q-19 0 -33 11t-14 28v122q0 18 14 30.5t33 12.5h143q19 0 31 -12t12 -31v-122q0 -39 -43 -39zM809 956h-156q-23 0 -38 14.5t-15 35.5v147q0 23 15 38t38 15h156q21 0 36 -15t15 -38v-147q0 -20 -15.5 -35t-35.5 -15zM958 1006v147q0 23 16.5 38t37.5 15
h155q21 0 36.5 -15t15.5 -38v-147q0 -20 -16 -35t-36 -15h-155q-23 0 -38.5 14.5t-15.5 35.5zM1413 956h117q32 0 54 -22t22 -53v-494q0 -207 -99.5 -316.5t-279.5 -109.5q-185 0 -295 96q-104 -96 -268 -96q-209 0 -316 119q-109 -80 -280 -80h-68q-23 0 -38 15t-15 40v158
q0 23 15 39t38 16h72q143 0 143 144v336q0 31 21.5 53t52.5 22h119q31 0 52 -22t21 -53v-361q0 -154 144 -154q151 0 151 154v361q0 31 22.5 53t53.5 22h117q31 0 53 -22t22 -53v-361q0 -154 144 -154q151 0 151 154v494q0 31 21.5 53t52.5 22z" />
    <glyph glyph-name="uniFEB8" unicode="&#x634;" horiz-adv-x="1787" arabic-form="medial" 
d="M983 1264h-143q-19 0 -33 11t-14 28v122q0 18 14 30.5t33 12.5h143q19 0 31 -12t12 -31v-122q0 -39 -43 -39zM811 956h-156q-23 0 -38 14.5t-15 35.5v147q0 23 16 38t37 15h156q21 0 36 -15t15 -38v-147q0 -20 -15.5 -35t-35.5 -15zM961 1006v147q0 23 15 38t38 15h155
q21 0 36.5 -15t15.5 -38v-147q0 -20 -16 -35t-36 -15h-155q-23 0 -38 14.5t-15 35.5zM1788 268q23 0 38 -16t15 -39v-158q0 -25 -15 -40t-38 -15q-175 0 -264 92q-98 -131 -297 -131q-185 0 -295 96q-104 -96 -268 -96q-209 0 -316 119q-109 -80 -280 -80h-68q-23 0 -38 15
t-15 40v158q0 23 15 39t38 16h72q143 0 143 144v336q0 31 21.5 53t52.5 22h119q31 0 52 -22t21 -53v-361q0 -154 144 -154q151 0 151 154v361q0 31 22.5 53t53.5 22h117q31 0 53 -22t22 -53v-361q0 -154 144 -154q151 0 151 154v494q0 31 21.5 53t52.5 22h117q32 0 54 -22
t22 -53v-473q18 -140 182 -140z" />
    <glyph glyph-name="uniFEBA" unicode="&#x635;" horiz-adv-x="2426" arabic-form="final" 
d="M2427 268q23 0 38 -16t15 -39v-158q0 -25 -15 -40t-38 -15q-191 0 -275 106q-100 -106 -307 -106h-596v-25q0 -207 -102 -312t-320 -105h-235q-220 0 -336 131q-117 132 -117 311q0 221 121 389q18 27 46.5 34t55.5 -11l89 -60q26 -17 32.5 -47t-10.5 -55
q-48 -83 -60.5 -164t7 -139t65 -91.5t107.5 -29.5h239q152 0 152 145v29h-2v442q0 27 2 35v418q0 31 22.5 53.5t53.5 22.5h76q31 0 53 -22.5t22 -53.5v-49q155 125 324 125h311q188 0 294 -108t106 -292v-163q18 -140 182 -140zM1976 399v174q0 56 -36.5 91.5t-92.5 35.5
h-346q-252 0 -252 -186v-246h598q129 0 129 131z" />
    <glyph glyph-name="uniFEBB" unicode="&#x635;" horiz-adv-x="1601" arabic-form="initial" 
d="M739 971h310q189 0 294 -107.5t105 -292.5v-170q0 -401 -399 -401h-1047q-55 0 -55 76v119q0 73 55 73h184v627q0 31 22.5 53.5t53.5 22.5h76q31 0 53.5 -22.5t22.5 -53.5v-51q154 127 325 127zM1182 399v174q0 56 -36.5 91.5t-92.5 35.5h-346q-252 0 -252 -186v-246h598
q129 0 129 131z" />
    <glyph glyph-name="uniFEBC" unicode="&#x635;" horiz-adv-x="1632" arabic-form="medial" 
d="M1632 268q23 0 38.5 -16t15.5 -39v-158q0 -25 -15 -40t-39 -15q-193 0 -276 109q-95 -109 -307 -109h-1047q-55 0 -55 76v119q0 73 55 73h184v627q0 31 22.5 53.5t53.5 22.5h76q31 0 53.5 -22.5t22.5 -53.5v-51q154 127 325 127h310q189 0 294 -107.5t105 -292.5v-131
q0 -84 48 -128t136 -44zM1182 399v174q0 56 -36.5 91.5t-92.5 35.5h-346q-252 0 -252 -186v-246h598q129 0 129 131z" />
    <glyph glyph-name="uniFEBE" unicode="&#x636;" horiz-adv-x="2426" arabic-form="final" 
d="M1763 1104h-159q-24 0 -41 16t-17 39v152q0 20 17.5 35.5t40.5 15.5h159q23 0 37.5 -14t14.5 -37v-152q0 -24 -14.5 -39.5t-37.5 -15.5zM2427 268q23 0 38 -16t15 -39v-158q0 -25 -15 -40t-38 -15q-191 0 -275 106q-100 -106 -307 -106h-596v-25q0 -207 -102 -312
t-320 -105h-235q-220 0 -336 131q-117 132 -117 311q0 221 121 389q18 27 46.5 34t55.5 -11l89 -60q26 -17 32.5 -47t-10.5 -55q-48 -83 -60.5 -164t7 -139t65 -91.5t107.5 -29.5h239q152 0 152 145v29h-2v442q0 27 2 35v418q0 31 22.5 53.5t53.5 22.5h76q31 0 53 -22.5
t22 -53.5v-49q155 125 324 125h311q188 0 294 -108t106 -292v-163q18 -140 182 -140zM1976 399v174q0 56 -36.5 91.5t-92.5 35.5h-346q-252 0 -252 -186v-246h598q129 0 129 131z" />
    <glyph glyph-name="uniFEBF" unicode="&#x636;" horiz-adv-x="1601" arabic-form="initial" 
d="M969 1104h-160q-23 0 -40 16t-17 39v152q0 20 17 35.5t40 15.5h160q23 0 37 -14t14 -37v-152q0 -24 -14 -39.5t-37 -15.5zM739 971h310q189 0 294 -107.5t105 -292.5v-170q0 -401 -399 -401h-1047q-55 0 -55 76v119q0 73 55 73h184v627q0 31 22.5 53.5t53.5 22.5h76
q31 0 53.5 -22.5t22.5 -53.5v-51q154 127 325 127zM1182 399v174q0 56 -36.5 91.5t-92.5 35.5h-346q-252 0 -252 -186v-246h598q129 0 129 131z" />
    <glyph glyph-name="uniFEC0" unicode="&#x636;" horiz-adv-x="1632" arabic-form="medial" 
d="M969 1104h-160q-23 0 -40 16t-17 39v152q0 20 17 35.5t40 15.5h160q23 0 37 -14t14 -37v-152q0 -24 -14 -39.5t-37 -15.5zM1632 268q23 0 38.5 -16t15.5 -39v-158q0 -25 -15 -40t-39 -15q-193 0 -276 109q-95 -109 -307 -109h-1047q-55 0 -55 76v119q0 73 55 73h184v627
q0 31 22.5 53.5t53.5 22.5h76q31 0 53.5 -22.5t22.5 -53.5v-51q154 127 325 127h310q189 0 294 -107.5t105 -292.5v-131q0 -84 48 -128t136 -44zM1182 399v174q0 56 -36.5 91.5t-92.5 35.5h-346q-252 0 -252 -186v-246h598q129 0 129 131z" />
    <glyph glyph-name="uniFEC2" unicode="&#x637;" horiz-adv-x="1773" arabic-form="final" 
d="M1774 268q23 0 38 -16t15 -39v-158q0 -25 -15 -40t-38 -15q-191 0 -275 106q-100 -106 -307 -106h-1053q-55 0 -55 76v119q0 73 55 73h191l-2 922h-52q-31 0 -53 21.5t-22 52.5v118q0 31 22 53.5t53 22.5h242q32 0 54 -22.5t22 -53.5v-510q144 99 287 99h311
q187 0 293 -107.5t106 -292.5v-163q18 -140 183 -140zM1323 399v174q0 56 -36 91.5t-91 35.5h-346q-254 0 -254 -186v-246h600q127 0 127 131z" />
    <glyph glyph-name="uniFEC3" unicode="&#x637;" horiz-adv-x="1738" arabic-form="initial" 
d="M874 971h312q187 0 293 -107.5t106 -292.5v-170q0 -401 -399 -401h-1184q-55 0 -55 76v119q0 73 55 73h320v922h-52q-31 0 -53 21.5t-22 52.5v118q0 31 22 53.5t53 22.5h242q31 0 53.5 -22.5t22.5 -53.5v-508q148 97 286 97zM1317 399v174q0 56 -36.5 91.5t-92.5 35.5
h-346q-252 0 -252 -186v-246h598q129 0 129 131z" />
    <glyph glyph-name="uniFEC4" unicode="&#x637;" horiz-adv-x="1767" arabic-form="medial" 
d="M1767 268q23 0 38.5 -16t15.5 -39v-158q0 -25 -15.5 -40t-38.5 -15q-190 0 -274 106q-100 -106 -307 -106h-1184q-55 0 -55 76v119q0 73 55 73h320v922h-52q-31 0 -53 21.5t-22 52.5v118q0 31 22 53.5t53 22.5h242q31 0 53.5 -22.5t22.5 -53.5v-508q148 97 286 97h312
q187 0 293 -107.5t106 -292.5v-163q18 -140 182 -140zM1317 399v174q0 56 -36.5 91.5t-92.5 35.5h-346q-252 0 -252 -186v-246h598q129 0 129 131z" />
    <glyph glyph-name="uniFEC6" unicode="&#x638;" horiz-adv-x="1773" arabic-form="final" 
d="M1774 268q23 0 38 -16t15 -39v-158q0 -25 -15 -40t-38 -15q-191 0 -275 106q-100 -106 -307 -106h-1053q-55 0 -55 76v119q0 73 55 73h191l-2 922h-52q-31 0 -53 21.5t-22 52.5v118q0 31 22 53.5t53 22.5h242q32 0 54 -22.5t22 -53.5v-510q144 99 287 99h311
q187 0 293 -107.5t106 -292.5v-163q18 -140 183 -140zM1106 1104h-160q-23 0 -40 16t-17 39v152q0 20 17 35.5t40 15.5h160q23 0 37 -14t14 -37v-152q0 -24 -14 -39.5t-37 -15.5zM1323 399v174q0 56 -36 91.5t-91 35.5h-346q-254 0 -254 -186v-246h600q127 0 127 131z" />
    <glyph glyph-name="uniFEC7" unicode="&#x638;" horiz-adv-x="1738" arabic-form="initial" 
d="M874 971h312q187 0 293 -107.5t106 -292.5v-170q0 -401 -399 -401h-1184q-55 0 -55 76v119q0 73 55 73h320v922h-52q-31 0 -53 21.5t-22 52.5v118q0 31 22 53.5t53 22.5h242q31 0 53.5 -22.5t22.5 -53.5v-508q148 97 286 97zM1092 1104h-160q-24 0 -41 16t-17 39v152
q0 20 17.5 35.5t40.5 15.5h160q23 0 37 -14t14 -37v-152q0 -24 -14 -39.5t-37 -15.5zM1317 399v174q0 56 -36.5 91.5t-92.5 35.5h-346q-252 0 -252 -186v-246h598q129 0 129 131z" />
    <glyph glyph-name="uniFEC8" unicode="&#x638;" horiz-adv-x="1767" arabic-form="medial" 
d="M1767 268q23 0 38.5 -16t15.5 -39v-158q0 -25 -15.5 -40t-38.5 -15q-190 0 -274 106q-100 -106 -307 -106h-1184q-55 0 -55 76v119q0 73 55 73h320v922h-52q-31 0 -53 21.5t-22 52.5v118q0 31 22 53.5t53 22.5h242q31 0 53.5 -22.5t22.5 -53.5v-508q148 97 286 97h312
q187 0 293 -107.5t106 -292.5v-163q18 -140 182 -140zM1092 1104h-160q-24 0 -41 16t-17 39v152q0 20 17.5 35.5t40.5 15.5h160q23 0 37 -14t14 -37v-152q0 -24 -14 -39.5t-37 -15.5zM1317 399v174q0 56 -36.5 91.5t-92.5 35.5h-346q-252 0 -252 -186v-246h598
q129 0 129 131z" />
    <glyph glyph-name="uniFECA" unicode="&#x639;" horiz-adv-x="1320" arabic-form="final" 
d="M1120 268h201q23 0 39 -16t16 -39v-158q0 -24 -15.5 -39.5t-39.5 -15.5h-705q-100 0 -153 -44t-53 -120v-16q0 -168 233 -168q119 0 242 69q68 35 102 -20l62 -100q18 -27 12 -56.5t-33 -48.5q-163 -114 -385 -114q-208 0 -354 98q-150 99 -150 266v135q0 123 74 217
t203 138l-140 333q0 171 103 289q103 115 280 115h203q169 0 277 -117q104 -119 104 -287zM811 705h-84q-72 0 -118 -41t-58 -115l102 -281h219l103 281q-34 156 -164 156z" />
    <glyph glyph-name="uniFECB" unicode="&#x639;" horiz-adv-x="1067" arabic-form="initial" 
d="M647 268h256q32 0 54 -21t22 -52v-119q0 -31 -22 -53.5t-54 -22.5h-901q-24 0 -39.5 15.5t-15.5 39.5v158q0 23 16 39t39 16h199q-56 74 -56 172v133q0 178 104 290t288 112h94q66 0 141 -36t127 -81q23 -23 24 -53.5t-20 -54.5l-74 -84q-44 -47 -102 -4q-57 45 -121 45
h-55q-66 0 -102.5 -42t-36.5 -116v-117q0 -88 53 -125t182 -37v-2z" />
    <glyph glyph-name="uniFECC" unicode="&#x639;" horiz-adv-x="1120" arabic-form="medial" 
d="M920 268h200q23 0 39.5 -16t16.5 -39v-158q0 -24 -16 -39.5t-40 -15.5h-1118q-24 0 -39.5 15.5t-15.5 39.5v158q0 23 16 39t39 16h199l-125 301q0 172 102 289q103 115 279 115h205q169 0 274 -117q104 -119 104 -287zM348 549l103 -281h221l102 281q-17 74 -60 115
t-106 41h-82q-69 0 -117 -41.5t-61 -114.5z" />
    <glyph glyph-name="uniFECE" unicode="&#x63a;" horiz-adv-x="1320" arabic-form="final" 
d="M856 1108h-160q-23 0 -40 16t-17 39v152q0 20 17 35.5t40 15.5h160q23 0 37 -14t14 -37v-152q0 -24 -14 -39.5t-37 -15.5zM1120 268h201q23 0 39 -16t16 -39v-158q0 -24 -15.5 -39.5t-39.5 -15.5h-705q-100 0 -153 -44t-53 -120v-16q0 -168 233 -168q119 0 242 69
q68 35 102 -20l62 -100q18 -27 12 -56.5t-33 -48.5q-163 -114 -385 -114q-208 0 -354 98q-150 99 -150 266v135q0 123 74 217t203 138l-140 333q0 171 103 289q103 115 280 115h203q169 0 277 -117q104 -119 104 -287zM811 705h-84q-72 0 -118 -41t-58 -115l102 -281h219
l103 281q-34 156 -164 156z" />
    <glyph glyph-name="uniFECF" unicode="&#x63a;" horiz-adv-x="1067" arabic-form="initial" 
d="M668 1108h-160q-23 0 -40 16t-17 39v152q0 20 17 35.5t40 15.5h160q23 0 37 -14t14 -37v-152q0 -24 -14 -39.5t-37 -15.5zM647 268h256q32 0 54 -21t22 -52v-119q0 -31 -22 -53.5t-54 -22.5h-901q-24 0 -39.5 15.5t-15.5 39.5v158q0 23 16 39t39 16h199q-56 74 -56 172
v133q0 178 104 290t288 112h94q66 0 141 -36t127 -81q23 -23 24 -53.5t-20 -54.5l-74 -84q-44 -47 -102 -4q-57 45 -121 45h-55q-66 0 -102.5 -42t-36.5 -116v-117q0 -88 53 -125t182 -37v-2z" />
    <glyph glyph-name="uniFED0" unicode="&#x63a;" horiz-adv-x="1120" arabic-form="medial" 
d="M645 1104h-160q-23 0 -40 16t-17 39v152q0 20 17 35.5t40 15.5h160q23 0 37 -14t14 -37v-152q0 -24 -14 -39.5t-37 -15.5zM920 268h200q23 0 39.5 -16t16.5 -39v-158q0 -24 -16 -39.5t-40 -15.5h-1118q-24 0 -39.5 15.5t-15.5 39.5v158q0 23 16 39t39 16h199l-125 301
q0 172 102 289q103 115 279 115h205q169 0 274 -117q104 -119 104 -287zM348 549l103 -281h221l102 281q-17 74 -60 115t-106 41h-82q-69 0 -117 -41.5t-61 -114.5z" />
    <glyph glyph-name="uniFED2" unicode="&#x641;" horiz-adv-x="2007" arabic-form="final" 
d="M1470 1108h-159q-24 0 -41 16t-17 39v152q0 20 17.5 35.5t40.5 15.5h159q23 0 37.5 -14t14.5 -37v-152q0 -24 -14.5 -39.5t-37.5 -15.5zM2007 268q23 0 38 -16t15 -39v-158q0 -25 -15 -40t-38 -15q-205 0 -287 123q-114 -123 -305 -123h-846q-210 0 -320 116t-110 324
v125q0 155 107 262q20 23 51.5 25t54.5 -18l82 -74q45 -39 4 -105q-32 -46 -32 -118v-97q0 -75 46.5 -123.5t118.5 -48.5h445l-88 293q0 166 102 289t307 123h78q188 0 299 -109t111 -303v-121q0 -172 182 -172zM1556 420v143q0 57 -41 99.5t-96 42.5h-86q-67 0 -105 -44.5
t-38 -117.5l72 -275h157q58 0 97.5 42t39.5 110z" />
    <glyph glyph-name="uniFED3" unicode="&#x641;" horiz-adv-x="1169" arabic-form="initial" 
d="M647 1108h-160q-23 0 -40 16t-17 39v152q0 20 17 35.5t40 15.5h160q23 0 37 -14t14 -37v-152q0 -24 -14 -39.5t-37 -15.5zM524 973h78q188 0 298 -109t110 -303v-139q0 -197 -115 -309q-113 -113 -293 -113h-600q-24 0 -39.5 15.5t-15.5 39.5v158q0 23 16 39t39 16h199
l-86 293q0 166 102 289t307 123zM743 420v143q0 57 -41 99.5t-96 42.5h-86q-67 0 -105 -44.5t-38 -117.5l72 -275h157q58 0 97.5 42t39.5 110z" />
    <glyph glyph-name="uniFED4" unicode="&#x641;" horiz-adv-x="1193" arabic-form="medial" 
d="M647 1108h-160q-23 0 -40 16t-17 39v152q0 20 17 35.5t40 15.5h160q23 0 37 -14t14 -37v-152q0 -24 -14 -39.5t-37 -15.5zM1194 268q23 0 38 -16t15 -39v-158q0 -25 -15 -40t-38 -15q-205 0 -287 125q-113 -125 -305 -125h-600q-24 0 -39.5 15.5t-15.5 39.5v158
q0 23 16 39t39 16h199l-86 293q0 166 102 289t307 123h78q188 0 298 -109t110 -303v-121q0 -84 48 -128t136 -44zM743 420v143q0 57 -41 99.5t-96 42.5h-86q-67 0 -105 -44.5t-38 -117.5l72 -275h157q58 0 97.5 42t39.5 110z" />
    <glyph glyph-name="uniFED6" unicode="&#x642;" horiz-adv-x="1630" arabic-form="final" 
d="M944 1108h-156q-23 0 -39 16t-16 37v150q0 20 16 33.5t39 13.5h156q20 0 34.5 -13.5t14.5 -33.5v-150q0 -23 -14 -38t-35 -15zM1303 1108h-156q-21 0 -37 15t-16 38v150q0 20 15 33.5t38 13.5h156q20 0 34.5 -13.5t14.5 -33.5v-150q0 -23 -14 -38t-35 -15zM1468 268h160
q23 0 39 -16t16 -39v-158q0 -24 -15.5 -39.5t-39.5 -15.5h-160v-25q0 -417 -421 -417h-455q-220 0 -336 131q-117 132 -117 311q0 212 121 389q18 27 46.5 34t55.5 -11l89 -60q26 -17 32.5 -47.5t-10.5 -56.5q-65 -106 -65 -215q0 -99 48.5 -153t135.5 -54h459
q151 0 151 147v27h-256q-146 0 -248 102q-100 100 -100 252v207q0 165 115 289q114 123 276 123h88q164 0 279 -115q110 -116 110 -297v-174q2 -4 2 -18v-101zM866 563v-123q0 -77 37 -124.5t103 -47.5h194v295q0 65 -40 103.5t-99 38.5h-55q-58 0 -99 -39t-41 -103z" />
    <glyph glyph-name="uniFED7" unicode="&#x642;" horiz-adv-x="1169" arabic-form="initial" 
d="M465 1108h-156q-23 0 -39 16t-16 37v150q0 20 16 33.5t39 13.5h156q20 0 34.5 -13.5t14.5 -33.5v-150q0 -23 -14 -38t-35 -15zM823 1108h-155q-21 0 -37.5 15t-16.5 38v150q0 20 15.5 33.5t38.5 13.5h155q20 0 34.5 -13.5t14.5 -33.5v-150q0 -23 -14 -38t-35 -15z
M524 973h78q188 0 298 -109t110 -303v-139q0 -197 -115 -309q-113 -113 -293 -113h-600q-24 0 -39.5 15.5t-15.5 39.5v158q0 23 16 39t39 16h199l-86 293q0 166 102 289t307 123zM743 420v143q0 57 -41 99.5t-96 42.5h-86q-67 0 -105 -44.5t-38 -117.5l72 -275h157
q58 0 97.5 42t39.5 110z" />
    <glyph glyph-name="uniFED8" unicode="&#x642;" horiz-adv-x="1193" arabic-form="medial" 
d="M463 1108h-156q-23 0 -39 16t-16 37v150q0 20 16 33.5t39 13.5h156q20 0 34.5 -13.5t14.5 -33.5v-150q0 -23 -14 -38t-35 -15zM821 1108h-155q-23 0 -38.5 15t-15.5 38v150q0 20 15.5 33.5t38.5 13.5h155q20 0 34.5 -13.5t14.5 -33.5v-150q0 -23 -14 -38t-35 -15z
M1194 268q23 0 38 -16t15 -39v-158q0 -25 -15 -40t-38 -15q-204 0 -287 123q-114 -123 -305 -123h-600q-24 0 -39.5 15.5t-15.5 39.5v158q0 23 16 39t39 16h199l-86 293q0 166 102 289t307 123h78q188 0 298 -109t110 -303v-121q0 -84 48 -128t136 -44zM743 420v143
q0 57 -41 99.5t-96 42.5h-86q-67 0 -105 -44.5t-38 -117.5l72 -275h157q58 0 97.5 42t39.5 110z" />
    <glyph glyph-name="uniFEDA" unicode="&#x643;" horiz-adv-x="1705" arabic-form="final" 
d="M1706 268q23 0 38 -16t15 -39v-158q0 -25 -15 -40t-38 -15q-194 0 -276 111q-102 -111 -324 -111h-537q-210 0 -320 116t-110 324v125q0 155 107 262q20 23 51.5 25t54.5 -18l82 -74q45 -39 4 -105q-32 -46 -32 -118v-97q0 -75 46.5 -123.5t118.5 -48.5h539
q145 0 145 144v970q0 31 21.5 53.5t52.5 22.5h117q32 0 54 -22.5t22 -53.5v-942q0 -84 48 -128t136 -44zM846 610h-205q-19 0 -31 12t-12 31v109q0 18 12.5 31.5t30.5 13.5h207q58 0 61 49l-194 31q-42 6 -51 41l-29 94q-12 46 22 70l271 196q14 11 32.5 1.5t18.5 -29.5
v-119q0 -47 -37 -62l-119 -47l2 -6l185 -33q80 -15 80 -88v-49q0 -128 -55.5 -187t-188.5 -59z" />
    <glyph glyph-name="uniFEDB" unicode="&#x643;" horiz-adv-x="1253" arabic-form="initial" 
d="M1085 1610v-174q0 -58 -53 -93l-616 -376l6 -25l575 -102q80 -12 80 -92v-351q0 -206 -90.5 -301.5t-308.5 -95.5h-676q-55 0 -55 76v119q0 73 55 73h680q69 0 98 29t29 98v207l-551 96q-61 12 -76 68l-57 217q-11 32 -3 55t38 43l848 570q25 17 51 3.5t26 -44.5z" />
    <glyph glyph-name="uniFEDC" unicode="&#x643;" horiz-adv-x="1259" arabic-form="medial" 
d="M1260 268q23 0 38 -16t15 -39v-158q0 -25 -15 -40t-38 -15q-184 0 -271 100q-87 -100 -311 -100h-676q-55 0 -55 76v119q0 73 55 73h680q69 0 98 29t29 98v207l-551 96q-61 12 -76 68l-57 217q-11 32 -3 55t38 43l848 570q25 17 51 3.5t26 -44.5v-174q0 -58 -53 -93
l-616 -376l6 -25l575 -102q80 -12 80 -92v-340q18 -140 183 -140z" />
    <glyph glyph-name="uniFEDE" unicode="&#x644;" horiz-adv-x="1546" arabic-form="final" 
d="M1546 268q23 0 38 -16t15 -39v-158q0 -25 -15 -40t-38 -15q-110 0 -182 35v-60q0 -417 -422 -417h-350q-220 0 -336 131q-117 132 -117 311q0 212 121 389q18 27 46.5 34t55.5 -11l89 -60q26 -17 32.5 -47.5t-10.5 -56.5q-65 -106 -65 -215q0 -99 48.5 -153t135.5 -54
h350q154 0 154 147v103l-2 1114h-50q-32 0 -53.5 21.5t-21.5 52.5v118q0 31 21.5 53.5t53.5 22.5h242q31 0 53.5 -22.5t22.5 -53.5l2 -970q15 -144 182 -144z" />
    <glyph glyph-name="uniFEDF" unicode="&#x644;" horiz-adv-x="702" arabic-form="initial" 
d="M117 0h-117q-23 0 -38 15t-15 40v158q0 23 15 39t38 16h119q145 0 145 144v778h-51q-31 0 -53.5 21.5t-22.5 52.5v118q0 31 22.5 53.5t53.5 22.5h242q31 0 54 -22.5t23 -53.5v-968q0 -207 -99 -310.5t-316 -103.5z" />
    <glyph glyph-name="uniFEE0" unicode="&#x644;" horiz-adv-x="714" arabic-form="medial" 
d="M715 268q23 0 38 -16t15 -39v-158q0 -25 -15 -40t-38 -15q-194 0 -277 109q-103 -109 -321 -109h-117q-23 0 -38 15t-15 40v158q0 23 15 39t38 16h119q145 0 145 144v778h-51q-31 0 -53.5 21.5t-22.5 52.5v118q0 31 22.5 53.5t53.5 22.5h242q31 0 54 -22.5t23 -53.5v-968
v-6q18 -140 183 -140z" />
    <glyph glyph-name="uniFEE2" unicode="&#x645;" horiz-adv-x="1374" arabic-form="final" 
d="M1374 268q23 0 38 -16t15 -39v-158q0 -25 -15 -40t-38 -15q-204 0 -287 123q-111 -123 -303 -123h-258h-2h-37q-125 0 -125 -109v-430q0 -31 -22 -53t-53 -22h-117q-31 0 -53.5 22t-22.5 53v428q0 153 78.5 254t212.5 121l-90 297q0 167 104 289q102 123 306 123h79
q187 0 297.5 -109t110.5 -303v-139v-12q18 -142 182 -142zM926 420v143q0 57 -42 99.5t-96 42.5h-86q-68 0 -106.5 -44.5t-38.5 -117.5l72 -275h159q57 0 97.5 42.5t40.5 109.5z" />
    <glyph glyph-name="uniFEE3" unicode="&#x645;" horiz-adv-x="1232" arabic-form="initial" 
d="M612 973h60q189 0 298 -105.5t109 -298.5v-186q0 -198 -114 -309q-116 -113 -293 -113l-322 133q-104 -94 -264 -94h-86q-23 0 -38 15t-15 40v158q0 23 15 39t38 16h84q64 0 91.5 25t27.5 84v192q0 189 109 296.5t300 107.5zM811 381v190q0 57 -40 95.5t-97 38.5h-66
q-55 0 -96 -39.5t-41 -94.5v-194q0 -10 -4 -64l205 -84q57 0 98 42.5t41 109.5z" />
    <glyph glyph-name="uniFEE4" unicode="&#x645;" horiz-adv-x="1261" arabic-form="medial" 
d="M1262 268q23 0 38 -16t15 -39v-158q0 -25 -15 -40t-38 -15q-184 0 -273 102q-114 -141 -317 -141l-322 133q-104 -94 -264 -94h-86q-23 0 -38 15t-15 40v158q0 23 15 39t38 16h84q64 0 91.5 25t27.5 84v192q0 189 109 296.5t300 107.5h60q189 0 298 -105.5t109 -298.5
v-161q18 -140 183 -140zM811 381v190q0 57 -40 95.5t-97 38.5h-66q-55 0 -96 -39.5t-41 -94.5v-194q0 -10 -4 -64l205 -84q57 0 98 42.5t41 109.5z" />
    <glyph glyph-name="uniFEE6" unicode="&#x646;" horiz-adv-x="1433" arabic-form="final" 
d="M760 670h-160q-23 0 -40 16t-17 39v152q0 20 17 35.5t40 15.5h160q23 0 37 -14t14 -37v-152q0 -24 -14 -39.5t-37 -15.5zM1434 268q23 0 38 -16t15 -39v-158q0 -25 -15 -40t-38 -15q-107 0 -185 35v-55q0 -207 -102 -312.5t-320 -105.5h-235q-220 0 -336 131
q-117 132 -117 311q0 221 121 389q18 27 46.5 34t55.5 -11l89 -60q26 -17 32.5 -47.5t-10.5 -56.5q-65 -109 -65 -215q0 -99 48.5 -153t135.5 -54h239q152 0 152 145v756q0 31 22.5 53.5t53.5 22.5h117q30 0 51.5 -22.5t21.5 -53.5v-291q0 -84 48 -128t137 -44z" />
    <glyph glyph-name="uniFEE7" unicode="&#x646;" horiz-adv-x="700" arabic-form="initial" 
d="M487 1087h-159q-23 0 -40.5 16.5t-17.5 39.5v151q0 20 17.5 36t40.5 16h159q23 0 37.5 -14.5t14.5 -37.5v-151q0 -24 -14.5 -40t-37.5 -16zM117 0h-117q-23 0 -38 15t-15 40v158q0 23 15 39t38 16h119q145 0 145 144v465q0 31 22.5 53t53.5 22h117q31 0 53 -22t22 -53
v-463q0 -207 -99 -310.5t-316 -103.5z" />
    <glyph glyph-name="uniFEE8" unicode="&#x646;" horiz-adv-x="772" arabic-form="medial" 
d="M487 1087h-159q-23 0 -40.5 16.5t-17.5 39.5v151q0 20 17.5 36t40.5 16h159q23 0 37.5 -14.5t14.5 -37.5v-151q0 -24 -14.5 -40t-37.5 -16zM698 268h74q23 0 38 -16t15 -39v-158q0 -25 -15 -40t-38 -15h-76q-168 0 -260 109q-103 -109 -319 -109h-117q-23 0 -38 15
t-15 40v158q0 23 15 39t38 16h119q145 0 145 144v465q0 31 22.5 53t53.5 22h117q31 0 53 -22t22 -53v-437q0 -75 47 -123.5t119 -48.5z" />
    <glyph glyph-name="uniFEE9" unicode="&#x647;" horiz-adv-x="1757" arabic-form="isolated" 
d="M903 1303h225q211 0 342 -119q132 -120 132 -336v-410q0 -198 -96.5 -318t-256.5 -120h-887q-143 0 -266 102q-24 19 -27.5 49.5t15.5 53.5l70 96q18 26 48 28.5t56 -18.5q64 -43 129 -43h62l-70 248q0 140 113 244q111 102 258 102h86q138 0 243 -102t105 -244v-84
q0 -93 -39 -164h63q66 0 96.5 40t30.5 130v410q0 186 -202 186h-189q-77 0 -135 -37q-66 -34 -104 13l-68 88q-20 25 -17 55t27 51q120 99 256 99zM815 594h-65q-49 0 -77 -34.5t-28 -94.5l51 -197h109q110 0 110 109v88q0 129 -100 129z" />
    <glyph glyph-name="uniFEEA" unicode="&#x647;" horiz-adv-x="1177" arabic-form="final" 
d="M1130 270h48q24 0 39.5 -15.5t15.5 -39.5v-160q0 -23 -16 -39t-39 -16h-88q-204 0 -299 164q-88 -101 -234 -101h-72q-145 0 -245 95q-101 94 -101 241v162q0 186 106 299t283 113h50q91 0 159 -51v59q0 31 22.5 53.5t53.5 22.5h117q31 0 53.5 -22.5t22.5 -53.5v-596
q0 -56 33 -85.5t91 -29.5zM545 332h53q67 0 103 40.5t36 110.5v80q0 66 -39 104t-100 38h-53q-58 0 -98.5 -39t-40.5 -103v-78q0 -153 139 -153z" />
    <glyph glyph-name="uniFEEB" unicode="&#x647;" horiz-adv-x="1476" arabic-form="initial" 
d="M623 1303h225q209 0 340 -119q133 -121 133 -336v-410q0 -198 -96 -318t-256 -120h-967q-24 0 -39.5 15.5t-15.5 39.5v158q0 23 16 39t39 16h166l-70 248q0 140 113 244q111 102 258 102h86q139 0 244 -102q104 -101 104 -244v-84q0 -93 -39 -164h64q66 0 96.5 40
t30.5 130v410q0 186 -203 186h-188q-78 0 -136 -37q-66 -34 -104 13l-68 88q-20 25 -16 55.5t29 50.5q114 99 254 99zM535 594h-66q-48 0 -76 -34.5t-28 -94.5l51 -197h108q111 0 111 109v88q0 129 -100 129z" />
    <glyph glyph-name="uniFEEC" unicode="&#x647;" horiz-adv-x="1134" arabic-form="medial" 
d="M958 270h177q23 0 39 -16t16 -39v-160q0 -24 -15.5 -39.5t-39.5 -15.5h-240l92 -244q21 -60 6 -94l-30 -63q-18 -41 -89 -41h-337q-167 0 -277 104t-110 285v53h-150q-23 0 -38 15t-15 40v160q0 23 15 39t38 16h150v291q0 176 110 295q108 117 281 117h94
q171 -3 278 -119q109 -121 109 -293v-121q0 -88 -64 -170zM635 705h-98q-53 0 -87 -38t-34 -104v-293h184q65 0 109.5 50t44.5 120v123q0 66 -32 103t-87 39zM535 -174h155l-65 174h-209v-55q0 -119 119 -119z" />
    <glyph glyph-name="uniFEEE" unicode="&#x648;" horiz-adv-x="1179" arabic-form="final" 
d="M1018 268h160q23 0 39 -16t16 -39v-158q0 -24 -15.5 -39.5t-39.5 -15.5h-160v-6q0 -214 -103 -325t-301 -111h-172q-154 0 -276 110q-23 23 -25.5 53.5t17.5 53.5l67 73q42 51 103 11q44 -33 118 -33h170q131 0 134 147v27h-254q-146 0 -248 102q-101 101 -101 252v207
q0 165 115 289q114 123 277 123h88q163 0 278 -115q111 -117 111 -297v-78q2 -2 2 -16v-199zM416 563v-123q0 -77 36.5 -124.5t102.5 -47.5h195v295q0 65 -40.5 103.5t-99.5 38.5h-55q-58 0 -98.5 -39t-40.5 -103z" />
    <glyph glyph-name="uniFEF0" unicode="&#x649;" horiz-adv-x="2007" arabic-form="final" 
d="M1829 268h178q53 0 53 -75v-117q0 -76 -53 -76h-371q-31 0 -53 22.5t-22 53.5v608h-162q-150 0 -150 -154v-555q0 -207 -102 -312t-320 -105h-235q-220 0 -336 131q-117 132 -117 311q0 221 121 389q18 27 46.5 34t55.5 -11l89 -60q26 -17 32.5 -47t-10.5 -55
q-48 -83 -60.5 -164t7 -139t65 -91.5t107.5 -29.5h239q152 0 152 145v557q0 212 99.5 318t316.5 106h354q31 0 53.5 -22t22.5 -53v-609z" />
    <glyph glyph-name="uniFEF2" unicode="&#x64a;" horiz-adv-x="2007" arabic-form="final" 
d="M1829 268h178q53 0 53 -75v-117q0 -76 -53 -76h-371q-31 0 -53 22.5t-22 53.5v608h-162q-150 0 -150 -154v-555q0 -207 -102 -312t-320 -105h-235q-220 0 -336 131q-117 132 -117 311q0 221 121 389q18 27 46.5 34t55.5 -11l89 -60q26 -17 32.5 -47t-10.5 -55
q-48 -83 -60.5 -164t7 -139t65 -91.5t107.5 -29.5h239q152 0 152 145v557q0 212 99.5 318t316.5 106h354q31 0 53.5 -22t22.5 -53v-609zM440 -578h156q23 0 37 -14t14 -35v-147q0 -23 -15 -38t-36 -15h-156q-23 0 -38 16t-15 37v147q0 21 15 35t38 14zM799 -578h155
q23 0 37.5 -14t14.5 -35v-147q0 -23 -15.5 -38t-36.5 -15h-155q-20 0 -37 16.5t-17 36.5v147q0 20 15.5 34.5t38.5 14.5z" />
    <glyph glyph-name="uniFEF3" unicode="&#x64a;" horiz-adv-x="813" arabic-form="initial" 
d="M229 0h-229q-23 0 -38 15t-15 40v158q0 23 15 39t38 16h233q146 0 146 144v465q0 31 21.5 53t52.5 22h118q31 0 52.5 -22t21.5 -53v-463q0 -207 -99.5 -310.5t-316.5 -103.5zM215 -385h-156q-23 0 -38 16t-15 37v148q0 21 15 35t38 14h156q23 0 37 -14t14 -35v-148
q0 -23 -15 -38t-36 -15zM573 -385h-155q-20 0 -36.5 16.5t-16.5 36.5v148q0 21 15 35t38 14h155q23 0 37.5 -14t14.5 -35v-148q0 -23 -15.5 -38t-36.5 -15z" />
    <glyph glyph-name="uniFEF4" unicode="&#x64a;" horiz-adv-x="884" arabic-form="medial" 
d="M811 268h74q23 0 38 -16t15 -39v-158q0 -25 -15 -40t-38 -15h-76q-172 0 -258 109q-103 -109 -322 -109h-229q-23 0 -38 15t-15 40v158q0 23 15 39t38 16h233q146 0 146 144v465q0 31 21.5 53t52.5 22h118q31 0 52.5 -22t21.5 -53v-437q0 -75 47 -123.5t119 -48.5z
M209 -135h156q23 0 37 -14t14 -35v-148q0 -23 -15 -38t-36 -15h-156q-20 0 -36.5 16.5t-16.5 36.5v148q0 21 15 35t38 14zM567 -135h156q23 0 37 -14t14 -35v-148q0 -23 -15 -38t-36 -15h-156q-23 0 -38 16t-15 37v148q0 21 15 35t38 14z" />
    <glyph glyph-name=".notdef" horiz-adv-x="0" 
 />
    <glyph glyph-name=".null" horiz-adv-x="0" 
 />
    <glyph glyph-name="nonmarkingreturn" horiz-adv-x="681" 
 />
    <glyph glyph-name="CR" unicode="&#xd;" horiz-adv-x="0" 
 />
    <glyph glyph-name="space" unicode=" " horiz-adv-x="573" 
 />
    <glyph glyph-name="exclam" unicode="!" 
d="M594 446h-117q-31 0 -53.5 22.5t-22.5 53.5v774q0 31 22.5 53.5t53.5 22.5h117q31 0 52.5 -22.5t21.5 -53.5v-774q0 -31 -21.5 -53.5t-52.5 -22.5zM621 0h-170q-31 0 -53.5 22.5t-22.5 53.5v182q0 31 22.5 53.5t53.5 22.5h170q31 0 53 -22.5t22 -53.5v-182
q0 -31 -22 -53.5t-53 -22.5z" />
    <glyph glyph-name="quotedbl" unicode="&#x22;" 
d="M387 1040h-117q-31 0 -52 21.5t-21 52.5v326q0 31 21.5 53.5t51.5 22.5h117q32 0 54 -22.5t22 -53.5v-326q0 -31 -22 -52.5t-54 -21.5zM805 1040h-117q-31 0 -53.5 21.5t-22.5 52.5v326q0 31 22.5 53.5t53.5 22.5h117q31 0 53.5 -22.5t22.5 -53.5v-326q0 -31 -22.5 -52.5
t-53.5 -21.5z" />
    <glyph glyph-name="numbersign" unicode="#" 
d="M958 1018h37q31 0 52.5 -22.5t21.5 -53.5v-72q0 -32 -21.5 -53.5t-52.5 -21.5h-86l-47 -224h101q31 0 53 -21t22 -52v-74q0 -31 -22 -53.5t-53 -22.5h-150l-61 -274q-15 -74 -90 -74h-111q-29 0 -47 22.5t-12 51.5l61 274h-178l-62 -274q-18 -74 -92 -74h-110
q-30 0 -47.5 22.5t-10.5 51.5l62 274h-37q-31 0 -52.5 22.5t-21.5 53.5v74q0 31 21.5 52t52.5 21h86l47 224h-102q-31 0 -53.5 21.5t-22.5 53.5v72q0 31 22.5 53.5t53.5 22.5h151l62 274q15 74 90 74h110q29 0 47.5 -22.5t12.5 -51.5l-62 -274h178l62 274q18 74 92 74h111
q29 0 47 -23.5t10 -50.5zM424 571h178l47 224h-178z" />
    <glyph glyph-name="dollar" unicode="$" 
d="M954 373q0 -147 -78.5 -245.5t-207.5 -131.5v-125q0 -31 -22.5 -53.5t-53.5 -22.5h-100q-31 0 -53.5 22.5t-22.5 53.5v119q-167 34 -281 160q-18 27 -13.5 55.5t25.5 46.5l82 59q58 43 113 -12q75 -84 184 -84q74 0 117 41t43 111q0 125 -135 180l-156 67
q-268 117 -268 381q0 144 77 239.5t210 133.5v131q0 31 22 53.5t53 22.5h101q31 0 53.5 -22.5t22.5 -53.5v-117q103 -15 206 -77q25 -12 32.5 -45.5t-11.5 -53.5l-59 -80q-27 -34 -64 -34q-8 1 -88 32q-76 29 -117 29q-76 0 -124 -40t-48 -107q0 -60 35.5 -97.5t116.5 -70.5
l137 -58q272 -117 272 -407z" />
    <glyph glyph-name="percent" unicode="%" 
d="M268 739q-227 0 -227 246v152q0 245 227 245q230 0 230 -245v-152q0 -246 -230 -246zM268 879q49 0 49 73v217q0 74 -49 74q-47 0 -47 -74v-217q0 -73 47 -73zM174 184l-29 27q-48 42 -2 100l652 867q19 25 49 27.5t53 -17.5l31 -27q45 -42 2 -100l-654 -866
q-19 -25 -49 -28t-53 17zM805 -10q-230 0 -230 248v149q0 246 230 246q227 0 227 -246v-149q0 -248 -227 -248zM805 129q47 0 47 74v217q0 74 -47 74q-49 0 -49 -74v-217q0 -74 49 -74z" />
    <glyph glyph-name="ampersand" unicode="&#x26;" 
d="M883 281l147 -199q20 -26 5.5 -54t-46.5 -28h-145q-24 -1 -40.5 2t-29.5 12.5t-19 15.5t-19 24.5t-19 25.5q-129 -100 -295 -100q-187 0 -293 106q-109 109 -109 264q0 250 207 389q-54 75 -81 156t-26 153t26 137t69.5 111t110 72t141.5 23q147 0 237.5 -88t90.5 -230
q0 -127 -51 -216.5t-158 -174.5l127 -172q36 97 53 199q12 75 88 75h96q26 0 47 -24t19 -51q-34 -253 -133 -428zM463 1149q-37 0 -58.5 -31.5t-21.5 -75.5q0 -72 59 -161q90 78 90 170q0 98 -69 98zM430 221q71 0 137 60l-190 256q-86 -74 -86 -170q0 -67 37 -106.5
t102 -39.5z" />
    <glyph glyph-name="quotesingle" unicode="'" 
d="M596 1040h-117q-32 0 -54 21.5t-22 52.5v326q0 31 22 53.5t54 22.5h117q31 0 52.5 -22.5t21.5 -53.5v-326q0 -31 -21.5 -52.5t-52.5 -21.5z" />
    <glyph glyph-name="parenleft" unicode="(" 
d="M813 -352h-123q-180 0 -285.5 110.5t-105.5 286.5v1073q0 176 105.5 287t285.5 111h123q32 0 54 -22.5t22 -53.5v-78q0 -31 -22 -53.5t-54 -22.5h-94q-170 0 -170 -180v-1049q0 -180 170 -180h94q32 0 54 -22.5t22 -53.5v-77q0 -31 -22 -53.5t-54 -22.5z" />
    <glyph glyph-name="parenright" unicode=")" 
d="M385 -352h-123q-32 0 -54 22.5t-22 53.5v77q0 31 22 53.5t54 22.5h94q170 0 170 180v1049q0 180 -170 180h-94q-32 0 -54 22.5t-22 53.5v78q0 31 22 53.5t54 22.5h123q180 0 285.5 -111t105.5 -287v-1073q0 -176 -105.5 -286.5t-285.5 -110.5z" />
    <glyph glyph-name="asterisk" unicode="*" 
d="M342 563l-74 45q-27 14 -35 45.5t9 57.5l100 168l-162 59q-29 10 -41.5 38t-1.5 58l31 80q10 29 38 41.5t58 1.5l154 -57v196q0 32 22.5 54t53.5 22h86q31 0 52 -22t21 -54v-196l156 57q29 10 57 -2t39 -39l31 -80q11 -30 -1.5 -59t-41.5 -39l-162 -59l100 -168
q17 -26 9 -57.5t-35 -45.5l-74 -45q-26 -14 -57.5 -5.5t-44.5 34.5l-92 151l-93 -151q-13 -26 -44.5 -34.5t-57.5 5.5z" />
    <glyph glyph-name="plus" unicode="+" 
d="M662 715h212q31 0 53.5 -22.5t22.5 -53.5v-96q0 -31 -22.5 -52.5t-53.5 -21.5h-212v-233q0 -31 -22.5 -53.5t-53.5 -22.5h-99q-31 0 -53 22.5t-22 53.5v233h-213q-31 0 -53.5 21.5t-22.5 52.5v96q0 31 22.5 53.5t53.5 22.5h213v231q0 31 22 53.5t53 22.5h99
q31 0 53.5 -22.5t22.5 -53.5v-231z" />
    <glyph glyph-name="comma" unicode="," 
d="M539 -301h-37q-30 0 -44.5 20t-6.5 50l65 231h-63q-31 0 -52.5 22.5t-21.5 53.5v182q0 31 21.5 53.5t52.5 22.5h170q32 0 53.5 -22.5t21.5 -53.5v-182q0 -84 -20 -148l-43 -157q-8 -28 -14.5 -39.5t-25.5 -20.5t-56 -12z" />
    <glyph glyph-name="hyphen" unicode="-" 
d="M731 469h-387q-31 0 -53.5 21.5t-22.5 52.5v96q0 31 22.5 53.5t53.5 22.5h387q31 0 52.5 -22.5t21.5 -53.5v-96q0 -31 -21.5 -52.5t-52.5 -21.5z" />
    <glyph glyph-name="period" unicode="." 
d="M623 0h-170q-31 0 -53.5 22.5t-22.5 53.5v182q0 31 22.5 53.5t53.5 22.5h170q31 0 53 -22.5t22 -53.5v-182q0 -31 -22 -53.5t-53 -22.5z" />
    <glyph glyph-name="slash" unicode="/" 
d="M338 0h-111q-36 0 -51.5 28.5t-1.5 65.5l461 1209q14 39 34.5 54t65.5 15h111q36 0 51.5 -28.5t1.5 -65.5l-459 -1208q-14 -38 -35.5 -54t-66.5 -16z" />
    <glyph glyph-name="zero" unicode="0" 
d="M950 940v-510q0 -450 -413 -450q-414 0 -414 450v510q0 451 414 451q413 0 413 -451zM426 262q35 -41 111 -41q77 0 112 41q33 39 33 135v576q0 94 -33.5 135t-111.5 41t-112 -41t-34 -135v-576q0 -94 35 -135z" />
    <glyph glyph-name="one" unicode="1" 
d="M702 242h234q31 0 53.5 -22.5t22.5 -53.5v-90q0 -31 -22.5 -53.5t-53.5 -22.5h-739q-32 0 -54 22.5t-22 53.5v90q0 31 22 53.5t54 22.5h235v802l-125 -124q-23 -26 -63 -11q-41 15 -41 52v104q0 74 55 129l123 125q53 53 125 53h2h119q31 0 53 -22.5t22 -53.5v-1054z" />
    <glyph glyph-name="two" unicode="2" 
d="M496 240h383q31 0 53 -22.5t22 -53.5v-90q0 -31 -22 -53.5t-53 -22.5h-676q-32 0 -54 22.5t-22 53.5v90q0 47 12 72t45 53q336 297 428 446q45 73 59.5 120t14.5 108q0 87 -43 136.5t-127 49.5q-98 0 -172 -74q-50 -56 -113 -10l-79 59q-21 14 -25.5 48.5t12.5 54.5
q144 164 381 164q221 0 330 -127q104 -125 104 -314q0 -150 -94 -313q-92 -161 -364 -397z" />
    <glyph glyph-name="three" unicode="3" 
d="M815 678q123 -108 123 -275q0 -190 -115.5 -306.5t-320.5 -116.5q-236 0 -379 165q-17 20 -12.5 53.5t24.5 47.5l80 59q63 46 113 -10q68 -74 170 -74q83 0 127.5 46t44.5 126q0 84 -43.5 126t-120.5 42h-25q-31 0 -53 21.5t-22 52.5v92q0 31 22 52.5t53 21.5h25
q71 0 117.5 47t46.5 129q0 80 -43.5 126.5t-126.5 45.5q-99 0 -170 -74q-54 -54 -113 -10l-80 59q-23 17 -27 49t15 52q144 166 377 166q205 0 320.5 -117t115.5 -307q0 -178 -123 -289z" />
    <glyph glyph-name="four" unicode="4" 
d="M838 547h47q31 0 53.5 -22.5t22.5 -53.5v-90q0 -31 -22.5 -53.5t-53.5 -22.5h-47v-229q0 -31 -22.5 -53.5t-53.5 -22.5h-119q-31 0 -53.5 22.5t-22.5 53.5v229h-422q-32 0 -53.5 22.5t-21.5 53.5v92q0 67 43 143l403 670q47 83 121 86h6h119q31 0 53.5 -22.5t22.5 -53.5
v-749zM567 903l-217 -356h217v356z" />
    <glyph glyph-name="five" unicode="5" 
d="M584 901q182 0 274.5 -118.5t97.5 -333.5v-43q0 -199 -113.5 -312.5t-320.5 -113.5q-228 0 -368 165q-17 20 -12.5 53.5t24.5 47.5l84 59q57 46 110 -10q62 -74 158 -74q80 0 126 43.5t46 126.5v82q0 189 -145 189q-71 0 -117 -46q-9 -6 -24 -18.5t-24 -18.5t-15 -8
q-24 -12 -82 -12h-58q-31 0 -53 21.5t-22 52.5v663q0 31 22 53.5t53 22.5h609q32 0 53.5 -22.5t21.5 -53.5v-90q0 -31 -21.5 -53.5t-53.5 -22.5h-416v-282q83 53 166 53z" />
    <glyph glyph-name="six" unicode="6" 
d="M561 889q181 0 285 -110t108 -310v-39q0 -450 -411 -450q-410 0 -410 450v485q0 231 108 353.5t326 122.5q201 0 334 -142q19 -23 15 -54t-27 -48l-76 -55q-38 -23 -57.5 -21t-57.5 29q-58 49 -131 49q-88 0 -128 -48t-40 -157v-106q68 51 162 51zM686 397v74
q0 93 -34 134.5t-109 41.5q-81 0 -112.5 -38.5t-31.5 -137.5v-74q0 -93 34.5 -134.5t109.5 -41.5t109 41.5t34 134.5z" />
    <glyph glyph-name="seven" unicode="7" 
d="M176 1372h692q31 0 53.5 -22.5t22.5 -53.5v-90q0 -61 -22 -129l-355 -1022q-15 -55 -78 -55h-141q-28 0 -45.5 25.5t-5.5 56.5l365 1048h-486q-32 0 -54 22.5t-22 53.5v90q0 31 22 53.5t54 22.5z" />
    <glyph glyph-name="eight" unicode="8" 
d="M819 692q131 -110 131 -319q0 -177 -114 -285t-301 -108q-183 0 -297 108q-115 109 -115 285q0 209 131 319q-121 112 -121 307q0 180 108 286t294 106q188 0 296.5 -105.5t108.5 -286.5q0 -195 -121 -307zM535 1149q-134 0 -134 -170q0 -174 134 -174q137 0 137 174
q0 170 -137 170zM535 221q147 0 147 176q0 183 -147 183q-144 0 -144 -183q0 -176 144 -176z" />
    <glyph glyph-name="nine" unicode="9" 
d="M532 1391q410 0 410 -451v-487q0 -230 -108 -351.5t-326 -121.5q-202 0 -334 141q-18 24 -14.5 54t24.5 48l78 56q39 22 56.5 19.5t58.5 -28.5q58 -49 131 -49q88 0 128 48t40 157v106q-68 -51 -162 -51q-184 0 -288.5 111.5t-104.5 308.5v39q0 451 411 451zM532 723
q81 0 112.5 38.5t31.5 137.5v74q0 93 -35 134.5t-109 41.5q-75 0 -109 -41.5t-34 -134.5v-74q0 -93 34 -134.5t109 -41.5z" />
    <glyph glyph-name="colon" unicode=":" 
d="M623 737h-170q-31 0 -53.5 21.5t-22.5 52.5v184q0 31 22.5 53.5t53.5 22.5h170q31 0 53 -22.5t22 -53.5v-184q0 -31 -22 -52.5t-53 -21.5zM623 0h-170q-31 0 -53.5 22.5t-22.5 53.5v182q0 31 22.5 53.5t53.5 22.5h170q31 0 53 -22.5t22 -53.5v-182q0 -31 -22 -53.5
t-53 -22.5z" />
    <glyph glyph-name="semicolon" unicode=";" 
d="M623 737h-170q-31 0 -53.5 21.5t-22.5 52.5v184q0 31 22.5 53.5t53.5 22.5h170q31 0 53 -22.5t22 -53.5v-184q0 -31 -22 -52.5t-53 -21.5zM539 -301h-37q-30 0 -44.5 20t-6.5 50l65 231h-63q-31 0 -52.5 22.5t-21.5 53.5v182q0 31 21.5 53.5t52.5 22.5h170
q32 0 53.5 -22.5t21.5 -53.5v-182q0 -84 -20 -148l-43 -157q-8 -28 -14.5 -39.5t-25.5 -20.5t-56 -12z" />
    <glyph glyph-name="less" unicode="&#x3c;" 
d="M848 29l-666 350q-67 34 -67 104v125q0 77 67 107l666 350q32 14 63 -2t31 -51v-92q0 -46 -15 -68.5t-53 -40.5l-495 -264l495 -264q38 -18 53 -39.5t15 -67.5v-94q0 -35 -31 -51t-63 -2z" />
    <glyph glyph-name="equal" unicode="=" 
d="M877 688h-678q-31 0 -53.5 22.5t-22.5 53.5v96q0 31 22.5 52.5t53.5 21.5h678q31 0 53 -21.5t22 -52.5v-96q0 -31 -22 -53.5t-53 -22.5zM877 244h-678q-31 0 -53.5 22t-22.5 53v97q0 31 22.5 53.5t53.5 22.5h678q31 0 53 -22.5t22 -53.5v-97q0 -31 -22 -53t-53 -22z" />
    <glyph glyph-name="greater" unicode="&#x3e;" 
d="M897 379l-666 -350q-32 -14 -64 2t-32 51v94q0 45 15 66t55 41l495 264l-495 264q-39 20 -54.5 42t-15.5 67v92q0 35 32 51t64 2l666 -350q68 -30 68 -107v-125q0 -69 -68 -104z" />
    <glyph glyph-name="question" unicode="?" 
d="M594 428h-119q-31 0 -53.5 21.5t-22.5 52.5v37q0 89 56 157l123 148q79 98 90 129q6 21 6 49q0 56 -45.5 91.5t-118.5 35.5q-99 0 -178 -76q-56 -53 -111 -12l-82 59q-20 14 -24.5 47.5t12.5 53.5q141 170 377 170q193 0 315 -93q119 -91 119 -237q0 -152 -117 -293
l-104 -121q-47 -56 -47 -121v-24q0 -31 -22.5 -52.5t-53.5 -21.5zM621 0h-170q-32 0 -54 22.5t-22 53.5v182q0 31 22 53.5t54 22.5h170q30 0 51.5 -22.5t21.5 -53.5v-182q0 -31 -21.5 -53.5t-51.5 -22.5z" />
    <glyph glyph-name="at" unicode="@" 
d="M537 -381q-227 0 -352.5 135t-125.5 369v760q0 237 125.5 373.5t352.5 136.5t352 -136.5t125 -373.5v-633q0 -132 -56.5 -201t-156.5 -69q-67 0 -116.5 31t-66.5 87q-26 -55 -85.5 -86.5t-137.5 -31.5q-139 0 -196.5 82.5t-28.5 238.5l90 504q70 309 275 309
q132 0 172 -100l6 24q6 45 53 45h119q23 0 33.5 -19t5.5 -46l-152 -723q-7 -40 15.5 -66t56.5 -26q62 0 86 51.5t24 191.5v437q0 209 -105 329.5t-312 120.5q-201 0 -309.5 -118.5t-108.5 -331.5v-760q0 -209 108.5 -325.5t309.5 -116.5q208 0 321 131q22 22 37 6l12 -13
q13 -13 -2 -30q-132 -156 -368 -156zM446 221q55 0 70 70l109 522q12 59 -43 59q-58 0 -70 -71l-111 -520q-12 -60 45 -60z" />
    <glyph glyph-name="A" unicode="A" 
d="M686 1300l354 -1214q8 -33 -11.5 -59.5t-51.5 -26.5h-117q-76 0 -94 74l-61 225h-336l-62 -225q-21 -74 -94 -74h-115q-32 0 -52.5 27t-12.5 59l354 1214q21 72 96 72h107q75 0 96 -72zM635 557l-98 414l-99 -414h197z" />
    <glyph glyph-name="B" unicode="B" 
d="M850 700q145 -103 145 -292q0 -182 -111.5 -295t-299.5 -113h-396q-31 0 -53 22.5t-22 53.5v1220q0 31 22 53.5t53 22.5h377q182 0 292 -110t110 -289q0 -185 -117 -273zM698 969q0 64 -37 100.5t-96 36.5h-182v-281h180q63 0 99 38.5t36 105.5zM383 266h201
q66 0 103.5 39.5t37.5 108.5t-37.5 108t-103.5 39h-201v-295z" />
    <glyph glyph-name="C" unicode="C" 
d="M571 -20q-215 0 -335.5 128t-120.5 347v460q0 219 120.5 347.5t335.5 128.5q265 0 398 -189q17 -23 11.5 -55.5t-28.5 -46.5l-108 -70q-48 -34 -109 21q-64 73 -164 73q-188 0 -188 -209v-460q0 -209 188 -209q100 0 164 73q61 55 109 21l108 -70q23 -14 28.5 -46.5
t-11.5 -55.5q-132 -188 -398 -188z" />
    <glyph glyph-name="D" unicode="D" 
d="M197 1372h360q216 0 329 -126t113 -351v-424q0 -221 -113 -346t-329 -125h-360q-31 0 -53.5 22.5t-22.5 53.5v1220q0 31 22.5 53.5t53.5 22.5zM731 471v424q0 109 -42.5 160t-131.5 51h-168v-840h168q174 0 174 205z" />
    <glyph glyph-name="E" unicode="E" 
d="M813 1106h-344v-281h289q31 0 53.5 -21.5t22.5 -51.5v-117q0 -31 -22.5 -52.5t-53.5 -21.5h-289v-295h344q32 0 54 -22.5t22 -53.5v-114q0 -31 -22 -53.5t-54 -22.5h-539q-30 0 -51.5 22.5t-21.5 53.5v1220q0 31 21.5 53.5t51.5 22.5h539q32 0 54 -22.5t22 -53.5v-114
q0 -31 -22 -53.5t-54 -22.5z" />
    <glyph glyph-name="F" unicode="F" 
d="M295 1372h536q31 0 53.5 -22.5t22.5 -53.5v-114q0 -31 -22.5 -53.5t-53.5 -22.5h-342v-281h285q31 0 53.5 -21.5t22.5 -51.5v-115q0 -32 -22.5 -54t-53.5 -22h-285v-485q0 -31 -22 -53.5t-53 -22.5h-119q-31 0 -53.5 22.5t-22.5 53.5v1220q0 31 22.5 53.5t53.5 22.5z" />
    <glyph glyph-name="G" unicode="G" 
d="M618 825h291q32 0 54 -21t22 -52v-297q0 -223 -114 -349t-328 -126q-212 0 -325.5 126t-113.5 349v460q0 219 121 347.5t336 128.5q264 0 397 -189q17 -23 12 -56t-28 -46l-108 -70q-48 -34 -109 21q-64 73 -164 73q-188 0 -188 -209v-460q0 -209 170 -209q88 0 131 50.5
t43 158.5v106h-99q-31 0 -53 21.5t-22 52.5v117q0 31 22 52t53 21z" />
    <glyph glyph-name="H" unicode="H" 
d="M782 1372h119q31 0 53.5 -22.5t22.5 -53.5v-1220q0 -31 -22.5 -53.5t-53.5 -22.5h-119q-31 0 -53 22.5t-22 53.5v485h-342v-485q0 -31 -22.5 -53.5t-53.5 -22.5h-119q-31 0 -53.5 22.5t-22.5 53.5v1220q0 31 22.5 53.5t53.5 22.5h119q31 0 53.5 -22.5t22.5 -53.5v-471
h342v471q0 31 22 53.5t53 22.5z" />
    <glyph glyph-name="I" unicode="I" 
d="M850 1106h-178v-840h178q31 0 53.5 -22.5t22.5 -53.5v-114q0 -31 -22.5 -53.5t-53.5 -22.5h-625q-31 0 -53 22.5t-22 53.5v114q0 31 22 53.5t53 22.5h178v840h-178q-31 0 -53 22.5t-22 53.5v114q0 31 22 53.5t53 22.5h625q31 0 53.5 -22.5t22.5 -53.5v-114
q0 -31 -22.5 -53.5t-53.5 -22.5z" />
    <glyph glyph-name="J" unicode="J" 
d="M336 1372h532q31 0 53.5 -22.5t22.5 -53.5v-841q0 -219 -122 -347t-337 -128q-265 0 -397 188q-17 23 -11 55.5t29 46.5l107 70q49 32 109 -21q67 -73 163 -73q189 0 189 209v651h-338q-31 0 -53.5 22.5t-22.5 53.5v114q0 31 22.5 53.5t53.5 22.5z" />
    <glyph glyph-name="K" unicode="K" 
d="M664 780l350 -682q17 -35 0.5 -66.5t-53.5 -31.5h-115q-45 0 -67 15t-42 53l-231 442l-135 -234v-200q0 -31 -22.5 -53.5t-53.5 -22.5h-119q-31 0 -53.5 22.5t-22.5 53.5v1220q0 31 22.5 53.5t53.5 22.5h119q31 0 53.5 -22.5t22.5 -53.5v-497l303 508q21 37 44 51t68 14
h113q38 0 54 -33t-3 -65z" />
    <glyph glyph-name="L" unicode="L" 
d="M463 266h389q32 0 54 -22.5t22 -53.5v-114q0 -31 -22 -53.5t-54 -22.5h-582q-32 0 -53.5 22.5t-21.5 53.5v1220q0 31 21.5 53.5t53.5 22.5h119q31 0 52.5 -22.5t21.5 -53.5v-1030z" />
    <glyph glyph-name="M" unicode="M" 
d="M797 1372h118q31 0 53.5 -22.5t22.5 -53.5v-1220q0 -31 -22.5 -53.5t-53.5 -22.5h-118q-31 0 -53.5 22.5t-22.5 53.5v784l-109 -307q-21 -64 -71 -64h-31q-56 0 -74 64l-84 268v-745q0 -31 -22.5 -53.5t-53.5 -22.5h-118q-31 0 -53.5 22.5t-22.5 53.5v1220
q0 31 22.5 53.5t53.5 22.5h118h11q71 -6 92 -82l145 -461l170 461q13 41 32 59.5t60 22.5h11z" />
    <glyph glyph-name="N" unicode="N" 
d="M797 1372h118q31 0 53.5 -22.5t22.5 -53.5v-1220q0 -31 -22.5 -53.5t-53.5 -22.5h-118h-9q-39 4 -58 22t-38 58l-340 727v-731q0 -31 -22.5 -53.5t-53.5 -22.5h-118q-31 0 -53.5 22.5t-22.5 53.5v1220q0 31 22.5 53.5t53.5 22.5h118h7q34 -6 52.5 -16.5t25 -21
t22.5 -42.5l338 -762v766q0 31 22.5 53.5t53.5 22.5z" />
    <glyph glyph-name="O" unicode="O" 
d="M866 109q-114 -129 -329 -129q-217 0 -328 129q-113 125 -113 346v460q0 223 113.5 349.5t327.5 126.5t328 -126.5t114 -349.5v-460q0 -221 -113 -346zM537 246q88 0 130 50.5t42 158.5v460q0 108 -42 158.5t-130 50.5q-170 0 -170 -209v-460q0 -209 170 -209z" />
    <glyph glyph-name="P" unicode="P" 
d="M205 1372h373q205 0 325 -141q117 -144 117 -340q0 -197 -117 -338q-119 -143 -325 -143h-181v-334q0 -31 -21.5 -53.5t-51.5 -22.5h-119q-32 0 -54 22.5t-22 53.5v1220q0 31 22 53.5t54 22.5zM397 674h160q93 0 142 59.5t49 157.5t-48.5 156.5t-142.5 58.5h-160v-432z
" />
    <glyph glyph-name="Q" unicode="Q" 
d="M979 915v-460q0 -182 -78 -301l39 -48q46 -54 -8 -102l-58 -53q-25 -20 -56.5 -17.5t-51.5 27.5l-41 49q-79 -30 -188 -30q-214 0 -327.5 126t-113.5 349v460q0 223 113.5 349.5t327.5 126.5t328 -126.5t114 -349.5zM635 477l70 -84q4 50 4 62v460q0 108 -42 158.5
t-130 50.5q-170 0 -170 -209v-460q0 -106 40 -157t125 -52l-71 86q-20 25 -17 53.5t27 52.5l55 47q25 21 57 18.5t52 -26.5z" />
    <glyph glyph-name="R" unicode="R" 
d="M743 584l250 -490q19 -26 1.5 -60t-54.5 -34h-123q-79 0 -110 66l-269 507q-5 1 -45 11v-508q0 -31 -22.5 -53.5t-53.5 -22.5h-118q-31 0 -53.5 22.5t-22.5 53.5v1220q0 31 22.5 53.5t53.5 22.5h387q184 0 293 -112q108 -114 108 -293q0 -137 -64.5 -238.5t-179.5 -144.5
zM586 1106h-193v-291h191q58 0 95.5 40.5t37.5 107.5q0 65 -36.5 104t-94.5 39z" />
    <glyph glyph-name="S" unicode="S" 
d="M547 -20q-289 0 -445 184q-17 19 -12.5 52t27.5 46l90 64q37 25 62.5 24.5t66.5 -26.5q90 -78 205 -78q82 0 131 38.5t49 104.5q0 116 -125 150l-186 55q-146 44 -223.5 147.5t-77.5 247.5q0 197 135 299q133 103 327 103q200 0 349 -88q24 -17 29.5 -47.5t-11.5 -53.5
l-74 -102q-38 -50 -108 -23q-112 47 -207 47q-76 0 -123 -35.5t-47 -101.5q0 -99 113 -133l186 -55q164 -50 238.5 -153t74.5 -269q0 -191 -129 -293q-128 -104 -315 -104z" />
    <glyph glyph-name="T" unicode="T" 
d="M164 1372h747q31 0 53.5 -22.5t22.5 -53.5v-114q0 -31 -22.5 -53.5t-53.5 -22.5h-239v-1030q0 -31 -21.5 -53.5t-52.5 -22.5h-119q-32 0 -54 22.5t-22 53.5v1030h-239q-31 0 -53.5 22.5t-22.5 53.5v114q0 31 22.5 53.5t53.5 22.5z" />
    <glyph glyph-name="U" unicode="U" 
d="M866 109q-114 -129 -329 -129q-217 0 -328 129q-113 125 -113 346v841q0 31 22.5 53.5t53.5 22.5h119q31 0 53.5 -22.5t22.5 -53.5v-841q0 -209 170 -209q88 0 130 50.5t42 158.5v841q0 31 22 53.5t53 22.5h119q31 0 53.5 -22.5t22.5 -53.5v-841q0 -221 -113 -346z" />
    <glyph glyph-name="V" unicode="V" 
d="M575 0h-92q-75 0 -96 72l-354 1214q-8 32 12.5 59t52.5 27h115q74 0 92 -74l232 -897l231 897q18 74 92 74h115q32 0 52.5 -27t12.5 -59l-350 -1200q-10 -38 -43 -62t-72 -24z" />
    <glyph glyph-name="W" unicode="W" 
d="M348 0h-119q-31 0 -52.5 21.5t-26.5 54.5l-107 1216q-4 32 15.5 56t50.5 24h118q79 0 82 -74l43 -839l86 596q9 69 72 69h53q62 0 74 -69l84 -596l43 839q0 74 82 74h117q31 0 49.5 -22.5t17.5 -57.5l-104 -1216q-5 -33 -27.5 -54.5t-54.5 -21.5h-119q-32 0 -56 21.5
t-30 54.5l-102 590l-103 -590q-5 -32 -29.5 -54t-56.5 -22z" />
    <glyph glyph-name="X" unicode="X" 
d="M702 694l312 -614q14 -26 -3 -53t-48 -27h-123q-72 0 -107 68l-194 411l-197 -411q-18 -37 -40.5 -52.5t-65.5 -15.5h-123q-32 0 -49 26.5t-3 53.5l312 614l-289 598q-14 26 3 53t48 27h125q73 0 102 -69l177 -390l174 390q26 69 102 69h125q31 0 48 -27t3 -53z" />
    <glyph glyph-name="Y" unicode="Y" 
d="M838 1372h123q44 0 62 -24t1 -62l-352 -797v-413q0 -31 -22 -53.5t-54 -22.5h-119q-31 0 -52.5 22.5t-21.5 53.5v409l-356 801q-17 38 1 62t63 24h127q39 0 58.5 -16.5t33.5 -57.5l207 -491l208 491q15 40 34.5 57t58.5 17z" />
    <glyph glyph-name="Z" unicode="Z" 
d="M432 266h451q31 0 53 -22.5t22 -53.5v-114q0 -31 -22 -53.5t-53 -22.5h-690q-32 0 -54 22.5t-22 53.5v114q0 80 39 136l483 780h-440q-31 0 -53.5 22.5t-22.5 53.5v114q0 31 22.5 53.5t53.5 22.5h678q31 0 53 -22.5t22 -53.5v-114q0 -79 -39 -135z" />
    <glyph glyph-name="bracketleft" unicode="[" 
d="M813 1288h-264v-1413h264q32 0 54 -22.5t22 -53.5v-75q0 -31 -22 -53.5t-54 -22.5h-440q-31 0 -52.5 22.5t-21.5 53.5v1716q0 31 21.5 53.5t52.5 22.5h440q32 0 54 -22.5t22 -53.5v-76q0 -31 -22 -53.5t-54 -22.5z" />
    <glyph glyph-name="backslash" unicode="\" 
d="M846 0h-111q-45 0 -66.5 16t-35.5 54l-459 1208q-14 37 1.5 65.5t51.5 28.5h111q45 0 65.5 -15t34.5 -54l461 -1209q14 -37 -1.5 -65.5t-51.5 -28.5z" />
    <glyph glyph-name="bracketright" unicode="]" 
d="M260 1516h440q31 0 52.5 -22.5t21.5 -53.5v-1716q0 -31 -21.5 -53.5t-52.5 -22.5h-440q-32 0 -54 22.5t-22 53.5v75q0 31 22 53.5t54 22.5h264v1413h-264q-32 0 -54 22.5t-22 53.5v76q0 31 22 53.5t54 22.5z" />
    <glyph glyph-name="asciicircum" unicode="^" 
d="M283 668h-121q-33 0 -51.5 26t-6.5 58l279 694q27 70 100 70h107q73 0 100 -70l279 -694q12 -32 -6.5 -58t-51.5 -26h-120q-77 0 -103 69l-151 381l-152 -381q-26 -69 -102 -69z" />
    <glyph glyph-name="underscore" unicode="_" 
d="M877 -322h-678q-31 0 -53.5 22.5t-22.5 53.5v94q0 31 22.5 53.5t53.5 22.5h678q31 0 53 -22.5t22 -53.5v-94q0 -31 -22 -53.5t-53 -22.5z" />
    <glyph glyph-name="a" unicode="a" 
d="M963 221h18q31 0 31 -37v-116q0 -30 -21 -48q-41 -30 -119 -30q-58 0 -109.5 28.5t-70.5 77.5q-79 -116 -250 -116q-168 0 -256 114.5t-88 335.5v236q0 219 88 333.5t256 114.5q140 0 220 -80q0 49 61 49h131q31 0 53.5 -21.5t22.5 -51.5v-744q0 -45 33 -45zM655 350v393
q0 52 -38 84.5t-105 32.5q-145 0 -145 -164v-299q0 -164 145 -164q67 0 105 32.5t38 84.5z" />
    <glyph glyph-name="b" unicode="b" 
d="M612 1114q168 0 256 -114.5t88 -333.5v-236q0 -221 -88 -335.5t-256 -114.5q-138 0 -215 77q-18 -57 -73 -57h-117q-31 0 -53.5 22.5t-22.5 53.5v1364q0 31 22.5 53.5t53.5 22.5h117q31 0 53 -22.5t22 -53.5v-400q80 74 213 74zM688 397v299q0 164 -145 164
q-68 0 -106 -32.5t-38 -84.5v-393q0 -52 38 -84.5t106 -32.5q145 0 145 164z" />
    <glyph glyph-name="c" unicode="c" 
d="M586 -20q-208 0 -315 117.5t-107 340.5v217q0 223 107 341t315 118q214 0 332 -139q17 -23 12.5 -54.5t-27.5 -48.5l-63 -47q-42 -23 -59.5 -22t-65.5 28q-59 41 -129 41q-156 0 -156 -184v-282q0 -185 156 -185q73 0 129 41q48 27 65.5 28t59.5 -22l63 -47
q23 -17 27.5 -48t-12.5 -54q-118 -139 -332 -139z" />
    <glyph glyph-name="d" unicode="d" 
d="M750 1516h116q31 0 53.5 -22.5t22.5 -53.5v-1364q0 -31 -22.5 -53.5t-53.5 -22.5h-116q-56 0 -74 57q-77 -77 -215 -77q-168 0 -256 114.5t-88 335.5v236q0 219 88 333.5t256 114.5q133 0 213 -74v400q0 31 22.5 53.5t53.5 22.5zM530 233q68 0 106 32.5t38 84.5v393
q0 52 -38 84.5t-106 32.5q-145 0 -145 -164v-299q0 -164 145 -164z" />
    <glyph glyph-name="e" unicode="e" 
d="M129 438v228q0 448 412 448q411 0 411 -448v-142q0 -32 -22 -53.5t-53 -21.5h-480v-43q0 -185 170 -185q76 0 135 41q49 27 65.5 28.5t59.5 -22.5l64 -47q23 -13 26.5 -47.5t-14.5 -54.5q-115 -139 -336 -139q-438 0 -438 458zM397 698v-34l287 6v28q0 93 -34 134.5
t-109 41.5t-109.5 -42t-34.5 -134z" />
    <glyph glyph-name="f" unicode="f" 
d="M1073 1395q19 -20 15 -52t-27 -49l-64 -47q-42 -23 -59.5 -22t-65.5 28q-59 41 -129 41q-79 0 -116.5 -50t-38.5 -161h213q31 0 53.5 -21.5t22.5 -51.5v-92q0 -31 -22.5 -52.5t-53.5 -21.5h-213v-602h309q31 0 53.5 -22.5t22.5 -53.5v-90q0 -31 -22.5 -53.5t-53.5 -22.5
h-674q-30 0 -51.5 22.5t-21.5 53.5v90q0 31 21.5 53.5t51.5 22.5h96v602h-96q-31 0 -52 21.5t-21 52.5v92q0 31 21 52t52 21h96q6 453 406 453q216 0 348 -141z" />
    <glyph glyph-name="g" unicode="g" 
d="M727 1083h139q31 0 53.5 -21.5t22.5 -51.5v-981q0 -459 -438 -459q-226 0 -340 141q-38 44 14 101l37 43q25 27 51.5 27.5t71.5 -25.5q62 -45 166 -45q170 0 170 186v61q-79 -79 -219 -79q-168 0 -256 114.5t-88 335.5v236q0 219 88 333.5t256 114.5q139 0 219 -80
q3 49 53 49zM668 350v393q0 52 -38 84.5t-106 32.5q-145 0 -145 -164v-299q0 -164 145 -164q68 0 106 32.5t38 84.5z" />
    <glyph glyph-name="h" unicode="h" 
d="M647 1116q149 0 227 -110.5t78 -321.5v-608q0 -31 -21.5 -53.5t-51.5 -22.5h-117q-32 0 -54 22.5t-22 53.5v608q0 93 -34 134.5t-109 41.5t-109.5 -41.5t-34.5 -134.5v-608q0 -31 -22 -53.5t-53 -22.5h-117q-31 0 -53.5 22.5t-22.5 53.5v1364q0 31 22.5 53.5t53.5 22.5
h117q31 0 53 -22.5t22 -53.5v-432q83 108 248 108z" />
    <glyph glyph-name="i" unicode="i" 
d="M618 1204h-116q-32 0 -54 22t-22 54v135q0 31 22 52.5t54 21.5h116q31 0 53.5 -21.5t22.5 -52.5v-135q0 -32 -22.5 -54t-53.5 -22zM694 242h258q31 0 52.5 -22.5t21.5 -53.5v-90q0 -31 -21.5 -53.5t-52.5 -22.5h-794q-31 0 -52.5 22.5t-21.5 53.5v90q0 31 21.5 53.5
t52.5 22.5h268v602h-182q-31 0 -52.5 21.5t-21.5 52.5v92q0 31 21.5 52t52.5 21h374q31 0 53.5 -21.5t22.5 -51.5v-768z" />
    <glyph glyph-name="j" unicode="j" 
d="M635 1489h117q31 0 53 -21.5t22 -52.5v-135q0 -32 -22 -54t-53 -22h-117q-32 0 -54 22t-22 54v135q0 31 22 52.5t54 21.5zM303 1083h445q31 0 53 -21t22 -52v-990q0 -450 -424 -450q-215 0 -329 141q-18 23 -14 53.5t28 47.5l61 47q48 25 62 22q18 -4 63 -28
q59 -41 129 -41q156 0 156 186v846h-252q-31 0 -53.5 21.5t-22.5 52.5v92q0 30 22.5 51.5t53.5 21.5z" />
    <glyph glyph-name="k" unicode="k" 
d="M698 664l295 -570q19 -32 2.5 -63t-53.5 -31h-113q-73 0 -108 68l-193 366l-129 -174v-184q0 -31 -22 -53.5t-53 -22.5h-117q-31 0 -53.5 22.5t-22.5 53.5v1364q0 31 22.5 53.5t53.5 22.5h117q31 0 53 -22.5t22 -53.5v-754l256 338q44 59 119 59h109q44 0 61 -36t-10 -68
z" />
    <glyph glyph-name="l" unicode="l" 
d="M672 242h264q31 0 52.5 -22.5t21.5 -53.5v-90q0 -31 -21.5 -53.5t-52.5 -22.5h-795q-30 0 -51.5 22.5t-21.5 53.5v90q0 31 21.5 53.5t51.5 22.5h265v1032h-179q-32 0 -53.5 22.5t-21.5 53.5v90q0 31 21.5 53.5t53.5 22.5h371q31 0 52.5 -22.5t21.5 -53.5v-1198z" />
    <glyph glyph-name="m" unicode="m" 
d="M770 1118q103 0 167 -89.5t64 -237.5v-715q0 -31 -22 -53.5t-53 -22.5h-97q-32 0 -53.5 22.5t-21.5 53.5v715q0 63 -47 63q-48 0 -48 -63v-715q0 -31 -21.5 -53.5t-51.5 -22.5h-92q-32 0 -54 22.5t-22 53.5v715q0 63 -47 63t-47 -63v-715q0 -31 -22.5 -53.5t-53.5 -22.5
h-96q-31 0 -53.5 22.5t-22.5 53.5v934q0 31 22.5 53t53.5 22h108q36 0 53 -32q56 65 136 65q101 0 159 -94q58 94 162 94z" />
    <glyph glyph-name="n" unicode="n" 
d="M647 1116q149 0 227 -110.5t78 -321.5v-608q0 -31 -21.5 -53.5t-51.5 -22.5h-117q-32 0 -54 22.5t-22 53.5v608q0 93 -34 134.5t-109 41.5t-109.5 -41.5t-34.5 -134.5v-608q0 -31 -22 -53.5t-53 -22.5h-117q-31 0 -53.5 22.5t-22.5 53.5v934q0 30 22.5 51.5t53.5 21.5
h117q31 0 53 -21t22 -52v-2q83 108 248 108z" />
    <glyph glyph-name="o" unicode="o" 
d="M950 666v-236q0 -450 -413 -450q-414 0 -414 450v236q0 448 414 448q413 0 413 -448zM426 262q35 -41 111 -41q77 0 112 41q33 39 33 135v299q0 94 -33.5 135t-111.5 41t-112 -41t-34 -135v-299q0 -94 35 -135z" />
    <glyph glyph-name="p" unicode="p" 
d="M612 1114q168 0 256 -114.5t88 -333.5v-236q0 -221 -88 -335.5t-256 -114.5q-134 0 -213 73v-387q0 -31 -22 -53.5t-53 -22.5h-117q-31 0 -53.5 22.5t-22.5 53.5v1344q0 30 22.5 51.5t53.5 21.5h117q50 0 71 -47q84 78 217 78zM688 397v299q0 164 -145 164
q-68 0 -106 -32.5t-38 -84.5v-393q0 -52 38 -84.5t106 -32.5q145 0 145 164z" />
    <glyph glyph-name="q" unicode="q" 
d="M750 1083h116q31 0 53.5 -21.5t22.5 -51.5v-1344q0 -31 -22.5 -53.5t-53.5 -22.5h-116q-31 0 -53.5 22.5t-22.5 53.5v387q-79 -73 -213 -73q-168 0 -256 114.5t-88 335.5v236q0 219 88 333.5t256 114.5q133 0 217 -78q21 47 72 47zM530 233q68 0 106 32.5t38 84.5v393
q0 52 -38 84.5t-106 32.5q-145 0 -145 -164v-299q0 -164 145 -164z" />
    <glyph glyph-name="r" unicode="r" 
d="M803 1083h106q31 0 52.5 -21t21.5 -52v-105q0 -31 -21.5 -52.5t-52.5 -21.5h-176q-74 0 -107.5 -41t-33.5 -137v-411h250q31 0 53.5 -22.5t22.5 -53.5v-90q0 -31 -22.5 -53.5t-53.5 -22.5h-674q-31 0 -52.5 22.5t-21.5 53.5v90q0 31 21.5 53.5t52.5 22.5h158v602h-150
q-31 0 -53.5 21.5t-22.5 52.5v92q0 30 22.5 51.5t53.5 21.5h342q31 0 52.5 -21t21.5 -52v-33q63 106 211 106z" />
    <glyph glyph-name="s" unicode="s" 
d="M559 -20q-122 0 -235.5 38t-184.5 109q-20 17 -17 49.5t28 50.5l75 56q37 24 61.5 24t63.5 -24q111 -66 209 -66q129 0 129 90q0 67 -92 94l-193 50q-258 71 -258 333q0 330 394 330q197 0 319 -78q25 -13 31.5 -45.5t-10.5 -52.5l-58 -76q-39 -50 -112 -26
q-103 41 -183 41q-112 0 -112 -82q0 -70 110 -97l181 -47q251 -64 251 -334q0 -337 -397 -337z" />
    <glyph glyph-name="t" unicode="t" 
d="M928 268l61 -47q24 -18 28.5 -48t-13.5 -54q-118 -139 -332 -139q-422 0 -422 446v418h-96q-31 0 -52.5 21.5t-21.5 52.5v92q0 31 21.5 52t52.5 21h96v213q0 31 22.5 53.5t53.5 22.5h116q31 0 53.5 -22.5t22.5 -53.5v-213h262q31 0 53.5 -21.5t22.5 -51.5v-92
q0 -31 -22.5 -52.5t-53.5 -21.5h-262v-441q0 -182 154 -182q75 0 131 41q43 25 63 29q13 3 62 -23z" />
    <glyph glyph-name="u" unicode="u" 
d="M741 1083h117q31 0 53.5 -21.5t22.5 -51.5v-934q0 -31 -22.5 -53.5t-53.5 -22.5h-117q-31 0 -53 22.5t-22 53.5v4q-63 -100 -191 -100q-174 0 -258 103t-84 318v609q0 31 21.5 52t52.5 21h117q32 0 53.5 -21t21.5 -52v-609q0 -93 32.5 -130.5t111.5 -37.5q64 0 93.5 42
t29.5 135v600q0 31 22 52t53 21z" />
    <glyph glyph-name="v" unicode="v" 
d="M600 0h-125q-32 0 -59.5 20.5t-38.5 51.5l-299 925q-12 32 7 59t54 27h117q73 0 94 -73l187 -654l186 654q21 73 94 73h117q35 0 54 -27t7 -59l-299 -925q-11 -31 -37.5 -51.5t-58.5 -20.5z" />
    <glyph glyph-name="w" unicode="w" 
d="M369 0h-123q-32 0 -54.5 21.5t-27.5 54.5l-90 930q-5 31 14.5 55t50.5 24h117q82 0 82 -75l29 -635l88 442q15 62 69 62h29q53 0 65 -62l91 -442l26 635q3 75 84 75h113q33 0 52 -22t15 -57l-90 -930q-5 -33 -27.5 -54.5t-54.5 -21.5h-120q-32 0 -56 21.5t-30 54.5
l-84 411l-82 -411q-6 -33 -30 -54.5t-56 -21.5z" />
    <glyph glyph-name="x" unicode="x" 
d="M686 549l289 -461q17 -29 0.5 -58.5t-51.5 -29.5h-127q-76 0 -111 66l-149 264l-150 -264q-35 -66 -111 -66h-126q-35 0 -52 29.5t0 58.5l289 457l-283 450q-20 29 -3.5 58.5t51.5 29.5h127q72 0 110 -65l150 -262l145 262q35 65 111 65h127q35 0 50.5 -29.5t-3.5 -58.5z
" />
    <glyph glyph-name="y" unicode="y" 
d="M817 1083h117q35 0 54.5 -27t8.5 -59l-335 -1060q-37 -125 -80 -199q-31 -54 -64 -80q-78 -68 -209 -68h-121q-32 0 -53.5 22.5t-21.5 53.5v90q0 31 21.5 53.5t53.5 22.5h43q120 0 160 113l15 41l-328 1011q-12 32 7 59t54 27h117q73 0 94 -73l187 -652l186 652
q21 73 94 73z" />
    <glyph glyph-name="z" unicode="z" 
d="M475 242h377q31 0 53.5 -22.5t22.5 -53.5v-90q0 -31 -22.5 -53.5t-53.5 -22.5h-627q-30 0 -51.5 22.5t-21.5 53.5v90q0 74 41 133l399 545h-354q-32 0 -54 21.5t-22 52.5v92q0 31 22 52t54 21h604q31 0 53.5 -21.5t22.5 -51.5v-92v-3q0 -73 -46 -131z" />
    <glyph glyph-name="braceleft" unicode="{" 
d="M594 1106v-350q0 -119 -82 -174q82 -52 82 -174v-351q0 -180 168 -180h96q31 0 52.5 -22.5t21.5 -53.5v-77q0 -31 -21.5 -53.5t-52.5 -22.5h-125q-181 0 -286 110t-105 289v322q0 86 -63 86q-32 0 -54 22t-22 53v103q0 31 22 53.5t54 22.5q63 0 63 88v321
q0 176 105.5 287t285.5 111h125q31 0 52.5 -22.5t21.5 -53.5v-78q0 -31 -21.5 -53.5t-52.5 -22.5h-96q-168 0 -168 -180z" />
    <glyph glyph-name="bar" unicode="|" 
d="M586 -197h-101q-31 0 -53 22.5t-22 53.5v1417q0 31 22 53.5t53 22.5h101q32 0 54 -22.5t22 -53.5v-1417q0 -31 -22 -53.5t-54 -22.5z" />
    <glyph glyph-name="braceright" unicode="}" 
d="M795 709q32 0 53.5 -22.5t21.5 -53.5v-103q0 -31 -21.5 -53t-53.5 -22q-64 0 -64 -86v-322q0 -179 -105 -289t-286 -110h-125q-31 0 -52.5 22.5t-21.5 53.5v77q0 31 21.5 53.5t52.5 22.5h96q168 0 168 180v351q0 122 82 174q-82 55 -82 174v350q0 180 -168 180h-96
q-31 0 -52.5 22.5t-21.5 53.5v78q0 31 21.5 53.5t52.5 22.5h125q180 0 285.5 -111t105.5 -287v-321q0 -88 64 -88z" />
    <glyph glyph-name="asciitilde" unicode="~" 
d="M694 420q-71 0 -153 49t-115 49q-49 0 -94 -45q-53 -50 -103 4l-57 62q-20 23 -19 55t21 55q110 113 205 113q71 0 153 -49t115 -49q53 0 96 43q51 51 101 -2l59 -64q20 -23 19 -54.5t-21 -54.5q-109 -112 -207 -112z" />
    <glyph glyph-name="exclamdown" unicode="&#xa1;" 
d="M451 1085h170q31 0 53 -21.5t22 -53.5v-183q0 -31 -22 -53t-53 -22h-170q-31 0 -53.5 22t-22.5 53v183q0 32 22.5 53.5t53.5 21.5zM477 639h117q31 0 52.5 -22.5t21.5 -53.5v-774q0 -31 -21.5 -53.5t-52.5 -22.5h-117q-31 0 -53.5 22.5t-22.5 53.5v774q0 31 22.5 53.5
t53.5 22.5z" />
    <glyph glyph-name="cent" unicode="&#xa2;" 
d="M840 268l63 -47q23 -17 27.5 -48t-12.5 -54q-83 -99 -205 -125v-123q0 -31 -22 -53.5t-54 -22.5h-100q-31 0 -53.5 22.5t-22.5 53.5v121q-297 67 -297 446v217q0 380 297 447v121q0 32 22.5 53.5t53.5 21.5h100q32 0 54 -21.5t22 -53.5v-123q122 -26 205 -125
q17 -23 12.5 -54.5t-27.5 -48.5l-63 -47q-42 -23 -59.5 -22t-65.5 28q-59 41 -129 41q-156 0 -156 -184v-282q0 -185 156 -185q73 0 129 41q48 27 65.5 28t59.5 -22z" />
    <glyph glyph-name="sterling" unicode="&#xa3;" 
d="M438 242h496q31 0 53.5 -22.5t22.5 -53.5v-90q0 -31 -22.5 -53.5t-53.5 -22.5h-784q-32 0 -54 22.5t-22 53.5v90q0 31 22 53.5t54 22.5q39 0 54 24.5t15 89.5v217h-51q-31 0 -53.5 22.5t-22.5 53.5v78q0 31 22.5 53.5t53.5 22.5h51v129q0 222 107 340.5t313 118.5
q218 0 334 -140q18 -24 13.5 -54t-28.5 -48l-61 -47q-49 -25 -59 -23q-20 4 -66 29q-59 41 -133 41q-152 0 -152 -186v-160h222q31 0 53 -22.5t22 -53.5v-78q0 -31 -22 -53.5t-53 -22.5h-222v-198q0 -84 -49 -133z" />
    <glyph glyph-name="currency" unicode="&#xa4;" 
d="M932 170l80 -145q14 -29 6.5 -59.5t-33.5 -43.5l-92 -51q-26 -14 -56.5 -4.5t-43.5 35.5l-56 102q-73 -24 -168 -24q-105 0 -176 26l-57 -104q-13 -26 -45 -35.5t-58 4.5l-90 51q-29 13 -36.5 45t10.5 58l86 153q-47 106 -47 252v236q0 148 45 247l-84 156
q-18 26 -10.5 57.5t36.5 44.5l90 52q26 14 58 4.5t45 -35.5l57 -105q74 27 176 27q95 0 168 -24l56 102q14 26 43.5 35t58.5 -4l90 -52q27 -14 35.5 -45t-8.5 -57l-80 -145q51 -99 51 -258v-236q0 -161 -51 -260zM424 696v-299q0 -94 33.5 -135t111.5 -41t113 41.5t35 134.5
v299q0 93 -35 134.5t-113 41.5t-111.5 -41t-33.5 -135z" />
    <glyph glyph-name="yen" unicode="&#xa5;" 
d="M838 1372h123q44 0 62 -24t1 -62l-248 -561h101q31 0 53 -22.5t22 -53.5v-82q0 -31 -22 -52t-53 -21h-203l-2 -5v-94h205q31 0 53 -22.5t22 -53.5v-81q0 -31 -22 -52.5t-53 -21.5h-205v-88q0 -31 -22 -53.5t-54 -22.5h-119q-31 0 -52.5 22.5t-21.5 53.5v88h-204
q-31 0 -53.5 21.5t-22.5 52.5v81q0 31 22.5 53.5t53.5 22.5h204v90l-4 9h-200q-31 0 -53.5 21.5t-22.5 51.5v82q0 31 22.5 53.5t53.5 22.5h98l-250 561q-17 38 1 62t63 24h127q39 0 58.5 -16.5t33.5 -57.5l207 -491l208 491q15 40 34.5 57t58.5 17z" />
    <glyph glyph-name="brokenbar" unicode="&#xa6;" 
d="M586 709h-101q-31 0 -53 22t-22 53v512q0 31 22 53.5t53 22.5h101q31 0 53.5 -22.5t22.5 -53.5v-512q0 -31 -22.5 -53t-53.5 -22zM586 -197h-101q-31 0 -53 22.5t-22 53.5v514q0 31 22 53.5t53 22.5h101q31 0 53.5 -22.5t22.5 -53.5v-514q0 -31 -22.5 -53.5t-53.5 -22.5z
" />
    <glyph glyph-name="section" unicode="&#xa7;" 
d="M782 205q105 -105 105 -250q0 -160 -96.5 -248t-255.5 -88q-231 0 -371 152q-18 21 -14.5 51.5t24.5 48.5l55 41q61 43 119 -6q71 -68 162 -68q61 0 95 30t34 75q0 89 -113 141l-172 78q-229 104 -229 330q0 181 164 301q-109 92 -109 260q0 151 96 244.5t263 93.5
q163 0 301 -78q23 -12 29.5 -45.5t-7.5 -53.5l-51 -67q-46 -61 -109 -21q-79 43 -155 43q-50 0 -84.5 -32t-34.5 -82q0 -85 102 -129l150 -68q258 -117 258 -340q0 -193 -156 -313zM383 512q0 -56 31.5 -93t115.5 -75l29 -14q120 88 123 166q0 99 -100 145l-80 39
q-119 -79 -119 -168z" />
    <glyph glyph-name="copyright" unicode="&#xa9;" 
d="M889 117q-125 -137 -352 -137q-228 0 -353 137q-125 134 -125 366v406q0 234 126.5 369t351.5 135t351 -135t126 -369v-406q0 -232 -125 -366zM227 158q107 -119 310 -119q204 0 311 119q106 115 106 325v406q0 211 -108 327.5t-309 116.5t-309.5 -116.5t-108.5 -327.5
v-406q0 -208 108 -325zM557 305q-128 0 -205.5 78.5t-77.5 202.5v205q0 124 77.5 201t205.5 77q135 0 213 -84q44 -52 2 -86l-61 -37q-41 -24 -72 4q-35 35 -82 35q-96 0 -96 -110v-205q0 -111 96 -111q47 0 82 35q30 24 72 2l61 -35q43 -37 -2 -86q-77 -86 -213 -86z" />
    <glyph glyph-name="ordfeminine" unicode="&#xaa;" 
d="M862 694h15q24 0 24 -30v-91q0 -21 -16 -34q-30 -23 -92 -23q-106 0 -140 82q-63 -90 -190 -90q-264 0 -264 346v180q0 346 264 346q107 0 168 -61q0 39 47 39h100q25 0 41.5 -17.5t16.5 -42.5v-569q0 -35 26 -35zM627 793v303q0 40 -29.5 65t-81.5 25q-113 0 -113 -127
v-230q0 -127 113 -127q52 0 81.5 25.5t29.5 65.5z" />
    <glyph glyph-name="guillemotleft" unicode="&#xab;" 
d="M422 117l-250 256q-35 35 -44 59t-9 68v88q0 30 2 44.5t14 37t37 47.5l250 250q20 26 56 15.5t36 -50.5v-121q0 -20 -2.5 -35.5t-4 -24t-9.5 -20.5t-10 -14.5t-15.5 -15.5t-15.5 -15l-146 -143l146 -144q2 -2 15.5 -15t15.5 -15.5t10 -14.5t9.5 -20.5t4 -24t2.5 -35.5
v-122q0 -39 -36 -49.5t-56 14.5zM860 117l-250 256q-33 35 -42 59t-9 68v88q0 32 1.5 45t13 36t36.5 48l250 250q20 26 57 15.5t37 -50.5v-121q0 -20 -2.5 -35.5t-4 -24t-9.5 -20.5t-10 -14.5t-15.5 -15.5t-15.5 -15l-145 -143l145 -144q2 -2 15.5 -15t15.5 -15.5t10 -14.5
t9.5 -20.5t4 -24t2.5 -35.5v-122q0 -39 -37 -49.5t-57 14.5z" />
    <glyph glyph-name="logicalnot" unicode="&#xac;" 
d="M199 715h675q31 0 53.5 -22.5t22.5 -53.5v-457q0 -32 -22.5 -54t-53.5 -22h-98q-31 0 -53.5 22t-22.5 54v287h-501q-31 0 -53.5 21.5t-22.5 52.5v96q0 31 22.5 53.5t53.5 22.5z" />
    <glyph glyph-name="registered" unicode="&#xae;" 
d="M184 1257q127 136 353 136q225 0 352 -136q125 -137 125 -368v-406q0 -234 -126 -368.5t-351 -134.5q-226 0 -352 134.5t-126 368.5v406q0 231 125 368zM954 483v406q0 211 -108 327.5t-309 116.5t-309.5 -116.5t-108.5 -327.5v-406q0 -211 108.5 -327.5t309.5 -116.5
t309 116.5t108 327.5zM670 629l145 -232q18 -32 3 -58t-48 -26h-39q-72 0 -106 64l-117 235h-21v-223q0 -32 -21 -54t-52 -22h-37q-31 0 -53.5 22t-22.5 54v596q0 31 22.5 53.5t53.5 22.5h196q110 0 175 -63.5t65 -163.5q0 -159 -143 -205zM606 772q30 31 12.5 76t-57.5 45
h-74v-139h74q27 0 45 18z" />
    <glyph glyph-name="degree" unicode="&#xb0;" 
d="M772 825q-96 -96 -235 -96q-138 0 -234 96t-96 234q0 139 96 235q97 97 234 97q138 0 235 -97q96 -101 96 -235q0 -138 -96 -234zM438 963q41 -40 98.5 -40t98.5 40t41 96.5t-41 97.5t-98.5 41t-98.5 -41t-41 -97.5t41 -96.5z" />
    <glyph glyph-name="plusminus" unicode="&#xb1;" 
d="M412 594h-213q-31 0 -53.5 22.5t-22.5 53.5v96q0 31 22.5 53.5t53.5 22.5h213v166q0 32 22 53.5t53 21.5h99q31 0 53.5 -21.5t22.5 -53.5v-166h212q31 0 53.5 -22.5t22.5 -53.5v-96q0 -31 -22.5 -53.5t-53.5 -22.5h-212v-164q0 -31 -22.5 -52.5t-53.5 -21.5h-99
q-31 0 -53 21.5t-22 52.5v164zM199 242h678q31 0 53 -21.5t22 -52.5v-96q0 -31 -22 -53.5t-53 -22.5h-678q-31 0 -53.5 22.5t-22.5 53.5v96q0 31 22.5 52.5t53.5 21.5z" />
    <glyph glyph-name="uni00B2" unicode="&#xb2;" 
d="M516 672h234q20 0 34.5 -14t14.5 -33v-58q0 -20 -14.5 -33.5t-34.5 -13.5h-418q-19 0 -33 13.5t-14 33.5v56v2q0 48 34 75q312 262 312 416q0 53 -27 83t-80 30q-61 0 -104 -43q-30 -35 -70 -8l-51 39q-12 11 -15 31t7 32q95 102 235 102q141 0 209 -77q66 -81 66 -195
q0 -87 -60 -192q-59 -102 -225 -246z" />
    <glyph glyph-name="uni00B3" unicode="&#xb3;" 
d="M713 940q78 -69 78 -168q0 -118 -72 -191t-199 -73q-146 0 -237 102q-12 12 -9 32.5t17 31.5l49 37q37 27 70 -6q40 -43 108 -43q50 0 77.5 28t27.5 76q0 98 -103 98h-14q-20 0 -33.5 14.5t-13.5 34.5v58q0 19 13.5 33t33.5 14h14q44 0 73.5 29t29.5 79q0 45 -29 74
t-78 29q-66 0 -106 -43q-30 -35 -70 -8l-49 39q-14 11 -17 31t9 32q89 102 233 102q128 0 201.5 -73t73.5 -191q0 -112 -78 -178z" />
    <glyph glyph-name="uni00B5" unicode="&#xb5;" horiz-adv-x="1064" 
d="M741 1083h117q31 0 53.5 -21.5t22.5 -51.5v-1344q0 -31 -22.5 -53.5t-53.5 -22.5h-117q-31 0 -53 22.5t-22 53.5v414q-63 -100 -191 -100q-174 0 -258 103t-84 318v609q0 31 21.5 52t52.5 21h117q32 0 53.5 -21t21.5 -52v-609q0 -93 32.5 -130.5t111.5 -37.5
q64 0 93.5 42t29.5 135v600q0 31 22 52t53 21z" />
    <glyph glyph-name="paragraph" unicode="&#xb6;" 
d="M397 1372h518q31 0 53.5 -22.5t22.5 -53.5v-1417q0 -31 -22.5 -53.5t-53.5 -22.5h-86q-31 0 -53 22.5t-22 53.5v1282h-113v-1282q0 -31 -21.5 -53.5t-52.5 -22.5h-86q-31 0 -53 22.5t-22 53.5v709q-171 0 -285 114q-117 114 -117 277t115 278t278 115z" />
    <glyph glyph-name="middot" unicode="&#xb7;" 
d="M623 397h-170q-31 0 -53.5 22.5t-22.5 53.5v182q0 31 22.5 53.5t53.5 22.5h170q31 0 53 -22.5t22 -53.5v-182q0 -31 -22 -53.5t-53 -22.5z" />
    <glyph glyph-name="uni00B9" unicode="&#xb9;" 
d="M782 520h-458q-19 0 -32 13t-13 32v60q0 19 13 32t32 13h145v493l-76 -78q-17 -17 -41 -7.5t-24 34.5v68q0 45 32 80l76 77q36 31 80 31h74q21 0 35 -12.5t14 -32.5v-653h143q20 0 33.5 -13t13.5 -32v-60q0 -19 -13.5 -32t-33.5 -13z" />
    <glyph glyph-name="ordmasculine" unicode="&#xba;" 
d="M539 516q-320 0 -320 346v180q0 347 320 347q317 0 317 -347v-180q0 -346 -317 -346zM453 733q28 -31 86 -31t86 31q24 30 24 105v229q0 74 -25 105.5t-85 31.5t-86.5 -32t-26.5 -105v-229q0 -75 27 -105z" />
    <glyph glyph-name="guillemotright" unicode="&#xbb;" 
d="M920 373l-250 -256q-20 -25 -56 -14.5t-36 49.5v122q0 13 0.5 23.5t2.5 20t3.5 16t6 14t6 11t8 10.5t8.5 9.5t10 10.5l10 10l147 144l-147 143l-10 10t-10 10.5t-8.5 9.5t-8 10.5t-6 11t-6 14t-3.5 16t-2.5 20t-0.5 23.5v121q0 40 36 50.5t56 -15.5l250 -250
q34 -35 42.5 -59t8.5 -70v-88q0 -31 -1.5 -44t-13 -35.5t-36.5 -47.5zM479 371l-250 -254q-20 -26 -56 -15.5t-36 50.5v120q0 20 2.5 35.5t4.5 24.5t9.5 20t10.5 14.5t15.5 15.5t15.5 15l145 146l-145 141q-4 4 -12.5 12t-11.5 11.5t-9.5 11t-9 12.5t-6.5 13.5t-5.5 17
t-2.5 21t-1 26.5v123q0 39 36 49.5t56 -14.5l250 -250q34 -35 43.5 -60t9.5 -69v-88q0 -44 -9.5 -69t-43.5 -60z" />
    <glyph glyph-name="onequarter" unicode="&#xbc;" 
d="M406 748h-273q-19 0 -32 13t-13 32v59q0 19 13 32t32 13h53v270l-34 -32q-17 -15 -41.5 -7.5t-24.5 31.5v68q0 54 33 80l35 32q39 33 79 33h74q20 0 34.5 -13.5t14.5 -33.5v-428h50q19 0 32 -13t13 -32v-59q0 -19 -13 -32t-32 -13zM182 184l-28 27q-48 42 -2 100l651 867
q19 25 49 27.5t53 -17.5l31 -27q48 -42 2 -100l-651 -868q-20 -23 -51 -26t-54 17zM891 0h-80q-19 0 -32 13t-13 32v76h-195q-19 0 -32 12t-13 31v59q0 43 27 84l172 271q34 49 74 49h92q20 0 33.5 -13t13.5 -32v-310h27q19 0 32 -12.5t13 -32.5v-63q0 -19 -13 -31t-32 -12
h-27v-76q0 -19 -13.5 -32t-33.5 -13zM801 442l-115 -186h115v186z" />
    <glyph glyph-name="onehalf" unicode="&#xbd;" 
d="M406 748h-273q-19 0 -32 13t-13 32v59q0 19 13 32t32 13h53v270l-34 -32q-17 -15 -41.5 -7.5t-24.5 31.5v68q0 54 33 80l35 32q39 33 79 33h74q20 0 34.5 -13.5t14.5 -33.5v-428h50q19 0 32 -13t13 -32v-59q0 -19 -13 -32t-32 -13zM176 184l-31 27q-48 42 -2 100l654 867
q19 25 49 27.5t53 -17.5l31 -27q45 -42 2 -100l-653 -868q-19 -23 -49.5 -26t-53.5 17zM961 0h-310q-19 0 -33 13.5t-14 33.5v57q0 44 37 78q122 109 162.5 158t40.5 96q0 58 -47 58q-36 0 -70 -37q-27 -27 -59 -2l-39 32q-36 29 -8 64q84 96 198 96q85 0 137 -54t52 -142
q0 -134 -174 -299h127q20 0 34.5 -14.5t14.5 -33.5v-57q0 -20 -14.5 -33.5t-34.5 -13.5z" />
    <glyph glyph-name="threequarters" unicode="&#xbe;" 
d="M485 934q0 -88 -52 -143.5t-136 -55.5q-100 0 -195 74q-31 25 2 63l31 39q22 28 60 4q33 -26 75 -26q54 0 54 57q0 26 -15 44t-39 18h-10q-41 0 -41 34v50q0 34 41 34h10q24 0 39 15t15 39q0 57 -56 57q-31 0 -71 -27q-41 -21 -60 4l-33 39q-30 41 0 62q91 76 193 76
q85 0 136.5 -54.5t51.5 -142.5q0 -82 -47 -129q47 -53 47 -131zM899 1188l31 -27q45 -42 2 -100l-653 -868q-19 -23 -49.5 -26t-53.5 17l-31 27q-48 42 -2 100l654 867q19 25 49 27.5t53 -17.5zM938 272h27q19 0 32 -12.5t13 -32.5v-63q0 -19 -13 -31t-32 -12h-27v-76
q0 -19 -13.5 -32t-33.5 -13h-80q-19 0 -32 13t-13 32v76h-195q-19 0 -32 12t-13 31v59q0 43 27 84l172 271q34 49 74 49h92q20 0 33.5 -13t13.5 -32v-310zM686 256h115v186z" />
    <glyph glyph-name="questiondown" unicode="&#xbf;" 
d="M453 1083h170q32 0 53.5 -21t21.5 -52v-185q0 -31 -21.5 -53t-53.5 -22h-170q-31 0 -52.5 22t-21.5 53v185q0 31 21.5 52t52.5 21zM479 657h119q31 0 53.5 -22t22.5 -53v-37q0 -87 -56 -158l-122 -147q-8 -10 -21 -25t-17.5 -20.5t-12.5 -15.5t-11 -14.5t-7.5 -12.5
t-8 -14.5t-6.5 -14.5q-13 -33 -13 -62q0 -56 45.5 -91.5t118.5 -35.5q100 0 178 78q58 52 111 11l82 -60q20 -14 24.5 -47t-12.5 -53q-144 -170 -377 -170q-192 0 -313 92t-121 238q0 154 117 292l104 123q47 53 47 121v23q0 31 22.5 53t53.5 22z" />
    <glyph glyph-name="Agrave" unicode="&#xc0;" 
d="M432 1528l-100 160q-19 29 -4 58.5t51 29.5h151q43 0 64 -18t27 -56l51 -164q6 -30 -11 -52t-47 -22h-67q-45 0 -69 14.5t-46 49.5zM686 1300l354 -1214q8 -33 -11.5 -59.5t-51.5 -26.5h-117q-76 0 -94 74l-61 225h-336l-62 -225q-21 -74 -94 -74h-115q-32 0 -52.5 27
t-12.5 59l354 1214q21 72 96 72h107q75 0 96 -72zM635 557l-98 414l-99 -414h197z" />
    <glyph glyph-name="Aacute" unicode="&#xc1;" 
d="M537 1436h-68q-30 0 -47 21t-12 52l53 164q8 39 28 56.5t62 17.5h152q36 0 51 -29.5t-4 -58.5l-101 -160q-22 -34 -45.5 -48.5t-68.5 -14.5zM686 1300l354 -1214q8 -33 -11.5 -59.5t-51.5 -26.5h-117q-76 0 -94 74l-61 225h-336l-62 -225q-21 -74 -94 -74h-115
q-32 0 -52.5 27t-12.5 59l354 1214q21 72 96 72h107q75 0 96 -72zM635 557l-98 414l-99 -414h197z" />
    <glyph glyph-name="Acircumflex" unicode="&#xc2;" 
d="M381 1464h-82q-34 0 -48.5 30.5t5.5 53.5l113 164q20 28 29 37t29.5 16.5t59.5 10.5h91q39 -3 59.5 -10.5t29.5 -16.5t29 -37l121 -172q17 -25 3.5 -50.5t-42.5 -25.5h-96q-49 0 -67 14t-34 49q-2 5 -3 7l-46 80l-45 -82q-19 -40 -31 -50q-21 -18 -75 -18zM686 1300
l354 -1214q8 -33 -11.5 -59.5t-51.5 -26.5h-117q-76 0 -94 74l-61 225h-336l-62 -225q-21 -74 -94 -74h-115q-32 0 -52.5 27t-12.5 59l354 1214q21 72 96 72h107q75 0 96 -72zM635 557l-98 414l-99 -414h197z" />
    <glyph glyph-name="Atilde" unicode="&#xc3;" 
d="M365 1464h-78q-34 0 -51 22.5t-11 53.5q46 193 199 193q67 0 117 -33l39 -27q21 -12 41 -12q28 0 43 35q9 33 43 33h79q32 0 50 -23t12 -53q-44 -191 -201 -191q-61 0 -117 35l-38 23q-20 14 -39 14q-29 0 -43 -39q-12 -31 -45 -31zM686 1300l354 -1214
q8 -33 -11.5 -59.5t-51.5 -26.5h-117q-76 0 -94 74l-61 225h-336l-62 -225q-21 -74 -94 -74h-115q-32 0 -52.5 27t-12.5 59l354 1214q21 72 96 72h107q75 0 96 -72zM635 557l-98 414l-99 -414h197z" />
    <glyph glyph-name="Adieresis" unicode="&#xc4;" 
d="M399 1460h-116q-31 0 -52.5 22t-21.5 54v135q0 31 21.5 52.5t52.5 21.5h116q31 0 53.5 -21.5t22.5 -52.5v-135q0 -32 -22.5 -54t-53.5 -22zM791 1460h-115q-31 0 -53.5 22t-22.5 54v135q0 31 22.5 52.5t53.5 21.5h115q31 0 53 -21.5t22 -52.5v-135q0 -32 -22 -54t-53 -22
zM686 1300l354 -1214q8 -33 -11.5 -59.5t-51.5 -26.5h-117q-76 0 -94 74l-61 225h-336l-62 -225q-21 -74 -94 -74h-115q-32 0 -52.5 27t-12.5 59l354 1214q21 72 96 72h107q75 0 96 -72zM635 557l-98 414l-99 -414h197z" />
    <glyph glyph-name="Aring" unicode="&#xc5;" 
d="M662 1497q-52 -53 -124 -53t-124 53t-52 124t52 124t124 53t124 -53t52 -124t-52 -124zM567 1651q-11 11 -25 12.5t-24.5 -6t-18 -18.5t-6 -25t12.5 -25t25 -12.5t24.5 6t18 18.5t6 25t-12.5 25zM686 1300l354 -1214q8 -33 -11.5 -59.5t-51.5 -26.5h-117q-76 0 -94 74
l-61 225h-336l-62 -225q-21 -74 -94 -74h-115q-32 0 -52.5 27t-12.5 59l354 1214q21 72 96 72h107q75 0 96 -72zM635 557l-98 414l-99 -414h197z" />
    <glyph glyph-name="AE" unicode="&#xc6;" 
d="M975 1106h-168v-281h113q31 0 53 -21t22 -52v-115q0 -31 -22 -53.5t-53 -22.5h-113v-295h168q32 0 54 -22.5t22 -53.5v-114q0 -31 -22 -53.5t-54 -22.5h-361q-31 0 -53 22.5t-22 53.5v223h-201l-66 -225q-12 -42 -32 -58t-64 -16h-115q-35 0 -54.5 27t-8.5 59l387 1214
q11 31 37.5 51.5t58.5 20.5h125h8h361q32 0 54 -22.5t22 -53.5v-114q0 -31 -22 -53.5t-54 -22.5zM539 993l-127 -436h127v436z" />
    <glyph glyph-name="Ccedilla" unicode="&#xc7;" 
d="M844 340l108 -70q23 -14 28.5 -46.5t-11.5 -55.5q-108 -150 -303 -180l-60 -248q-7 -32 -32.5 -52t-57.5 -20h-84q-31 0 -50 24.5t-11 53.5l82 246q-160 32 -249 154.5t-89 308.5v460q0 219 120.5 347.5t335.5 128.5q265 0 398 -189q17 -23 11.5 -55.5t-28.5 -46.5
l-108 -70q-48 -34 -109 21q-64 73 -164 73q-188 0 -188 -209v-460q0 -209 188 -209q100 0 164 73q61 55 109 21z" />
    <glyph glyph-name="Egrave" unicode="&#xc8;" 
d="M438 1528l-100 160q-19 29 -4 58.5t51 29.5h152q43 0 63.5 -18t26.5 -56l51 -164q6 -30 -10.5 -52t-46.5 -22h-68q-45 0 -69 14.5t-46 49.5zM813 1106h-344v-281h289q31 0 53.5 -21.5t22.5 -51.5v-117q0 -31 -22.5 -52.5t-53.5 -21.5h-289v-295h344q32 0 54 -22.5
t22 -53.5v-114q0 -31 -22 -53.5t-54 -22.5h-539q-30 0 -51.5 22.5t-21.5 53.5v1220q0 31 21.5 53.5t51.5 22.5h539q32 0 54 -22.5t22 -53.5v-114q0 -31 -22 -53.5t-54 -22.5z" />
    <glyph glyph-name="Eacute" unicode="&#xc9;" 
d="M541 1436h-68q-30 0 -47 21t-12 52l53 164q8 39 28 56.5t62 17.5h152q36 0 51 -29.5t-4 -58.5l-101 -160q-22 -34 -45.5 -48.5t-68.5 -14.5zM813 1106h-344v-281h289q31 0 53.5 -21.5t22.5 -51.5v-117q0 -31 -22.5 -52.5t-53.5 -21.5h-289v-295h344q32 0 54 -22.5
t22 -53.5v-114q0 -31 -22 -53.5t-54 -22.5h-539q-30 0 -51.5 22.5t-21.5 53.5v1220q0 31 21.5 53.5t51.5 22.5h539q32 0 54 -22.5t22 -53.5v-114q0 -31 -22 -53.5t-54 -22.5z" />
    <glyph glyph-name="Ecircumflex" unicode="&#xca;" 
d="M385 1464h-82q-34 0 -48.5 30.5t5.5 53.5l113 164q27 37 45.5 48.5t73.5 15.5h90q39 -3 59.5 -10.5t29.5 -16.5t29 -37l121 -172q17 -25 3.5 -50.5t-42.5 -25.5h-96q-49 0 -67 14t-34 49q-2 5 -3 7l-45 80l-45 -82q-11 -23 -14.5 -30t-15.5 -19t-30 -15.5t-47 -3.5z
M813 1106h-344v-281h289q31 0 53.5 -21.5t22.5 -51.5v-117q0 -31 -22.5 -52.5t-53.5 -21.5h-289v-295h344q32 0 54 -22.5t22 -53.5v-114q0 -31 -22 -53.5t-54 -22.5h-539q-30 0 -51.5 22.5t-21.5 53.5v1220q0 31 21.5 53.5t51.5 22.5h539q32 0 54 -22.5t22 -53.5v-114
q0 -31 -22 -53.5t-54 -22.5z" />
    <glyph glyph-name="Edieresis" unicode="&#xcb;" 
d="M403 1460h-116q-31 0 -52.5 22t-21.5 54v135q0 31 21.5 52.5t52.5 21.5h116q31 0 53.5 -21.5t22.5 -52.5v-135q0 -32 -22.5 -54t-53.5 -22zM795 1460h-115q-31 0 -53.5 22t-22.5 54v135q0 31 22.5 52.5t53.5 21.5h115q31 0 53 -21.5t22 -52.5v-135q0 -32 -22 -54t-53 -22
zM813 1106h-344v-281h289q31 0 53.5 -21.5t22.5 -51.5v-117q0 -31 -22.5 -52.5t-53.5 -21.5h-289v-295h344q32 0 54 -22.5t22 -53.5v-114q0 -31 -22 -53.5t-54 -22.5h-539q-30 0 -51.5 22.5t-21.5 53.5v1220q0 31 21.5 53.5t51.5 22.5h539q32 0 54 -22.5t22 -53.5v-114
q0 -31 -22 -53.5t-54 -22.5z" />
    <glyph glyph-name="Igrave" unicode="&#xcc;" 
d="M432 1528l-100 160q-19 29 -4 58.5t51 29.5h151q43 0 64 -18t27 -56l51 -164q6 -30 -11 -52t-47 -22h-67q-45 0 -69 14.5t-46 49.5zM850 1106h-178v-840h178q31 0 53.5 -22.5t22.5 -53.5v-114q0 -31 -22.5 -53.5t-53.5 -22.5h-625q-31 0 -53 22.5t-22 53.5v114
q0 31 22 53.5t53 22.5h178v840h-178q-31 0 -53 22.5t-22 53.5v114q0 31 22 53.5t53 22.5h625q31 0 53.5 -22.5t22.5 -53.5v-114q0 -31 -22.5 -53.5t-53.5 -22.5z" />
    <glyph glyph-name="Iacute" unicode="&#xcd;" 
d="M537 1436h-68q-30 0 -47 21t-12 52l53 164q8 39 28 56.5t62 17.5h152q36 0 51 -29.5t-4 -58.5l-101 -160q-22 -34 -45.5 -48.5t-68.5 -14.5zM850 1106h-178v-840h178q31 0 53.5 -22.5t22.5 -53.5v-114q0 -31 -22.5 -53.5t-53.5 -22.5h-625q-31 0 -53 22.5t-22 53.5v114
q0 31 22 53.5t53 22.5h178v840h-178q-31 0 -53 22.5t-22 53.5v114q0 31 22 53.5t53 22.5h625q31 0 53.5 -22.5t22.5 -53.5v-114q0 -31 -22.5 -53.5t-53.5 -22.5z" />
    <glyph glyph-name="Icircumflex" unicode="&#xce;" 
d="M381 1464h-82q-34 0 -48.5 30.5t5.5 53.5l113 164q20 28 29 37t29.5 16.5t59.5 10.5h91q39 -3 59.5 -10.5t29.5 -16.5t29 -37l121 -172q17 -25 3.5 -50.5t-42.5 -25.5h-96q-49 0 -67 14t-34 49q-2 5 -3 7l-46 80l-45 -82q-19 -40 -31 -50q-21 -18 -75 -18zM850 1106h-178
v-840h178q31 0 53.5 -22.5t22.5 -53.5v-114q0 -31 -22.5 -53.5t-53.5 -22.5h-625q-31 0 -53 22.5t-22 53.5v114q0 31 22 53.5t53 22.5h178v840h-178q-31 0 -53 22.5t-22 53.5v114q0 31 22 53.5t53 22.5h625q31 0 53.5 -22.5t22.5 -53.5v-114q0 -31 -22.5 -53.5t-53.5 -22.5z
" />
    <glyph glyph-name="Idieresis" unicode="&#xcf;" 
d="M399 1460h-116q-31 0 -52.5 22t-21.5 54v135q0 31 21.5 52.5t52.5 21.5h116q31 0 53.5 -21.5t22.5 -52.5v-135q0 -32 -22.5 -54t-53.5 -22zM791 1460h-115q-31 0 -53.5 22t-22.5 54v135q0 31 22.5 52.5t53.5 21.5h115q31 0 53 -21.5t22 -52.5v-135q0 -32 -22 -54t-53 -22
zM850 1106h-178v-840h178q31 0 53.5 -22.5t22.5 -53.5v-114q0 -31 -22.5 -53.5t-53.5 -22.5h-625q-31 0 -53 22.5t-22 53.5v114q0 31 22 53.5t53 22.5h178v840h-178q-31 0 -53 22.5t-22 53.5v114q0 31 22 53.5t53 22.5h625q31 0 53.5 -22.5t22.5 -53.5v-114
q0 -31 -22.5 -53.5t-53.5 -22.5z" />
    <glyph glyph-name="Eth" unicode="&#xd0;" 
d="M197 1372h360q216 0 329 -126t113 -351v-424q0 -221 -113 -346t-329 -125h-360q-31 0 -53.5 22.5t-22.5 53.5v497h-25q-31 0 -53.5 22.5t-22.5 53.5v78q0 31 22.5 53.5t53.5 22.5h25v493q0 31 22.5 53.5t53.5 22.5zM731 471v424q0 109 -42.5 160t-131.5 51h-168v-303h94
q31 0 52.5 -22.5t21.5 -53.5v-78q0 -31 -21.5 -53.5t-52.5 -22.5h-94v-307h168q174 0 174 205z" />
    <glyph glyph-name="Ntilde" unicode="&#xd1;" 
d="M375 1464h-78q-34 0 -50.5 22.5t-10.5 53.5q46 193 198 193q67 0 117 -33l39 -27q21 -12 41 -12q28 0 43 35q9 33 43 33h80q32 0 49.5 -23t11.5 -53q-44 -191 -201 -191q-60 0 -116 35l-39 23q-20 14 -39 14q-29 0 -43 -39q-12 -31 -45 -31zM797 1372h118
q31 0 53.5 -22.5t22.5 -53.5v-1220q0 -31 -22.5 -53.5t-53.5 -22.5h-118h-9q-39 4 -58 22t-38 58l-340 727v-731q0 -31 -22.5 -53.5t-53.5 -22.5h-118q-31 0 -53.5 22.5t-22.5 53.5v1220q0 31 22.5 53.5t53.5 22.5h118h7q34 -6 52.5 -16.5t25 -21t22.5 -42.5l338 -762v766
q0 31 22.5 53.5t53.5 22.5z" />
    <glyph glyph-name="Ograve" unicode="&#xd2;" 
d="M614 1483h-67q-45 0 -69 14.5t-46 48.5l-100 160q-19 29 -4 58.5t51 29.5h151q43 0 64 -18t27 -56l51 -164q6 -30 -11 -51.5t-47 -21.5zM866 109q-114 -129 -329 -129q-217 0 -328 129q-113 125 -113 346v460q0 223 113.5 349.5t327.5 126.5t328 -126.5t114 -349.5v-460
q0 -221 -113 -346zM537 246q88 0 130 50.5t42 158.5v460q0 108 -42 158.5t-130 50.5q-170 0 -170 -209v-460q0 -209 170 -209z" />
    <glyph glyph-name="Oacute" unicode="&#xd3;" 
d="M537 1454h-68q-30 0 -47 21.5t-12 52.5l53 164q8 38 27.5 55.5t62.5 17.5h152q36 0 51 -29.5t-4 -58.5l-101 -159q-22 -35 -45.5 -49.5t-68.5 -14.5zM866 109q-114 -129 -329 -129q-217 0 -328 129q-113 125 -113 346v460q0 223 113.5 349.5t327.5 126.5t328 -126.5
t114 -349.5v-460q0 -221 -113 -346zM537 246q88 0 130 50.5t42 158.5v460q0 108 -42 158.5t-130 50.5q-170 0 -170 -209v-460q0 -209 170 -209z" />
    <glyph glyph-name="Ocircumflex" unicode="&#xd4;" 
d="M381 1483h-82q-34 0 -48.5 30.5t5.5 53.5l113 164q27 37 45 48t73 15h91q55 -4 73 -15t45 -48l121 -172q17 -25 3.5 -50.5t-42.5 -25.5h-96q-36 0 -57 10t-27.5 20t-19.5 39l-46 80l-45 -82q-14 -29 -19.5 -38.5t-27 -19t-59.5 -9.5zM866 109q-114 -129 -329 -129
q-217 0 -328 129q-113 125 -113 346v460q0 223 113.5 349.5t327.5 126.5t328 -126.5t114 -349.5v-460q0 -221 -113 -346zM537 246q88 0 130 50.5t42 158.5v460q0 108 -42 158.5t-130 50.5q-170 0 -170 -209v-460q0 -209 170 -209z" />
    <glyph glyph-name="Otilde" unicode="&#xd5;" 
d="M647 1481q-61 0 -117 35l-38 22q-20 14 -39 14q-29 0 -43 -39q-12 -30 -45 -30h-78q-34 0 -51 22.5t-11 53.5q46 192 199 192q67 0 117 -33l39 -26q23 -13 41 -13q28 0 43 35q9 33 43 33h79q32 0 50 -23t12 -53q-43 -190 -201 -190zM866 109q-114 -129 -329 -129
q-217 0 -328 129q-113 125 -113 346v460q0 223 113.5 349.5t327.5 126.5t328 -126.5t114 -349.5v-460q0 -221 -113 -346zM537 246q88 0 130 50.5t42 158.5v460q0 108 -42 158.5t-130 50.5q-170 0 -170 -209v-460q0 -209 170 -209z" />
    <glyph glyph-name="Odieresis" unicode="&#xd6;" 
d="M399 1479h-116q-31 0 -52.5 21.5t-21.5 53.5v136q0 31 21.5 52t52.5 21h116q31 0 53.5 -21.5t22.5 -51.5v-136q0 -32 -22.5 -53.5t-53.5 -21.5zM791 1479h-115q-31 0 -53.5 21.5t-22.5 53.5v136q0 30 22.5 51.5t53.5 21.5h115q31 0 53 -21t22 -52v-136q0 -32 -22 -53.5
t-53 -21.5zM866 109q-114 -129 -329 -129q-217 0 -328 129q-113 125 -113 346v460q0 223 113.5 349.5t327.5 126.5t328 -126.5t114 -349.5v-460q0 -221 -113 -346zM537 246q88 0 130 50.5t42 158.5v460q0 108 -42 158.5t-130 50.5q-170 0 -170 -209v-460q0 -209 170 -209z
" />
    <glyph glyph-name="multiply" unicode="&#xd7;" 
d="M694 592l205 -252q20 -25 16.5 -56t-28.5 -51l-74 -59q-25 -19 -55.5 -16t-50.5 28l-170 209l-170 -209q-20 -25 -51 -28t-56 16l-74 59q-25 20 -28 51t16 56l205 252l-205 252q-19 25 -16 55t28 49l74 62q25 19 56 15.5t51 -28.5l170 -209l170 209q20 25 50.5 28.5
t55.5 -15.5l74 -62q25 -19 28 -49t-16 -55z" />
    <glyph glyph-name="Oslash" unicode="&#xd8;" 
d="M956 1272l-38 -82q61 -113 61 -275v-460q0 -223 -114 -349t-328 -126q-99 0 -181 28l-8 -14q-12 -29 -41.5 -40t-58.5 3l-92 43q-29 13 -39 42t4 58l37 78q-62 115 -62 277v460q0 223 113.5 349.5t327.5 126.5q103 0 182 -31l10 20q13 29 42 39t58 -4l93 -43
q29 -12 38.5 -41.5t-4.5 -58.5zM367 915v-297l237 498q-24 8 -67 8q-170 0 -170 -209zM537 246q88 0 130 50.5t42 158.5v297l-236 -498q21 -8 64 -8z" />
    <glyph glyph-name="Ugrave" unicode="&#xd9;" 
d="M614 1464h-67q-45 0 -69 14.5t-46 49.5l-100 160q-19 29 -4 58.5t51 29.5h151q43 0 64 -18t27 -56l51 -164q6 -30 -11 -52t-47 -22zM866 109q-114 -129 -329 -129q-217 0 -328 129q-113 125 -113 346v841q0 31 22.5 53.5t53.5 22.5h119q31 0 53.5 -22.5t22.5 -53.5v-841
q0 -209 170 -209q88 0 130 50.5t42 158.5v841q0 31 22 53.5t53 22.5h119q31 0 53.5 -22.5t22.5 -53.5v-841q0 -221 -113 -346z" />
    <glyph glyph-name="Uacute" unicode="&#xda;" 
d="M537 1436h-68q-30 0 -47 21t-12 52l53 164q8 39 28 56.5t62 17.5h152q36 0 51 -29.5t-4 -58.5l-101 -160q-22 -34 -45.5 -48.5t-68.5 -14.5zM866 109q-114 -129 -329 -129q-217 0 -328 129q-113 125 -113 346v841q0 31 22.5 53.5t53.5 22.5h119q31 0 53.5 -22.5
t22.5 -53.5v-841q0 -209 170 -209q88 0 130 50.5t42 158.5v841q0 31 22 53.5t53 22.5h119q31 0 53.5 -22.5t22.5 -53.5v-841q0 -221 -113 -346z" />
    </font>
</defs>
</svg>
