<?xml version="1.0" standalone="no"?>
<!DOCTYPE svg PUBLIC "-//W3C//DTD SVG 1.1//EN" "http://www.w3.org/Graphics/SVG/1.1/DTD/svg11.dtd" >
<svg xmlns="http://www.w3.org/2000/svg" xmlns:xlink="http://www.w3.org/1999/xlink" version="1.1">
<metadata>
Created by FontForge 20201107 at Tue Jan  2 14:27:33 2024
 By 
Copyright (c) 2019 by 29Letters. All rights reserved.
</metadata>
<defs>
<font id="29LTBaseet-Light" horiz-adv-x="1073" >
  <font-face 
    font-family="29LT Baseet Light"
    font-weight="300"
    font-stretch="normal"
    units-per-em="2048"
    panose-1="0 0 4 0 0 0 0 0 0 0"
    ascent="1516"
    descent="-532"
    x-height="1006"
    cap-height="1372"
    bbox="-1004 -928.643 3197 2147.78"
    underline-thickness="102"
    underline-position="-307"
    unicode-range="U+000D-FEFC"
  />
<missing-glyph horiz-adv-x="0" 
 />
    <glyph glyph-name="fi" unicode="fi" 
d="M307 1006h580q20 0 20 -23v-963q0 -20 -20 -20h-27q-20 0 -20 20v922h-533v-922q0 -20 -22 -20h-27q-20 0 -20 20v922h-119q-21 0 -21 23v18q0 23 21 23h119v163q0 180 81.5 273.5t237.5 93.5q177 0 301 -145q13 -16 -2 -31l-16 -12q-13 -10 -33 2q-108 123 -250 123
q-122 0 -186 -75.5t-64 -221.5v-170z" />
    <glyph glyph-name="fl" unicode="fl" 
d="M571 1536q332 0 332 -367v-1149q0 -20 -20 -20h-27q-20 0 -20 20v1156q0 297 -265 297q-264 0 -264 -297v-170h291q20 0 20 -23v-18q0 -23 -20 -23h-291v-922q0 -20 -22 -20h-27q-20 0 -20 20v922h-119q-21 0 -21 23v18q0 23 21 23h119v163q0 367 333 367z" />
    <glyph glyph-name="uniFC64" unicode="&#xfe8c;&#xfeae;" horiz-adv-x="1300" arabic-form="final" 
d="M1194 1200h-358q-17 0 -17 19v18q0 16 17 16h88q-27 27 -27 80v74q0 67 39 111.5t104 44.5h25q60 0 119 -47q13 -10 2 -21l-12 -14q-10 -16 -27 -2q-40 32 -84 32h-23q-40 0 -66 -30t-26 -74v-72q0 -37 20.5 -59.5t55.5 -22.5h170q16 0 16 -16v-18q0 -19 -16 -19z
M1292 68h8q17 0 17 -19v-31q0 -18 -17 -18h-8q-164 0 -240.5 71.5t-76.5 221.5v541h-516v-945q0 -331 -307 -331h-11q-137 0 -221 84q-16 13 -4 28l16 19q10 13 27 0q67 -64 182 -64h11q239 0 239 264v992q0 20 21 20h563v82q0 23 20 23h27q20 0 20 -23v-690
q0 -117 60.5 -171t189.5 -54z" />
    <glyph glyph-name="uniFC65" unicode="&#xfe8c;&#xfeb0;" horiz-adv-x="1300" arabic-form="final" 
d="M1194 1200h-358q-17 0 -17 19v18q0 16 17 16h88q-27 27 -27 80v74q0 67 39 111.5t104 44.5h25q60 0 119 -47q13 -10 2 -21l-12 -14q-10 -16 -27 -2q-40 32 -84 32h-23q-40 0 -66 -30t-26 -74v-72q0 -37 20.5 -59.5t55.5 -22.5h170q16 0 16 -16v-18q0 -19 -16 -19z
M446 1094h-40q-17 0 -17 18v109q0 16 17 16h40q19 0 19 -16v-109q0 -18 -19 -18zM1292 68h8q17 0 17 -19v-31q0 -18 -17 -18h-8q-164 0 -240.5 71.5t-76.5 221.5v541h-516v-945q0 -331 -307 -331h-11q-137 0 -221 84q-16 13 -4 28l16 19q10 13 27 0q67 -64 182 -64h11
q239 0 239 264v992q0 20 21 20h563v82q0 23 20 23h27q20 0 20 -23v-690q0 -117 60.5 -171t189.5 -54z" />
    <glyph glyph-name="uniFC67" unicode="&#xfe8c;&#xfee6;" horiz-adv-x="1959" arabic-form="final" 
d="M1853 1067h-358q-16 0 -16 18v19q0 16 16 16h88q-27 27 -27 80v74q0 67 39.5 111.5t104.5 44.5h24q59 0 119 -48q13 -9 2 -20l-12 -14q-10 -16 -27 -2q-40 32 -84 32h-22q-40 0 -66 -30t-26 -74v-72q0 -37 20 -59.5t55 -22.5h170q17 0 17 -16v-19q0 -18 -17 -18zM1952 68
h8q18 0 18 -19v-31q0 -18 -18 -18h-8q-163 0 -239.5 71.5t-76.5 221.5v409h-514v-829q0 -148 -91.5 -228.5t-258.5 -80.5h-213q-185 0 -288 106.5t-103 292.5q0 203 129 381q15 15 31 6l18 -12q14 -12 4 -29q-114 -173 -114 -340q0 -161 85.5 -250.5t237.5 -89.5h213
q134 0 208.5 64.5t74.5 179.5v846v2v2v25q0 20 20 20h561v84q0 20 19 20h28q19 0 19 -20v-559q0 -117 60.5 -171t189.5 -54zM676 678h-41q-17 0 -17 18v109q0 16 17 16h41q18 0 18 -16v-109q0 -18 -18 -18z" />
    <glyph glyph-name="uniFC68" unicode="&#xfe8c;&#xfef0;" horiz-adv-x="2076" arabic-form="final" 
d="M1970 1200h-358q-17 0 -17 19v18q0 16 17 16h88q-27 27 -27 80v74q0 67 39.5 111.5t104.5 44.5h24q60 0 119 -47q13 -10 2 -21l-12 -14q-10 -16 -27 -2q-40 32 -84 32h-22q-41 0 -67 -30t-26 -74v-72q0 -37 20.5 -59.5t55.5 -22.5h170q17 0 17 -16v-18q0 -19 -17 -19z
M2068 68h9q16 0 16 -19v-31q0 -18 -16 -18h-9q-164 0 -240.5 71.5t-76.5 221.5v541h-362q-127 0 -197 -73.5t-70 -207.5v-680q0 -148 -91.5 -228.5t-258.5 -80.5h-213q-185 0 -288 106t-103 293q0 203 129 381q15 15 31 6l18 -12q14 -8 4 -31q-114 -169 -114 -340
q0 -160 85.5 -249t237.5 -89h213q134 0 208.5 64.5t74.5 179.5v680q0 165 87 256.5t247 91.5h362v82q0 23 21 23h26q21 0 21 -23v-690q0 -117 60 -171t189 -54z" />
    <glyph glyph-name="uniFC69" unicode="&#xfe8c;&#xfef2;" horiz-adv-x="2076" arabic-form="final" 
d="M1970 1200h-358q-17 0 -17 19v18q0 16 17 16h88q-27 27 -27 80v74q0 67 39.5 111.5t104.5 44.5h24q60 0 119 -47q13 -10 2 -21l-12 -14q-10 -16 -27 -2q-40 32 -84 32h-22q-41 0 -67 -30t-26 -74v-72q0 -37 20.5 -59.5t55.5 -22.5h170q17 0 17 -16v-18q0 -19 -17 -19z
M2068 68h9q16 0 16 -19v-31q0 -18 -16 -18h-9q-164 0 -240.5 71.5t-76.5 221.5v541h-362q-127 0 -197 -73.5t-70 -207.5v-680q0 -148 -91.5 -228.5t-258.5 -80.5h-213q-185 0 -288 106t-103 293q0 203 129 381q15 15 31 6l18 -12q14 -8 4 -31q-114 -169 -114 -340
q0 -160 85.5 -249t237.5 -89h213q134 0 208.5 64.5t74.5 179.5v680q0 165 87 256.5t247 91.5h362v82q0 23 21 23h26q21 0 21 -23v-690q0 -117 60 -171t189 -54zM498 -635h39q16 0 16 -16v-109q0 -18 -16 -18h-39q-19 0 -19 18v109q0 16 19 16zM756 -635h39q16 0 16 -16v-109
q0 -18 -16 -18h-39q-19 0 -19 18v109q0 16 19 16z" />
    <glyph glyph-name="uniFC6A" unicode="&#xfe92;&#xfeae;" horiz-adv-x="1300" arabic-form="final" 
d="M1292 68h8q17 0 17 -19v-31q0 -18 -17 -18h-8q-164 0 -240.5 71.5t-76.5 221.5v541h-516v-945q0 -331 -307 -331h-11q-137 0 -221 84q-16 13 -4 28l16 19q10 13 27 0q67 -64 182 -64h11q239 0 239 264v992q0 20 21 20h563v82q0 23 20 23h27q20 0 20 -23v-690
q0 -117 60.5 -171t189.5 -54zM774 -193h41q16 0 16 -16v-110q0 -17 -16 -17h-41q-18 0 -18 17v110q0 16 18 16z" />
    <glyph glyph-name="uniFC6B" unicode="&#xfe92;&#xfeb0;" horiz-adv-x="1300" arabic-form="final" 
d="M446 1094h-40q-17 0 -17 18v109q0 16 17 16h40q19 0 19 -16v-109q0 -18 -19 -18zM1292 68h8q17 0 17 -19v-31q0 -18 -17 -18h-8q-164 0 -240.5 71.5t-76.5 221.5v541h-516v-945q0 -331 -307 -331h-11q-137 0 -221 84q-16 13 -4 28l16 19q10 13 27 0q67 -64 182 -64h11
q239 0 239 264v992q0 20 21 20h563v82q0 23 20 23h27q20 0 20 -23v-690q0 -117 60.5 -171t189.5 -54zM774 -193h41q16 0 16 -16v-110q0 -17 -16 -17h-41q-18 0 -18 17v110q0 16 18 16z" />
    <glyph glyph-name="uniFC6D" unicode="&#xfe92;&#xfee6;" horiz-adv-x="1959" arabic-form="final" 
d="M1952 68h8q18 0 18 -19v-31q0 -18 -18 -18h-8q-163 0 -239.5 71.5t-76.5 221.5v409h-514v-829q0 -148 -91.5 -228.5t-258.5 -80.5h-213q-185 0 -288 106.5t-103 292.5q0 203 129 381q15 15 31 6l18 -12q14 -12 4 -29q-114 -173 -114 -340q0 -161 85.5 -250.5t237.5 -89.5
h213q134 0 208.5 64.5t74.5 179.5v846v2v2v25q0 20 20 20h561v84q0 20 19 20h28q19 0 19 -20v-559q0 -117 60.5 -171t189.5 -54zM676 678h-41q-17 0 -17 18v109q0 16 17 16h41q18 0 18 -16v-109q0 -18 -18 -18zM1448 -193h41q16 0 16 -16v-110q0 -17 -16 -17h-41
q-18 0 -18 17v110q0 16 18 16z" />
    <glyph glyph-name="uniFC6E" unicode="&#xfe92;&#xfef0;" horiz-adv-x="2076" arabic-form="final" 
d="M2068 68h9q16 0 16 -19v-31q0 -18 -16 -18h-9q-164 0 -240.5 71.5t-76.5 221.5v541h-362q-127 0 -197 -73.5t-70 -207.5v-680q0 -148 -91.5 -228.5t-258.5 -80.5h-213q-185 0 -288 106t-103 293q0 203 129 381q15 15 31 6l18 -12q14 -8 4 -31q-114 -169 -114 -340
q0 -160 85.5 -249t237.5 -89h213q134 0 208.5 64.5t74.5 179.5v680q0 165 87 256.5t247 91.5h362v82q0 23 21 23h26q21 0 21 -23v-690q0 -117 60 -171t189 -54zM1505 -193h41q17 0 17 -16v-110q0 -17 -17 -17h-41q-18 0 -18 17v110q0 16 18 16z" />
    <glyph glyph-name="uniFC6F" unicode="&#xfe92;&#xfef2;" horiz-adv-x="2076" arabic-form="final" 
d="M2068 68h9q16 0 16 -19v-31q0 -18 -16 -18h-9q-164 0 -240.5 71.5t-76.5 221.5v541h-362q-127 0 -197 -73.5t-70 -207.5v-680q0 -148 -91.5 -228.5t-258.5 -80.5h-213q-185 0 -288 106t-103 293q0 203 129 381q15 15 31 6l18 -12q14 -8 4 -31q-114 -169 -114 -340
q0 -160 85.5 -249t237.5 -89h213q134 0 208.5 64.5t74.5 179.5v680q0 165 87 256.5t247 91.5h362v82q0 23 21 23h26q21 0 21 -23v-690q0 -117 60 -171t189 -54zM1505 -193h41q17 0 17 -16v-110q0 -17 -17 -17h-41q-18 0 -18 17v110q0 16 18 16zM498 -635h39q16 0 16 -16
v-109q0 -18 -16 -18h-39q-19 0 -19 18v109q0 16 19 16zM756 -635h39q16 0 16 -16v-109q0 -18 -16 -18h-39q-19 0 -19 18v109q0 16 19 16z" />
    <glyph glyph-name="uniFC70" unicode="&#xfe98;&#xfeae;" horiz-adv-x="1300" arabic-form="final" 
d="M901 1198h-39q-16 0 -16 19v106q0 18 16 18h39q19 0 19 -18v-106q0 -19 -19 -19zM1159 1198h-39q-18 0 -18 19v106q0 18 18 18h39q19 0 19 -18v-106q0 -19 -19 -19zM1292 68h8q17 0 17 -19v-31q0 -18 -17 -18h-8q-164 0 -240.5 71.5t-76.5 221.5v541h-516v-945
q0 -331 -307 -331h-11q-137 0 -221 84q-16 13 -4 28l16 19q10 13 27 0q67 -64 182 -64h11q239 0 239 264v992q0 20 21 20h563v82q0 23 20 23h27q20 0 20 -23v-690q0 -117 60.5 -171t189.5 -54z" />
    <glyph glyph-name="uniFC71" unicode="&#xfe98;&#xfeb0;" horiz-adv-x="1300" arabic-form="final" 
d="M901 1198h-39q-16 0 -16 19v106q0 18 16 18h39q19 0 19 -18v-106q0 -19 -19 -19zM1159 1198h-39q-18 0 -18 19v106q0 18 18 18h39q19 0 19 -18v-106q0 -19 -19 -19zM446 1094h-40q-17 0 -17 18v109q0 16 17 16h40q19 0 19 -16v-109q0 -18 -19 -18zM1292 68h8q17 0 17 -19
v-31q0 -18 -17 -18h-8q-164 0 -240.5 71.5t-76.5 221.5v541h-516v-945q0 -331 -307 -331h-11q-137 0 -221 84q-16 13 -4 28l16 19q10 13 27 0q67 -64 182 -64h11q239 0 239 264v992q0 20 21 20h563v82q0 23 20 23h27q20 0 20 -23v-690q0 -117 60.5 -171t189.5 -54z" />
    <glyph glyph-name="uniFC73" unicode="&#xfe98;&#xfee6;" horiz-adv-x="1959" arabic-form="final" 
d="M1561 1065h-39q-17 0 -17 18v107q0 18 17 18h39q18 0 18 -18v-107q0 -18 -18 -18zM1819 1065h-39q-19 0 -19 18v107q0 18 19 18h39q18 0 18 -18v-107q0 -18 -18 -18zM1952 68h8q18 0 18 -19v-31q0 -18 -18 -18h-8q-163 0 -239.5 71.5t-76.5 221.5v409h-514v-829
q0 -148 -91.5 -228.5t-258.5 -80.5h-213q-185 0 -288 106.5t-103 292.5q0 203 129 381q15 15 31 6l18 -12q14 -12 4 -29q-114 -173 -114 -340q0 -161 85.5 -250.5t237.5 -89.5h213q134 0 208.5 64.5t74.5 179.5v846v2v2v25q0 20 20 20h561v84q0 20 19 20h28q19 0 19 -20
v-559q0 -117 60.5 -171t189.5 -54zM676 678h-41q-17 0 -17 18v109q0 16 17 16h41q18 0 18 -16v-109q0 -18 -18 -18z" />
    <glyph glyph-name="uniFC74" unicode="&#xfe98;&#xfef0;" horiz-adv-x="2076" arabic-form="final" 
d="M1677 1198h-39q-16 0 -16 19v106q0 18 16 18h39q19 0 19 -18v-106q0 -19 -19 -19zM1935 1198h-39q-18 0 -18 19v106q0 18 18 18h39q19 0 19 -18v-106q0 -19 -19 -19zM2068 68h9q16 0 16 -19v-31q0 -18 -16 -18h-9q-164 0 -240.5 71.5t-76.5 221.5v541h-362
q-127 0 -197 -73.5t-70 -207.5v-680q0 -148 -91.5 -228.5t-258.5 -80.5h-213q-185 0 -288 106t-103 293q0 203 129 381q15 15 31 6l18 -12q14 -8 4 -31q-114 -169 -114 -340q0 -160 85.5 -249t237.5 -89h213q134 0 208.5 64.5t74.5 179.5v680q0 165 87 256.5t247 91.5h362
v82q0 23 21 23h26q21 0 21 -23v-690q0 -117 60 -171t189 -54z" />
    <glyph glyph-name="uniFC75" unicode="&#xfe98;&#xfef2;" horiz-adv-x="2076" arabic-form="final" 
d="M1677 1198h-39q-16 0 -16 19v106q0 18 16 18h39q19 0 19 -18v-106q0 -19 -19 -19zM1935 1198h-39q-18 0 -18 19v106q0 18 18 18h39q19 0 19 -18v-106q0 -19 -19 -19zM2068 68h9q16 0 16 -19v-31q0 -18 -16 -18h-9q-164 0 -240.5 71.5t-76.5 221.5v541h-362
q-127 0 -197 -73.5t-70 -207.5v-680q0 -148 -91.5 -228.5t-258.5 -80.5h-213q-185 0 -288 106t-103 293q0 203 129 381q15 15 31 6l18 -12q14 -8 4 -31q-114 -169 -114 -340q0 -160 85.5 -249t237.5 -89h213q134 0 208.5 64.5t74.5 179.5v680q0 165 87 256.5t247 91.5h362
v82q0 23 21 23h26q21 0 21 -23v-690q0 -117 60 -171t189 -54zM498 -635h39q16 0 16 -16v-109q0 -18 -16 -18h-39q-19 0 -19 18v109q0 16 19 16zM756 -635h39q16 0 16 -16v-109q0 -18 -16 -18h-39q-19 0 -19 18v109q0 16 19 16z" />
    <glyph glyph-name="uniFC76" unicode="&#xfe9c;&#xfeae;" horiz-adv-x="1300" arabic-form="final" 
d="M1028 1419h-37q-16 0 -16 17v102q0 16 16 16h37q16 0 16 -16v-102q0 -17 -16 -17zM901 1198h-39q-18 0 -18 16v109q0 18 18 18h39q17 0 17 -18v-109q0 -16 -17 -16zM1159 1198h-39q-18 0 -18 16v109q0 18 18 18h39q17 0 17 -18v-109q0 -16 -17 -16zM1292 68h8
q17 0 17 -19v-31q0 -18 -17 -18h-8q-164 0 -240.5 71.5t-76.5 221.5v541h-516v-945q0 -331 -307 -331h-11q-137 0 -221 84q-16 13 -4 28l16 19q10 13 27 0q67 -64 182 -64h11q239 0 239 264v992q0 20 21 20h563v82q0 23 20 23h27q20 0 20 -23v-690q0 -117 60.5 -171
t189.5 -54z" />
    <glyph glyph-name="uniFC77" unicode="&#xfe9c;&#xfeb0;" horiz-adv-x="1300" arabic-form="final" 
d="M1028 1419h-37q-16 0 -16 17v102q0 16 16 16h37q16 0 16 -16v-102q0 -17 -16 -17zM901 1198h-39q-18 0 -18 16v109q0 18 18 18h39q17 0 17 -18v-109q0 -16 -17 -16zM1159 1198h-39q-18 0 -18 16v109q0 18 18 18h39q17 0 17 -18v-109q0 -16 -17 -16zM446 1094h-40
q-17 0 -17 18v109q0 16 17 16h40q19 0 19 -16v-109q0 -18 -19 -18zM1292 68h8q17 0 17 -19v-31q0 -18 -17 -18h-8q-164 0 -240.5 71.5t-76.5 221.5v541h-516v-945q0 -331 -307 -331h-11q-137 0 -221 84q-16 13 -4 28l16 19q10 13 27 0q67 -64 182 -64h11q239 0 239 264v992
q0 20 21 20h563v82q0 23 20 23h27q20 0 20 -23v-690q0 -117 60.5 -171t189.5 -54z" />
    <glyph glyph-name="uniFC79" unicode="&#xfe9c;&#xfee6;" horiz-adv-x="1959" arabic-form="final" 
d="M1688 1286h-37q-17 0 -17 17v102q0 16 17 16h37q16 0 16 -16v-102q0 -17 -16 -17zM1561 1065h-39q-19 0 -19 16v109q0 18 19 18h39q16 0 16 -18v-109q0 -16 -16 -16zM1819 1065h-39q-19 0 -19 16v109q0 18 19 18h39q16 0 16 -18v-109q0 -16 -16 -16zM1952 68h8
q18 0 18 -19v-31q0 -18 -18 -18h-8q-163 0 -239.5 71.5t-76.5 221.5v409h-514v-829q0 -148 -91.5 -228.5t-258.5 -80.5h-213q-185 0 -288 106.5t-103 292.5q0 203 129 381q15 15 31 6l18 -12q14 -12 4 -29q-114 -173 -114 -340q0 -161 85.5 -250.5t237.5 -89.5h213
q134 0 208.5 64.5t74.5 179.5v846v2v2v25q0 20 20 20h561v84q0 20 19 20h28q19 0 19 -20v-559q0 -117 60.5 -171t189.5 -54zM676 678h-41q-17 0 -17 18v109q0 16 17 16h41q18 0 18 -16v-109q0 -18 -18 -18z" />
    <glyph glyph-name="uniFC7A" unicode="&#xfe9c;&#xfef0;" horiz-adv-x="2076" arabic-form="final" 
d="M1806 1419h-37q-16 0 -16 17v102q0 16 16 16h37q17 0 17 -16v-102q0 -17 -17 -17zM1679 1198h-39q-18 0 -18 16v109q0 18 18 18h39q17 0 17 -18v-109q0 -16 -17 -16zM1937 1198h-39q-18 0 -18 16v109q0 18 18 18h39q17 0 17 -18v-109q0 -16 -17 -16zM2068 68h9
q16 0 16 -19v-31q0 -18 -16 -18h-9q-164 0 -240.5 71.5t-76.5 221.5v541h-362q-127 0 -197 -73.5t-70 -207.5v-680q0 -148 -91.5 -228.5t-258.5 -80.5h-213q-185 0 -288 106t-103 293q0 203 129 381q15 15 31 6l18 -12q14 -8 4 -31q-114 -169 -114 -340q0 -160 85.5 -249
t237.5 -89h213q134 0 208.5 64.5t74.5 179.5v680q0 165 87 256.5t247 91.5h362v82q0 23 21 23h26q21 0 21 -23v-690q0 -117 60 -171t189 -54z" />
    <glyph glyph-name="uniFC7B" unicode="&#xfe9c;&#xfef2;" horiz-adv-x="2076" arabic-form="final" 
d="M1806 1419h-37q-16 0 -16 17v102q0 16 16 16h37q17 0 17 -16v-102q0 -17 -17 -17zM1679 1198h-39q-18 0 -18 16v109q0 18 18 18h39q17 0 17 -18v-109q0 -16 -17 -16zM1937 1198h-39q-18 0 -18 16v109q0 18 18 18h39q17 0 17 -18v-109q0 -16 -17 -16zM2068 68h9
q16 0 16 -19v-31q0 -18 -16 -18h-9q-164 0 -240.5 71.5t-76.5 221.5v541h-362q-127 0 -197 -73.5t-70 -207.5v-680q0 -148 -91.5 -228.5t-258.5 -80.5h-213q-185 0 -288 106t-103 293q0 203 129 381q15 15 31 6l18 -12q14 -8 4 -31q-114 -169 -114 -340q0 -160 85.5 -249
t237.5 -89h213q134 0 208.5 64.5t74.5 179.5v680q0 165 87 256.5t247 91.5h362v82q0 23 21 23h26q21 0 21 -23v-690q0 -117 60 -171t189 -54zM498 -635h39q16 0 16 -16v-109q0 -18 -16 -18h-39q-19 0 -19 18v109q0 16 19 16zM756 -635h39q16 0 16 -16v-109q0 -18 -16 -18
h-39q-19 0 -19 18v109q0 16 19 16z" />
    <glyph glyph-name="uniFC8A" unicode="&#xfee8;&#xfeae;" horiz-adv-x="1300" arabic-form="final" 
d="M1030 1198h-41q-16 0 -16 19v108q0 16 16 16h41q19 0 19 -16v-108q0 -19 -19 -19zM1292 68h8q17 0 17 -19v-31q0 -18 -17 -18h-8q-164 0 -240.5 71.5t-76.5 221.5v541h-516v-945q0 -331 -307 -331h-11q-137 0 -221 84q-16 13 -4 28l16 19q10 13 27 0q67 -64 182 -64h11
q239 0 239 264v992q0 20 21 20h563v82q0 23 20 23h27q20 0 20 -23v-690q0 -117 60.5 -171t189.5 -54z" />
    <glyph glyph-name="uniFC8B" unicode="&#xfee8;&#xfeb0;" horiz-adv-x="1300" arabic-form="final" 
d="M1030 1198h-41q-16 0 -16 19v108q0 16 16 16h41q19 0 19 -16v-108q0 -19 -19 -19zM446 1094h-40q-17 0 -17 18v109q0 16 17 16h40q19 0 19 -16v-109q0 -18 -19 -18zM1292 68h8q17 0 17 -19v-31q0 -18 -17 -18h-8q-164 0 -240.5 71.5t-76.5 221.5v541h-516v-945
q0 -331 -307 -331h-11q-137 0 -221 84q-16 13 -4 28l16 19q10 13 27 0q67 -64 182 -64h11q239 0 239 264v992q0 20 21 20h563v82q0 23 20 23h27q20 0 20 -23v-690q0 -117 60.5 -171t189.5 -54z" />
    <glyph glyph-name="uniFC8D" unicode="&#xfee8;&#xfee6;" horiz-adv-x="1959" arabic-form="final" 
d="M1690 1065h-41q-17 0 -17 18v109q0 16 17 16h41q18 0 18 -16v-109q0 -18 -18 -18zM1952 68h8q18 0 18 -19v-31q0 -18 -18 -18h-8q-163 0 -239.5 71.5t-76.5 221.5v409h-514v-829q0 -148 -91.5 -228.5t-258.5 -80.5h-213q-185 0 -288 106.5t-103 292.5q0 203 129 381
q15 15 31 6l18 -12q14 -12 4 -29q-114 -173 -114 -340q0 -161 85.5 -250.5t237.5 -89.5h213q134 0 208.5 64.5t74.5 179.5v846v2v2v25q0 20 20 20h561v84q0 20 19 20h28q19 0 19 -20v-559q0 -117 60.5 -171t189.5 -54zM676 678h-41q-17 0 -17 18v109q0 16 17 16h41
q18 0 18 -16v-109q0 -18 -18 -18z" />
    <glyph glyph-name="uniFC8E" unicode="&#xfee8;&#xfef0;" horiz-adv-x="2076" arabic-form="final" 
d="M1808 1198h-41q-16 0 -16 19v108q0 16 16 16h41q19 0 19 -16v-108q0 -19 -19 -19zM2068 68h9q16 0 16 -19v-31q0 -18 -16 -18h-9q-164 0 -240.5 71.5t-76.5 221.5v541h-362q-127 0 -197 -73.5t-70 -207.5v-680q0 -148 -91.5 -228.5t-258.5 -80.5h-213q-185 0 -288 106
t-103 293q0 203 129 381q15 15 31 6l18 -12q14 -8 4 -31q-114 -169 -114 -340q0 -160 85.5 -249t237.5 -89h213q134 0 208.5 64.5t74.5 179.5v680q0 165 87 256.5t247 91.5h362v82q0 23 21 23h26q21 0 21 -23v-690q0 -117 60 -171t189 -54z" />
    <glyph glyph-name="uniFC8F" unicode="&#xfee8;&#xfef2;" horiz-adv-x="2076" arabic-form="final" 
d="M1808 1198h-41q-16 0 -16 19v108q0 16 16 16h41q19 0 19 -16v-108q0 -19 -19 -19zM2068 68h9q16 0 16 -19v-31q0 -18 -16 -18h-9q-164 0 -240.5 71.5t-76.5 221.5v541h-362q-127 0 -197 -73.5t-70 -207.5v-680q0 -148 -91.5 -228.5t-258.5 -80.5h-213q-185 0 -288 106
t-103 293q0 203 129 381q15 15 31 6l18 -12q14 -8 4 -31q-114 -169 -114 -340q0 -160 85.5 -249t237.5 -89h213q134 0 208.5 64.5t74.5 179.5v680q0 165 87 256.5t247 91.5h362v82q0 23 21 23h26q21 0 21 -23v-690q0 -117 60 -171t189 -54zM498 -635h39q16 0 16 -16v-109
q0 -18 -16 -18h-39q-19 0 -19 18v109q0 16 19 16zM756 -635h39q16 0 16 -16v-109q0 -18 -16 -18h-39q-19 0 -19 18v109q0 16 19 16z" />
    <glyph glyph-name="uniFC91" unicode="&#xfef4;&#xfeae;" horiz-adv-x="1300" arabic-form="final" 
d="M1292 68h8q17 0 17 -19v-31q0 -18 -17 -18h-8q-164 0 -240.5 71.5t-76.5 221.5v541h-516v-945q0 -331 -307 -331h-11q-137 0 -221 84q-16 13 -4 28l16 19q10 13 27 0q67 -64 182 -64h11q239 0 239 264v992q0 20 21 20h563v82q0 23 20 23h27q20 0 20 -23v-690
q0 -117 60.5 -171t189.5 -54zM666 -193h39q16 0 16 -16v-108q0 -19 -16 -19h-39q-19 0 -19 19v108q0 16 19 16zM924 -193h39q16 0 16 -16v-108q0 -19 -16 -19h-39q-19 0 -19 19v108q0 16 19 16z" />
    <glyph glyph-name="uniFC92" unicode="&#xfef4;&#xfeb0;" horiz-adv-x="1300" arabic-form="final" 
d="M446 1094h-40q-17 0 -17 18v109q0 16 17 16h40q19 0 19 -16v-109q0 -18 -19 -18zM1292 68h8q17 0 17 -19v-31q0 -18 -17 -18h-8q-164 0 -240.5 71.5t-76.5 221.5v541h-516v-945q0 -331 -307 -331h-11q-137 0 -221 84q-16 13 -4 28l16 19q10 13 27 0q67 -64 182 -64h11
q239 0 239 264v992q0 20 21 20h563v82q0 23 20 23h27q20 0 20 -23v-690q0 -117 60.5 -171t189.5 -54zM666 -193h39q16 0 16 -16v-108q0 -19 -16 -19h-39q-19 0 -19 19v108q0 16 19 16zM924 -193h39q16 0 16 -16v-108q0 -19 -16 -19h-39q-19 0 -19 19v108q0 16 19 16z" />
    <glyph glyph-name="uniFC94" unicode="&#xfef4;&#xfee6;" horiz-adv-x="1959" arabic-form="final" 
d="M1952 68h8q18 0 18 -19v-31q0 -18 -18 -18h-8q-163 0 -239.5 71.5t-76.5 221.5v409h-514v-829q0 -148 -91.5 -228.5t-258.5 -80.5h-213q-185 0 -288 106.5t-103 292.5q0 203 129 381q15 15 31 6l18 -12q14 -12 4 -29q-114 -173 -114 -340q0 -161 85.5 -250.5t237.5 -89.5
h213q134 0 208.5 64.5t74.5 179.5v846v2v2v25q0 20 20 20h561v84q0 20 19 20h28q19 0 19 -20v-559q0 -117 60.5 -171t189.5 -54zM676 678h-41q-17 0 -17 18v109q0 16 17 16h41q18 0 18 -16v-109q0 -18 -18 -18zM1337 -193h39q17 0 17 -16v-108q0 -19 -17 -19h-39
q-18 0 -18 19v108q0 16 18 16zM1595 -193h39q17 0 17 -16v-108q0 -19 -17 -19h-39q-18 0 -18 19v108q0 16 18 16z" />
    <glyph glyph-name="uniFCFB" unicode="&#xfeb3;&#xfef0;" horiz-adv-x="3121" arabic-form="isolated" 
d="M2886 920h24q21 0 21 -21v-561q0 -171 -88 -266t-244 -95q-224 0 -295 185q-74 -185 -303 -185q-330 0 -330 359v498h-282q-127 0 -197 -73.5t-70 -207.5v-680q0 -148 -91.5 -228.5t-258.5 -80.5h-213q-185 0 -288 106t-103 293q0 203 129 381q15 15 31 6l18 -12
q14 -8 4 -31q-114 -169 -114 -340q0 -160 85.5 -249t237.5 -89h213q134 0 208.5 64.5t74.5 179.5v459q0 8 2 10v211q0 165 86 256.5t246 91.5h329q19 0 19 -20v-545q0 -293 258 -293q128 0 200 78t72 217v410q0 20 21 20h24q23 0 23 -20v-410v-2q0 -139 68 -216t190 -77
q129 0 200.5 77.5t71.5 217.5v561q0 21 21 21z" />
    <glyph glyph-name="uniFCFC" unicode="&#xfeb3;&#xfef2;" horiz-adv-x="3121" arabic-form="isolated" 
d="M2886 920h24q21 0 21 -21v-561q0 -171 -88 -266t-244 -95q-224 0 -295 185q-74 -185 -303 -185q-330 0 -330 359v498h-282q-127 0 -197 -73.5t-70 -207.5v-680q0 -148 -91.5 -228.5t-258.5 -80.5h-213q-185 0 -288 106t-103 293q0 203 129 381q15 15 31 6l18 -12
q14 -8 4 -31q-114 -169 -114 -340q0 -160 85.5 -249t237.5 -89h213q134 0 208.5 64.5t74.5 179.5v459q0 8 2 10v211q0 165 86 256.5t246 91.5h329q19 0 19 -20v-545q0 -293 258 -293q128 0 200 78t72 217v410q0 20 21 20h24q23 0 23 -20v-410v-2q0 -139 68 -216t190 -77
q129 0 200.5 77.5t71.5 217.5v561q0 21 21 21zM496 -635h39q16 0 16 -16v-109q0 -18 -16 -18h-39q-19 0 -19 18v109q0 16 19 16zM754 -635h39q16 0 16 -16v-109q0 -18 -16 -18h-39q-19 0 -19 18v109q0 16 19 16z" />
    <glyph glyph-name="uniFCFD" unicode="&#xfeb7;&#xfef0;" horiz-adv-x="3121" arabic-form="isolated" 
d="M2320 1184h-36q-17 0 -17 16v103q0 16 17 16h36q17 0 17 -16v-103q0 -16 -17 -16zM2193 963h-39q-18 0 -18 16v108q0 19 18 19h39q17 0 17 -19v-108q0 -16 -17 -16zM2451 963h-38q-19 0 -19 16v108q0 19 19 19h38q17 0 17 -19v-108q0 -16 -17 -16zM2886 920h24
q21 0 21 -21v-561q0 -171 -88 -266t-244 -95q-224 0 -295 185q-74 -185 -303 -185q-330 0 -330 359v498h-282q-127 0 -197 -73.5t-70 -207.5v-680q0 -148 -91.5 -228.5t-258.5 -80.5h-213q-185 0 -288 106t-103 293q0 203 129 381q15 15 31 6l18 -12q14 -8 4 -31
q-114 -169 -114 -340q0 -160 85.5 -249t237.5 -89h213q134 0 208.5 64.5t74.5 179.5v459q0 8 2 10v211q0 165 86 256.5t246 91.5h329q19 0 19 -20v-545q0 -293 258 -293q128 0 200 78t72 217v410q0 20 21 20h24q23 0 23 -20v-410v-2q0 -139 68 -216t190 -77
q129 0 200.5 77.5t71.5 217.5v561q0 21 21 21z" />
    <glyph glyph-name="uniFCFE" unicode="&#xfeb7;&#xfef2;" horiz-adv-x="3121" arabic-form="isolated" 
d="M2320 1184h-36q-17 0 -17 16v103q0 16 17 16h36q17 0 17 -16v-103q0 -16 -17 -16zM2193 963h-39q-18 0 -18 16v108q0 19 18 19h39q17 0 17 -19v-108q0 -16 -17 -16zM2451 963h-38q-19 0 -19 16v108q0 19 19 19h38q17 0 17 -19v-108q0 -16 -17 -16zM2886 920h24
q21 0 21 -21v-561q0 -171 -88 -266t-244 -95q-224 0 -295 185q-74 -185 -303 -185q-330 0 -330 359v498h-282q-127 0 -197 -73.5t-70 -207.5v-680q0 -148 -91.5 -228.5t-258.5 -80.5h-213q-185 0 -288 106t-103 293q0 203 129 381q15 15 31 6l18 -12q14 -8 4 -31
q-114 -169 -114 -340q0 -160 85.5 -249t237.5 -89h213q134 0 208.5 64.5t74.5 179.5v459q0 8 2 10v211q0 165 86 256.5t246 91.5h329q19 0 19 -20v-545q0 -293 258 -293q128 0 200 78t72 217v410q0 20 21 20h24q23 0 23 -20v-410v-2q0 -139 68 -216t190 -77
q129 0 200.5 77.5t71.5 217.5v561q0 21 21 21zM496 -635h39q16 0 16 -16v-109q0 -18 -16 -18h-39q-19 0 -19 18v109q0 16 19 16zM754 -635h39q16 0 16 -16v-109q0 -18 -16 -18h-39q-19 0 -19 18v109q0 16 19 16z" />
    <glyph glyph-name="uniFD05" unicode="&#xfebb;&#xfef0;" horiz-adv-x="2969" arabic-form="isolated" 
d="M2200 903h290q155 0 240.5 -85.5t85.5 -239.5v-232q0 -165 -84.5 -255.5t-241.5 -90.5h-501q-158 0 -244 93.5t-86 264.5v476h-270q-127 0 -197 -73.5t-70 -207.5v-680q0 -148 -91.5 -228.5t-258.5 -80.5h-213q-185 0 -288 106t-103 293q0 203 129 381q15 15 31 6l18 -12
q14 -8 4 -31q-114 -169 -114 -340q0 -160 85.5 -249t237.5 -89h213q134 0 208.5 64.5t74.5 179.5v680q0 165 87 256.5t247 91.5h309q20 0 20 -20v-379l94 147q95 136 183.5 195t204.5 59zM2748 346v232q0 123 -68 191.5t-190 68.5h-297q-103 0 -183.5 -54.5t-160.5 -177.5
l-125 -194v-54q0 -139 68 -214.5t190 -75.5h508q123 0 190.5 72.5t67.5 205.5z" />
    <glyph glyph-name="uniFD06" unicode="&#xfebb;&#xfef2;" horiz-adv-x="2969" arabic-form="isolated" 
d="M2200 903h290q155 0 240.5 -85.5t85.5 -239.5v-232q0 -165 -84.5 -255.5t-241.5 -90.5h-501q-158 0 -244 93.5t-86 264.5v476h-270q-127 0 -197 -73.5t-70 -207.5v-680q0 -148 -91.5 -228.5t-258.5 -80.5h-213q-185 0 -288 106t-103 293q0 203 129 381q15 15 31 6l18 -12
q14 -8 4 -31q-114 -169 -114 -340q0 -160 85.5 -249t237.5 -89h213q134 0 208.5 64.5t74.5 179.5v680q0 165 87 256.5t247 91.5h309q20 0 20 -20v-379l94 147q95 136 183.5 195t204.5 59zM2748 346v232q0 123 -68 191.5t-190 68.5h-297q-103 0 -183.5 -54.5t-160.5 -177.5
l-125 -194v-54q0 -139 68 -214.5t190 -75.5h508q123 0 190.5 72.5t67.5 205.5zM498 -635h39q16 0 16 -16v-109q0 -18 -16 -18h-39q-19 0 -19 18v109q0 16 19 16zM756 -635h39q16 0 16 -16v-109q0 -18 -16 -18h-39q-19 0 -19 18v109q0 16 19 16z" />
    <glyph glyph-name="uniFD07" unicode="&#xfebf;&#xfef0;" horiz-adv-x="2969" arabic-form="isolated" 
d="M2365 1098h-41q-16 0 -16 18v109q0 16 16 16h41q19 0 19 -16v-109q0 -18 -19 -18zM2200 903h290q155 0 240.5 -85.5t85.5 -239.5v-232q0 -165 -84.5 -255.5t-241.5 -90.5h-501q-158 0 -244 93.5t-86 264.5v476h-270q-127 0 -197 -73.5t-70 -207.5v-680
q0 -148 -91.5 -228.5t-258.5 -80.5h-213q-185 0 -288 106t-103 293q0 203 129 381q15 15 31 6l18 -12q14 -8 4 -31q-114 -169 -114 -340q0 -160 85.5 -249t237.5 -89h213q134 0 208.5 64.5t74.5 179.5v680q0 165 87 256.5t247 91.5h309q20 0 20 -20v-379l94 147
q95 136 183.5 195t204.5 59zM2748 346v232q0 123 -68 191.5t-190 68.5h-297q-103 0 -183.5 -54.5t-160.5 -177.5l-125 -194v-54q0 -139 68 -214.5t190 -75.5h508q123 0 190.5 72.5t67.5 205.5z" />
    <glyph glyph-name="uniFD08" unicode="&#xfebf;&#xfef2;" horiz-adv-x="2969" arabic-form="isolated" 
d="M2365 1098h-41q-16 0 -16 18v109q0 16 16 16h41q19 0 19 -16v-109q0 -18 -19 -18zM2200 903h290q155 0 240.5 -85.5t85.5 -239.5v-232q0 -165 -84.5 -255.5t-241.5 -90.5h-501q-158 0 -244 93.5t-86 264.5v476h-270q-127 0 -197 -73.5t-70 -207.5v-680
q0 -148 -91.5 -228.5t-258.5 -80.5h-213q-185 0 -288 106t-103 293q0 203 129 381q15 15 31 6l18 -12q14 -8 4 -31q-114 -169 -114 -340q0 -160 85.5 -249t237.5 -89h213q134 0 208.5 64.5t74.5 179.5v680q0 165 87 256.5t247 91.5h309q20 0 20 -20v-379l94 147
q95 136 183.5 195t204.5 59zM2748 346v232q0 123 -68 191.5t-190 68.5h-297q-103 0 -183.5 -54.5t-160.5 -177.5l-125 -194v-54q0 -139 68 -214.5t190 -75.5h508q123 0 190.5 72.5t67.5 205.5zM498 -635h39q16 0 16 -16v-109q0 -18 -16 -18h-39q-19 0 -19 18v109q0 16 19 16
zM756 -635h39q16 0 16 -16v-109q0 -18 -16 -18h-39q-19 0 -19 18v109q0 16 19 16z" />
    <glyph glyph-name="uniFD0D" unicode="&#xfeb7;&#xfeae;" horiz-adv-x="2359" arabic-form="isolated" 
d="M1559 1184h-37q-17 0 -17 16v103q0 16 17 16h37q16 0 16 -16v-103q0 -16 -16 -16zM1432 963h-39q-19 0 -19 16v108q0 19 19 19h39q16 0 16 -19v-108q0 -16 -16 -16zM1690 963h-39q-19 0 -19 16v108q0 19 19 19h39q16 0 16 -19v-108q0 -16 -16 -16zM2124 920h24
q21 0 21 -21v-561q0 -172 -88 -266.5t-246 -94.5q-226 0 -293 187q-73 -187 -303 -187q-332 0 -332 359v366h-448v-813q0 -331 -307 -331h-11q-137 0 -221 84q-16 13 -4 28l16 19q10 13 27 0q67 -64 182 -64h11q239 0 239 264v992q0 20 21 20h26q21 0 21 -20v-113h495
q21 0 21 -20v-412q0 -293 258 -293q128 0 200 78t72 217v410q0 20 21 20h24q21 0 21 -20v-410v-2q0 -138 69 -215.5t189 -77.5q129 0 200.5 77.5t71.5 217.5v561q0 21 23 21z" />
    <glyph glyph-name="uniFD0E" unicode="&#xfeb3;&#xfeae;" horiz-adv-x="2359" arabic-form="isolated" 
d="M2124 920h24q21 0 21 -21v-561q0 -172 -88 -266.5t-246 -94.5q-226 0 -293 187q-73 -187 -303 -187q-332 0 -332 359v366h-448v-813q0 -331 -307 -331h-11q-137 0 -221 84q-16 13 -4 28l16 19q10 13 27 0q67 -64 182 -64h11q239 0 239 264v992q0 20 21 20h26q21 0 21 -20
v-113h495q21 0 21 -20v-412q0 -293 258 -293q128 0 200 78t72 217v410q0 20 21 20h24q21 0 21 -20v-410v-2q0 -138 69 -215.5t189 -77.5q129 0 200.5 77.5t71.5 217.5v561q0 21 23 21z" />
    <glyph glyph-name="uniFD17" unicode="&#xfeb4;&#xfef0;" horiz-adv-x="3178" arabic-form="final" 
d="M3178 68q19 0 19 -19v-31q0 -18 -19 -18q-119 0 -184.5 40t-91.5 130q-70 -193 -303 -193q-224 0 -295 185q-74 -185 -303 -185q-330 0 -330 359v498h-282q-127 0 -197 -73.5t-70 -207.5v-680q0 -148 -91.5 -228.5t-258.5 -80.5h-213q-185 0 -288 106t-103 293
q0 203 129 381q15 15 31 6l18 -12q14 -8 4 -31q-114 -169 -114 -340q0 -160 85.5 -249t237.5 -89h213q134 0 208.5 64.5t74.5 179.5v459q0 8 2 10v211q0 165 86 256.5t246 91.5h329q19 0 19 -20v-545q0 -293 258 -293q128 0 200 78t72 217v410q0 20 21 20h24q23 0 23 -20
v-410v-2q0 -139 68 -216t190 -77q129 0 200.5 77.5t71.5 217.5v561q0 21 21 21h24q21 0 21 -21v-551h2q0 -155 55 -217.5t190 -62.5z" />
    <glyph glyph-name="uniFD18" unicode="&#xfeb4;&#xfef2;" horiz-adv-x="3178" arabic-form="final" 
d="M3178 68q19 0 19 -19v-31q0 -18 -19 -18q-119 0 -184.5 40t-91.5 130q-70 -193 -303 -193q-224 0 -295 185q-74 -185 -303 -185q-330 0 -330 359v498h-282q-127 0 -197 -73.5t-70 -207.5v-680q0 -148 -91.5 -228.5t-258.5 -80.5h-213q-185 0 -288 106t-103 293
q0 203 129 381q15 15 31 6l18 -12q14 -8 4 -31q-114 -169 -114 -340q0 -160 85.5 -249t237.5 -89h213q134 0 208.5 64.5t74.5 179.5v459q0 8 2 10v211q0 165 86 256.5t246 91.5h329q19 0 19 -20v-545q0 -293 258 -293q128 0 200 78t72 217v410q0 20 21 20h24q23 0 23 -20
v-410v-2q0 -139 68 -216t190 -77q129 0 200.5 77.5t71.5 217.5v561q0 21 21 21h24q21 0 21 -21v-551h2q0 -155 55 -217.5t190 -62.5zM498 -635h39q16 0 16 -16v-109q0 -18 -16 -18h-39q-19 0 -19 18v109q0 16 19 16zM756 -635h39q16 0 16 -16v-109q0 -18 -16 -18h-39
q-19 0 -19 18v109q0 16 19 16z" />
    <glyph glyph-name="uniFD19" unicode="&#xfeb8;&#xfef0;" horiz-adv-x="3178" arabic-form="final" 
d="M2320 1184h-36q-17 0 -17 16v103q0 16 17 16h36q17 0 17 -16v-103q0 -16 -17 -16zM2193 963h-39q-18 0 -18 16v108q0 19 18 19h39q17 0 17 -19v-108q0 -16 -17 -16zM2451 963h-38q-19 0 -19 16v108q0 19 19 19h38q17 0 17 -19v-108q0 -16 -17 -16zM3178 68q19 0 19 -19
v-31q0 -18 -19 -18q-119 0 -184.5 40t-91.5 130q-70 -193 -303 -193q-224 0 -295 185q-74 -185 -303 -185q-330 0 -330 359v498h-282q-127 0 -197 -73.5t-70 -207.5v-680q0 -148 -91.5 -228.5t-258.5 -80.5h-213q-185 0 -288 106t-103 293q0 203 129 381q15 15 31 6l18 -12
q14 -8 4 -31q-114 -169 -114 -340q0 -160 85.5 -249t237.5 -89h213q134 0 208.5 64.5t74.5 179.5v459q0 8 2 10v211q0 165 86 256.5t246 91.5h329q19 0 19 -20v-545q0 -293 258 -293q128 0 200 78t72 217v410q0 20 21 20h24q23 0 23 -20v-410v-2q0 -139 68 -216t190 -77
q129 0 200.5 77.5t71.5 217.5v561q0 21 21 21h24q21 0 21 -21v-551h2q0 -155 55 -217.5t190 -62.5z" />
    <glyph glyph-name="uniFD1A" unicode="&#xfeb8;&#xfef2;" horiz-adv-x="3178" arabic-form="final" 
d="M2320 1184h-36q-17 0 -17 16v103q0 16 17 16h36q17 0 17 -16v-103q0 -16 -17 -16zM2193 963h-39q-18 0 -18 16v108q0 19 18 19h39q17 0 17 -19v-108q0 -16 -17 -16zM2451 963h-38q-19 0 -19 16v108q0 19 19 19h38q17 0 17 -19v-108q0 -16 -17 -16zM3178 68q19 0 19 -19
v-31q0 -18 -19 -18q-119 0 -184.5 40t-91.5 130q-70 -193 -303 -193q-224 0 -295 185q-74 -185 -303 -185q-330 0 -330 359v498h-282q-127 0 -197 -73.5t-70 -207.5v-680q0 -148 -91.5 -228.5t-258.5 -80.5h-213q-185 0 -288 106t-103 293q0 203 129 381q15 15 31 6l18 -12
q14 -8 4 -31q-114 -169 -114 -340q0 -160 85.5 -249t237.5 -89h213q134 0 208.5 64.5t74.5 179.5v459q0 8 2 10v211q0 165 86 256.5t246 91.5h329q19 0 19 -20v-545q0 -293 258 -293q128 0 200 78t72 217v410q0 20 21 20h24q23 0 23 -20v-410v-2q0 -139 68 -216t190 -77
q129 0 200.5 77.5t71.5 217.5v561q0 21 21 21h24q21 0 21 -21v-551h2q0 -155 55 -217.5t190 -62.5zM498 -635h39q16 0 16 -16v-109q0 -18 -16 -18h-39q-19 0 -19 18v109q0 16 19 16zM756 -635h39q16 0 16 -16v-109q0 -18 -16 -18h-39q-19 0 -19 18v109q0 16 19 16z" />
    <glyph glyph-name="uniFD21" unicode="&#xfebc;&#xfef0;" horiz-adv-x="3063" arabic-form="final" 
d="M3064 68q18 0 18 -19v-31q0 -18 -18 -18q-123 0 -188 41t-91 137q-70 -178 -295 -178h-501q-158 0 -244 93.5t-86 264.5v476h-270q-127 0 -197 -73.5t-70 -207.5v-680q0 -148 -91.5 -228.5t-258.5 -80.5h-213q-185 0 -288 106t-103 293q0 203 129 381q15 15 31 6l18 -12
q14 -8 4 -31q-114 -169 -114 -340q0 -160 85.5 -249t237.5 -89h213q134 0 208.5 64.5t74.5 179.5v680q0 165 87 256.5t247 91.5h309q20 0 20 -20v-379l94 147q95 136 183.5 195t204.5 59h290q155 0 240.5 -85.5t85.5 -239.5v-230h2q0 -155 55.5 -217.5t190.5 -62.5z
M2748 346v232q0 123 -68 191.5t-190 68.5h-297q-103 0 -183.5 -54.5t-160.5 -177.5l-125 -194v-54q0 -139 68 -214.5t190 -75.5h508q123 0 190.5 72.5t67.5 205.5z" />
    <glyph glyph-name="uniFD22" unicode="&#xfebc;&#xfef2;" horiz-adv-x="3063" arabic-form="final" 
d="M3064 68q18 0 18 -19v-31q0 -18 -18 -18q-123 0 -188 41t-91 137q-70 -178 -295 -178h-501q-158 0 -244 93.5t-86 264.5v476h-270q-127 0 -197 -73.5t-70 -207.5v-680q0 -148 -91.5 -228.5t-258.5 -80.5h-213q-185 0 -288 106t-103 293q0 203 129 381q15 15 31 6l18 -12
q14 -8 4 -31q-114 -169 -114 -340q0 -160 85.5 -249t237.5 -89h213q134 0 208.5 64.5t74.5 179.5v680q0 165 87 256.5t247 91.5h309q20 0 20 -20v-379l94 147q95 136 183.5 195t204.5 59h290q155 0 240.5 -85.5t85.5 -239.5v-230h2q0 -155 55.5 -217.5t190.5 -62.5z
M2748 346v232q0 123 -68 191.5t-190 68.5h-297q-103 0 -183.5 -54.5t-160.5 -177.5l-125 -194v-54q0 -139 68 -214.5t190 -75.5h508q123 0 190.5 72.5t67.5 205.5zM498 -635h39q16 0 16 -16v-109q0 -18 -16 -18h-39q-19 0 -19 18v109q0 16 19 16zM756 -635h39q16 0 16 -16
v-109q0 -18 -16 -18h-39q-19 0 -19 18v109q0 16 19 16z" />
    <glyph glyph-name="uniFD23" unicode="&#xfec0;&#xfef0;" horiz-adv-x="3063" arabic-form="final" 
d="M2365 1098h-41q-16 0 -16 18v109q0 16 16 16h41q19 0 19 -16v-109q0 -18 -19 -18zM3064 68q18 0 18 -19v-31q0 -18 -18 -18q-123 0 -188 41t-91 137q-70 -178 -295 -178h-501q-158 0 -244 93.5t-86 264.5v476h-270q-127 0 -197 -73.5t-70 -207.5v-680
q0 -148 -91.5 -228.5t-258.5 -80.5h-213q-185 0 -288 106t-103 293q0 203 129 381q15 15 31 6l18 -12q14 -8 4 -31q-114 -169 -114 -340q0 -160 85.5 -249t237.5 -89h213q134 0 208.5 64.5t74.5 179.5v680q0 165 87 256.5t247 91.5h309q20 0 20 -20v-379l94 147
q95 136 183.5 195t204.5 59h290q155 0 240.5 -85.5t85.5 -239.5v-230h2q0 -155 55.5 -217.5t190.5 -62.5zM2748 346v232q0 123 -68 191.5t-190 68.5h-297q-103 0 -183.5 -54.5t-160.5 -177.5l-125 -194v-54q0 -139 68 -214.5t190 -75.5h508q123 0 190.5 72.5t67.5 205.5z
" />
    <glyph glyph-name="uniFD24" unicode="&#xfec0;&#xfef2;" horiz-adv-x="3063" arabic-form="final" 
d="M2365 1098h-41q-16 0 -16 18v109q0 16 16 16h41q19 0 19 -16v-109q0 -18 -19 -18zM3064 68q18 0 18 -19v-31q0 -18 -18 -18q-123 0 -188 41t-91 137q-70 -178 -295 -178h-501q-158 0 -244 93.5t-86 264.5v476h-270q-127 0 -197 -73.5t-70 -207.5v-680
q0 -148 -91.5 -228.5t-258.5 -80.5h-213q-185 0 -288 106t-103 293q0 203 129 381q15 15 31 6l18 -12q14 -8 4 -31q-114 -169 -114 -340q0 -160 85.5 -249t237.5 -89h213q134 0 208.5 64.5t74.5 179.5v680q0 165 87 256.5t247 91.5h309q20 0 20 -20v-379l94 147
q95 136 183.5 195t204.5 59h290q155 0 240.5 -85.5t85.5 -239.5v-230h2q0 -155 55.5 -217.5t190.5 -62.5zM2748 346v232q0 123 -68 191.5t-190 68.5h-297q-103 0 -183.5 -54.5t-160.5 -177.5l-125 -194v-54q0 -139 68 -214.5t190 -75.5h508q123 0 190.5 72.5t67.5 205.5z
M498 -635h39q16 0 16 -16v-109q0 -18 -16 -18h-39q-19 0 -19 18v109q0 16 19 16zM756 -635h39q16 0 16 -16v-109q0 -18 -16 -18h-39q-19 0 -19 18v109q0 16 19 16z" />
    <glyph glyph-name="uniFD29" unicode="&#xfeb8;&#xfeae;" horiz-adv-x="2416" arabic-form="final" 
d="M1559 1184h-37q-17 0 -17 16v103q0 16 17 16h37q16 0 16 -16v-103q0 -16 -16 -16zM1432 963h-39q-19 0 -19 16v108q0 19 19 19h39q16 0 16 -19v-108q0 -16 -16 -16zM1690 963h-39q-19 0 -19 16v108q0 19 19 19h39q16 0 16 -19v-108q0 -16 -16 -16zM2417 68q18 0 18 -19
v-31q0 -18 -18 -18q-119 0 -185 40t-92 130q-70 -193 -305 -193q-226 0 -293 187q-73 -187 -303 -187q-332 0 -332 359v366h-448v-813q0 -331 -307 -331h-11q-137 0 -221 84q-16 13 -4 28l16 19q10 13 27 0q67 -64 182 -64h11q239 0 239 264v992q0 20 21 20h26q21 0 21 -20
v-113h495q21 0 21 -20v-412q0 -293 258 -293q128 0 200 78t72 217v410q0 20 21 20h24q21 0 21 -20v-410v-2q0 -138 69 -215.5t189 -77.5q129 0 200.5 77.5t71.5 217.5v561q0 21 23 21h24q21 0 21 -21v-551h2q0 -155 55.5 -217.5t190.5 -62.5z" />
    <glyph glyph-name="uniFD2A" unicode="&#xfeb4;&#xfeae;" horiz-adv-x="2416" arabic-form="final" 
d="M2417 68q18 0 18 -19v-31q0 -18 -18 -18q-119 0 -185 40t-92 130q-70 -193 -305 -193q-226 0 -293 187q-73 -187 -303 -187q-332 0 -332 359v366h-448v-813q0 -331 -307 -331h-11q-137 0 -221 84q-16 13 -4 28l16 19q10 13 27 0q67 -64 182 -64h11q239 0 239 264v992
q0 20 21 20h26q21 0 21 -20v-113h495q21 0 21 -20v-412q0 -293 258 -293q128 0 200 78t72 217v410q0 20 21 20h24q21 0 21 -20v-410v-2q0 -138 69 -215.5t189 -77.5q129 0 200.5 77.5t71.5 217.5v561q0 21 23 21h24q21 0 21 -21v-551h2q0 -155 55.5 -217.5t190.5 -62.5z" />
    <glyph glyph-name="uniFEF5" unicode="&#xfedf;&#xfe82;" horiz-adv-x="1347" arabic-form="isolated" 
d="M834 0h-742q-18 0 -18 20v25q0 23 18 23h443v972h-111q-21 0 -21 21v24q0 21 21 21h156q20 0 20 -21v-1017h234q128 0 187.5 54t59.5 171v1218q0 23 21 23h24q21 0 21 -23v-1218q0 -150 -76 -221.5t-237 -71.5zM608 1296q-41 0 -108 52q-53 41 -88 41q-29 0 -46.5 -20.5
t-17.5 -53.5q0 -19 -16 -19h-19q-16 0 -16 19q0 88 66 115.5t157 -37.5l17 -15q14 -12 24.5 -17.5t16 -7t28.5 -5.5q25 0 41.5 20.5t16.5 54.5q0 17 18 17h18q17 0 17 -17q0 -55 -31 -91t-78 -36z" />
    <glyph glyph-name="uniFEF6" unicode="&#xfee0;&#xfe82;" horiz-adv-x="1394" arabic-form="final" 
d="M1395 68q18 0 18 -19v-31q0 -18 -18 -18q-116 0 -180.5 36.5t-90.5 117.5q-59 -154 -290 -154h-742q-18 0 -18 20v25q0 23 18 23h443v972h-111q-21 0 -21 21v24q0 21 21 21h156q20 0 20 -21v-1017h234q128 0 187.5 54t59.5 171v1218q0 23 21 23h24q21 0 21 -23v-1163h2
q0 -155 55.5 -217.5t190.5 -62.5zM332 1296h-19q-16 0 -16 19q0 88 66 115.5t157 -37.5l17 -15q14 -12 24.5 -17.5t16 -7t28.5 -5.5q25 0 41.5 20.5t16.5 54.5q0 17 18 17h18q17 0 17 -17q0 -55 -31 -91t-78 -36q-41 0 -108 52q-53 41 -88 41q-29 0 -46.5 -20.5t-17.5 -53.5
q0 -19 -16 -19z" />
    <glyph glyph-name="uniFEF7" unicode="&#xfedf;&#xfe84;" horiz-adv-x="1347" arabic-form="isolated" 
d="M690 1300h-358q-17 0 -17 19v18q0 17 17 17h88q-27 27 -27 80v73q0 67 39.5 111.5t104.5 44.5h24q60 0 119 -47q13 -10 2 -21l-12 -14q-10 -16 -27 -2q-42 33 -84 33h-22q-40 0 -66.5 -30.5t-26.5 -74.5v-71q0 -37 20.5 -59.5t55.5 -22.5h170q17 0 17 -17v-18
q0 -19 -17 -19zM1102 1534h24q21 0 21 -23v-1218q0 -150 -76 -221.5t-237 -71.5h-742q-18 0 -18 20v25q0 23 18 23h443v972h-111q-21 0 -21 21v24q0 21 21 21h156q20 0 20 -21v-1017h234q128 0 187.5 54t59.5 171v1218q0 23 21 23z" />
    <glyph glyph-name="uniFEF8" unicode="&#xfee0;&#xfe84;" horiz-adv-x="1394" arabic-form="final" 
d="M690 1300h-358q-17 0 -17 19v18q0 17 17 17h88q-27 27 -27 80v73q0 67 39.5 111.5t104.5 44.5h24q60 0 119 -47q13 -10 2 -21l-12 -14q-10 -16 -27 -2q-42 33 -84 33h-22q-40 0 -66.5 -30.5t-26.5 -74.5v-71q0 -37 20.5 -59.5t55.5 -22.5h170q17 0 17 -17v-18
q0 -19 -17 -19zM1395 68q18 0 18 -19v-31q0 -18 -18 -18q-116 0 -180.5 36.5t-90.5 117.5q-59 -154 -290 -154h-742q-18 0 -18 20v25q0 23 18 23h443v972h-111q-21 0 -21 21v24q0 21 21 21h156q20 0 20 -21v-1017h234q128 0 187.5 54t59.5 171v1218q0 23 21 23h24
q21 0 21 -23v-1163h2q0 -155 55.5 -217.5t190.5 -62.5z" />
    <glyph glyph-name="uniFEF9" unicode="&#xfedf;&#xfe88;" horiz-adv-x="1347" arabic-form="isolated" 
d="M1102 1534h24q21 0 21 -23v-1218q0 -150 -76 -221.5t-237 -71.5h-742q-18 0 -18 20v25q0 23 18 23h443v972h-111q-21 0 -21 21v24q0 21 21 21h156q20 0 20 -21v-1017h234q128 0 187.5 54t59.5 171v1218q0 23 21 23zM594 -500h168q18 0 18 -18v-19q0 -16 -18 -16h-359
q-16 0 -16 16v19q0 18 16 18h89q-27 27 -27 80v72q0 67 40 112.5t105 45.5h23q70 0 121 -48q11 -11 2 -20l-15 -16q-9 -9 -24 0q-47 30 -84 30h-23q-41 0 -67.5 -30.5t-26.5 -73.5v-70q0 -82 78 -82z" />
    <glyph glyph-name="uniFEFA" unicode="&#xfee0;&#xfe88;" horiz-adv-x="1394" arabic-form="final" 
d="M1395 68q18 0 18 -19v-31q0 -18 -18 -18q-116 0 -180.5 36.5t-90.5 117.5q-59 -154 -290 -154h-742q-18 0 -18 20v25q0 23 18 23h443v972h-111q-21 0 -21 21v24q0 21 21 21h156q20 0 20 -21v-1017h234q128 0 187.5 54t59.5 171v1218q0 23 21 23h24q21 0 21 -23v-1163h2
q0 -155 55.5 -217.5t190.5 -62.5zM592 -500h168q18 0 18 -18v-19q0 -16 -18 -16h-359q-16 0 -16 16v19q0 18 16 18h88q-26 26 -26 80v72q0 67 40 112.5t105 45.5h23q70 0 121 -48q11 -11 2 -20l-15 -16q-9 -9 -24 0q-47 30 -84 30h-23q-41 0 -67.5 -30.5t-26.5 -73.5v-70
q0 -82 78 -82z" />
    <glyph glyph-name="uniFEFB" unicode="&#xfedf;&#xfe8e;" horiz-adv-x="1347" arabic-form="isolated" 
d="M834 0h-742q-18 0 -18 20v25q0 23 18 23h443v972h-111q-21 0 -21 21v24q0 21 21 21h156q20 0 20 -21v-1017h234q128 0 187.5 54t59.5 171v1218q0 23 21 23h24q21 0 21 -23v-1218q0 -150 -76 -221.5t-237 -71.5z" />
    <glyph glyph-name="uniFEFC" unicode="&#xfee0;&#xfe8e;" horiz-adv-x="1394" arabic-form="final" 
d="M1395 68q18 0 18 -19v-31q0 -18 -18 -18q-116 0 -180.5 36.5t-90.5 117.5q-59 -154 -290 -154h-742q-18 0 -18 20v25q0 23 18 23h443v972h-111q-21 0 -21 21v24q0 21 21 21h156q20 0 20 -21v-1017h234q128 0 187.5 54t59.5 171v1218q0 23 21 23h24q21 0 21 -23v-1163h2
q0 -155 55.5 -217.5t190.5 -62.5z" />
    <glyph glyph-name="uniFEDFFB51" unicode="&#xfedf;&#xfb51;" horiz-adv-x="1347" 
d="M606 1303h-272q-17 0 -17 16v14q0 17 17 17h80v90q0 43 24.5 69.5t65.5 26.5h102q41 0 65.5 -25.5t24.5 -66.5v-49q0 -41 -25.5 -66.5t-64.5 -25.5zM1102 1534h24q21 0 21 -23v-1218q0 -150 -76 -221.5t-237 -71.5h-742q-18 0 -18 20v25q0 23 18 23h443v972h-111
q-21 0 -21 21v24q0 21 21 21h156q20 0 20 -21v-1017h234q128 0 187.5 54t59.5 171v1218q0 23 21 23zM457 1440v-90h147q45 0 45 47v43q0 47 -47 47h-96q-49 0 -49 -47z" />
    <glyph glyph-name="uniFEE0FB51" unicode="&#xfee0;&#xfb51;" horiz-adv-x="1347" 
d="M606 1303h-272q-17 0 -17 16v14q0 17 17 17h80v90q0 43 24.5 69.5t65.5 26.5h102q41 0 65.5 -25.5t24.5 -66.5v-49q0 -41 -25.5 -66.5t-64.5 -25.5zM1102 1534h24q21 0 21 -23v-1218q0 -150 -76 -221.5t-237 -71.5h-742q-18 0 -18 20v25q0 23 18 23h443v972h-111
q-21 0 -21 21v24q0 21 21 21h156q20 0 20 -21v-1017h234q128 0 187.5 54t59.5 171v1218q0 23 21 23zM457 1440v-90h147q45 0 45 47v43q0 47 -47 47h-96q-49 0 -49 -47z" />
    <glyph glyph-name="uniFE92FE8A" unicode="&#xfe92;&#xfe8a;" horiz-adv-x="2076" 
d="M840 768h-359q-16 0 -16 18v19q0 16 16 16h88q-26 26 -26 80v74q0 67 39 111t104 44h25q59 0 118 -47q13 -9 2 -20l-12 -14q-9 -15 -26 -2q-40 32 -84 32h-23q-40 0 -66 -30t-26 -74v-72q0 -37 20.5 -59.5t55.5 -22.5h170q16 0 16 -16v-19q0 -18 -16 -18zM2068 68h9
q16 0 16 -19v-31q0 -18 -16 -18h-9q-164 0 -240.5 71.5t-76.5 221.5v541h-362q-127 0 -197 -73.5t-70 -207.5v-680q0 -148 -91.5 -228.5t-258.5 -80.5h-213q-185 0 -288 106t-103 293q0 203 129 381q15 15 31 6l18 -12q14 -8 4 -31q-114 -169 -114 -340q0 -160 85.5 -249
t237.5 -89h213q134 0 208.5 64.5t74.5 179.5v680q0 165 87 256.5t247 91.5h362v82q0 23 21 23h26q21 0 21 -23v-690q0 -117 60 -171t189 -54zM1505 -193h41q17 0 17 -16v-110q0 -17 -17 -17h-41q-18 0 -18 17v110q0 16 18 16z" />
    <glyph glyph-name="uniFB59FEAE" unicode="&#xfb59;&#xfeae;" horiz-adv-x="1300" 
d="M1292 68h8q17 0 17 -19v-31q0 -18 -17 -18h-8q-164 0 -240.5 71.5t-76.5 221.5v541h-516v-945q0 -331 -307 -331h-11q-137 0 -221 84q-16 13 -4 28l16 19q10 13 27 0q67 -64 182 -64h11q239 0 239 264v992q0 20 21 20h563v82q0 23 20 23h27q20 0 20 -23v-690
q0 -117 60.5 -171t189.5 -54zM668 -193h39q16 0 16 -16v-108q0 -19 -16 -19h-39q-19 0 -19 19v108q0 16 19 16zM926 -193h39q16 0 16 -16v-108q0 -19 -16 -19h-39q-19 0 -19 19v108q0 16 19 16zM797 -414h37q16 0 16 -16v-105q0 -14 -16 -14h-37q-17 0 -17 14v105
q0 16 17 16z" />
    <glyph glyph-name="uniFB59FEB0" unicode="&#xfb59;&#xfeb0;" horiz-adv-x="1300" 
d="M446 1094h-40q-17 0 -17 18v109q0 16 17 16h40q19 0 19 -16v-109q0 -18 -19 -18zM1292 68h8q17 0 17 -19v-31q0 -18 -17 -18h-8q-164 0 -240.5 71.5t-76.5 221.5v541h-516v-945q0 -331 -307 -331h-11q-137 0 -221 84q-16 13 -4 28l16 19q10 13 27 0q67 -64 182 -64h11
q239 0 239 264v992q0 20 21 20h563v82q0 23 20 23h27q20 0 20 -23v-690q0 -117 60.5 -171t189.5 -54zM668 -193h39q16 0 16 -16v-108q0 -19 -16 -19h-39q-19 0 -19 19v108q0 16 19 16zM926 -193h39q16 0 16 -16v-108q0 -19 -16 -19h-39q-19 0 -19 19v108q0 16 19 16z
M797 -414h37q16 0 16 -16v-105q0 -14 -16 -14h-37q-17 0 -17 14v105q0 16 17 16z" />
    <glyph glyph-name="uniFB59FEE6" unicode="&#xfb59;&#xfee6;" horiz-adv-x="1959" 
d="M1952 68h8q18 0 18 -19v-31q0 -18 -18 -18h-8q-163 0 -239.5 71.5t-76.5 221.5v409h-514v-829q0 -148 -91.5 -228.5t-258.5 -80.5h-213q-185 0 -288 106.5t-103 292.5q0 203 129 381q15 15 31 6l18 -12q14 -12 4 -29q-114 -173 -114 -340q0 -161 85.5 -250.5t237.5 -89.5
h213q134 0 208.5 64.5t74.5 179.5v846v2v2v25q0 20 20 20h561v84q0 20 19 20h28q19 0 19 -20v-559q0 -117 60.5 -171t189.5 -54zM676 678h-41q-17 0 -17 18v109q0 16 17 16h41q18 0 18 -16v-109q0 -18 -18 -18zM1337 -193h39q17 0 17 -16v-108q0 -19 -17 -19h-39
q-18 0 -18 19v108q0 16 18 16zM1595 -193h39q17 0 17 -16v-108q0 -19 -17 -19h-39q-18 0 -18 19v108q0 16 18 16zM1466 -414h37q17 0 17 -16v-105q0 -14 -17 -14h-37q-16 0 -16 14v105q0 16 16 16z" />
    <glyph glyph-name="uniFB59FEF0" unicode="&#xfb59;&#xfef0;" horiz-adv-x="2076" 
d="M2068 68h9q16 0 16 -19v-31q0 -18 -16 -18h-9q-164 0 -240.5 71.5t-76.5 221.5v541h-362q-127 0 -197 -73.5t-70 -207.5v-680q0 -148 -91.5 -228.5t-258.5 -80.5h-213q-185 0 -288 106t-103 293q0 203 129 381q15 15 31 6l18 -12q14 -8 4 -31q-114 -169 -114 -340
q0 -160 85.5 -249t237.5 -89h213q134 0 208.5 64.5t74.5 179.5v680q0 165 87 256.5t247 91.5h362v82q0 23 21 23h26q21 0 21 -23v-690q0 -117 60 -171t189 -54zM1389 -193h38q17 0 17 -16v-108q0 -19 -17 -19h-38q-19 0 -19 19v108q0 16 19 16zM1647 -193h39q16 0 16 -16
v-108q0 -19 -16 -19h-39q-19 0 -19 19v108q0 16 19 16zM1518 -414h36q17 0 17 -16v-105q0 -14 -17 -14h-36q-17 0 -17 14v105q0 16 17 16z" />
    <glyph glyph-name="uniFB59FEF2" unicode="&#xfb59;&#xfef2;" horiz-adv-x="2076" 
d="M2068 68h9q16 0 16 -19v-31q0 -18 -16 -18h-9q-164 0 -240.5 71.5t-76.5 221.5v541h-362q-127 0 -197 -73.5t-70 -207.5v-680q0 -148 -91.5 -228.5t-258.5 -80.5h-213q-185 0 -288 106t-103 293q0 203 129 381q15 15 31 6l18 -12q14 -8 4 -31q-114 -169 -114 -340
q0 -160 85.5 -249t237.5 -89h213q134 0 208.5 64.5t74.5 179.5v680q0 165 87 256.5t247 91.5h362v82q0 23 21 23h26q21 0 21 -23v-690q0 -117 60 -171t189 -54zM1389 -193h38q17 0 17 -16v-108q0 -19 -17 -19h-38q-19 0 -19 19v108q0 16 19 16zM1647 -193h39q16 0 16 -16
v-108q0 -19 -16 -19h-39q-19 0 -19 19v108q0 16 19 16zM1518 -414h36q17 0 17 -16v-105q0 -14 -17 -14h-36q-17 0 -17 14v105q0 16 17 16zM498 -635h39q16 0 16 -16v-109q0 -18 -16 -18h-39q-19 0 -19 18v109q0 16 19 16zM756 -635h39q16 0 16 -16v-109q0 -18 -16 -18h-39
q-19 0 -19 18v109q0 16 19 16z" />
    <glyph glyph-name="uniFB59FE8A" unicode="&#xfb59;&#xfe8a;" horiz-adv-x="2076" 
d="M840 768h-359q-16 0 -16 18v19q0 16 16 16h88q-26 26 -26 80v74q0 67 39 111t104 44h25q59 0 118 -47q13 -9 2 -20l-12 -14q-9 -15 -26 -2q-40 32 -84 32h-23q-40 0 -66 -30t-26 -74v-72q0 -37 20.5 -59.5t55.5 -22.5h170q16 0 16 -16v-19q0 -18 -16 -18zM2068 68h9
q16 0 16 -19v-31q0 -18 -16 -18h-9q-164 0 -240.5 71.5t-76.5 221.5v541h-362q-127 0 -197 -73.5t-70 -207.5v-680q0 -148 -91.5 -228.5t-258.5 -80.5h-213q-185 0 -288 106t-103 293q0 203 129 381q15 15 31 6l18 -12q14 -8 4 -31q-114 -169 -114 -340q0 -160 85.5 -249
t237.5 -89h213q134 0 208.5 64.5t74.5 179.5v680q0 165 87 256.5t247 91.5h362v82q0 23 21 23h26q21 0 21 -23v-690q0 -117 60 -171t189 -54zM1389 -193h38q17 0 17 -16v-108q0 -19 -17 -19h-38q-19 0 -19 19v108q0 16 19 16zM1647 -193h39q16 0 16 -16v-108q0 -19 -16 -19
h-39q-19 0 -19 19v108q0 16 19 16zM1518 -414h36q17 0 17 -16v-105q0 -14 -17 -14h-36q-17 0 -17 14v105q0 16 17 16z" />
    <glyph glyph-name="uniFE98FE8A" unicode="&#xfe98;&#xfe8a;" horiz-adv-x="2076" 
d="M1677 1198h-39q-16 0 -16 19v106q0 18 16 18h39q19 0 19 -18v-106q0 -19 -19 -19zM1935 1198h-39q-18 0 -18 19v106q0 18 18 18h39q19 0 19 -18v-106q0 -19 -19 -19zM840 768h-359q-16 0 -16 18v19q0 16 16 16h88q-26 26 -26 80v74q0 67 39 111t104 44h25q59 0 118 -47
q13 -9 2 -20l-12 -14q-9 -15 -26 -2q-40 32 -84 32h-23q-40 0 -66 -30t-26 -74v-72q0 -37 20.5 -59.5t55.5 -22.5h170q16 0 16 -16v-19q0 -18 -16 -18zM2068 68h9q16 0 16 -19v-31q0 -18 -16 -18h-9q-164 0 -240.5 71.5t-76.5 221.5v541h-362q-127 0 -197 -73.5t-70 -207.5
v-680q0 -148 -91.5 -228.5t-258.5 -80.5h-213q-185 0 -288 106t-103 293q0 203 129 381q15 15 31 6l18 -12q14 -8 4 -31q-114 -169 -114 -340q0 -160 85.5 -249t237.5 -89h213q134 0 208.5 64.5t74.5 179.5v680q0 165 87 256.5t247 91.5h362v82q0 23 21 23h26q21 0 21 -23
v-690q0 -117 60 -171t189 -54z" />
    <glyph glyph-name="uniFE9CFE8A" unicode="&#xfe9c;&#xfe8a;" horiz-adv-x="2076" 
d="M1806 1419h-37q-16 0 -16 17v102q0 16 16 16h37q17 0 17 -16v-102q0 -17 -17 -17zM1679 1198h-39q-18 0 -18 16v109q0 18 18 18h39q17 0 17 -18v-109q0 -16 -17 -16zM1937 1198h-39q-18 0 -18 16v109q0 18 18 18h39q17 0 17 -18v-109q0 -16 -17 -16zM840 768h-359
q-16 0 -16 18v19q0 16 16 16h88q-26 26 -26 80v74q0 67 39 111t104 44h25q59 0 118 -47q13 -9 2 -20l-12 -14q-9 -15 -26 -2q-40 32 -84 32h-23q-40 0 -66 -30t-26 -74v-72q0 -37 20.5 -59.5t55.5 -22.5h170q16 0 16 -16v-19q0 -18 -16 -18zM2068 68h9q16 0 16 -19v-31
q0 -18 -16 -18h-9q-164 0 -240.5 71.5t-76.5 221.5v541h-362q-127 0 -197 -73.5t-70 -207.5v-680q0 -148 -91.5 -228.5t-258.5 -80.5h-213q-185 0 -288 106t-103 293q0 203 129 381q15 15 31 6l18 -12q14 -8 4 -31q-114 -169 -114 -340q0 -160 85.5 -249t237.5 -89h213
q134 0 208.5 64.5t74.5 179.5v680q0 165 87 256.5t247 91.5h362v82q0 23 21 23h26q21 0 21 -23v-690q0 -117 60 -171t189 -54z" />
    <glyph glyph-name="uniFEB3FEB0" unicode="&#xfeb3;&#xfeb0;" horiz-adv-x="2359" 
d="M446 1094h-40q-17 0 -17 18v109q0 16 17 16h40q19 0 19 -16v-109q0 -18 -19 -18zM2124 920h24q21 0 21 -21v-561q0 -172 -88 -266.5t-246 -94.5q-226 0 -293 187q-73 -187 -303 -187q-332 0 -332 359v366h-448v-813q0 -331 -307 -331h-11q-137 0 -221 84q-16 13 -4 28
l16 19q10 13 27 0q67 -64 182 -64h11q239 0 239 264v992q0 20 21 20h26q21 0 21 -20v-113h495q21 0 21 -20v-412q0 -293 258 -293q128 0 200 78t72 217v410q0 20 21 20h24q21 0 21 -20v-410v-2q0 -138 69 -215.5t189 -77.5q129 0 200.5 77.5t71.5 217.5v561q0 21 23 21z" />
    <glyph glyph-name="uniFEB4FEB0" unicode="&#xfeb4;&#xfeb0;" horiz-adv-x="2416" 
d="M444 1094h-41q-16 0 -16 18v109q0 16 16 16h41q19 0 19 -16v-109q0 -18 -19 -18zM2417 68q18 0 18 -19v-31q0 -18 -18 -18q-119 0 -185 40t-92 130q-70 -193 -305 -193q-226 0 -293 187q-73 -187 -303 -187q-332 0 -332 359v366h-448v-813q0 -331 -307 -331h-11
q-137 0 -221 84q-16 13 -4 28l16 19q10 13 27 0q67 -64 182 -64h11q239 0 239 264v992q0 20 21 20h26q21 0 21 -20v-113h495q21 0 21 -20v-412q0 -293 258 -293q128 0 200 78t72 217v410q0 20 21 20h24q21 0 21 -20v-410v-2q0 -138 69 -215.5t189 -77.5q129 0 200.5 77.5
t71.5 217.5v561q0 21 23 21h24q21 0 21 -21v-551h2q0 -155 55.5 -217.5t190.5 -62.5z" />
    <glyph glyph-name="uniFEB3FE8A" unicode="&#xfeb3;&#xfe8a;" horiz-adv-x="3121" 
d="M1640 1096h-358q-16 0 -16 18v19q0 16 16 16h88q-27 27 -27 80v74q0 67 39.5 111t104.5 44h24q60 0 119 -47q13 -9 2 -20l-12 -15q-10 -16 -27 -2q-42 33 -84 33h-22q-40 0 -66 -30t-26 -74v-72q0 -37 20 -59.5t55 -22.5h170q17 0 17 -16v-19q0 -18 -17 -18zM2886 920h24
q21 0 21 -21v-561q0 -171 -88 -266t-244 -95q-224 0 -295 185q-74 -185 -303 -185q-330 0 -330 359v498h-282q-127 0 -197 -73.5t-70 -207.5v-680q0 -148 -91.5 -228.5t-258.5 -80.5h-213q-185 0 -288 106t-103 293q0 203 129 381q15 15 31 6l18 -12q14 -8 4 -31
q-114 -169 -114 -340q0 -160 85.5 -249t237.5 -89h213q134 0 208.5 64.5t74.5 179.5v459q0 8 2 10v211q0 165 86 256.5t246 91.5h329q19 0 19 -20v-545q0 -293 258 -293q128 0 200 78t72 217v410q0 20 21 20h24q23 0 23 -20v-410v-2q0 -139 68 -216t190 -77
q129 0 200.5 77.5t71.5 217.5v561q0 21 21 21z" />
    <glyph glyph-name="uniFEB4FE8A" unicode="&#xfeb4;&#xfe8a;" horiz-adv-x="3178" 
d="M1640 1096h-358q-16 0 -16 18v19q0 16 16 16h88q-27 27 -27 80v74q0 67 39.5 111t104.5 44h24q60 0 119 -47q13 -9 2 -20l-12 -15q-10 -16 -27 -2q-42 33 -84 33h-22q-40 0 -66 -30t-26 -74v-72q0 -37 20 -59.5t55 -22.5h170q17 0 17 -16v-19q0 -18 -17 -18zM3178 68
q19 0 19 -19v-31q0 -18 -19 -18q-119 0 -184.5 40t-91.5 130q-70 -193 -303 -193q-224 0 -295 185q-74 -185 -303 -185q-330 0 -330 359v498h-282q-127 0 -197 -73.5t-70 -207.5v-680q0 -148 -91.5 -228.5t-258.5 -80.5h-213q-185 0 -288 106t-103 293q0 203 129 381
q15 15 31 6l18 -12q14 -8 4 -31q-114 -169 -114 -340q0 -160 85.5 -249t237.5 -89h213q134 0 208.5 64.5t74.5 179.5v459q0 8 2 10v211q0 165 86 256.5t246 91.5h329q19 0 19 -20v-545q0 -293 258 -293q128 0 200 78t72 217v410q0 20 21 20h24q23 0 23 -20v-410v-2
q0 -139 68 -216t190 -77q129 0 200.5 77.5t71.5 217.5v561q0 21 21 21h24q21 0 21 -21v-551h2q0 -155 55 -217.5t190 -62.5z" />
    <glyph glyph-name="uniFEB7FEB0" unicode="&#xfeb7;&#xfeb0;" horiz-adv-x="2359" 
d="M1559 1184h-37q-17 0 -17 16v103q0 16 17 16h37q16 0 16 -16v-103q0 -16 -16 -16zM446 1094h-40q-17 0 -17 18v109q0 16 17 16h40q19 0 19 -16v-109q0 -18 -19 -18zM1432 963h-39q-19 0 -19 16v108q0 19 19 19h39q16 0 16 -19v-108q0 -16 -16 -16zM1690 963h-39
q-19 0 -19 16v108q0 19 19 19h39q16 0 16 -19v-108q0 -16 -16 -16zM2124 920h24q21 0 21 -21v-561q0 -172 -88 -266.5t-246 -94.5q-226 0 -293 187q-73 -187 -303 -187q-332 0 -332 359v366h-448v-813q0 -331 -307 -331h-11q-137 0 -221 84q-16 13 -4 28l16 19q10 13 27 0
q67 -64 182 -64h11q239 0 239 264v992q0 20 21 20h26q21 0 21 -20v-113h495q21 0 21 -20v-412q0 -293 258 -293q128 0 200 78t72 217v410q0 20 21 20h24q21 0 21 -20v-410v-2q0 -138 69 -215.5t189 -77.5q129 0 200.5 77.5t71.5 217.5v561q0 21 23 21z" />
    <glyph glyph-name="uniFEB8FEB0" unicode="&#xfeb8;&#xfeb0;" horiz-adv-x="2416" 
d="M1559 1184h-37q-17 0 -17 16v103q0 16 17 16h37q16 0 16 -16v-103q0 -16 -16 -16zM444 1094h-41q-16 0 -16 18v109q0 16 16 16h41q19 0 19 -16v-109q0 -18 -19 -18zM1432 963h-39q-19 0 -19 16v108q0 19 19 19h39q16 0 16 -19v-108q0 -16 -16 -16zM1690 963h-39
q-19 0 -19 16v108q0 19 19 19h39q16 0 16 -19v-108q0 -16 -16 -16zM2417 68q18 0 18 -19v-31q0 -18 -18 -18q-119 0 -185 40t-92 130q-70 -193 -305 -193q-226 0 -293 187q-73 -187 -303 -187q-332 0 -332 359v366h-448v-813q0 -331 -307 -331h-11q-137 0 -221 84
q-16 13 -4 28l16 19q10 13 27 0q67 -64 182 -64h11q239 0 239 264v992q0 20 21 20h26q21 0 21 -20v-113h495q21 0 21 -20v-412q0 -293 258 -293q128 0 200 78t72 217v410q0 20 21 20h24q21 0 21 -20v-410v-2q0 -138 69 -215.5t189 -77.5q129 0 200.5 77.5t71.5 217.5v561
q0 21 23 21h24q21 0 21 -21v-551h2q0 -155 55.5 -217.5t190.5 -62.5z" />
    <glyph glyph-name="uniFEB7FE8A" unicode="&#xfeb7;&#xfe8a;" horiz-adv-x="3121" 
d="M1640 1096h-358q-16 0 -16 18v19q0 16 16 16h88q-27 27 -27 80v74q0 67 39.5 111t104.5 44h24q60 0 119 -47q13 -9 2 -20l-12 -15q-10 -16 -27 -2q-42 33 -84 33h-22q-40 0 -66 -30t-26 -74v-72q0 -37 20 -59.5t55 -22.5h170q17 0 17 -16v-19q0 -18 -17 -18zM2320 1184
h-36q-17 0 -17 16v103q0 16 17 16h36q17 0 17 -16v-103q0 -16 -17 -16zM2193 963h-39q-18 0 -18 16v108q0 19 18 19h39q17 0 17 -19v-108q0 -16 -17 -16zM2451 963h-38q-19 0 -19 16v108q0 19 19 19h38q17 0 17 -19v-108q0 -16 -17 -16zM2886 920h24q21 0 21 -21v-561
q0 -171 -88 -266t-244 -95q-224 0 -295 185q-74 -185 -303 -185q-330 0 -330 359v498h-282q-127 0 -197 -73.5t-70 -207.5v-680q0 -148 -91.5 -228.5t-258.5 -80.5h-213q-185 0 -288 106t-103 293q0 203 129 381q15 15 31 6l18 -12q14 -8 4 -31q-114 -169 -114 -340
q0 -160 85.5 -249t237.5 -89h213q134 0 208.5 64.5t74.5 179.5v459q0 8 2 10v211q0 165 86 256.5t246 91.5h329q19 0 19 -20v-545q0 -293 258 -293q128 0 200 78t72 217v410q0 20 21 20h24q23 0 23 -20v-410v-2q0 -139 68 -216t190 -77q129 0 200.5 77.5t71.5 217.5v561
q0 21 21 21z" />
    <glyph glyph-name="uniFEB8FE8A" unicode="&#xfeb8;&#xfe8a;" horiz-adv-x="3178" 
d="M1640 1096h-358q-16 0 -16 18v19q0 16 16 16h88q-27 27 -27 80v74q0 67 39.5 111t104.5 44h24q60 0 119 -47q13 -9 2 -20l-12 -15q-10 -16 -27 -2q-42 33 -84 33h-22q-40 0 -66 -30t-26 -74v-72q0 -37 20 -59.5t55 -22.5h170q17 0 17 -16v-19q0 -18 -17 -18zM2320 1184
h-36q-17 0 -17 16v103q0 16 17 16h36q17 0 17 -16v-103q0 -16 -17 -16zM2193 963h-39q-18 0 -18 16v108q0 19 18 19h39q17 0 17 -19v-108q0 -16 -17 -16zM2451 963h-38q-19 0 -19 16v108q0 19 19 19h38q17 0 17 -19v-108q0 -16 -17 -16zM3178 68q19 0 19 -19v-31
q0 -18 -19 -18q-119 0 -184.5 40t-91.5 130q-70 -193 -303 -193q-224 0 -295 185q-74 -185 -303 -185q-330 0 -330 359v498h-282q-127 0 -197 -73.5t-70 -207.5v-680q0 -148 -91.5 -228.5t-258.5 -80.5h-213q-185 0 -288 106t-103 293q0 203 129 381q15 15 31 6l18 -12
q14 -8 4 -31q-114 -169 -114 -340q0 -160 85.5 -249t237.5 -89h213q134 0 208.5 64.5t74.5 179.5v459q0 8 2 10v211q0 165 86 256.5t246 91.5h329q19 0 19 -20v-545q0 -293 258 -293q128 0 200 78t72 217v410q0 20 21 20h24q23 0 23 -20v-410v-2q0 -139 68 -216t190 -77
q129 0 200.5 77.5t71.5 217.5v561q0 21 21 21h24q21 0 21 -21v-551h2q0 -155 55 -217.5t190 -62.5z" />
    <glyph glyph-name="uniFEBBFE8A" unicode="&#xfebb;&#xfe8a;" horiz-adv-x="2969" 
d="M1640 1096h-358q-16 0 -16 18v19q0 16 16 16h88q-27 27 -27 80v74q0 67 39.5 111t104.5 44h24q60 0 119 -47q13 -9 2 -20l-12 -15q-10 -16 -27 -2q-42 33 -84 33h-22q-40 0 -66 -30t-26 -74v-72q0 -37 20 -59.5t55 -22.5h170q17 0 17 -16v-19q0 -18 -17 -18zM2200 903
h290q155 0 240.5 -85.5t85.5 -239.5v-232q0 -165 -84.5 -255.5t-241.5 -90.5h-501q-158 0 -244 93.5t-86 264.5v476h-270q-127 0 -197 -73.5t-70 -207.5v-680q0 -148 -91.5 -228.5t-258.5 -80.5h-213q-185 0 -288 106t-103 293q0 203 129 381q15 15 31 6l18 -12q14 -8 4 -31
q-114 -169 -114 -340q0 -160 85.5 -249t237.5 -89h213q134 0 208.5 64.5t74.5 179.5v680q0 165 87 256.5t247 91.5h309q20 0 20 -20v-379l94 147q95 136 183.5 195t204.5 59zM2748 346v232q0 123 -68 191.5t-190 68.5h-297q-103 0 -183.5 -54.5t-160.5 -177.5l-125 -194v-54
q0 -139 68 -214.5t190 -75.5h508q123 0 190.5 72.5t67.5 205.5z" />
    <glyph glyph-name="uniFEBCFE8A" unicode="&#xfebc;&#xfe8a;" horiz-adv-x="3063" 
d="M1640 1096h-358q-16 0 -16 18v19q0 16 16 16h88q-27 27 -27 80v74q0 67 39.5 111t104.5 44h24q60 0 119 -47q13 -9 2 -20l-12 -15q-10 -16 -27 -2q-42 33 -84 33h-22q-40 0 -66 -30t-26 -74v-72q0 -37 20 -59.5t55 -22.5h170q17 0 17 -16v-19q0 -18 -17 -18zM3064 68
q18 0 18 -19v-31q0 -18 -18 -18q-123 0 -188 41t-91 137q-70 -178 -295 -178h-501q-158 0 -244 93.5t-86 264.5v476h-270q-127 0 -197 -73.5t-70 -207.5v-680q0 -148 -91.5 -228.5t-258.5 -80.5h-213q-185 0 -288 106t-103 293q0 203 129 381q15 15 31 6l18 -12q14 -8 4 -31
q-114 -169 -114 -340q0 -160 85.5 -249t237.5 -89h213q134 0 208.5 64.5t74.5 179.5v680q0 165 87 256.5t247 91.5h309q20 0 20 -20v-379l94 147q95 136 183.5 195t204.5 59h290q155 0 240.5 -85.5t85.5 -239.5v-230h2q0 -155 55.5 -217.5t190.5 -62.5zM2748 346v232
q0 123 -68 191.5t-190 68.5h-297q-103 0 -183.5 -54.5t-160.5 -177.5l-125 -194v-54q0 -139 68 -214.5t190 -75.5h508q123 0 190.5 72.5t67.5 205.5z" />
    <glyph glyph-name="uniFEBFFE8A" unicode="&#xfebf;&#xfe8a;" horiz-adv-x="2969" 
d="M1640 1096h-358q-16 0 -16 18v19q0 16 16 16h88q-27 27 -27 80v74q0 67 39.5 111t104.5 44h24q60 0 119 -47q13 -9 2 -20l-12 -15q-10 -16 -27 -2q-42 33 -84 33h-22q-40 0 -66 -30t-26 -74v-72q0 -37 20 -59.5t55 -22.5h170q17 0 17 -16v-19q0 -18 -17 -18zM2365 1098
h-41q-16 0 -16 18v109q0 16 16 16h41q19 0 19 -16v-109q0 -18 -19 -18zM2200 903h290q155 0 240.5 -85.5t85.5 -239.5v-232q0 -165 -84.5 -255.5t-241.5 -90.5h-501q-158 0 -244 93.5t-86 264.5v476h-270q-127 0 -197 -73.5t-70 -207.5v-680q0 -148 -91.5 -228.5
t-258.5 -80.5h-213q-185 0 -288 106t-103 293q0 203 129 381q15 15 31 6l18 -12q14 -8 4 -31q-114 -169 -114 -340q0 -160 85.5 -249t237.5 -89h213q134 0 208.5 64.5t74.5 179.5v680q0 165 87 256.5t247 91.5h309q20 0 20 -20v-379l94 147q95 136 183.5 195t204.5 59z
M2748 346v232q0 123 -68 191.5t-190 68.5h-297q-103 0 -183.5 -54.5t-160.5 -177.5l-125 -194v-54q0 -139 68 -214.5t190 -75.5h508q123 0 190.5 72.5t67.5 205.5z" />
    <glyph glyph-name="uniFEC0FE8A" unicode="&#xfec0;&#xfe8a;" horiz-adv-x="3063" 
d="M1640 1096h-358q-16 0 -16 18v19q0 16 16 16h88q-27 27 -27 80v74q0 67 39.5 111t104.5 44h24q60 0 119 -47q13 -9 2 -20l-12 -15q-10 -16 -27 -2q-42 33 -84 33h-22q-40 0 -66 -30t-26 -74v-72q0 -37 20 -59.5t55 -22.5h170q17 0 17 -16v-19q0 -18 -17 -18zM2365 1098
h-41q-16 0 -16 18v109q0 16 16 16h41q19 0 19 -16v-109q0 -18 -19 -18zM3064 68q18 0 18 -19v-31q0 -18 -18 -18q-123 0 -188 41t-91 137q-70 -178 -295 -178h-501q-158 0 -244 93.5t-86 264.5v476h-270q-127 0 -197 -73.5t-70 -207.5v-680q0 -148 -91.5 -228.5
t-258.5 -80.5h-213q-185 0 -288 106t-103 293q0 203 129 381q15 15 31 6l18 -12q14 -8 4 -31q-114 -169 -114 -340q0 -160 85.5 -249t237.5 -89h213q134 0 208.5 64.5t74.5 179.5v680q0 165 87 256.5t247 91.5h309q20 0 20 -20v-379l94 147q95 136 183.5 195t204.5 59h290
q155 0 240.5 -85.5t85.5 -239.5v-230h2q0 -155 55.5 -217.5t190.5 -62.5zM2748 346v232q0 123 -68 191.5t-190 68.5h-297q-103 0 -183.5 -54.5t-160.5 -177.5l-125 -194v-54q0 -139 68 -214.5t190 -75.5h508q123 0 190.5 72.5t67.5 205.5z" />
    <glyph glyph-name="uniFEE8FE8A" unicode="&#xfee8;&#xfe8a;" horiz-adv-x="2076" 
d="M1808 1198h-41q-16 0 -16 19v108q0 16 16 16h41q19 0 19 -16v-108q0 -19 -19 -19zM840 768h-359q-16 0 -16 18v19q0 16 16 16h88q-26 26 -26 80v74q0 67 39 111t104 44h25q59 0 118 -47q13 -9 2 -20l-12 -14q-9 -15 -26 -2q-40 32 -84 32h-23q-40 0 -66 -30t-26 -74v-72
q0 -37 20.5 -59.5t55.5 -22.5h170q16 0 16 -16v-19q0 -18 -16 -18zM2068 68h9q16 0 16 -19v-31q0 -18 -16 -18h-9q-164 0 -240.5 71.5t-76.5 221.5v541h-362q-127 0 -197 -73.5t-70 -207.5v-680q0 -148 -91.5 -228.5t-258.5 -80.5h-213q-185 0 -288 106t-103 293
q0 203 129 381q15 15 31 6l18 -12q14 -8 4 -31q-114 -169 -114 -340q0 -160 85.5 -249t237.5 -89h213q134 0 208.5 64.5t74.5 179.5v680q0 165 87 256.5t247 91.5h362v82q0 23 21 23h26q21 0 21 -23v-690q0 -117 60 -171t189 -54z" />
    <glyph glyph-name="uniFBE9FEAE" unicode="&#x649;&#xfeae;" horiz-adv-x="1300" 
d="M1292 68h8q17 0 17 -19v-31q0 -18 -17 -18h-8q-164 0 -240.5 71.5t-76.5 221.5v541h-516v-945q0 -331 -307 -331h-11q-137 0 -221 84q-16 13 -4 28l16 19q10 13 27 0q67 -64 182 -64h11q239 0 239 264v992q0 20 21 20h563v82q0 23 20 23h27q20 0 20 -23v-690
q0 -117 60.5 -171t189.5 -54z" />
    <glyph glyph-name="uniFBE9FEB0" unicode="&#x649;&#xfeb0;" horiz-adv-x="1300" 
d="M446 1094h-40q-17 0 -17 18v109q0 16 17 16h40q19 0 19 -16v-109q0 -18 -19 -18zM1292 68h8q17 0 17 -19v-31q0 -18 -17 -18h-8q-164 0 -240.5 71.5t-76.5 221.5v541h-516v-945q0 -331 -307 -331h-11q-137 0 -221 84q-16 13 -4 28l16 19q10 13 27 0q67 -64 182 -64h11
q239 0 239 264v992q0 20 21 20h563v82q0 23 20 23h27q20 0 20 -23v-690q0 -117 60.5 -171t189.5 -54z" />
    <glyph glyph-name="uniFBE9FEE6" unicode="&#x649;&#xfee6;" horiz-adv-x="1959" 
d="M1952 68h8q18 0 18 -19v-31q0 -18 -18 -18h-8q-163 0 -239.5 71.5t-76.5 221.5v409h-514v-829q0 -148 -91.5 -228.5t-258.5 -80.5h-213q-185 0 -288 106.5t-103 292.5q0 203 129 381q15 15 31 6l18 -12q14 -12 4 -29q-114 -173 -114 -340q0 -161 85.5 -250.5t237.5 -89.5
h213q134 0 208.5 64.5t74.5 179.5v846v2v2v25q0 20 20 20h561v84q0 20 19 20h28q19 0 19 -20v-559q0 -117 60.5 -171t189.5 -54zM676 678h-41q-17 0 -17 18v109q0 16 17 16h41q18 0 18 -16v-109q0 -18 -18 -18z" />
    <glyph glyph-name="uniFBE9FB9F" unicode="&#x649;&#xfb9f;" horiz-adv-x="1959" 
d="M1952 68h8q18 0 18 -19v-31q0 -18 -18 -18h-8q-163 0 -239.5 71.5t-76.5 221.5v409h-514v-829q0 -148 -91.5 -228.5t-258.5 -80.5h-213q-185 0 -288 106.5t-103 292.5q0 203 129 381q15 15 31 6l18 -12q14 -12 4 -29q-114 -173 -114 -340q0 -161 85.5 -250.5t237.5 -89.5
h213q134 0 208.5 64.5t74.5 179.5v846v2v2v25q0 20 20 20h561v84q0 20 19 20h28q19 0 19 -20v-559q0 -117 60.5 -171t189.5 -54z" />
    <glyph glyph-name="uniFE8CFE8A" unicode="&#xfe8c;&#xfe8a;" horiz-adv-x="2076" 
d="M1970 1200h-358q-17 0 -17 19v18q0 16 17 16h88q-27 27 -27 80v74q0 67 39.5 111.5t104.5 44.5h24q60 0 119 -47q13 -10 2 -21l-12 -14q-10 -16 -27 -2q-40 32 -84 32h-22q-41 0 -67 -30t-26 -74v-72q0 -37 20.5 -59.5t55.5 -22.5h170q17 0 17 -16v-18q0 -19 -17 -19z
M840 768h-359q-16 0 -16 18v19q0 16 16 16h88q-26 26 -26 80v74q0 67 39 111t104 44h25q59 0 118 -47q13 -9 2 -20l-12 -14q-9 -15 -26 -2q-40 32 -84 32h-23q-40 0 -66 -30t-26 -74v-72q0 -37 20.5 -59.5t55.5 -22.5h170q16 0 16 -16v-19q0 -18 -16 -18zM2068 68h9
q16 0 16 -19v-31q0 -18 -16 -18h-9q-164 0 -240.5 71.5t-76.5 221.5v541h-362q-127 0 -197 -73.5t-70 -207.5v-680q0 -148 -91.5 -228.5t-258.5 -80.5h-213q-185 0 -288 106t-103 293q0 203 129 381q15 15 31 6l18 -12q14 -8 4 -31q-114 -169 -114 -340q0 -160 85.5 -249
t237.5 -89h213q134 0 208.5 64.5t74.5 179.5v680q0 165 87 256.5t247 91.5h362v82q0 23 21 23h26q21 0 21 -23v-690q0 -117 60 -171t189 -54z" />
    <glyph glyph-name="uni066E.init" unicode="&#x66e;" horiz-adv-x="577" 
d="M72 0h-72q-18 0 -18 18v31q0 19 18 19h74q128 0 188 54t60 171v588q0 20 18 20h29q18 0 18 -20v-588q0 -150 -76 -221.5t-239 -71.5z" />
    <glyph glyph-name="uni066E.medi" unicode="&#x66e;" horiz-adv-x="667" 
d="M633 68h35q18 0 18 -19v-31q0 -18 -18 -18h-35q-215 0 -268 152q-62 -152 -293 -152h-72q-18 0 -18 18v31q0 19 18 19h74q128 0 188 54t60 171v588q0 20 18 20h29q18 0 18 -20v-533q0 -153 56 -216.5t190 -63.5z" />
    <glyph glyph-name="uni066E.fina" unicode="&#x66e;" horiz-adv-x="1544" 
d="M1544 68q19 0 19 -19v-31q0 -18 -19 -18q-113 0 -177 35.5t-93 114.5q-58 -150 -291 -150h-483q-158 0 -245 93t-87 261v176q0 144 84 222q14 14 29 2l20 -19q12 -12 0 -28q-65 -65 -65 -183v-172q0 -133 70.5 -208.5t193.5 -75.5h483q128 0 188 54t60 171v588
q0 20 20 20h27q20 0 20 -20v-533q0 -155 55.5 -217.5t190.5 -62.5z" />
    <glyph glyph-name="uni066F.fina" unicode="&#x66f;" horiz-adv-x="1462" 
d="M1266 68h196q19 0 19 -19v-31q0 -18 -19 -18h-198v-133q0 -148 -90.5 -228.5t-260.5 -80.5h-354q-183 0 -287 107.5t-104 291.5q0 197 129 381q15 15 31 6l18 -12q14 -12 4 -29q-114 -163 -114 -340q0 -160 85 -249t238 -89h354q134 0 208.5 63.5t74.5 178.5v133h-285
q-146 0 -230.5 91t-84.5 247v256q0 152 87 240t237 88h20q152 0 239 -87t87 -241v-526zM922 68h274v317q0 6 2 8v201q0 123 -69 191.5t-191 68.5h-16q-122 0 -191 -68.5t-69 -191.5v-242q0 -134 68.5 -209t191.5 -75z" />
    <glyph glyph-name="uni06A1.init" unicode="&#x6a1;" horiz-adv-x="1071" 
d="M502 922h63q154 0 241 -87t87 -241v-244q0 -164 -87.5 -257t-240.5 -93h-565q-18 0 -18 18v31q0 19 18 19h293l-121 526q0 150 88 239t242 89zM825 350v244q0 122 -69.5 191t-190.5 69h-63q-124 0 -194 -70.5t-70 -193.5l116 -522h211q122 0 191 74.5t69 207.5z" />
    <glyph glyph-name="uni06A1.medi" unicode="&#x6a1;" horiz-adv-x="1138" 
d="M1139 68q18 0 18 -19v-31q0 -18 -18 -18q-123 0 -188 41t-91 137q-76 -178 -295 -178h-565q-18 0 -18 18v31q0 19 18 19h293l-121 526q0 150 88 239t242 89h63q154 0 241 -87t87 -241v-244v-2q0 -155 55.5 -217.5t190.5 -62.5zM825 350v244q0 122 -69.5 191t-190.5 69
h-63q-124 0 -194 -70.5t-70 -193.5l116 -522h211q122 0 191 74.5t69 207.5z" />
    <glyph glyph-name="uni06A1.fina" unicode="&#x6a1;" horiz-adv-x="1933" 
d="M1933 68q19 0 19 -19v-31q0 -18 -19 -18q-122 0 -187 41t-91 137q-76 -178 -295 -178h-860q-158 0 -245 93t-87 261v176q0 144 84 222q14 14 29 2l20 -19q12 -12 0 -28q-65 -65 -65 -183v-172q0 -133 70.5 -208.5t193.5 -75.5h587l-120 526q0 151 87.5 239.5t241.5 88.5
h64q154 0 241 -87t87 -241v-244v-2q0 -155 55 -217.5t190 -62.5zM1620 350v244q0 122 -69 191t-191 69h-64q-124 0 -194 -70.5t-70 -193.5l117 -522h211q122 0 191 74.5t69 207.5z" />
    <glyph glyph-name="uni06C2.fina" unicode="&#x6c2;" horiz-adv-x="1099" 
d="M678 1116h-359q-16 0 -16 19v18q0 16 16 16h89q-27 27 -27 80v74q0 67 39 111.5t104 44.5h25q60 0 119 -47q13 -10 2 -21l-13 -14q-9 -15 -26 -2q-40 32 -84 32h-23q-40 0 -66 -30t-26 -74v-72q0 -37 20.5 -59.5t55.5 -22.5h170q16 0 16 -16v-18q0 -19 -16 -19zM1077 68
h23q18 0 18 -19v-31q0 -18 -18 -18h-33q-307 0 -307 279v313q0 124 -68 193t-190 69h-13q-118 0 -183.5 -69t-67.5 -193l-2 -334q0 -20 -21 -20h-27q-20 0 -20 20l4 332q0 156 82.5 244t234.5 88h11q157 0 241 -86.5t84 -243.5v-297q0 -227 252 -227z" />
    <glyph glyph-name="uni06C3.fina" unicode="&#x6c3;" horiz-adv-x="1099" 
d="M385 1114h-39q-16 0 -16 19v106q0 18 16 18h39q18 0 18 -18v-106q0 -19 -18 -19zM643 1114h-39q-18 0 -18 19v106q0 18 18 18h39q19 0 19 -18v-106q0 -19 -19 -19zM1100 0h-33q-307 0 -307 279v313q0 124 -68 193t-190 69h-13q-118 0 -183.5 -69t-67.5 -193l-2 -334
q0 -20 -21 -20h-27q-20 0 -20 20l4 332q0 156 82.5 244t234.5 88h11q157 0 241 -86.5t84 -243.5v-297q0 -227 252 -227h23q18 0 18 -19v-31q0 -18 -18 -18z" />
    <glyph glyph-name="uniFB51" unicode="&#x671;" horiz-adv-x="626" arabic-form="final" 
d="M416 1567v-49q0 -41 -25.5 -67t-64.5 -26h-273q-16 0 -16 17v14q0 17 16 17h80v90q0 43 24.5 69.5t65.5 26.5h103q41 0 65.5 -25.5t24.5 -66.5zM176 1563v-90h148q45 0 45 47v43q0 47 -47 47h-97q-49 0 -49 -47zM565 68h62q18 0 18 -19v-31q0 -18 -18 -18h-68
q-160 0 -233.5 79t-73.5 249v833h-109q-22 0 -22 23v24q0 21 22 21h156q20 0 20 -21v-880q0 -139 57.5 -199.5t188.5 -60.5z" />
    <glyph glyph-name="uniFB57" unicode="&#x67e;" horiz-adv-x="1544" arabic-form="final" 
d="M1544 68q19 0 19 -19v-31q0 -18 -19 -18q-113 0 -177 35.5t-93 114.5q-58 -150 -291 -150h-483q-158 0 -245 93t-87 261v176q0 144 84 222q14 14 29 2l20 -19q12 -12 0 -28q-65 -65 -65 -183v-172q0 -133 70.5 -208.5t193.5 -75.5h483q128 0 188 54t60 171v588
q0 20 20 20h27q20 0 20 -20v-533q0 -155 55.5 -217.5t190.5 -62.5zM627 -193h39q16 0 16 -16v-108q0 -19 -16 -19h-39q-19 0 -19 19v108q0 16 19 16zM885 -193h39q16 0 16 -16v-108q0 -19 -16 -19h-39q-19 0 -19 19v108q0 16 19 16zM756 -414h37q16 0 16 -16v-105
q0 -14 -16 -14h-37q-17 0 -17 14v105q0 16 17 16z" />
    <glyph glyph-name="uniFB58" unicode="&#x67e;" horiz-adv-x="632" arabic-form="initial" 
d="M127 0h-127q-18 0 -18 18v31q0 19 18 19h127q128 0 188 54t60 171v588q0 20 20 20h27q20 0 20 -20v-588q0 -150 -76 -221.5t-239 -71.5zM115 -336h-39q-19 0 -19 19v108q0 16 19 16h39q16 0 16 -16v-108q0 -19 -16 -19zM373 -336h-39q-19 0 -19 19v108q0 16 19 16h39
q16 0 16 -16v-108q0 -19 -16 -19zM242 -549h-37q-17 0 -17 14v105q0 16 17 16h37q16 0 16 -16v-105q0 -14 -16 -14z" />
    <glyph glyph-name="uniFB59" unicode="&#x67e;" horiz-adv-x="722" arabic-form="medial" 
d="M688 68h35q18 0 18 -19v-31q0 -18 -18 -18h-35q-215 0 -268 152q-62 -152 -293 -152h-127q-18 0 -18 18v31q0 19 18 19h127q128 0 188 54t60 171v588q0 20 20 20h27q20 0 20 -20v-533q0 -153 56 -216.5t190 -63.5zM252 -193h39q16 0 16 -16v-108q0 -19 -16 -19h-39
q-19 0 -19 19v108q0 16 19 16zM510 -193h39q16 0 16 -16v-108q0 -19 -16 -19h-39q-18 0 -18 19v108q0 16 18 16zM381 -414h37q16 0 16 -16v-105q0 -14 -16 -14h-37q-16 0 -16 14v105q0 16 16 16z" />
    <glyph glyph-name="uniFB67" unicode="&#x679;" horiz-adv-x="1544" arabic-form="final" 
d="M846 1100h-275q-16 0 -16 16v12q0 19 16 19h80v276q0 15 17 15h12q14 0 14 -15v-102q21 12 49 12h103q41 0 65.5 -25.5t24.5 -66.5v-49q0 -41 -25.5 -66.5t-64.5 -25.5zM694 1237v-90h148q47 0 47 45v45q0 47 -47 47h-99q-49 0 -49 -47zM1544 68q19 0 19 -19v-31
q0 -18 -19 -18q-113 0 -177 35.5t-93 114.5q-58 -150 -291 -150h-483q-158 0 -245 93t-87 261v176q0 144 84 222q14 14 29 2l20 -19q12 -12 0 -28q-65 -65 -65 -183v-172q0 -133 70.5 -208.5t193.5 -75.5h483q128 0 188 54t60 171v588q0 20 20 20h27q20 0 20 -20v-533
q0 -155 55.5 -217.5t190.5 -62.5z" />
    <glyph glyph-name="uniFB68" unicode="&#x679;" horiz-adv-x="577" arabic-form="initial" 
d="M354 1333h103q41 0 65.5 -25.5t24.5 -66.5v-49q0 -41 -25.5 -66.5t-64.5 -25.5h-275q-16 0 -16 16v12q0 19 16 19h80v276q0 15 17 15h12q14 0 14 -15v-102q21 12 49 12zM500 1192v45q0 47 -47 47h-99q-49 0 -49 -47v-90h148q47 0 47 45zM340 901h29q18 0 18 -20v-588
q0 -150 -76 -221.5t-239 -71.5h-72q-18 0 -18 18v31q0 19 18 19h74q128 0 188 54t60 171v588q0 20 18 20z" />
    <glyph glyph-name="uniFB69" unicode="&#x679;" horiz-adv-x="667" arabic-form="medial" 
d="M457 1100h-275q-16 0 -16 16v12q0 19 16 19h80v276q0 15 17 15h12q14 0 14 -15v-102q21 12 49 12h103q41 0 65.5 -25.5t24.5 -66.5v-49q0 -41 -25.5 -66.5t-64.5 -25.5zM305 1237v-90h148q47 0 47 45v45q0 47 -47 47h-99q-49 0 -49 -47zM633 68h35q18 0 18 -19v-31
q0 -18 -18 -18h-35q-215 0 -268 152q-62 -152 -293 -152h-72q-18 0 -18 18v31q0 19 18 19h74q128 0 188 54t60 171v588q0 20 18 20h29q18 0 18 -20v-533q0 -153 56 -216.5t190 -63.5z" />
    <glyph glyph-name="uniFB6B" unicode="&#x6a4;" horiz-adv-x="1933" arabic-form="final" 
d="M1335 1335h-37q-16 0 -16 17v102q0 16 16 16h37q17 0 17 -16v-102q0 -17 -17 -17zM1208 1114h-39q-18 0 -18 16v109q0 18 18 18h39q17 0 17 -18v-109q0 -16 -17 -16zM1466 1114h-39q-18 0 -18 16v109q0 18 18 18h39q17 0 17 -18v-109q0 -16 -17 -16zM1933 68q19 0 19 -19
v-31q0 -18 -19 -18q-123 0 -188 41t-90 137q-76 -178 -295 -178h-860q-158 0 -245 93t-87 261v176q0 144 84 222q14 14 29 2l20 -19q12 -12 0 -28q-65 -65 -65 -183v-172q0 -133 70.5 -208.5t193.5 -75.5h585l-118 526q0 151 87.5 239.5t241.5 88.5h64q153 0 239.5 -86.5
t86.5 -241.5v-244v-2q0 -154 56 -217t191 -63zM1620 350v244q0 122 -69 191t-191 69h-64q-124 0 -194 -70.5t-70 -193.5l117 -522h211q122 0 191 74.5t69 207.5z" />
    <glyph glyph-name="uniFB6C" unicode="&#x6a4;" horiz-adv-x="1071" arabic-form="initial" 
d="M545 1335h-37q-16 0 -16 17v102q0 16 16 16h37q16 0 16 -16v-102q0 -17 -16 -17zM418 1114h-39q-19 0 -19 16v109q0 18 19 18h39q16 0 16 -18v-109q0 -16 -16 -16zM676 1114h-39q-19 0 -19 16v109q0 18 19 18h39q16 0 16 -18v-109q0 -16 -16 -16zM502 922h63
q154 0 241 -87t87 -241v-244q0 -164 -87.5 -257t-240.5 -93h-565q-18 0 -18 18v31q0 19 18 19h293l-121 526q0 150 88 239t242 89zM825 350v244q0 122 -69.5 191t-190.5 69h-63q-124 0 -194 -70.5t-70 -193.5l116 -522h211q122 0 191 74.5t69 207.5z" />
    <glyph glyph-name="uniFB6D" unicode="&#x6a4;" horiz-adv-x="1138" arabic-form="medial" 
d="M545 1335h-37q-16 0 -16 17v102q0 16 16 16h37q16 0 16 -16v-102q0 -17 -16 -17zM418 1114h-39q-19 0 -19 16v109q0 18 19 18h39q16 0 16 -18v-109q0 -16 -16 -16zM676 1114h-39q-19 0 -19 16v109q0 18 19 18h39q16 0 16 -18v-109q0 -16 -16 -16zM1139 68q18 0 18 -19
v-31q0 -18 -18 -18q-122 0 -187.5 41t-91.5 135q-80 -176 -295 -176h-565q-18 0 -18 18v31q0 19 18 19h293l-121 526q0 150 88 239t242 89h63q154 0 241 -87t87 -241v-244v-2q0 -155 55.5 -217.5t190.5 -62.5zM825 350v244q0 122 -69.5 191t-190.5 69h-63q-124 0 -194 -70.5
t-70 -193.5l116 -522h211q122 0 191 74.5t69 207.5z" />
    <glyph glyph-name="uniFB7B" unicode="&#x686;" horiz-adv-x="1198" arabic-form="final" 
d="M1059 68h139q19 0 19 -19v-31q0 -18 -19 -18h-688q-136 0 -220.5 -73t-84.5 -199v-31q0 -117 88 -193q15 -12 6 -24l-14 -23q-10 -16 -27 -6q-119 88 -119 240v45q0 151 103.5 241.5t269.5 90.5h379q-115 77 -115 284v244q0 123 -69 191.5t-191 68.5h-49q-110 0 -186 -76
q-15 -15 -27 0l-21 21q-13 13 5 28q95 95 225 95h55q154 0 240 -87t86 -241v-248q0 -143 50 -211.5t165 -68.5zM504 -209h39q16 0 16 -16v-107q0 -16 -16 -16h-39q-17 0 -17 16v107q0 16 17 16zM756 -209h37q16 0 16 -16v-107q0 -16 -16 -16h-37q-19 0 -19 16v107
q0 16 19 16zM631 -426h35q16 0 16 -14v-103q0 -14 -16 -14h-35q-17 0 -17 14v103q0 14 17 14z" />
    <glyph glyph-name="uniFB7C" unicode="&#x686;" horiz-adv-x="1155" arabic-form="initial" 
d="M1042 68q17 0 17 -19v-31q0 -18 -17 -18h-1042q-18 0 -18 18v31q0 19 18 19h874q-114 77 -114 284v244q0 123 -69.5 191.5t-192.5 68.5h-49q-109 0 -185 -76q-16 -16 -26 0l-21 21q-12 14 2 28q100 95 225 95h58q153 0 238 -87t85 -241v-248q0 -142 51 -211t166 -69z
M365 -193h38q17 0 17 -16v-108q0 -19 -17 -19h-38q-19 0 -19 19v108q0 16 19 16zM623 -193h39q16 0 16 -16v-108q0 -19 -16 -19h-39q-19 0 -19 19v108q0 16 19 16zM494 -414h36q17 0 17 -16v-105q0 -14 -17 -14h-36q-17 0 -17 14v105q0 16 17 16z" />
    <glyph glyph-name="uniFB7D" unicode="&#x686;" horiz-adv-x="1179" arabic-form="medial" 
d="M1042 68h138q16 0 16 -19v-31q0 -18 -16 -18h-1180q-18 0 -18 18v31q0 19 18 19h874q-114 77 -114 284v244q0 123 -69.5 191.5t-192.5 68.5h-49q-109 0 -185 -76q-16 -16 -26 0l-21 21q-12 14 2 28q100 95 225 95h58q153 0 238 -87t85 -241v-248q0 -142 51 -211t166 -69z
M367 -193h39q16 0 16 -16v-108q0 -19 -16 -19h-39q-19 0 -19 19v108q0 16 19 16zM625 -193h39q16 0 16 -16v-108q0 -19 -16 -19h-39q-19 0 -19 19v108q0 16 19 16zM496 -414h36q17 0 17 -16v-105q0 -14 -17 -14h-36q-17 0 -17 14v105q0 16 17 16z" />
    <glyph glyph-name="uniFB89" unicode="&#x688;" horiz-adv-x="1130" arabic-form="final" 
d="M600 1157h-274q-17 0 -17 17v12q0 18 17 18h80v277q0 14 16 14h12q15 0 15 -14v-103q23 13 49 13h102q41 0 65.5 -25.5t24.5 -67.5v-49q0 -41 -25.5 -66.5t-64.5 -25.5zM449 1294v-90h147q47 0 47 45v45q0 47 -47 47h-98q-49 0 -49 -47zM1130 68q19 0 19 -19v-31
q0 -18 -19 -18q-106 0 -170.5 44.5t-101.5 143.5q-36 -89 -122.5 -138.5t-209.5 -49.5h-198q-123 0 -224 90q-14 12 -4 29l19 22q9 9 28 0q73 -73 183 -73h190q146 0 224.5 86t58.5 223l-41 270q-19 115 -88 179.5t-172 64.5h-37q-23 0 -23 20v25q0 20 23 20h37
q134 0 219.5 -77.5t105.5 -214.5l37 -236l15 -80q25 -152 82.5 -216t168.5 -64z" />
    <glyph glyph-name="uniFB8B" unicode="&#x698;" horiz-adv-x="704" arabic-form="final" 
d="M444 1315h-36q-17 0 -17 16v103q0 16 17 16h36q17 0 17 -16v-103q0 -16 -17 -16zM317 1094h-38q-19 0 -19 16v109q0 18 19 18h38q17 0 17 -18v-109q0 -16 -17 -16zM575 1094h-38q-19 0 -19 16v109q0 18 19 18h38q17 0 17 -18v-109q0 -16 -17 -16zM705 68q18 0 18 -19v-31
q0 -18 -18 -18q-183 0 -246 100v-211q0 -331 -307 -331h-11q-137 0 -221 84q-16 13 -4 28l16 19q10 13 27 0q67 -64 182 -64h11q239 0 239 264v992q0 20 21 20h26q21 0 21 -20v-533q0 -155 55.5 -217.5t190.5 -62.5z" />
    <glyph glyph-name="uniFB8D" unicode="&#x691;" horiz-adv-x="704" arabic-form="final" 
d="M526 1100h-274q-16 0 -16 16v12q0 19 16 19h80v276q0 15 16 15h12q15 0 15 -15v-102q21 12 49 12h102q41 0 65.5 -25.5t24.5 -66.5v-49q0 -41 -25.5 -66.5t-64.5 -25.5zM375 1237v-90h147q47 0 47 45v45q0 47 -47 47h-98q-49 0 -49 -47zM705 68q18 0 18 -19v-31
q0 -18 -18 -18q-183 0 -246 100v-211q0 -331 -307 -331h-11q-137 0 -221 84q-16 13 -4 28l16 19q10 13 27 0q67 -64 182 -64h11q239 0 239 264v992q0 20 21 20h26q21 0 21 -20v-533q0 -155 55.5 -217.5t190.5 -62.5z" />
    <glyph glyph-name="uniFB8F" unicode="&#x6a9;" horiz-adv-x="1673" arabic-form="final" 
d="M1673 68q19 0 19 -19v-31q0 -18 -19 -18q-116 0 -180 36.5t-90 117.5q-56 -154 -291 -154h-612q-158 0 -245 93t-87 261v176q0 144 84 222q14 14 29 2l20 -19q12 -12 0 -28q-65 -65 -65 -183v-172q0 -133 70.5 -208.5t193.5 -75.5h612q128 0 187 53t59 168v430l-658 125
q-17 3 -22 22l-31 117q-6 21 12 33l758 538q7 6 16 2t9 -12v-41q0 -13 -15 -22l-706 -500l16 -76l666 -127q20 -6 20 -24v-406h4q0 -155 55.5 -217.5t190.5 -62.5z" />
    <glyph glyph-name="uniFB90" unicode="&#x6a9;" horiz-adv-x="1136" arabic-form="initial" 
d="M164 1016l758 538q8 6 16 2t8 -12v-41q0 -14 -14 -22l-707 -500l17 -76l665 -127q21 -6 21 -24v-465q0 -149 -74.5 -219t-237.5 -70h-616q-18 0 -18 20v25q0 23 18 23h616q128 0 187 53t59 168v430l-657 125q-18 4 -23 22l-30 117q-6 21 12 33z" />
    <glyph glyph-name="uniFB91" unicode="&#x6a9;" horiz-adv-x="1175" arabic-form="medial" 
d="M1176 68q18 0 18 -19v-31q0 -18 -18 -18q-113 0 -178 35.5t-91 114.5q-59 -150 -291 -150h-616q-18 0 -18 20v25q0 23 18 23h616q128 0 187 53t59 168v430l-657 125q-18 4 -23 22l-30 117q-6 21 12 33l758 538q8 6 16 2t8 -12v-41q0 -14 -14 -22l-707 -500l17 -76
l665 -127q21 -6 21 -24v-406h2q0 -155 55.5 -217.5t190.5 -62.5z" />
    <glyph glyph-name="uniFB93" unicode="&#x6af;" horiz-adv-x="1673" arabic-form="final" 
d="M1335 1692l-747 -516q-17 -10 -17 6v22q0 12 11 19l747 516q17 10 17 -4v-23q0 -13 -11 -20zM1673 68q19 0 19 -19v-31q0 -18 -19 -18q-116 0 -180 36.5t-90 117.5q-56 -154 -291 -154h-612q-158 0 -245 93t-87 261v176q0 144 84 222q14 14 29 2l20 -19q12 -12 0 -28
q-65 -65 -65 -183v-172q0 -133 70.5 -208.5t193.5 -75.5h612q128 0 187 53t59 168v430l-658 125q-17 3 -22 22l-31 117q-6 21 12 33l758 538q7 6 16 2t9 -12v-41q0 -13 -15 -22l-706 -500l16 -76l666 -127q20 -6 20 -24v-406h4q0 -155 55.5 -217.5t190.5 -62.5z" />
    <glyph glyph-name="uniFB94" unicode="&#x6af;" horiz-adv-x="1136" arabic-form="initial" 
d="M840 1692l-748 -516q-16 -10 -16 6v22q0 12 10 19l748 516q16 10 16 -4v-23q0 -13 -10 -20zM164 1016l758 538q8 6 16 2t8 -12v-41q0 -14 -14 -22l-707 -500l17 -76l665 -127q21 -6 21 -24v-465q0 -149 -74.5 -219t-237.5 -70h-616q-18 0 -18 20v25q0 23 18 23h616
q128 0 187 53t59 168v430l-657 125q-18 4 -23 22l-30 117q-6 21 12 33z" />
    <glyph glyph-name="uniFB95" unicode="&#x6af;" horiz-adv-x="1175" arabic-form="medial" 
d="M840 1692l-748 -516q-16 -10 -16 6v22q0 12 10 19l748 516q16 10 16 -4v-23q0 -13 -10 -20zM1176 68q18 0 18 -19v-31q0 -18 -18 -18q-113 0 -178 35.5t-91 114.5q-59 -150 -291 -150h-616q-18 0 -18 20v25q0 23 18 23h616q128 0 187 53t59 168v430l-657 125
q-18 4 -23 22l-30 117q-6 21 12 33l758 538q8 6 16 2t8 -12v-41q0 -14 -14 -22l-707 -500l17 -76l665 -127q21 -6 21 -24v-406h2q0 -155 55.5 -217.5t190.5 -62.5z" />
    <glyph glyph-name="uniFB9F" unicode="&#x6ba;" horiz-adv-x="1368" arabic-form="final" 
d="M1368 68q18 0 18 -19v-31q0 -18 -18 -18q-183 0 -246 100v-227q0 -148 -91.5 -228.5t-258.5 -80.5h-213q-185 0 -288 106.5t-103 292.5q0 203 129 381q15 15 31 6l18 -12q14 -12 4 -29q-114 -173 -114 -340q0 -161 85.5 -250.5t237.5 -89.5h213q134 0 208.5 64.5
t74.5 179.5v846q0 20 20 20h25q22 0 22 -20v-371q0 -155 55.5 -217.5t190.5 -62.5z" />
    <glyph glyph-name="uniFBA5" unicode="&#x6c0;" horiz-adv-x="1087" arabic-form="final" 
d="M682 1145h-358q-17 0 -17 18v19q0 16 17 16h88q-27 27 -27 80v74q0 67 39 111t104 44h25q60 0 119 -47q13 -9 2 -20l-12 -15q-10 -16 -27 -2q-42 33 -84 33h-23q-40 0 -66 -30t-26 -74v-72q0 -37 20.5 -59.5t55.5 -22.5h170q16 0 16 -16v-19q0 -18 -16 -18zM1075 68h12
q17 0 17 -19v-31q0 -18 -17 -18h-20q-239 0 -285 225q-76 -166 -278 -166h-19q-147 0 -232 90t-85 246v199q0 154 86 241t240 87h14q186 0 264 -140v168q0 21 19 21h28q19 0 19 -21v-622q0 -260 237 -260zM496 127h16q124 0 192 74.5t68 208.5v184q0 123 -68.5 191.5
t-191.5 68.5h-16q-122 0 -191 -68.5t-69 -191.5v-184q0 -134 68.5 -208.5t191.5 -74.5z" />
    <glyph glyph-name="uniFBA7" unicode="&#x6c1;" horiz-adv-x="1099" arabic-form="final" 
d="M1100 0h-33q-307 0 -307 279v313q0 124 -68 193t-190 69h-13q-118 0 -183.5 -69t-67.5 -193l-2 -334q0 -20 -21 -20h-27q-20 0 -20 20l4 332q0 156 82.5 244t234.5 88h11q157 0 241 -86.5t84 -243.5v-297q0 -227 252 -227h23q18 0 18 -19v-31q0 -18 -18 -18z" />
    <glyph glyph-name="uniFBA8" unicode="&#x6c1;" horiz-adv-x="577" arabic-form="initial" 
d="M340 901h29q18 0 18 -20v-588q0 -173 -98 -240l-47 -182h18q23 0 23 -23v-124q0 -23 -23 -23h-49q-21 0 -21 23v124q0 18 7 43l32 132q-74 -23 -157 -23h-72q-18 0 -18 18v31q0 19 18 19h74q128 0 188 54t60 171v588q0 20 18 20z" />
    <glyph glyph-name="uniFBA9" unicode="&#x6c1;" horiz-adv-x="1349" arabic-form="medial" 
d="M733 68h617q18 0 18 -19v-31q0 -18 -18 -18h-185l-49 -188h19q20 0 20 -23v-125q0 -22 -20 -22h-50q-20 0 -20 22v125q0 7 4 43l43 168h-340l129 -385q8 -19 2 -29l-14 -18q-7 -10 -23 -10h-342q-150 0 -237.5 91.5t-87.5 250.5v100h-199q-18 0 -18 18v31q0 19 18 19h199
v477q0 20 22 20h25q20 0 20 -20v-645q0 -130 64 -202.5t180 -72.5h324l-136 383q-10 19 0 29l13 20q7 11 22 11z" />
    <glyph glyph-name="uniFBAB" unicode="&#x6be;" horiz-adv-x="1257" arabic-form="final" 
d="M963 68h286q19 0 19 -19v-31q0 -18 -19 -18h-299l135 -385q3 -23 0 -29l-14 -18q-7 -10 -22 -10h-330q-154 0 -240 85t-86 240v117h-61q-108 0 -185 -74q-16 -12 -28 0l-19 23q-9 15 4 28q102 91 224 91h65v526q0 156 87 244t239 84l82 -2q142 -1 224.5 -90.5
t82.5 -237.5v-240q0 -195 -145 -284zM461 594v-526h317q124 0 193 75t69 209v240q0 118 -63 186.5t-176 73.5l-84 2q-119 5 -187.5 -64t-68.5 -196zM705 -375h309l-131 375h-422v-117q0 -122 64.5 -190t179.5 -68z" />
    <glyph glyph-name="uniFBAC" unicode="&#x6be;" horiz-adv-x="1331" arabic-form="initial" 
d="M614 1171h213q160 0 251 -88.5t91 -246.5v-484q0 -170 -87 -261t-248 -91h-834q-18 0 -18 18v31q0 19 18 19h238l-101 415q0 146 88 232t236 86h47q143 0 222 -83t79 -235v-131q0 -195 -133 -284h151q275 0 275 284v484q0 127 -72 197.5t-203 70.5h-206q-107 0 -185 -72
q-16 -13 -26 0l-19 21q-12 14 2 28q96 90 221 90zM205 475l96 -407h184q123 0 190.5 71.5t67.5 202.5v133q0 258 -239 258h-43q-121 0 -188.5 -68t-67.5 -190z" />
    <glyph glyph-name="uniFBAD" unicode="&#x6be;" horiz-adv-x="1046" arabic-form="medial" 
d="M760 68h287q16 0 16 -19v-31q0 -18 -16 -18h-299l133 -385q8 -19 2 -29l-15 -18q-7 -10 -22 -10h-330q-156 0 -241 87t-85 255v100h-190q-18 0 -18 18v31q0 19 18 19h190v526q0 155 87.5 243.5t236.5 84.5l66 -2q151 -1 237 -90t86 -238v-240q0 -196 -143 -284zM258 594
v-526h315q125 0 195 75.5t70 208.5v240q0 118 -68 186.5t-190 73.5l-66 2q-119 5 -187.5 -64t-68.5 -196zM500 -375h309l-131 375h-420v-100q0 -131 63 -203t179 -72z" />
    <glyph glyph-name="uniFBAF" unicode="&#x6d2;" horiz-adv-x="1460" arabic-form="final" 
d="M147 68h1309q21 0 21 -23v-25q0 -20 -21 -20h-1261v-133q0 -260 278 -260h248q114 0 180 63q19 13 29 0l18 -18q9 -16 -4 -29q-84 -84 -223 -84h-246q-348 0 -348 332v174q0 23 20 23z" />
    <glyph glyph-name="uniFBB1" unicode="&#x6d3;" horiz-adv-x="1460" arabic-form="final" 
d="M983 299h-358q-17 0 -17 18v19q0 16 17 16h88q-27 27 -27 80v74q0 67 39 111.5t104 44.5h25q59 0 119 -48q13 -9 2 -20l-12 -14q-10 -16 -27 -2q-40 32 -84 32h-23q-40 0 -66 -30t-26 -74v-72q0 -37 20.5 -59.5t55.5 -22.5h170q16 0 16 -16v-19q0 -18 -16 -18zM147 68
h1309q21 0 21 -23v-25q0 -20 -21 -20h-1261v-133q0 -260 278 -260h248q114 0 180 63q19 13 29 0l18 -18q9 -16 -4 -29q-84 -84 -223 -84h-246q-348 0 -348 332v174q0 23 20 23z" />
    <glyph glyph-name="uniFBFD" unicode="&#x6cc;" horiz-adv-x="1959" arabic-form="final" 
d="M1724 68h236q18 0 18 -23v-25q0 -20 -18 -20h-281q-20 0 -20 20v814h-270q-127 0 -197 -73.5t-70 -207.5v-680q0 -148 -91.5 -228.5t-258.5 -80.5h-213q-185 0 -288 106t-103 293q0 203 129 381q15 15 31 6l18 -12q14 -8 4 -31q-114 -169 -114 -340q0 -160 85.5 -249
t237.5 -89h213q134 0 208.5 64.5t74.5 179.5v680q0 165 87 256.5t247 91.5h315q20 0 20 -20v-813z" />
    <glyph glyph-name="uniFBFE" unicode="&#x6cc;" horiz-adv-x="632" arabic-form="initial" 
d="M127 0h-127q-18 0 -18 18v31q0 19 18 19h127q128 0 188 54t60 171v588q0 20 20 20h27q20 0 20 -20v-588q0 -150 -76 -221.5t-239 -71.5zM115 -336h-39q-19 0 -19 19v108q0 16 19 16h39q16 0 16 -16v-108q0 -19 -16 -19zM373 -336h-39q-19 0 -19 19v108q0 16 19 16h39
q16 0 16 -16v-108q0 -19 -16 -19z" />
    <glyph glyph-name="uniFBFF" unicode="&#x6cc;" horiz-adv-x="722" arabic-form="medial" 
d="M688 68h35q18 0 18 -19v-31q0 -18 -18 -18h-35q-215 0 -268 152q-62 -152 -293 -152h-127q-18 0 -18 18v31q0 19 18 19h127q128 0 188 54t60 171v588q0 20 20 20h27q20 0 20 -20v-533q0 -153 56 -216.5t190 -63.5zM252 -193h39q16 0 16 -16v-108q0 -19 -16 -19h-39
q-19 0 -19 19v108q0 16 19 16zM510 -193h39q16 0 16 -16v-108q0 -19 -16 -19h-39q-18 0 -18 19v108q0 16 18 16z" />
    <glyph glyph-name="uniFE82" unicode="&#x622;" horiz-adv-x="626" arabic-form="final" 
d="M219 1470q-53 41 -88 41q-29 0 -46 -20t-17 -53q0 -19 -17 -19h-18q-17 0 -17 19q0 88 66.5 115.5t157.5 -37.5l18 -15q19 -17 29.5 -21.5t38.5 -9.5q25 0 41 20.5t16 55.5q0 17 18 17h19q16 0 16 -17q0 -56 -30.5 -91.5t-77.5 -35.5q-43 0 -109 51zM565 68h62
q18 0 18 -19v-31q0 -18 -18 -18h-68q-160 0 -233.5 79t-73.5 249v833h-109q-22 0 -22 23v24q0 21 22 21h156q20 0 20 -21v-880q0 -139 57.5 -199.5t188.5 -60.5z" />
    <glyph glyph-name="uniFE84" unicode="&#x623;" horiz-adv-x="626" arabic-form="final" 
d="M426 1460v-18q0 -19 -16 -19h-359q-16 0 -16 19v18q0 17 16 17h88q-26 26 -26 79v74q0 67 39 111.5t104 44.5h25q59 0 118 -47q13 -10 2 -21l-12 -14q-10 -16 -27 -2q-42 33 -83 33h-23q-40 0 -66 -30.5t-26 -74.5v-71q0 -37 20.5 -59.5t55.5 -22.5h170q16 0 16 -17z
M565 68h62q18 0 18 -19v-31q0 -18 -18 -18h-68q-160 0 -233.5 79t-73.5 249v833h-109q-22 0 -22 23v24q0 21 22 21h156q20 0 20 -21v-880q0 -139 57.5 -199.5t188.5 -60.5z" />
    <glyph glyph-name="uniFE86" unicode="&#x624;" horiz-adv-x="1038" arabic-form="final" 
d="M668 1120h-363q-16 0 -16 17v26q0 19 16 19h88q-26 33 -26 80v75q0 67 41 112.5t106 45.5h25q59 0 120 -49q9 -9 3 -21l-15 -22q-9 -9 -24 0q-45 31 -86 31h-23q-40 0 -66 -30.5t-26 -74.5v-65q0 -37 20.5 -59.5t55.5 -22.5h170q16 0 16 -19v-26q0 -17 -16 -17zM842 68
h196q19 0 19 -19v-31q0 -18 -19 -18h-198v-111q0 -158 -90.5 -244.5t-255.5 -86.5h-95q-140 0 -223 86q-13 13 -4 26l18 21q14 10 29 -2q67 -64 182 -64h93q135 0 207.5 67.5t72.5 192.5v115h-287q-146 0 -230.5 91t-84.5 247v256q0 152 87 240t237 88h20q152 0 239 -87
t87 -241v-526zM238 594v-242q0 -134 68.5 -209t191.5 -75h276v526q0 123 -69 191.5t-191 68.5h-16q-122 0 -191 -68.5t-69 -191.5z" />
    <glyph glyph-name="uniFE88" unicode="&#x625;" horiz-adv-x="626" arabic-form="final" 
d="M565 68h62q18 0 18 -19v-31q0 -18 -18 -18h-68q-159 0 -232 78.5t-73 249.5v1063h-111q-22 0 -22 22v25q0 20 22 20h158q18 0 18 -20v-1110q0 -139 57.5 -199.5t188.5 -60.5zM340 -500h168q18 0 18 -18v-19q0 -16 -18 -16h-358q-17 0 -17 16v19q0 18 17 18h88
q-27 27 -27 80v72q0 67 40 112.5t105 45.5h23q70 0 121 -48q11 -11 2 -20l-15 -16q-9 -9 -24 0q-47 30 -84 30h-23q-41 0 -67.5 -30.5t-26.5 -73.5v-70q0 -82 78 -82z" />
    <glyph glyph-name="uniFE8A" unicode="&#x626;" horiz-adv-x="1959" arabic-form="final" 
d="M1657 1096h-359q-16 0 -16 18v19q0 16 16 16h88q-26 26 -26 80v74q0 67 39 111t104 44h25q60 0 119 -47q13 -9 2 -20l-13 -15q-9 -15 -26 -2q-42 33 -84 33h-23q-40 0 -66 -30t-26 -74v-72q0 -37 20.5 -59.5t55.5 -22.5h170q16 0 16 -16v-19q0 -18 -16 -18zM1724 68h236
q18 0 18 -23v-25q0 -20 -18 -20h-281q-20 0 -20 20v814h-270q-127 0 -197 -73.5t-70 -207.5v-680q0 -148 -91.5 -228.5t-258.5 -80.5h-213q-185 0 -288 106t-103 293q0 203 129 381q15 15 31 6l18 -12q14 -8 4 -31q-114 -169 -114 -340q0 -160 85.5 -249t237.5 -89h213
q134 0 208.5 64.5t74.5 179.5v680q0 165 87 256.5t247 91.5h315q20 0 20 -20v-813z" />
    <glyph glyph-name="uniFE8B" unicode="&#x626;" horiz-adv-x="577" arabic-form="initial" 
d="M369 1149h170q16 0 16 -16v-19q0 -18 -16 -18h-359q-16 0 -16 18v19q0 16 16 16h88q-26 26 -26 80v74q0 67 39 111t104 44h25q59 0 118 -47q13 -9 2 -20l-12 -15q-9 -15 -26 -2q-42 33 -84 33h-23q-40 0 -66 -30t-26 -74v-72q0 -37 20.5 -59.5t55.5 -22.5zM340 901h29
q18 0 18 -20v-588q0 -150 -76 -221.5t-239 -71.5h-72q-18 0 -18 18v31q0 19 18 19h74q128 0 188 54t60 171v588q0 20 18 20z" />
    <glyph glyph-name="uniFE8C" unicode="&#x626;" horiz-adv-x="667" arabic-form="medial" 
d="M539 1096h-359q-16 0 -16 18v19q0 16 16 16h88q-26 26 -26 80v74q0 67 39 111t104 44h25q59 0 118 -47q13 -9 2 -20l-12 -15q-9 -15 -26 -2q-42 33 -84 33h-23q-40 0 -66 -30t-26 -74v-72q0 -37 20.5 -59.5t55.5 -22.5h170q16 0 16 -16v-19q0 -18 -16 -18zM633 68h35
q18 0 18 -19v-31q0 -18 -18 -18h-35q-215 0 -268 152q-62 -152 -293 -152h-72q-18 0 -18 18v31q0 19 18 19h74q128 0 188 54t60 171v588q0 20 18 20h29q18 0 18 -20v-533q0 -153 56 -216.5t190 -63.5z" />
    <glyph glyph-name="uniFE8E" unicode="&#x627;" horiz-adv-x="626" arabic-form="final" 
d="M565 68h62q18 0 18 -19v-31q0 -18 -18 -18h-68q-159 0 -232 78.5t-73 249.5v1063h-111q-22 0 -22 22v25q0 20 22 20h158q18 0 18 -20v-1110q0 -139 57.5 -199.5t188.5 -60.5z" />
    <glyph glyph-name="uniFE90" unicode="&#x628;" horiz-adv-x="1544" arabic-form="final" 
d="M1544 68q19 0 19 -19v-31q0 -18 -19 -18q-113 0 -177 35.5t-93 114.5q-58 -150 -291 -150h-483q-158 0 -245 93t-87 261v176q0 144 84 222q14 14 29 2l20 -19q12 -12 0 -28q-65 -65 -65 -183v-172q0 -133 70.5 -208.5t193.5 -75.5h483q128 0 188 54t60 171v588
q0 20 20 20h27q20 0 20 -20v-533q0 -155 55.5 -217.5t190.5 -62.5zM756 -193h41q16 0 16 -16v-110q0 -17 -16 -17h-41q-19 0 -19 17v110q0 16 19 16z" />
    <glyph glyph-name="uniFE91" unicode="&#x628;" horiz-adv-x="577" arabic-form="initial" 
d="M72 0h-72q-18 0 -18 18v31q0 19 18 19h74q128 0 188 54t60 171v588q0 20 18 20h29q18 0 18 -20v-588q0 -150 -76 -221.5t-239 -71.5zM242 -336h-41q-19 0 -19 17v110q0 16 19 16h41q16 0 16 -16v-110q0 -17 -16 -17z" />
    <glyph glyph-name="uniFE92" unicode="&#x628;" horiz-adv-x="667" arabic-form="medial" 
d="M633 68h35q18 0 18 -19v-31q0 -18 -18 -18h-35q-215 0 -268 152q-62 -152 -293 -152h-72q-18 0 -18 18v31q0 19 18 19h74q128 0 188 54t60 171v588q0 20 18 20h29q18 0 18 -20v-533q0 -153 56 -216.5t190 -63.5zM334 -193h41q16 0 16 -16v-110q0 -17 -16 -17h-41
q-19 0 -19 17v110q0 16 19 16z" />
    <glyph glyph-name="uniFE94" unicode="&#x629;" horiz-adv-x="1087" arabic-form="final" 
d="M389 1143h-39q-16 0 -16 18v107q0 18 16 18h39q19 0 19 -18v-107q0 -18 -19 -18zM647 1143h-39q-18 0 -18 18v107q0 18 18 18h39q19 0 19 -18v-107q0 -18 -19 -18zM1075 68h12q17 0 17 -19v-31q0 -18 -17 -18h-20q-239 0 -285 225q-76 -166 -278 -166h-19q-147 0 -232 90
t-85 246v199q0 154 86 241t240 87h14q186 0 264 -140v168q0 21 19 21h28q19 0 19 -21v-622q0 -260 237 -260zM496 127h16q124 0 192 74.5t68 208.5v184q0 123 -68.5 191.5t-191.5 68.5h-16q-122 0 -191 -68.5t-69 -191.5v-184q0 -134 68.5 -208.5t191.5 -74.5z" />
    <glyph glyph-name="uniFE96" unicode="&#x62a;" horiz-adv-x="1544" arabic-form="final" 
d="M635 1094h-39q-16 0 -16 18v107q0 18 16 18h39q18 0 18 -18v-107q0 -18 -18 -18zM893 1094h-39q-18 0 -18 18v107q0 18 18 18h39q18 0 18 -18v-107q0 -18 -18 -18zM1544 68q19 0 19 -19v-31q0 -18 -19 -18q-113 0 -177 35.5t-93 114.5q-58 -150 -291 -150h-483
q-158 0 -245 93t-87 261v176q0 144 84 222q14 14 29 2l20 -19q12 -12 0 -28q-65 -65 -65 -183v-172q0 -133 70.5 -208.5t193.5 -75.5h483q128 0 188 54t60 171v588q0 20 20 20h27q20 0 20 -20v-533q0 -155 55.5 -217.5t190.5 -62.5z" />
    <glyph glyph-name="uniFE97" unicode="&#x62a;" horiz-adv-x="632" arabic-form="initial" 
d="M301 1094h-39q-16 0 -16 18v107q0 18 16 18h39q18 0 18 -18v-107q0 -18 -18 -18zM559 1094h-39q-18 0 -18 18v107q0 18 18 18h39q19 0 19 -18v-107q0 -18 -19 -18zM127 0h-127q-18 0 -18 18v31q0 19 18 19h127q128 0 188 54t60 171v588q0 20 20 20h27q20 0 20 -20v-588
q0 -150 -76 -221.5t-239 -71.5z" />
    <glyph glyph-name="uniFE98" unicode="&#x62a;" horiz-adv-x="722" arabic-form="medial" 
d="M301 1094h-39q-16 0 -16 18v107q0 18 16 18h39q18 0 18 -18v-107q0 -18 -18 -18zM559 1094h-39q-18 0 -18 18v107q0 18 18 18h39q19 0 19 -18v-107q0 -18 -19 -18zM688 68h35q18 0 18 -19v-31q0 -18 -18 -18h-35q-215 0 -268 152q-62 -152 -293 -152h-127q-18 0 -18 18
v31q0 19 18 19h127q128 0 188 54t60 171v588q0 20 20 20h27q20 0 20 -20v-533q0 -153 56 -216.5t190 -63.5z" />
    <glyph glyph-name="uniFE9A" unicode="&#x62b;" horiz-adv-x="1544" arabic-form="final" 
d="M764 1315h-37q-16 0 -16 16v103q0 16 16 16h37q16 0 16 -16v-103q0 -16 -16 -16zM637 1094h-39q-18 0 -18 16v109q0 18 18 18h39q16 0 16 -18v-109q0 -16 -16 -16zM895 1094h-39q-18 0 -18 16v109q0 18 18 18h39q16 0 16 -18v-109q0 -16 -16 -16zM1544 68q19 0 19 -19
v-31q0 -18 -19 -18q-113 0 -177 35.5t-93 114.5q-58 -150 -291 -150h-483q-158 0 -245 93t-87 261v176q0 144 84 222q14 14 29 2l20 -19q12 -12 0 -28q-65 -65 -65 -183v-172q0 -133 70.5 -208.5t193.5 -75.5h483q128 0 188 54t60 171v588q0 20 20 20h27q20 0 20 -20v-533
q0 -155 55.5 -217.5t190.5 -62.5z" />
    <glyph glyph-name="uniFE9B" unicode="&#x62b;" horiz-adv-x="632" arabic-form="initial" 
d="M430 1315h-37q-16 0 -16 16v103q0 16 16 16h37q16 0 16 -16v-103q0 -16 -16 -16zM303 1094h-39q-18 0 -18 16v109q0 18 18 18h39q16 0 16 -18v-109q0 -16 -16 -16zM561 1094h-39q-18 0 -18 16v109q0 18 18 18h39q17 0 17 -18v-109q0 -16 -17 -16zM127 0h-127
q-18 0 -18 18v31q0 19 18 19h127q128 0 188 54t60 171v588q0 20 20 20h27q20 0 20 -20v-588q0 -150 -76 -221.5t-239 -71.5z" />
    <glyph glyph-name="uniFE9C" unicode="&#x62b;" horiz-adv-x="722" arabic-form="medial" 
d="M428 1315h-37q-16 0 -16 16v103q0 16 16 16h37q16 0 16 -16v-103q0 -16 -16 -16zM301 1094h-39q-18 0 -18 16v109q0 18 18 18h39q16 0 16 -18v-109q0 -16 -16 -16zM559 1094h-39q-18 0 -18 16v109q0 18 18 18h39q16 0 16 -18v-109q0 -16 -16 -16zM688 68h35q18 0 18 -19
v-31q0 -18 -18 -18h-35q-215 0 -268 152q-62 -152 -293 -152h-127q-18 0 -18 18v31q0 19 18 19h127q128 0 188 54t60 171v588q0 20 20 20h27q20 0 20 -20v-533q0 -153 56 -216.5t190 -63.5z" />
    <glyph glyph-name="uniFE9E" unicode="&#x62c;" horiz-adv-x="1198" arabic-form="final" 
d="M1059 68h139q19 0 19 -19v-31q0 -18 -19 -18h-688q-136 0 -220.5 -73t-84.5 -199v-31q0 -117 88 -193q15 -12 6 -24l-14 -23q-10 -16 -27 -6q-119 88 -119 240v45q0 151 103.5 241.5t269.5 90.5h379q-115 77 -115 284v244q0 123 -69 191.5t-191 68.5h-49q-110 0 -186 -76
q-15 -15 -27 0l-21 21q-13 13 5 28q95 95 225 95h55q154 0 240 -87t86 -241v-248q0 -143 50 -211.5t165 -68.5zM612 -209h39q19 0 19 -16v-109q0 -18 -19 -18h-39q-18 0 -18 18v109q0 16 18 16z" />
    <glyph glyph-name="uniFE9F" unicode="&#x62c;" horiz-adv-x="1155" arabic-form="initial" 
d="M1042 68q17 0 17 -19v-31q0 -18 -17 -18h-1042q-18 0 -18 18v31q0 19 18 19h874q-114 77 -114 284v244q0 123 -69.5 191.5t-192.5 68.5h-49q-109 0 -185 -76q-16 -16 -26 0l-21 21q-12 14 2 28q100 95 225 95h58q153 0 238 -87t85 -241v-248q0 -142 51 -211t166 -69z
M494 -193h41q16 0 16 -16v-110q0 -17 -16 -17h-41q-19 0 -19 17v110q0 16 19 16z" />
    <glyph glyph-name="uniFEA0" unicode="&#x62c;" horiz-adv-x="1179" arabic-form="medial" 
d="M1042 68h138q16 0 16 -19v-31q0 -18 -16 -18h-1180q-18 0 -18 18v31q0 19 18 19h874q-114 77 -114 284v244q0 123 -69.5 191.5t-192.5 68.5h-49q-109 0 -185 -76q-16 -16 -26 0l-21 21q-12 14 2 28q100 95 225 95h58q153 0 238 -87t85 -241v-248q0 -142 51 -211t166 -69z
M494 -193h41q16 0 16 -16v-110q0 -17 -16 -17h-41q-19 0 -19 17v110q0 16 19 16z" />
    <glyph glyph-name="uniFEA2" unicode="&#x62d;" horiz-adv-x="1200" arabic-form="final" 
d="M1059 68h141q17 0 17 -19v-31q0 -18 -17 -18h-690q-137 0 -220 -74.5t-83 -197.5v-25q0 -128 82.5 -199t234.5 -71q158 0 314 102q22 9 30 -4l13 -20q9 -15 -7 -31q-168 -115 -350 -115q-178 0 -281.5 87t-103.5 239v45q0 148 103 240t270 92h379q-115 77 -115 284v244
q0 123 -69 191.5t-191 68.5h-49q-110 0 -186 -76q-15 -12 -27 0l-21 21q-13 13 5 28q95 95 225 95h55q154 0 240 -87t86 -241v-248q0 -143 50 -211.5t165 -68.5z" />
    <glyph glyph-name="uniFEA3" unicode="&#x62d;" horiz-adv-x="1155" arabic-form="initial" 
d="M1042 68q17 0 17 -19v-31q0 -18 -17 -18h-1042q-18 0 -18 18v31q0 19 18 19h874q-114 77 -114 284v244q0 123 -69.5 191.5t-192.5 68.5h-49q-109 0 -185 -76q-16 -16 -26 0l-21 21q-12 14 2 28q100 95 225 95h58q153 0 238 -87t85 -241v-248q0 -142 51 -211t166 -69z" />
    <glyph glyph-name="uniFEA4" unicode="&#x62d;" horiz-adv-x="1179" arabic-form="medial" 
d="M1042 68h138q16 0 16 -19v-31q0 -18 -16 -18h-1180q-18 0 -18 18v31q0 19 18 19h874q-114 77 -114 284v244q0 123 -69.5 191.5t-192.5 68.5h-49q-109 0 -185 -76q-16 -16 -26 0l-21 21q-12 14 2 28q100 95 225 95h58q153 0 238 -87t85 -241v-248q0 -142 51 -211t166 -69z
" />
    <glyph glyph-name="uniFEA6" unicode="&#x62e;" horiz-adv-x="1200" arabic-form="final" 
d="M528 1116h-41q-16 0 -16 19v108q0 17 16 17h41q19 0 19 -17v-108q0 -19 -19 -19zM1059 68h141q17 0 17 -19v-31q0 -18 -17 -18h-690q-137 0 -220 -74.5t-83 -197.5v-25q0 -128 82.5 -199t234.5 -71q158 0 314 102q22 9 30 -4l13 -20q9 -15 -7 -31q-168 -115 -350 -115
q-178 0 -281.5 87t-103.5 239v45q0 148 103 240t270 92h379q-115 77 -115 284v244q0 123 -69 191.5t-191 68.5h-49q-110 0 -186 -76q-15 -12 -27 0l-21 21q-13 13 5 28q95 95 225 95h55q154 0 240 -87t86 -241v-248q0 -143 50 -211.5t165 -68.5z" />
    <glyph glyph-name="uniFEA7" unicode="&#x62e;" horiz-adv-x="1155" arabic-form="initial" 
d="M500 1116h-41q-17 0 -17 19v108q0 17 17 17h41q18 0 18 -17v-108q0 -19 -18 -19zM1042 68q17 0 17 -19v-31q0 -18 -17 -18h-1042q-18 0 -18 18v31q0 19 18 19h874q-114 77 -114 284v244q0 123 -69.5 191.5t-192.5 68.5h-49q-109 0 -185 -76q-16 -16 -26 0l-21 21
q-12 14 2 28q100 95 225 95h58q153 0 238 -87t85 -241v-248q0 -142 51 -211t166 -69z" />
    <glyph glyph-name="uniFEA8" unicode="&#x62e;" horiz-adv-x="1179" arabic-form="medial" 
d="M500 1116h-41q-17 0 -17 19v108q0 17 17 17h41q18 0 18 -17v-108q0 -19 -18 -19zM1042 68h138q16 0 16 -19v-31q0 -18 -16 -18h-1180q-18 0 -18 18v31q0 19 18 19h874q-114 77 -114 284v244q0 123 -69.5 191.5t-192.5 68.5h-49q-109 0 -185 -76q-16 -16 -26 0l-21 21
q-12 14 2 28q100 95 225 95h58q153 0 238 -87t85 -241v-248q0 -142 51 -211t166 -69z" />
    <glyph glyph-name="uniFEAA" unicode="&#x62f;" horiz-adv-x="1130" arabic-form="final" 
d="M1130 68q19 0 19 -19v-31q0 -18 -19 -18q-106 0 -170.5 44.5t-101.5 143.5q-36 -89 -122.5 -138.5t-209.5 -49.5h-198q-123 0 -224 90q-14 12 -4 29l19 22q9 9 28 0q73 -73 183 -73h190q146 0 224.5 86t58.5 223l-41 270q-19 115 -88 179.5t-172 64.5h-37q-23 0 -23 20
v25q0 20 23 20h37q134 0 219.5 -77.5t105.5 -214.5l37 -236l15 -80q25 -152 82.5 -216t168.5 -64z" />
    <glyph glyph-name="uniFEAC" unicode="&#x630;" horiz-adv-x="1130" arabic-form="final" 
d="M520 1151h-41q-16 0 -16 18v109q0 16 16 16h41q19 0 19 -16v-109q0 -18 -19 -18zM1130 68q19 0 19 -19v-31q0 -18 -19 -18q-106 0 -170.5 44.5t-101.5 143.5q-36 -89 -122.5 -138.5t-209.5 -49.5h-198q-123 0 -224 90q-14 12 -4 29l19 22q9 9 28 0q73 -73 183 -73h190
q146 0 224.5 86t58.5 223l-41 270q-19 115 -88 179.5t-172 64.5h-37q-23 0 -23 20v25q0 20 23 20h37q134 0 219.5 -77.5t105.5 -214.5l37 -236l15 -80q25 -152 82.5 -216t168.5 -64z" />
    <glyph glyph-name="uniFEAE" unicode="&#x631;" horiz-adv-x="704" arabic-form="final" 
d="M705 68q18 0 18 -19v-31q0 -18 -18 -18q-183 0 -246 100v-211q0 -331 -307 -331h-11q-137 0 -221 84q-16 13 -4 28l16 19q10 13 27 0q67 -64 182 -64h11q239 0 239 264v992q0 20 21 20h26q21 0 21 -20v-533q0 -155 55.5 -217.5t190.5 -62.5z" />
    <glyph glyph-name="uniFEB0" unicode="&#x632;" horiz-adv-x="704" arabic-form="final" 
d="M446 1094h-40q-17 0 -17 18v109q0 16 17 16h40q19 0 19 -16v-109q0 -18 -19 -18zM705 68q18 0 18 -19v-31q0 -18 -18 -18q-183 0 -246 100v-211q0 -331 -307 -331h-11q-137 0 -221 84q-16 13 -4 28l16 19q10 13 27 0q67 -64 182 -64h11q239 0 239 264v992q0 20 21 20h26
q21 0 21 -20v-533q0 -155 55.5 -217.5t190.5 -62.5z" />
    <glyph glyph-name="uniFEB2" unicode="&#x633;" horiz-adv-x="2562" arabic-form="final" 
d="M2562 68q18 0 18 -19v-31q0 -18 -18 -18q-119 0 -183.5 39t-90.5 129q-77 -191 -306 -191q-224 0 -294 187q-76 -187 -302 -187q-182 0 -264 125v-229q0 -148 -91.5 -228.5t-258.5 -80.5h-213q-185 0 -288 106.5t-103 292.5q0 203 129 381q15 15 31 6l18 -12
q14 -12 4 -29q-114 -173 -114 -340q0 -161 85.5 -250.5t237.5 -89.5h213q134 0 208.5 64.5t74.5 179.5v846q0 20 20 20h25q22 0 22 -20v-383q0 -139 68.5 -216t187.5 -77q129 0 202 78t73 217v410q0 20 20 20h25q20 0 20 -20v-410v-2q0 -138 69 -215.5t189 -77.5
q128 0 200.5 78t72.5 217v561q0 21 20 21h25q22 0 22 -21v-551q0 -155 55.5 -217.5t190.5 -62.5z" />
    <glyph glyph-name="uniFEB3" unicode="&#x633;" horiz-adv-x="1705" arabic-form="initial" 
d="M1470 920h25q21 0 21 -21v-561q0 -170 -89 -265.5t-245 -95.5q-225 0 -295 187q-76 -187 -301 -187q-215 0 -291 175q-71 -152 -279 -152h-16q-18 0 -18 18v31q0 19 18 19h16q113 0 175.5 58.5t62.5 166.5v455q0 20 20 20h27q21 0 21 -20v-412q0 -139 68 -216t190 -77
q128 0 200 78t72 217v410q0 20 20 20h25q21 0 21 -20v-410v-2q0 -138 69 -215.5t189 -77.5q128 0 200 78t72 217v561q0 21 22 21z" />
    <glyph glyph-name="uniFEB4" unicode="&#x633;" horiz-adv-x="1763" arabic-form="medial" 
d="M1763 68q19 0 19 -19v-31q0 -18 -19 -18q-122 0 -186 40t-90 132q-74 -195 -305 -195q-225 0 -295 187q-76 -187 -301 -187q-215 0 -291 175q-71 -152 -279 -152h-16q-18 0 -18 18v31q0 19 18 19h16q113 0 175.5 58.5t62.5 166.5v455q0 20 20 20h27q21 0 21 -20v-412
q0 -139 68 -216t190 -77q128 0 200 78t72 217v410q0 20 20 20h25q21 0 21 -20v-410v-2q0 -138 69 -215.5t189 -77.5q128 0 200 78t72 217v561q0 21 22 21h25q21 0 21 -21v-551h2q0 -155 55 -217.5t190 -62.5z" />
    <glyph glyph-name="uniFEB6" unicode="&#x634;" horiz-adv-x="2562" arabic-form="final" 
d="M1704 1184h-37q-16 0 -16 16v103q0 16 16 16h37q16 0 16 -16v-103q0 -16 -16 -16zM1577 963h-39q-18 0 -18 16v108q0 19 18 19h39q16 0 16 -19v-108q0 -16 -16 -16zM1835 963h-39q-18 0 -18 16v108q0 19 18 19h39q16 0 16 -19v-108q0 -16 -16 -16zM2562 68q18 0 18 -19
v-31q0 -18 -18 -18q-119 0 -183.5 39t-90.5 129q-77 -191 -306 -191q-224 0 -294 187q-76 -187 -302 -187q-182 0 -264 125v-229q0 -148 -91.5 -228.5t-258.5 -80.5h-213q-185 0 -288 106.5t-103 292.5q0 203 129 381q15 15 31 6l18 -12q14 -12 4 -29q-114 -173 -114 -340
q0 -161 85.5 -250.5t237.5 -89.5h213q134 0 208.5 64.5t74.5 179.5v846q0 20 20 20h25q22 0 22 -20v-383q0 -139 68.5 -216t187.5 -77q129 0 202 78t73 217v410q0 20 20 20h25q20 0 20 -20v-410v-2q0 -138 69 -215.5t189 -77.5q128 0 200.5 78t72.5 217v561q0 21 20 21h25
q22 0 22 -21v-551q0 -155 55.5 -217.5t190.5 -62.5z" />
    <glyph glyph-name="uniFEB7" unicode="&#x634;" horiz-adv-x="1705" arabic-form="initial" 
d="M905 1184h-37q-16 0 -16 16v103q0 16 16 16h37q17 0 17 -16v-103q0 -16 -17 -16zM778 963h-39q-18 0 -18 16v108q0 19 18 19h39q17 0 17 -19v-108q0 -16 -17 -16zM1036 963h-39q-18 0 -18 16v108q0 19 18 19h39q17 0 17 -19v-108q0 -16 -17 -16zM1470 920h25q21 0 21 -21
v-561q0 -170 -89 -265.5t-245 -95.5q-225 0 -295 187q-76 -187 -301 -187q-215 0 -291 175q-71 -152 -279 -152h-16q-18 0 -18 18v31q0 19 18 19h16q113 0 175.5 58.5t62.5 166.5v455q0 20 20 20h27q21 0 21 -20v-412q0 -139 68 -216t190 -77q128 0 200 78t72 217v410
q0 20 20 20h25q21 0 21 -20v-410v-2q0 -138 69 -215.5t189 -77.5q128 0 200 78t72 217v561q0 21 22 21z" />
    <glyph glyph-name="uniFEB8" unicode="&#x634;" horiz-adv-x="1763" arabic-form="medial" 
d="M903 1184h-37q-16 0 -16 16v103q0 16 16 16h37q17 0 17 -16v-103q0 -16 -17 -16zM776 963h-39q-18 0 -18 16v108q0 19 18 19h39q17 0 17 -19v-108q0 -16 -17 -16zM1034 963h-39q-18 0 -18 16v108q0 19 18 19h39q17 0 17 -19v-108q0 -16 -17 -16zM1763 68q19 0 19 -19v-31
q0 -18 -19 -18q-122 0 -186 40t-90 132q-74 -195 -305 -195q-225 0 -295 187q-76 -187 -301 -187q-215 0 -291 175q-71 -152 -279 -152h-16q-18 0 -18 18v31q0 19 18 19h16q113 0 175.5 58.5t62.5 166.5v455q0 20 20 20h27q21 0 21 -20v-412q0 -139 68 -216t190 -77
q128 0 200 78t72 217v410q0 20 20 20h25q21 0 21 -20v-410v-2q0 -138 69 -215.5t189 -77.5q128 0 200 78t72 217v561q0 21 22 21h25q21 0 21 -21v-551h2q0 -155 55 -217.5t190 -62.5z" />
    <glyph glyph-name="uniFEBA" unicode="&#x635;" horiz-adv-x="2361" arabic-form="final" 
d="M2361 68q19 0 19 -19v-31q0 -18 -19 -18q-122 0 -187 41t-91 137q-70 -178 -295 -178h-666v-127q0 -148 -91.5 -228.5t-258.5 -80.5h-213q-185 0 -288 106t-103 293q0 203 129 381q15 15 31 6l18 -12q14 -8 4 -31q-114 -169 -114 -340q0 -160 85.5 -249t237.5 -89h213
q134 0 208.5 64.5t74.5 179.5v1010q0 20 20 20h19q20 0 20 -20v-125q95 145 293 145h381q155 0 240.5 -85.5t85.5 -239.5v-230h2q0 -155 55 -217.5t190 -62.5zM2048 346v232q0 123 -68 191.5t-190 68.5h-387q-130 0 -205.5 -71t-75.5 -198v-501h668q122 0 190 72.5t68 205.5
z" />
    <glyph glyph-name="uniFEBB" unicode="&#x635;" horiz-adv-x="1462" arabic-form="initial" 
d="M600 903h383q154 0 240 -85.5t86 -239.5v-232q0 -165 -84.5 -255.5t-241.5 -90.5h-983q-18 0 -18 20v25q0 23 18 23h250v815q0 20 20 20h19q20 0 20 -20v-121q99 141 291 141zM1241 346v232q0 123 -68 191.5t-190 68.5h-387q-130 0 -205.5 -71t-75.5 -198v-501h668
q123 0 190.5 72.5t67.5 205.5z" />
    <glyph glyph-name="uniFEBC" unicode="&#x635;" horiz-adv-x="1554" arabic-form="medial" 
d="M1554 68q19 0 19 -19v-31q0 -18 -19 -18q-122 0 -186.5 40.5t-89.5 133.5q-73 -174 -295 -174h-983q-18 0 -18 20v25q0 23 18 23h250v815q0 20 20 20h19q20 0 20 -20v-121q99 141 291 141h383q154 0 240 -85.5t86 -239.5v-230q0 -155 55 -217.5t190 -62.5zM1241 346v232
q0 123 -68 191.5t-190 68.5h-387q-130 0 -205.5 -71t-75.5 -198v-501h668q123 0 190.5 72.5t67.5 205.5z" />
    <glyph glyph-name="uniFEBE" unicode="&#x636;" horiz-adv-x="2361" arabic-form="final" 
d="M1618 1098h-41q-16 0 -16 18v109q0 16 16 16h41q18 0 18 -16v-109q0 -18 -18 -18zM2361 68q19 0 19 -19v-31q0 -18 -19 -18q-122 0 -187 41t-91 137q-70 -178 -295 -178h-666v-127q0 -148 -91.5 -228.5t-258.5 -80.5h-213q-185 0 -288 106t-103 293q0 203 129 381
q15 15 31 6l18 -12q14 -8 4 -31q-114 -169 -114 -340q0 -160 85.5 -249t237.5 -89h213q134 0 208.5 64.5t74.5 179.5v1010q0 20 20 20h19q20 0 20 -20v-125q95 145 293 145h381q155 0 240.5 -85.5t85.5 -239.5v-230h2q0 -155 55 -217.5t190 -62.5zM2048 346v232
q0 123 -68 191.5t-190 68.5h-387q-130 0 -205.5 -71t-75.5 -198v-501h668q122 0 190 72.5t68 205.5z" />
    <glyph glyph-name="uniFEBF" unicode="&#x636;" horiz-adv-x="1462" arabic-form="initial" 
d="M811 1098h-41q-16 0 -16 18v109q0 16 16 16h41q18 0 18 -16v-109q0 -18 -18 -18zM600 903h383q154 0 240 -85.5t86 -239.5v-232q0 -165 -84.5 -255.5t-241.5 -90.5h-983q-18 0 -18 20v25q0 23 18 23h250v815q0 20 20 20h19q20 0 20 -20v-121q99 141 291 141zM1241 346
v232q0 123 -68 191.5t-190 68.5h-387q-130 0 -205.5 -71t-75.5 -198v-501h668q123 0 190.5 72.5t67.5 205.5z" />
    <glyph glyph-name="uniFEC0" unicode="&#x636;" horiz-adv-x="1554" arabic-form="medial" 
d="M811 1098h-41q-16 0 -16 18v109q0 16 16 16h41q18 0 18 -16v-109q0 -18 -18 -18zM1554 68q19 0 19 -19v-31q0 -18 -19 -18q-122 0 -186.5 40.5t-89.5 133.5q-73 -174 -295 -174h-983q-18 0 -18 20v25q0 23 18 23h250v815q0 20 20 20h19q20 0 20 -20v-121q99 141 291 141
h383q154 0 240 -85.5t86 -239.5v-230q0 -155 55 -217.5t190 -62.5zM1241 346v232q0 123 -68 191.5t-190 68.5h-387q-130 0 -205.5 -71t-75.5 -198v-501h668q123 0 190.5 72.5t67.5 205.5z" />
    <glyph glyph-name="uniFEC2" unicode="&#x637;" horiz-adv-x="1660" arabic-form="final" 
d="M1661 68q18 0 18 -19v-31q0 -18 -18 -18q-122 0 -186.5 40.5t-90.5 133.5q-73 -180 -297 -180h-978q-19 0 -19 20v25q0 22 19 22h245v1323h-108q-21 0 -21 23v25q0 20 21 20h155q21 0 21 -20v-666q101 131 285 131h380q155 0 240.5 -86t85.5 -240v-223h2
q0 -155 55.5 -217.5t190.5 -62.5zM1348 340v231q0 123 -69.5 191.5t-191.5 68.5h-387q-129 0 -203.5 -71t-74.5 -197v-502h665q123 0 192 73t69 206z" />
    <glyph glyph-name="uniFEC3" unicode="&#x637;" horiz-adv-x="1548" arabic-form="initial" 
d="M688 903h381q155 0 240.5 -85.5t85.5 -239.5v-232q0 -165 -84.5 -255.5t-241.5 -90.5h-1069q-18 0 -18 20v25q0 23 18 23h338l-2 1323h-109q-20 0 -20 22v25q0 20 20 20h156q20 0 20 -20v-668q95 133 285 133zM1329 346v232q0 123 -68 191.5t-190 68.5h-387
q-130 0 -205.5 -71t-75.5 -198v-501h668q122 0 190 72.5t68 205.5z" />
    <glyph glyph-name="uniFEC4" unicode="&#x637;" horiz-adv-x="1642" arabic-form="medial" 
d="M1642 68q19 0 19 -19v-31q0 -18 -19 -18q-122 0 -187 41t-91 137q-70 -178 -295 -178h-1069q-18 0 -18 20v25q0 23 18 23h338l-2 1323h-109q-20 0 -20 22v25q0 20 20 20h156q20 0 20 -20v-668q95 133 285 133h381q155 0 240.5 -85.5t85.5 -239.5v-230h2q0 -155 55 -217.5
t190 -62.5zM1329 346v232q0 123 -68 191.5t-190 68.5h-387q-130 0 -205.5 -71t-75.5 -198v-501h668q122 0 190 72.5t68 205.5z" />
    <glyph glyph-name="uniFEC6" unicode="&#x638;" horiz-adv-x="1660" arabic-form="final" 
d="M1661 68q18 0 18 -19v-31q0 -18 -18 -18q-122 0 -186.5 40.5t-90.5 133.5q-73 -180 -297 -180h-978q-19 0 -19 20v25q0 22 19 22h245v1323h-108q-21 0 -21 23v25q0 20 21 20h155q21 0 21 -20v-666q101 131 285 131h380q155 0 240.5 -86t85.5 -240v-223h2
q0 -155 55.5 -217.5t190.5 -62.5zM915 1092h-41q-16 0 -16 18v109q0 16 16 16h41q19 0 19 -16v-109q0 -18 -19 -18zM1348 340v231q0 123 -69.5 191.5t-191.5 68.5h-387q-129 0 -203.5 -71t-74.5 -197v-502h665q123 0 192 73t69 206z" />
    <glyph glyph-name="uniFEC7" unicode="&#x638;" horiz-adv-x="1548" arabic-form="initial" 
d="M688 903h381q155 0 240.5 -85.5t85.5 -239.5v-232q0 -165 -84.5 -255.5t-241.5 -90.5h-1069q-18 0 -18 20v25q0 23 18 23h338l-2 1323h-109q-20 0 -20 22v25q0 20 20 20h156q20 0 20 -20v-668q95 133 285 133zM895 1098h-41q-16 0 -16 18v109q0 16 16 16h41q18 0 18 -16
v-109q0 -18 -18 -18zM1329 346v232q0 123 -68 191.5t-190 68.5h-387q-130 0 -205.5 -71t-75.5 -198v-501h668q122 0 190 72.5t68 205.5z" />
    <glyph glyph-name="uniFEC8" unicode="&#x638;" horiz-adv-x="1642" arabic-form="medial" 
d="M1642 68q19 0 19 -19v-31q0 -18 -19 -18q-122 0 -187 41t-91 137q-70 -178 -295 -178h-1069q-18 0 -18 20v25q0 23 18 23h338l-2 1323h-109q-20 0 -20 22v25q0 20 20 20h156q20 0 20 -20v-668q95 133 285 133h381q155 0 240.5 -85.5t85.5 -239.5v-230h2q0 -155 55 -217.5
t190 -62.5zM895 1098h-41q-16 0 -16 18v109q0 16 16 16h41q18 0 18 -16v-109q0 -18 -18 -18zM1329 346v232q0 123 -68 191.5t-190 68.5h-387q-130 0 -205.5 -71t-75.5 -198v-501h668q122 0 190 72.5t68 205.5z" />
    <glyph glyph-name="uniFECA" unicode="&#x639;" horiz-adv-x="1193" arabic-form="final" 
d="M899 68h295q16 0 16 -19v-31q0 -18 -16 -18h-655q-137 0 -220 -74.5t-83 -197.5v-25q0 -129 83 -199.5t236 -70.5q157 0 313 102q20 10 29 -4l14 -20q9 -14 -8 -31q-168 -115 -348 -115q-178 0 -282.5 87.5t-104.5 238.5v45q0 131 83 219.5t222 107.5l-203 533
q0 150 85.5 238t236.5 88h182q151 0 236.5 -88t85.5 -238zM340 592l192 -524h9h297l188 524q-5 125 -72.5 193.5t-189.5 68.5h-160q-124 0 -191.5 -68.5t-72.5 -193.5z" />
    <glyph glyph-name="uniFECB" unicode="&#x639;" horiz-adv-x="944" arabic-form="initial" 
d="M489 68h369q21 0 21 -23v-25q0 -20 -21 -20h-858q-18 0 -18 18v31q0 19 18 19h283q-109 68 -109 219v313q0 156 82 241t236 85h71q141 0 246 -105q14 -14 2 -26l-18 -21q-10 -16 -29 0q-84 84 -203 84h-65q-254 0 -254 -262v-311q0 -217 247 -217z" />
    <glyph glyph-name="uniFECC" unicode="&#x639;" horiz-adv-x="1019" arabic-form="medial" 
d="M725 68h295q16 0 16 -19v-31q0 -18 -16 -18h-1020q-18 0 -18 18v31q0 19 18 19h297l-201 528q0 150 86.5 238t237.5 88h180q151 0 237.5 -88t86.5 -238zM168 592l192 -524h304l188 524q-2 124 -70 193t-190 69h-162q-124 0 -192 -68.5t-70 -193.5z" />
    <glyph glyph-name="uniFECE" unicode="&#x63a;" horiz-adv-x="1193" arabic-form="final" 
d="M711 1118h-41q-17 0 -17 19v108q0 17 17 17h41q18 0 18 -17v-108q0 -19 -18 -19zM899 68h295q16 0 16 -19v-31q0 -18 -16 -18h-655q-137 0 -220 -74.5t-83 -197.5v-25q0 -129 83 -199.5t236 -70.5q157 0 313 102q20 10 29 -4l14 -20q9 -14 -8 -31q-168 -115 -348 -115
q-178 0 -282.5 87.5t-104.5 238.5v45q0 131 83 219.5t222 107.5l-203 533q0 150 85.5 238t236.5 88h182q151 0 236.5 -88t85.5 -238zM340 592l192 -524h9h297l188 524q-5 125 -72.5 193.5t-189.5 68.5h-160q-124 0 -191.5 -68.5t-72.5 -193.5z" />
    <glyph glyph-name="uniFECF" unicode="&#x63a;" horiz-adv-x="944" arabic-form="initial" 
d="M549 1118h-41q-16 0 -16 19v108q0 17 16 17h41q18 0 18 -17v-108q0 -19 -18 -19zM489 68h369q21 0 21 -23v-25q0 -20 -21 -20h-858q-18 0 -18 18v31q0 19 18 19h283q-109 68 -109 219v313q0 156 82 241t236 85h71q141 0 246 -105q14 -14 2 -26l-18 -21q-10 -16 -29 0
q-84 84 -203 84h-65q-254 0 -254 -262v-311q0 -217 247 -217z" />
    <glyph glyph-name="uniFED0" unicode="&#x63a;" horiz-adv-x="1019" arabic-form="medial" 
d="M530 1114h-41q-16 0 -16 19v108q0 16 16 16h41q19 0 19 -16v-108q0 -19 -19 -19zM725 68h295q16 0 16 -19v-31q0 -18 -16 -18h-1020q-18 0 -18 18v31q0 19 18 19h297l-201 528q0 150 86.5 238t237.5 88h180q151 0 237.5 -88t86.5 -238zM168 592l192 -524h304l188 524
q-2 124 -70 193t-190 69h-162q-124 0 -192 -68.5t-70 -193.5z" />
    <glyph glyph-name="uniFED2" unicode="&#x641;" horiz-adv-x="1933" arabic-form="final" 
d="M1337 1114h-41q-16 0 -16 19v108q0 16 16 16h41q19 0 19 -16v-108q0 -19 -19 -19zM1933 68q19 0 19 -19v-31q0 -18 -19 -18q-123 0 -188 41t-90 137q-76 -178 -295 -178h-860q-158 0 -245 93t-87 261v176q0 144 84 222q14 14 29 2l20 -19q12 -12 0 -28q-65 -65 -65 -183
v-172q0 -133 70.5 -208.5t193.5 -75.5h585l-118 526q0 151 87.5 239.5t241.5 88.5h64q153 0 239.5 -86.5t86.5 -241.5v-244v-2q0 -154 56 -217t191 -63zM1620 350v244q0 122 -69 191t-191 69h-64q-124 0 -194 -70.5t-70 -193.5l117 -522h211q122 0 191 74.5t69 207.5z" />
    <glyph glyph-name="uniFED3" unicode="&#x641;" horiz-adv-x="1071" arabic-form="initial" 
d="M547 1114h-41q-17 0 -17 19v108q0 16 17 16h41q18 0 18 -16v-108q0 -19 -18 -19zM502 922h63q154 0 241 -87t87 -241v-244q0 -164 -87.5 -257t-240.5 -93h-565q-18 0 -18 18v31q0 19 18 19h293l-121 526q0 150 88 239t242 89zM825 350v244q0 122 -69.5 191t-190.5 69h-63
q-124 0 -194 -70.5t-70 -193.5l116 -522h211q122 0 191 74.5t69 207.5z" />
    <glyph glyph-name="uniFED4" unicode="&#x641;" horiz-adv-x="1138" arabic-form="medial" 
d="M547 1114h-41q-17 0 -17 19v108q0 16 17 16h41q18 0 18 -16v-108q0 -19 -18 -19zM1139 68q18 0 18 -19v-31q0 -18 -18 -18q-122 0 -187.5 41t-91.5 135q-80 -176 -295 -176h-565q-18 0 -18 18v31q0 19 18 19h293l-121 526q0 150 88 239t242 89h63q154 0 241 -87t87 -241
v-244v-2q0 -155 55.5 -217.5t190.5 -62.5zM825 350v244q0 122 -69.5 191t-190.5 69h-63q-124 0 -194 -70.5t-70 -193.5l116 -522h211q122 0 191 74.5t69 207.5z" />
    <glyph glyph-name="uniFED6" unicode="&#x642;" horiz-adv-x="1462" arabic-form="final" 
d="M831 1114h-38q-17 0 -17 19v106q0 18 17 18h38q19 0 19 -18v-106q0 -19 -19 -19zM1090 1114h-39q-19 0 -19 19v106q0 18 19 18h39q18 0 18 -18v-106q0 -19 -18 -19zM1266 68h196q19 0 19 -19v-31q0 -18 -19 -18h-198v-133q0 -148 -90.5 -228.5t-260.5 -80.5h-354
q-183 0 -287 107.5t-104 291.5q0 197 129 381q15 15 31 6l18 -12q14 -12 4 -29q-114 -163 -114 -340q0 -160 85 -249t238 -89h354q134 0 208.5 63.5t74.5 178.5v133h-285q-146 0 -230.5 91t-84.5 247v256q0 152 87 240t237 88h20q152 0 239 -87t87 -241v-526zM922 68h274
v317q0 6 2 8v201q0 123 -69 191.5t-191 68.5h-16q-122 0 -191 -68.5t-69 -191.5v-242q0 -134 68.5 -209t191.5 -75z" />
    <glyph glyph-name="uniFED7" unicode="&#x642;" horiz-adv-x="1071" arabic-form="initial" 
d="M416 1114h-39q-17 0 -17 19v106q0 18 17 18h39q18 0 18 -18v-106q0 -19 -18 -19zM674 1114h-39q-19 0 -19 19v106q0 18 19 18h39q18 0 18 -18v-106q0 -19 -18 -19zM502 922h63q154 0 241 -87t87 -241v-244q0 -164 -87.5 -257t-240.5 -93h-565q-18 0 -18 18v31q0 19 18 19
h293l-121 526q0 150 88 239t242 89zM825 350v244q0 122 -69.5 191t-190.5 69h-63q-124 0 -194 -70.5t-70 -193.5l116 -522h211q122 0 191 74.5t69 207.5z" />
    <glyph glyph-name="uniFED8" unicode="&#x642;" horiz-adv-x="1138" arabic-form="medial" 
d="M418 1114h-39q-17 0 -17 19v106q0 18 17 18h39q18 0 18 -18v-106q0 -19 -18 -19zM676 1114h-39q-19 0 -19 19v106q0 18 19 18h39q18 0 18 -18v-106q0 -19 -18 -19zM1139 68q18 0 18 -19v-31q0 -18 -18 -18q-123 0 -188 41t-91 137q-76 -178 -295 -178h-565q-18 0 -18 18
v31q0 19 18 19h293l-121 526q0 150 88 239t242 89h63q154 0 241 -87t87 -241v-244v-2q0 -155 55.5 -217.5t190.5 -62.5zM825 350v244q0 122 -69.5 191t-190.5 69h-63q-124 0 -194 -70.5t-70 -193.5l116 -522h211q122 0 191 74.5t69 207.5z" />
    <glyph glyph-name="uniFEDA" unicode="&#x643;" horiz-adv-x="1558" arabic-form="final" 
d="M1559 68q18 0 18 -19v-31q0 -18 -18 -18q-113 0 -177.5 35.5t-93.5 114.5q-58 -150 -291 -150h-497q-158 0 -245 93t-87 261v176q0 144 84 222q14 14 29 2l20 -19q12 -12 0 -28q-65 -65 -65 -183v-172q0 -133 70.5 -208.5t193.5 -75.5h497q128 0 188 54t60 171l-2 1145
q0 20 23 20h24q21 0 21 -20l2 -1090q0 -155 55.5 -217.5t190.5 -62.5zM823 639h-223q-16 0 -16 16v27q0 18 16 18h223q86 0 86 101v20l-252 33q-17 3 -26 23l-13 45q-3 20 13 36l223 175q6 4 11 0.5t5 -9.5v-39q0 -16 -14 -24l-178 -131l6 -27l258 -33q25 -3 25 -34v-37
q0 -160 -144 -160z" />
    <glyph glyph-name="uniFEDB" unicode="&#x643;" horiz-adv-x="1136" arabic-form="initial" 
d="M164 1016l758 538q8 6 16 2t8 -12v-41q0 -14 -14 -22l-707 -500l17 -76l665 -127q21 -6 21 -24v-465q0 -149 -74.5 -219t-237.5 -70h-616q-18 0 -18 20v25q0 23 18 23h616q128 0 187 53t59 168v430l-657 125q-18 4 -23 22l-30 117q-6 21 12 33z" />
    <glyph glyph-name="uniFEDC" unicode="&#x643;" horiz-adv-x="1175" arabic-form="medial" 
d="M1176 68q18 0 18 -19v-31q0 -18 -18 -18q-113 0 -178 35.5t-91 114.5q-59 -150 -291 -150h-616q-18 0 -18 20v25q0 23 18 23h616q128 0 187 53t59 168v430l-657 125q-18 4 -23 22l-30 117q-6 21 12 33l758 538q8 6 16 2t8 -12v-41q0 -14 -14 -22l-707 -500l17 -76
l665 -127q21 -6 21 -24v-406h2q0 -155 55.5 -217.5t190.5 -62.5z" />
    <glyph glyph-name="uniFEDE" unicode="&#x644;" horiz-adv-x="1492" arabic-form="final" 
d="M1493 68q18 0 18 -19v-31q0 -18 -18 -18q-184 0 -248 104v-237q0 -148 -90 -228.5t-260 -80.5h-336q-183 0 -287 107.5t-104 291.5q0 197 129 381q15 15 31 6l18 -12q14 -12 4 -29q-114 -163 -114 -340q0 -160 85 -249t238 -89h338q134 0 208.5 63.5t74.5 178.5v1524
h-111q-20 0 -20 22v25q0 20 20 20h156q20 0 20 -20v-1090h2q0 -155 55.5 -217.5t190.5 -62.5z" />
    <glyph glyph-name="uniFEDF" unicode="&#x644;" horiz-adv-x="585" arabic-form="initial" 
d="M72 0h-72q-18 0 -18 18v31q0 19 18 19h74q128 0 188 54t60 171v1098h-111q-21 0 -21 22v25q0 20 21 20h156q20 0 20 -20v-1145q0 -150 -76 -221.5t-239 -71.5z" />
    <glyph glyph-name="uniFEE0" unicode="&#x644;" horiz-adv-x="634" arabic-form="medial" 
d="M635 68q18 0 18 -19v-31q0 -18 -18 -18q-116 0 -180 36.5t-90 117.5q-59 -154 -293 -154h-72q-18 0 -18 18v31q0 19 18 19h74q128 0 188 54t60 171v1098h-111q-21 0 -21 22v25q0 20 21 20h156q20 0 20 -20v-1090h2q0 -155 55.5 -217.5t190.5 -62.5z" />
    <glyph glyph-name="uniFEE2" unicode="&#x645;" horiz-adv-x="1259" arabic-form="final" 
d="M1260 68q18 0 18 -19v-31q0 -18 -18 -18q-124 0 -189 42t-90 138q-76 -180 -297 -180h-281q-106 0 -166.5 -58t-60.5 -161v-375q0 -20 -18 -20h-29q-18 0 -18 20v375q0 134 76.5 210.5t209.5 76.5h15l-119 526q0 151 87 239.5t243 88.5h61q154 0 241 -86.5t87 -241.5
v-244v-2h2q0 -155 55.5 -217.5t190.5 -62.5zM944 350v244q0 122 -69 191t-191 69h-63q-124 0 -193.5 -70.5t-69.5 -193.5l117 -522h209q122 0 191 74.5t69 207.5z" />
    <glyph glyph-name="uniFEE3" unicode="&#x645;" horiz-adv-x="1146" arabic-form="initial" 
d="M606 922h60q154 0 240.5 -86t86.5 -240v-268q0 -166 -86.5 -258.5t-240.5 -92.5l-357 148q-70 -125 -274 -125h-35q-18 0 -18 18v31q0 19 18 19h35q130 0 188 51.5t58 167.5v309q0 154 85.5 240t239.5 86zM928 326v270q0 119 -69.5 188.5t-190.5 69.5h-62
q-121 0 -190.5 -69.5t-69.5 -188.5v-309q0 -57 -12 -103l332 -141q123 0 192.5 75t69.5 208z" />
    <glyph glyph-name="uniFEE4" unicode="&#x645;" horiz-adv-x="1241" arabic-form="medial" 
d="M1241 68q19 0 19 -19v-31q0 -18 -19 -18q-119 0 -183.5 39t-90.5 129q-74 -191 -301 -191l-357 148q-70 -125 -274 -125h-35q-18 0 -18 18v31q0 19 18 19h35q130 0 188 51.5t58 167.5v309q0 154 85.5 240t239.5 86h60q154 0 240.5 -86t86.5 -240v-248h2
q0 -155 55.5 -217.5t190.5 -62.5zM928 326v270q0 119 -69.5 188.5t-190.5 69.5h-62q-121 0 -190.5 -69.5t-69.5 -188.5v-309q0 -57 -12 -103l332 -141q123 0 192.5 75t69.5 208z" />
    <glyph glyph-name="uniFEE6" unicode="&#x646;" horiz-adv-x="1368" arabic-form="final" 
d="M676 678h-41q-17 0 -17 18v109q0 16 17 16h41q18 0 18 -16v-109q0 -18 -18 -18zM1368 68q18 0 18 -19v-31q0 -18 -18 -18q-182 0 -246 98v-225q0 -148 -91.5 -228.5t-258.5 -80.5h-213q-185 0 -288 106.5t-103 292.5q0 203 129 381q15 15 31 6l18 -12q14 -12 4 -29
q-114 -173 -114 -340q0 -161 85.5 -250.5t237.5 -89.5h213q134 0 208.5 64.5t74.5 179.5v846q0 20 20 20h25q22 0 22 -20v-371q0 -155 55.5 -217.5t190.5 -62.5z" />
    <glyph glyph-name="uniFEE7" unicode="&#x646;" horiz-adv-x="577" arabic-form="initial" 
d="M377 1094h-41q-17 0 -17 18v109q0 16 17 16h41q18 0 18 -16v-109q0 -18 -18 -18zM72 0h-72q-18 0 -18 18v31q0 19 18 19h74q128 0 188 54t60 171v588q0 20 18 20h29q18 0 18 -20v-588q0 -150 -76 -221.5t-239 -71.5z" />
    <glyph glyph-name="uniFEE8" unicode="&#x646;" horiz-adv-x="667" arabic-form="medial" 
d="M377 1094h-41q-17 0 -17 18v109q0 16 17 16h41q18 0 18 -16v-109q0 -18 -18 -18zM633 68h35q18 0 18 -19v-31q0 -18 -18 -18h-35q-215 0 -268 152q-62 -152 -293 -152h-72q-18 0 -18 18v31q0 19 18 19h74q128 0 188 54t60 171v588q0 20 18 20h29q18 0 18 -20v-533
q0 -153 56 -216.5t190 -63.5z" />
    <glyph glyph-name="uniFEE9" unicode="&#x647;" horiz-adv-x="1579" arabic-form="isolated" 
d="M862 1171h213q165 0 253.5 -87.5t88.5 -247.5v-484q0 -170 -87 -261t-249 -91h-753q-123 0 -224 90q-14 12 -4 29l19 22q9 9 28 0q73 -73 183 -73h155l-100 415q0 143 89 230.5t235 87.5h47q142 0 220.5 -84t78.5 -234v-131q0 -198 -133 -284h153q277 0 277 284v484
q0 268 -277 268h-207q-106 0 -184 -72q-17 -14 -27 0l-18 21q-12 15 4 28q90 90 219 90zM453 475l96 -407h184q123 0 190.5 71.5t67.5 202.5v133q0 258 -239 258h-43q-121 0 -188.5 -69.5t-67.5 -188.5z" />
    <glyph glyph-name="uniFEEA" unicode="&#x647;" horiz-adv-x="1087" arabic-form="final" 
d="M1075 68h12q17 0 17 -19v-31q0 -18 -17 -18h-20q-239 0 -285 225q-76 -166 -278 -166h-19q-147 0 -232 90t-85 246v199q0 154 86 241t240 87h14q186 0 264 -140v168q0 21 19 21h28q19 0 19 -21v-622q0 -260 237 -260zM496 127h16q124 0 192 74.5t68 208.5v184
q0 123 -68.5 191.5t-191.5 68.5h-16q-122 0 -191 -68.5t-69 -191.5v-184q0 -134 68.5 -208.5t191.5 -74.5z" />
    <glyph glyph-name="uniFEEB" unicode="&#x647;" horiz-adv-x="1331" arabic-form="initial" 
d="M614 1171h213q160 0 251 -88.5t91 -246.5v-484q0 -170 -87 -261t-248 -91h-834q-18 0 -18 18v31q0 19 18 19h238l-101 415q0 146 88 232t236 86h47q143 0 222 -83t79 -235v-131q0 -195 -133 -284h151q275 0 275 284v484q0 127 -72 197.5t-203 70.5h-206q-107 0 -185 -72
q-16 -13 -26 0l-19 21q-12 14 2 28q96 90 221 90zM205 475l96 -407h184q123 0 190.5 71.5t67.5 202.5v133q0 258 -239 258h-43q-121 0 -188.5 -68t-67.5 -190z" />
    <glyph glyph-name="uniFEEC" unicode="&#x647;" horiz-adv-x="1046" arabic-form="medial" 
d="M760 68h287q16 0 16 -19v-31q0 -18 -16 -18h-299l133 -385q8 -19 2 -29l-15 -18q-7 -10 -22 -10h-330q-156 0 -241 87t-85 255v100h-190q-18 0 -18 18v31q0 19 18 19h190v526q0 155 87.5 243.5t236.5 84.5l66 -2q151 -1 237 -90t86 -238v-240q0 -196 -143 -284zM258 594
v-526h315q125 0 195 75.5t70 208.5v240q0 118 -68 186.5t-190 73.5l-66 2q-119 5 -187.5 -64t-68.5 -196zM500 -375h309l-131 375h-420v-100q0 -131 63 -203t179 -72z" />
    <glyph glyph-name="uniFEEE" unicode="&#x648;" horiz-adv-x="1038" arabic-form="final" 
d="M842 68h196q19 0 19 -19v-31q0 -18 -19 -18h-198v-111q0 -158 -90.5 -244.5t-255.5 -86.5h-95q-140 0 -223 86q-13 13 -4 26l18 21q14 10 29 -2q67 -64 182 -64h93q135 0 207.5 67.5t72.5 192.5v115h-287q-146 0 -230.5 91t-84.5 247v256q0 152 87 240t237 88h20
q152 0 239 -87t87 -241v-526zM238 594v-242q0 -134 68.5 -209t191.5 -75h276v526q0 123 -69 191.5t-191 68.5h-16q-122 0 -191 -68.5t-69 -191.5z" />
    <glyph glyph-name="uniFEF0" unicode="&#x649;" horiz-adv-x="1959" arabic-form="final" 
d="M1724 68h236q18 0 18 -23v-25q0 -20 -18 -20h-281q-20 0 -20 20v814h-270q-127 0 -197 -73.5t-70 -207.5v-680q0 -148 -91.5 -228.5t-258.5 -80.5h-213q-185 0 -288 106t-103 293q0 203 129 381q15 15 31 6l18 -12q14 -8 4 -31q-114 -169 -114 -340q0 -160 85.5 -249
t237.5 -89h213q134 0 208.5 64.5t74.5 179.5v680q0 165 87 256.5t247 91.5h315q20 0 20 -20v-813z" />
    <glyph glyph-name="uniFEF2" unicode="&#x64a;" horiz-adv-x="1959" arabic-form="final" 
d="M1724 68h236q18 0 18 -23v-25q0 -20 -18 -20h-281q-20 0 -20 20v814h-270q-127 0 -197 -73.5t-70 -207.5v-680q0 -148 -91.5 -228.5t-258.5 -80.5h-213q-185 0 -288 106t-103 293q0 203 129 381q15 15 31 6l18 -12q14 -8 4 -31q-114 -169 -114 -340q0 -160 85.5 -249
t237.5 -89h213q134 0 208.5 64.5t74.5 179.5v680q0 165 87 256.5t247 91.5h315q20 0 20 -20v-813zM496 -635h39q16 0 16 -16v-109q0 -18 -16 -18h-39q-19 0 -19 18v109q0 16 19 16zM754 -635h39q16 0 16 -16v-109q0 -18 -16 -18h-39q-19 0 -19 18v109q0 16 19 16z" />
    <glyph glyph-name="uniFEF3" unicode="&#x64a;" horiz-adv-x="632" arabic-form="initial" 
d="M127 0h-127q-18 0 -18 18v31q0 19 18 19h127q128 0 188 54t60 171v588q0 20 20 20h27q20 0 20 -20v-588q0 -150 -76 -221.5t-239 -71.5zM115 -336h-39q-19 0 -19 19v108q0 16 19 16h39q16 0 16 -16v-108q0 -19 -16 -19zM373 -336h-39q-19 0 -19 19v108q0 16 19 16h39
q16 0 16 -16v-108q0 -19 -16 -19z" />
    <glyph glyph-name="uniFEF4" unicode="&#x64a;" horiz-adv-x="722" arabic-form="medial" 
d="M688 68h35q18 0 18 -19v-31q0 -18 -18 -18h-35q-215 0 -268 152q-62 -152 -293 -152h-127q-18 0 -18 18v31q0 19 18 19h127q128 0 188 54t60 171v588q0 20 20 20h27q20 0 20 -20v-533q0 -153 56 -216.5t190 -63.5zM252 -193h39q16 0 16 -16v-108q0 -19 -16 -19h-39
q-19 0 -19 19v108q0 16 19 16zM510 -193h39q16 0 16 -16v-108q0 -19 -16 -19h-39q-18 0 -18 19v108q0 16 18 16z" />
    <glyph glyph-name=".notdef" horiz-adv-x="0" 
 />
    <glyph glyph-name=".null" horiz-adv-x="0" 
 />
    <glyph glyph-name="nonmarkingreturn" horiz-adv-x="681" 
 />
    <glyph glyph-name="CR" unicode="&#xd;" horiz-adv-x="0" 
 />
    <glyph glyph-name="space" unicode=" " horiz-adv-x="573" 
 />
    <glyph glyph-name="exclam" unicode="!" 
d="M549 418h-25q-20 0 -20 20v914q0 20 20 20h25q22 0 22 -20v-914q0 -20 -22 -20zM561 0h-49q-20 0 -20 20v127q0 21 20 21h49q21 0 21 -21v-127q0 -20 -21 -20z" />
    <glyph glyph-name="quotedbl" unicode="&#x22;" 
d="M342 1065h-25q-22 0 -22 22v408q0 21 22 21h25q20 0 20 -21v-408q0 -22 -20 -22zM762 1065h-25q-20 0 -20 22v408q0 21 20 21h25q20 0 20 -21v-408q0 -22 -20 -22z" />
    <glyph glyph-name="numbersign" unicode="#" 
d="M858 934h123q23 0 23 -21v-18q0 -21 -23 -21h-135l-88 -378h147q21 0 21 -23v-16q0 -21 -21 -21h-160l-96 -416q-6 -20 -24 -20h-29q-19 0 -12 23l94 413h-397l-97 -416q-3 -20 -22 -20h-29q-17 0 -14 23l94 413h-121q-22 0 -22 21v16q0 23 22 23h135l88 378h-147
q-21 0 -21 21v18q0 21 21 21h160l96 416q6 20 25 20h26q20 0 14 -20l-96 -416h400l96 416q3 20 22 20h27q19 0 16 -20zM293 496h399l88 378h-399z" />
    <glyph glyph-name="dollar" unicode="$" 
d="M920 340q0 -160 -89.5 -254.5t-246.5 -105.5v-164q0 -21 -21 -21h-24q-21 0 -21 21v164q-204 9 -348 184q-15 15 2 29l21 14q17 12 30 -4q133 -160 326 -160q142 0 222.5 78.5t80.5 218.5q0 223 -238 297l-163 53q-275 86 -275 338q0 160 90.5 255t251.5 106v165
q0 21 21 21h24q21 0 21 -21v-163q115 -6 286 -101q22 -15 7 -30l-13 -19q-9 -12 -24 -6q-182 92 -283 92q-146 0 -229.5 -79t-83.5 -218q0 -205 241 -278l158 -52q277 -89 277 -360z" />
    <glyph glyph-name="percent" unicode="%" 
d="M397 784q-45 -51 -133 -51t-133 51t-45 140v268q0 89 45.5 138.5t132.5 49.5q86 0 131 -49.5t45 -138.5v-268q0 -88 -43 -140zM264 780q123 0 123 138v280q0 64 -32 99.5t-91 35.5q-125 0 -125 -135v-280q0 -138 125 -138zM182 102l-12 11q-12 9 -2 26l694 1125
q16 19 31 4l8 -8q15 -9 2 -29l-692 -1125q-13 -17 -29 -4zM942 43q-45 -51 -133 -51q-89 0 -131 51q-45 48 -45 137v271q0 89 45 138.5t131 49.5q87 0 132.5 -49.5t45.5 -138.5v-271q0 -89 -45 -137zM809 39q125 0 125 137v281q0 135 -125 135q-59 0 -91 -35.5t-32 -99.5
v-281q0 -137 123 -137z" />
    <glyph glyph-name="ampersand" unicode="&#x26;" 
d="M829 233l152 -208q6 -7 2 -16t-14 -9h-35q-17 0 -33 23l-110 153q-72 -91 -169.5 -143.5t-195.5 -52.5q-159 0 -255.5 90t-96.5 233q0 228 215 375l92 65q-98 136 -135 207q-39 74 -39 160q0 122 79.5 201.5t198.5 79.5q120 0 190 -73t70 -190q0 -202 -215 -358l-59 -43
l317 -438q96 170 123 424q0 20 23 20h22q21 0 21 -20q-30 -291 -148 -480zM276 1114q0 -73 35 -141q39 -76 121 -193l60 41q186 134 186 297q0 94 -50 151.5t-139 57.5q-91 0 -152 -61t-61 -152zM426 43q88 0 176 50.5t150 135.5l-332 461l-90 -65q-189 -136 -189 -316
q0 -121 78 -193.5t207 -72.5z" />
    <glyph glyph-name="quotesingle" unicode="'" 
d="M549 1065h-25q-20 0 -20 22v408q0 21 20 21h25q22 0 22 -21v-408q0 -22 -22 -22z" />
    <glyph glyph-name="parenleft" unicode="(" 
d="M809 -188h-80q-311 0 -311 290v1123q0 291 311 291h80q20 0 20 -21v-18q0 -21 -20 -21h-76q-131 0 -190.5 -55t-59.5 -176v-1123q0 -121 59.5 -176t190.5 -55h76q20 0 20 -21v-18q0 -20 -20 -20z" />
    <glyph glyph-name="parenright" unicode=")" 
d="M346 -188h-80q-20 0 -20 20v18q0 21 20 21h76q131 0 190.5 55t59.5 176v1123q0 121 -59.5 176t-190.5 55h-76q-20 0 -20 21v18q0 21 20 21h80q311 0 311 -291v-1123q0 -290 -311 -290z" />
    <glyph glyph-name="asterisk" unicode="*" 
d="M373 805l-19 10q-19 9 -6 29l133 203l-209 77q-20 9 -14 27l6 18q9 19 29 13l211 -76v248q0 20 20 20h19q22 0 22 -20v-250l213 80q18 6 27 -13l6 -16q10 -20 -12 -29l-209 -79l131 -203q13 -20 -6 -29l-19 -10q-16 -13 -28 6l-131 205l-136 -205q-12 -19 -28 -6z" />
    <glyph glyph-name="plus" unicode="+" 
d="M569 588h299q21 0 21 -21v-20q0 -23 -21 -23h-299v-309q0 -20 -20 -20h-23q-20 0 -20 20v309h-299q-21 0 -21 23v20q0 21 21 21h299v311q0 21 20 21h23q20 0 20 -21v-311z" />
    <glyph glyph-name="comma" unicode="," 
d="M510 -227h-14q-19 0 -13 20l54 207h-19q-22 0 -22 20v127q0 21 22 21h49q21 0 21 -21v-127q0 -19 -6 -43l-45 -182q-6 -22 -27 -22z" />
    <glyph glyph-name="hyphen" unicode="-" 
d="M768 524h-465q-20 0 -20 23v20q0 21 20 21h465q23 0 23 -21v-20q0 -23 -23 -23z" />
    <glyph glyph-name="period" unicode="." 
d="M559 0h-49q-21 0 -21 20v127q0 21 21 21h49q21 0 21 -21v-127q0 -20 -21 -20z" />
    <glyph glyph-name="slash" unicode="/" 
d="M297 0h-29q-21 0 -12 27l496 1325q9 20 26 20h27q20 0 14 -24l-497 -1328q-9 -20 -25 -20z" />
    <glyph glyph-name="zero" unicode="0" 
d="M797 76q-93 -96 -260 -96q-168 0 -261 96q-92 95 -92 266v686q0 172 93 267.5t260 95.5t259.5 -95.5t92.5 -267.5v-686q0 -171 -92 -266zM328 121q75 -78 209 -78q133 0 211 78q73 76 73 217v694q0 140 -74.5 217.5t-209.5 77.5t-210 -77.5t-75 -217.5v-694
q0 -141 76 -217z" />
    <glyph glyph-name="one" unicode="1" 
d="M614 61h322q20 0 20 -20v-21q0 -20 -20 -20h-725q-21 0 -21 20v21q0 20 21 20h336v1219l-234 -229q-7 -6 -14.5 -3t-7.5 11v43q0 16 12 28l234 228q14 14 30 14h27q20 0 20 -20v-1291z" />
    <glyph glyph-name="two" unicode="2" 
d="M276 61h594q21 0 21 -20v-21q0 -20 -21 -20h-663q-21 0 -21 20v21q0 18 13 31q362 395 495 596q131 198 131 358q0 136 -78.5 218.5t-211.5 82.5q-85 0 -147 -27t-132 -98q-13 -13 -29 -4l-20 16q-17 14 -2 29q142 148 330 148q164 0 261 -100.5t97 -266.5
q0 -167 -127 -371q-126 -197 -490 -592z" />
    <glyph glyph-name="three" unicode="3" 
d="M668 690q192 -73 192 -344q0 -171 -92 -268.5t-256 -97.5q-189 0 -326 149q-14 13 2 29l21 14q16 9 29 -4q116 -125 274 -125q133 0 207 80.5t74 222.5q0 316 -271 316h-55q-21 0 -21 20v20q0 23 21 23h55q271 0 271 299q0 143 -74.5 223.5t-204.5 79.5q-77 0 -138 -27
t-132 -98q-15 -15 -29 -4l-20 16q-15 16 -2 29q78 79 153.5 113.5t169.5 34.5q161 1 252.5 -97t91.5 -270q0 -264 -192 -334z" />
    <glyph glyph-name="four" unicode="4" 
d="M772 469h105q20 0 20 -20v-21q0 -20 -20 -20h-105v-388q0 -20 -20 -20h-27q-20 0 -20 20v388h-555q-21 0 -21 20v21q0 18 14 38l551 867q9 18 31 18h27q20 0 20 -20v-883zM705 1251l-500 -782h500v782z" />
    <glyph glyph-name="five" unicode="5" 
d="M557 856q327 0 330 -364v-154q0 -170 -91.5 -264t-256.5 -94q-194 0 -308 147q-13 13 2 29l21 16q14 11 29 -4q101 -125 256 -125q130 0 204 78t74 215v158q0 297 -264 297q-154 0 -252 -119q-17 -17 -33 -17h-16q-21 0 -21 23v674q0 20 21 20h567q21 0 21 -20v-21
q0 -20 -21 -20h-518v-561q112 106 256 106z" />
    <glyph glyph-name="six" unicode="6" 
d="M557 844q158 0 245 -94.5t87 -264.5v-143q0 -172 -87.5 -267t-246.5 -95q-160 0 -248 95t-88 267l2 682q0 174 88.5 270.5t249.5 96.5q96 0 165 -33t130 -115q14 -15 0 -29l-20 -14q-14 -11 -29 4q-59 71 -112.5 97t-133.5 26q-129 0 -198.5 -77.5t-69.5 -223.5v-330
q74 148 266 148zM821 338v147q0 141 -69.5 218t-196.5 77q-254 0 -266 -270v-172q0 -140 69.5 -217.5t196.5 -77.5t196.5 77.5t69.5 217.5z" />
    <glyph glyph-name="seven" unicode="7" 
d="M190 1372h697q20 0 20 -20v-21q0 -11 -4 -31l-483 -1282q-9 -18 -25 -18h-33q-23 0 -14 25l486 1286h-644q-20 0 -20 20v21q0 20 20 20z" />
    <glyph glyph-name="eight" unicode="8" 
d="M666 692q103 -38 162 -132t59 -224q0 -159 -99.5 -257.5t-259.5 -98.5q-154 0 -248 98t-94 258q0 130 56 224t155 132q-94 38 -146 128t-52 214q0 161 90 259t239 98q155 0 250.5 -98t95.5 -259q0 -124 -55 -214t-153 -128zM266 1030q0 -137 72.5 -222t189.5 -85
q124 0 201.5 85t77.5 222q0 134 -77 215.5t-202 81.5q-118 0 -190 -81.5t-72 -215.5zM528 43q129 0 210 82t81 215q0 145 -80.5 233.5t-210.5 88.5q-123 0 -198.5 -88t-75.5 -234q0 -133 75.5 -215t198.5 -82z" />
    <glyph glyph-name="nine" unicode="9" 
d="M272 1296q86 95 246 95q159 0 248 -95q88 -94 88 -268l-2 -682q0 -174 -88.5 -271.5t-249.5 -97.5q-96 0 -165 33t-130 115q-17 17 2 29l19 14q15 9 28 -4q59 -71 112.5 -97t133.5 -26q129 0 198.5 77.5t69.5 223.5v332q-74 -148 -266 -148q-156 0 -244 94.5t-88 264.5
v143q0 174 88 268zM518 590q254 0 266 270v172q0 140 -69.5 217.5t-196.5 77.5t-196.5 -77.5t-69.5 -217.5v-147q0 -141 69.5 -218t196.5 -77z" />
    <glyph glyph-name="colon" unicode=":" 
d="M559 754h-49q-21 0 -21 22v125q0 21 21 21h49q21 0 21 -21v-125q0 -22 -21 -22zM559 0h-49q-21 0 -21 20v127q0 21 21 21h49q21 0 21 -21v-127q0 -20 -21 -20z" />
    <glyph glyph-name="semicolon" unicode=";" 
d="M559 754h-49q-21 0 -21 22v125q0 21 21 21h49q21 0 21 -21v-125q0 -22 -21 -22zM510 -227h-14q-19 0 -13 20l54 207h-19q-22 0 -22 20v127q0 21 22 21h49q21 0 21 -21v-127q0 -19 -6 -43l-45 -182q-6 -22 -27 -22z" />
    <glyph glyph-name="less" unicode="&#x3c;" 
d="M881 10l-664 461q-18 9 -18 25v24q0 13 18 25l664 461q7 6 16.5 1.5t9.5 -14.5v-24q0 -17 -18 -29l-610 -434l610 -428q18 -12 18 -29v-26q0 -12 -9.5 -15.5t-16.5 2.5z" />
    <glyph glyph-name="equal" unicode="=" 
d="M868 711h-661q-21 0 -21 20v21q0 22 21 22h661q21 0 21 -22v-21q0 -20 -21 -20zM868 342h-661q-21 0 -21 20v21q0 20 21 20h661q21 0 21 -20v-21q0 -20 -21 -20z" />
    <glyph glyph-name="greater" unicode="&#x3e;" 
d="M891 471l-664 -461q-11 -6 -17.5 -2.5t-6.5 15.5v26q0 19 16 29l610 428l-610 434q-16 10 -16 29v24q0 11 6.5 15t17.5 -2l664 -461q18 -12 18 -25v-24q0 -16 -18 -25z" />
    <glyph glyph-name="question" unicode="?" 
d="M545 414h-27q-20 0 -20 22v27q0 82 55 149l156 195q92 109 92 246q0 120 -90 198q-88 76 -213 76q-156 0 -265 -145q-14 -14 -28 -6l-21 16q-6 5 -8 13t4 14q126 172 318 172q152 0 264 -95q108 -95 108 -237q0 -154 -102 -277l-154 -190q-49 -58 -49 -133v-23
q0 -22 -20 -22zM555 0h-49q-21 0 -21 20v127q0 21 21 21h49q23 0 23 -21v-127q0 -20 -23 -20z" />
    <glyph glyph-name="at" unicode="@" 
d="M537 -379q-216 0 -337.5 107.5t-121.5 298.5v923q0 207 121.5 324t337.5 117t337 -117t121 -324v-725q0 -243 -200 -243q-65 0 -112.5 30.5t-51.5 85.5q-60 -118 -213 -118q-112 0 -159 71.5t-21 200.5l110 520q53 262 262 262q149 0 170 -133l19 88q7 17 20 17h25
q21 0 12 -21l-174 -827q-11 -52 26 -83.5t93 -31.5q83 0 121.5 50.5t38.5 164.5v692q0 192 -111.5 300t-312.5 108q-202 0 -313 -107.5t-111 -300.5v-923q0 -177 111 -275t313 -98q117 0 195 34t151 119q8 8 16 5l10 -9q10 -6 0 -16q-82 -91 -165.5 -128.5t-206.5 -37.5z
M430 43q87 0 134 48t71 155l108 510q17 104 -18.5 159.5t-112.5 55.5q-155 0 -198 -199l-111 -524q-43 -205 127 -205z" />
    <glyph glyph-name="A" unicode="A" 
d="M569 1354l418 -1329q6 -25 -16 -25h-27q-20 0 -26 20l-132 426h-497l-131 -426q-6 -20 -27 -20h-29q-20 0 -14 25l416 1329q6 18 22 18h21q16 0 22 -18zM768 510l-231 743l-230 -743h461z" />
    <glyph glyph-name="B" unicode="B" 
d="M674 696q123 -32 188.5 -119.5t65.5 -216.5q0 -168 -107 -264t-297 -96h-305q-20 0 -20 20v1332q0 20 20 20h301q177 0 278 -97t101 -267q0 -242 -225 -312zM829 1008q0 141 -81.5 220t-227.5 79h-254v-578h250q147 0 230 74t83 205zM266 66h258q158 0 247 78.5t89 217.5
q0 141 -90.5 220.5t-251.5 79.5h-252v-596z" />
    <glyph glyph-name="C" unicode="C" 
d="M563 -20q-174 0 -272 106t-98 295v608q0 189 98.5 295.5t271.5 106.5q122 0 207 -47.5t154 -149.5q9 -18 -6 -27l-27 -18q-14 -8 -27 8q-63 90 -132.5 129t-168.5 39q-142 0 -221.5 -88.5t-79.5 -247.5v-608q0 -159 79.5 -247.5t221.5 -88.5q99 0 168.5 39t132.5 129
q13 16 27 8l27 -18q15 -9 6 -27q-69 -102 -154 -149t-207 -47z" />
    <glyph glyph-name="D" unicode="D" 
d="M203 1372h348q180 0 273.5 -105.5t93.5 -308.5v-583q0 -178 -95 -276.5t-272 -98.5h-348q-21 0 -21 20v1332q0 20 21 20zM848 375v583q0 349 -297 349h-299v-1241h299q297 0 297 309z" />
    <glyph glyph-name="E" unicode="E" 
d="M870 1307h-553v-580h494q20 0 20 -22v-23q0 -23 -20 -23h-494v-593h553q21 0 21 -21v-25q0 -20 -21 -20h-600q-22 0 -22 20v1332q0 20 22 20h600q21 0 21 -20v-25q0 -20 -21 -20z" />
    <glyph glyph-name="F" unicode="F" 
d="M305 1372h598q21 0 21 -20v-25q0 -20 -21 -20h-551v-578h492q20 0 20 -22v-25q0 -20 -20 -20h-492v-642q0 -20 -20 -20h-27q-20 0 -20 20v1332q0 20 20 20z" />
    <glyph glyph-name="G" unicode="G" 
d="M567 727h338q21 0 21 -22v-324q0 -189 -97 -295t-270 -106q-176 0 -272.5 105.5t-96.5 295.5v608q0 189 98.5 295.5t272.5 106.5q122 0 207 -47.5t154 -149.5q9 -18 -7 -27l-26 -18q-14 -8 -27 8q-63 91 -132 129.5t-169 38.5q-142 0 -221.5 -88.5t-79.5 -247.5v-608
q0 -159 79 -247.5t220 -88.5q140 0 218.5 88.5t78.5 247.5v278h-289q-20 0 -20 23v23q0 22 20 22z" />
    <glyph glyph-name="H" unicode="H" 
d="M856 1372h27q20 0 20 -20v-1332q0 -20 -20 -20h-27q-20 0 -20 20v642h-598v-642q0 -20 -21 -20h-27q-20 0 -20 20v1332q0 20 20 20h27q21 0 21 -20v-623h598v623q0 20 20 20z" />
    <glyph glyph-name="I" unicode="I" 
d="M868 1307h-295v-1241h295q21 0 21 -21v-25q0 -20 -21 -20h-663q-21 0 -21 20v25q0 21 21 21h299v1241h-299q-21 0 -21 20v25q0 20 21 20h663q21 0 21 -20v-25q0 -20 -21 -20z" />
    <glyph glyph-name="J" unicode="J" 
d="M262 1372h576q20 0 20 -20v-971q0 -189 -98 -295t-271 -106q-122 0 -206.5 47t-153.5 149q-12 18 4 27l29 18q10 8 26 -8q61 -90 131 -129t170 -39q142 0 222 88.5t80 247.5v926h-529q-20 0 -20 20v25q0 20 20 20z" />
    <glyph glyph-name="K" unicode="K" 
d="M530 780l451 -753q6 -11 3 -19t-15 -8h-29q-22 0 -31 18l-420 705l-237 -334v-369q0 -20 -21 -20h-26q-21 0 -21 20v1332q0 20 21 20h26q21 0 21 -20v-840l612 842q9 18 29 18h29q11 0 14.5 -8t-2.5 -18z" />
    <glyph glyph-name="L" unicode="L" 
d="M324 66h575q21 0 21 -21v-25q0 -20 -21 -20h-625q-20 0 -20 20v1332q0 20 20 20h27q23 0 23 -20v-1286z" />
    <glyph glyph-name="M" unicode="M" 
d="M862 1372h27q20 0 20 -20v-1332q0 -20 -20 -20h-27q-22 0 -22 20v1199l-273 -707q-6 -20 -26 -20h-19q-20 0 -26 20l-263 698v-1190q0 -20 -22 -20h-27q-20 0 -20 20v1332q0 20 20 20h27h6q17 -4 23 -20l290 -766l304 766q9 20 26 20h2z" />
    <glyph glyph-name="N" unicode="N" 
d="M862 1372h27q22 0 22 -20v-1332q0 -20 -22 -20h-27h-4q-13 3 -22 18l-603 1194v-1192q0 -20 -22 -20h-27q-20 0 -20 20v1332q0 20 20 20h27h4q17 -3 25 -20l602 -1200v1200q0 20 20 20z" />
    <glyph glyph-name="O" unicode="O" 
d="M807 86q-93 -106 -270 -106q-178 0 -271 106q-96 110 -96 295v608q0 189 97 295.5t270 106.5t269.5 -106.5t96.5 -295.5v-608q0 -185 -96 -295zM317 133q76 -88 220 -88q142 0 221 88q78 90 78 248v608q0 159 -79 247.5t-220 88.5t-220 -88.5t-79 -247.5v-608
q0 -160 79 -248z" />
    <glyph glyph-name="P" unicode="P" 
d="M250 1372h309q179 0 281 -105.5t102 -285.5t-102 -285.5t-281 -105.5h-260v-570q0 -20 -23 -20h-26q-21 0 -21 20v1332q0 20 21 20zM299 657h256q152 0 235.5 85.5t83.5 238.5t-84 239.5t-235 86.5h-256v-650z" />
    <glyph glyph-name="Q" unicode="Q" 
d="M819 100l105 -116q13 -17 -2 -29l-19 -18q-16 -13 -31 2l-102 112q-89 -71 -233 -71q-173 0 -270 106t-97 295v608q0 189 97 295.5t270 106.5t269.5 -106.5t96.5 -295.5v-608q0 -177 -84 -281zM537 45q113 0 188 57l-158 177q-12 14 2 28l19 17q15 15 30 0l154 -172
q64 88 64 229v608q0 159 -79 247.5t-220 88.5t-220 -88.5t-79 -247.5v-608q0 -159 79 -247.5t220 -88.5z" />
    <glyph glyph-name="R" unicode="R" 
d="M616 649l322 -622q12 -27 -12 -27h-29q-22 0 -33 20l-317 623h-10q-106 0 -269 10v-633q0 -20 -20 -20h-27q-20 0 -20 20v1332q0 20 20 20h320q177 0 278 -94.5t101 -259.5q0 -151 -81 -248.5t-223 -120.5zM268 1307v-598h264q147 0 232.5 82t85.5 227q0 135 -81.5 212
t-227.5 77h-273z" />
    <glyph glyph-name="S" unicode="S" 
d="M530 -20q-139 0 -237 50.5t-174 157.5q-13 14 2 29l22 14q15 12 35 -4q131 -180 350 -180q156 0 244 78t88 217q0 219 -239 295l-211 63q-269 77 -269 332q0 163 109 261t287 98q86 0 157 -22.5t180 -84.5q8 -5 10.5 -15t-1.5 -16l-17 -22q-11 -13 -32 -4
q-166 96 -302 96q-143 0 -232 -80.5t-89 -210.5q0 -195 221 -266l209 -64q287 -86 287 -362q0 -169 -107 -264.5t-291 -95.5z" />
    <glyph glyph-name="T" unicode="T" 
d="M121 1372h831q21 0 21 -20v-25q0 -20 -21 -20h-379v-1287q0 -20 -22 -20h-27q-20 0 -20 20v1287h-383q-21 0 -21 20v25q0 20 21 20z" />
    <glyph glyph-name="U" unicode="U" 
d="M807 86q-93 -106 -270 -106q-178 0 -271 106q-96 110 -96 295v971q0 20 20 20h27q21 0 21 -20v-971q0 -159 79 -247.5t220 -88.5t220 88.5t79 247.5v971q0 20 20 20h27q20 0 20 -20v-971q0 -185 -96 -295z" />
    <glyph glyph-name="V" unicode="V" 
d="M547 0h-23q-16 0 -22 18l-414 1330q-6 24 14 24h29q21 0 27 -20l379 -1237l378 1237q6 20 27 20h29q20 0 14 -24l-414 -1328q-6 -20 -24 -20z" />
    <glyph glyph-name="W" unicode="W" 
d="M307 0h-28q-17 0 -23 18l-168 1328q-3 26 16 26h29q22 0 25 -20l147 -1200l195 892q3 21 22 21h29q19 0 22 -21l197 -892l145 1200q3 20 25 20h27q21 0 18 -24l-168 -1328q-3 -20 -20 -20h-29q-22 0 -25 20l-206 902l-205 -902q-6 -20 -25 -20z" />
    <glyph glyph-name="X" unicode="X" 
d="M578 707l391 -684q6 -11 2 -17t-15 -6h-30q-20 0 -29 18l-360 639l-361 -639q-9 -18 -29 -18h-30q-8 0 -12.5 8t-0.5 15l394 684l-367 641q-9 24 14 24h29q20 0 29 -18l334 -598l333 598q12 18 29 18h29q23 0 14 -24z" />
    <glyph glyph-name="Y" unicode="Y" 
d="M922 1372h30q26 0 17 -24l-398 -758v-570q0 -20 -20 -20h-27q-22 0 -22 20v570l-396 758q-9 24 17 24h31q15 0 26 -20l357 -686l358 686q9 20 27 20z" />
    <glyph glyph-name="Z" unicode="Z" 
d="M215 66h700q21 0 21 -21v-22q0 -23 -21 -23h-759q-21 0 -21 20v25v2q0 21 8 29l705 1231h-684q-21 0 -21 20v25q0 20 21 20h743q21 0 21 -20v-25v-2q0 -21 -8 -29z" />
    <glyph glyph-name="bracketleft" unicode="[" 
d="M809 1456h-328v-1585h328q20 0 20 -21v-18q0 -20 -20 -20h-369q-22 0 -22 20v1663q0 21 22 21h369q20 0 20 -21v-18q0 -21 -20 -21z" />
    <glyph glyph-name="backslash" unicode="\" 
d="M805 0h-29q-15 0 -24 20l-498 1328q-6 24 14 24h27q18 0 27 -20l495 -1325q9 -27 -12 -27z" />
    <glyph glyph-name="bracketright" unicode="]" 
d="M264 1516h369q22 0 22 -21v-1663q0 -20 -22 -20h-369q-20 0 -20 20v18q0 21 20 21h328v1585h-328q-20 0 -20 21v18q0 21 20 21z" />
    <glyph glyph-name="asciicircum" unicode="^" 
d="M197 713h-25q-10 0 -15.5 8t-0.5 16l346 760q6 19 24 19h21q18 0 24 -19l347 -760q9 -24 -15 -24h-31q-15 0 -24 18l-311 676l-312 -676q-9 -18 -28 -18z" />
    <glyph glyph-name="underscore" unicode="_" 
d="M868 -215h-663q-21 0 -21 20v21q0 20 21 20h663q21 0 21 -20v-21q0 -20 -21 -20z" />
    <glyph glyph-name="a" unicode="a" 
d="M926 51h24q15 0 15 -16v-25q0 -14 -13 -14q-24 -6 -45 -6q-116 0 -119 139q-79 -149 -282 -149q-161 0 -250.5 95t-89.5 267v328q0 173 89.5 268.5t250.5 95.5q196 0 278 -143v96q0 19 19 19h28q21 0 21 -23v-823q0 -60 16.5 -84.5t57.5 -24.5zM784 262v490q0 91 -74 154
t-194 63q-134 0 -208.5 -77t-74.5 -216v-338q0 -139 74.5 -216t208.5 -77q120 0 194 63t74 154z" />
    <glyph glyph-name="b" unicode="b" 
d="M549 1034q161 0 250.5 -95.5t89.5 -268.5v-328q0 -172 -89.5 -267t-250.5 -95q-197 0 -279 141v-101q0 -20 -20 -20h-27q-20 0 -20 20v1475q0 21 20 21h27q20 0 20 -21v-604q82 143 279 143zM821 338v338q0 139 -74 216t-208 77q-120 0 -194.5 -63t-74.5 -154v-490
q0 -91 74.5 -154t194.5 -63q134 0 208 77t74 216z" />
    <glyph glyph-name="c" unicode="c" 
d="M575 -23q-159 0 -247 96.5t-88 268.5v328q0 172 88.5 268t249.5 96q93 0 159 -32.5t125 -112.5q14 -13 -2 -29l-16 -12q-16 -10 -31 2q-55 66 -110 93.5t-128 27.5q-127 0 -196.5 -78t-69.5 -221v-332q0 -143 69.5 -221t196.5 -78q73 0 128 27.5t110 93.5q18 12 31 2
l16 -12q16 -16 2 -29q-110 -146 -287 -146z" />
    <glyph glyph-name="d" unicode="d" 
d="M823 1516h27q20 0 20 -21v-1475q0 -20 -20 -20h-27q-20 0 -20 20v101q-83 -141 -279 -141q-161 0 -250.5 95t-89.5 267v328q0 173 89.5 268.5t250.5 95.5q197 0 279 -143v604q0 21 20 21zM535 45q120 0 194 63t74 154v490q0 91 -74 154t-194 63q-134 0 -208.5 -77
t-74.5 -216v-338q0 -139 74.5 -216t208.5 -77z" />
    <glyph glyph-name="e" unicode="e" 
d="M549 1034q161 0 248.5 -95t87.5 -269v-172q0 -21 -21 -21h-579v-137q0 -142 72.5 -220.5t203.5 -78.5q138 0 246 123q18 12 31 2l16 -12q17 -13 4 -29q-121 -148 -297 -148q-165 0 -254.5 96t-89.5 269v328q0 173 87 268.5t245 95.5zM285 674v-139l532 2v137
q0 142 -70 219.5t-198 77.5q-127 0 -195.5 -77t-68.5 -220z" />
    <glyph glyph-name="f" unicode="f" 
d="M1038 1391q12 -18 -4 -31l-14 -10q-16 -10 -31 2q-103 121 -237 121q-128 0 -197.5 -80t-69.5 -226v-161h310q20 0 20 -23v-18q0 -23 -20 -23h-310v-881h416q21 0 21 -20v-21q0 -20 -21 -20h-682q-22 0 -22 20v21q0 20 22 20h199v881h-199q-22 0 -22 23v18q0 23 22 23
h199v163q0 174 86.5 270.5t245.5 96.5q173 0 288 -145z" />
    <glyph glyph-name="g" unicode="g" 
d="M813 1006h31q20 0 20 -23v-1049q0 -178 -89 -271t-257 -93q-103 0 -176 31.5t-137 113.5q-13 16 2 31l12 10q11 8 31 -2q61 -73 117.5 -97t150.5 -24q279 0 279 297v191q-83 -141 -279 -141q-161 0 -250.5 95t-89.5 267v328q0 173 89.5 268.5t250.5 95.5q197 0 279 -143
v96q0 19 16 19zM528 45q120 0 194.5 63t74.5 154v490q0 91 -74.5 154t-194.5 63q-134 0 -208 -77t-74 -216v-338q0 -139 74 -216t208 -77z" />
    <glyph glyph-name="h" unicode="h" 
d="M555 1034q152 0 234.5 -95t82.5 -267v-652q0 -20 -22 -20h-27q-20 0 -20 20v652q0 141 -69.5 219t-196.5 78q-128 0 -197.5 -77t-69.5 -218v-654q0 -20 -20 -20h-27q-20 0 -20 20v1475q0 21 20 21h27q20 0 20 -21v-633q76 172 285 172z" />
    <glyph glyph-name="i" unicode="i" 
d="M571 1202h-28q-21 0 -21 21v137q0 22 21 22h28q21 0 21 -22v-137q0 -21 -21 -21zM588 61h368q23 0 23 -20v-21q0 -20 -23 -20h-802q-23 0 -23 20v21q0 20 23 20h366v881h-280q-23 0 -23 23v18q0 23 23 23h327q21 0 21 -23v-922z" />
    <glyph glyph-name="j" unicode="j" 
d="M651 1382h29q20 0 20 -22v-137q0 -21 -20 -21h-29q-20 0 -20 21v137q0 22 20 22zM213 1006h465q20 0 20 -23v-1051q0 -362 -333 -362q-175 0 -287 145q-13 19 2 31l18 12q13 10 31 -2q56 -68 109.5 -95.5t126.5 -27.5q266 0 266 297v1012h-418q-20 0 -20 23v18
q0 23 20 23z" />
    <glyph glyph-name="k" unicode="k" 
d="M588 625l360 -598q5 -11 1.5 -19t-13.5 -8h-29q-21 0 -30 18l-336 555l-226 -256v-297q0 -20 -20 -20h-27q-20 0 -20 20v1475q0 21 20 21h27q20 0 20 -21v-1071l512 563q16 19 33 19h29q12 0 16 -9t-4 -20z" />
    <glyph glyph-name="l" unicode="l" 
d="M573 61h367q23 0 23 -20v-21q0 -20 -23 -20h-803q-22 0 -22 20v21q0 20 22 20h367v1393h-283q-20 0 -20 21v20q0 21 20 21h330q22 0 22 -21v-1434z" />
    <glyph glyph-name="m" unicode="m" 
d="M750 1034q98 0 151 -65t53 -183v-766q0 -20 -20 -20h-27q-20 0 -20 20v766q0 84 -40.5 132.5t-109.5 48.5q-74 0 -119 -49.5t-45 -131.5v-766q0 -20 -20 -20h-27q-20 0 -20 20v766q0 86 -40 133.5t-110 47.5q-75 0 -119 -49.5t-44 -131.5v-766q0 -20 -21 -20h-27
q-20 0 -20 20v963q0 23 20 23h29q19 0 19 -23v-49q57 100 176 100q142 0 188 -137q52 137 193 137z" />
    <glyph glyph-name="n" unicode="n" 
d="M555 1034q152 0 234.5 -95t82.5 -267v-652q0 -20 -22 -20h-27q-20 0 -20 20v652q0 141 -69.5 219t-196.5 78q-128 0 -197.5 -77t-69.5 -218v-654q0 -20 -20 -20h-27q-20 0 -20 20v963q0 23 20 23h27q20 0 20 -23v-121q76 172 285 172z" />
    <glyph glyph-name="o" unicode="o" 
d="M797 76q-93 -96 -260 -96q-168 0 -261 96q-92 95 -92 266v328q0 173 93 268.5t260 95.5t259.5 -95.5t92.5 -268.5v-328q0 -171 -92 -266zM328 121q75 -78 209 -78q133 0 211 78q73 76 73 217v338q0 140 -74.5 217.5t-209.5 77.5t-210 -77.5t-75 -217.5v-338
q0 -141 76 -217z" />
    <glyph glyph-name="p" unicode="p" 
d="M549 1034q161 0 250.5 -95.5t89.5 -268.5v-328q0 -172 -89.5 -267t-250.5 -95q-197 0 -279 141v-510q0 -21 -20 -21h-27q-20 0 -20 21v1372q0 23 20 23h27q20 0 20 -23v-92q82 143 279 143zM821 338v338q0 139 -74 216t-208 77q-120 0 -194.5 -63t-74.5 -154v-490
q0 -91 74.5 -154t194.5 -63q134 0 208 77t74 216z" />
    <glyph glyph-name="q" unicode="q" 
d="M823 1006h27q20 0 20 -23v-1372q0 -21 -20 -21h-27q-20 0 -20 21v510q-83 -141 -279 -141q-161 0 -250.5 95t-89.5 267v328q0 173 89.5 268.5t250.5 95.5q197 0 279 -143v92q0 23 20 23zM535 45q120 0 194 63t74 154v490q0 91 -74 154t-194 63q-134 0 -208.5 -77
t-74.5 -216v-338q0 -139 74.5 -216t208.5 -77z" />
    <glyph glyph-name="r" unicode="r" 
d="M750 1006h145q23 0 23 -23v-20q0 -23 -23 -23h-156q-243 0 -264 -248v-631h381q21 0 21 -20v-21q0 -20 -21 -20h-682q-22 0 -22 20v21q0 20 22 20h232v881h-232q-20 0 -20 23v18q0 23 20 23h279q22 0 22 -23v-152q61 175 275 175z" />
    <glyph glyph-name="s" unicode="s" 
d="M563 -20q-202 0 -366 135q-16 16 -2 28l18 15q16 16 35 0q147 -117 315 -117q109 0 168.5 56t59.5 159q0 82 -45.5 133t-143.5 80l-158 49q-213 65 -213 250q0 128 77.5 197t217.5 69q160 0 293 -86q15 -15 6 -26l-16 -23q-9 -16 -29 -6q-116 78 -254 78q-109 0 -168 -52
t-59 -149q0 -130 174 -188l152 -45q119 -37 176 -103.5t57 -175.5q0 -134 -76.5 -206t-218.5 -72z" />
    <glyph glyph-name="t" unicode="t" 
d="M952 166l19 -12q15 -12 2 -29q-60 -80 -128.5 -114t-162.5 -34q-158 0 -244 92.5t-86 260.5v612h-192q-23 0 -23 23v18q0 23 23 23h192v346q0 20 21 20h26q21 0 21 -20v-346h395q21 0 21 -23v-18q0 -23 -21 -23h-395v-614q0 -135 69.5 -211t192.5 -76q76 0 130 27.5
t110 95.5q22 10 30 2z" />
    <glyph glyph-name="u" unicode="u" 
d="M815 1006h27q20 0 20 -23v-963q0 -20 -20 -20h-27q-20 0 -20 20v134q-67 -174 -263 -174q-154 0 -238.5 94t-84.5 266v643q0 23 22 23h27q21 0 21 -23v-643q0 -142 69 -218.5t197 -76.5q119 0 184.5 77t65.5 218v643q0 23 20 23z" />
    <glyph glyph-name="v" unicode="v" 
d="M551 0h-29q-16 0 -22 18l-367 963q-6 25 17 25h28q19 0 25 -21l334 -883l333 883q6 21 25 21h29q22 0 16 -25l-367 -963q-6 -18 -22 -18z" />
    <glyph glyph-name="w" unicode="w" 
d="M297 0h-33q-17 0 -20 18l-133 963q-6 25 14 25h29q21 0 24 -21l115 -858l213 694q10 19 24 19h17q19 0 22 -19l211 -694l115 858q3 21 25 21h26q23 0 17 -25l-134 -963q-3 -18 -22 -18h-31q-18 0 -24 20l-213 701l-220 -701q-6 -20 -22 -20z" />
    <glyph glyph-name="x" unicode="x" 
d="M575 510l334 -487q6 -7 2 -15t-14 -8h-31q-18 0 -30 18l-299 441l-299 -441q-12 -18 -31 -18h-31q-10 0 -14 8t2 15l334 485l-328 473q-4 7 1 16t13 9h33q17 0 27 -19l293 -430l292 430q9 19 27 19h33q8 0 13 -9t1 -16z" />
    <glyph glyph-name="y" unicode="y" 
d="M895 1006h29q22 0 16 -25l-416 -1096q-63 -165 -118 -233q-56 -62 -152 -62h-72q-20 0 -20 21v20q0 21 20 21h58q72 0 116 47q43 46 99 188l47 125l-369 969q-6 25 17 25h28q19 0 25 -21l332 -885l335 885q6 21 25 21z" />
    <glyph glyph-name="z" unicode="z" 
d="M270 61h592q21 0 21 -20v-21q0 -20 -21 -20h-651q-23 0 -23 20v21v4q4 17 11 25l589 872h-567q-20 0 -20 23v18q0 23 20 23h629q20 0 20 -23v-18v-2q0 -16 -8 -29z" />
    <glyph glyph-name="braceleft" unicode="{" 
d="M506 1225v-348q0 -179 -88 -213q88 -30 88 -211v-349q0 -121 60.5 -176t191.5 -55h73q23 0 23 -20v-19q0 -20 -23 -20h-77q-312 0 -312 288v342q0 113 -25.5 151t-103.5 38q-20 0 -20 20v23q0 20 20 20q77 0 103 38t26 149v342q0 291 312 291h77q23 0 23 -21v-18
q0 -21 -23 -21h-73q-131 0 -191.5 -55t-60.5 -176z" />
    <glyph glyph-name="bar" unicode="|" 
d="M551 -197h-25q-20 0 -20 21v1528q0 20 20 20h25q20 0 20 -20v-1528q0 -21 -20 -21z" />
    <glyph glyph-name="braceright" unicode="}" 
d="M760 696q20 0 20 -20v-23q0 -20 -20 -20q-78 0 -103.5 -38t-25.5 -151v-342q0 -288 -312 -288h-77q-23 0 -23 20v19q0 20 23 20h73q131 0 191.5 55t60.5 176v349q0 181 88 211q-88 34 -88 213v348q0 121 -60.5 176t-191.5 55h-73q-23 0 -23 21v18q0 21 23 21h77
q312 0 312 -291v-342q0 -111 26 -149t103 -38z" />
    <glyph glyph-name="asciitilde" unicode="~" 
d="M684 481q-60 0 -149 47q-86 45 -136 45q-92 0 -155 -75q-16 -16 -29 0l-14 14q-12 12 4 31q91 94 188 94q62 0 148 -45q89 -47 133 -47q81 0 151 76q16 13 29 0l14 -15q13 -16 -2 -31q-91 -94 -182 -94z" />
    <glyph glyph-name="exclamdown" unicode="&#xa1;" 
d="M512 1006h49q21 0 21 -21v-127q0 -20 -21 -20h-49q-20 0 -20 20v127q0 21 20 21zM524 588h25q22 0 22 -21v-913q0 -21 -22 -21h-25q-20 0 -20 21v913q0 21 20 21z" />
    <glyph glyph-name="cent" unicode="&#xa2;" 
d="M844 164l16 -12q16 -16 2 -29q-96 -134 -250 -143v-164q0 -21 -20 -21h-25q-20 0 -20 21v161q-146 11 -226.5 106t-80.5 259v328q0 164 79.5 259t227.5 105v164q0 21 20 21h25q20 0 20 -21v-166q149 -9 250 -143q14 -13 -2 -29l-16 -12q-16 -10 -31 2q-55 66 -110 93.5
t-128 27.5q-127 0 -196.5 -78t-69.5 -221v-332q0 -143 69.5 -221t196.5 -78q73 0 128 27.5t110 93.5q18 12 31 2z" />
    <glyph glyph-name="sterling" unicode="&#xa3;" 
d="M299 61h629q20 0 20 -20v-21q0 -20 -20 -20h-754q-20 0 -20 20v21q0 20 20 20q73 0 95 38t22 153v403h-113q-20 0 -20 21v18q0 21 20 21h113v311q0 173 82.5 269t234.5 96q101 0 173.5 -34t131.5 -112q13 -16 -2 -28l-18 -13q-13 -10 -31 2q-60 68 -116 94.5t-140 26.5
q-117 0 -182.5 -78t-65.5 -219v-315h463q21 0 21 -21v-18q0 -21 -21 -21h-463v-399q0 -157 -59 -195z" />
    <glyph glyph-name="currency" unicode="&#xa4;" 
d="M815 92l103 -168q9 -20 -5 -28l-24 -15q-19 -6 -27 8l-94 158q-85 -67 -227 -67q-137 0 -226 65l-94 -156q-10 -16 -24 -8l-27 15q-14 8 -4 28l100 166q-78 96 -78 252v328q0 156 78 252l-102 163q-10 20 4 29l27 14q15 9 24 -8l94 -153q85 67 228 67q141 0 231 -69
l92 155q9 18 25 8l26 -14q15 -9 5 -29l-101 -167q74 -92 74 -248v-328q0 -154 -78 -250zM332 121q75 -78 209 -78t209 78q73 76 73 217v338q0 140 -73.5 217.5t-208.5 77.5t-210 -77.5t-75 -217.5v-338q0 -141 76 -217z" />
    <glyph glyph-name="yen" unicode="&#xa5;" 
d="M922 1372h30q26 0 17 -24l-369 -705h268q21 0 21 -20v-19q0 -22 -21 -22h-297v-228h297q21 0 21 -20v-19q0 -22 -21 -22h-297v-273q0 -20 -20 -20h-27q-22 0 -22 20v273h-295q-21 0 -21 22v19q0 20 21 20h295v228h-295q-21 0 -21 22v19q0 20 21 20h266l-367 705
q-9 24 17 24h31q15 0 26 -20l357 -686l358 686q9 20 27 20z" />
    <glyph glyph-name="brokenbar" unicode="&#xa6;" 
d="M549 709h-25q-20 0 -20 20v623q0 20 20 20h25q20 0 20 -20v-623q0 -20 -20 -20zM549 -197h-25q-20 0 -20 21v622q0 21 20 21h25q20 0 20 -21v-622q0 -21 -20 -21z" />
    <glyph glyph-name="section" unicode="&#xa7;" 
d="M686 201q160 -109 160 -297q0 -128 -85 -206.5t-222 -78.5q-195 0 -324 135q-16 16 0 29l12 10q18 15 35 -2q112 -115 275 -115q111 0 178 62.5t67 163.5q0 98 -56 172.5t-159 115.5l-168 68q-227 88 -227 291q0 197 213 262q-160 92 -160 276q-4 100 50.5 174.5
t140.5 106.5t198.5 17.5t216.5 -80.5q20 -10 7 -27l-13 -18q-10 -16 -28 -7q-132 78 -248 78q-113 0 -185.5 -68t-72.5 -176q0 -180 192 -256l160 -61q134 -51 196 -124t62 -183q0 -96 -58 -166t-157 -96zM438 307l164 -63l16 -6q99 20 158.5 80t59.5 141q0 172 -213 252
l-168 67q-105 -23 -162 -82.5t-57 -142.5q0 -87 49 -145.5t153 -100.5z" />
    <glyph glyph-name="copyright" unicode="&#xa9;" 
d="M870 92q-124 -112 -333 -112q-210 0 -334 112q-125 110 -125 293v600q0 182 125 295q126 111 334 111q207 0 333 -111q125 -113 125 -295v-600q0 -183 -125 -293zM227 113q118 -103 310 -103q191 0 309 103q117 102 117 272v600q0 170 -117 272.5t-309 102.5t-309 -102.5
t-117 -272.5v-600q0 -171 116 -272zM539 250q-135 0 -207 86.5t-72 247.5v204q0 164 72 250t207 86q140 0 245 -120q18 -18 2 -27l-16 -8q-8 -8 -22 2q-102 102 -211 102q-224 0 -224 -287v-200q0 -287 224 -287q123 0 211 102q14 13 22 5l16 -11q15 -9 -2 -26
q-94 -119 -245 -119z" />
    <glyph glyph-name="ordfeminine" unicode="&#xaa;" 
d="M840 618h18q12 0 12 -12v-18q0 -13 -10 -13q-16 -4 -33 -4q-91 0 -94 105q-61 -113 -217 -113q-123 0 -192.5 74t-69.5 205v252q0 133 69.5 206.5t192.5 73.5q150 0 215 -108v71q0 15 14 15h23q16 0 16 -17v-635q0 -44 12.5 -63t43.5 -19zM731 780v377q0 69 -57.5 117.5
t-147.5 48.5q-104 0 -161.5 -59.5t-57.5 -165.5v-260q0 -106 57.5 -165t161.5 -59q90 0 147.5 48.5t57.5 117.5z" />
    <glyph glyph-name="guillemotleft" unicode="&#xab;" 
d="M528 127l-331 332q-15 15 -15 35v18q0 16 15 31l331 327q8 6 17.5 4t9.5 -12v-35q0 -18 -14 -32l-303 -293l303 -301q14 -14 14 -33v-33q0 -10 -9.5 -13t-17.5 5zM866 127l-331 332q-17 17 -17 35v18q0 14 17 31l331 327q6 7 15.5 4.5t9.5 -12.5v-35q0 -18 -14 -32
l-304 -293l304 -301q14 -14 14 -33v-33q0 -10 -9.5 -13t-15.5 5z" />
    <glyph glyph-name="logicalnot" unicode="&#xac;" 
d="M207 588h661q21 0 21 -21v-391q0 -20 -21 -20h-22q-21 0 -21 20v348h-618q-21 0 -21 23v20q0 21 21 21z" />
    <glyph glyph-name="registered" unicode="&#xae;" 
d="M203 1280q126 111 334 111q207 0 333 -111q125 -113 125 -295v-600q0 -183 -125 -293q-124 -112 -333 -112q-210 0 -334 112q-125 110 -125 293v600q0 182 125 295zM963 385v600q0 170 -117 272.5t-309 102.5t-309 -102.5t-117 -272.5v-600q0 -170 117 -272.5t309 -102.5
t309 102.5t117 272.5zM602 670l207 -396q9 -24 -12 -24h-15q-19 0 -28 20l-203 398h-160v-398q0 -20 -22 -20h-11q-20 0 -20 20v832q0 20 20 20h222q96 0 153.5 -63t57.5 -168q0 -94 -51.5 -153.5t-137.5 -67.5zM575 1073h-184v-360h184q74 0 119 48.5t45 127.5
q0 84 -45 134t-119 50z" />
    <glyph glyph-name="degree" unicode="&#xb0;" 
d="M758 860q-92 -92 -221 -92q-131 0 -220 92q-92 89 -92 219q0 129 92 221q91 91 220 91q127 0 221 -91q90 -93 90 -221q0 -129 -90 -219zM356 899q75 -75 180.5 -75t180.5 75q76 73 76 178q0 107 -76 183q-75 75 -180.5 75t-180.5 -75t-75 -183q0 -106 75 -178z" />
    <glyph glyph-name="plusminus" unicode="&#xb1;" 
d="M569 682h299q21 0 21 -20v-21q0 -20 -21 -20h-299v-299q0 -23 -20 -23h-23q-20 0 -20 23v299h-299q-21 0 -21 20v21q0 20 21 20h299v301q0 21 20 21h23q20 0 20 -21v-301zM207 63h661q21 0 21 -22v-21q0 -20 -21 -20h-661q-21 0 -21 20v21q0 22 21 22z" />
    <glyph glyph-name="uni00B2" unicode="&#xb2;" 
d="M395 604h340q13 0 13 -12v-21q0 -12 -13 -12h-395q-12 0 -12 12v13v8q0 12 8 20q194 206 287 338q86 124 86 213q0 80 -51 127t-128 47q-86 0 -157 -71q-13 -10 -21 -2l-16 12q-11 9 0 20q85 88 194 88q100 0 164 -61t64 -158q0 -92 -76 -211q-77 -120 -287 -350z" />
    <glyph glyph-name="uni00B3" unicode="&#xb3;" 
d="M627 958q112 -57 112 -184q0 -105 -57 -166t-156 -61q-123 0 -207 84q-11 11 -2 20l17 15q8 8 20 -4q68 -68 172 -68q78 0 121 47.5t43 134.5q0 71 -46.5 115.5t-119.5 44.5h-35q-12 0 -12 12v21q0 12 12 12h35q75 0 120.5 49t45.5 131q0 83 -50 129.5t-130 46.5
q-85 0 -156 -71q-15 -9 -20 -2l-19 12q-9 9 2 20q85 88 195 88q99 0 163 -60t64 -159q0 -155 -112 -207z" />
    <glyph glyph-name="uni00B5" unicode="&#xb5;" horiz-adv-x="1064" 
d="M815 1006h27q20 0 20 -23v-1372q0 -21 -20 -21h-27q-20 0 -20 21v543q-67 -174 -263 -174q-154 0 -238.5 94t-84.5 266v643q0 23 22 23h27q21 0 21 -23v-643q0 -142 69 -218.5t197 -76.5q119 0 184.5 77t65.5 218v643q0 23 20 23z" />
    <glyph glyph-name="paragraph" unicode="&#xb6;" 
d="M522 1372h340q21 0 21 -20v-1528q0 -21 -21 -21h-20q-21 0 -21 21v1491h-225v-1491q0 -21 -23 -21h-20q-21 0 -21 21v764q-170 0 -284 114q-117 114 -117 277t115 278t276 115z" />
    <glyph glyph-name="middot" unicode="&#xb7;" 
d="M559 438h-49q-21 0 -21 21v127q0 20 21 20h49q21 0 21 -20v-127q0 -21 -21 -21z" />
    <glyph glyph-name="uni00B9" unicode="&#xb9;" 
d="M768 557h-432q-12 0 -12 14v19q0 14 12 14h190v701l-137 -136q-10 -7 -14 5v36q0 9 10 19l137 133q7 10 19 10h22q12 0 12 -14v-754h193q10 0 10 -14v-19q0 -14 -10 -14z" />
    <glyph glyph-name="ordmasculine" unicode="&#xba;" 
d="M739 639q-71 -74 -200 -74q-130 0 -201 74q-72 72 -72 205v252q0 133 72 206.5t201 73.5q128 0 199 -73.5t71 -206.5v-252q0 -135 -70 -205zM539 614q102 0 159.5 60t57.5 166v260q0 108 -57 167.5t-160 59.5q-105 0 -162.5 -59.5t-57.5 -167.5v-260q0 -106 58 -166
t162 -60z" />
    <glyph glyph-name="guillemotright" unicode="&#xbb;" 
d="M879 459l-332 -332q-7 -8 -17 -5t-10 13v33q0 16 17 33l301 301l-301 293q-17 17 -17 32v35q0 7 4.5 10t11 2.5t11.5 -4.5l332 -327q16 -16 16 -31v-18q0 -19 -16 -35zM543 455l-332 -334q-5 -4 -11.5 -4.5t-11 2.5t-4.5 10v35q0 18 15 33l303 299l-303 295
q-15 15 -15 32v33q0 10 10 13t17 -5l332 -327q14 -14 14 -31v-19q0 -18 -14 -32z" />
    <glyph glyph-name="onequarter" unicode="&#xbc;" 
d="M442 754h-354q-12 0 -12 14v18q0 15 12 15h158v504l-117 -115q-5 -4 -9.5 -2t-4.5 8v37q0 8 10 18l117 113q8 8 18 8h23q12 0 12 -12v-559h147q13 0 13 -15v-18q0 -14 -13 -14zM223 100l-14 11q-12 9 -2 26l696 1127q13 17 29 4l12 -11q14 -11 2 -26l-696 -1125
q-10 -23 -27 -6zM877 0h-19q-16 0 -16 16v162h-258q-17 0 -17 17v12q0 13 11 31l256 376q6 15 20 15h23q14 0 14 -17v-387h63q17 0 17 -16v-14q0 -17 -17 -17h-63v-162q0 -16 -14 -16zM846 557l-223 -336h223v336z" />
    <glyph glyph-name="onehalf" unicode="&#xbd;" 
d="M442 754h-354q-12 0 -12 14v18q0 15 12 15h158v504l-117 -115q-5 -4 -9.5 -2t-4.5 8v37q0 8 10 18l117 113q8 8 18 8h23q12 0 12 -12v-559h147q13 0 13 -15v-18q0 -14 -13 -14zM182 100l-12 11q-14 11 -2 26l694 1127q13 17 29 4l12 -11q15 -9 2 -26l-694 -1125
q-13 -19 -29 -6zM981 0h-330q-12 0 -12 12v19q0 15 12 24q167 164 232 256q55 82 55 152q0 59 -36 94t-91 35q-70 0 -131 -70q-9 -11 -18 -2l-15 12q-11 10 0 21q77 86 168 86q73 0 122.5 -47.5t49.5 -124.5q0 -85 -57 -168q-60 -91 -223 -254h274q12 0 12 -12v-21
q0 -12 -12 -12z" />
    <glyph glyph-name="threequarters" unicode="&#xbe;" 
d="M451 907q0 -77 -48 -125.5t-122 -48.5q-97 0 -175 78q-10 10 -2 20l15 13q6 9 18 0q64 -64 137 -64q56 0 90.5 35.5t34.5 97.5q0 60 -32.5 95.5t-87.5 35.5h-29q-14 0 -14 13v16q0 12 14 12h29q56 0 88 32t32 89q0 61 -34.5 95t-90.5 34q-73 0 -133 -69q-15 -6 -18 0
l-12 12q-13 13 0 22q76 82 168 82q73 0 122.5 -47.5t49.5 -124.5q0 -106 -91 -145q91 -45 91 -158zM891 1268l12 -11q15 -9 2 -26l-694 -1125q-13 -19 -29 -6l-12 11q-14 11 -2 26l694 1127q13 17 29 4zM891 225h63q17 0 17 -16v-14q0 -17 -17 -17h-63v-162q0 -16 -14 -16
h-19q-16 0 -16 16v162h-258q-17 0 -17 17v12q0 13 11 31l256 376q6 15 20 15h23q14 0 14 -17v-387zM623 221h223v336z" />
    <glyph glyph-name="questiondown" unicode="&#xbf;" 
d="M518 1006h49q21 0 21 -23v-125q0 -20 -21 -20h-49q-22 0 -22 20v125q0 23 22 23zM528 590h27q20 0 20 -21v-26q0 -86 -55 -150l-155 -194q-93 -113 -93 -246q0 -121 90 -199q88 -76 213 -76q157 0 265 144q13 17 28 8l21 -16q19 -12 4 -27q-123 -172 -318 -172
q-155 0 -262 94q-110 94 -110 238q0 150 102 276l154 189q49 64 49 133v24q0 21 20 21z" />
    <glyph glyph-name="Agrave" unicode="&#xc0;" 
d="M551 1481l-141 270q-6 11 -2.5 18t14.5 7h33q17 0 26 -21l135 -270q2 -9 -2 -16t-14 -7h-18q-18 0 -31 19zM569 1354l418 -1329q6 -25 -16 -25h-27q-20 0 -26 20l-132 426h-497l-131 -426q-6 -20 -27 -20h-29q-20 0 -14 25l416 1329q6 18 22 18h21q16 0 22 -18zM768 510
l-231 743l-230 -743h461z" />
    <glyph glyph-name="Aacute" unicode="&#xc1;" 
d="M526 1440h-20q-10 0 -14.5 7t0.5 15l137 271q9 20 26 20h35q10 0 14 -8.5t-2 -15.5l-145 -271q-12 -18 -31 -18zM569 1354l418 -1329q6 -25 -16 -25h-27q-20 0 -26 20l-132 426h-497l-131 -426q-6 -20 -27 -20h-29q-20 0 -14 25l416 1329q6 18 22 18h21q16 0 22 -18z
M768 510l-231 743l-230 -743h461z" />
    <glyph glyph-name="Acircumflex" unicode="&#xc2;" 
d="M342 1462h-25q-26 0 -10 25l191 272q10 17 24 17h21q14 0 24 -17l199 -274q6 -11 2.5 -17t-14.5 -6h-25q-19 0 -31 21l-166 233l-161 -233q-12 -21 -29 -21zM569 1354l418 -1329q6 -25 -16 -25h-27q-20 0 -26 20l-132 426h-497l-131 -426q-6 -20 -27 -20h-29
q-20 0 -14 25l416 1329q6 18 22 18h21q16 0 22 -18zM768 510l-231 743l-230 -743h461z" />
    <glyph glyph-name="Atilde" unicode="&#xc3;" 
d="M319 1468h-20q-10 0 -14 7t-2 16q58 125 145 125q50 0 92 -33l47 -31q41 -30 70 -30q57 0 98 77q7 11 19 11h18q23 0 16 -23q-53 -121 -145 -121q-41 0 -94 35l-49 35q-42 25 -68 25q-55 0 -96 -80q-3 -13 -17 -13zM569 1354l418 -1329q6 -25 -16 -25h-27q-20 0 -26 20
l-132 426h-497l-131 -426q-6 -20 -27 -20h-29q-20 0 -14 25l416 1329q6 18 22 18h21q16 0 22 -18zM768 510l-231 743l-230 -743h461z" />
    <glyph glyph-name="Adieresis" unicode="&#xc4;" 
d="M356 1464h-26q-23 0 -23 21v137q0 23 23 23h26q21 0 21 -23v-137q0 -21 -21 -21zM739 1464h-26q-21 0 -21 21v137q0 23 21 23h26q23 0 23 -23v-137q0 -21 -23 -21zM569 1354l418 -1329q6 -25 -16 -25h-27q-20 0 -26 20l-132 426h-497l-131 -426q-6 -20 -27 -20h-29
q-20 0 -14 25l416 1329q6 18 22 18h21q16 0 22 -18zM768 510l-231 743l-230 -743h461z" />
    <glyph glyph-name="Aring" unicode="&#xc5;" 
d="M662 1493q-52 -51 -126.5 -51t-125.5 51t-51 125t51 127t125.5 53t126.5 -53t52 -127t-52 -125zM627 1710q-38 38 -92 38t-91 -38t-37 -91.5t37 -90.5t91 -37t92 37t38 90.5t-38 91.5zM569 1354l418 -1329q6 -25 -16 -25h-27q-20 0 -26 20l-132 426h-497l-131 -426
q-6 -20 -27 -20h-29q-20 0 -14 25l416 1329q6 18 22 18h21q16 0 22 -18zM768 510l-231 743l-230 -743h461z" />
    <glyph glyph-name="AE" unicode="&#xc6;" 
d="M1012 1307h-383v-578h323q21 0 21 -22v-25q0 -20 -21 -20h-323v-596h383q20 0 20 -21v-25q0 -20 -20 -20h-432q-21 0 -21 20v426h-276l-148 -426q-6 -20 -24 -20h-31q-20 0 -17 25l472 1329q3 18 22 18h455q20 0 20 -20v-25q0 -20 -20 -20zM559 1239l-254 -729h254v729z
" />
    <glyph glyph-name="Ccedilla" unicode="&#xc7;" 
d="M891 221l27 -18q15 -9 6 -27q-68 -100 -148.5 -147.5t-195.5 -48.5l-134 -275q-9 -22 -24 -22h-23q-23 0 -14 24l135 275q-155 12 -241 117t-86 282v608q0 189 98.5 295.5t271.5 106.5q122 0 207 -47.5t154 -149.5q9 -18 -6 -27l-27 -18q-14 -8 -27 8q-63 90 -132.5 129
t-168.5 39q-142 0 -221.5 -88.5t-79.5 -247.5v-608q0 -159 79.5 -247.5t221.5 -88.5q99 0 168.5 39t132.5 129q13 16 27 8z" />
    <glyph glyph-name="Egrave" unicode="&#xc8;" 
d="M580 1481l-142 270q-6 11 -2 18t15 7h32q18 0 27 -21l135 -270q2 -9 -2 -16t-14 -7h-19q-17 0 -30 19zM870 1307h-553v-580h494q20 0 20 -22v-23q0 -23 -20 -23h-494v-593h553q21 0 21 -21v-25q0 -20 -21 -20h-600q-22 0 -22 20v1332q0 20 22 20h600q21 0 21 -20v-25
q0 -20 -21 -20z" />
    <glyph glyph-name="Eacute" unicode="&#xc9;" 
d="M557 1440h-20q-24 0 -15 22l137 271q9 20 27 20h35q10 0 14 -8.5t-2 -15.5l-145 -271q-12 -18 -31 -18zM870 1307h-553v-580h494q20 0 20 -22v-23q0 -23 -20 -23h-494v-593h553q21 0 21 -21v-25q0 -20 -21 -20h-600q-22 0 -22 20v1332q0 20 22 20h600q21 0 21 -20v-25
q0 -20 -21 -20z" />
    <glyph glyph-name="Ecircumflex" unicode="&#xca;" 
d="M373 1462h-25q-26 0 -10 25l190 272q10 17 25 17h20q15 0 25 -17l199 -274q6 -11 2 -17t-15 -6h-24q-19 0 -31 21l-166 233l-162 -233q-12 -21 -28 -21zM870 1307h-553v-580h494q20 0 20 -22v-23q0 -23 -20 -23h-494v-593h553q21 0 21 -21v-25q0 -20 -21 -20h-600
q-22 0 -22 20v1332q0 20 22 20h600q21 0 21 -20v-25q0 -20 -21 -20z" />
    <glyph glyph-name="Edieresis" unicode="&#xcb;" 
d="M387 1464h-27q-22 0 -22 21v137q0 23 22 23h27q21 0 21 -23v-137q0 -21 -21 -21zM770 1464h-27q-20 0 -20 21v137q0 23 20 23h27q23 0 23 -23v-137q0 -21 -23 -21zM870 1307h-553v-580h494q20 0 20 -22v-23q0 -23 -20 -23h-494v-593h553q21 0 21 -21v-25q0 -20 -21 -20
h-600q-22 0 -22 20v1332q0 20 22 20h600q21 0 21 -20v-25q0 -20 -21 -20z" />
    <glyph glyph-name="Igrave" unicode="&#xcc;" 
d="M551 1481l-141 270q-6 11 -2.5 18t14.5 7h33q17 0 26 -21l135 -270q2 -9 -2 -16t-14 -7h-18q-18 0 -31 19zM868 1307h-295v-1241h295q21 0 21 -21v-25q0 -20 -21 -20h-663q-21 0 -21 20v25q0 21 21 21h299v1241h-299q-21 0 -21 20v25q0 20 21 20h663q21 0 21 -20v-25
q0 -20 -21 -20z" />
    <glyph glyph-name="Iacute" unicode="&#xcd;" 
d="M526 1440h-20q-10 0 -14.5 7t0.5 15l137 271q9 20 26 20h35q10 0 14 -8.5t-2 -15.5l-145 -271q-12 -18 -31 -18zM868 1307h-295v-1241h295q21 0 21 -21v-25q0 -20 -21 -20h-663q-21 0 -21 20v25q0 21 21 21h299v1241h-299q-21 0 -21 20v25q0 20 21 20h663q21 0 21 -20
v-25q0 -20 -21 -20z" />
    <glyph glyph-name="Icircumflex" unicode="&#xce;" 
d="M342 1462h-25q-26 0 -10 25l191 272q10 17 24 17h21q14 0 24 -17l199 -274q6 -11 2.5 -17t-14.5 -6h-25q-19 0 -31 21l-166 233l-161 -233q-12 -21 -29 -21zM868 1307h-295v-1241h295q21 0 21 -21v-25q0 -20 -21 -20h-663q-21 0 -21 20v25q0 21 21 21h299v1241h-299
q-21 0 -21 20v25q0 20 21 20h663q21 0 21 -20v-25q0 -20 -21 -20z" />
    <glyph glyph-name="Idieresis" unicode="&#xcf;" 
d="M356 1464h-26q-23 0 -23 21v137q0 23 23 23h26q21 0 21 -23v-137q0 -21 -21 -21zM739 1464h-26q-21 0 -21 21v137q0 23 21 23h26q23 0 23 -23v-137q0 -21 -23 -21zM868 1307h-295v-1241h295q21 0 21 -21v-25q0 -20 -21 -20h-663q-21 0 -21 20v25q0 21 21 21h299v1241
h-299q-21 0 -21 20v25q0 20 21 20h663q21 0 21 -20v-25q0 -20 -21 -20z" />
    <glyph glyph-name="Eth" unicode="&#xd0;" 
d="M203 1372h348q180 0 273.5 -105.5t93.5 -308.5v-583q0 -178 -95 -276.5t-272 -98.5h-348q-21 0 -21 20v637h-100q-21 0 -21 21v16q0 21 21 21h100v637q0 20 21 20zM848 375v583q0 349 -297 349h-299v-592h276q23 0 23 -21v-16q0 -21 -23 -21h-276v-591h299q297 0 297 309
z" />
    <glyph glyph-name="Ntilde" unicode="&#xd1;" 
d="M324 1468h-21q-10 0 -14 7t-2 16q58 125 145 125q50 0 92 -33l47 -31q41 -30 70 -30q57 0 98 77q7 11 19 11h18q11 0 15.5 -6.5t1.5 -16.5q-53 -121 -146 -121q-41 0 -94 35l-49 35q-42 25 -68 25q-55 0 -96 -80q-3 -13 -16 -13zM862 1372h27q22 0 22 -20v-1332
q0 -20 -22 -20h-27h-4q-13 3 -22 18l-603 1194v-1192q0 -20 -22 -20h-27q-20 0 -20 20v1332q0 20 20 20h27h4q17 -3 25 -20l602 -1200v1200q0 20 20 20z" />
    <glyph glyph-name="Ograve" unicode="&#xd2;" 
d="M600 1481h-18q-19 0 -31 18l-141 270q-6 7 -2 16t14 9h33q17 0 26 -20l135 -271q4 -22 -16 -22zM807 86q-93 -106 -270 -106q-178 0 -271 106q-96 110 -96 295v608q0 189 97 295.5t270 106.5t269.5 -106.5t96.5 -295.5v-608q0 -185 -96 -295zM317 133q76 -88 220 -88
q142 0 221 88q78 90 78 248v608q0 159 -79 247.5t-220 88.5t-220 -88.5t-79 -247.5v-608q0 -160 79 -248z" />
    <glyph glyph-name="Oacute" unicode="&#xd3;" 
d="M526 1458h-20q-10 0 -14.5 8t0.5 15l137 270q9 21 26 21h35q11 0 14.5 -7t-2.5 -18l-145 -270q-13 -19 -31 -19zM807 86q-93 -106 -270 -106q-178 0 -271 106q-96 110 -96 295v608q0 189 97 295.5t270 106.5t269.5 -106.5t96.5 -295.5v-608q0 -185 -96 -295zM317 133
q76 -88 220 -88q142 0 221 88q78 90 78 248v608q0 159 -79 247.5t-220 88.5t-220 -88.5t-79 -247.5v-608q0 -160 79 -248z" />
    <glyph glyph-name="Ocircumflex" unicode="&#xd4;" 
d="M342 1481h-25q-25 0 -10 24l191 273q10 16 24 16h21q14 0 24 -16l199 -275q6 -7 2 -14.5t-14 -7.5h-25q-20 0 -31 20l-166 234l-161 -234q-11 -20 -29 -20zM807 86q-93 -106 -270 -106q-178 0 -271 106q-96 110 -96 295v608q0 189 97 295.5t270 106.5t269.5 -106.5
t96.5 -295.5v-608q0 -185 -96 -295zM317 133q76 -88 220 -88q142 0 221 88q78 90 78 248v608q0 159 -79 247.5t-220 88.5t-220 -88.5t-79 -247.5v-608q0 -160 79 -248z" />
    <glyph glyph-name="Otilde" unicode="&#xd5;" 
d="M643 1485q-41 0 -94 35l-49 34q-42 25 -68 25q-55 0 -96 -80q-3 -12 -17 -12h-20q-20 0 -16 22q58 125 145 125q52 0 92 -32l47 -31q42 -31 70 -31q57 0 98 78q7 10 19 10h18q22 0 16 -22q-53 -121 -145 -121zM807 86q-93 -106 -270 -106q-178 0 -271 106
q-96 110 -96 295v608q0 189 97 295.5t270 106.5t269.5 -106.5t96.5 -295.5v-608q0 -185 -96 -295zM317 133q76 -88 220 -88q142 0 221 88q78 90 78 248v608q0 159 -79 247.5t-220 88.5t-220 -88.5t-79 -247.5v-608q0 -160 79 -248z" />
    <glyph glyph-name="Odieresis" unicode="&#xd6;" 
d="M356 1483h-26q-23 0 -23 20v137q0 23 23 23h26q21 0 21 -23v-137q0 -20 -21 -20zM739 1483h-26q-21 0 -21 20v137q0 23 21 23h26q23 0 23 -23v-137q0 -20 -23 -20zM807 86q-93 -106 -270 -106q-178 0 -271 106q-96 110 -96 295v608q0 189 97 295.5t270 106.5
t269.5 -106.5t96.5 -295.5v-608q0 -185 -96 -295zM317 133q76 -88 220 -88q142 0 221 88q78 90 78 248v608q0 159 -79 247.5t-220 88.5t-220 -88.5t-79 -247.5v-608q0 -160 79 -248z" />
    <glyph glyph-name="multiply" unicode="&#xd7;" 
d="M870 893l-292 -334l292 -334q13 -17 -2 -26l-16 -15q-14 -14 -29 2l-284 326l-287 -326q-16 -16 -29 -2l-16 15q-16 12 -2 26l293 334l-293 334q-15 15 0 29l18 14q14 14 29 -4l287 -326l284 326q15 18 29 4l18 -14q14 -14 0 -29z" />
    <glyph glyph-name="Oslash" unicode="&#xd8;" 
d="M895 1421l25 -12q17 -14 8 -29l-80 -153q55 -94 55 -238v-608q0 -189 -96.5 -295t-269.5 -106q-174 0 -273 108l-55 -111q-12 -18 -29 -8l-20 11q-16 8 -8 28l71 139q-53 95 -53 234v608q0 189 97 295.5t270 106.5q171 0 270 -105l61 121q9 25 27 14zM238 989v-608
q0 -89 24 -156l510 994q-75 106 -235 106q-141 0 -220 -88.5t-79 -247.5zM836 381v608q0 95 -27 160l-510 -995q80 -109 238 -109q141 0 220 88.5t79 247.5z" />
    <glyph glyph-name="Ugrave" unicode="&#xd9;" 
d="M600 1462h-18q-18 0 -31 19l-141 270q-6 11 -2.5 18t14.5 7h33q17 0 26 -21l135 -270q2 -9 -2 -16t-14 -7zM807 86q-93 -106 -270 -106q-178 0 -271 106q-96 110 -96 295v971q0 20 20 20h27q21 0 21 -20v-971q0 -159 79 -247.5t220 -88.5t220 88.5t79 247.5v971
q0 20 20 20h27q20 0 20 -20v-971q0 -185 -96 -295z" />
    <glyph glyph-name="Uacute" unicode="&#xda;" 
d="M526 1440h-20q-10 0 -14.5 7t0.5 15l137 271q9 20 26 20h35q10 0 14 -8.5t-2 -15.5l-145 -271q-12 -18 -31 -18zM807 86q-93 -106 -270 -106q-178 0 -271 106q-96 110 -96 295v971q0 20 20 20h27q21 0 21 -20v-971q0 -159 79 -247.5t220 -88.5t220 88.5t79 247.5v971
q0 20 20 20h27q20 0 20 -20v-971q0 -185 -96 -295z" />
    <glyph glyph-name="Ucircumflex" unicode="&#xdb;" 
d="M342 1462h-25q-26 0 -10 25l191 272q10 17 24 17h21q14 0 24 -17l199 -274q6 -11 2.5 -17t-14.5 -6h-25q-19 0 -31 21l-166 233l-161 -233q-12 -21 -29 -21zM807 86q-93 -106 -270 -106q-178 0 -271 106q-96 110 -96 295v971q0 20 20 20h27q21 0 21 -20v-971
q0 -159 79 -247.5t220 -88.5t220 88.5t79 247.5v971q0 20 20 20h27q20 0 20 -20v-971q0 -185 -96 -295z" />
    <glyph glyph-name="Udieresis" unicode="&#xdc;" 
d="M356 1464h-26q-23 0 -23 21v137q0 23 23 23h26q21 0 21 -23v-137q0 -21 -21 -21zM739 1464h-26q-21 0 -21 21v137q0 23 21 23h26q23 0 23 -23v-137q0 -21 -23 -21zM807 86q-93 -106 -270 -106q-178 0 -271 106q-96 110 -96 295v971q0 20 20 20h27q21 0 21 -20v-971
q0 -159 79 -247.5t220 -88.5t220 88.5t79 247.5v971q0 20 20 20h27q20 0 20 -20v-971q0 -185 -96 -295z" />
    <glyph glyph-name="Yacute" unicode="&#xdd;" 
d="M526 1440h-20q-10 0 -14.5 7t0.5 15l137 271q9 20 26 20h35q10 0 14 -8.5t-2 -15.5l-145 -271q-12 -18 -31 -18zM922 1372h30q26 0 17 -24l-398 -758v-570q0 -20 -20 -20h-27q-22 0 -22 20v570l-396 758q-9 24 17 24h31q15 0 26 -20l357 -686l358 686q9 20 27 20z" />
    <glyph glyph-name="Thorn" unicode="&#xde;" 
d="M299 1077h260q179 0 281 -105.5t102 -285.5t-102 -285.5t-281 -105.5h-260v-275q0 -20 -23 -20h-26q-21 0 -21 20v1332q0 20 21 20h26q23 0 23 -20v-275zM299 362h256q152 0 235.5 85.5t83.5 238.5t-83.5 238.5t-235.5 85.5h-256v-648z" />
    <glyph glyph-name="germandbls" unicode="&#xdf;" 
d="M616 584l136 -47q221 -77 221 -291q0 -123 -77 -194.5t-206 -71.5q-192 0 -344 131q-14 14 0 28l14 13q16 13 29 0q138 -111 297 -111q98 0 157.5 56.5t59.5 148.5q0 162 -182 227l-143 53q-195 71 -195 244q0 119 74.5 189.5t204.5 70.5h124v144q0 299 -264 299
t-264 -299v-1154q0 -20 -22 -20h-25q-23 0 -23 20v1149q0 367 336 367q332 0 332 -367v-180q0 -16 -16 -16h-164q-106 0 -165.5 -53.5t-59.5 -149.5q0 -131 165 -186z" />
    <glyph glyph-name="agrave" unicode="&#xe0;" 
d="M520 1247l-141 271q-6 10 -2.5 17t14.5 7h33q18 0 27 -20l135 -271q2 -8 -2.5 -15t-14.5 -7h-18q-19 0 -31 18zM926 51h24q15 0 15 -16v-25q0 -14 -13 -14q-24 -6 -45 -6q-116 0 -119 139q-79 -149 -282 -149q-161 0 -250.5 95t-89.5 267v328q0 173 89.5 268.5
t250.5 95.5q196 0 278 -143v96q0 19 19 19h28q21 0 21 -23v-823q0 -60 16.5 -84.5t57.5 -24.5zM784 262v490q0 91 -74 154t-194 63q-134 0 -208.5 -77t-74.5 -216v-338q0 -139 74.5 -216t208.5 -77q120 0 194 63t74 154z" />
    <glyph glyph-name="aacute" unicode="&#xe1;" 
d="M522 1229h-20q-10 0 -15 7t0 15l138 271q9 20 26 20h35q11 0 14.5 -7t-2.5 -17l-145 -271q-12 -18 -31 -18zM926 51h24q15 0 15 -16v-25q0 -14 -13 -14q-24 -6 -45 -6q-116 0 -119 139q-79 -149 -282 -149q-161 0 -250.5 95t-89.5 267v328q0 173 89.5 268.5t250.5 95.5
q196 0 278 -143v96q0 19 19 19h28q21 0 21 -23v-823q0 -60 16.5 -84.5t57.5 -24.5zM784 262v490q0 91 -74 154t-194 63q-134 0 -208.5 -77t-74.5 -216v-338q0 -139 74.5 -216t208.5 -77q120 0 194 63t74 154z" />
    <glyph glyph-name="acircumflex" unicode="&#xe2;" 
d="M330 1229h-25q-25 0 -10 24l190 273q10 16 25 16h20q15 0 25 -16l199 -275q6 -11 2 -16.5t-15 -5.5h-24q-20 0 -31 20l-166 234l-162 -234q-11 -20 -28 -20zM926 51h24q15 0 15 -16v-25q0 -14 -13 -14q-24 -6 -45 -6q-116 0 -119 139q-79 -149 -282 -149
q-161 0 -250.5 95t-89.5 267v328q0 173 89.5 268.5t250.5 95.5q196 0 278 -143v96q0 19 19 19h28q21 0 21 -23v-823q0 -60 16.5 -84.5t57.5 -24.5zM784 262v490q0 91 -74 154t-194 63q-134 0 -208.5 -77t-74.5 -216v-338q0 -139 74.5 -216t208.5 -77q120 0 194 63t74 154z
" />
    <glyph glyph-name="atilde" unicode="&#xe3;" 
d="M303 1235h-20q-10 0 -14.5 7t-2.5 15q58 125 146 125q52 0 92 -32l47 -31q42 -31 70 -31q57 0 98 78q7 10 18 10h19q22 0 16 -22q-53 -121 -145 -121q-42 0 -95 35l-49 35q-41 24 -67 24q-56 0 -97 -80q-3 -12 -16 -12zM926 51h24q15 0 15 -16v-25q0 -14 -13 -14
q-24 -6 -45 -6q-116 0 -119 139q-79 -149 -282 -149q-161 0 -250.5 95t-89.5 267v328q0 173 89.5 268.5t250.5 95.5q196 0 278 -143v96q0 19 19 19h28q21 0 21 -23v-823q0 -60 16.5 -84.5t57.5 -24.5zM784 262v490q0 91 -74 154t-194 63q-134 0 -208.5 -77t-74.5 -216v-338
q0 -139 74.5 -216t208.5 -77q120 0 194 63t74 154z" />
    <glyph glyph-name="adieresis" unicode="&#xe4;" 
d="M340 1229h-27q-22 0 -22 20v137q0 23 22 23h27q20 0 20 -23v-137q0 -20 -20 -20zM723 1229h-27q-20 0 -20 20v137q0 23 20 23h27q22 0 22 -23v-137q0 -20 -22 -20zM926 51h24q15 0 15 -16v-25q0 -14 -13 -14q-24 -6 -45 -6q-116 0 -119 139q-79 -149 -282 -149
q-161 0 -250.5 95t-89.5 267v328q0 173 89.5 268.5t250.5 95.5q196 0 278 -143v96q0 19 19 19h28q21 0 21 -23v-823q0 -60 16.5 -84.5t57.5 -24.5zM784 262v490q0 91 -74 154t-194 63q-134 0 -208.5 -77t-74.5 -216v-338q0 -139 74.5 -216t208.5 -77q120 0 194 63t74 154z
" />
    <glyph glyph-name="aring" unicode="&#xe5;" 
d="M645 1253q-53 -51 -127 -51t-125 51t-51 125t51 127t125 53t127 -53t53 -127t-53 -125zM610 1470q-38 38 -91.5 38t-90.5 -38t-37 -91.5t37 -90.5t90.5 -37t91.5 37t38 90.5t-38 91.5zM926 51h24q15 0 15 -16v-25q0 -14 -13 -14q-24 -6 -45 -6q-116 0 -119 139
q-79 -149 -282 -149q-161 0 -250.5 95t-89.5 267v328q0 173 89.5 268.5t250.5 95.5q196 0 278 -143v96q0 19 19 19h28q21 0 21 -23v-823q0 -60 16.5 -84.5t57.5 -24.5zM784 262v490q0 91 -74 154t-194 63q-134 0 -208.5 -77t-74.5 -216v-338q0 -139 74.5 -216t208.5 -77
q120 0 194 63t74 154z" />
    <glyph glyph-name="ae" unicode="&#xe6;" 
d="M967 496h-387v-260q0 -92 47.5 -143.5t132.5 -51.5q102 0 168 84q13 8 26 -2l19 -14q17 -10 2 -29q-80 -103 -213 -103q-160 0 -215 125q-55 -125 -217 -125q-109 0 -167.5 65t-58.5 189v66q0 124 63 190t179 66h170v223q0 93 -49 144t-135 51q-93 0 -168 -84
q-13 -10 -25 2l-20 14q-13 13 0 29q91 102 211 102q162 0 217 -125q55 125 215 125q106 0 165.5 -66.5t59.5 -187.5v-264q0 -20 -20 -20zM758 971q-85 0 -131.5 -50.5t-46.5 -144.5v-223h342v223q0 92 -43 143.5t-121 51.5zM336 41q83 0 131.5 51t48.5 144v260h-166
q-83 0 -131.5 -51t-48.5 -142v-67q0 -195 166 -195z" />
    <glyph glyph-name="ccedilla" unicode="&#xe7;" 
d="M844 164l16 -12q16 -16 2 -29q-104 -140 -264 -146l-133 -272q-9 -22 -25 -22h-22q-24 0 -15 24l136 273q-142 10 -220.5 105.5t-78.5 256.5v328q0 172 88.5 268t249.5 96q93 0 159 -32.5t125 -112.5q14 -13 -2 -29l-16 -12q-16 -10 -31 2q-55 66 -110 93.5t-128 27.5
q-127 0 -196.5 -78t-69.5 -221v-332q0 -143 69.5 -221t196.5 -78q73 0 128 27.5t110 93.5q18 12 31 2z" />
    <glyph glyph-name="egrave" unicode="&#xe8;" 
d="M549 1249l-141 271q-6 8 -2 16t14 8h33q17 0 26 -20l135 -271q4 -22 -16 -22h-18q-19 0 -31 18zM549 1034q161 0 248.5 -95t87.5 -269v-172q0 -21 -21 -21h-579v-137q0 -142 72.5 -220.5t203.5 -78.5q138 0 246 123q18 12 31 2l16 -12q17 -13 4 -29q-121 -148 -297 -148
q-165 0 -254.5 96t-89.5 269v328q0 173 87 268.5t245 95.5zM285 674v-139l532 2v137q0 142 -70 219.5t-198 77.5q-127 0 -195.5 -77t-68.5 -220z" />
    <glyph glyph-name="eacute" unicode="&#xe9;" 
d="M551 1231h-21q-10 0 -14.5 7.5t0.5 14.5l137 271q9 20 27 20h35q10 0 14 -8t-2 -16l-145 -271q-12 -18 -31 -18zM549 1034q161 0 248.5 -95t87.5 -269v-172q0 -21 -21 -21h-579v-137q0 -142 72.5 -220.5t203.5 -78.5q138 0 246 123q18 12 31 2l16 -12q17 -13 4 -29
q-121 -148 -297 -148q-165 0 -254.5 96t-89.5 269v328q0 173 87 268.5t245 95.5zM285 674v-139l532 2v137q0 142 -70 219.5t-198 77.5q-127 0 -195.5 -77t-68.5 -220z" />
    <glyph glyph-name="ecircumflex" unicode="&#xea;" 
d="M358 1231h-24q-25 0 -10 24l190 273q10 16 25 16h20q15 0 25 -16l198 -275q6 -7 2 -14.5t-14 -7.5h-25q-19 0 -30 20l-166 234l-162 -234q-11 -20 -29 -20zM549 1034q161 0 248.5 -95t87.5 -269v-172q0 -21 -21 -21h-579v-137q0 -142 72.5 -220.5t203.5 -78.5
q138 0 246 123q18 12 31 2l16 -12q17 -13 4 -29q-121 -148 -297 -148q-165 0 -254.5 96t-89.5 269v328q0 173 87 268.5t245 95.5zM285 674v-139l532 2v137q0 142 -70 219.5t-198 77.5q-127 0 -195.5 -77t-68.5 -220z" />
    <glyph glyph-name="edieresis" unicode="&#xeb;" 
d="M369 1231h-27q-23 0 -23 20v138q0 22 23 22h27q20 0 20 -22v-138q0 -20 -20 -20zM752 1231h-27q-20 0 -20 20v138q0 22 20 22h27q22 0 22 -22v-138q0 -20 -22 -20zM549 1034q161 0 248.5 -95t87.5 -269v-172q0 -21 -21 -21h-579v-137q0 -142 72.5 -220.5t203.5 -78.5
q138 0 246 123q18 12 31 2l16 -12q17 -13 4 -29q-121 -148 -297 -148q-165 0 -254.5 96t-89.5 269v328q0 173 87 268.5t245 95.5zM285 674v-139l532 2v137q0 142 -70 219.5t-198 77.5q-127 0 -195.5 -77t-68.5 -220z" />
    <glyph glyph-name="igrave" unicode="&#xec;" 
d="M557 1221l-141 270q-6 7 -2 16t14 9h33q17 0 26 -21l136 -270q2 -8 -2.5 -15.5t-14.5 -7.5h-18q-18 0 -31 19zM588 61h368q23 0 23 -20v-21q0 -20 -23 -20h-802q-23 0 -23 20v21q0 20 23 20h366v881h-280q-23 0 -23 23v18q0 23 23 23h327q21 0 21 -23v-922z" />
    <glyph glyph-name="iacute" unicode="&#xed;" 
d="M557 1202h-20q-25 0 -15 23l137 270q9 21 27 21h35q10 0 14 -9t-2 -16l-145 -270q-13 -19 -31 -19zM588 61h368q23 0 23 -20v-21q0 -20 -23 -20h-802q-23 0 -23 20v21q0 20 23 20h366v881h-280q-23 0 -23 23v18q0 23 23 23h327q21 0 21 -23v-922z" />
    <glyph glyph-name="icircumflex" unicode="&#xee;" 
d="M365 1202h-25q-26 0 -10 25l190 272q10 17 25 17h20q15 0 25 -17l198 -274q6 -7 2 -15t-14 -8h-24q-19 0 -31 21l-166 233l-162 -233q-12 -21 -28 -21zM588 61h368q23 0 23 -20v-21q0 -20 -23 -20h-802q-23 0 -23 20v21q0 20 23 20h366v881h-280q-23 0 -23 23v18
q0 23 23 23h327q21 0 21 -23v-922z" />
    <glyph glyph-name="idieresis" unicode="&#xef;" 
d="M375 1202h-27q-22 0 -22 21v137q0 22 22 22h27q20 0 20 -22v-137q0 -21 -20 -21zM758 1202h-27q-20 0 -20 21v137q0 22 20 22h27q22 0 22 -22v-137q0 -21 -22 -21zM588 61h368q23 0 23 -20v-21q0 -20 -23 -20h-802q-23 0 -23 20v21q0 20 23 20h366v881h-280q-23 0 -23 23
v18q0 23 23 23h327q21 0 21 -23v-922z" />
    <glyph glyph-name="eth" unicode="&#xf0;" 
d="M623 1210l213 -321q53 -89 53 -219v-328q0 -172 -92.5 -267t-259.5 -95t-260 95t-93 267v328q0 173 93 268.5t260 95.5q82 0 135 -20l-127 196h-232q-20 0 -20 21v12q0 19 18 19h199l-148 227q-6 11 -1 19t16 8h29q12 0 28 -19l156 -235h180q21 0 21 -21v-10
q0 -21 -21 -21h-147zM821 338v338q0 140 -74.5 217.5t-209.5 77.5t-210 -77.5t-75 -217.5v-338q0 -140 75 -217.5t210 -77.5t209.5 77.5t74.5 217.5z" />
    <glyph glyph-name="ntilde" unicode="&#xf1;" 
d="M330 1235h-21q-20 0 -16 22q58 125 145 125q52 0 92 -32l48 -31q42 -31 69 -31q57 0 98 78q7 10 19 10h18q23 0 17 -22q-53 -121 -146 -121q-41 0 -94 35l-49 35q-41 24 -68 24q-55 0 -96 -80q-3 -12 -16 -12zM555 1034q152 0 234.5 -95t82.5 -267v-652q0 -20 -22 -20
h-27q-20 0 -20 20v652q0 141 -69.5 219t-196.5 78q-128 0 -197.5 -77t-69.5 -218v-654q0 -20 -20 -20h-27q-20 0 -20 20v963q0 23 20 23h27q20 0 20 -23v-121q76 172 285 172z" />
    <glyph glyph-name="ograve" unicode="&#xf2;" 
d="M586 1231h-19q-18 0 -30 18l-142 271q-6 8 -1.5 16t14.5 8h32q18 0 27 -20l135 -271q4 -22 -16 -22zM797 76q-93 -96 -260 -96q-168 0 -261 96q-92 95 -92 266v328q0 173 93 268.5t260 95.5t259.5 -95.5t92.5 -268.5v-328q0 -171 -92 -266zM328 121q75 -78 209 -78
q133 0 211 78q73 76 73 217v338q0 140 -74.5 217.5t-209.5 77.5t-210 -77.5t-75 -217.5v-338q0 -141 76 -217z" />
    <glyph glyph-name="oacute" unicode="&#xf3;" 
d="M539 1231h-21q-10 0 -14.5 7.5t0.5 14.5l137 271q9 20 27 20h34q10 0 14.5 -8t-1.5 -16l-146 -271q-12 -18 -30 -18zM797 76q-93 -96 -260 -96q-168 0 -261 96q-92 95 -92 266v328q0 173 93 268.5t260 95.5t259.5 -95.5t92.5 -268.5v-328q0 -171 -92 -266zM328 121
q75 -78 209 -78q133 0 211 78q73 76 73 217v338q0 140 -74.5 217.5t-209.5 77.5t-210 -77.5t-75 -217.5v-338q0 -141 76 -217z" />
    <glyph glyph-name="ocircumflex" unicode="&#xf4;" 
d="M346 1231h-24q-26 0 -11 24l191 273q10 16 24 16h21q14 0 24 -16l199 -275q6 -7 2 -14.5t-14 -7.5h-25q-20 0 -31 20l-165 234l-162 -234q-11 -20 -29 -20zM797 76q-93 -96 -260 -96q-168 0 -261 96q-92 95 -92 266v328q0 173 93 268.5t260 95.5t259.5 -95.5t92.5 -268.5
v-328q0 -171 -92 -266zM328 121q75 -78 209 -78q133 0 211 78q73 76 73 217v338q0 140 -74.5 217.5t-209.5 77.5t-210 -77.5t-75 -217.5v-338q0 -141 76 -217z" />
    <glyph glyph-name="otilde" unicode="&#xf5;" 
d="M643 1235q-41 0 -94 35l-49 35q-40 24 -68 24q-55 0 -96 -80q-3 -12 -17 -12h-20q-10 0 -14 7t-2 16q58 124 145 124q52 0 92 -32l47 -31q42 -31 70 -31q57 0 98 78q7 10 19 10h18q22 0 16 -22q-53 -121 -145 -121zM797 76q-93 -96 -260 -96q-168 0 -261 96
q-92 95 -92 266v328q0 173 93 268.5t260 95.5t259.5 -95.5t92.5 -268.5v-328q0 -171 -92 -266zM328 121q75 -78 209 -78q133 0 211 78q73 76 73 217v338q0 140 -74.5 217.5t-209.5 77.5t-210 -77.5t-75 -217.5v-338q0 -141 76 -217z" />
    <glyph glyph-name="odieresis" unicode="&#xf6;" 
d="M356 1231h-26q-23 0 -23 20v138q0 22 23 22h26q21 0 21 -22v-138q0 -20 -21 -20zM739 1231h-26q-21 0 -21 20v138q0 22 21 22h26q23 0 23 -22v-138q0 -20 -23 -20zM797 76q-93 -96 -260 -96q-168 0 -261 96q-92 95 -92 266v328q0 173 93 268.5t260 95.5t259.5 -95.5
t92.5 -268.5v-328q0 -171 -92 -266zM328 121q75 -78 209 -78q133 0 211 78q73 76 73 217v338q0 140 -74.5 217.5t-209.5 77.5t-210 -77.5t-75 -217.5v-338q0 -141 76 -217z" />
    <glyph glyph-name="divide" unicode="&#xf7;" 
d="M528 893l-51 49q-15 14 0 29l51 51q9 9 25 0l51 -53q12 -13 -2 -27l-47 -49q-15 -12 -27 0zM868 524h-661q-21 0 -21 23v20q0 21 21 21h661q21 0 21 -21v-20q0 -23 -21 -23zM528 94l-51 49q-15 15 0 29l51 51q9 9 25 0l51 -51q12 -15 -2 -29l-47 -49q-15 -12 -27 0z" />
    <glyph glyph-name="oslash" unicode="&#xf8;" 
d="M834 1008l-37 -70q92 -95 92 -268v-328q0 -172 -92.5 -267t-259.5 -95q-130 0 -213 57l-33 -62q-8 -19 -29 -10l-14 6q-17 10 -8 29l39 74q-95 95 -95 268v328q0 173 93 268.5t260 95.5q132 0 215 -57l28 53q9 20 27 14l18 -8q18 -11 9 -28zM252 676v-338q0 -124 59 -201
l410 778q-71 56 -184 56q-135 0 -210 -77.5t-75 -217.5zM821 338v338q0 123 -57 198l-410 -778q71 -53 183 -53q135 0 209.5 77.5t74.5 217.5z" />
    <glyph glyph-name="ugrave" unicode="&#xf9;" 
d="M526 1221l-141 270q-6 7 -2 16t14 9h33q18 0 27 -21l135 -270q2 -8 -2.5 -15.5t-14.5 -7.5h-18q-18 0 -31 19zM815 1006h27q20 0 20 -23v-963q0 -20 -20 -20h-27q-20 0 -20 20v134q-67 -174 -263 -174q-154 0 -238.5 94t-84.5 266v643q0 23 22 23h27q21 0 21 -23v-643
q0 -142 69 -218.5t197 -76.5q119 0 184.5 77t65.5 218v643q0 23 20 23z" />
    <glyph glyph-name="uacute" unicode="&#xfa;" 
d="M526 1202h-20q-10 0 -14.5 8t0.5 15l137 270q9 21 26 21h35q10 0 14 -9t-2 -16l-145 -270q-13 -19 -31 -19zM815 1006h27q20 0 20 -23v-963q0 -20 -20 -20h-27q-20 0 -20 20v134q-67 -174 -263 -174q-154 0 -238.5 94t-84.5 266v643q0 23 22 23h27q21 0 21 -23v-643
q0 -142 69 -218.5t197 -76.5q119 0 184.5 77t65.5 218v643q0 23 20 23z" />
    <glyph glyph-name="ucircumflex" unicode="&#xfb;" 
d="M334 1202h-25q-26 0 -10 25l190 272q10 17 25 17h21q14 0 24 -17l199 -274q6 -7 1.5 -15t-14.5 -8h-24q-19 0 -31 21l-166 233l-162 -233q-12 -21 -28 -21zM815 1006h27q20 0 20 -23v-963q0 -20 -20 -20h-27q-20 0 -20 20v134q-67 -174 -263 -174q-154 0 -238.5 94
t-84.5 266v643q0 23 22 23h27q21 0 21 -23v-643q0 -142 69 -218.5t197 -76.5q119 0 184.5 77t65.5 218v643q0 23 20 23z" />
    <glyph glyph-name="udieresis" unicode="&#xfc;" 
d="M344 1202h-27q-22 0 -22 21v137q0 22 22 22h27q21 0 21 -22v-137q0 -21 -21 -21zM727 1202h-27q-20 0 -20 21v137q0 22 20 22h27q23 0 23 -22v-137q0 -21 -23 -21zM815 1006h27q20 0 20 -23v-963q0 -20 -20 -20h-27q-20 0 -20 20v134q-67 -174 -263 -174
q-154 0 -238.5 94t-84.5 266v643q0 23 22 23h27q21 0 21 -23v-643q0 -142 69 -218.5t197 -76.5q119 0 184.5 77t65.5 218v643q0 23 20 23z" />
    <glyph glyph-name="yacute" unicode="&#xfd;" 
d="M539 1202h-21q-10 0 -14.5 8t0.5 15l137 270q9 21 27 21h34q10 0 14.5 -9t-1.5 -16l-146 -270q-13 -19 -30 -19zM895 1006h29q22 0 16 -25l-416 -1096q-63 -165 -118 -233q-56 -62 -152 -62h-72q-20 0 -20 21v20q0 21 20 21h58q72 0 116 47q43 46 99 188l47 125l-369 969
q-6 25 17 25h28q19 0 25 -21l332 -885l335 885q6 21 25 21z" />
    <glyph glyph-name="thorn" unicode="&#xfe;" 
d="M549 1034q161 0 250.5 -95.5t89.5 -268.5v-328q0 -172 -89.5 -267t-250.5 -95q-197 0 -279 141v-510q0 -21 -20 -21h-27q-20 0 -20 21v1884q0 21 20 21h27q20 0 20 -21v-604q82 143 279 143zM821 338v338q0 139 -74 216t-208 77q-120 0 -194.5 -63t-74.5 -154v-490
q0 -91 74.5 -154t194.5 -63q134 0 208 77t74 216z" />
    <glyph glyph-name="ydieresis" unicode="&#xff;" 
d="M356 1202h-26q-23 0 -23 21v137q0 22 23 22h26q21 0 21 -22v-137q0 -21 -21 -21zM739 1202h-26q-21 0 -21 21v137q0 22 21 22h26q23 0 23 -22v-137q0 -21 -23 -21zM895 1006h29q22 0 16 -25l-416 -1096q-63 -165 -118 -233q-56 -62 -152 -62h-72q-20 0 -20 21v20
q0 21 20 21h58q72 0 116 47q43 46 99 188l47 125l-369 969q-6 25 17 25h28q19 0 25 -21l332 -885l335 885q6 21 25 21z" />
    <glyph glyph-name="Amacron" unicode="&#x100;" 
d="M772 1516h-473q-20 0 -20 22v12q0 21 20 21h473q23 0 23 -21v-12q0 -22 -23 -22zM569 1354l418 -1329q6 -25 -16 -25h-27q-20 0 -26 20l-132 426h-497l-131 -426q-6 -20 -27 -20h-29q-20 0 -14 25l416 1329q6 18 22 18h21q16 0 22 -18zM768 510l-231 743l-230 -743h461z
" />
    <glyph glyph-name="amacron" unicode="&#x101;" 
d="M756 1264h-473q-21 0 -21 22v12q0 21 21 21h473q22 0 22 -21v-12q0 -22 -22 -22zM926 51h24q15 0 15 -16v-25q0 -14 -13 -14q-24 -6 -45 -6q-116 0 -119 139q-79 -149 -282 -149q-161 0 -250.5 95t-89.5 267v328q0 173 89.5 268.5t250.5 95.5q196 0 278 -143v96
q0 19 19 19h28q21 0 21 -23v-823q0 -60 16.5 -84.5t57.5 -24.5zM784 262v490q0 91 -74 154t-194 63q-134 0 -208.5 -77t-74.5 -216v-338q0 -139 74.5 -216t208.5 -77q120 0 194 63t74 154z" />
    <glyph glyph-name="Abreve" unicode="&#x102;" 
d="M573 1485h-71q-90 0 -144 57t-59 152q-3 26 20 26h13q20 0 26 -16q2 -69 42 -111.5t106 -42.5h61q66 0 106 42.5t42 111.5q10 16 26 16h13q25 0 22 -26q-5 -95 -59 -152t-144 -57zM569 1354l418 -1329q6 -25 -16 -25h-27q-20 0 -26 20l-132 426h-497l-131 -426
q-6 -20 -27 -20h-29q-20 0 -14 25l416 1329q6 18 22 18h21q16 0 22 -18zM768 510l-231 743l-230 -743h461z" />
    <glyph glyph-name="abreve" unicode="&#x103;" 
d="M555 1245h-72q-90 0 -143.5 57t-58.5 152q-3 27 20 27h12q20 0 27 -17q2 -69 41.5 -111t105.5 -42h62q66 0 105.5 42t41.5 111q10 17 27 17h12q26 0 23 -27q-5 -95 -59 -152t-144 -57zM926 51h24q15 0 15 -16v-25q0 -14 -13 -14q-24 -6 -45 -6q-116 0 -119 139
q-79 -149 -282 -149q-161 0 -250.5 95t-89.5 267v328q0 173 89.5 268.5t250.5 95.5q196 0 278 -143v96q0 19 19 19h28q21 0 21 -23v-823q0 -60 16.5 -84.5t57.5 -24.5zM784 262v490q0 91 -74 154t-194 63q-134 0 -208.5 -77t-74.5 -216v-338q0 -139 74.5 -216t208.5 -77
q120 0 194 63t74 154z" />
    <glyph glyph-name="Aogonek" unicode="&#x104;" 
d="M944 -324h43q17 0 17 -16v-10q0 -9 -13 -19q-30 -6 -59 -6q-79 0 -125.5 42t-46.5 116q0 124 170 219q-9 6 -12 18l-132 426h-497l-131 -426q-6 -20 -27 -20h-29q-20 0 -14 25l416 1329q6 18 22 18h21q16 0 22 -18l418 -1329q6 -22 -12 -25q-150 -102 -150 -207
q0 -117 119 -117zM768 510l-231 743l-230 -743h461z" />
    <glyph glyph-name="aogonek" unicode="&#x105;" 
d="M915 -332h43q17 0 17 -16v-10q0 -10 -12 -19q-30 -6 -60 -6q-79 0 -125.5 42t-46.5 116q0 121 162 215q-102 9 -105 139q-79 -149 -282 -149q-161 0 -250.5 95t-89.5 267v328q0 173 89.5 268.5t250.5 95.5q196 0 278 -143v96q0 19 19 19h28q21 0 21 -23v-823
q0 -60 16.5 -84.5t57.5 -24.5h24q15 0 15 -16v-25q0 -14 -13 -14q-155 -104 -155 -211q0 -117 118 -117zM784 262v490q0 91 -74 154t-194 63q-134 0 -208.5 -77t-74.5 -216v-338q0 -139 74.5 -216t208.5 -77q120 0 194 63t74 154z" />
    <glyph glyph-name="Cacute" unicode="&#x106;" 
d="M553 1458h-21q-24 0 -14 23l137 270q9 21 27 21h35q11 0 14.5 -7t-2.5 -18l-145 -270q-13 -19 -31 -19zM563 -20q-174 0 -272 106t-98 295v608q0 189 98.5 295.5t271.5 106.5q122 0 207 -47.5t154 -149.5q9 -18 -6 -27l-27 -18q-14 -8 -27 8q-63 90 -132.5 129t-168.5 39
q-142 0 -221.5 -88.5t-79.5 -247.5v-608q0 -159 79.5 -247.5t221.5 -88.5q99 0 168.5 39t132.5 129q13 16 27 8l27 -18q15 -9 6 -27q-69 -102 -154 -149t-207 -47z" />
    <glyph glyph-name="cacute" unicode="&#x107;" 
d="M580 1231h-21q-10 0 -14.5 7.5t0.5 14.5l137 271q9 20 27 20h34q10 0 14.5 -8t-1.5 -16l-146 -271q-12 -18 -30 -18zM575 -23q-159 0 -247 96.5t-88 268.5v328q0 172 88.5 268t249.5 96q93 0 159 -32.5t125 -112.5q14 -13 -2 -29l-16 -12q-16 -10 -31 2q-55 66 -110 93.5
t-128 27.5q-127 0 -196.5 -78t-69.5 -221v-332q0 -143 69.5 -221t196.5 -78q73 0 128 27.5t110 93.5q18 12 31 2l16 -12q16 -16 2 -29q-110 -146 -287 -146z" />
    <glyph glyph-name="Ccircumflex" unicode="&#x108;" 
d="M369 1481h-25q-25 0 -10 24l190 273q10 16 25 16h20q15 0 25 -16l199 -275q6 -7 1.5 -14.5t-14.5 -7.5h-24q-20 0 -31 20l-166 234l-162 -234q-11 -20 -28 -20zM563 -20q-174 0 -272 106t-98 295v608q0 189 98.5 295.5t271.5 106.5q122 0 207 -47.5t154 -149.5
q9 -18 -6 -27l-27 -18q-14 -8 -27 8q-63 90 -132.5 129t-168.5 39q-142 0 -221.5 -88.5t-79.5 -247.5v-608q0 -159 79.5 -247.5t221.5 -88.5q99 0 168.5 39t132.5 129q13 16 27 8l27 -18q15 -9 6 -27q-69 -102 -154 -149t-207 -47z" />
    <glyph glyph-name="ccircumflex" unicode="&#x109;" 
d="M387 1231h-25q-25 0 -10 24l191 273q10 16 24 16h21q14 0 24 -16l199 -275q6 -7 2 -14.5t-14 -7.5h-25q-20 0 -31 20l-165 234l-162 -234q-11 -20 -29 -20zM575 -23q-159 0 -247 96.5t-88 268.5v328q0 172 88.5 268t249.5 96q93 0 159 -32.5t125 -112.5q14 -13 -2 -29
l-16 -12q-16 -10 -31 2q-55 66 -110 93.5t-128 27.5q-127 0 -196.5 -78t-69.5 -221v-332q0 -143 69.5 -221t196.5 -78q73 0 128 27.5t110 93.5q18 12 31 2l16 -12q16 -16 2 -29q-110 -146 -287 -146z" />
    <glyph glyph-name="Cdotaccent" unicode="&#x10a;" 
d="M575 1485h-28q-21 0 -21 20v137q0 23 21 23h28q21 0 21 -23v-137q0 -20 -21 -20zM563 -20q-174 0 -272 106t-98 295v608q0 189 98.5 295.5t271.5 106.5q122 0 207 -47.5t154 -149.5q9 -18 -6 -27l-27 -18q-14 -8 -27 8q-63 90 -132.5 129t-168.5 39q-142 0 -221.5 -88.5
t-79.5 -247.5v-608q0 -159 79.5 -247.5t221.5 -88.5q99 0 168.5 39t132.5 129q13 16 27 8l27 -18q15 -9 6 -27q-69 -102 -154 -149t-207 -47z" />
    <glyph glyph-name="cdotaccent" unicode="&#x10b;" 
d="M592 1231h-29q-20 0 -20 20v138q0 22 20 22h29q20 0 20 -22v-138q0 -20 -20 -20zM575 -23q-159 0 -247 96.5t-88 268.5v328q0 172 88.5 268t249.5 96q93 0 159 -32.5t125 -112.5q14 -13 -2 -29l-16 -12q-16 -10 -31 2q-55 66 -110 93.5t-128 27.5q-127 0 -196.5 -78
t-69.5 -221v-332q0 -143 69.5 -221t196.5 -78q73 0 128 27.5t110 93.5q18 12 31 2l16 -12q16 -16 2 -29q-110 -146 -287 -146z" />
    <glyph glyph-name="Ccaron" unicode="&#x10c;" 
d="M569 1481h-20q-16 0 -25 18l-190 270q-16 25 10 25h25q17 0 28 -20l162 -234l166 234q11 20 31 20h24q11 0 15 -6t-2 -16l-199 -273q-9 -18 -25 -18zM563 -20q-174 0 -272 106t-98 295v608q0 189 98.5 295.5t271.5 106.5q122 0 207 -47.5t154 -149.5q9 -18 -6 -27
l-27 -18q-14 -8 -27 8q-63 90 -132.5 129t-168.5 39q-142 0 -221.5 -88.5t-79.5 -247.5v-608q0 -159 79.5 -247.5t221.5 -88.5q99 0 168.5 39t132.5 129q13 16 27 8l27 -18q15 -9 6 -27q-69 -102 -154 -149t-207 -47z" />
    <glyph glyph-name="ccaron" unicode="&#x10d;" 
d="M588 1231h-21q-15 0 -24 18l-191 271q-15 24 10 24h25q18 0 29 -20l162 -234l165 234q11 20 31 20h25q11 0 14.5 -6t-2.5 -16l-199 -273q-9 -18 -24 -18zM575 -23q-159 0 -247 96.5t-88 268.5v328q0 172 88.5 268t249.5 96q93 0 159 -32.5t125 -112.5q14 -13 -2 -29
l-16 -12q-16 -10 -31 2q-55 66 -110 93.5t-128 27.5q-127 0 -196.5 -78t-69.5 -221v-332q0 -143 69.5 -221t196.5 -78q73 0 128 27.5t110 93.5q18 12 31 2l16 -12q16 -16 2 -29q-110 -146 -287 -146z" />
    <glyph glyph-name="Dcaron" unicode="&#x10e;" 
d="M498 1481l-191 270q-16 25 10 25h25q17 0 29 -21l161 -233l166 233q12 21 31 21h25q10 0 14 -8t-2 -15l-199 -272q-9 -19 -24 -19h-21q-14 0 -24 19zM203 1372h348q180 0 273.5 -105.5t93.5 -308.5v-583q0 -178 -95 -276.5t-272 -98.5h-348q-21 0 -21 20v1332q0 20 21 20
zM848 375v583q0 349 -297 349h-299v-1241h299q297 0 297 309z" />
    <glyph glyph-name="dcaron" unicode="&#x10f;" horiz-adv-x="1067" 
d="M748 1516h26q23 0 23 -21v-1475q0 -20 -23 -20h-26q-21 0 -21 20v105q-77 -145 -272 -145q-158 0 -248 93t-90 253v362q0 160 90 253t248 93q195 0 272 -145v606q0 21 21 21zM1034 1516h23q25 0 16 -31l-76 -260q-10 -23 -32 -23h-13q-27 0 -18 27l70 262q6 25 30 25z
M467 45q115 0 187.5 63.5t72.5 153.5v490q0 90 -72.5 153.5t-187.5 63.5q-130 0 -205.5 -75t-75.5 -200v-375q0 -125 75.5 -199.5t205.5 -74.5z" />
    <glyph glyph-name="Dcroat" unicode="&#x110;" 
d="M203 1372h348q180 0 273.5 -105.5t93.5 -308.5v-583q0 -178 -95 -276.5t-272 -98.5h-348q-21 0 -21 20v637h-100q-21 0 -21 21v16q0 21 21 21h100v637q0 20 21 20zM848 375v583q0 349 -297 349h-299v-592h276q23 0 23 -21v-16q0 -21 -23 -21h-276v-591h299q297 0 297 309
z" />
    <glyph glyph-name="dslash" unicode="&#x111;" 
d="M870 1288h203q21 0 21 -20v-19q0 -22 -21 -22h-203v-1207q0 -20 -20 -20h-27q-20 0 -20 20v101q-83 -141 -279 -141q-161 0 -250.5 95t-89.5 267v328q0 173 89.5 268.5t250.5 95.5q197 0 279 -143v336h-203q-22 0 -22 22v19q0 20 22 20h203v207q0 21 20 21h27
q20 0 20 -21v-207zM535 45q120 0 194 63t74 154v490q0 91 -74 154t-194 63q-134 0 -208.5 -77t-74.5 -216v-338q0 -139 74.5 -216t208.5 -77z" />
    <glyph glyph-name="Emacron" unicode="&#x112;" 
d="M803 1516h-473q-21 0 -21 22v12q0 21 21 21h473q22 0 22 -21v-12q0 -22 -22 -22zM870 1307h-553v-580h494q20 0 20 -22v-23q0 -23 -20 -23h-494v-593h553q21 0 21 -21v-25q0 -20 -21 -20h-600q-22 0 -22 20v1332q0 20 22 20h600q21 0 21 -20v-25q0 -20 -21 -20z" />
    <glyph glyph-name="emacron" unicode="&#x113;" 
d="M784 1266h-473q-20 0 -20 22v12q0 21 20 21h473q23 0 23 -21v-12q0 -22 -23 -22zM549 1034q161 0 248.5 -95t87.5 -269v-172q0 -21 -21 -21h-579v-137q0 -142 72.5 -220.5t203.5 -78.5q138 0 246 123q18 12 31 2l16 -12q17 -13 4 -29q-121 -148 -297 -148
q-165 0 -254.5 96t-89.5 269v328q0 173 87 268.5t245 95.5zM285 674v-139l532 2v137q0 142 -70 219.5t-198 77.5q-127 0 -195.5 -77t-68.5 -220z" />
    <glyph glyph-name="Ebreve" unicode="&#x114;" 
d="M602 1485h-72q-90 0 -143.5 57t-58.5 152q-3 26 20 26h12q21 0 27 -16q2 -69 42 -111.5t106 -42.5h61q66 0 105.5 42.5t41.5 111.5q10 16 27 16h12q26 0 23 -26q-5 -95 -59 -152t-144 -57zM870 1307h-553v-580h494q20 0 20 -22v-23q0 -23 -20 -23h-494v-593h553
q21 0 21 -21v-25q0 -20 -21 -20h-600q-22 0 -22 20v1332q0 20 22 20h600q21 0 21 -20v-25q0 -20 -21 -20z" />
    <glyph glyph-name="ebreve" unicode="&#x115;" 
d="M584 1247h-72q-90 0 -144 57t-59 152q-3 27 21 27h12q20 0 27 -17q2 -69 41.5 -111t105.5 -42h62q66 0 105.5 42t41.5 111q10 17 27 17h12q25 0 22 -27q-5 -95 -58.5 -152t-143.5 -57zM549 1034q161 0 248.5 -95t87.5 -269v-172q0 -21 -21 -21h-579v-137
q0 -142 72.5 -220.5t203.5 -78.5q138 0 246 123q18 12 31 2l16 -12q17 -13 4 -29q-121 -148 -297 -148q-165 0 -254.5 96t-89.5 269v328q0 173 87 268.5t245 95.5zM285 674v-139l532 2v137q0 142 -70 219.5t-198 77.5q-127 0 -195.5 -77t-68.5 -220z" />
    <glyph glyph-name="Edotaccent" unicode="&#x116;" 
d="M580 1466h-29q-21 0 -21 21v137q0 23 21 23h29q20 0 20 -23v-137q0 -21 -20 -21zM870 1307h-553v-580h494q20 0 20 -22v-23q0 -23 -20 -23h-494v-593h553q21 0 21 -21v-25q0 -20 -21 -20h-600q-22 0 -22 20v1332q0 20 22 20h600q21 0 21 -20v-25q0 -20 -21 -20z" />
    <glyph glyph-name="edotaccent" unicode="&#x117;" 
d="M563 1231h-28q-21 0 -21 20v138q0 22 21 22h28q21 0 21 -22v-138q0 -20 -21 -20zM549 1034q161 0 248.5 -95t87.5 -269v-172q0 -21 -21 -21h-579v-137q0 -142 72.5 -220.5t203.5 -78.5q138 0 246 123q18 12 31 2l16 -12q17 -13 4 -29q-121 -148 -297 -148
q-165 0 -254.5 96t-89.5 269v328q0 173 87 268.5t245 95.5zM285 674v-139l532 2v137q0 142 -70 219.5t-198 77.5q-127 0 -195.5 -77t-68.5 -220z" />
    <glyph glyph-name="Eogonek" unicode="&#x118;" 
d="M842 -324h43q16 0 16 -16v-10q0 -10 -12 -19q-30 -6 -60 -6q-79 0 -125.5 42t-46.5 116q0 122 164 217h-551q-22 0 -22 20v1332q0 20 22 20h600q21 0 21 -20v-25q0 -20 -21 -20h-553v-580h494q20 0 20 -22v-23q0 -23 -20 -23h-494v-593h553q21 0 21 -21v-25
q0 -17 -19 -20q-149 -101 -149 -207q0 -117 119 -117z" />
    <glyph glyph-name="eogonek" unicode="&#x119;" 
d="M549 1034q161 0 248.5 -95t87.5 -269v-172q0 -21 -21 -21h-579v-137q0 -142 72.5 -220.5t203.5 -78.5q138 0 246 123q18 12 31 2l16 -12q17 -13 4 -29q-57 -68 -119 -105q-155 -104 -155 -210q0 -117 118 -117h43q17 0 17 -17v-10q0 -9 -12 -18q-30 -6 -60 -6
q-79 0 -125.5 41.5t-46.5 115.5q0 96 115 185q-40 -7 -72 -7q-165 0 -254.5 96t-89.5 269v328q0 173 87 268.5t245 95.5zM285 674v-139l532 2v137q0 142 -70 219.5t-198 77.5q-127 0 -195.5 -77t-68.5 -220z" />
    <glyph glyph-name="Ecaron" unicode="&#x11a;" 
d="M528 1481l-190 270q-16 25 10 25h25q16 0 28 -21l162 -233l166 233q12 21 31 21h24q10 0 14.5 -8t-1.5 -15l-199 -272q-10 -19 -25 -19h-20q-15 0 -25 19zM870 1307h-553v-580h494q20 0 20 -22v-23q0 -23 -20 -23h-494v-593h553q21 0 21 -21v-25q0 -20 -21 -20h-600
q-22 0 -22 20v1332q0 20 22 20h600q21 0 21 -20v-25q0 -20 -21 -20z" />
    <glyph glyph-name="ecaron" unicode="&#x11b;" 
d="M514 1249l-190 271q-15 24 10 24h24q18 0 29 -20l162 -234l166 234q11 20 30 20h25q11 0 14.5 -6t-2.5 -16l-198 -273q-9 -18 -25 -18h-20q-16 0 -25 18zM549 1034q161 0 248.5 -95t87.5 -269v-172q0 -21 -21 -21h-579v-137q0 -142 72.5 -220.5t203.5 -78.5
q138 0 246 123q18 12 31 2l16 -12q17 -13 4 -29q-121 -148 -297 -148q-165 0 -254.5 96t-89.5 269v328q0 173 87 268.5t245 95.5zM285 674v-139l532 2v137q0 142 -70 219.5t-198 77.5q-127 0 -195.5 -77t-68.5 -220z" />
    <glyph glyph-name="Gcircumflex" unicode="&#x11c;" 
d="M367 1481h-25q-25 0 -10 24l190 273q10 16 25 16h20q15 0 25 -16l199 -275q6 -7 1.5 -14.5t-14.5 -7.5h-24q-20 0 -31 20l-166 234l-162 -234q-11 -20 -28 -20zM567 727h338q21 0 21 -22v-324q0 -189 -97 -295t-270 -106q-176 0 -272.5 105.5t-96.5 295.5v608
q0 189 98.5 295.5t272.5 106.5q122 0 207 -47.5t154 -149.5q9 -18 -7 -27l-26 -18q-14 -8 -27 8q-63 91 -132 129.5t-169 38.5q-142 0 -221.5 -88.5t-79.5 -247.5v-608q0 -159 79 -247.5t220 -88.5q140 0 218.5 88.5t78.5 247.5v278h-289q-20 0 -20 23v23q0 22 20 22z" />
    <glyph glyph-name="gcircumflex" unicode="&#x11d;" 
d="M342 1229h-25q-25 0 -10 24l191 273q10 16 24 16h21q14 0 24 -16l199 -275q6 -11 2.5 -16.5t-14.5 -5.5h-25q-20 0 -31 20l-166 234l-161 -234q-11 -20 -29 -20zM813 1006h31q20 0 20 -23v-1049q0 -178 -89 -271t-257 -93q-103 0 -176 31.5t-137 113.5q-13 16 2 31l12 10
q11 8 31 -2q61 -73 117.5 -97t150.5 -24q279 0 279 297v191q-83 -141 -279 -141q-161 0 -250.5 95t-89.5 267v328q0 173 89.5 268.5t250.5 95.5q197 0 279 -143v96q0 19 16 19zM528 45q120 0 194.5 63t74.5 154v490q0 91 -74.5 154t-194.5 63q-134 0 -208 -77t-74 -216v-338
q0 -139 74 -216t208 -77z" />
    </font>
</defs>
</svg>
