<svg width="94" height="26" viewBox="0 0 94 26" fill="none" xmlns="http://www.w3.org/2000/svg">
<path d="M36.4081 12.3194L35.8494 12.9859L32.2645 17.2629L28.9123 21.2622H23.628L30.5419 12.9859H28.3536L17.6686 25.7335H10.9178L10.5453 25.2614L7.91481 22.1231L8.63645 21.2622L11.9653 17.2629H11.9886L15.5736 12.9859L19.1585 8.70897L22.4874 4.73749H20.2759L16.947 8.70897L13.3621 12.9859L9.75384 17.2629H3.02625L2.60723 16.7908L0 13.6802L0.558692 12.9859L4.16691 8.70897L7.49579 4.70972H12.7801L9.45121 8.70897L5.86627 12.9859H8.07776L11.6627 8.70897L14.9916 4.70972L18.7395 0.266113H25.4671L25.8628 0.710467L28.47 3.84878L28.4933 3.87654L24.4428 8.70897L20.8579 12.9859L13.9208 21.2622H16.1322L19.4844 17.2629L23.0693 12.9859L26.6543 8.70897H33.3819L33.7311 9.12556L36.4081 12.3194Z" fill="#F24E1E"/>
<path d="M68.3933 11.042C64.9015 10.8476 64.2264 10.7365 64.2264 9.76445C64.2264 9.76445 64.2264 9.73667 64.2264 9.7089C64.2264 9.68113 64.2264 9.68112 64.2264 9.65335C64.2264 9.62558 64.2264 9.62559 64.2264 9.62559C64.2264 9.5145 64.273 9.4034 64.3195 9.32008C64.3661 9.23676 64.4359 9.15345 64.5058 9.07014C64.5291 9.04236 64.5523 9.04236 64.5756 9.01459C64.5989 8.98681 64.6454 8.95904 64.692 8.95904C64.7153 8.93127 64.7386 8.93127 64.7851 8.93127C64.8084 8.93127 64.8317 8.90349 64.855 8.90349C64.8782 8.90349 64.9248 8.87572 64.9714 8.87572C65.2274 8.79241 65.5766 8.73686 66.0422 8.68131C66.0655 8.68131 66.2051 8.68131 66.2517 8.68131C66.275 8.68131 66.275 8.68131 66.2982 8.68131C66.7173 8.65354 67.2294 8.65355 67.8347 8.65355C69.3478 8.65355 70.4419 8.73686 71.1868 8.95904C71.2334 8.95904 71.2799 8.98681 71.3032 9.01459C71.3498 9.01459 71.373 9.04236 71.4196 9.07014C71.4661 9.07014 71.4894 9.09791 71.536 9.12568C71.536 9.12568 71.5593 9.12568 71.5593 9.15345C71.7688 9.26454 71.9783 9.4034 72.1645 9.57004C72.3042 9.7089 72.3973 9.81999 72.4671 9.90331L75.9357 7.4871C74.7485 5.4597 72.0714 4.6543 68.2304 4.6543C62.9228 4.6543 59.8733 5.98738 59.8733 9.62559C59.8733 13.4304 62.271 14.5969 68.3933 14.8746C72.2576 15.069 72.8862 15.2079 72.8862 16.2632C72.8862 17.2075 72.0947 17.5685 68.7193 17.5685C68.6029 17.5685 68.4865 17.5685 68.3933 17.5685C68.1838 17.5685 67.9743 17.5685 67.7648 17.5408C67.6717 17.5408 67.6019 17.5408 67.5087 17.5408C67.4622 17.5408 67.4156 17.5408 67.3691 17.5408C67.2992 17.5408 67.2294 17.5408 67.1363 17.5408C66.9733 17.5408 66.8104 17.513 66.6707 17.513C66.5776 17.513 66.5078 17.4852 66.4146 17.4852C66.275 17.4574 66.1353 17.4574 65.9956 17.4297C65.9258 17.4297 65.856 17.4019 65.7861 17.4019C65.693 17.3741 65.6232 17.3741 65.5533 17.3463C65.4835 17.3186 65.4369 17.3186 65.3671 17.2908C65.0645 17.2075 64.8084 17.0964 64.5989 16.9853C64.5756 16.9575 64.5291 16.9298 64.5058 16.9298C64.4825 16.902 64.4592 16.902 64.4359 16.8742C64.4359 16.8742 63.9471 16.5132 63.7609 16.2632C63.7143 16.2077 63.6677 16.1244 63.6212 16.0688L60.0828 18.5128C61.2467 20.9568 64.1566 21.6233 68.4632 21.6233C73.8639 21.6233 77.1695 20.5957 77.1695 16.1243C77.216 11.7363 73.8406 11.3475 68.3933 11.042Z" fill="#F24E1E"/>
<path d="M50.5384 11.042C47.0465 10.8476 46.3715 10.7365 46.3715 9.76445C46.3715 9.76445 46.3715 9.73667 46.3715 9.7089C46.3715 9.68113 46.3715 9.68112 46.3715 9.65335C46.3715 9.62558 46.3715 9.62559 46.3715 9.62559C46.3715 9.5145 46.418 9.4034 46.4646 9.32008C46.5111 9.23676 46.581 9.15345 46.6508 9.07014C46.6741 9.04236 46.6974 9.04236 46.7206 9.01459C46.7439 8.98681 46.7905 8.95904 46.837 8.95904C46.8603 8.93127 46.8836 8.93127 46.9301 8.93127C46.9534 8.93127 46.9767 8.90349 47 8.90349C47.0233 8.90349 47.0698 8.87572 47.1164 8.87572C47.3724 8.79241 47.7216 8.73686 48.1872 8.68131C48.2105 8.68131 48.2105 8.68131 48.2338 8.68131C48.2803 8.68131 48.3502 8.68131 48.3967 8.68131C48.42 8.68131 48.42 8.68131 48.4433 8.68131C48.8623 8.65354 49.3744 8.65355 49.9797 8.65355C51.4928 8.65355 52.5869 8.73686 53.3318 8.95904C53.3784 8.95904 53.4249 8.98681 53.4482 9.01459C53.4948 9.01459 53.5181 9.04236 53.5646 9.07014C53.6112 9.07014 53.6345 9.09791 53.681 9.12568C53.681 9.12568 53.7043 9.12568 53.7043 9.15345C53.9138 9.26454 54.1233 9.4034 54.3095 9.57004C54.4492 9.7089 54.5423 9.81999 54.6122 9.90331L58.0807 7.4871C56.8935 5.4597 54.2164 4.6543 50.3754 4.6543C45.0678 4.6543 42.0183 5.98738 42.0183 9.62559C42.0183 13.4304 44.416 14.5969 50.5384 14.8746C54.4027 15.069 55.0312 15.2079 55.0312 16.2632C55.0312 17.2075 54.2397 17.5685 50.8643 17.5685C50.7479 17.5685 50.6315 17.5685 50.5384 17.5685C50.3289 17.5685 50.1193 17.5685 49.9098 17.5408C49.8167 17.5408 49.7469 17.5408 49.6538 17.5408C49.6072 17.5408 49.5607 17.5408 49.5141 17.5408C49.4443 17.5408 49.3744 17.5408 49.2813 17.5408C49.1184 17.5408 48.9554 17.513 48.8157 17.513C48.7226 17.513 48.6528 17.4852 48.5597 17.4852C48.42 17.4574 48.2803 17.4574 48.1406 17.4297C48.0708 17.4297 48.001 17.4019 47.9311 17.4019C47.838 17.3741 47.7682 17.3741 47.6983 17.3463C47.6285 17.3186 47.582 17.3186 47.5121 17.2908C47.2095 17.2075 46.9534 17.0964 46.7439 16.9853C46.7206 16.9575 46.6741 16.9298 46.6508 16.9298C46.6275 16.902 46.6042 16.902 46.581 16.8742C46.581 16.8742 46.0921 16.5132 45.9059 16.2632C45.8593 16.2077 45.8128 16.1244 45.7662 16.0688L42.2278 18.5128C43.3918 20.9568 46.3016 21.6233 50.6082 21.6233C56.0089 21.6233 59.3145 20.5957 59.3145 16.1243C59.361 11.7363 55.9856 11.3475 50.5384 11.042Z" fill="#F24E1E"/>
<path d="M79.6835 4.76562L76.9832 6.65415V9.15368H83.315V21.2625H87.6681V9.15368H91.2996L94 7.26515V4.76562H79.6835Z" fill="#F24E1E"/>
</svg>
